<svg id="Слой_1" xmlns="http://www.w3.org/2000/svg" viewBox="0 0 69.4 92.9"><style>.st0{stroke:#002d33;stroke-width:.5;stroke-miterlimit:10}.st0,.st1{fill:#002d33}</style><path class="st0" d="M24 84.6l-.5.1c.1 0 .2-.1.3-.1.5-.2 1.1-.4 1.6-.7.5-.3 1-.6 1.4-.9l.1-.1c0-.1-.1-.1-.1-.1h-1.4c-.2 0-.4 0-.7.1H24c-.7.1-1.4.2-2.1.2l.6-1.2c.3-.9.6-1.7.8-2.7.1-.5.1-.9.1-1.4s0-1-.5-1.4c-.2-.2-.6-.2-.9-.1s-.5.3-.6.5c-.3.4-.6.8-.8 1.2-.5.8-.8 1.7-1.2 2.5l-.5 1.3c-.1.2-.1.4-.3.6l-.3.6c-.1.1-.1.2-.2.3h-.5c.2-.1.3-.3.4-.4.2-.2.3-.4.4-.6v-.1c0-.1 0-.2-.1-.2s-.3-.1-.4-.1h-.3s0-.1-.1-.1c-.1-.1-.2-.1-.3 0l-.2.2c-.1 0-.2.1-.3.1l-1.5.6-1.5.6c-.2.1-.5.2-.7.4l-.7.5-.1.1v.2c0 .1.1.1.1.2h1.1c-.8.2-1.5.4-2.3.6-.8.1-1.7.2-2.5.2 0-.1.1-.3.2-.4.1-.2.2-.4.3-.5.3-.3.6-.6.9-.8.7-.5 1.4-.8 2.2-1.2.8-.3 1.5-.6 2.3-.9s1.6-.6 2.3-1c-.7.4-1.5.7-2.3 1s-1.6.6-2.3.9c-.8.3-1.5.7-2.2 1.1-.4.2-.7.5-1 .8-.2.2-.3.3-.4.5-.1.2-.2.4-.2.6 0 .1 0 .1.1.1 1.8.1 3.7-.2 5.4-.8l.9-.3c.3-.1.7-.2 1-.2-.1.2-.2.5-.3.7-.1.3-.1.5-.2.8 0 .3 0 .5-.1.8l.1.8c0 .1 0 .1.1.1.1.1.2 0 .3 0l1.6-2.2c.3-.4.5-.8.8-1.2.1-.1.1-.2.2-.4l.8-.2 1.1-.1.7.1-.2.4v.2c.1.1.2.1.3 0 .3-.3.5-.5.7-.8.8-.1 1.5-.2 2.3-.3l.7-.1c.2 0 .4-.1.7-.1h.9c-.3.2-.7.5-1.1.7-.5.3-1 .5-1.5.7-1 .4-2.1.8-3.2 1.1 0 0-.1.1 0 .1 0 0 .1.1.1 0 .7-.2 1.4-.4 2.2-.7l1.2-.2 1.8-.2 1.8-.1-1.8.1-1.8.2zm-6.5-2.3h.6l-.3.3-.5.5c-.1.1-.2.1-.3.2h-.2c.3-.4.5-.7.7-1zm-.9.8l-.1.1h-.1l.2-.1zm-1.3 1.2c-.2 0-.4.1-.6.2-.4.1-.7.1-1.1.2h-.9l.5-.4c.2-.2.5-.3.7-.4.5-.3 1-.4 1.5-.6.3-.1.6-.3.9-.4l-.5.4-.1.1c0 .1.1.2.2.2h.4c-.1.1-.1.2-.1.3-.3.1-.6.2-.9.4zm2.4-.2c-.2.4-.5.8-.7 1.1L15.7 87v-.2c0-.2 0-.5.1-.7s.1-.5.2-.7c.1-.2.2-.5.3-.7 0-.1.1-.2.1-.3.2-.1.4-.1.6-.2l.7-.1zm.3-.5l-1.1.3c-.1 0-.2 0-.2.1.2-.1.4-.3.6-.4h.7zm3.5-.7c0 .1-.1.1-.1.2h-.1c-.5 0-.9.1-1.3.1h-1.3v-.1l.3-.6c.1-.2.2-.5.3-.7l.5-1.3c.3-.8.7-1.7 1.1-2.4.2-.4.5-.8.7-1.1.1-.2.3-.3.5-.4.1-.1.3 0 .4.1.2.2.3.6.3 1.1 0 .4 0 .9-.1 1.3-.2.9-.4 1.7-.8 2.6 0 .4-.2.9-.4 1.2zM8.8 39h43.5c.2 0 .4-.2.4-.4s-.2-.4-.4-.4H8.8c-.2 0-.4.2-.4.4s.2.4.4.4zM18.2 26.9h24.6c.2 0 .4-.2.4-.4s-.2-.4-.4-.4H18.2c-.2 0-.4.2-.4.4s.2.4.4.4zM24 22.5h13.1c.2 0 .4-.2.4-.4s-.2-.4-.4-.4H24c-.2 0-.4.2-.4.4s.1.4.4.4zM8.8 43.7h43.5c.2 0 .4-.2.4-.4s-.2-.4-.4-.4H8.8c-.2 0-.4.2-.4.4s.2.4.4.4zM8.8 48.3h43.5c.2 0 .4-.2.4-.4s-.2-.4-.4-.4H8.8c-.2 0-.4.2-.4.4s.2.4.4.4zM8.8 53h43.5c.2 0 .4-.2.4-.4s-.2-.4-.4-.4H8.8c-.2 0-.4.2-.4.4s.2.4.4.4zM8.8 57.6h43.5c.2 0 .4-.2.4-.4s-.2-.4-.4-.4H8.8c-.2 0-.4.2-.4.4s.2.4.4.4zM8.8 62.2h43.5c.2 0 .4-.2.4-.4s-.2-.4-.4-.4H8.8c-.2 0-.4.2-.4.4s.2.4.4.4zM8.8 66.9h43.5c.2 0 .4-.2.4-.4s-.2-.4-.4-.4H8.8c-.2 0-.4.2-.4.4s.2.4.4.4zM8.8 71.5h43.5c.2 0 .4-.2.4-.4s-.2-.4-.4-.4H8.8c-.2 0-.4.2-.4.4s.2.4.4.4zM53.8 83.8l-.3.1h-.6c-.2 0-.5-.1-.7-.1-.4-.1-.9-.3-1.3-.4-.4-.1-.9-.3-1.4-.3v-.3-.1c0-.1-.1-.1-.2-.1l-.7.3c-.1-.1-.2-.1-.3-.1-.2.1-.5.3-.7.4l-.8.3c-.5.1-1 .3-1.4.4 0-.1 0-.1-.1-.2 0-.1-.1-.2-.2-.2l.3-.3c0-.1.1-.2.1-.3v-.4c-.1-.1-.2-.1-.3-.1l-.3.2-.3.3c-.1.1-.1.2-.2.4h-.3v-.1c0-.1 0-.2.1-.2v-.1-.1c0-.1-.1-.2-.3-.2-.4.1-.8.2-1.1.3l-.8.2h-.1s0-.1.1-.1l.1-.2.1-.1c.1-.1.1-.2 0-.3-.1-.1-.2-.1-.3-.1l-.9.5-.3.2v-.2l.3-.7v-.2c-.1-.1-.2-.1-.3 0l-1 .7-.7.3c.1-.2.2-.3.3-.5.1-.1.3-.2.4-.4l.5-.6v-.1h-.1l-.5.4-.4.5c-.1.2-.3.4-.4.6-.3.3-.6.5-1 .7l.9-.6c-.1.1-.1.2-.2.3v.1c0 .1.1.1.2.1l1.2-.5.5-.3v.1l-.2.8v.2c.1.1.2.1.3 0l.7-.5v.1c0 .1.1.2.2.2h.6c.2 0 .4-.1.6-.1l.5-.2h.2v.3c0 .1.1.3.2.3h.6c0 .1.1.1.1.1h.6c0 .1.1.2.1.3 0 .1.1.1.2.1.6-.1 1.1-.3 1.7-.4l.6-.2v.2c.1.1.2.1.3 0l.8-.6.6-.3V83.6c0 .1.1.2.1.2.1 0 .2-.1.2-.1l.1-.4c.4.1.8.1 1.2.3.4.1.9.2 1.4.3.2 0 .5.1.7.1h.7l.3-.2c.1 0 .2 0 .3-.1l.6-.3-.6.3c0 .1-.1.1-.3.1z"/><path class="st0" d="M69.2.3H8.6v2.6H6v2.7H3.3v3.3h-3v83.8h60.5v-3.3h3.1v-2.7h2.7V84h2.6V.3zm-9.4 91.4H1.2V9.9h58.5l.1 81.8zm3.1-3.4h-2.1V8.9H4.2h.1V6.5h58.5v81.8h.1zm2.7-2.7h-1.7V5.5H7V3.8h58.5c.1 0 .1 81.8.1 81.8zm2.6-2.6h-1.6V2.8h-57V1.3h58.5l.1 81.7z"/><g><path class="st1" d="M43.7 19c.7.2 1.5.5 2.2.7v-.1-.4-.3c-.7-.2-1.4-.5-2.2-.7v.8zm2.1-.1c2.1.7 4 1.5 5.9 2.3 1.6.7 3.2 1.5 4.8 2.4v-.8c-1.5-.8-3.1-1.6-4.8-2.4-1.8-.8-3.8-1.6-5.8-2.3-.1.2-.1.4-.1.6v.2m-2.1-2.3v.8c.7.2 1.5.4 2.2.7h.1c.1-.2.1-.5.2-.7-.1 0-.2-.1-.3-.1-.7-.2-1.5-.4-2.2-.7m0-1.6v.8c.7.2 1.5.4 2.2.7.2.1.4.1.7.2.1-.2.3-.4.5-.6-.4-.1-.8-.3-1.1-.4-.8-.2-1.6-.4-2.3-.7m5.1 8.7c.9.5 1.9.8 3 .9.7.1 1.3.1 1.9.1.2 0 .5 0 .8-.1.3 0 .6-.1.8-.1.5 0 .9 0 1.3.1v-.3c-1.5-.8-3.1-1.6-4.8-2.4-1.9-.8-3.8-1.6-5.9-2.3.2 2 1.3 3.3 2.9 4.1m2.9-4.1c1.6.7 3.2 1.5 4.8 2.4v-.8c-1.5-.8-3.1-1.6-4.8-2.4s-3.4-1.5-5.2-2.1c-.1.2-.2.5-.3.7 1.9.7 3.7 1.4 5.5 2.2m3.7-2.2c.3.1.7.2 1.1.5v-4.2c-.5.2-1.1.2-1.5.2s-.8-.2-2.1-.2h-1.2c-1.1.1-2.2.5-2.9.9-.7.3-1.3.9-1.8 1.4 1.6.6 3.2 1.2 4.8 1.9 1.6.8 3.2 1.5 4.8 2.4v-.8c-1.4-.8-2.6-1.4-4.2-2.1.3-.2 1.1-.3 1.7-.3.4.1.8.2 1.3.3"/></g></svg>