<svg id="Слой_1" xmlns="http://www.w3.org/2000/svg" viewBox="0 0 92.9 41.1"><style>.st0,.st1{fill:#002d33}</style><path class="st0" d="M20.2 0H2.6C1.2 0 0 1.2 0 2.6v35.9c0 1.4 1.2 2.6 2.6 2.6h17.6c1.4 0 2.6-1.2 2.6-2.6V2.6c0-1.4-1.2-2.6-2.6-2.6zm1.4 13.1c0 1.3-1 2.3-2.3 2.3H3.5c-1.3 0-2.3-1-2.3-2.3V3.8c0-1.3 1-2.3 2.3-2.3h15.8c1.3 0 2.3 1 2.3 2.3v9.3z"/><path class="st0" d="M17.3 12.5c0 .9.7 1.6 1.6 1.6s1.6-.7 1.6-1.6c0-.9-1.6-3.3-1.6-3.3s-1.6 2.4-1.6 3.3zM32.7 31.7c-.3-.8-.7-1.7-1.1-2.7-1.3-2.9-3-6.9-3.2-11.9V17v-.2l.2-7.8c0-.7-.2-1.3-.9-1.5l-4.9-1.6v2l3.3 1-1.1 2.4c0 5.6 0 6.3 1.7 6.3.4 5 2.1 9 3.3 12 .4 1 .8 1.9 1.1 2.6.4 1.2.1 2-.4 2.5-.3.3-.7.5-1.1.5-.4.1-.9 0-1.3-.2-.8-.4-1.4-1.3-1.4-2.8v-2.8c0-.7.1-1.5-.1-2.2s-.6-1.2-1.2-1.6c-.7-.5-1.8-.7-2.6-.7v1.7c.6 0 1.3.2 1.7.4.2.1.3.3.4.5.3.5.2 1.3.2 1.8v2.8c0 2.3 1.1 3.7 2.4 4.4.7.3 1.5.4 2.3.3.8-.1 1.5-.4 2.1-1 .7-.6 1.2-2.1.6-4.1zM26 16.6c-.3-.3-.4-4.2-.4-4.2h.8l.3 4.3c-.2.1-.5.1-.7-.1zM91.3 8.1l-4.5 2.6v1.9l-5.9 6.8c-.5.6-.4 1.5.1 2 .6.5 1.5.4 2-.1l3.7-4.3-.1 6.3c0 .7.5 1.4 1.2 1.5v13.6l-1.9.4c-.8 0-1.5.7-1.5 1.5s.7.7 1.5.7H89.3c.8 0 1.5-.7 1.5-1.5V25v-.2c.8-.1 1.3-.8 1.3-1.6l.8-13.6c0-.8-.7-1.5-1.6-1.5z"/><circle class="st0" cx="89.3" cy="4.5" r="3.1"/><g><path class="st0" d="M62.7 36.9H52.1c-.2 0-.4.2-.4.4v2.1c0 .2.2.4.4.4h10.6c.2 0 .4-.2.4-.4v-2.1c0-.2-.2-.4-.4-.4z"/><path class="st0" d="M81.7 27.8c.1-1.2.4-2.9 0-4-.1-.4-.5-.9-.8-1.4-.8-1.2-1.7-3.1-2.7-4-.1-.1-.5-.4-.4-.6.2-.3.7.1 1.1.2 1.4.4 3.7-1.4 3.6-2.7-.2-2.1-5-.8-5.2 1.2-.6-1.7-1.2-3.2-2-4.7-.7-1.4-1.4-3.1-2.5-4.2-1.6-1.6-4.4-1.8-7.1-2.1-4-.4-8.7-.5-13-.3-1.4.1-2.7.2-4 .4-2.7.2-5.2.5-6.7 2-.5.5-.9 1.3-1.4 2-1 1.7-1.9 3.7-2.7 5.7-.1.4-.2.9-.5 1.2-.2-2.1-4.9-3.2-5.1-1.3-.1 1.5 2 3.2 3.4 2.9.5-.1.9-.6 1.3-.2-.6.8-1.4 2.5-2.1 3.3-.6.7-1.5 1.8-1.8 2.7-.2.5-.1 1.3-.1 2.1.1 2.1.4 3 .5 4.9 0 .5.1 1 .2 1.5 0 .7.1 1.5.1 2.2s.1 1.4.1 2.2c.1 1-.1 4 .7 4.3.5.2 1.7 0 2.3 0s1.8.2 2.3 0 .5-1.5.6-2.2c0-.2 0-.4.1-.7 1 .2 2 .2 3.1.3 2.6.2 5.3.3 8.2.4.1-.5-.3-1.9.2-2.2.2-.1 1-.1 1.5-.1h7.8c.8 0 2.7-.2 3 .1.4.4 0 1.6.2 2.2 2.8-.1 5.6-.2 8.2-.4 1.1-.1 2.1-.1 3.1-.3 0 1.2 0 2.4.7 2.9.7.1 1.4 0 2.2 0 .8 0 1.7.2 2.2 0s.6-1.5.6-2.2c.1-2.2.2-4.6.4-6.7m-38.6-2.8c-2 0-6-2.1-6-4.1s4-1.9 6-1.9 4.8 1.1 4.8 3.1-2.8 2.9-4.8 2.9zm17.7-.1c0 .1-.1.2-.2.2h-5.8c-.1 0-.2-.1-.2-.2v-.2c0-.1.1-.2.2-.2h5.8c.1 0 .2.1.2.2v.2zM39.1 17.5c1.1-3.4 2.9-6.8 4.8-9.4 9-.8 18.2-.9 27.2 0 1.8 2.6 3.7 6 4.7 9.3-12.1.2-24.5.2-36.7.1zm28.1 8.9c0-2 2.8-3.1 4.8-3.1s6-.1 6 1.9-4 4.1-6 4.1-4.8-.9-4.8-2.9z"/></g><g><path class="st1" d="M3.4 8c.6.2 1.3.4 1.9.6v-.4-.3c-.6-.2-1.2-.4-1.9-.6V8zm1.9-.1c1.8.6 3.5 1.3 5.2 2.1 1.4.6 2.8 1.4 4.2 2.1v-.7c-1.4-.7-2.7-1.4-4.2-2.1-1.6-.7-3.3-1.4-5.1-2 0 .1-.1.3-.1.6m-1.9-2v.7c.7.2 1.3.4 1.9.6h.1c.1-.2.1-.4.2-.6-.1 0-.2-.1-.3-.1-.6-.2-1.2-.4-1.9-.6m0-1.4v.7c.6.2 1.3.4 1.9.6.2.1.4.1.6.2.1-.2.3-.4.4-.5-.3-.2-.7-.3-1-.4-.6-.2-1.2-.4-1.9-.6m4.5 7.6c.8.4 1.7.7 2.6.8.6.1 1.2.1 1.7.1.2 0 .4 0 .7-.1.3 0 .5-.1.7-.1.5 0 .8 0 1.1.1v-.3c-1.4-.7-2.7-1.4-4.2-2.1-1.6-.7-3.3-1.4-5.2-2 .2 1.8 1.2 2.9 2.6 3.6m2.6-3.5c1.4.6 2.8 1.4 4.2 2.1v-.8c-1.4-.7-2.7-1.4-4.2-2.1C9 7.2 7.5 6.6 5.9 6l-.3.6c1.7.6 3.3 1.3 4.9 2m3.2-2c.3.1.6.2 1 .4V3.4c-.5.2-.9.2-1.3.2-.3 0-.7-.1-1.9-.2h-1c-1 .1-1.9.4-2.6.8-.6.3-1.2.8-1.6 1.3 1.5.5 2.9 1.1 4.2 1.7l4.2 2.1v-.8c-1.2-.7-2.3-1.2-3.7-1.9.3-.1 1-.2 1.5-.2.4 0 .8.1 1.2.2"/></g></svg>