<svg id="Layer_1" data-name="Layer 1" xmlns="http://www.w3.org/2000/svg" viewBox="0 0 227.87 73.39"><defs><style>.cls-1{fill:#d20a11}.cls-1,.cls-2{fill-rule:evenodd}.cls-2,.cls-3{fill:#fff}</style></defs><title>hhindex</title><path class="cls-1" d="M244.07 196a36.7 36.7 0 1 1-36.7-36.7 36.69 36.69 0 0 1 36.7 36.7z" transform="translate(-170.68 -159.31)"/><path class="cls-2" d="M191.36 178.25v12.59a8.72 8.72 0 0 1 6.88-3.44 8.54 8.54 0 0 1 3.7.78 6 6 0 0 1 2.49 2 7.26 7.26 0 0 1 1.15 2.68 24.41 24.41 0 0 1 .31 4.55v13.46h-6v-12.13a18.28 18.28 0 0 0-.33-4.58 3 3 0 0 0-1.2-1.54 3.75 3.75 0 0 0-2.15-.58 4.84 4.84 0 0 0-2.64.74 4.19 4.19 0 0 0-1.67 2.22 13.16 13.16 0 0 0-.54 4.37v11.5h-5.95v-32.62h6zM214.81 178.25v12.59a8.72 8.72 0 0 1 6.88-3.44 8.6 8.6 0 0 1 3.71.78 6 6 0 0 1 2.48 2 7.26 7.26 0 0 1 1.15 2.68 24.41 24.41 0 0 1 .31 4.55v13.46h-5.95v-12.13a18.1 18.1 0 0 0-.34-4.58 3 3 0 0 0-1.2-1.54 3.74 3.74 0 0 0-2.15-.58 4.84 4.84 0 0 0-2.64.74 4.26 4.26 0 0 0-1.71 2.22 13.55 13.55 0 0 0-.54 4.37v11.5h-6v-32.62h6z" transform="translate(-170.68 -159.31)"/><path class="cls-3" d="M265.93 178.25v22.53l11.86-22.53h5.51v32.81h-5.41v-23.12l-12.2 23.12h-5.21v-32.81h5.46zM289.34 187.3h4.92v9.35h8.27v-9.35h4.87v23.76h-4.87v-10.13h-8.27v10.13h-4.92V187.3zM313.25 206.78c1-1.72 2-5.56 2.46-13.48l.35-6h15.2v19.48h2.56v10.33h-4.28v-6.05h-14.08v6.05h-4.28v-10.33h2.07zm4.67 0h8.46v-15.2h-6.25l-.1 2.51c-.29 7.57-1.27 10.97-2.11 12.69zM346.21 186.71c6.45 0 9.89 5.46 9.89 12.64v1.43H341c.2 3.89 2.36 6.84 6.2 6.84a7.32 7.32 0 0 0 5.36-2.56l2.36 3a10.86 10.86 0 0 1-8.21 3.64c-6.54 0-10.68-5.12-10.68-12.5-.03-6.93 3.83-12.49 10.18-12.49zm-5.26 10.58h10.38c-.05-3-1.38-6.59-5.17-6.59s-5.07 3.73-5.22 6.59zM368.29 201.12l-2.85 3.88v6.1h-4.92v-23.8h4.92V199l8.36-11.66h5.71L371.64 198l8 13.09h-5.74zM391.31 186.71a8.78 8.78 0 0 1 7.23 3.2l-2.54 3.34a5 5 0 0 0-4.2-2.25c-3.74 0-5.85 3.59-5.85 8.12s2.12 8.17 5.85 8.17a5.17 5.17 0 0 0 4.23-2.21l2.51 3.35a8.78 8.78 0 0 1-7.23 3.2c-6.35 0-10.43-5.31-10.43-12.5s4.12-12.42 10.43-12.42z" transform="translate(-170.68 -159.31)"/></svg>