<svg id="Layer_1" xmlns="http://www.w3.org/2000/svg" viewBox="0 0 1024 1024"><style>.st0{fill:#fff}</style><path class="st0" d="M901.3 348.1C743.5 447.4 758.5 674.2 929 751.8c-5.6 14.8-10.8 30-17 44.7-25.4 61.1-61.2 115.9-103.8 166.3-23.7 28-51.4 50.9-89.1 57.4-28.8 5-56.3-.6-83.2-11.3-22-8.7-44.1-18.5-67-23.5-39.5-8.8-78.3-3-116.1 12-23.7 9.4-48 18-72.8 24-30.2 7.3-58.9-1.2-82-20.5-22.5-18.8-43.8-39.8-62.1-62.6-73.3-91.1-118-195.2-134.9-310.7-11.5-78.8-8.5-156.9 27.5-229.6 46.5-93.7 121.7-145.9 228.2-147.8 28.4-.5 55 9.3 81.3 19.1 18.7 7 37.2 14.2 56 20.7 16.4 5.7 33.2 5.7 49.6-.3 27-9.9 53.8-20.1 80.9-29.7 95.2-33.6 210.6-.7 269.5 78 2.6 3.3 4.9 6.7 7.3 10.1zM511.4 237.3c-3.7-26-1.4-49.1 5.8-71.5 28.4-88 87.7-142.7 178-163.3 21.5-4.9 21.9-4.1 21.9 17.7-.1 97.1-72.2 191-163.5 212.1-13.5 3-27.6 3.3-42.2 5z"/></svg>