<?xml version="1.0" encoding="utf-8"?>
<!-- Generator: Adobe Illustrator 19.1.0, SVG Export Plug-In . SVG Version: 6.00 Build 0)  -->
<svg version="1.1" id="Слой_1" xmlns="http://www.w3.org/2000/svg" xmlns:xlink="http://www.w3.org/1999/xlink" x="0px" y="0px"
	 viewBox="0 0 49.6 30.3" style="enable-background:new 0 0 49.6 30.3;" xml:space="preserve">
<style type="text/css">
	.st0{clip-path:url(#SVGID_2_);fill:none;stroke:#015E27;stroke-width:0.998;}
	.st1{fill:none;stroke:#015E27;stroke-width:0.998;}
	.st2{clip-path:url(#SVGID_4_);fill:none;stroke:#015E27;stroke-width:0.998;}
</style>
<g>
	<defs>
		<rect id="SVGID_1_" y="0" width="49.6" height="30.3"/>
	</defs>
	<clipPath id="SVGID_2_">
		<use xlink:href="#SVGID_1_"  style="overflow:visible;"/>
	</clipPath>
	<rect x="0.5" y="1.1" class="st0" width="18.7" height="28.7"/>
	<rect x="19.5" y="1.1" class="st0" width="19.4" height="28.7"/>
</g>
<line class="st1" x1="5.6" y1="8.2" x2="14.9" y2="8.2"/>
<line class="st1" x1="27.8" y1="8.2" x2="33.8" y2="8.2"/>
<line class="st1" x1="5.6" y1="15.4" x2="14.9" y2="15.4"/>
<line class="st1" x1="24.5" y1="15.4" x2="33.8" y2="15.4"/>
<line class="st1" x1="5.6" y1="22.6" x2="14.9" y2="22.6"/>
<line class="st1" x1="24.5" y1="22.6" x2="33.8" y2="22.6"/>
<g>
	<defs>
		<rect id="SVGID_3_" y="0" width="49.6" height="30.3"/>
	</defs>
	<clipPath id="SVGID_4_">
		<use xlink:href="#SVGID_3_"  style="overflow:visible;"/>
	</clipPath>
	<polygon class="st2" points="23.8,1.1 23.8,12.2 25.9,10.8 27.8,12.2 27.8,1.1 	"/>
	<line class="st2" x1="38.5" y1="29.8" x2="49.6" y2="29.8"/>
	<polyline class="st2" points="47.1,29.8 47.1,9.1 43.2,9.1 43.2,29.7 	"/>
	<path class="st2" d="M45.2,8.1c0.7,0,1.3-0.7,1.3-2.6s-1.3-4.4-1.3-4.4s-1.3,2.5-1.3,4.4S44.4,8.1,45.2,8.1z"/>
</g>
</svg>
