<?xml version="1.0" encoding="utf-8"?>
<!-- Generator: Adobe Illustrator 19.1.0, SVG Export Plug-In . SVG Version: 6.00 Build 0)  -->
<svg version="1.1" id="Слой_1" xmlns="http://www.w3.org/2000/svg" xmlns:xlink="http://www.w3.org/1999/xlink" x="0px" y="0px"
	 viewBox="0 0 42.4 41.9" style="enable-background:new 0 0 42.4 41.9;" xml:space="preserve">
<style type="text/css">
	.st0{fill-rule:evenodd;clip-rule:evenodd;fill:none;stroke:#264D3F;stroke-miterlimit:10;}
	.st1{display:none;}
	.st2{display:inline;fill-rule:evenodd;clip-rule:evenodd;fill:none;stroke:#264D3F;stroke-miterlimit:10;}
	.st3{display:inline;fill-rule:evenodd;clip-rule:evenodd;fill:#264D3F;}
</style>
<g>
	<path class="st0" d="M19.8,23.1l0.5,0.9h1.6l0.6-0.9l16.8-3.7l-2.4,18.7l-13.6,2.2c0,0-0.2,0.8-2,0.8c-1.8,0-2.3-0.9-2.3-0.9
		L5.4,38L2.9,19.5L19.8,23.1z"/>
	<path class="st0" d="M27.6,14.5c0,0-2.2,6.2-6.6,6.2s-6.1-6.2-6.1-6.2s-1,0.1-1.7-1.1c-0.9-1.6,0.6-2.2,0.6-2.2s-1.3-2.9,0-5.8
		c1.3-2.9,4.1-4.2,7.7-4.2c3.6,0,5.9,1.4,7.1,3.9c1.2,2.6,0,6,0,6s1.9-0.3,1.2,1.6C29.1,14.6,27.6,14.5,27.6,14.5z"/>
	<path class="st0" d="M37.5,35.1c1.1,0,2.2-0.6,3.2-2.1c2.1-3.4,0.6-5.6-1.2-5c-0.4,0.1-0.8,0.3-1.3,0.5"/>
	<path class="st0" d="M4.2,28.5C3.8,28.3,3.3,28.1,3,28c-1.7-0.6-3.2,1.5-1.2,5c0.9,1.5,2.1,2.1,3.2,2.1"/>
</g>
<g class="st1">
	<path class="st2" d="M36,40.7H6.6c-3.1,0-5.6-2.5-5.6-5.6v0c0-3.1,2.5-5.6,5.6-5.6H36c3.1,0,5.6,2.5,5.6,5.6v0
		C41.6,38.2,39.1,40.7,36,40.7z"/>
	<line class="st2" x1="21.8" y1="2.4" x2="21.8" y2="25.7"/>
	<polyline class="st2" points="16.4,19.8 21.8,25.4 27,19.8 	"/>
	<circle class="st3" cx="7.9" cy="35.1" r="1.3"/>
	<circle class="st3" cx="13.4" cy="35.1" r="1.3"/>
	<circle class="st3" cx="19.1" cy="35.1" r="1.3"/>
</g>
</svg>
