<?xml version="1.0" encoding="utf-8"?>
<!-- Generator: Adobe Illustrator 19.1.0, SVG Export Plug-In . SVG Version: 6.00 Build 0)  -->
<svg version="1.1"
	 id="Слой_1" inkscape:version="0.91 r13725" sodipodi:docname="sprite_white.svg" xmlns:cc="http://creativecommons.org/ns#" xmlns:sodipodi="http://sodipodi.sourceforge.net/DTD/sodipodi-0.dtd" xmlns:dc="http://purl.org/dc/elements/1.1/" xmlns:rdf="http://www.w3.org/1999/02/22-rdf-syntax-ns#" xmlns:inkscape="http://www.inkscape.org/namespaces/inkscape" xmlns:svg="http://www.w3.org/2000/svg"
	 xmlns="http://www.w3.org/2000/svg" xmlns:xlink="http://www.w3.org/1999/xlink" x="0px" y="0px" viewBox="3 59.1 408.3 37.8"
	 style="enable-background:new 3 59.1 408.3 37.8;" xml:space="preserve">
<style type="text/css">
	.st0{fill:none;stroke:#00392F;stroke-width:2;stroke-miterlimit:10;}
	.st1{fill:#00392F;}
	.st2{fill-rule:evenodd;clip-rule:evenodd;fill:none;stroke:#00392F;stroke-width:2;stroke-miterlimit:10;}
	.st3{fill-rule:evenodd;clip-rule:evenodd;fill:#00392F;}
</style>
<sodipodi:namedview  id="namedview59" inkscape:pageshadow="2" inkscape:window-height="1017" inkscape:window-maximized="1" inkscape:pageopacity="0" inkscape:current-layer="Слой_1" inkscape:window-width="1920" inkscape:window-y="-8" inkscape:window-x="-8" pagecolor="#00392f" borderopacity="1" showgrid="false" inkscape:cx="-60.211749" gridtolerance="10" inkscape:cy="32.525648" bordercolor="#666666" inkscape:zoom="2.0464628" objecttolerance="10" guidetolerance="10">
	</sodipodi:namedview>
<g id="g5" transform="translate(-14,0)">
	<polygon id="polygon7" class="st0" points="141.8,83.2 132.9,74.5 145.2,72.7 150.7,61.6 156.2,72.7 168.5,74.5 159.6,83.2 
		161.7,95.4 150.7,89.7 139.7,95.4 	"/>
</g>
<g id="g9" transform="translate(-16,0)">
	<line id="line11" class="st0" x1="196.4" y1="66.7" x2="223.1" y2="66.7"/>
	<rect id="rect13" x="192.2" y="65.7" class="st1" width="2" height="2"/>
	<line id="line15" class="st0" x1="196.4" y1="74.7" x2="223.1" y2="74.7"/>
	<rect id="rect17" x="192.2" y="73.7" class="st1" width="2" height="2"/>
	<line id="line19" class="st0" x1="196.4" y1="82.7" x2="223.1" y2="82.7"/>
	<rect id="rect21" x="192.2" y="81.7" class="st1" width="2" height="2"/>
	<line id="line23" class="st0" x1="196.4" y1="90.6" x2="223.1" y2="90.6"/>
	<rect id="rect25" x="192.2" y="89.6" class="st1" width="2" height="2"/>
</g>
<g id="g27" transform="translate(-14,0)">
	<polyline id="polyline29" class="st0" points="79.8,61.5 84.3,61.5 89.5,90 	"/>
	<polyline id="polyline31" class="st0" points="88.5,82.2 107.6,82.2 114.5,68.3 85.6,68.3 	"/>
	<line id="line33" class="st0" x1="87.2" y1="75.3" x2="110.5" y2="75.3"/>
	<circle id="circle35" class="st0" cx="90.3" cy="92.6" r="3.3"/>
	<circle id="circle37" class="st0" cx="104.8" cy="92.6" r="3.3"/>
	<line id="line39" class="st0" x1="93.6" y1="92.6" x2="101.5" y2="92.6"/>
</g>
<g id="g41">
	<rect id="rect43" x="4.1" y="63.2" class="st0" width="43.5" height="30.8"/>
	<line id="line45" class="st0" x1="25.9" y1="63.7" x2="25.9" y2="94.4"/>
	<line id="line47" class="st0" x1="8.9" y1="70.6" x2="21.3" y2="70.6"/>
	<line id="line49" class="st0" x1="8.9" y1="78.3" x2="21.3" y2="78.3"/>
	<line id="line51" class="st0" x1="8.9" y1="85.9" x2="21.3" y2="85.9"/>
	<line id="line53" class="st0" x1="30.7" y1="70.6" x2="43.1" y2="70.6"/>
	<line id="line55" class="st0" x1="30.7" y1="78.3" x2="43.1" y2="78.3"/>
	<line id="line57" class="st0" x1="30.7" y1="85.9" x2="43.1" y2="85.9"/>
</g>
<g>
	<path class="st2" d="M289.7,75.5l6.5,5.9l7.4-5.9"/>
	<path class="st2" d="M296.3,60.6v21"/>
</g>
<rect x="280.3" y="85" class="st2" width="31.6" height="9.5"/>
<rect x="284" y="88.5" class="st3" width="2.5" height="2.5"/>
<rect x="289.2" y="88.5" class="st3" width="2.5" height="2.5"/>
<g>
	<path class="st2" d="M257.4,90.4l-0.5,3.2L245,95.5c0,0-0.2,0.7-1.8,0.7c-1.6,0-2-0.8-2-0.8l-12-1.9l-0.5-3.1 M228.1,84.6l-1-7.3
		l14.8,3.2l0.5,0.8h1.4l0.6-0.8l14.8-3.3l-0.8,7.3"/>
	<path class="st2" d="M248.7,72.9c0,0-1.9,5.4-5.8,5.4c-3.9,0-5.4-5.4-5.4-5.4s-0.9,0.1-1.5-1c-0.8-1.4,0.6-1.9,0.6-1.9
		s-1.1-2.5,0-5.1c1.1-2.6,3.6-3.7,6.7-3.7c3.1,0,5.2,1.2,6.2,3.4c1,2.2,0,5.3,0,5.3s1.6-0.3,1.1,1.4C250,73,248.7,72.9,248.7,72.9z"
		/>
</g>
<g>
	<path class="st2" d="M259.1,84.2c-1.5,0.5-4.4,1.7-4.1,4c0.3,2.3,3.3,3.4,5.1,0.4C262,85.5,260.6,83.7,259.1,84.2z"/>
	<path class="st2" d="M227,84.2c1.5,0.5,4.4,1.7,4.1,4c-0.3,2.3-3.3,3.3-5.1,0.4C224.1,85.5,225.5,83.7,227,84.2z"/>
</g>
<line class="st2" x1="331.9" y1="61.9" x2="363.2" y2="93.1"/>
<line class="st2" x1="331.9" y1="93.1" x2="363.2" y2="61.9"/>
<g>
	<path class="st1" d="M383.4,64.2l-0.2-2c0.2,0,1.9-0.2,2.8-0.3c1.1-0.1,4.8-0.4,7-0.4c6.1,0,8.6,2.1,8.6,6.8c0,1.2-0.3,2.3-0.9,3.4
		c-0.6,1.1-1.5,2.2-2.3,3c-0.8,0.8-1.4,1.5-2.2,2.4c-0.8,0.8-1.5,1.9-2,3.1c-0.6,1.2-1,2.5-1,4h-2.1c0-1.6,0.2-3,0.8-4.3
		c0.5-1.3,1.2-2.4,2-3.3c0.8-0.9,1.6-1.7,2.3-2.5c0.8-0.8,1.5-1.6,2-2.6s0.8-1.9,0.9-2.9c0-1.7-0.5-3-1.5-3.9
		c-1.1-0.8-2.8-1.1-5.1-1.1C389.9,63.6,386.8,63.8,383.4,64.2z M392,88.7h0.6c0.8,0,1.1,0.4,1.1,1.1v2.6c0,0.8-0.4,1.1-1.1,1.1H392
		c-0.7,0-1.1-0.4-1.1-1.1v-2.6C390.9,89.1,391.3,88.7,392,88.7z"/>
</g>
</svg>
