<?xml version="1.0" encoding="UTF-8" standalone="no"?>
<!-- Generator: Adobe Illustrator 19.1.0, SVG Export Plug-In . SVG Version: 6.00 Build 0)  -->

<svg
   xmlns:dc="http://purl.org/dc/elements/1.1/"
   xmlns:cc="http://creativecommons.org/ns#"
   xmlns:rdf="http://www.w3.org/1999/02/22-rdf-syntax-ns#"
   xmlns:svg="http://www.w3.org/2000/svg"
   xmlns="http://www.w3.org/2000/svg"
   xmlns:sodipodi="http://sodipodi.sourceforge.net/DTD/sodipodi-0.dtd"
   xmlns:inkscape="http://www.inkscape.org/namespaces/inkscape"
   version="1.1"
   id="Слой_1"
   x="0px"
   y="0px"
   viewBox="0 0 253.3 76"
   style="enable-background:new 0 0 253.3 76;"
   xml:space="preserve"
   inkscape:version="0.91 r13725"
   sodipodi:docname="VectorLogo.svg"><metadata
     id="metadata25"><rdf:RDF><cc:Work
         rdf:about=""><dc:format>image/svg+xml</dc:format><dc:type
           rdf:resource="http://purl.org/dc/dcmitype/StillImage" /></cc:Work></rdf:RDF></metadata><defs
     id="defs23" /><sodipodi:namedview
     pagecolor="#ffffff"
     bordercolor="#666666"
     borderopacity="1"
     objecttolerance="10"
     gridtolerance="10"
     guidetolerance="10"
     inkscape:pageopacity="0"
     inkscape:pageshadow="2"
     inkscape:window-width="1749"
     inkscape:window-height="746"
     id="namedview21"
     showgrid="false"
     inkscape:zoom="1.5001974"
     inkscape:cx="19.664079"
     inkscape:cy="38"
     inkscape:window-x="0"
     inkscape:window-y="0"
     inkscape:window-maximized="0"
     inkscape:current-layer="Слой_1" /><style
     type="text/css"
     id="style3">
	.st0{fill:#015E27;}
	.st1{fill:none;}
	.st2{fill:#FFFFFF;}
	.st3{font-family:'Exo 2', sans-serif';}
	.st4{font-size:17px;}
</style><g
     id="g5"><rect
       x="124"
       y="-1.7"
       class="st0"
       width="135.8"
       height="82.3"
       id="rect7" /><path
       class="st0"
       d="M14.7,34.3c11.3-2.2,22.5-4.4,33.8-6.6c1.1-0.2,2.7-0.2,2.8-1.6c0.1-1.3-1.3-1.8-2.3-2.3   c-8.7-4.2-18.1-5.9-27.5-7.4c-3.5-0.5-7-0.9-10.5-1.2c-1.4-0.1-4.8-0.4-7.5-0.9c-1.6-0.3-3-0.5-3.5-1C17,11,34,8.8,51,6.4   C56,5.7,57.7,5.7,56.7,0c23,0,44.3,0,67.3,0c0,5.7,1.1,23.3-0.1,17.8c-0.1-0.6-0.5-0.7-0.8-0.7c-0.2,0-0.5,0-0.7,0   c-12.2,0-24.3,0.1-36.5,0.1c-2.3-0.4-3.5-1.7-3.2-4c0.4-3.2,3.1-2.5,5.3-2.5c-0.8-4.5-2.4-5.5-7.2-4.9C67.4,7.5,54,9.2,40.6,11   c-5.2,0.7-10.4,1.4-15.6,2.2c2.2,0.9,4.4,1.2,6.5,1.6c7.4,1.4,14.7,2.9,21,7.4c1.8,1.3,3.4,2.9,2.8,5.5c-0.6,2.5-2.7,2.9-4.7,3.3   c-3.4,0.7-6.9,1.4-10.3,2.1c4.6,1.5,9.2,2.3,12.8,5.4c1.6,1.4,3.1,2.9,2.5,5.3c-0.5,2.2-2.4,2.9-4.3,3.4c-2,0.6-4.2,0.7-6,2.1   c5.1,1.5,11.1,0.8,13.4,7.4c21-12,41.9-24,63.2-36.2c0.5-0.3,1.1-0.6,1.6-0.9c0.2-0.1,0.5-0.3,0.5-1.2V76H55.7   c-1.2-4.5,0-7.4,4.4-9.9C79.4,54.9,98.3,43.4,117.3,32c1.1-0.6,2.2-1.3,3.4-2c-4.7-1.2-7.1-1-10.6,1.1c-18,10.3-36,20.7-53.8,31   c-0.8-0.2-0.9-0.7-0.8-1.2c0.6-4.2-1.7-6.2-5.3-7.2c-5.8-1.6-11.7-2.2-17.6-2.3c-1.7,0-3.3,0-6.2,0c4.4-2.2,8.2-2.7,11.7-3.8   c3.7-1.2,7.4-2.1,11.1-3.2c1.1-0.3,2.6-0.1,2.7-1.7c0.1-1.4-1.2-1.9-2.2-2.4c-5.9-2.9-12.3-3.8-18.7-4.5   C30.2,35.6,23,35.4,14.7,34.3"
       id="path9" /></g><rect
     x="132"
     y="6.6"
     class="st1"
     width="112.7"
     height="53.7"
     id="rect11" /><text
     transform="matrix(1 0 0 1 132 18.5415)"
     id="text13"><tspan
       x="0"
       y="0"
       class="st2 st3 st4"
       id="tspan15">ЦЕНТР </tspan><tspan
       x="0"
       y="17"
       class="st2 st3 st4"
       id="tspan17">ТАТАРСКОЙ </tspan><tspan
       x="0"
       y="34"
       class="st2 st3 st4"
       id="tspan19">ЛИТЕРАТУРЫ</tspan></text>
</svg>