<?xml version="1.0" standalone="no"?>
<!DOCTYPE svg PUBLIC "-//W3C//DTD SVG 1.1//EN" "http://www.w3.org/Graphics/SVG/1.1/DTD/svg11.dtd">
<!--Generator: Xara Designer (www.xara.com), SVG filter version: 5.0.0.2-->
<svg stroke-width="0.501" stroke-linejoin="bevel" fill-rule="evenodd" xmlns:xlink="http://www.w3.org/1999/xlink" xmlns="http://www.w3.org/2000/svg" version="1.1" overflow="visible" width="459.378pt" height="205.528pt" viewBox="0 0 459.378 205.528">
 <defs>
  <marker id="DefaultArrow2" markerUnits="strokeWidth" viewBox="0 0 1 1" markerWidth="1" markerHeight="1" overflow="visible" orient="auto">
   <!-- REF_ARROW_STRAIGHT (-2) -->
   <g transform="scale(0.0092592592)">
    <!-- 1/108 -->
    <path d="M -9 54 L -9 -54 L 117 0 z"/>
   </g>
  </marker>
  <marker id="DefaultArrow3" markerUnits="strokeWidth" viewBox="0 0 1 1" markerWidth="1" markerHeight="1" overflow="visible" orient="auto">
   <!-- REF_ARROW_ANGLED -->
   <g transform="scale(0.0092592592)">
    <path d="M -27 54 L -9 0 L -27 -54 L 135 0 z"/>
   </g>
  </marker>
  <marker id="DefaultArrow4" markerUnits="strokeWidth" viewBox="0 0 1 1" markerWidth="1" markerHeight="1" overflow="visible" orient="auto">
   <!-- REF_ARROW_ROUNDED -->
   <g transform="scale(0.0092592592)">
    <path d="M -9,0 L -9,-45 C -9,-51.708 2.808,-56.580 9,-54 L 117,-9 C 120.916,-7.369 126.000,-4.242 126,0 C 126,4.242 120.916,7.369 117,9 L 9,54 C 2.808,56.580 -9,51.708 -9,45 z"/>
   </g>
  </marker>
  <marker id="DefaultArrow5" markerUnits="strokeWidth" viewBox="0 0 1 1" markerWidth="1" markerHeight="1" overflow="visible" orient="auto">
   <!-- REF_ARROW_SPOT -->
   <g transform="scale(0.0092592592)">
    <path d="M -54, 0 C -54,29.807 -29.807,54 0,54 C 29.807,54 54,29.807 54,0 C 54,-29.807 29.807,-54 0,-54 C -29.807,-54 -54,-29.807 -54,0 z"/>
   </g>
  </marker>
  <marker id="DefaultArrow6" markerUnits="strokeWidth" viewBox="0 0 1 1" markerWidth="1" markerHeight="1" overflow="visible" orient="auto">
   <!-- REF_ARROW_DIAMOND -->
   <g transform="scale(0.0092592592)">
    <path d="M -63,0 L 0,63 L 63,0 L 0,-63 z"/>
   </g>
  </marker>
  <marker id="DefaultArrow7" markerUnits="strokeWidth" viewBox="0 0 1 1" markerWidth="1" markerHeight="1" overflow="visible" orient="auto">
   <!-- REF_ARROW_FEATHER -->
   <g transform="scale(0.0092592592)">
    <path d="M 18,-54 L 108,-54 L 63,0 L 108,54 L 18, 54 L -36,0 z"/>
   </g>
  </marker>
  <marker id="DefaultArrow8" markerUnits="strokeWidth" viewBox="0 0 1 1" markerWidth="1" markerHeight="1" overflow="visible" orient="auto">
   <!-- REF_ARROW_FEATHER2 -->
   <g transform="scale(0.0092592592)">
    <path d="M -36,0 L 18,-54 L 54,-54 L 18,-18 L 27,-18 L 63,-54 L 99,-54 L 63,-18 L 72,-18 L 108,-54 L 144,-54 L 90,0 L 144,54 L 108,54 L 72,18 L 63,18 L 99,54 L 63,54 L 27,18 L 18,18 L 54,54 L 18,54 z"/>
   </g>
  </marker>
  <marker id="DefaultArrow9" markerUnits="strokeWidth" viewBox="0 0 1 1" markerWidth="1" markerHeight="1" overflow="visible" orient="auto">
   <!-- REF_ARROW_HOLLOWDIAMOND -->
   <g transform="scale(0.0092592592)">
    <path d="M 0,45 L -45,0 L 0, -45 L 45, 0 z M 0, 63 L-63, 0 L 0, -63 L 63, 0 z"/>
   </g>
  </marker>
  <filter id="StainedFilter">
   <feBlend mode="multiply" in2="BackgroundImage" in="SourceGraphic" result="blend"/>
   <feComposite in="blend" in2="SourceAlpha" operator="in" result="comp"/>
  </filter>
  <filter id="BleachFilter">
   <feBlend mode="screen" in2="BackgroundImage" in="SourceGraphic" result="blend"/>
   <feComposite in="blend" in2="SourceAlpha" operator="in" result="comp"/>
  </filter>
  <filter id="InvertTransparencyBitmapFilter">
   <feComponentTransfer>
    <feFuncR type="gamma" amplitude="1.055" exponent=".416666666" offset="-0.055"/>
    <feFuncG type="gamma" amplitude="1.055" exponent=".416666666" offset="-0.055"/>
    <feFuncB type="gamma" amplitude="1.055" exponent=".416666666" offset="-0.055"/>
   </feComponentTransfer>
   <feComponentTransfer>
    <feFuncR type="linear" slope="-1" intercept="1"/>
    <feFuncG type="linear" slope="-1" intercept="1"/>
    <feFuncB type="linear" slope="-1" intercept="1"/>
    <feFuncA type="linear" slope="1" intercept="0"/>
   </feComponentTransfer>
   <feComponentTransfer>
    <feFuncR type="gamma" amplitude="1" exponent="2.4" offset="0"/>
    <feFuncG type="gamma" amplitude="1" exponent="2.4" offset="0"/>
    <feFuncB type="gamma" amplitude="1" exponent="2.4" offset="0"/>
   </feComponentTransfer>
  </filter>
  <linearGradient id="LinearGradient" gradientUnits="userSpaceOnUse" x1="0" y1="0" x2="21.74" y2="0" gradientTransform="translate(150.488 182.986) rotate(92.3172) skewX(1.36987)">
   <stop offset="0" stop-color="#e5e5e5"/>
   <stop offset="1" stop-color="#ffffff"/>
  </linearGradient>
 </defs>
 <g id="Document" fill="none" stroke="black" font-family="Times New Roman" font-size="16" transform="scale(1 -1)">
  <g id="Spread" transform="translate(0 -205.528)">
   <g id="Layer 1">
    <g id="Group">
     <path d="M 459.173,205.317 L 0.234,205.317" fill="none" stroke="#4c4c4c" stroke-linecap="square" stroke-linejoin="round" stroke-width="0.375" stroke-miterlimit="79.8403193612775"/>
     <path d="M -0.006,205.085 L -0.006,187.49 L 459.373,187.49 L 459.373,205.085 L -0.006,205.085 Z" stroke="none" stroke-linecap="round" stroke-width="0.75" stroke-linejoin="miter" marker-start="none" marker-end="none" stroke-miterlimit="79.8403193612775" fill="url(#LinearGradient)"/>
     <path d="M 459.189,187.402 L 0.181,187.402" fill="none" stroke="#4c4c4c" stroke-linecap="square" stroke-linejoin="round" stroke-width="0.375" stroke-miterlimit="79.8403193612775"/>
     <g id="Group_1" stroke-linejoin="round" stroke-linecap="round" stroke="#b2b2b2" stroke-width="0.188" fill="#b2b2b2" stroke-miterlimit="79.8403193612775">
      <path d="M 455.138,31.455 L 21.912,31.071" fill="none"/>
      <path d="M 455.138,53.36 L 21.912,52.976" fill="none"/>
      <path d="M 455.138,75.265 L 21.912,74.882" fill="none"/>
      <path d="M 455.138,97.171 L 21.912,96.788" fill="none"/>
      <path d="M 455.138,119.076 L 21.912,118.693" fill="none"/>
      <path d="M 455.138,140.982 L 21.912,140.599" fill="none"/>
      <path d="M 455.138,162.888 L 21.912,162.505" fill="none"/>
     </g>
     <g id="Group_2" stroke-dasharray="1.504 1.504" stroke-dashoffset="0" stroke-linejoin="round" stroke-linecap="square" stroke="#4c4c4c" stroke-width="0.188" fill="#4c4c4c" stroke-miterlimit="79.8403193612775">
      <path d="M 25.089,175.542 L 25.089,30.695" fill="none"/>
      <path d="M 39.492,175.542 L 39.492,30.695" fill="none"/>
      <path d="M 53.895,175.542 L 53.895,30.695" fill="none"/>
      <path d="M 68.299,175.542 L 68.299,30.695" fill="none"/>
      <path d="M 82.702,175.542 L 82.702,30.695" fill="none"/>
      <path d="M 97.106,175.542 L 97.106,30.695" fill="none"/>
      <path d="M 111.509,175.542 L 111.509,30.695" fill="none"/>
      <path d="M 125.913,175.542 L 125.913,30.695" fill="none"/>
      <path d="M 140.316,175.542 L 140.316,30.695" fill="none"/>
      <path d="M 154.72,175.542 L 154.72,30.695" fill="none"/>
      <path d="M 169.123,175.542 L 169.123,30.695" fill="none"/>
      <path d="M 183.527,175.542 L 183.527,30.695" fill="none"/>
      <path d="M 197.93,175.542 L 197.93,30.695" fill="none"/>
      <path d="M 212.334,175.542 L 212.334,30.695" fill="none"/>
      <path d="M 226.737,175.542 L 226.737,30.695" fill="none"/>
      <path d="M 241.141,175.542 L 241.141,30.695" fill="none"/>
      <path d="M 255.544,175.542 L 255.544,30.695" fill="none"/>
      <path d="M 269.948,175.542 L 269.948,30.695" fill="none"/>
      <path d="M 284.351,175.542 L 284.351,30.695" fill="none"/>
      <path d="M 298.755,175.542 L 298.755,30.695" fill="none"/>
      <path d="M 313.158,175.542 L 313.158,30.695" fill="none"/>
      <path d="M 327.562,175.542 L 327.562,30.695" fill="none"/>
      <path d="M 341.965,175.542 L 341.965,30.695" fill="none"/>
      <path d="M 356.369,175.542 L 356.369,30.695" fill="none"/>
      <path d="M 370.772,175.542 L 370.772,30.695" fill="none"/>
      <path d="M 385.176,175.542 L 385.176,30.695" fill="none"/>
      <path d="M 399.579,175.542 L 399.579,30.695" fill="none"/>
      <path d="M 413.983,175.542 L 413.983,30.695" fill="none"/>
      <path d="M 428.386,175.542 L 428.386,30.695" fill="none"/>
      <path d="M 442.79,175.543 L 442.79,30.696" fill="none"/>
     </g>
     <text xml:space="preserve" transform="translate(15.74 24.396) scale(1 -1)" font-size="6" fill="#4c4c4c" font-family="Arial" stroke-linejoin="round" stroke-linecap="round" stroke="none" stroke-width="0.252" stroke-miterlimit="79.8403193612775"><tspan x="0" y="0">0</tspan><tspan x="2.787" y="0">1</tspan><tspan x="5.574" y="0">.</tspan><tspan x="6.691" y="0">1</tspan><tspan x="9.034" y="0">1</tspan><tspan x="11.821" y="0">.</tspan><tspan x="12.938" y="0">1</tspan><tspan x="15.725" y="0">5</tspan><tspan x="18.512" y="0" font-weight="bold" text-decoration="underline"> </tspan></text>
     <path d="M 35.369,23.796 L 35.369,23.796" fill="none" marker-end="none" marker-start="none" stroke-linecap="butt" stroke="#4c4c4c" stroke-width="0.3" stroke-miterlimit="79.8403193612775"/>
     <text xml:space="preserve" transform="translate(18.194 193.639) scale(1 -1)" fill="#333333" stroke-width="0.27" stroke-linejoin="round" font-size="6" font-family="Arial" stroke-linecap="round" stroke="none" stroke-miterlimit="79.8403193612775"><tspan x="0" y="0">Об</tspan><tspan x="7.906" y="0">ъём ма</tspan><tspan x="28.116" y="0">т</tspan><tspan x="30.798" y="0">ериала</tspan></text>
     <path d="M 12.211,193.145 C 10.772,192.353 8.962,192.879 8.171,194.317 C 7.379,195.756 7.905,197.566 9.343,198.357 C 10.782,199.149 12.592,198.623 13.383,197.185 C 14.175,195.746 13.649,193.936 12.211,193.145 Z" fill="#3ebe70" stroke-linecap="round" stroke-width="0.174" stroke="#4c4c4c" stroke-linejoin="miter" marker-start="none" marker-end="none" stroke-miterlimit="79.8403193612775"/>
     <text xml:space="preserve" transform="translate(44.563 24.396) scale(1 -1)" font-size="6" fill="#4c4c4c" font-family="Arial" stroke-linejoin="round" stroke-linecap="round" stroke="none" stroke-width="0.252" stroke-miterlimit="79.8403193612775"><tspan x="0" y="0">0</tspan><tspan x="2.787" y="0">3</tspan><tspan x="5.574" y="0">.</tspan><tspan x="6.691" y="0">1</tspan><tspan x="9.034" y="0">1</tspan><tspan x="11.821" y="0">.</tspan><tspan x="12.938" y="0">1</tspan><tspan x="15.725" y="0">5</tspan><tspan x="18.512" y="0" font-weight="bold" text-decoration="underline"> </tspan></text>
     <path d="M 64.192,23.796 L 64.192,23.796" fill="none" marker-end="none" marker-start="none" stroke-linecap="butt" stroke="#4c4c4c" stroke-width="0.3" stroke-miterlimit="79.8403193612775"/>
     <text xml:space="preserve" transform="translate(72.737 24.396) scale(1 -1)" font-size="6" fill="#4c4c4c" font-family="Arial" stroke-linejoin="round" stroke-linecap="round" stroke="none" stroke-width="0.252" stroke-miterlimit="79.8403193612775"><tspan x="0" y="0">0</tspan><tspan x="2.787" y="0">5</tspan><tspan x="5.574" y="0">.</tspan><tspan x="6.691" y="0">1</tspan><tspan x="9.034" y="0">1</tspan><tspan x="11.821" y="0">.</tspan><tspan x="12.938" y="0">1</tspan><tspan x="15.725" y="0">5</tspan><tspan x="18.512" y="0" font-weight="bold" text-decoration="underline"> </tspan></text>
     <path d="M 92.366,23.796 L 92.366,23.796" fill="none" marker-end="none" marker-start="none" stroke-linecap="butt" stroke="#4c4c4c" stroke-width="0.3" stroke-miterlimit="79.8403193612775"/>
     <path d="M 25.801,32.669 L 82.87,36.941 L 125.834,52.269 L 140.534,68.544 L 197.984,77.019 L 226.659,78.777 L 342.45,112.329 L 428.325,137.829 L 442.896,143.378" fill="none" stroke="#3ebe70" stroke-width="1.5" stroke-linejoin="round" stroke-linecap="round" stroke-miterlimit="79.8403193612775"/>
     <path d="M 25.242,33.523 C 25.839,33.98 26.694,33.866 27.15,33.269 C 27.607,32.672 27.493,31.817 26.896,31.361 C 26.299,30.904 25.444,31.018 24.988,31.615 C 24.531,32.212 24.645,33.067 25.242,33.523 Z" fill="#3ebe70" stroke="none" stroke-width="0.08" stroke-linejoin="round" stroke-linecap="round" marker-start="none" marker-end="none" stroke-miterlimit="79.8403193612775"/>
     <path d="M 110.886,48.008 C 111.384,48.388 112.098,48.293 112.479,47.795 C 112.859,47.297 112.764,46.583 112.266,46.202 C 111.768,45.822 111.054,45.917 110.673,46.415 C 110.293,46.913 110.388,47.627 110.886,48.008 Z" fill="#3ebe70" stroke="none" stroke-width="0.067" stroke-linejoin="round" stroke-linecap="round" marker-start="none" marker-end="none" stroke-miterlimit="79.8403193612775"/>
     <path d="M 197.406,78.038 C 197.904,78.418 198.618,78.323 198.999,77.825 C 199.379,77.327 199.284,76.613 198.786,76.232 C 198.288,75.852 197.574,75.947 197.193,76.445 C 196.813,76.943 196.908,77.657 197.406,78.038 Z" fill="#3ebe70" stroke="none" stroke-width="0.067" stroke-linejoin="round" stroke-linecap="round" marker-start="none" marker-end="none" stroke-miterlimit="79.8403193612775"/>
     <path d="M 341.466,113.078 C 341.964,113.458 342.678,113.363 343.059,112.865 C 343.439,112.367 343.344,111.653 342.846,111.272 C 342.348,110.892 341.634,110.987 341.253,111.485 C 340.873,111.983 340.968,112.697 341.466,113.078 Z" fill="#3ebe70" stroke="none" stroke-width="0.067" stroke-linejoin="round" stroke-linecap="round" marker-start="none" marker-end="none" stroke-miterlimit="79.8403193612775"/>
     <path d="M 25.341,33.656 L 53.933,37.861 L 82.793,42.421 L 111.533,46.561 L 140.446,50.731 L 183.946,69.059 L 226.913,94.081 L 284.586,103.7 L 327.711,109.84 L 385.227,117.762 L 428.211,129.95 L 443.152,138.961" fill="none" stroke="#dfcd3e" stroke-width="1.5" stroke-linejoin="round" stroke-linecap="round" stroke-miterlimit="79.8403193612775"/>
     <text xml:space="preserve" transform="translate(19.949 51.394) scale(1 -1)" fill="#4c4c4c" font-family="Arial" stroke-linejoin="round" stroke-linecap="round" stroke="none" stroke-width="0.252" stroke-miterlimit="79.8403193612775"><tspan x="-5.562" y="0" font-size="5">20</tspan><tspan x="0" y="0" font-size="5.6" font-weight="bold" text-decoration="underline"> </tspan></text>
     <path d="M 21.505,50.834 L 21.505,50.834" fill="none" marker-end="none" marker-start="none" stroke-linecap="butt" stroke="#4c4c4c" stroke-width="0.28" stroke-miterlimit="79.8403193612775"/>
     <text xml:space="preserve" transform="translate(19.95 73.168) scale(1 -1)" fill="#4c4c4c" font-family="Arial" stroke-linejoin="round" stroke-linecap="round" stroke="none" stroke-width="0.252" stroke-miterlimit="79.8403193612775"><tspan x="-5.562" y="0" font-size="5">40</tspan><tspan x="0" y="0" font-size="5.6" font-weight="bold" text-decoration="underline"> </tspan></text>
     <path d="M 21.506,72.608 L 21.506,72.608" fill="none" marker-end="none" marker-start="none" stroke-linecap="butt" stroke="#4c4c4c" stroke-width="0.28" stroke-miterlimit="79.8403193612775"/>
     <text xml:space="preserve" transform="translate(19.951 94.953) scale(1 -1)" fill="#4c4c4c" font-family="Arial" stroke-linejoin="round" stroke-linecap="round" stroke="none" stroke-width="0.252" stroke-miterlimit="79.8403193612775"><tspan x="-5.562" y="0" font-size="5">60</tspan><tspan x="0" y="0" font-size="5.6" font-weight="bold" text-decoration="underline"> </tspan></text>
     <path d="M 21.507,94.393 L 21.507,94.393" fill="none" marker-end="none" marker-start="none" stroke-linecap="butt" stroke="#4c4c4c" stroke-width="0.28" stroke-miterlimit="79.8403193612775"/>
     <text xml:space="preserve" transform="translate(19.952 117.106) scale(1 -1)" fill="#4c4c4c" font-family="Arial" stroke-linejoin="round" stroke-linecap="round" stroke="none" stroke-width="0.252" stroke-miterlimit="79.8403193612775"><tspan x="-5.562" y="0" font-size="5">80</tspan><tspan x="0" y="0" font-size="5.6" font-weight="bold" text-decoration="underline"> </tspan></text>
     <path d="M 21.508,116.546 L 21.508,116.546" fill="none" marker-end="none" marker-start="none" stroke-linecap="butt" stroke="#4c4c4c" stroke-width="0.28" stroke-miterlimit="79.8403193612775"/>
     <text xml:space="preserve" transform="translate(19.953 138.852) scale(1 -1)" fill="#4c4c4c" font-family="Arial" stroke-linejoin="round" stroke-linecap="round" stroke="none" stroke-width="0.252" stroke-miterlimit="79.8403193612775"><tspan x="-8.343" y="0" font-size="5">100</tspan><tspan x="0" y="0" font-size="5.6" font-weight="bold" text-decoration="underline"> </tspan></text>
     <path d="M 21.509,138.292 L 21.509,138.292" fill="none" marker-end="none" marker-start="none" stroke-linecap="butt" stroke="#4c4c4c" stroke-width="0.28" stroke-miterlimit="79.8403193612775"/>
     <path d="M 24.511,34.695 C 25.108,35.152 25.963,35.038 26.419,34.441 C 26.876,33.844 26.762,32.989 26.165,32.533 C 25.568,32.076 24.713,32.19 24.257,32.787 C 23.8,33.384 23.914,34.239 24.511,34.695 Z" fill="#dfcd3e" stroke="none" stroke-width="0.08" stroke-linejoin="round" stroke-linecap="round" marker-start="none" marker-end="none" stroke-miterlimit="79.8403193612775"/>
     <text xml:space="preserve" transform="translate(101.436 193.639) scale(1 -1)" fill="#333333" stroke-width="0.27" stroke-linejoin="round" font-size="6" font-family="Arial" stroke-linecap="round" stroke="none" stroke-miterlimit="79.8403193612775"><tspan x="0" y="0">Ст</tspan><tspan x="7.015" y="0">оимость</tspan></text>
     <path d="M 95.453,193.145 C 94.014,192.353 92.204,192.879 91.413,194.317 C 90.621,195.756 91.147,197.566 92.585,198.357 C 94.024,199.149 95.834,198.623 96.625,197.185 C 97.417,195.746 96.891,193.936 95.453,193.145 Z" fill="#dfcd3e" stroke-linecap="round" stroke-width="0.174" stroke="#4c4c4c" stroke-linejoin="miter" marker-start="none" marker-end="none" stroke-miterlimit="79.8403193612775"/>
     <text xml:space="preserve" transform="translate(19.954 160.782) scale(1 -1)" fill="#4c4c4c" font-family="Arial" stroke-linejoin="round" stroke-linecap="round" stroke="none" stroke-width="0.252" stroke-miterlimit="79.8403193612775"><tspan x="-8.343" y="0" font-size="5">120</tspan><tspan x="0" y="0" font-size="5.6" font-weight="bold" text-decoration="underline"> </tspan></text>
     <path d="M 21.51,160.222 L 21.51,160.222" fill="none" marker-end="none" marker-start="none" stroke-linecap="butt" stroke="#4c4c4c" stroke-width="0.28" stroke-miterlimit="79.8403193612775"/>
     <text xml:space="preserve" transform="translate(101.687 24.396) scale(1 -1)" font-size="6" fill="#4c4c4c" font-family="Arial" stroke-linejoin="round" stroke-linecap="round" stroke="none" stroke-width="0.252" stroke-miterlimit="79.8403193612775"><tspan x="0" y="0">0</tspan><tspan x="2.787" y="0">7</tspan><tspan x="5.574" y="0">.</tspan><tspan x="6.691" y="0">1</tspan><tspan x="9.034" y="0">1</tspan><tspan x="11.821" y="0">.</tspan><tspan x="12.938" y="0">1</tspan><tspan x="15.725" y="0">5</tspan><tspan x="18.512" y="0" font-weight="bold" text-decoration="underline"> </tspan></text>
     <path d="M 121.316,23.796 L 121.316,23.796" fill="none" marker-end="none" marker-start="none" stroke-linecap="butt" stroke="#4c4c4c" stroke-width="0.3" stroke-miterlimit="79.8403193612775"/>
     <text xml:space="preserve" transform="translate(130.511 24.396) scale(1 -1)" font-size="6" fill="#4c4c4c" font-family="Arial" stroke-linejoin="round" stroke-linecap="round" stroke="none" stroke-width="0.252" stroke-miterlimit="79.8403193612775"><tspan x="0" y="0">0</tspan><tspan x="2.787" y="0">9</tspan><tspan x="5.574" y="0">.</tspan><tspan x="6.691" y="0">1</tspan><tspan x="9.034" y="0">1</tspan><tspan x="11.821" y="0">.</tspan><tspan x="12.938" y="0">1</tspan><tspan x="15.725" y="0">5</tspan><tspan x="18.512" y="0" font-weight="bold" text-decoration="underline"> </tspan></text>
     <path d="M 150.14,23.796 L 150.14,23.796" fill="none" marker-end="none" marker-start="none" stroke-linecap="butt" stroke="#4c4c4c" stroke-width="0.3" stroke-miterlimit="79.8403193612775"/>
     <text xml:space="preserve" transform="translate(159.32 24.396) scale(1 -1)" font-size="6" fill="#4c4c4c" font-family="Arial" stroke-linejoin="round" stroke-linecap="round" stroke="none" stroke-width="0.252" stroke-miterlimit="79.8403193612775"><tspan x="0" y="0">1</tspan><tspan x="2.343" y="0">1</tspan><tspan x="5.13" y="0">.</tspan><tspan x="6.247" y="0">1</tspan><tspan x="8.59" y="0">1</tspan><tspan x="11.377" y="0">.</tspan><tspan x="12.494" y="0">1</tspan><tspan x="15.281" y="0">5</tspan><tspan x="18.068" y="0" font-weight="bold" text-decoration="underline"> </tspan></text>
     <path d="M 178.505,23.796 L 178.505,23.796" fill="none" marker-end="none" marker-start="none" stroke-linecap="butt" stroke="#4c4c4c" stroke-width="0.3" stroke-miterlimit="79.8403193612775"/>
     <text xml:space="preserve" transform="translate(188.121 24.396) scale(1 -1)" font-size="6" fill="#4c4c4c" font-family="Arial" stroke-linejoin="round" stroke-linecap="round" stroke="none" stroke-width="0.252" stroke-miterlimit="79.8403193612775"><tspan x="0" y="0">1</tspan><tspan x="2.787" y="0">3</tspan><tspan x="5.574" y="0">.</tspan><tspan x="6.691" y="0">1</tspan><tspan x="9.034" y="0">1</tspan><tspan x="11.821" y="0">.</tspan><tspan x="12.938" y="0">1</tspan><tspan x="15.725" y="0">5</tspan><tspan x="18.512" y="0" font-weight="bold" text-decoration="underline"> </tspan></text>
     <path d="M 207.75,23.796 L 207.75,23.796" fill="none" marker-end="none" marker-start="none" stroke-linecap="butt" stroke="#4c4c4c" stroke-width="0.3" stroke-miterlimit="79.8403193612775"/>
     <text xml:space="preserve" transform="translate(216.774 24.396) scale(1 -1)" font-size="6" fill="#4c4c4c" font-family="Arial" stroke-linejoin="round" stroke-linecap="round" stroke="none" stroke-width="0.252" stroke-miterlimit="79.8403193612775"><tspan x="0" y="0">1</tspan><tspan x="2.787" y="0">5</tspan><tspan x="5.574" y="0">.</tspan><tspan x="6.691" y="0">1</tspan><tspan x="9.034" y="0">1</tspan><tspan x="11.821" y="0">.</tspan><tspan x="12.938" y="0">1</tspan><tspan x="15.725" y="0">5</tspan><tspan x="18.512" y="0" font-weight="bold" text-decoration="underline"> </tspan></text>
     <path d="M 236.403,23.796 L 236.403,23.796" fill="none" marker-end="none" marker-start="none" stroke-linecap="butt" stroke="#4c4c4c" stroke-width="0.3" stroke-miterlimit="79.8403193612775"/>
     <text xml:space="preserve" transform="translate(245.492 24.396) scale(1 -1)" font-size="6" fill="#4c4c4c" font-family="Arial" stroke-linejoin="round" stroke-linecap="round" stroke="none" stroke-width="0.252" stroke-miterlimit="79.8403193612775"><tspan x="0" y="0">1</tspan><tspan x="2.787" y="0">7</tspan><tspan x="5.574" y="0">.</tspan><tspan x="6.691" y="0">1</tspan><tspan x="9.034" y="0">1</tspan><tspan x="11.821" y="0">.</tspan><tspan x="12.938" y="0">1</tspan><tspan x="15.725" y="0">5</tspan><tspan x="18.512" y="0" font-weight="bold" text-decoration="underline"> </tspan></text>
     <path d="M 265.121,23.796 L 265.121,23.796" fill="none" marker-end="none" marker-start="none" stroke-linecap="butt" stroke="#4c4c4c" stroke-width="0.3" stroke-miterlimit="79.8403193612775"/>
     <text xml:space="preserve" transform="translate(274.339 24.396) scale(1 -1)" font-size="6" fill="#4c4c4c" font-family="Arial" stroke-linejoin="round" stroke-linecap="round" stroke="none" stroke-width="0.252" stroke-miterlimit="79.8403193612775"><tspan x="0" y="0">1</tspan><tspan x="2.787" y="0">9</tspan><tspan x="5.574" y="0">.</tspan><tspan x="6.691" y="0">1</tspan><tspan x="9.034" y="0">1</tspan><tspan x="11.821" y="0">.</tspan><tspan x="12.938" y="0">1</tspan><tspan x="15.725" y="0">5</tspan><tspan x="18.512" y="0" font-weight="bold" text-decoration="underline"> </tspan></text>
     <path d="M 293.968,23.796 L 293.968,23.796" fill="none" marker-end="none" marker-start="none" stroke-linecap="butt" stroke="#4c4c4c" stroke-width="0.3" stroke-miterlimit="79.8403193612775"/>
     <text xml:space="preserve" transform="translate(303.251 24.396) scale(1 -1)" font-size="6" fill="#4c4c4c" font-family="Arial" stroke-linejoin="round" stroke-linecap="round" stroke="none" stroke-width="0.252" stroke-miterlimit="79.8403193612775"><tspan x="0" y="0">2</tspan><tspan x="2.787" y="0">1</tspan><tspan x="5.574" y="0">.</tspan><tspan x="6.691" y="0">1</tspan><tspan x="9.034" y="0">1</tspan><tspan x="11.821" y="0">.</tspan><tspan x="12.938" y="0">1</tspan><tspan x="15.725" y="0">5</tspan><tspan x="18.512" y="0" font-weight="bold" text-decoration="underline"> </tspan></text>
     <path d="M 322.88,23.796 L 322.88,23.796" fill="none" marker-end="none" marker-start="none" stroke-linecap="butt" stroke="#4c4c4c" stroke-width="0.3" stroke-miterlimit="79.8403193612775"/>
     <text xml:space="preserve" transform="translate(331.985 24.396) scale(1 -1)" font-size="6" fill="#4c4c4c" font-family="Arial" stroke-linejoin="round" stroke-linecap="round" stroke="none" stroke-width="0.252" stroke-miterlimit="79.8403193612775"><tspan x="0" y="0">2</tspan><tspan x="2.787" y="0">3</tspan><tspan x="5.574" y="0">.</tspan><tspan x="6.691" y="0">1</tspan><tspan x="9.034" y="0">1</tspan><tspan x="11.821" y="0">.</tspan><tspan x="12.938" y="0">1</tspan><tspan x="15.725" y="0">5</tspan><tspan x="18.512" y="0" font-weight="bold" text-decoration="underline"> </tspan></text>
     <path d="M 351.614,23.796 L 351.614,23.796" fill="none" marker-end="none" marker-start="none" stroke-linecap="butt" stroke="#4c4c4c" stroke-width="0.3" stroke-miterlimit="79.8403193612775"/>
     <text xml:space="preserve" transform="translate(360.836 24.396) scale(1 -1)" font-size="6" fill="#4c4c4c" font-family="Arial" stroke-linejoin="round" stroke-linecap="round" stroke="none" stroke-width="0.252" stroke-miterlimit="79.8403193612775"><tspan x="0" y="0">2</tspan><tspan x="2.787" y="0">5</tspan><tspan x="5.574" y="0">.</tspan><tspan x="6.691" y="0">1</tspan><tspan x="9.034" y="0">1</tspan><tspan x="11.821" y="0">.</tspan><tspan x="12.938" y="0">1</tspan><tspan x="15.725" y="0">5</tspan><tspan x="18.512" y="0" font-weight="bold" text-decoration="underline"> </tspan></text>
     <path d="M 380.465,23.796 L 380.465,23.796" fill="none" marker-end="none" marker-start="none" stroke-linecap="butt" stroke="#4c4c4c" stroke-width="0.3" stroke-miterlimit="79.8403193612775"/>
     <text xml:space="preserve" transform="translate(389.495 24.396) scale(1 -1)" font-size="6" fill="#4c4c4c" font-family="Arial" stroke-linejoin="round" stroke-linecap="round" stroke="none" stroke-width="0.252" stroke-miterlimit="79.8403193612775"><tspan x="0" y="0">2</tspan><tspan x="2.787" y="0">7</tspan><tspan x="5.574" y="0">.</tspan><tspan x="6.691" y="0">1</tspan><tspan x="9.034" y="0">1</tspan><tspan x="11.821" y="0">.</tspan><tspan x="12.938" y="0">1</tspan><tspan x="15.725" y="0">5</tspan><tspan x="18.512" y="0" font-weight="bold" text-decoration="underline"> </tspan></text>
     <path d="M 409.124,23.796 L 409.124,23.796" fill="none" marker-end="none" marker-start="none" stroke-linecap="butt" stroke="#4c4c4c" stroke-width="0.3" stroke-miterlimit="79.8403193612775"/>
     <text xml:space="preserve" transform="translate(418.463 24.396) scale(1 -1)" font-size="6" fill="#4c4c4c" font-family="Arial" stroke-linejoin="round" stroke-linecap="round" stroke="none" stroke-width="0.252" stroke-miterlimit="79.8403193612775"><tspan x="0" y="0">2</tspan><tspan x="2.787" y="0">9</tspan><tspan x="5.574" y="0">.</tspan><tspan x="6.691" y="0">1</tspan><tspan x="9.034" y="0">1</tspan><tspan x="11.821" y="0">.</tspan><tspan x="12.938" y="0">1</tspan><tspan x="15.725" y="0">5</tspan><tspan x="18.512" y="0" font-weight="bold" text-decoration="underline"> </tspan></text>
     <path d="M 438.092,23.796 L 438.092,23.796" fill="none" marker-end="none" marker-start="none" stroke-linecap="butt" stroke="#4c4c4c" stroke-width="0.3" stroke-miterlimit="79.8403193612775"/>
     <path d="M 53.166,35.67 C 53.664,36.05 54.378,35.955 54.759,35.457 C 55.139,34.959 55.044,34.245 54.546,33.864 C 54.048,33.484 53.334,33.579 52.953,34.077 C 52.573,34.575 52.668,35.289 53.166,35.67 Z" fill="#3ebe70" stroke="none" stroke-width="0.067" stroke-linejoin="round" stroke-linecap="round" marker-start="none" marker-end="none" stroke-miterlimit="79.8403193612775"/>
     <path d="M 38.879,34.47 C 39.377,34.85 40.091,34.755 40.472,34.257 C 40.852,33.759 40.757,33.045 40.259,32.664 C 39.761,32.284 39.047,32.379 38.666,32.877 C 38.286,33.375 38.381,34.089 38.879,34.47 Z" fill="#3ebe70" stroke="none" stroke-width="0.067" stroke-linejoin="round" stroke-linecap="round" marker-start="none" marker-end="none" stroke-miterlimit="79.8403193612775"/>
     <path d="M 67.716,36.758 C 68.214,37.138 68.928,37.043 69.309,36.545 C 69.689,36.047 69.594,35.333 69.096,34.952 C 68.598,34.572 67.884,34.667 67.503,35.165 C 67.123,35.663 67.218,36.377 67.716,36.758 Z" fill="#3ebe70" stroke="none" stroke-width="0.067" stroke-linejoin="round" stroke-linecap="round" marker-start="none" marker-end="none" stroke-miterlimit="79.8403193612775"/>
     <path d="M 81.966,37.883 C 82.464,38.263 83.178,38.168 83.559,37.67 C 83.939,37.172 83.844,36.458 83.346,36.077 C 82.848,35.697 82.134,35.792 81.753,36.29 C 81.373,36.788 81.468,37.502 81.966,37.883 Z" fill="#3ebe70" stroke="none" stroke-width="0.067" stroke-linejoin="round" stroke-linecap="round" marker-start="none" marker-end="none" stroke-miterlimit="79.8403193612775"/>
     <path d="M 96.366,42.983 C 96.864,43.363 97.578,43.268 97.959,42.77 C 98.339,42.272 98.244,41.558 97.746,41.177 C 97.248,40.797 96.534,40.892 96.153,41.39 C 95.773,41.888 95.868,42.602 96.366,42.983 Z" fill="#3ebe70" stroke="none" stroke-width="0.067" stroke-linejoin="round" stroke-linecap="round" marker-start="none" marker-end="none" stroke-miterlimit="79.8403193612775"/>
     <path d="M 125.286,53.318 C 125.784,53.698 126.498,53.603 126.879,53.105 C 127.259,52.607 127.164,51.893 126.666,51.512 C 126.168,51.132 125.454,51.227 125.073,51.725 C 124.693,52.223 124.788,52.937 125.286,53.318 Z" fill="#3ebe70" stroke="none" stroke-width="0.067" stroke-linejoin="round" stroke-linecap="round" marker-start="none" marker-end="none" stroke-miterlimit="79.8403193612775"/>
     <path d="M 139.806,69.218 C 140.304,69.598 141.018,69.503 141.399,69.005 C 141.779,68.507 141.684,67.793 141.186,67.412 C 140.688,67.032 139.974,67.127 139.593,67.625 C 139.213,68.123 139.308,68.837 139.806,69.218 Z" fill="#3ebe70" stroke="none" stroke-width="0.067" stroke-linejoin="round" stroke-linecap="round" marker-start="none" marker-end="none" stroke-miterlimit="79.8403193612775"/>
     <path d="M 154.086,71.558 C 154.584,71.938 155.298,71.843 155.679,71.345 C 156.059,70.847 155.964,70.133 155.466,69.752 C 154.968,69.372 154.254,69.467 153.873,69.965 C 153.493,70.463 153.588,71.177 154.086,71.558 Z" fill="#3ebe70" stroke="none" stroke-width="0.067" stroke-linejoin="round" stroke-linecap="round" marker-start="none" marker-end="none" stroke-miterlimit="79.8403193612775"/>
     <path d="M 168.486,73.718 C 168.984,74.098 169.698,74.003 170.079,73.505 C 170.459,73.007 170.364,72.293 169.866,71.912 C 169.368,71.532 168.654,71.627 168.273,72.125 C 167.893,72.623 167.988,73.337 168.486,73.718 Z" fill="#3ebe70" stroke="none" stroke-width="0.067" stroke-linejoin="round" stroke-linecap="round" marker-start="none" marker-end="none" stroke-miterlimit="79.8403193612775"/>
     <path d="M 182.946,75.878 C 183.444,76.258 184.158,76.163 184.539,75.665 C 184.919,75.167 184.824,74.453 184.326,74.072 C 183.828,73.692 183.114,73.787 182.733,74.285 C 182.353,74.783 182.448,75.497 182.946,75.878 Z" fill="#3ebe70" stroke="none" stroke-width="0.067" stroke-linejoin="round" stroke-linecap="round" marker-start="none" marker-end="none" stroke-miterlimit="79.8403193612775"/>
     <path d="M 211.686,78.758 C 212.184,79.138 212.898,79.043 213.279,78.545 C 213.659,78.047 213.564,77.333 213.066,76.952 C 212.568,76.572 211.854,76.667 211.473,77.165 C 211.093,77.663 211.188,78.377 211.686,78.758 Z" fill="#3ebe70" stroke="none" stroke-width="0.067" stroke-linejoin="round" stroke-linecap="round" marker-start="none" marker-end="none" stroke-miterlimit="79.8403193612775"/>
     <path d="M 226.146,79.718 C 226.644,80.098 227.358,80.003 227.739,79.505 C 228.119,79.007 228.024,78.293 227.526,77.912 C 227.028,77.532 226.314,77.627 225.933,78.125 C 225.553,78.623 225.648,79.337 226.146,79.718 Z" fill="#3ebe70" stroke="none" stroke-width="0.067" stroke-linejoin="round" stroke-linecap="round" marker-start="none" marker-end="none" stroke-miterlimit="79.8403193612775"/>
     <path d="M 240.426,83.858 C 240.924,84.238 241.638,84.143 242.019,83.645 C 242.399,83.147 242.304,82.433 241.806,82.052 C 241.308,81.672 240.594,81.767 240.213,82.265 C 239.833,82.763 239.928,83.477 240.426,83.858 Z" fill="#3ebe70" stroke="none" stroke-width="0.067" stroke-linejoin="round" stroke-linecap="round" marker-start="none" marker-end="none" stroke-miterlimit="79.8403193612775"/>
     <path d="M 254.886,88.058 C 255.384,88.438 256.098,88.343 256.479,87.845 C 256.859,87.347 256.764,86.633 256.266,86.252 C 255.768,85.872 255.054,85.967 254.673,86.465 C 254.293,86.963 254.388,87.677 254.886,88.058 Z" fill="#3ebe70" stroke="none" stroke-width="0.067" stroke-linejoin="round" stroke-linecap="round" marker-start="none" marker-end="none" stroke-miterlimit="79.8403193612775"/>
     <path d="M 269.286,92.258 C 269.784,92.638 270.498,92.543 270.879,92.045 C 271.259,91.547 271.164,90.833 270.666,90.452 C 270.168,90.072 269.454,90.167 269.073,90.665 C 268.693,91.163 268.788,91.877 269.286,92.258 Z" fill="#3ebe70" stroke="none" stroke-width="0.067" stroke-linejoin="round" stroke-linecap="round" marker-start="none" marker-end="none" stroke-miterlimit="79.8403193612775"/>
     <path d="M 283.686,96.398 C 284.184,96.778 284.898,96.683 285.279,96.185 C 285.659,95.687 285.564,94.973 285.066,94.592 C 284.568,94.212 283.854,94.307 283.473,94.805 C 283.093,95.303 283.188,96.017 283.686,96.398 Z" fill="#3ebe70" stroke="none" stroke-width="0.067" stroke-linejoin="round" stroke-linecap="round" marker-start="none" marker-end="none" stroke-miterlimit="79.8403193612775"/>
     <path d="M 312.546,104.678 C 313.044,105.058 313.758,104.963 314.139,104.465 C 314.519,103.967 314.424,103.253 313.926,102.872 C 313.428,102.492 312.714,102.587 312.333,103.085 C 311.953,103.583 312.048,104.297 312.546,104.678 Z" fill="#3ebe70" stroke="none" stroke-width="0.067" stroke-linejoin="round" stroke-linecap="round" marker-start="none" marker-end="none" stroke-miterlimit="79.8403193612775"/>
     <path d="M 326.886,108.818 C 327.384,109.198 328.098,109.103 328.479,108.605 C 328.859,108.107 328.764,107.393 328.266,107.012 C 327.768,106.632 327.054,106.727 326.673,107.225 C 326.293,107.723 326.388,108.437 326.886,108.818 Z" fill="#3ebe70" stroke="none" stroke-width="0.067" stroke-linejoin="round" stroke-linecap="round" marker-start="none" marker-end="none" stroke-miterlimit="79.8403193612775"/>
     <path d="M 355.746,117.398 C 356.244,117.778 356.958,117.683 357.339,117.185 C 357.719,116.687 357.624,115.973 357.126,115.592 C 356.628,115.212 355.914,115.307 355.533,115.805 C 355.153,116.303 355.248,117.017 355.746,117.398 Z" fill="#3ebe70" stroke="none" stroke-width="0.067" stroke-linejoin="round" stroke-linecap="round" marker-start="none" marker-end="none" stroke-miterlimit="79.8403193612775"/>
     <path d="M 370.086,121.598 C 370.584,121.978 371.298,121.883 371.679,121.385 C 372.059,120.887 371.964,120.173 371.466,119.792 C 370.968,119.412 370.254,119.507 369.873,120.005 C 369.493,120.503 369.588,121.217 370.086,121.598 Z" fill="#3ebe70" stroke="none" stroke-width="0.067" stroke-linejoin="round" stroke-linecap="round" marker-start="none" marker-end="none" stroke-miterlimit="79.8403193612775"/>
     <path d="M 384.546,125.918 C 385.044,126.298 385.758,126.203 386.139,125.705 C 386.519,125.207 386.424,124.493 385.926,124.112 C 385.428,123.732 384.714,123.827 384.333,124.325 C 383.953,124.823 384.048,125.537 384.546,125.918 Z" fill="#3ebe70" stroke="none" stroke-width="0.067" stroke-linejoin="round" stroke-linecap="round" marker-start="none" marker-end="none" stroke-miterlimit="79.8403193612775"/>
     <path d="M 398.946,130.238 C 399.444,130.618 400.158,130.523 400.539,130.025 C 400.919,129.527 400.824,128.813 400.326,128.432 C 399.828,128.052 399.114,128.147 398.733,128.645 C 398.353,129.143 398.448,129.857 398.946,130.238 Z" fill="#3ebe70" stroke="none" stroke-width="0.067" stroke-linejoin="round" stroke-linecap="round" marker-start="none" marker-end="none" stroke-miterlimit="79.8403193612775"/>
     <path d="M 413.346,134.498 C 413.844,134.878 414.558,134.783 414.939,134.285 C 415.319,133.787 415.224,133.073 414.726,132.692 C 414.228,132.312 413.514,132.407 413.133,132.905 C 412.753,133.403 412.848,134.117 413.346,134.498 Z" fill="#3ebe70" stroke="none" stroke-width="0.067" stroke-linejoin="round" stroke-linecap="round" marker-start="none" marker-end="none" stroke-miterlimit="79.8403193612775"/>
     <path d="M 427.686,138.758 C 428.184,139.138 428.898,139.043 429.279,138.545 C 429.659,138.047 429.564,137.333 429.066,136.952 C 428.568,136.572 427.854,136.667 427.473,137.165 C 427.093,137.663 427.188,138.377 427.686,138.758 Z" fill="#3ebe70" stroke="none" stroke-width="0.067" stroke-linejoin="round" stroke-linecap="round" marker-start="none" marker-end="none" stroke-miterlimit="79.8403193612775"/>
     <path d="M 442.004,144.453 C 442.601,144.91 443.456,144.796 443.912,144.199 C 444.369,143.602 444.255,142.747 443.658,142.291 C 443.061,141.834 442.206,141.948 441.75,142.545 C 441.293,143.142 441.407,143.997 442.004,144.453 Z" fill="#3ebe70" stroke="none" stroke-width="0.08" stroke-linejoin="round" stroke-linecap="round" marker-start="none" marker-end="none" stroke-miterlimit="79.8403193612775"/>
     <path d="M 38.806,36.703 C 39.304,37.083 40.018,36.988 40.399,36.49 C 40.779,35.992 40.684,35.278 40.186,34.897 C 39.688,34.517 38.974,34.612 38.593,35.11 C 38.213,35.608 38.308,36.322 38.806,36.703 Z" fill="#dfcd3e" stroke="none" stroke-width="0.067" stroke-linejoin="round" stroke-linecap="round" marker-start="none" marker-end="none" stroke-miterlimit="79.8403193612775"/>
     <path d="M 53.22,38.763 C 53.718,39.143 54.432,39.048 54.813,38.55 C 55.193,38.052 55.098,37.338 54.6,36.957 C 54.102,36.577 53.388,36.672 53.007,37.17 C 52.627,37.668 52.722,38.382 53.22,38.763 Z" fill="#dfcd3e" stroke="none" stroke-width="0.067" stroke-linejoin="round" stroke-linecap="round" marker-start="none" marker-end="none" stroke-miterlimit="79.8403193612775"/>
     <path d="M 67.658,41.037 C 68.156,41.417 68.87,41.322 69.251,40.824 C 69.631,40.326 69.536,39.612 69.038,39.231 C 68.54,38.851 67.826,38.946 67.445,39.444 C 67.065,39.942 67.16,40.656 67.658,41.037 Z" fill="#dfcd3e" stroke="none" stroke-width="0.067" stroke-linejoin="round" stroke-linecap="round" marker-start="none" marker-end="none" stroke-miterlimit="79.8403193612775"/>
     <path d="M 82.025,43.31 C 82.523,43.69 83.237,43.595 83.618,43.097 C 83.998,42.599 83.903,41.885 83.405,41.504 C 82.907,41.124 82.193,41.219 81.812,41.717 C 81.432,42.215 81.527,42.929 82.025,43.31 Z" fill="#dfcd3e" stroke="none" stroke-width="0.067" stroke-linejoin="round" stroke-linecap="round" marker-start="none" marker-end="none" stroke-miterlimit="79.8403193612775"/>
     <path d="M 96.485,45.47 C 96.983,45.85 97.697,45.755 98.078,45.257 C 98.458,44.759 98.363,44.045 97.865,43.664 C 97.367,43.284 96.653,43.379 96.272,43.877 C 95.892,44.375 95.987,45.089 96.485,45.47 Z" fill="#dfcd3e" stroke="none" stroke-width="0.067" stroke-linejoin="round" stroke-linecap="round" marker-start="none" marker-end="none" stroke-miterlimit="79.8403193612775"/>
     <path d="M 111.005,47.39 C 111.503,47.77 112.217,47.675 112.598,47.177 C 112.978,46.679 112.883,45.965 112.385,45.584 C 111.887,45.204 111.173,45.299 110.792,45.797 C 110.412,46.295 110.507,47.009 111.005,47.39 Z" fill="#dfcd3e" stroke="none" stroke-width="0.067" stroke-linejoin="round" stroke-linecap="round" marker-start="none" marker-end="none" stroke-miterlimit="79.8403193612775"/>
     <path d="M 125.285,49.49 C 125.783,49.87 126.497,49.775 126.878,49.277 C 127.258,48.779 127.163,48.065 126.665,47.684 C 126.167,47.304 125.453,47.399 125.072,47.897 C 124.692,48.395 124.787,49.109 125.285,49.49 Z" fill="#dfcd3e" stroke="none" stroke-width="0.067" stroke-linejoin="round" stroke-linecap="round" marker-start="none" marker-end="none" stroke-miterlimit="79.8403193612775"/>
     <path d="M 139.685,51.59 C 140.183,51.97 140.897,51.875 141.278,51.377 C 141.658,50.879 141.563,50.165 141.065,49.784 C 140.567,49.404 139.853,49.499 139.472,49.997 C 139.092,50.495 139.187,51.209 139.685,51.59 Z" fill="#dfcd3e" stroke="none" stroke-width="0.067" stroke-linejoin="round" stroke-linecap="round" marker-start="none" marker-end="none" stroke-miterlimit="79.8403193612775"/>
     <path d="M 154.145,57.77 C 154.643,58.15 155.357,58.055 155.738,57.557 C 156.118,57.059 156.023,56.345 155.525,55.964 C 155.027,55.584 154.313,55.679 153.932,56.177 C 153.552,56.675 153.647,57.389 154.145,57.77 Z" fill="#dfcd3e" stroke="none" stroke-width="0.067" stroke-linejoin="round" stroke-linecap="round" marker-start="none" marker-end="none" stroke-miterlimit="79.8403193612775"/>
     <path d="M 168.605,63.89 C 169.103,64.27 169.817,64.175 170.198,63.677 C 170.578,63.179 170.483,62.465 169.985,62.084 C 169.487,61.704 168.773,61.799 168.392,62.297 C 168.012,62.795 168.107,63.509 168.605,63.89 Z" fill="#dfcd3e" stroke="none" stroke-width="0.067" stroke-linejoin="round" stroke-linecap="round" marker-start="none" marker-end="none" stroke-miterlimit="79.8403193612775"/>
     <path d="M 182.885,69.83 C 183.383,70.21 184.097,70.115 184.478,69.617 C 184.858,69.119 184.763,68.405 184.265,68.024 C 183.767,67.644 183.053,67.739 182.672,68.237 C 182.292,68.735 182.387,69.449 182.885,69.83 Z" fill="#dfcd3e" stroke="none" stroke-width="0.067" stroke-linejoin="round" stroke-linecap="round" marker-start="none" marker-end="none" stroke-miterlimit="79.8403193612775"/>
     <path d="M 197.465,78.47 C 197.963,78.85 198.677,78.755 199.058,78.257 C 199.438,77.759 199.343,77.045 198.845,76.664 C 198.347,76.284 197.633,76.379 197.252,76.877 C 196.872,77.375 196.967,78.089 197.465,78.47 Z" fill="#dfcd3e" stroke="none" stroke-width="0.067" stroke-linejoin="round" stroke-linecap="round" marker-start="none" marker-end="none" stroke-miterlimit="79.8403193612775"/>
     <path d="M 211.685,86.51 C 212.183,86.89 212.897,86.795 213.278,86.297 C 213.658,85.799 213.563,85.085 213.065,84.704 C 212.567,84.324 211.853,84.419 211.472,84.917 C 211.092,85.415 211.187,86.129 211.685,86.51 Z" fill="#dfcd3e" stroke="none" stroke-width="0.067" stroke-linejoin="round" stroke-linecap="round" marker-start="none" marker-end="none" stroke-miterlimit="79.8403193612775"/>
     <path d="M 226.145,94.91 C 226.643,95.29 227.357,95.195 227.738,94.697 C 228.118,94.199 228.023,93.485 227.525,93.104 C 227.027,92.724 226.313,92.819 225.932,93.317 C 225.552,93.815 225.647,94.529 226.145,94.91 Z" fill="#dfcd3e" stroke="none" stroke-width="0.067" stroke-linejoin="round" stroke-linecap="round" marker-start="none" marker-end="none" stroke-miterlimit="79.8403193612775"/>
     <path d="M 240.545,97.25 C 241.043,97.63 241.757,97.535 242.138,97.037 C 242.518,96.539 242.423,95.825 241.925,95.444 C 241.427,95.064 240.713,95.159 240.332,95.657 C 239.952,96.155 240.047,96.869 240.545,97.25 Z" fill="#dfcd3e" stroke="none" stroke-width="0.067" stroke-linejoin="round" stroke-linecap="round" marker-start="none" marker-end="none" stroke-miterlimit="79.8403193612775"/>
     <path d="M 254.885,99.77 C 255.383,100.15 256.097,100.055 256.478,99.557 C 256.858,99.059 256.763,98.345 256.265,97.964 C 255.767,97.584 255.053,97.679 254.672,98.177 C 254.292,98.675 254.387,99.389 254.885,99.77 Z" fill="#dfcd3e" stroke="none" stroke-width="0.067" stroke-linejoin="round" stroke-linecap="round" marker-start="none" marker-end="none" stroke-miterlimit="79.8403193612775"/>
     <path d="M 269.225,102.11 C 269.723,102.49 270.437,102.395 270.818,101.897 C 271.198,101.399 271.103,100.685 270.605,100.304 C 270.107,99.924 269.393,100.019 269.012,100.517 C 268.632,101.015 268.727,101.729 269.225,102.11 Z" fill="#dfcd3e" stroke="none" stroke-width="0.067" stroke-linejoin="round" stroke-linecap="round" marker-start="none" marker-end="none" stroke-miterlimit="79.8403193612775"/>
     <path d="M 283.685,104.51 C 284.183,104.89 284.897,104.795 285.278,104.297 C 285.658,103.799 285.563,103.085 285.065,102.704 C 284.567,102.324 283.853,102.419 283.472,102.917 C 283.092,103.415 283.187,104.129 283.685,104.51 Z" fill="#dfcd3e" stroke="none" stroke-width="0.067" stroke-linejoin="round" stroke-linecap="round" marker-start="none" marker-end="none" stroke-miterlimit="79.8403193612775"/>
     <path d="M 312.485,108.59 C 312.983,108.97 313.697,108.875 314.078,108.377 C 314.458,107.879 314.363,107.165 313.865,106.784 C 313.367,106.404 312.653,106.499 312.272,106.997 C 311.892,107.495 311.987,108.209 312.485,108.59 Z" fill="#dfcd3e" stroke="none" stroke-width="0.067" stroke-linejoin="round" stroke-linecap="round" marker-start="none" marker-end="none" stroke-miterlimit="79.8403193612775"/>
     <path d="M 326.885,110.75 C 327.383,111.13 328.097,111.035 328.478,110.537 C 328.858,110.039 328.763,109.325 328.265,108.944 C 327.767,108.564 327.053,108.659 326.672,109.157 C 326.292,109.655 326.387,110.369 326.885,110.75 Z" fill="#dfcd3e" stroke="none" stroke-width="0.067" stroke-linejoin="round" stroke-linecap="round" marker-start="none" marker-end="none" stroke-miterlimit="79.8403193612775"/>
     <path d="M 341.465,112.61 C 341.963,112.99 342.677,112.895 343.058,112.397 C 343.438,111.899 343.343,111.185 342.845,110.804 C 342.347,110.424 341.633,110.519 341.252,111.017 C 340.872,111.515 340.967,112.229 341.465,112.61 Z" fill="#dfcd3e" stroke="none" stroke-width="0.067" stroke-linejoin="round" stroke-linecap="round" marker-start="none" marker-end="none" stroke-miterlimit="79.8403193612775"/>
     <path d="M 355.685,114.71 C 356.183,115.09 356.897,114.995 357.278,114.497 C 357.658,113.999 357.563,113.285 357.065,112.904 C 356.567,112.524 355.853,112.619 355.472,113.117 C 355.092,113.615 355.187,114.329 355.685,114.71 Z" fill="#dfcd3e" stroke="none" stroke-width="0.067" stroke-linejoin="round" stroke-linecap="round" marker-start="none" marker-end="none" stroke-miterlimit="79.8403193612775"/>
     <path d="M 370.085,116.69 C 370.583,117.07 371.297,116.975 371.678,116.477 C 372.058,115.979 371.963,115.265 371.465,114.884 C 370.967,114.504 370.253,114.599 369.872,115.097 C 369.492,115.595 369.587,116.309 370.085,116.69 Z" fill="#dfcd3e" stroke="none" stroke-width="0.067" stroke-linejoin="round" stroke-linecap="round" marker-start="none" marker-end="none" stroke-miterlimit="79.8403193612775"/>
     <path d="M 384.605,118.67 C 385.103,119.05 385.817,118.955 386.198,118.457 C 386.578,117.959 386.483,117.245 385.985,116.864 C 385.487,116.484 384.773,116.579 384.392,117.077 C 384.012,117.575 384.107,118.289 384.605,118.67 Z" fill="#dfcd3e" stroke="none" stroke-width="0.067" stroke-linejoin="round" stroke-linecap="round" marker-start="none" marker-end="none" stroke-miterlimit="79.8403193612775"/>
     <path d="M 398.885,122.81 C 399.383,123.19 400.097,123.095 400.478,122.597 C 400.858,122.099 400.763,121.385 400.265,121.004 C 399.767,120.624 399.053,120.719 398.672,121.217 C 398.292,121.715 398.387,122.429 398.885,122.81 Z" fill="#dfcd3e" stroke="none" stroke-width="0.067" stroke-linejoin="round" stroke-linecap="round" marker-start="none" marker-end="none" stroke-miterlimit="79.8403193612775"/>
     <path d="M 413.345,126.77 C 413.843,127.15 414.557,127.055 414.938,126.557 C 415.318,126.059 415.223,125.345 414.725,124.964 C 414.227,124.584 413.513,124.679 413.132,125.177 C 412.752,125.675 412.847,126.389 413.345,126.77 Z" fill="#dfcd3e" stroke="none" stroke-width="0.067" stroke-linejoin="round" stroke-linecap="round" marker-start="none" marker-end="none" stroke-miterlimit="79.8403193612775"/>
     <path d="M 427.685,130.91 C 428.183,131.29 428.897,131.195 429.278,130.697 C 429.658,130.199 429.563,129.485 429.065,129.104 C 428.567,128.724 427.853,128.819 427.472,129.317 C 427.092,129.815 427.187,130.529 427.685,130.91 Z" fill="#dfcd3e" stroke="none" stroke-width="0.067" stroke-linejoin="round" stroke-linecap="round" marker-start="none" marker-end="none" stroke-miterlimit="79.8403193612775"/>
     <path d="M 442.264,139.97 C 442.762,140.35 443.476,140.255 443.857,139.757 C 444.237,139.259 444.142,138.545 443.644,138.164 C 443.146,137.784 442.432,137.879 442.051,138.377 C 441.671,138.875 441.766,139.589 442.264,139.97 Z" fill="#dfcd3e" stroke="none" stroke-width="0.067" stroke-linejoin="round" stroke-linecap="round" marker-start="none" marker-end="none" stroke-miterlimit="79.8403193612775"/>
     <path d="M 298.157,106.684 C 298.633,107.048 299.316,106.957 299.68,106.481 C 300.044,106.005 299.953,105.322 299.477,104.958 C 299.001,104.594 298.318,104.685 297.954,105.161 C 297.59,105.637 297.681,106.32 298.157,106.684 Z" fill="#dfcd3e" stroke-width="0.061" stroke="none" stroke-linejoin="round" stroke-linecap="round" marker-start="none" marker-end="none" stroke-miterlimit="79.8403193612775"/>
     <path d="M 298.158,100.744 C 298.634,101.108 299.317,101.017 299.681,100.541 C 300.045,100.065 299.954,99.382 299.478,99.018 C 299.002,98.654 298.319,98.745 297.955,99.221 C 297.591,99.697 297.682,100.38 298.158,100.744 Z" fill="#3ebe70" stroke-width="0.061" stroke="none" stroke-linejoin="round" stroke-linecap="round" marker-start="none" marker-end="none" stroke-miterlimit="79.8403193612775"/>
    </g>
   </g>
  </g>
 </g>
</svg>
