<?xml version="1.0" standalone="no"?>
<!DOCTYPE svg PUBLIC "-//W3C//DTD SVG 1.1//EN" "http://www.w3.org/Graphics/SVG/1.1/DTD/svg11.dtd">
<!--Generator: Xara Designer (www.xara.com), SVG filter version: 5.0.0.2-->
<svg stroke-width="0.501" stroke-linejoin="bevel" fill-rule="evenodd" xmlns:xlink="http://www.w3.org/1999/xlink" xmlns="http://www.w3.org/2000/svg" version="1.1" overflow="visible" width="459.378pt" height="205.528pt" viewBox="0 0 459.378 205.528">
 <defs>
  <marker id="DefaultArrow2" markerUnits="strokeWidth" viewBox="0 0 1 1" markerWidth="1" markerHeight="1" overflow="visible" orient="auto">
   <!-- REF_ARROW_STRAIGHT (-2) -->
   <g transform="scale(0.0092592592)">
    <!-- 1/108 -->
    <path d="M -9 54 L -9 -54 L 117 0 z"/>
   </g>
  </marker>
  <marker id="DefaultArrow3" markerUnits="strokeWidth" viewBox="0 0 1 1" markerWidth="1" markerHeight="1" overflow="visible" orient="auto">
   <!-- REF_ARROW_ANGLED -->
   <g transform="scale(0.0092592592)">
    <path d="M -27 54 L -9 0 L -27 -54 L 135 0 z"/>
   </g>
  </marker>
  <marker id="DefaultArrow4" markerUnits="strokeWidth" viewBox="0 0 1 1" markerWidth="1" markerHeight="1" overflow="visible" orient="auto">
   <!-- REF_ARROW_ROUNDED -->
   <g transform="scale(0.0092592592)">
    <path d="M -9,0 L -9,-45 C -9,-51.708 2.808,-56.580 9,-54 L 117,-9 C 120.916,-7.369 126.000,-4.242 126,0 C 126,4.242 120.916,7.369 117,9 L 9,54 C 2.808,56.580 -9,51.708 -9,45 z"/>
   </g>
  </marker>
  <marker id="DefaultArrow5" markerUnits="strokeWidth" viewBox="0 0 1 1" markerWidth="1" markerHeight="1" overflow="visible" orient="auto">
   <!-- REF_ARROW_SPOT -->
   <g transform="scale(0.0092592592)">
    <path d="M -54, 0 C -54,29.807 -29.807,54 0,54 C 29.807,54 54,29.807 54,0 C 54,-29.807 29.807,-54 0,-54 C -29.807,-54 -54,-29.807 -54,0 z"/>
   </g>
  </marker>
  <marker id="DefaultArrow6" markerUnits="strokeWidth" viewBox="0 0 1 1" markerWidth="1" markerHeight="1" overflow="visible" orient="auto">
   <!-- REF_ARROW_DIAMOND -->
   <g transform="scale(0.0092592592)">
    <path d="M -63,0 L 0,63 L 63,0 L 0,-63 z"/>
   </g>
  </marker>
  <marker id="DefaultArrow7" markerUnits="strokeWidth" viewBox="0 0 1 1" markerWidth="1" markerHeight="1" overflow="visible" orient="auto">
   <!-- REF_ARROW_FEATHER -->
   <g transform="scale(0.0092592592)">
    <path d="M 18,-54 L 108,-54 L 63,0 L 108,54 L 18, 54 L -36,0 z"/>
   </g>
  </marker>
  <marker id="DefaultArrow8" markerUnits="strokeWidth" viewBox="0 0 1 1" markerWidth="1" markerHeight="1" overflow="visible" orient="auto">
   <!-- REF_ARROW_FEATHER2 -->
   <g transform="scale(0.0092592592)">
    <path d="M -36,0 L 18,-54 L 54,-54 L 18,-18 L 27,-18 L 63,-54 L 99,-54 L 63,-18 L 72,-18 L 108,-54 L 144,-54 L 90,0 L 144,54 L 108,54 L 72,18 L 63,18 L 99,54 L 63,54 L 27,18 L 18,18 L 54,54 L 18,54 z"/>
   </g>
  </marker>
  <marker id="DefaultArrow9" markerUnits="strokeWidth" viewBox="0 0 1 1" markerWidth="1" markerHeight="1" overflow="visible" orient="auto">
   <!-- REF_ARROW_HOLLOWDIAMOND -->
   <g transform="scale(0.0092592592)">
    <path d="M 0,45 L -45,0 L 0, -45 L 45, 0 z M 0, 63 L-63, 0 L 0, -63 L 63, 0 z"/>
   </g>
  </marker>
  <filter id="StainedFilter">
   <feBlend mode="multiply" in2="BackgroundImage" in="SourceGraphic" result="blend"/>
   <feComposite in="blend" in2="SourceAlpha" operator="in" result="comp"/>
  </filter>
  <filter id="BleachFilter">
   <feBlend mode="screen" in2="BackgroundImage" in="SourceGraphic" result="blend"/>
   <feComposite in="blend" in2="SourceAlpha" operator="in" result="comp"/>
  </filter>
  <filter id="InvertTransparencyBitmapFilter">
   <feComponentTransfer>
    <feFuncR type="gamma" amplitude="1.055" exponent=".416666666" offset="-0.055"/>
    <feFuncG type="gamma" amplitude="1.055" exponent=".416666666" offset="-0.055"/>
    <feFuncB type="gamma" amplitude="1.055" exponent=".416666666" offset="-0.055"/>
   </feComponentTransfer>
   <feComponentTransfer>
    <feFuncR type="linear" slope="-1" intercept="1"/>
    <feFuncG type="linear" slope="-1" intercept="1"/>
    <feFuncB type="linear" slope="-1" intercept="1"/>
    <feFuncA type="linear" slope="1" intercept="0"/>
   </feComponentTransfer>
   <feComponentTransfer>
    <feFuncR type="gamma" amplitude="1" exponent="2.4" offset="0"/>
    <feFuncG type="gamma" amplitude="1" exponent="2.4" offset="0"/>
    <feFuncB type="gamma" amplitude="1" exponent="2.4" offset="0"/>
   </feComponentTransfer>
  </filter>
  <linearGradient id="LinearGradient" gradientUnits="userSpaceOnUse" x1="0" y1="0" x2="21.74" y2="0" gradientTransform="translate(150.488 182.986) rotate(92.3172) skewX(1.36987)">
   <stop offset="0" stop-color="#e5e5e5"/>
   <stop offset="1" stop-color="#ffffff"/>
  </linearGradient>
 </defs>
 <g id="Document" fill="none" stroke="black" font-family="Times New Roman" font-size="16" transform="scale(1 -1)">
  <g id="Spread" transform="translate(0 -205.528)">
   <g id="Layer 1">
    <path d="M 459.173,205.317 L 0.234,205.317" fill="none" stroke="#4c4c4c" stroke-linecap="square" stroke-linejoin="round" stroke-width="0.375" stroke-miterlimit="79.8403193612775"/>
    <path d="M -0.006,205.085 L -0.006,187.49 L 459.373,187.49 L 459.373,205.085 L -0.006,205.085 Z" stroke="none" stroke-linecap="round" stroke-width="0.75" stroke-linejoin="miter" marker-start="none" marker-end="none" stroke-miterlimit="79.8403193612775" fill="url(#LinearGradient)"/>
    <path d="M 459.189,187.402 L 0.181,187.402" fill="none" stroke="#4c4c4c" stroke-linecap="square" stroke-linejoin="round" stroke-width="0.375" stroke-miterlimit="79.8403193612775"/>
    <text xml:space="preserve" transform="translate(18.194 193.639) scale(1 -1)" fill="#333333" stroke-width="0.27" stroke-linejoin="round" font-size="6" font-family="Arial" stroke-linecap="round" stroke="none" stroke-miterlimit="79.8403193612775"><tspan x="0" y="0">Об</tspan><tspan x="7.906" y="0">ъём ма</tspan><tspan x="28.116" y="0">т</tspan><tspan x="30.798" y="0">ериала</tspan></text>
    <path d="M 12.211,193.145 C 10.772,192.353 8.962,192.879 8.171,194.317 C 7.379,195.756 7.905,197.566 9.343,198.357 C 10.782,199.149 12.592,198.623 13.383,197.185 C 14.175,195.746 13.649,193.936 12.211,193.145 Z" fill="#3ebe70" stroke-linecap="round" stroke-width="0.174" stroke="#4c4c4c" stroke-linejoin="miter" marker-start="none" marker-end="none" stroke-miterlimit="79.8403193612775"/>
    <text xml:space="preserve" transform="translate(101.436 193.639) scale(1 -1)" fill="#333333" stroke-width="0.27" stroke-linejoin="round" font-size="6" font-family="Arial" stroke-linecap="round" stroke="none" stroke-miterlimit="79.8403193612775"><tspan x="0" y="0">Ст</tspan><tspan x="7.015" y="0">оимость</tspan></text>
    <path d="M 95.453,193.145 C 94.014,192.353 92.204,192.879 91.413,194.317 C 90.621,195.756 91.147,197.566 92.585,198.357 C 94.024,199.149 95.834,198.623 96.625,197.185 C 97.417,195.746 96.891,193.936 95.453,193.145 Z" fill="#dfcd3e" stroke-linecap="round" stroke-width="0.174" stroke="#4c4c4c" stroke-linejoin="miter" marker-start="none" marker-end="none" stroke-miterlimit="79.8403193612775"/>
   </g>
   <g id="Layer 2">
    <g id="Group" stroke-linejoin="round" stroke-linecap="round" stroke="#b2b2b2" stroke-width="0.188" fill="#b2b2b2" stroke-miterlimit="79.8403193612775">
     <path d="M 455.149,31.439 L 21.923,31.055" fill="none"/>
     <path d="M 455.149,53.344 L 21.923,52.96" fill="none"/>
     <path d="M 455.149,75.249 L 21.923,74.866" fill="none"/>
     <path d="M 455.149,97.155 L 21.923,96.772" fill="none"/>
     <path d="M 455.149,119.06 L 21.923,118.677" fill="none"/>
     <path d="M 455.149,140.966 L 21.923,140.583" fill="none"/>
     <path d="M 455.149,162.872 L 21.923,162.489" fill="none"/>
    </g>
    <g id="Group_1" stroke-dasharray="1.504 1.504" stroke-dashoffset="0" stroke-linejoin="round" stroke-linecap="square" stroke="#4c4c4c" stroke-width="0.188" fill="#4c4c4c" stroke-miterlimit="79.8403193612775">
     <path d="M 25.1,175.526 L 25.1,30.679" fill="none"/>
     <path d="M 39.503,175.526 L 39.503,30.679" fill="none"/>
     <path d="M 53.906,175.526 L 53.906,30.679" fill="none"/>
     <path d="M 68.31,175.526 L 68.31,30.679" fill="none"/>
     <path d="M 82.713,175.526 L 82.713,30.679" fill="none"/>
     <path d="M 97.117,175.526 L 97.117,30.679" fill="none"/>
     <path d="M 111.52,175.526 L 111.52,30.679" fill="none"/>
     <path d="M 125.924,175.526 L 125.924,30.679" fill="none"/>
     <path d="M 140.327,175.526 L 140.327,30.679" fill="none"/>
     <path d="M 154.731,175.526 L 154.731,30.679" fill="none"/>
     <path d="M 169.134,175.526 L 169.134,30.679" fill="none"/>
     <path d="M 183.538,175.526 L 183.538,30.679" fill="none"/>
     <path d="M 197.941,175.526 L 197.941,30.679" fill="none"/>
     <path d="M 212.345,175.526 L 212.345,30.679" fill="none"/>
     <path d="M 226.748,175.526 L 226.748,30.679" fill="none"/>
     <path d="M 241.152,175.526 L 241.152,30.679" fill="none"/>
     <path d="M 255.555,175.526 L 255.555,30.679" fill="none"/>
     <path d="M 269.959,175.526 L 269.959,30.679" fill="none"/>
     <path d="M 284.362,175.526 L 284.362,30.679" fill="none"/>
     <path d="M 298.766,175.526 L 298.766,30.679" fill="none"/>
     <path d="M 313.169,175.526 L 313.169,30.679" fill="none"/>
     <path d="M 327.573,175.526 L 327.573,30.679" fill="none"/>
     <path d="M 341.976,175.526 L 341.976,30.679" fill="none"/>
     <path d="M 356.38,175.526 L 356.38,30.679" fill="none"/>
     <path d="M 370.783,175.526 L 370.783,30.679" fill="none"/>
     <path d="M 385.187,175.526 L 385.187,30.679" fill="none"/>
     <path d="M 399.59,175.526 L 399.59,30.679" fill="none"/>
     <path d="M 413.994,175.526 L 413.994,30.679" fill="none"/>
     <path d="M 428.397,175.526 L 428.397,30.679" fill="none"/>
     <path d="M 442.801,175.527 L 442.801,30.68" fill="none"/>
    </g>
    <text xml:space="preserve" transform="translate(15.751 24.38) scale(1 -1)" font-size="6" fill="#4c4c4c" font-family="Arial" stroke-linejoin="round" stroke-linecap="round" stroke="none" stroke-width="0.252" stroke-miterlimit="79.8403193612775"><tspan x="0" y="0">0</tspan><tspan x="2.787" y="0">1</tspan><tspan x="5.574" y="0">.</tspan><tspan x="6.691" y="0">1</tspan><tspan x="9.034" y="0">1</tspan><tspan x="11.821" y="0">.</tspan><tspan x="12.938" y="0">1</tspan><tspan x="15.725" y="0">5</tspan><tspan x="18.512" y="0" font-weight="bold" text-decoration="underline"> </tspan></text>
    <path d="M 35.38,23.78 L 35.38,23.78" fill="none" marker-end="none" marker-start="none" stroke-linecap="butt" stroke="#4c4c4c" stroke-width="0.3" stroke-miterlimit="79.8403193612775"/>
    <text xml:space="preserve" transform="translate(44.574 24.38) scale(1 -1)" font-size="6" fill="#4c4c4c" font-family="Arial" stroke-linejoin="round" stroke-linecap="round" stroke="none" stroke-width="0.252" stroke-miterlimit="79.8403193612775"><tspan x="0" y="0">0</tspan><tspan x="2.787" y="0">3</tspan><tspan x="5.574" y="0">.</tspan><tspan x="6.691" y="0">1</tspan><tspan x="9.034" y="0">1</tspan><tspan x="11.821" y="0">.</tspan><tspan x="12.938" y="0">1</tspan><tspan x="15.725" y="0">5</tspan><tspan x="18.512" y="0" font-weight="bold" text-decoration="underline"> </tspan></text>
    <path d="M 64.203,23.78 L 64.203,23.78" fill="none" marker-end="none" marker-start="none" stroke-linecap="butt" stroke="#4c4c4c" stroke-width="0.3" stroke-miterlimit="79.8403193612775"/>
    <text xml:space="preserve" transform="translate(72.748 24.38) scale(1 -1)" font-size="6" fill="#4c4c4c" font-family="Arial" stroke-linejoin="round" stroke-linecap="round" stroke="none" stroke-width="0.252" stroke-miterlimit="79.8403193612775"><tspan x="0" y="0">0</tspan><tspan x="2.787" y="0">5</tspan><tspan x="5.574" y="0">.</tspan><tspan x="6.691" y="0">1</tspan><tspan x="9.034" y="0">1</tspan><tspan x="11.821" y="0">.</tspan><tspan x="12.938" y="0">1</tspan><tspan x="15.725" y="0">5</tspan><tspan x="18.512" y="0" font-weight="bold" text-decoration="underline"> </tspan></text>
    <path d="M 92.377,23.78 L 92.377,23.78" fill="none" marker-end="none" marker-start="none" stroke-linecap="butt" stroke="#4c4c4c" stroke-width="0.3" stroke-miterlimit="79.8403193612775"/>
    <path d="M 25.812,32.653 L 82.881,36.925 L 125.845,52.253 L 140.545,68.528 L 197.995,77.003 L 226.667,101.969 L 342.097,117.203 L 428.336,137.813 L 442.907,143.362" fill="none" stroke="#3ebe70" stroke-width="1.5" stroke-linejoin="round" stroke-linecap="round" stroke-miterlimit="79.8403193612775"/>
    <path d="M 25.253,33.507 C 25.85,33.964 26.705,33.85 27.161,33.253 C 27.618,32.656 27.504,31.801 26.907,31.345 C 26.31,30.888 25.455,31.002 24.999,31.599 C 24.542,32.196 24.656,33.051 25.253,33.507 Z" fill="#3ebe70" stroke="none" stroke-width="0.08" stroke-linejoin="round" stroke-linecap="round" marker-start="none" marker-end="none" stroke-miterlimit="79.8403193612775"/>
    <path d="M 110.897,47.992 C 111.395,48.372 112.109,48.277 112.49,47.779 C 112.87,47.281 112.775,46.567 112.277,46.186 C 111.779,45.806 111.065,45.901 110.684,46.399 C 110.304,46.897 110.399,47.611 110.897,47.992 Z" fill="#3ebe70" stroke="none" stroke-width="0.067" stroke-linejoin="round" stroke-linecap="round" marker-start="none" marker-end="none" stroke-miterlimit="79.8403193612775"/>
    <path d="M 197.417,78.022 C 197.915,78.402 198.629,78.307 199.01,77.809 C 199.39,77.311 199.295,76.597 198.797,76.216 C 198.299,75.836 197.585,75.931 197.204,76.429 C 196.824,76.927 196.919,77.641 197.417,78.022 Z" fill="#3ebe70" stroke="none" stroke-width="0.067" stroke-linejoin="round" stroke-linecap="round" marker-start="none" marker-end="none" stroke-miterlimit="79.8403193612775"/>
    <path d="M 341.477,118.21 C 341.975,118.59 342.689,118.495 343.07,117.997 C 343.45,117.499 343.355,116.785 342.857,116.404 C 342.359,116.024 341.645,116.119 341.264,116.617 C 340.884,117.115 340.979,117.829 341.477,118.21 Z" fill="#3ebe70" stroke="none" stroke-width="0.067" stroke-linejoin="round" stroke-linecap="round" marker-start="none" marker-end="none" stroke-miterlimit="79.8403193612775"/>
    <path d="M 25.352,33.64 L 53.944,37.845 L 82.804,42.405 L 111.544,46.545 L 140.457,50.715 L 183.957,69.043 L 226.924,94.065 L 284.597,103.684 L 327.722,109.824 L 385.238,117.746 L 428.222,129.934 L 443.163,138.945" fill="none" stroke="#dfcd3e" stroke-width="1.5" stroke-linejoin="round" stroke-linecap="round" stroke-miterlimit="79.8403193612775"/>
    <text xml:space="preserve" transform="translate(19.96 51.378) scale(1 -1)" fill="#4c4c4c" font-family="Arial" stroke-linejoin="round" stroke-linecap="round" stroke="none" stroke-width="0.252" stroke-miterlimit="79.8403193612775"><tspan x="-5.562" y="0" font-size="5">20</tspan><tspan x="0" y="0" font-size="5.6" font-weight="bold" text-decoration="underline"> </tspan></text>
    <path d="M 21.516,50.818 L 21.516,50.818" fill="none" marker-end="none" marker-start="none" stroke-linecap="butt" stroke="#4c4c4c" stroke-width="0.28" stroke-miterlimit="79.8403193612775"/>
    <text xml:space="preserve" transform="translate(19.961 73.152) scale(1 -1)" fill="#4c4c4c" font-family="Arial" stroke-linejoin="round" stroke-linecap="round" stroke="none" stroke-width="0.252" stroke-miterlimit="79.8403193612775"><tspan x="-5.562" y="0" font-size="5">40</tspan><tspan x="0" y="0" font-size="5.6" font-weight="bold" text-decoration="underline"> </tspan></text>
    <path d="M 21.517,72.592 L 21.517,72.592" fill="none" marker-end="none" marker-start="none" stroke-linecap="butt" stroke="#4c4c4c" stroke-width="0.28" stroke-miterlimit="79.8403193612775"/>
    <text xml:space="preserve" transform="translate(19.962 94.937) scale(1 -1)" fill="#4c4c4c" font-family="Arial" stroke-linejoin="round" stroke-linecap="round" stroke="none" stroke-width="0.252" stroke-miterlimit="79.8403193612775"><tspan x="-5.562" y="0" font-size="5">60</tspan><tspan x="0" y="0" font-size="5.6" font-weight="bold" text-decoration="underline"> </tspan></text>
    <path d="M 21.518,94.377 L 21.518,94.377" fill="none" marker-end="none" marker-start="none" stroke-linecap="butt" stroke="#4c4c4c" stroke-width="0.28" stroke-miterlimit="79.8403193612775"/>
    <text xml:space="preserve" transform="translate(19.963 117.09) scale(1 -1)" fill="#4c4c4c" font-family="Arial" stroke-linejoin="round" stroke-linecap="round" stroke="none" stroke-width="0.252" stroke-miterlimit="79.8403193612775"><tspan x="-5.562" y="0" font-size="5">80</tspan><tspan x="0" y="0" font-size="5.6" font-weight="bold" text-decoration="underline"> </tspan></text>
    <path d="M 21.519,116.53 L 21.519,116.53" fill="none" marker-end="none" marker-start="none" stroke-linecap="butt" stroke="#4c4c4c" stroke-width="0.28" stroke-miterlimit="79.8403193612775"/>
    <text xml:space="preserve" transform="translate(19.964 138.836) scale(1 -1)" fill="#4c4c4c" font-family="Arial" stroke-linejoin="round" stroke-linecap="round" stroke="none" stroke-width="0.252" stroke-miterlimit="79.8403193612775"><tspan x="-8.343" y="0" font-size="5">100</tspan><tspan x="0" y="0" font-size="5.6" font-weight="bold" text-decoration="underline"> </tspan></text>
    <path d="M 21.52,138.276 L 21.52,138.276" fill="none" marker-end="none" marker-start="none" stroke-linecap="butt" stroke="#4c4c4c" stroke-width="0.28" stroke-miterlimit="79.8403193612775"/>
    <path d="M 24.522,34.679 C 25.119,35.136 25.974,35.022 26.43,34.425 C 26.887,33.828 26.773,32.973 26.176,32.517 C 25.579,32.06 24.724,32.174 24.268,32.771 C 23.811,33.368 23.925,34.223 24.522,34.679 Z" fill="#dfcd3e" stroke="none" stroke-width="0.08" stroke-linejoin="round" stroke-linecap="round" marker-start="none" marker-end="none" stroke-miterlimit="79.8403193612775"/>
    <text xml:space="preserve" transform="translate(19.965 160.766) scale(1 -1)" fill="#4c4c4c" font-family="Arial" stroke-linejoin="round" stroke-linecap="round" stroke="none" stroke-width="0.252" stroke-miterlimit="79.8403193612775"><tspan x="-8.343" y="0" font-size="5">120</tspan><tspan x="0" y="0" font-size="5.6" font-weight="bold" text-decoration="underline"> </tspan></text>
    <path d="M 21.521,160.206 L 21.521,160.206" fill="none" marker-end="none" marker-start="none" stroke-linecap="butt" stroke="#4c4c4c" stroke-width="0.28" stroke-miterlimit="79.8403193612775"/>
    <text xml:space="preserve" transform="translate(101.698 24.38) scale(1 -1)" font-size="6" fill="#4c4c4c" font-family="Arial" stroke-linejoin="round" stroke-linecap="round" stroke="none" stroke-width="0.252" stroke-miterlimit="79.8403193612775"><tspan x="0" y="0">0</tspan><tspan x="2.787" y="0">7</tspan><tspan x="5.574" y="0">.</tspan><tspan x="6.691" y="0">1</tspan><tspan x="9.034" y="0">1</tspan><tspan x="11.821" y="0">.</tspan><tspan x="12.938" y="0">1</tspan><tspan x="15.725" y="0">5</tspan><tspan x="18.512" y="0" font-weight="bold" text-decoration="underline"> </tspan></text>
    <path d="M 121.327,23.78 L 121.327,23.78" fill="none" marker-end="none" marker-start="none" stroke-linecap="butt" stroke="#4c4c4c" stroke-width="0.3" stroke-miterlimit="79.8403193612775"/>
    <text xml:space="preserve" transform="translate(130.522 24.38) scale(1 -1)" font-size="6" fill="#4c4c4c" font-family="Arial" stroke-linejoin="round" stroke-linecap="round" stroke="none" stroke-width="0.252" stroke-miterlimit="79.8403193612775"><tspan x="0" y="0">0</tspan><tspan x="2.787" y="0">9</tspan><tspan x="5.574" y="0">.</tspan><tspan x="6.691" y="0">1</tspan><tspan x="9.034" y="0">1</tspan><tspan x="11.821" y="0">.</tspan><tspan x="12.938" y="0">1</tspan><tspan x="15.725" y="0">5</tspan><tspan x="18.512" y="0" font-weight="bold" text-decoration="underline"> </tspan></text>
    <path d="M 150.151,23.78 L 150.151,23.78" fill="none" marker-end="none" marker-start="none" stroke-linecap="butt" stroke="#4c4c4c" stroke-width="0.3" stroke-miterlimit="79.8403193612775"/>
    <text xml:space="preserve" transform="translate(159.331 24.38) scale(1 -1)" font-size="6" fill="#4c4c4c" font-family="Arial" stroke-linejoin="round" stroke-linecap="round" stroke="none" stroke-width="0.252" stroke-miterlimit="79.8403193612775"><tspan x="0" y="0">1</tspan><tspan x="2.343" y="0">1</tspan><tspan x="5.13" y="0">.</tspan><tspan x="6.247" y="0">1</tspan><tspan x="8.59" y="0">1</tspan><tspan x="11.377" y="0">.</tspan><tspan x="12.494" y="0">1</tspan><tspan x="15.281" y="0">5</tspan><tspan x="18.068" y="0" font-weight="bold" text-decoration="underline"> </tspan></text>
    <path d="M 178.516,23.78 L 178.516,23.78" fill="none" marker-end="none" marker-start="none" stroke-linecap="butt" stroke="#4c4c4c" stroke-width="0.3" stroke-miterlimit="79.8403193612775"/>
    <text xml:space="preserve" transform="translate(188.132 24.38) scale(1 -1)" font-size="6" fill="#4c4c4c" font-family="Arial" stroke-linejoin="round" stroke-linecap="round" stroke="none" stroke-width="0.252" stroke-miterlimit="79.8403193612775"><tspan x="0" y="0">1</tspan><tspan x="2.787" y="0">3</tspan><tspan x="5.574" y="0">.</tspan><tspan x="6.691" y="0">1</tspan><tspan x="9.034" y="0">1</tspan><tspan x="11.821" y="0">.</tspan><tspan x="12.938" y="0">1</tspan><tspan x="15.725" y="0">5</tspan><tspan x="18.512" y="0" font-weight="bold" text-decoration="underline"> </tspan></text>
    <path d="M 207.761,23.78 L 207.761,23.78" fill="none" marker-end="none" marker-start="none" stroke-linecap="butt" stroke="#4c4c4c" stroke-width="0.3" stroke-miterlimit="79.8403193612775"/>
    <text xml:space="preserve" transform="translate(216.785 24.38) scale(1 -1)" font-size="6" fill="#4c4c4c" font-family="Arial" stroke-linejoin="round" stroke-linecap="round" stroke="none" stroke-width="0.252" stroke-miterlimit="79.8403193612775"><tspan x="0" y="0">1</tspan><tspan x="2.787" y="0">5</tspan><tspan x="5.574" y="0">.</tspan><tspan x="6.691" y="0">1</tspan><tspan x="9.034" y="0">1</tspan><tspan x="11.821" y="0">.</tspan><tspan x="12.938" y="0">1</tspan><tspan x="15.725" y="0">5</tspan><tspan x="18.512" y="0" font-weight="bold" text-decoration="underline"> </tspan></text>
    <path d="M 236.414,23.78 L 236.414,23.78" fill="none" marker-end="none" marker-start="none" stroke-linecap="butt" stroke="#4c4c4c" stroke-width="0.3" stroke-miterlimit="79.8403193612775"/>
    <text xml:space="preserve" transform="translate(245.503 24.38) scale(1 -1)" font-size="6" fill="#4c4c4c" font-family="Arial" stroke-linejoin="round" stroke-linecap="round" stroke="none" stroke-width="0.252" stroke-miterlimit="79.8403193612775"><tspan x="0" y="0">1</tspan><tspan x="2.787" y="0">7</tspan><tspan x="5.574" y="0">.</tspan><tspan x="6.691" y="0">1</tspan><tspan x="9.034" y="0">1</tspan><tspan x="11.821" y="0">.</tspan><tspan x="12.938" y="0">1</tspan><tspan x="15.725" y="0">5</tspan><tspan x="18.512" y="0" font-weight="bold" text-decoration="underline"> </tspan></text>
    <path d="M 265.132,23.78 L 265.132,23.78" fill="none" marker-end="none" marker-start="none" stroke-linecap="butt" stroke="#4c4c4c" stroke-width="0.3" stroke-miterlimit="79.8403193612775"/>
    <text xml:space="preserve" transform="translate(274.35 24.38) scale(1 -1)" font-size="6" fill="#4c4c4c" font-family="Arial" stroke-linejoin="round" stroke-linecap="round" stroke="none" stroke-width="0.252" stroke-miterlimit="79.8403193612775"><tspan x="0" y="0">1</tspan><tspan x="2.787" y="0">9</tspan><tspan x="5.574" y="0">.</tspan><tspan x="6.691" y="0">1</tspan><tspan x="9.034" y="0">1</tspan><tspan x="11.821" y="0">.</tspan><tspan x="12.938" y="0">1</tspan><tspan x="15.725" y="0">5</tspan><tspan x="18.512" y="0" font-weight="bold" text-decoration="underline"> </tspan></text>
    <path d="M 293.979,23.78 L 293.979,23.78" fill="none" marker-end="none" marker-start="none" stroke-linecap="butt" stroke="#4c4c4c" stroke-width="0.3" stroke-miterlimit="79.8403193612775"/>
    <text xml:space="preserve" transform="translate(303.262 24.38) scale(1 -1)" font-size="6" fill="#4c4c4c" font-family="Arial" stroke-linejoin="round" stroke-linecap="round" stroke="none" stroke-width="0.252" stroke-miterlimit="79.8403193612775"><tspan x="0" y="0">2</tspan><tspan x="2.787" y="0">1</tspan><tspan x="5.574" y="0">.</tspan><tspan x="6.691" y="0">1</tspan><tspan x="9.034" y="0">1</tspan><tspan x="11.821" y="0">.</tspan><tspan x="12.938" y="0">1</tspan><tspan x="15.725" y="0">5</tspan><tspan x="18.512" y="0" font-weight="bold" text-decoration="underline"> </tspan></text>
    <path d="M 322.891,23.78 L 322.891,23.78" fill="none" marker-end="none" marker-start="none" stroke-linecap="butt" stroke="#4c4c4c" stroke-width="0.3" stroke-miterlimit="79.8403193612775"/>
    <text xml:space="preserve" transform="translate(331.996 24.38) scale(1 -1)" font-size="6" fill="#4c4c4c" font-family="Arial" stroke-linejoin="round" stroke-linecap="round" stroke="none" stroke-width="0.252" stroke-miterlimit="79.8403193612775"><tspan x="0" y="0">2</tspan><tspan x="2.787" y="0">3</tspan><tspan x="5.574" y="0">.</tspan><tspan x="6.691" y="0">1</tspan><tspan x="9.034" y="0">1</tspan><tspan x="11.821" y="0">.</tspan><tspan x="12.938" y="0">1</tspan><tspan x="15.725" y="0">5</tspan><tspan x="18.512" y="0" font-weight="bold" text-decoration="underline"> </tspan></text>
    <path d="M 351.625,23.78 L 351.625,23.78" fill="none" marker-end="none" marker-start="none" stroke-linecap="butt" stroke="#4c4c4c" stroke-width="0.3" stroke-miterlimit="79.8403193612775"/>
    <text xml:space="preserve" transform="translate(360.847 24.38) scale(1 -1)" font-size="6" fill="#4c4c4c" font-family="Arial" stroke-linejoin="round" stroke-linecap="round" stroke="none" stroke-width="0.252" stroke-miterlimit="79.8403193612775"><tspan x="0" y="0">2</tspan><tspan x="2.787" y="0">5</tspan><tspan x="5.574" y="0">.</tspan><tspan x="6.691" y="0">1</tspan><tspan x="9.034" y="0">1</tspan><tspan x="11.821" y="0">.</tspan><tspan x="12.938" y="0">1</tspan><tspan x="15.725" y="0">5</tspan><tspan x="18.512" y="0" font-weight="bold" text-decoration="underline"> </tspan></text>
    <path d="M 380.476,23.78 L 380.476,23.78" fill="none" marker-end="none" marker-start="none" stroke-linecap="butt" stroke="#4c4c4c" stroke-width="0.3" stroke-miterlimit="79.8403193612775"/>
    <text xml:space="preserve" transform="translate(389.506 24.38) scale(1 -1)" font-size="6" fill="#4c4c4c" font-family="Arial" stroke-linejoin="round" stroke-linecap="round" stroke="none" stroke-width="0.252" stroke-miterlimit="79.8403193612775"><tspan x="0" y="0">2</tspan><tspan x="2.787" y="0">7</tspan><tspan x="5.574" y="0">.</tspan><tspan x="6.691" y="0">1</tspan><tspan x="9.034" y="0">1</tspan><tspan x="11.821" y="0">.</tspan><tspan x="12.938" y="0">1</tspan><tspan x="15.725" y="0">5</tspan><tspan x="18.512" y="0" font-weight="bold" text-decoration="underline"> </tspan></text>
    <path d="M 409.135,23.78 L 409.135,23.78" fill="none" marker-end="none" marker-start="none" stroke-linecap="butt" stroke="#4c4c4c" stroke-width="0.3" stroke-miterlimit="79.8403193612775"/>
    <text xml:space="preserve" transform="translate(418.474 24.38) scale(1 -1)" font-size="6" fill="#4c4c4c" font-family="Arial" stroke-linejoin="round" stroke-linecap="round" stroke="none" stroke-width="0.252" stroke-miterlimit="79.8403193612775"><tspan x="0" y="0">2</tspan><tspan x="2.787" y="0">9</tspan><tspan x="5.574" y="0">.</tspan><tspan x="6.691" y="0">1</tspan><tspan x="9.034" y="0">1</tspan><tspan x="11.821" y="0">.</tspan><tspan x="12.938" y="0">1</tspan><tspan x="15.725" y="0">5</tspan><tspan x="18.512" y="0" font-weight="bold" text-decoration="underline"> </tspan></text>
    <path d="M 438.103,23.78 L 438.103,23.78" fill="none" marker-end="none" marker-start="none" stroke-linecap="butt" stroke="#4c4c4c" stroke-width="0.3" stroke-miterlimit="79.8403193612775"/>
    <path d="M 53.177,35.654 C 53.675,36.034 54.389,35.939 54.77,35.441 C 55.15,34.943 55.055,34.229 54.557,33.848 C 54.059,33.468 53.345,33.563 52.964,34.061 C 52.584,34.559 52.679,35.273 53.177,35.654 Z" fill="#3ebe70" stroke="none" stroke-width="0.067" stroke-linejoin="round" stroke-linecap="round" marker-start="none" marker-end="none" stroke-miterlimit="79.8403193612775"/>
    <path d="M 38.89,34.454 C 39.388,34.834 40.102,34.739 40.483,34.241 C 40.863,33.743 40.768,33.029 40.27,32.648 C 39.772,32.268 39.058,32.363 38.677,32.861 C 38.297,33.359 38.392,34.073 38.89,34.454 Z" fill="#3ebe70" stroke="none" stroke-width="0.067" stroke-linejoin="round" stroke-linecap="round" marker-start="none" marker-end="none" stroke-miterlimit="79.8403193612775"/>
    <path d="M 67.727,36.742 C 68.225,37.122 68.939,37.027 69.32,36.529 C 69.7,36.031 69.605,35.317 69.107,34.936 C 68.609,34.556 67.895,34.651 67.514,35.149 C 67.134,35.647 67.229,36.361 67.727,36.742 Z" fill="#3ebe70" stroke="none" stroke-width="0.067" stroke-linejoin="round" stroke-linecap="round" marker-start="none" marker-end="none" stroke-miterlimit="79.8403193612775"/>
    <path d="M 81.977,37.867 C 82.475,38.247 83.189,38.152 83.57,37.654 C 83.95,37.156 83.855,36.442 83.357,36.061 C 82.859,35.681 82.145,35.776 81.764,36.274 C 81.384,36.772 81.479,37.486 81.977,37.867 Z" fill="#3ebe70" stroke="none" stroke-width="0.067" stroke-linejoin="round" stroke-linecap="round" marker-start="none" marker-end="none" stroke-miterlimit="79.8403193612775"/>
    <path d="M 96.377,42.967 C 96.875,43.347 97.589,43.252 97.97,42.754 C 98.35,42.256 98.255,41.542 97.757,41.161 C 97.259,40.781 96.545,40.876 96.164,41.374 C 95.784,41.872 95.879,42.586 96.377,42.967 Z" fill="#3ebe70" stroke="none" stroke-width="0.067" stroke-linejoin="round" stroke-linecap="round" marker-start="none" marker-end="none" stroke-miterlimit="79.8403193612775"/>
    <path d="M 125.297,53.302 C 125.795,53.682 126.509,53.587 126.89,53.089 C 127.27,52.591 127.175,51.877 126.677,51.496 C 126.179,51.116 125.465,51.211 125.084,51.709 C 124.704,52.207 124.799,52.921 125.297,53.302 Z" fill="#3ebe70" stroke="none" stroke-width="0.067" stroke-linejoin="round" stroke-linecap="round" marker-start="none" marker-end="none" stroke-miterlimit="79.8403193612775"/>
    <path d="M 139.817,69.202 C 140.315,69.582 141.029,69.487 141.41,68.989 C 141.79,68.491 141.695,67.777 141.197,67.396 C 140.699,67.016 139.985,67.111 139.604,67.609 C 139.224,68.107 139.319,68.821 139.817,69.202 Z" fill="#3ebe70" stroke="none" stroke-width="0.067" stroke-linejoin="round" stroke-linecap="round" marker-start="none" marker-end="none" stroke-miterlimit="79.8403193612775"/>
    <path d="M 154.097,71.542 C 154.595,71.922 155.309,71.827 155.69,71.329 C 156.07,70.831 155.975,70.117 155.477,69.736 C 154.979,69.356 154.265,69.451 153.884,69.949 C 153.504,70.447 153.599,71.161 154.097,71.542 Z" fill="#3ebe70" stroke="none" stroke-width="0.067" stroke-linejoin="round" stroke-linecap="round" marker-start="none" marker-end="none" stroke-miterlimit="79.8403193612775"/>
    <path d="M 168.497,73.702 C 168.995,74.082 169.709,73.987 170.09,73.489 C 170.47,72.991 170.375,72.277 169.877,71.896 C 169.379,71.516 168.665,71.611 168.284,72.109 C 167.904,72.607 167.999,73.321 168.497,73.702 Z" fill="#3ebe70" stroke="none" stroke-width="0.067" stroke-linejoin="round" stroke-linecap="round" marker-start="none" marker-end="none" stroke-miterlimit="79.8403193612775"/>
    <path d="M 182.957,75.862 C 183.455,76.242 184.169,76.147 184.55,75.649 C 184.93,75.151 184.835,74.437 184.337,74.056 C 183.839,73.676 183.125,73.771 182.744,74.269 C 182.364,74.767 182.459,75.481 182.957,75.862 Z" fill="#3ebe70" stroke="none" stroke-width="0.067" stroke-linejoin="round" stroke-linecap="round" marker-start="none" marker-end="none" stroke-miterlimit="79.8403193612775"/>
    <path d="M 211.697,90.598 C 212.195,90.978 212.909,90.883 213.29,90.385 C 213.67,89.887 213.575,89.173 213.077,88.792 C 212.579,88.412 211.865,88.507 211.484,89.005 C 211.104,89.503 211.199,90.217 211.697,90.598 Z" fill="#3ebe70" stroke="none" stroke-width="0.067" stroke-linejoin="round" stroke-linecap="round" marker-start="none" marker-end="none" stroke-miterlimit="79.8403193612775"/>
    <path d="M 226.158,102.919 C 226.656,103.299 227.37,103.204 227.751,102.706 C 228.131,102.208 228.036,101.494 227.538,101.113 C 227.04,100.733 226.326,100.828 225.945,101.326 C 225.565,101.824 225.66,102.538 226.158,102.919 Z" fill="#3ebe70" stroke="none" stroke-width="0.067" stroke-linejoin="round" stroke-linecap="round" marker-start="none" marker-end="none" stroke-miterlimit="79.8403193612775"/>
    <path d="M 240.438,104.703 C 240.936,105.083 241.65,104.988 242.031,104.49 C 242.411,103.992 242.316,103.278 241.818,102.897 C 241.32,102.517 240.606,102.612 240.225,103.11 C 239.845,103.608 239.94,104.322 240.438,104.703 Z" fill="#3ebe70" stroke="none" stroke-width="0.067" stroke-linejoin="round" stroke-linecap="round" marker-start="none" marker-end="none" stroke-miterlimit="79.8403193612775"/>
    <path d="M 254.897,106.781 C 255.395,107.161 256.109,107.066 256.49,106.568 C 256.87,106.07 256.775,105.356 256.277,104.975 C 255.779,104.595 255.065,104.69 254.684,105.188 C 254.304,105.686 254.399,106.4 254.897,106.781 Z" fill="#3ebe70" stroke="none" stroke-width="0.067" stroke-linejoin="round" stroke-linecap="round" marker-start="none" marker-end="none" stroke-miterlimit="79.8403193612775"/>
    <path d="M 269.297,108.603 C 269.795,108.983 270.509,108.888 270.89,108.39 C 271.27,107.892 271.175,107.178 270.677,106.797 C 270.179,106.417 269.465,106.512 269.084,107.01 C 268.704,107.508 268.799,108.222 269.297,108.603 Z" fill="#3ebe70" stroke="none" stroke-width="0.067" stroke-linejoin="round" stroke-linecap="round" marker-start="none" marker-end="none" stroke-miterlimit="79.8403193612775"/>
    <path d="M 283.697,110.452 C 284.195,110.832 284.909,110.737 285.29,110.239 C 285.67,109.741 285.575,109.027 285.077,108.646 C 284.579,108.266 283.865,108.361 283.484,108.859 C 283.104,109.357 283.199,110.071 283.697,110.452 Z" fill="#3ebe70" stroke="none" stroke-width="0.067" stroke-linejoin="round" stroke-linecap="round" marker-start="none" marker-end="none" stroke-miterlimit="79.8403193612775"/>
    <path d="M 312.557,114.388 C 313.055,114.768 313.769,114.673 314.15,114.175 C 314.53,113.677 314.435,112.963 313.937,112.582 C 313.439,112.202 312.725,112.297 312.344,112.795 C 311.964,113.293 312.059,114.007 312.557,114.388 Z" fill="#3ebe70" stroke="none" stroke-width="0.067" stroke-linejoin="round" stroke-linecap="round" marker-start="none" marker-end="none" stroke-miterlimit="79.8403193612775"/>
    <path d="M 326.898,116.185 C 327.396,116.565 328.11,116.47 328.491,115.972 C 328.871,115.474 328.776,114.76 328.278,114.379 C 327.78,113.999 327.066,114.094 326.685,114.592 C 326.305,115.09 326.4,115.804 326.898,116.185 Z" fill="#3ebe70" stroke="none" stroke-width="0.067" stroke-linejoin="round" stroke-linecap="round" marker-start="none" marker-end="none" stroke-miterlimit="79.8403193612775"/>
    <path d="M 355.757,121.583 C 356.255,121.963 356.969,121.868 357.35,121.37 C 357.73,120.872 357.635,120.158 357.137,119.777 C 356.639,119.397 355.925,119.492 355.544,119.99 C 355.164,120.488 355.259,121.202 355.757,121.583 Z" fill="#3ebe70" stroke="none" stroke-width="0.067" stroke-linejoin="round" stroke-linecap="round" marker-start="none" marker-end="none" stroke-miterlimit="79.8403193612775"/>
    <path d="M 370.097,124.995 C 370.595,125.375 371.309,125.28 371.69,124.782 C 372.07,124.284 371.975,123.57 371.477,123.189 C 370.979,122.809 370.265,122.904 369.884,123.402 C 369.504,123.9 369.599,124.614 370.097,124.995 Z" fill="#3ebe70" stroke="none" stroke-width="0.067" stroke-linejoin="round" stroke-linecap="round" marker-start="none" marker-end="none" stroke-miterlimit="79.8403193612775"/>
    <path d="M 384.557,128.278 C 385.055,128.658 385.769,128.563 386.15,128.065 C 386.53,127.567 386.435,126.853 385.937,126.472 C 385.439,126.092 384.725,126.187 384.344,126.685 C 383.964,127.183 384.059,127.897 384.557,128.278 Z" fill="#3ebe70" stroke="none" stroke-width="0.067" stroke-linejoin="round" stroke-linecap="round" marker-start="none" marker-end="none" stroke-miterlimit="79.8403193612775"/>
    <path d="M 398.958,131.811 C 399.456,132.191 400.17,132.096 400.551,131.598 C 400.931,131.1 400.836,130.386 400.338,130.005 C 399.84,129.625 399.126,129.72 398.745,130.218 C 398.365,130.716 398.46,131.43 398.958,131.811 Z" fill="#3ebe70" stroke="none" stroke-width="0.067" stroke-linejoin="round" stroke-linecap="round" marker-start="none" marker-end="none" stroke-miterlimit="79.8403193612775"/>
    <path d="M 413.357,135.197 C 413.855,135.577 414.569,135.482 414.95,134.984 C 415.33,134.486 415.235,133.772 414.737,133.391 C 414.239,133.011 413.525,133.106 413.144,133.604 C 412.764,134.102 412.859,134.816 413.357,135.197 Z" fill="#3ebe70" stroke="none" stroke-width="0.067" stroke-linejoin="round" stroke-linecap="round" marker-start="none" marker-end="none" stroke-miterlimit="79.8403193612775"/>
    <path d="M 427.697,138.742 C 428.195,139.122 428.909,139.027 429.29,138.529 C 429.67,138.031 429.575,137.317 429.077,136.936 C 428.579,136.556 427.865,136.651 427.484,137.149 C 427.104,137.647 427.199,138.361 427.697,138.742 Z" fill="#3ebe70" stroke="none" stroke-width="0.067" stroke-linejoin="round" stroke-linecap="round" marker-start="none" marker-end="none" stroke-miterlimit="79.8403193612775"/>
    <path d="M 442.015,144.437 C 442.612,144.894 443.467,144.78 443.923,144.183 C 444.38,143.586 444.266,142.731 443.669,142.275 C 443.072,141.818 442.217,141.932 441.761,142.529 C 441.304,143.126 441.418,143.981 442.015,144.437 Z" fill="#3ebe70" stroke="none" stroke-width="0.08" stroke-linejoin="round" stroke-linecap="round" marker-start="none" marker-end="none" stroke-miterlimit="79.8403193612775"/>
    <path d="M 38.817,36.687 C 39.315,37.067 40.029,36.972 40.41,36.474 C 40.79,35.976 40.695,35.262 40.197,34.881 C 39.699,34.501 38.985,34.596 38.604,35.094 C 38.224,35.592 38.319,36.306 38.817,36.687 Z" fill="#dfcd3e" stroke="none" stroke-width="0.067" stroke-linejoin="round" stroke-linecap="round" marker-start="none" marker-end="none" stroke-miterlimit="79.8403193612775"/>
    <path d="M 53.231,38.747 C 53.729,39.127 54.443,39.032 54.824,38.534 C 55.204,38.036 55.109,37.322 54.611,36.941 C 54.113,36.561 53.399,36.656 53.018,37.154 C 52.638,37.652 52.733,38.366 53.231,38.747 Z" fill="#dfcd3e" stroke="none" stroke-width="0.067" stroke-linejoin="round" stroke-linecap="round" marker-start="none" marker-end="none" stroke-miterlimit="79.8403193612775"/>
    <path d="M 67.669,41.021 C 68.167,41.401 68.881,41.306 69.262,40.808 C 69.642,40.31 69.547,39.596 69.049,39.215 C 68.551,38.835 67.837,38.93 67.456,39.428 C 67.076,39.926 67.171,40.64 67.669,41.021 Z" fill="#dfcd3e" stroke="none" stroke-width="0.067" stroke-linejoin="round" stroke-linecap="round" marker-start="none" marker-end="none" stroke-miterlimit="79.8403193612775"/>
    <path d="M 82.036,43.294 C 82.534,43.674 83.248,43.579 83.629,43.081 C 84.009,42.583 83.914,41.869 83.416,41.488 C 82.918,41.108 82.204,41.203 81.823,41.701 C 81.443,42.199 81.538,42.913 82.036,43.294 Z" fill="#dfcd3e" stroke="none" stroke-width="0.067" stroke-linejoin="round" stroke-linecap="round" marker-start="none" marker-end="none" stroke-miterlimit="79.8403193612775"/>
    <path d="M 96.496,45.454 C 96.994,45.834 97.708,45.739 98.089,45.241 C 98.469,44.743 98.374,44.029 97.876,43.648 C 97.378,43.268 96.664,43.363 96.283,43.861 C 95.903,44.359 95.998,45.073 96.496,45.454 Z" fill="#dfcd3e" stroke="none" stroke-width="0.067" stroke-linejoin="round" stroke-linecap="round" marker-start="none" marker-end="none" stroke-miterlimit="79.8403193612775"/>
    <path d="M 111.016,47.374 C 111.514,47.754 112.228,47.659 112.609,47.161 C 112.989,46.663 112.894,45.949 112.396,45.568 C 111.898,45.188 111.184,45.283 110.803,45.781 C 110.423,46.279 110.518,46.993 111.016,47.374 Z" fill="#dfcd3e" stroke="none" stroke-width="0.067" stroke-linejoin="round" stroke-linecap="round" marker-start="none" marker-end="none" stroke-miterlimit="79.8403193612775"/>
    <path d="M 125.296,49.474 C 125.794,49.854 126.508,49.759 126.889,49.261 C 127.269,48.763 127.174,48.049 126.676,47.668 C 126.178,47.288 125.464,47.383 125.083,47.881 C 124.703,48.379 124.798,49.093 125.296,49.474 Z" fill="#dfcd3e" stroke="none" stroke-width="0.067" stroke-linejoin="round" stroke-linecap="round" marker-start="none" marker-end="none" stroke-miterlimit="79.8403193612775"/>
    <path d="M 139.696,51.574 C 140.194,51.954 140.908,51.859 141.289,51.361 C 141.669,50.863 141.574,50.149 141.076,49.768 C 140.578,49.388 139.864,49.483 139.483,49.981 C 139.103,50.479 139.198,51.193 139.696,51.574 Z" fill="#dfcd3e" stroke="none" stroke-width="0.067" stroke-linejoin="round" stroke-linecap="round" marker-start="none" marker-end="none" stroke-miterlimit="79.8403193612775"/>
    <path d="M 154.156,57.754 C 154.654,58.134 155.368,58.039 155.749,57.541 C 156.129,57.043 156.034,56.329 155.536,55.948 C 155.038,55.568 154.324,55.663 153.943,56.161 C 153.563,56.659 153.658,57.373 154.156,57.754 Z" fill="#dfcd3e" stroke="none" stroke-width="0.067" stroke-linejoin="round" stroke-linecap="round" marker-start="none" marker-end="none" stroke-miterlimit="79.8403193612775"/>
    <path d="M 168.616,63.874 C 169.114,64.254 169.828,64.159 170.209,63.661 C 170.589,63.163 170.494,62.449 169.996,62.068 C 169.498,61.688 168.784,61.783 168.403,62.281 C 168.023,62.779 168.118,63.493 168.616,63.874 Z" fill="#dfcd3e" stroke="none" stroke-width="0.067" stroke-linejoin="round" stroke-linecap="round" marker-start="none" marker-end="none" stroke-miterlimit="79.8403193612775"/>
    <path d="M 182.896,69.814 C 183.394,70.194 184.108,70.099 184.489,69.601 C 184.869,69.103 184.774,68.389 184.276,68.008 C 183.778,67.628 183.064,67.723 182.683,68.221 C 182.303,68.719 182.398,69.433 182.896,69.814 Z" fill="#dfcd3e" stroke="none" stroke-width="0.067" stroke-linejoin="round" stroke-linecap="round" marker-start="none" marker-end="none" stroke-miterlimit="79.8403193612775"/>
    <path d="M 197.476,78.454 C 197.974,78.834 198.688,78.739 199.069,78.241 C 199.449,77.743 199.354,77.029 198.856,76.648 C 198.358,76.268 197.644,76.363 197.263,76.861 C 196.883,77.359 196.978,78.073 197.476,78.454 Z" fill="#dfcd3e" stroke="none" stroke-width="0.067" stroke-linejoin="round" stroke-linecap="round" marker-start="none" marker-end="none" stroke-miterlimit="79.8403193612775"/>
    <path d="M 211.696,86.494 C 212.194,86.874 212.908,86.779 213.289,86.281 C 213.669,85.783 213.574,85.069 213.076,84.688 C 212.578,84.308 211.864,84.403 211.483,84.901 C 211.103,85.399 211.198,86.113 211.696,86.494 Z" fill="#dfcd3e" stroke="none" stroke-width="0.067" stroke-linejoin="round" stroke-linecap="round" marker-start="none" marker-end="none" stroke-miterlimit="79.8403193612775"/>
    <path d="M 226.156,94.894 C 226.654,95.274 227.368,95.179 227.749,94.681 C 228.129,94.183 228.034,93.469 227.536,93.088 C 227.038,92.708 226.324,92.803 225.943,93.301 C 225.563,93.799 225.658,94.513 226.156,94.894 Z" fill="#dfcd3e" stroke="none" stroke-width="0.067" stroke-linejoin="round" stroke-linecap="round" marker-start="none" marker-end="none" stroke-miterlimit="79.8403193612775"/>
    <path d="M 240.556,97.234 C 241.054,97.614 241.768,97.519 242.149,97.021 C 242.529,96.523 242.434,95.809 241.936,95.428 C 241.438,95.048 240.724,95.143 240.343,95.641 C 239.963,96.139 240.058,96.853 240.556,97.234 Z" fill="#dfcd3e" stroke="none" stroke-width="0.067" stroke-linejoin="round" stroke-linecap="round" marker-start="none" marker-end="none" stroke-miterlimit="79.8403193612775"/>
    <path d="M 254.896,99.754 C 255.394,100.134 256.108,100.039 256.489,99.541 C 256.869,99.043 256.774,98.329 256.276,97.948 C 255.778,97.568 255.064,97.663 254.683,98.161 C 254.303,98.659 254.398,99.373 254.896,99.754 Z" fill="#dfcd3e" stroke="none" stroke-width="0.067" stroke-linejoin="round" stroke-linecap="round" marker-start="none" marker-end="none" stroke-miterlimit="79.8403193612775"/>
    <path d="M 269.236,102.094 C 269.734,102.474 270.448,102.379 270.829,101.881 C 271.209,101.383 271.114,100.669 270.616,100.288 C 270.118,99.908 269.404,100.003 269.023,100.501 C 268.643,100.999 268.738,101.713 269.236,102.094 Z" fill="#dfcd3e" stroke="none" stroke-width="0.067" stroke-linejoin="round" stroke-linecap="round" marker-start="none" marker-end="none" stroke-miterlimit="79.8403193612775"/>
    <path d="M 283.696,104.494 C 284.194,104.874 284.908,104.779 285.289,104.281 C 285.669,103.783 285.574,103.069 285.076,102.688 C 284.578,102.308 283.864,102.403 283.483,102.901 C 283.103,103.399 283.198,104.113 283.696,104.494 Z" fill="#dfcd3e" stroke="none" stroke-width="0.067" stroke-linejoin="round" stroke-linecap="round" marker-start="none" marker-end="none" stroke-miterlimit="79.8403193612775"/>
    <path d="M 312.496,108.574 C 312.994,108.954 313.708,108.859 314.089,108.361 C 314.469,107.863 314.374,107.149 313.876,106.768 C 313.378,106.388 312.664,106.483 312.283,106.981 C 311.903,107.479 311.998,108.193 312.496,108.574 Z" fill="#dfcd3e" stroke="none" stroke-width="0.067" stroke-linejoin="round" stroke-linecap="round" marker-start="none" marker-end="none" stroke-miterlimit="79.8403193612775"/>
    <path d="M 326.896,110.734 C 327.394,111.114 328.108,111.019 328.489,110.521 C 328.869,110.023 328.774,109.309 328.276,108.928 C 327.778,108.548 327.064,108.643 326.683,109.141 C 326.303,109.639 326.398,110.353 326.896,110.734 Z" fill="#dfcd3e" stroke="none" stroke-width="0.067" stroke-linejoin="round" stroke-linecap="round" marker-start="none" marker-end="none" stroke-miterlimit="79.8403193612775"/>
    <path d="M 341.476,112.594 C 341.974,112.974 342.688,112.879 343.069,112.381 C 343.449,111.883 343.354,111.169 342.856,110.788 C 342.358,110.408 341.644,110.503 341.263,111.001 C 340.883,111.499 340.978,112.213 341.476,112.594 Z" fill="#dfcd3e" stroke="none" stroke-width="0.067" stroke-linejoin="round" stroke-linecap="round" marker-start="none" marker-end="none" stroke-miterlimit="79.8403193612775"/>
    <path d="M 355.696,114.694 C 356.194,115.074 356.908,114.979 357.289,114.481 C 357.669,113.983 357.574,113.269 357.076,112.888 C 356.578,112.508 355.864,112.603 355.483,113.101 C 355.103,113.599 355.198,114.313 355.696,114.694 Z" fill="#dfcd3e" stroke="none" stroke-width="0.067" stroke-linejoin="round" stroke-linecap="round" marker-start="none" marker-end="none" stroke-miterlimit="79.8403193612775"/>
    <path d="M 370.096,116.674 C 370.594,117.054 371.308,116.959 371.689,116.461 C 372.069,115.963 371.974,115.249 371.476,114.868 C 370.978,114.488 370.264,114.583 369.883,115.081 C 369.503,115.579 369.598,116.293 370.096,116.674 Z" fill="#dfcd3e" stroke="none" stroke-width="0.067" stroke-linejoin="round" stroke-linecap="round" marker-start="none" marker-end="none" stroke-miterlimit="79.8403193612775"/>
    <path d="M 384.616,118.654 C 385.114,119.034 385.828,118.939 386.209,118.441 C 386.589,117.943 386.494,117.229 385.996,116.848 C 385.498,116.468 384.784,116.563 384.403,117.061 C 384.023,117.559 384.118,118.273 384.616,118.654 Z" fill="#dfcd3e" stroke="none" stroke-width="0.067" stroke-linejoin="round" stroke-linecap="round" marker-start="none" marker-end="none" stroke-miterlimit="79.8403193612775"/>
    <path d="M 398.896,122.794 C 399.394,123.174 400.108,123.079 400.489,122.581 C 400.869,122.083 400.774,121.369 400.276,120.988 C 399.778,120.608 399.064,120.703 398.683,121.201 C 398.303,121.699 398.398,122.413 398.896,122.794 Z" fill="#dfcd3e" stroke="none" stroke-width="0.067" stroke-linejoin="round" stroke-linecap="round" marker-start="none" marker-end="none" stroke-miterlimit="79.8403193612775"/>
    <path d="M 413.356,126.754 C 413.854,127.134 414.568,127.039 414.949,126.541 C 415.329,126.043 415.234,125.329 414.736,124.948 C 414.238,124.568 413.524,124.663 413.143,125.161 C 412.763,125.659 412.858,126.373 413.356,126.754 Z" fill="#dfcd3e" stroke="none" stroke-width="0.067" stroke-linejoin="round" stroke-linecap="round" marker-start="none" marker-end="none" stroke-miterlimit="79.8403193612775"/>
    <path d="M 427.696,130.894 C 428.194,131.274 428.908,131.179 429.289,130.681 C 429.669,130.183 429.574,129.469 429.076,129.088 C 428.578,128.708 427.864,128.803 427.483,129.301 C 427.103,129.799 427.198,130.513 427.696,130.894 Z" fill="#dfcd3e" stroke="none" stroke-width="0.067" stroke-linejoin="round" stroke-linecap="round" marker-start="none" marker-end="none" stroke-miterlimit="79.8403193612775"/>
    <path d="M 442.275,139.954 C 442.773,140.334 443.487,140.239 443.868,139.741 C 444.248,139.243 444.153,138.529 443.655,138.148 C 443.157,137.768 442.443,137.863 442.062,138.361 C 441.682,138.859 441.777,139.573 442.275,139.954 Z" fill="#dfcd3e" stroke="none" stroke-width="0.067" stroke-linejoin="round" stroke-linecap="round" marker-start="none" marker-end="none" stroke-miterlimit="79.8403193612775"/>
    <path d="M 298.168,106.668 C 298.644,107.032 299.327,106.941 299.691,106.465 C 300.055,105.989 299.964,105.306 299.488,104.942 C 299.012,104.578 298.329,104.669 297.965,105.145 C 297.601,105.621 297.692,106.304 298.168,106.668 Z" fill="#dfcd3e" stroke-width="0.061" stroke="none" stroke-linejoin="round" stroke-linecap="round" marker-start="none" marker-end="none" stroke-miterlimit="79.8403193612775"/>
    <path d="M 298.169,112.461 C 298.645,112.825 299.328,112.734 299.692,112.258 C 300.056,111.782 299.965,111.099 299.489,110.735 C 299.013,110.371 298.33,110.462 297.966,110.938 C 297.602,111.414 297.693,112.097 298.169,112.461 Z" fill="#3ebe70" stroke-width="0.061" stroke="none" stroke-linejoin="round" stroke-linecap="round" marker-start="none" marker-end="none" stroke-miterlimit="79.8403193612775"/>
   </g>
  </g>
 </g>
</svg>
