<?xml version="1.0" standalone="no"?>
<!DOCTYPE svg PUBLIC "-//W3C//DTD SVG 1.1//EN" "http://www.w3.org/Graphics/SVG/1.1/DTD/svg11.dtd">
<!--Generator: Xara Designer (www.xara.com), SVG filter version: 5.0.0.2-->
<svg stroke-width="0.501" stroke-linejoin="bevel" fill-rule="evenodd" xmlns:xlink="http://www.w3.org/1999/xlink" xmlns="http://www.w3.org/2000/svg" version="1.1" overflow="visible" width="459.378pt" height="205.528pt" viewBox="0 0 459.378 205.528">
 <defs>
  <marker id="DefaultArrow2" markerUnits="strokeWidth" viewBox="0 0 1 1" markerWidth="1" markerHeight="1" overflow="visible" orient="auto">
   <!-- REF_ARROW_STRAIGHT (-2) -->
   <g transform="scale(0.0092592592)">
    <!-- 1/108 -->
    <path d="M -9 54 L -9 -54 L 117 0 z"/>
   </g>
  </marker>
  <marker id="DefaultArrow3" markerUnits="strokeWidth" viewBox="0 0 1 1" markerWidth="1" markerHeight="1" overflow="visible" orient="auto">
   <!-- REF_ARROW_ANGLED -->
   <g transform="scale(0.0092592592)">
    <path d="M -27 54 L -9 0 L -27 -54 L 135 0 z"/>
   </g>
  </marker>
  <marker id="DefaultArrow4" markerUnits="strokeWidth" viewBox="0 0 1 1" markerWidth="1" markerHeight="1" overflow="visible" orient="auto">
   <!-- REF_ARROW_ROUNDED -->
   <g transform="scale(0.0092592592)">
    <path d="M -9,0 L -9,-45 C -9,-51.708 2.808,-56.580 9,-54 L 117,-9 C 120.916,-7.369 126.000,-4.242 126,0 C 126,4.242 120.916,7.369 117,9 L 9,54 C 2.808,56.580 -9,51.708 -9,45 z"/>
   </g>
  </marker>
  <marker id="DefaultArrow5" markerUnits="strokeWidth" viewBox="0 0 1 1" markerWidth="1" markerHeight="1" overflow="visible" orient="auto">
   <!-- REF_ARROW_SPOT -->
   <g transform="scale(0.0092592592)">
    <path d="M -54, 0 C -54,29.807 -29.807,54 0,54 C 29.807,54 54,29.807 54,0 C 54,-29.807 29.807,-54 0,-54 C -29.807,-54 -54,-29.807 -54,0 z"/>
   </g>
  </marker>
  <marker id="DefaultArrow6" markerUnits="strokeWidth" viewBox="0 0 1 1" markerWidth="1" markerHeight="1" overflow="visible" orient="auto">
   <!-- REF_ARROW_DIAMOND -->
   <g transform="scale(0.0092592592)">
    <path d="M -63,0 L 0,63 L 63,0 L 0,-63 z"/>
   </g>
  </marker>
  <marker id="DefaultArrow7" markerUnits="strokeWidth" viewBox="0 0 1 1" markerWidth="1" markerHeight="1" overflow="visible" orient="auto">
   <!-- REF_ARROW_FEATHER -->
   <g transform="scale(0.0092592592)">
    <path d="M 18,-54 L 108,-54 L 63,0 L 108,54 L 18, 54 L -36,0 z"/>
   </g>
  </marker>
  <marker id="DefaultArrow8" markerUnits="strokeWidth" viewBox="0 0 1 1" markerWidth="1" markerHeight="1" overflow="visible" orient="auto">
   <!-- REF_ARROW_FEATHER2 -->
   <g transform="scale(0.0092592592)">
    <path d="M -36,0 L 18,-54 L 54,-54 L 18,-18 L 27,-18 L 63,-54 L 99,-54 L 63,-18 L 72,-18 L 108,-54 L 144,-54 L 90,0 L 144,54 L 108,54 L 72,18 L 63,18 L 99,54 L 63,54 L 27,18 L 18,18 L 54,54 L 18,54 z"/>
   </g>
  </marker>
  <marker id="DefaultArrow9" markerUnits="strokeWidth" viewBox="0 0 1 1" markerWidth="1" markerHeight="1" overflow="visible" orient="auto">
   <!-- REF_ARROW_HOLLOWDIAMOND -->
   <g transform="scale(0.0092592592)">
    <path d="M 0,45 L -45,0 L 0, -45 L 45, 0 z M 0, 63 L-63, 0 L 0, -63 L 63, 0 z"/>
   </g>
  </marker>
  <filter id="StainedFilter">
   <feBlend mode="multiply" in2="BackgroundImage" in="SourceGraphic" result="blend"/>
   <feComposite in="blend" in2="SourceAlpha" operator="in" result="comp"/>
  </filter>
  <filter id="BleachFilter">
   <feBlend mode="screen" in2="BackgroundImage" in="SourceGraphic" result="blend"/>
   <feComposite in="blend" in2="SourceAlpha" operator="in" result="comp"/>
  </filter>
  <filter id="InvertTransparencyBitmapFilter">
   <feComponentTransfer>
    <feFuncR type="gamma" amplitude="1.055" exponent=".416666666" offset="-0.055"/>
    <feFuncG type="gamma" amplitude="1.055" exponent=".416666666" offset="-0.055"/>
    <feFuncB type="gamma" amplitude="1.055" exponent=".416666666" offset="-0.055"/>
   </feComponentTransfer>
   <feComponentTransfer>
    <feFuncR type="linear" slope="-1" intercept="1"/>
    <feFuncG type="linear" slope="-1" intercept="1"/>
    <feFuncB type="linear" slope="-1" intercept="1"/>
    <feFuncA type="linear" slope="1" intercept="0"/>
   </feComponentTransfer>
   <feComponentTransfer>
    <feFuncR type="gamma" amplitude="1" exponent="2.4" offset="0"/>
    <feFuncG type="gamma" amplitude="1" exponent="2.4" offset="0"/>
    <feFuncB type="gamma" amplitude="1" exponent="2.4" offset="0"/>
   </feComponentTransfer>
  </filter>
  <linearGradient id="LinearGradient" gradientUnits="userSpaceOnUse" x1="0" y1="0" x2="21.74" y2="0" gradientTransform="translate(150.488 182.986) rotate(92.3172) skewX(1.36987)">
   <stop offset="0" stop-color="#e5e5e5"/>
   <stop offset="1" stop-color="#ffffff"/>
  </linearGradient>
 </defs>
 <g id="Document" fill="none" stroke="black" font-family="Times New Roman" font-size="16" transform="scale(1 -1)">
  <g id="Spread" transform="translate(0 -205.528)">
   <g id="Layer 1">
    <path d="M 459.173,205.317 L 0.234,205.317" fill="none" stroke="#4c4c4c" stroke-linecap="square" stroke-linejoin="round" stroke-width="0.375" stroke-miterlimit="79.8403193612775"/>
    <path d="M -0.006,205.085 L -0.006,187.49 L 459.373,187.49 L 459.373,205.085 L -0.006,205.085 Z" stroke="none" stroke-linecap="round" stroke-width="0.75" stroke-linejoin="miter" marker-start="none" marker-end="none" stroke-miterlimit="79.8403193612775" fill="url(#LinearGradient)"/>
    <path d="M 459.189,187.402 L 0.181,187.402" fill="none" stroke="#4c4c4c" stroke-linecap="square" stroke-linejoin="round" stroke-width="0.375" stroke-miterlimit="79.8403193612775"/>
    <text xml:space="preserve" transform="translate(18.194 193.639) scale(1 -1)" fill="#333333" stroke-width="0.27" stroke-linejoin="round" font-size="6" font-family="Arial" stroke-linecap="round" stroke="none" stroke-miterlimit="79.8403193612775"><tspan x="0" y="0">Об</tspan><tspan x="7.906" y="0">ъём ма</tspan><tspan x="28.116" y="0">т</tspan><tspan x="30.798" y="0">ериала</tspan></text>
    <path d="M 12.211,193.145 C 10.772,192.353 8.962,192.879 8.171,194.317 C 7.379,195.756 7.905,197.566 9.343,198.357 C 10.782,199.149 12.592,198.623 13.383,197.185 C 14.175,195.746 13.649,193.936 12.211,193.145 Z" fill="#3ebe70" stroke-linecap="round" stroke-width="0.174" stroke="#4c4c4c" stroke-linejoin="miter" marker-start="none" marker-end="none" stroke-miterlimit="79.8403193612775"/>
    <text xml:space="preserve" transform="translate(101.436 193.639) scale(1 -1)" fill="#333333" stroke-width="0.27" stroke-linejoin="round" font-size="6" font-family="Arial" stroke-linecap="round" stroke="none" stroke-miterlimit="79.8403193612775"><tspan x="0" y="0">Ст</tspan><tspan x="7.015" y="0">оимость</tspan></text>
    <path d="M 95.453,193.145 C 94.014,192.353 92.204,192.879 91.413,194.317 C 90.621,195.756 91.147,197.566 92.585,198.357 C 94.024,199.149 95.834,198.623 96.625,197.185 C 97.417,195.746 96.891,193.936 95.453,193.145 Z" fill="#dfcd3e" stroke-linecap="round" stroke-width="0.174" stroke="#4c4c4c" stroke-linejoin="miter" marker-start="none" marker-end="none" stroke-miterlimit="79.8403193612775"/>
   </g>
   <g id="Layer 3">
    <g id="Group" stroke-linejoin="round">
     <g id="Group_1" stroke-linecap="round" stroke="#b2b2b2" stroke-width="0.188" fill="#b2b2b2" stroke-miterlimit="79.8403193612775">
      <path d="M 455.147,31.438 L 21.921,31.054" fill="none"/>
      <path d="M 455.147,53.343 L 21.921,52.959" fill="none"/>
      <path d="M 455.147,75.248 L 21.921,74.865" fill="none"/>
      <path d="M 455.147,97.154 L 21.921,96.771" fill="none"/>
      <path d="M 455.147,119.059 L 21.921,118.676" fill="none"/>
      <path d="M 455.147,140.965 L 21.921,140.582" fill="none"/>
      <path d="M 455.147,162.871 L 21.921,162.488" fill="none"/>
     </g>
     <g id="Group_2" stroke-dasharray="1.504 1.504" stroke-dashoffset="0" stroke-linecap="square" stroke="#4c4c4c" stroke-width="0.188" fill="#4c4c4c" stroke-miterlimit="79.8403193612775">
      <path d="M 25.098,175.525 L 25.098,30.678" fill="none"/>
      <path d="M 39.501,175.525 L 39.501,30.678" fill="none"/>
      <path d="M 53.904,175.525 L 53.904,30.678" fill="none"/>
      <path d="M 68.308,175.525 L 68.308,30.678" fill="none"/>
      <path d="M 82.711,175.525 L 82.711,30.678" fill="none"/>
      <path d="M 97.115,175.525 L 97.115,30.678" fill="none"/>
      <path d="M 111.518,175.525 L 111.518,30.678" fill="none"/>
      <path d="M 125.922,175.525 L 125.922,30.678" fill="none"/>
      <path d="M 140.325,175.525 L 140.325,30.678" fill="none"/>
      <path d="M 154.729,175.525 L 154.729,30.678" fill="none"/>
      <path d="M 169.132,175.525 L 169.132,30.678" fill="none"/>
      <path d="M 183.536,175.525 L 183.536,30.678" fill="none"/>
      <path d="M 197.939,175.525 L 197.939,30.678" fill="none"/>
      <path d="M 212.343,175.525 L 212.343,30.678" fill="none"/>
      <path d="M 226.746,175.525 L 226.746,30.678" fill="none"/>
      <path d="M 241.15,175.525 L 241.15,30.678" fill="none"/>
      <path d="M 255.553,175.525 L 255.553,30.678" fill="none"/>
      <path d="M 269.957,175.525 L 269.957,30.678" fill="none"/>
      <path d="M 284.36,175.525 L 284.36,30.678" fill="none"/>
      <path d="M 298.764,175.525 L 298.764,30.678" fill="none"/>
      <path d="M 313.167,175.525 L 313.167,30.678" fill="none"/>
      <path d="M 327.571,175.525 L 327.571,30.678" fill="none"/>
      <path d="M 341.974,175.525 L 341.974,30.678" fill="none"/>
      <path d="M 356.378,175.525 L 356.378,30.678" fill="none"/>
      <path d="M 370.781,175.525 L 370.781,30.678" fill="none"/>
      <path d="M 385.185,175.525 L 385.185,30.678" fill="none"/>
      <path d="M 399.588,175.525 L 399.588,30.678" fill="none"/>
      <path d="M 413.992,175.525 L 413.992,30.678" fill="none"/>
      <path d="M 428.395,175.525 L 428.395,30.678" fill="none"/>
      <path d="M 442.799,175.526 L 442.799,30.679" fill="none"/>
     </g>
     <text xml:space="preserve" transform="translate(15.749 24.379) scale(1 -1)" font-size="6" fill="#4c4c4c" font-family="Arial" stroke-linecap="round" stroke="none" stroke-width="0.252" stroke-miterlimit="79.8403193612775"><tspan x="0" y="0">0</tspan><tspan x="2.787" y="0">1</tspan><tspan x="5.574" y="0">.</tspan><tspan x="6.691" y="0">1</tspan><tspan x="9.034" y="0">1</tspan><tspan x="11.821" y="0">.</tspan><tspan x="12.938" y="0">1</tspan><tspan x="15.725" y="0">5</tspan><tspan x="18.512" y="0" font-weight="bold" text-decoration="underline"> </tspan></text>
     <path d="M 35.378,23.779 L 35.378,23.779" fill="none" marker-end="none" marker-start="none" stroke-linecap="butt" stroke="#4c4c4c" stroke-width="0.3" stroke-miterlimit="79.8403193612775"/>
     <text xml:space="preserve" transform="translate(44.572 24.379) scale(1 -1)" font-size="6" fill="#4c4c4c" font-family="Arial" stroke-linecap="round" stroke="none" stroke-width="0.252" stroke-miterlimit="79.8403193612775"><tspan x="0" y="0">0</tspan><tspan x="2.787" y="0">3</tspan><tspan x="5.574" y="0">.</tspan><tspan x="6.691" y="0">1</tspan><tspan x="9.034" y="0">1</tspan><tspan x="11.821" y="0">.</tspan><tspan x="12.938" y="0">1</tspan><tspan x="15.725" y="0">5</tspan><tspan x="18.512" y="0" font-weight="bold" text-decoration="underline"> </tspan></text>
     <path d="M 64.201,23.779 L 64.201,23.779" fill="none" marker-end="none" marker-start="none" stroke-linecap="butt" stroke="#4c4c4c" stroke-width="0.3" stroke-miterlimit="79.8403193612775"/>
     <text xml:space="preserve" transform="translate(72.746 24.379) scale(1 -1)" font-size="6" fill="#4c4c4c" font-family="Arial" stroke-linecap="round" stroke="none" stroke-width="0.252" stroke-miterlimit="79.8403193612775"><tspan x="0" y="0">0</tspan><tspan x="2.787" y="0">5</tspan><tspan x="5.574" y="0">.</tspan><tspan x="6.691" y="0">1</tspan><tspan x="9.034" y="0">1</tspan><tspan x="11.821" y="0">.</tspan><tspan x="12.938" y="0">1</tspan><tspan x="15.725" y="0">5</tspan><tspan x="18.512" y="0" font-weight="bold" text-decoration="underline"> </tspan></text>
     <path d="M 92.375,23.779 L 92.375,23.779" fill="none" marker-end="none" marker-start="none" stroke-linecap="butt" stroke="#4c4c4c" stroke-width="0.3" stroke-miterlimit="79.8403193612775"/>
     <path d="M 25.81,32.652 L 82.697,46.835 L 125.71,67.256 L 140.543,68.527 L 197.072,87.851 L 226.899,98.101 L 341.977,106.186 L 428.518,124.691 L 442.905,143.361" fill="none" stroke="#3ebe70" stroke-width="1.5" stroke-linecap="round" stroke-miterlimit="79.8403193612775"/>
     <path d="M 25.251,33.506 C 25.848,33.963 26.703,33.849 27.159,33.252 C 27.616,32.655 27.502,31.8 26.905,31.344 C 26.308,30.887 25.453,31.001 24.997,31.598 C 24.54,32.195 24.654,33.05 25.251,33.506 Z" fill="#3ebe70" stroke="none" stroke-width="0.08" stroke-linecap="round" marker-start="none" marker-end="none" stroke-miterlimit="79.8403193612775"/>
     <path d="M 110.896,61.467 C 111.394,61.847 112.108,61.752 112.489,61.254 C 112.869,60.756 112.774,60.042 112.276,59.661 C 111.778,59.281 111.064,59.376 110.683,59.874 C 110.303,60.372 110.398,61.086 110.896,61.467 Z" fill="#3ebe70" stroke="none" stroke-width="0.067" stroke-linecap="round" marker-start="none" marker-end="none" stroke-miterlimit="79.8403193612775"/>
     <path d="M 197.415,89.403 C 197.913,89.783 198.627,89.688 199.008,89.19 C 199.388,88.692 199.293,87.978 198.795,87.597 C 198.297,87.217 197.583,87.312 197.202,87.81 C 196.822,88.308 196.917,89.022 197.415,89.403 Z" fill="#3ebe70" stroke="none" stroke-width="0.067" stroke-linecap="round" marker-start="none" marker-end="none" stroke-miterlimit="79.8403193612775"/>
     <path d="M 341.475,107.178 C 341.973,107.558 342.687,107.463 343.068,106.965 C 343.448,106.467 343.353,105.753 342.855,105.372 C 342.357,104.992 341.643,105.087 341.262,105.585 C 340.882,106.083 340.977,106.797 341.475,107.178 Z" fill="#3ebe70" stroke="none" stroke-width="0.067" stroke-linecap="round" marker-start="none" marker-end="none" stroke-miterlimit="79.8403193612775"/>
     <path d="M 38.889,37.154 C 39.387,37.534 40.101,37.439 40.482,36.941 C 40.862,36.443 40.767,35.729 40.269,35.348 C 39.771,34.968 39.057,35.063 38.676,35.561 C 38.296,36.059 38.391,36.773 38.889,37.154 Z" fill="#3ebe70" stroke="none" stroke-width="0.067" stroke-linecap="round" marker-start="none" marker-end="none" stroke-miterlimit="79.8403193612775"/>
     <path d="M 154.095,74.093 C 154.593,74.473 155.307,74.378 155.688,73.88 C 156.068,73.382 155.973,72.668 155.475,72.287 C 154.977,71.907 154.263,72.002 153.882,72.5 C 153.502,72.998 153.597,73.712 154.095,74.093 Z" fill="#3ebe70" stroke="none" stroke-width="0.067" stroke-linecap="round" marker-start="none" marker-end="none" stroke-miterlimit="79.8403193612775"/>
     <path d="M 254.895,101.202 C 255.393,101.582 256.107,101.487 256.488,100.989 C 256.868,100.491 256.773,99.777 256.275,99.396 C 255.777,99.016 255.063,99.111 254.682,99.609 C 254.302,100.107 254.397,100.821 254.895,101.202 Z" fill="#3ebe70" stroke="none" stroke-width="0.067" stroke-linecap="round" marker-start="none" marker-end="none" stroke-miterlimit="79.8403193612775"/>
     <path d="M 269.296,102.086 C 269.794,102.466 270.508,102.371 270.889,101.873 C 271.269,101.375 271.174,100.661 270.676,100.28 C 270.178,99.9 269.464,99.995 269.083,100.493 C 268.703,100.991 268.798,101.705 269.296,102.086 Z" fill="#3ebe70" stroke="none" stroke-width="0.067" stroke-linecap="round" marker-start="none" marker-end="none" stroke-miterlimit="79.8403193612775"/>
     <path d="M 25.35,33.639 L 53.942,37.844 L 82.802,42.404 L 112.113,53.759 L 140.613,72.209 L 183.063,79.259 L 226.922,94.064 L 284.595,103.683 L 327.72,109.823 L 385.236,117.745 L 428.22,129.933 L 443.161,138.944" fill="none" stroke="#dfcd3e" stroke-width="1.5" stroke-linecap="round" stroke-miterlimit="79.8403193612775"/>
     <text xml:space="preserve" transform="translate(19.958 51.377) scale(1 -1)" fill="#4c4c4c" font-family="Arial" stroke-linecap="round" stroke="none" stroke-width="0.252" stroke-miterlimit="79.8403193612775"><tspan x="-5.562" y="0" font-size="5">20</tspan><tspan x="0" y="0" font-size="5.6" font-weight="bold" text-decoration="underline"> </tspan></text>
     <path d="M 21.514,50.817 L 21.514,50.817" fill="none" marker-end="none" marker-start="none" stroke-linecap="butt" stroke="#4c4c4c" stroke-width="0.28" stroke-miterlimit="79.8403193612775"/>
     <text xml:space="preserve" transform="translate(19.959 73.151) scale(1 -1)" fill="#4c4c4c" font-family="Arial" stroke-linecap="round" stroke="none" stroke-width="0.252" stroke-miterlimit="79.8403193612775"><tspan x="-5.562" y="0" font-size="5">40</tspan><tspan x="0" y="0" font-size="5.6" font-weight="bold" text-decoration="underline"> </tspan></text>
     <path d="M 21.515,72.591 L 21.515,72.591" fill="none" marker-end="none" marker-start="none" stroke-linecap="butt" stroke="#4c4c4c" stroke-width="0.28" stroke-miterlimit="79.8403193612775"/>
     <text xml:space="preserve" transform="translate(19.96 94.936) scale(1 -1)" fill="#4c4c4c" font-family="Arial" stroke-linecap="round" stroke="none" stroke-width="0.252" stroke-miterlimit="79.8403193612775"><tspan x="-5.562" y="0" font-size="5">60</tspan><tspan x="0" y="0" font-size="5.6" font-weight="bold" text-decoration="underline"> </tspan></text>
     <path d="M 21.516,94.376 L 21.516,94.376" fill="none" marker-end="none" marker-start="none" stroke-linecap="butt" stroke="#4c4c4c" stroke-width="0.28" stroke-miterlimit="79.8403193612775"/>
     <text xml:space="preserve" transform="translate(19.961 117.089) scale(1 -1)" fill="#4c4c4c" font-family="Arial" stroke-linecap="round" stroke="none" stroke-width="0.252" stroke-miterlimit="79.8403193612775"><tspan x="-5.562" y="0" font-size="5">80</tspan><tspan x="0" y="0" font-size="5.6" font-weight="bold" text-decoration="underline"> </tspan></text>
     <path d="M 21.517,116.529 L 21.517,116.529" fill="none" marker-end="none" marker-start="none" stroke-linecap="butt" stroke="#4c4c4c" stroke-width="0.28" stroke-miterlimit="79.8403193612775"/>
     <text xml:space="preserve" transform="translate(19.962 138.835) scale(1 -1)" fill="#4c4c4c" font-family="Arial" stroke-linecap="round" stroke="none" stroke-width="0.252" stroke-miterlimit="79.8403193612775"><tspan x="-8.343" y="0" font-size="5">100</tspan><tspan x="0" y="0" font-size="5.6" font-weight="bold" text-decoration="underline"> </tspan></text>
     <path d="M 21.518,138.275 L 21.518,138.275" fill="none" marker-end="none" marker-start="none" stroke-linecap="butt" stroke="#4c4c4c" stroke-width="0.28" stroke-miterlimit="79.8403193612775"/>
     <path d="M 24.52,34.678 C 25.117,35.135 25.972,35.021 26.428,34.424 C 26.885,33.827 26.771,32.972 26.174,32.516 C 25.577,32.059 24.722,32.173 24.266,32.77 C 23.809,33.367 23.923,34.222 24.52,34.678 Z" fill="#dfcd3e" stroke="none" stroke-width="0.08" stroke-linecap="round" marker-start="none" marker-end="none" stroke-miterlimit="79.8403193612775"/>
     <text xml:space="preserve" transform="translate(19.963 160.765) scale(1 -1)" fill="#4c4c4c" font-family="Arial" stroke-linecap="round" stroke="none" stroke-width="0.252" stroke-miterlimit="79.8403193612775"><tspan x="-8.343" y="0" font-size="5">120</tspan><tspan x="0" y="0" font-size="5.6" font-weight="bold" text-decoration="underline"> </tspan></text>
     <path d="M 21.519,160.205 L 21.519,160.205" fill="none" marker-end="none" marker-start="none" stroke-linecap="butt" stroke="#4c4c4c" stroke-width="0.28" stroke-miterlimit="79.8403193612775"/>
     <text xml:space="preserve" transform="translate(101.696 24.379) scale(1 -1)" font-size="6" fill="#4c4c4c" font-family="Arial" stroke-linecap="round" stroke="none" stroke-width="0.252" stroke-miterlimit="79.8403193612775"><tspan x="0" y="0">0</tspan><tspan x="2.787" y="0">7</tspan><tspan x="5.574" y="0">.</tspan><tspan x="6.691" y="0">1</tspan><tspan x="9.034" y="0">1</tspan><tspan x="11.821" y="0">.</tspan><tspan x="12.938" y="0">1</tspan><tspan x="15.725" y="0">5</tspan><tspan x="18.512" y="0" font-weight="bold" text-decoration="underline"> </tspan></text>
     <path d="M 121.325,23.779 L 121.325,23.779" fill="none" marker-end="none" marker-start="none" stroke-linecap="butt" stroke="#4c4c4c" stroke-width="0.3" stroke-miterlimit="79.8403193612775"/>
     <text xml:space="preserve" transform="translate(130.52 24.379) scale(1 -1)" font-size="6" fill="#4c4c4c" font-family="Arial" stroke-linecap="round" stroke="none" stroke-width="0.252" stroke-miterlimit="79.8403193612775"><tspan x="0" y="0">0</tspan><tspan x="2.787" y="0">9</tspan><tspan x="5.574" y="0">.</tspan><tspan x="6.691" y="0">1</tspan><tspan x="9.034" y="0">1</tspan><tspan x="11.821" y="0">.</tspan><tspan x="12.938" y="0">1</tspan><tspan x="15.725" y="0">5</tspan><tspan x="18.512" y="0" font-weight="bold" text-decoration="underline"> </tspan></text>
     <path d="M 150.149,23.779 L 150.149,23.779" fill="none" marker-end="none" marker-start="none" stroke-linecap="butt" stroke="#4c4c4c" stroke-width="0.3" stroke-miterlimit="79.8403193612775"/>
     <text xml:space="preserve" transform="translate(159.329 24.379) scale(1 -1)" font-size="6" fill="#4c4c4c" font-family="Arial" stroke-linecap="round" stroke="none" stroke-width="0.252" stroke-miterlimit="79.8403193612775"><tspan x="0" y="0">1</tspan><tspan x="2.343" y="0">1</tspan><tspan x="5.13" y="0">.</tspan><tspan x="6.247" y="0">1</tspan><tspan x="8.59" y="0">1</tspan><tspan x="11.377" y="0">.</tspan><tspan x="12.494" y="0">1</tspan><tspan x="15.281" y="0">5</tspan><tspan x="18.068" y="0" font-weight="bold" text-decoration="underline"> </tspan></text>
     <path d="M 178.514,23.779 L 178.514,23.779" fill="none" marker-end="none" marker-start="none" stroke-linecap="butt" stroke="#4c4c4c" stroke-width="0.3" stroke-miterlimit="79.8403193612775"/>
     <text xml:space="preserve" transform="translate(188.13 24.379) scale(1 -1)" font-size="6" fill="#4c4c4c" font-family="Arial" stroke-linecap="round" stroke="none" stroke-width="0.252" stroke-miterlimit="79.8403193612775"><tspan x="0" y="0">1</tspan><tspan x="2.787" y="0">3</tspan><tspan x="5.574" y="0">.</tspan><tspan x="6.691" y="0">1</tspan><tspan x="9.034" y="0">1</tspan><tspan x="11.821" y="0">.</tspan><tspan x="12.938" y="0">1</tspan><tspan x="15.725" y="0">5</tspan><tspan x="18.512" y="0" font-weight="bold" text-decoration="underline"> </tspan></text>
     <path d="M 207.759,23.779 L 207.759,23.779" fill="none" marker-end="none" marker-start="none" stroke-linecap="butt" stroke="#4c4c4c" stroke-width="0.3" stroke-miterlimit="79.8403193612775"/>
     <text xml:space="preserve" transform="translate(216.783 24.379) scale(1 -1)" font-size="6" fill="#4c4c4c" font-family="Arial" stroke-linecap="round" stroke="none" stroke-width="0.252" stroke-miterlimit="79.8403193612775"><tspan x="0" y="0">1</tspan><tspan x="2.787" y="0">5</tspan><tspan x="5.574" y="0">.</tspan><tspan x="6.691" y="0">1</tspan><tspan x="9.034" y="0">1</tspan><tspan x="11.821" y="0">.</tspan><tspan x="12.938" y="0">1</tspan><tspan x="15.725" y="0">5</tspan><tspan x="18.512" y="0" font-weight="bold" text-decoration="underline"> </tspan></text>
     <path d="M 236.412,23.779 L 236.412,23.779" fill="none" marker-end="none" marker-start="none" stroke-linecap="butt" stroke="#4c4c4c" stroke-width="0.3" stroke-miterlimit="79.8403193612775"/>
     <text xml:space="preserve" transform="translate(245.501 24.379) scale(1 -1)" font-size="6" fill="#4c4c4c" font-family="Arial" stroke-linecap="round" stroke="none" stroke-width="0.252" stroke-miterlimit="79.8403193612775"><tspan x="0" y="0">1</tspan><tspan x="2.787" y="0">7</tspan><tspan x="5.574" y="0">.</tspan><tspan x="6.691" y="0">1</tspan><tspan x="9.034" y="0">1</tspan><tspan x="11.821" y="0">.</tspan><tspan x="12.938" y="0">1</tspan><tspan x="15.725" y="0">5</tspan><tspan x="18.512" y="0" font-weight="bold" text-decoration="underline"> </tspan></text>
     <path d="M 265.13,23.779 L 265.13,23.779" fill="none" marker-end="none" marker-start="none" stroke-linecap="butt" stroke="#4c4c4c" stroke-width="0.3" stroke-miterlimit="79.8403193612775"/>
     <text xml:space="preserve" transform="translate(274.348 24.379) scale(1 -1)" font-size="6" fill="#4c4c4c" font-family="Arial" stroke-linecap="round" stroke="none" stroke-width="0.252" stroke-miterlimit="79.8403193612775"><tspan x="0" y="0">1</tspan><tspan x="2.787" y="0">9</tspan><tspan x="5.574" y="0">.</tspan><tspan x="6.691" y="0">1</tspan><tspan x="9.034" y="0">1</tspan><tspan x="11.821" y="0">.</tspan><tspan x="12.938" y="0">1</tspan><tspan x="15.725" y="0">5</tspan><tspan x="18.512" y="0" font-weight="bold" text-decoration="underline"> </tspan></text>
     <path d="M 293.977,23.779 L 293.977,23.779" fill="none" marker-end="none" marker-start="none" stroke-linecap="butt" stroke="#4c4c4c" stroke-width="0.3" stroke-miterlimit="79.8403193612775"/>
     <text xml:space="preserve" transform="translate(303.26 24.379) scale(1 -1)" font-size="6" fill="#4c4c4c" font-family="Arial" stroke-linecap="round" stroke="none" stroke-width="0.252" stroke-miterlimit="79.8403193612775"><tspan x="0" y="0">2</tspan><tspan x="2.787" y="0">1</tspan><tspan x="5.574" y="0">.</tspan><tspan x="6.691" y="0">1</tspan><tspan x="9.034" y="0">1</tspan><tspan x="11.821" y="0">.</tspan><tspan x="12.938" y="0">1</tspan><tspan x="15.725" y="0">5</tspan><tspan x="18.512" y="0" font-weight="bold" text-decoration="underline"> </tspan></text>
     <path d="M 322.889,23.779 L 322.889,23.779" fill="none" marker-end="none" marker-start="none" stroke-linecap="butt" stroke="#4c4c4c" stroke-width="0.3" stroke-miterlimit="79.8403193612775"/>
     <text xml:space="preserve" transform="translate(331.994 24.379) scale(1 -1)" font-size="6" fill="#4c4c4c" font-family="Arial" stroke-linecap="round" stroke="none" stroke-width="0.252" stroke-miterlimit="79.8403193612775"><tspan x="0" y="0">2</tspan><tspan x="2.787" y="0">3</tspan><tspan x="5.574" y="0">.</tspan><tspan x="6.691" y="0">1</tspan><tspan x="9.034" y="0">1</tspan><tspan x="11.821" y="0">.</tspan><tspan x="12.938" y="0">1</tspan><tspan x="15.725" y="0">5</tspan><tspan x="18.512" y="0" font-weight="bold" text-decoration="underline"> </tspan></text>
     <path d="M 351.623,23.779 L 351.623,23.779" fill="none" marker-end="none" marker-start="none" stroke-linecap="butt" stroke="#4c4c4c" stroke-width="0.3" stroke-miterlimit="79.8403193612775"/>
     <text xml:space="preserve" transform="translate(360.845 24.379) scale(1 -1)" font-size="6" fill="#4c4c4c" font-family="Arial" stroke-linecap="round" stroke="none" stroke-width="0.252" stroke-miterlimit="79.8403193612775"><tspan x="0" y="0">2</tspan><tspan x="2.787" y="0">5</tspan><tspan x="5.574" y="0">.</tspan><tspan x="6.691" y="0">1</tspan><tspan x="9.034" y="0">1</tspan><tspan x="11.821" y="0">.</tspan><tspan x="12.938" y="0">1</tspan><tspan x="15.725" y="0">5</tspan><tspan x="18.512" y="0" font-weight="bold" text-decoration="underline"> </tspan></text>
     <path d="M 380.474,23.779 L 380.474,23.779" fill="none" marker-end="none" marker-start="none" stroke-linecap="butt" stroke="#4c4c4c" stroke-width="0.3" stroke-miterlimit="79.8403193612775"/>
     <text xml:space="preserve" transform="translate(389.504 24.379) scale(1 -1)" font-size="6" fill="#4c4c4c" font-family="Arial" stroke-linecap="round" stroke="none" stroke-width="0.252" stroke-miterlimit="79.8403193612775"><tspan x="0" y="0">2</tspan><tspan x="2.787" y="0">7</tspan><tspan x="5.574" y="0">.</tspan><tspan x="6.691" y="0">1</tspan><tspan x="9.034" y="0">1</tspan><tspan x="11.821" y="0">.</tspan><tspan x="12.938" y="0">1</tspan><tspan x="15.725" y="0">5</tspan><tspan x="18.512" y="0" font-weight="bold" text-decoration="underline"> </tspan></text>
     <path d="M 409.133,23.779 L 409.133,23.779" fill="none" marker-end="none" marker-start="none" stroke-linecap="butt" stroke="#4c4c4c" stroke-width="0.3" stroke-miterlimit="79.8403193612775"/>
     <text xml:space="preserve" transform="translate(418.472 24.379) scale(1 -1)" font-size="6" fill="#4c4c4c" font-family="Arial" stroke-linecap="round" stroke="none" stroke-width="0.252" stroke-miterlimit="79.8403193612775"><tspan x="0" y="0">2</tspan><tspan x="2.787" y="0">9</tspan><tspan x="5.574" y="0">.</tspan><tspan x="6.691" y="0">1</tspan><tspan x="9.034" y="0">1</tspan><tspan x="11.821" y="0">.</tspan><tspan x="12.938" y="0">1</tspan><tspan x="15.725" y="0">5</tspan><tspan x="18.512" y="0" font-weight="bold" text-decoration="underline"> </tspan></text>
     <path d="M 438.101,23.779 L 438.101,23.779" fill="none" marker-end="none" marker-start="none" stroke-linecap="butt" stroke="#4c4c4c" stroke-width="0.3" stroke-miterlimit="79.8403193612775"/>
     <path d="M 53.176,40.565 C 53.674,40.945 54.388,40.85 54.769,40.352 C 55.149,39.854 55.054,39.14 54.556,38.759 C 54.058,38.379 53.344,38.474 52.963,38.972 C 52.583,39.47 52.678,40.184 53.176,40.565 Z" fill="#3ebe70" stroke="none" stroke-width="0.067" stroke-linecap="round" marker-start="none" marker-end="none" stroke-miterlimit="79.8403193612775"/>
     <path d="M 67.725,44.131 C 68.223,44.511 68.937,44.416 69.318,43.918 C 69.698,43.42 69.603,42.706 69.105,42.325 C 68.607,41.945 67.893,42.04 67.512,42.538 C 67.132,43.036 67.227,43.75 67.725,44.131 Z" fill="#3ebe70" stroke="none" stroke-width="0.067" stroke-linecap="round" marker-start="none" marker-end="none" stroke-miterlimit="79.8403193612775"/>
     <path d="M 81.976,47.861 C 82.474,48.241 83.188,48.146 83.569,47.648 C 83.949,47.15 83.854,46.436 83.356,46.055 C 82.858,45.675 82.144,45.77 81.763,46.268 C 81.383,46.766 81.478,47.48 81.976,47.861 Z" fill="#3ebe70" stroke="none" stroke-width="0.067" stroke-linecap="round" marker-start="none" marker-end="none" stroke-miterlimit="79.8403193612775"/>
     <path d="M 96.375,54.554 C 96.873,54.934 97.587,54.839 97.968,54.341 C 98.348,53.843 98.253,53.129 97.755,52.748 C 97.257,52.368 96.543,52.463 96.162,52.961 C 95.782,53.459 95.877,54.173 96.375,54.554 Z" fill="#3ebe70" stroke="none" stroke-width="0.067" stroke-linecap="round" marker-start="none" marker-end="none" stroke-miterlimit="79.8403193612775"/>
     <path d="M 125.296,68.325 C 125.794,68.705 126.508,68.61 126.889,68.112 C 127.269,67.614 127.174,66.9 126.676,66.519 C 126.178,66.139 125.464,66.234 125.083,66.732 C 124.703,67.23 124.798,67.944 125.296,68.325 Z" fill="#3ebe70" stroke="none" stroke-width="0.067" stroke-linecap="round" marker-start="none" marker-end="none" stroke-miterlimit="79.8403193612775"/>
     <path d="M 139.695,69.32 C 140.193,69.7 140.907,69.605 141.288,69.107 C 141.668,68.609 141.573,67.895 141.075,67.514 C 140.577,67.134 139.863,67.229 139.482,67.727 C 139.102,68.225 139.197,68.939 139.695,69.32 Z" fill="#3ebe70" stroke="none" stroke-width="0.067" stroke-linecap="round" marker-start="none" marker-end="none" stroke-miterlimit="79.8403193612775"/>
     <path d="M 168.496,79.237 C 168.994,79.617 169.708,79.522 170.089,79.024 C 170.469,78.526 170.374,77.812 169.876,77.431 C 169.378,77.051 168.664,77.146 168.283,77.644 C 167.903,78.142 167.998,78.856 168.496,79.237 Z" fill="#3ebe70" stroke="none" stroke-width="0.067" stroke-linecap="round" marker-start="none" marker-end="none" stroke-miterlimit="79.8403193612775"/>
     <path d="M 182.956,84.267 C 183.454,84.647 184.168,84.552 184.549,84.054 C 184.929,83.556 184.834,82.842 184.336,82.461 C 183.838,82.081 183.124,82.176 182.743,82.674 C 182.363,83.172 182.458,83.886 182.956,84.267 Z" fill="#3ebe70" stroke="none" stroke-width="0.067" stroke-linecap="round" marker-start="none" marker-end="none" stroke-miterlimit="79.8403193612775"/>
     <path d="M 211.696,94.112 C 212.194,94.492 212.908,94.397 213.289,93.899 C 213.669,93.401 213.574,92.687 213.076,92.306 C 212.578,91.926 211.864,92.021 211.483,92.519 C 211.103,93.017 211.198,93.731 211.696,94.112 Z" fill="#3ebe70" stroke="none" stroke-width="0.067" stroke-linecap="round" marker-start="none" marker-end="none" stroke-miterlimit="79.8403193612775"/>
     <path d="M 226.156,99.067 C 226.654,99.447 227.368,99.352 227.749,98.854 C 228.129,98.356 228.034,97.642 227.536,97.261 C 227.038,96.881 226.324,96.976 225.943,97.474 C 225.563,97.972 225.658,98.686 226.156,99.067 Z" fill="#3ebe70" stroke="none" stroke-width="0.067" stroke-linecap="round" marker-start="none" marker-end="none" stroke-miterlimit="79.8403193612775"/>
     <path d="M 240.436,100.059 C 240.934,100.439 241.648,100.344 242.029,99.846 C 242.409,99.348 242.314,98.634 241.816,98.253 C 241.318,97.873 240.604,97.968 240.223,98.466 C 239.843,98.964 239.938,99.678 240.436,100.059 Z" fill="#3ebe70" stroke="none" stroke-width="0.067" stroke-linecap="round" marker-start="none" marker-end="none" stroke-miterlimit="79.8403193612775"/>
     <path d="M 283.695,103.044 C 284.193,103.424 284.907,103.329 285.288,102.831 C 285.668,102.333 285.573,101.619 285.075,101.238 C 284.577,100.858 283.863,100.953 283.482,101.451 C 283.102,101.949 283.197,102.663 283.695,103.044 Z" fill="#3ebe70" stroke="none" stroke-width="0.067" stroke-linecap="round" marker-start="none" marker-end="none" stroke-miterlimit="79.8403193612775"/>
     <path d="M 312.555,105.092 C 313.053,105.472 313.767,105.377 314.148,104.879 C 314.528,104.381 314.433,103.667 313.935,103.286 C 313.437,102.906 312.723,103.001 312.342,103.499 C 311.962,103.997 312.057,104.711 312.555,105.092 Z" fill="#3ebe70" stroke="none" stroke-width="0.067" stroke-linecap="round" marker-start="none" marker-end="none" stroke-miterlimit="79.8403193612775"/>
     <path d="M 326.897,106.097 C 327.395,106.477 328.109,106.382 328.49,105.884 C 328.87,105.386 328.775,104.672 328.277,104.291 C 327.779,103.911 327.065,104.006 326.684,104.504 C 326.304,105.002 326.399,105.716 326.897,106.097 Z" fill="#3ebe70" stroke="none" stroke-width="0.067" stroke-linecap="round" marker-start="none" marker-end="none" stroke-miterlimit="79.8403193612775"/>
     <path d="M 355.756,110.097 C 356.254,110.477 356.968,110.382 357.349,109.884 C 357.729,109.386 357.634,108.672 357.136,108.291 C 356.638,107.911 355.924,108.006 355.543,108.504 C 355.163,109.002 355.258,109.716 355.756,110.097 Z" fill="#3ebe70" stroke="none" stroke-width="0.067" stroke-linecap="round" marker-start="none" marker-end="none" stroke-miterlimit="79.8403193612775"/>
     <path d="M 370.095,113.275 C 370.593,113.655 371.307,113.56 371.688,113.062 C 372.068,112.564 371.973,111.85 371.475,111.469 C 370.977,111.089 370.263,111.184 369.882,111.682 C 369.502,112.18 369.597,112.894 370.095,113.275 Z" fill="#3ebe70" stroke="none" stroke-width="0.067" stroke-linecap="round" marker-start="none" marker-end="none" stroke-miterlimit="79.8403193612775"/>
     <path d="M 384.555,116.317 C 385.053,116.697 385.767,116.602 386.148,116.104 C 386.528,115.606 386.433,114.892 385.935,114.511 C 385.437,114.131 384.723,114.226 384.342,114.724 C 383.962,115.222 384.057,115.936 384.555,116.317 Z" fill="#3ebe70" stroke="none" stroke-width="0.067" stroke-linecap="round" marker-start="none" marker-end="none" stroke-miterlimit="79.8403193612775"/>
     <path d="M 398.957,119.435 C 399.455,119.815 400.169,119.72 400.55,119.222 C 400.93,118.724 400.835,118.01 400.337,117.629 C 399.839,117.249 399.125,117.344 398.744,117.842 C 398.364,118.34 398.459,119.054 398.957,119.435 Z" fill="#3ebe70" stroke="none" stroke-width="0.067" stroke-linecap="round" marker-start="none" marker-end="none" stroke-miterlimit="79.8403193612775"/>
     <path d="M 413.356,122.4 C 413.854,122.78 414.568,122.685 414.949,122.187 C 415.329,121.689 415.234,120.975 414.736,120.594 C 414.238,120.214 413.524,120.309 413.143,120.807 C 412.763,121.305 412.858,122.019 413.356,122.4 Z" fill="#3ebe70" stroke="none" stroke-width="0.067" stroke-linecap="round" marker-start="none" marker-end="none" stroke-miterlimit="79.8403193612775"/>
     <path d="M 427.695,125.803 C 428.193,126.183 428.907,126.088 429.288,125.59 C 429.668,125.092 429.573,124.378 429.075,123.997 C 428.577,123.617 427.863,123.712 427.482,124.21 C 427.102,124.708 427.197,125.422 427.695,125.803 Z" fill="#3ebe70" stroke="none" stroke-width="0.067" stroke-linecap="round" marker-start="none" marker-end="none" stroke-miterlimit="79.8403193612775"/>
     <path d="M 442.013,144.436 C 442.61,144.893 443.465,144.779 443.921,144.182 C 444.378,143.585 444.264,142.73 443.667,142.274 C 443.07,141.817 442.215,141.931 441.759,142.528 C 441.302,143.125 441.416,143.98 442.013,144.436 Z" fill="#3ebe70" stroke="none" stroke-width="0.08" stroke-linecap="round" marker-start="none" marker-end="none" stroke-miterlimit="79.8403193612775"/>
     <path d="M 38.815,36.686 C 39.313,37.066 40.027,36.971 40.408,36.473 C 40.788,35.975 40.693,35.261 40.195,34.88 C 39.697,34.5 38.983,34.595 38.602,35.093 C 38.222,35.591 38.317,36.305 38.815,36.686 Z" fill="#dfcd3e" stroke="none" stroke-width="0.067" stroke-linecap="round" marker-start="none" marker-end="none" stroke-miterlimit="79.8403193612775"/>
     <path d="M 53.229,38.746 C 53.727,39.126 54.441,39.031 54.822,38.533 C 55.202,38.035 55.107,37.321 54.609,36.94 C 54.111,36.56 53.397,36.655 53.016,37.153 C 52.636,37.651 52.731,38.365 53.229,38.746 Z" fill="#dfcd3e" stroke="none" stroke-width="0.067" stroke-linecap="round" marker-start="none" marker-end="none" stroke-miterlimit="79.8403193612775"/>
     <path d="M 67.667,41.02 C 68.165,41.4 68.879,41.305 69.26,40.807 C 69.64,40.309 69.545,39.595 69.047,39.214 C 68.549,38.834 67.835,38.929 67.454,39.427 C 67.074,39.925 67.169,40.639 67.667,41.02 Z" fill="#dfcd3e" stroke="none" stroke-width="0.067" stroke-linecap="round" marker-start="none" marker-end="none" stroke-miterlimit="79.8403193612775"/>
     <path d="M 82.034,43.293 C 82.532,43.673 83.246,43.578 83.627,43.08 C 84.007,42.582 83.912,41.868 83.414,41.487 C 82.916,41.107 82.202,41.202 81.821,41.7 C 81.441,42.198 81.536,42.912 82.034,43.293 Z" fill="#dfcd3e" stroke="none" stroke-width="0.067" stroke-linecap="round" marker-start="none" marker-end="none" stroke-miterlimit="79.8403193612775"/>
     <path d="M 96.494,48.828 C 96.992,49.208 97.706,49.113 98.087,48.615 C 98.467,48.117 98.372,47.403 97.874,47.022 C 97.376,46.642 96.662,46.737 96.281,47.235 C 95.901,47.733 95.996,48.447 96.494,48.828 Z" fill="#dfcd3e" stroke="none" stroke-width="0.067" stroke-linecap="round" marker-start="none" marker-end="none" stroke-miterlimit="79.8403193612775"/>
     <path d="M 111.014,54.547 C 111.512,54.927 112.226,54.832 112.607,54.334 C 112.987,53.836 112.892,53.122 112.394,52.741 C 111.896,52.361 111.182,52.456 110.801,52.954 C 110.421,53.452 110.516,54.166 111.014,54.547 Z" fill="#dfcd3e" stroke="none" stroke-width="0.067" stroke-linecap="round" marker-start="none" marker-end="none" stroke-miterlimit="79.8403193612775"/>
     <path d="M 125.295,63.609 C 125.793,63.989 126.507,63.894 126.888,63.396 C 127.268,62.898 127.173,62.184 126.675,61.803 C 126.177,61.423 125.463,61.518 125.082,62.016 C 124.702,62.514 124.797,63.228 125.295,63.609 Z" fill="#dfcd3e" stroke="none" stroke-width="0.067" stroke-linecap="round" marker-start="none" marker-end="none" stroke-miterlimit="79.8403193612775"/>
     <path d="M 139.695,73 C 140.193,73.38 140.907,73.285 141.288,72.787 C 141.668,72.289 141.573,71.575 141.075,71.194 C 140.577,70.814 139.863,70.909 139.482,71.407 C 139.102,71.905 139.197,72.619 139.695,73 Z" fill="#dfcd3e" stroke="none" stroke-width="0.067" stroke-linecap="round" marker-start="none" marker-end="none" stroke-miterlimit="79.8403193612775"/>
     <path d="M 154.154,75.57 C 154.652,75.95 155.366,75.855 155.747,75.357 C 156.127,74.859 156.032,74.145 155.534,73.764 C 155.036,73.384 154.322,73.479 153.941,73.977 C 153.561,74.475 153.656,75.189 154.154,75.57 Z" fill="#dfcd3e" stroke="none" stroke-width="0.067" stroke-linecap="round" marker-start="none" marker-end="none" stroke-miterlimit="79.8403193612775"/>
     <path d="M 168.615,77.958 C 169.113,78.338 169.827,78.243 170.208,77.745 C 170.588,77.247 170.493,76.533 169.995,76.152 C 169.497,75.772 168.783,75.867 168.402,76.365 C 168.022,76.863 168.117,77.577 168.615,77.958 Z" fill="#dfcd3e" stroke="none" stroke-width="0.067" stroke-linecap="round" marker-start="none" marker-end="none" stroke-miterlimit="79.8403193612775"/>
     <path d="M 182.894,80.361 C 183.392,80.741 184.106,80.646 184.487,80.148 C 184.867,79.65 184.772,78.936 184.274,78.555 C 183.776,78.175 183.062,78.27 182.681,78.768 C 182.301,79.266 182.396,79.98 182.894,80.361 Z" fill="#dfcd3e" stroke="none" stroke-width="0.067" stroke-linecap="round" marker-start="none" marker-end="none" stroke-miterlimit="79.8403193612775"/>
     <path d="M 197.475,85.244 C 197.973,85.624 198.687,85.529 199.068,85.031 C 199.448,84.533 199.353,83.819 198.855,83.438 C 198.357,83.058 197.643,83.153 197.262,83.651 C 196.882,84.149 196.977,84.863 197.475,85.244 Z" fill="#dfcd3e" stroke="none" stroke-width="0.067" stroke-linecap="round" marker-start="none" marker-end="none" stroke-miterlimit="79.8403193612775"/>
     <path d="M 211.695,90.01 C 212.193,90.39 212.907,90.295 213.288,89.797 C 213.668,89.299 213.573,88.585 213.075,88.204 C 212.577,87.824 211.863,87.919 211.482,88.417 C 211.102,88.915 211.197,89.629 211.695,90.01 Z" fill="#dfcd3e" stroke="none" stroke-width="0.067" stroke-linecap="round" marker-start="none" marker-end="none" stroke-miterlimit="79.8403193612775"/>
     <path d="M 226.154,94.893 C 226.652,95.273 227.366,95.178 227.747,94.68 C 228.127,94.182 228.032,93.468 227.534,93.087 C 227.036,92.707 226.322,92.802 225.941,93.3 C 225.561,93.798 225.656,94.512 226.154,94.893 Z" fill="#dfcd3e" stroke="none" stroke-width="0.067" stroke-linecap="round" marker-start="none" marker-end="none" stroke-miterlimit="79.8403193612775"/>
     <path d="M 240.554,97.233 C 241.052,97.613 241.766,97.518 242.147,97.02 C 242.527,96.522 242.432,95.808 241.934,95.427 C 241.436,95.047 240.722,95.142 240.341,95.64 C 239.961,96.138 240.056,96.852 240.554,97.233 Z" fill="#dfcd3e" stroke="none" stroke-width="0.067" stroke-linecap="round" marker-start="none" marker-end="none" stroke-miterlimit="79.8403193612775"/>
     <path d="M 254.894,99.753 C 255.392,100.133 256.106,100.038 256.487,99.54 C 256.867,99.042 256.772,98.328 256.274,97.947 C 255.776,97.567 255.062,97.662 254.681,98.16 C 254.301,98.658 254.396,99.372 254.894,99.753 Z" fill="#dfcd3e" stroke="none" stroke-width="0.067" stroke-linecap="round" marker-start="none" marker-end="none" stroke-miterlimit="79.8403193612775"/>
     <path d="M 269.234,102.093 C 269.732,102.473 270.446,102.378 270.827,101.88 C 271.207,101.382 271.112,100.668 270.614,100.287 C 270.116,99.907 269.402,100.002 269.021,100.5 C 268.641,100.998 268.736,101.712 269.234,102.093 Z" fill="#dfcd3e" stroke="none" stroke-width="0.067" stroke-linecap="round" marker-start="none" marker-end="none" stroke-miterlimit="79.8403193612775"/>
     <path d="M 283.694,104.493 C 284.192,104.873 284.906,104.778 285.287,104.28 C 285.667,103.782 285.572,103.068 285.074,102.687 C 284.576,102.307 283.862,102.402 283.481,102.9 C 283.101,103.398 283.196,104.112 283.694,104.493 Z" fill="#dfcd3e" stroke="none" stroke-width="0.067" stroke-linecap="round" marker-start="none" marker-end="none" stroke-miterlimit="79.8403193612775"/>
     <path d="M 312.494,108.573 C 312.992,108.953 313.706,108.858 314.087,108.36 C 314.467,107.862 314.372,107.148 313.874,106.767 C 313.376,106.387 312.662,106.482 312.281,106.98 C 311.901,107.478 311.996,108.192 312.494,108.573 Z" fill="#dfcd3e" stroke="none" stroke-width="0.067" stroke-linecap="round" marker-start="none" marker-end="none" stroke-miterlimit="79.8403193612775"/>
     <path d="M 326.894,110.733 C 327.392,111.113 328.106,111.018 328.487,110.52 C 328.867,110.022 328.772,109.308 328.274,108.927 C 327.776,108.547 327.062,108.642 326.681,109.14 C 326.301,109.638 326.396,110.352 326.894,110.733 Z" fill="#dfcd3e" stroke="none" stroke-width="0.067" stroke-linecap="round" marker-start="none" marker-end="none" stroke-miterlimit="79.8403193612775"/>
     <path d="M 341.474,112.593 C 341.972,112.973 342.686,112.878 343.067,112.38 C 343.447,111.882 343.352,111.168 342.854,110.787 C 342.356,110.407 341.642,110.502 341.261,111 C 340.881,111.498 340.976,112.212 341.474,112.593 Z" fill="#dfcd3e" stroke="none" stroke-width="0.067" stroke-linecap="round" marker-start="none" marker-end="none" stroke-miterlimit="79.8403193612775"/>
     <path d="M 355.694,114.693 C 356.192,115.073 356.906,114.978 357.287,114.48 C 357.667,113.982 357.572,113.268 357.074,112.887 C 356.576,112.507 355.862,112.602 355.481,113.1 C 355.101,113.598 355.196,114.312 355.694,114.693 Z" fill="#dfcd3e" stroke="none" stroke-width="0.067" stroke-linecap="round" marker-start="none" marker-end="none" stroke-miterlimit="79.8403193612775"/>
     <path d="M 370.094,116.673 C 370.592,117.053 371.306,116.958 371.687,116.46 C 372.067,115.962 371.972,115.248 371.474,114.867 C 370.976,114.487 370.262,114.582 369.881,115.08 C 369.501,115.578 369.596,116.292 370.094,116.673 Z" fill="#dfcd3e" stroke="none" stroke-width="0.067" stroke-linecap="round" marker-start="none" marker-end="none" stroke-miterlimit="79.8403193612775"/>
     <path d="M 384.614,118.653 C 385.112,119.033 385.826,118.938 386.207,118.44 C 386.587,117.942 386.492,117.228 385.994,116.847 C 385.496,116.467 384.782,116.562 384.401,117.06 C 384.021,117.558 384.116,118.272 384.614,118.653 Z" fill="#dfcd3e" stroke="none" stroke-width="0.067" stroke-linecap="round" marker-start="none" marker-end="none" stroke-miterlimit="79.8403193612775"/>
     <path d="M 398.894,122.793 C 399.392,123.173 400.106,123.078 400.487,122.58 C 400.867,122.082 400.772,121.368 400.274,120.987 C 399.776,120.607 399.062,120.702 398.681,121.2 C 398.301,121.698 398.396,122.412 398.894,122.793 Z" fill="#dfcd3e" stroke="none" stroke-width="0.067" stroke-linecap="round" marker-start="none" marker-end="none" stroke-miterlimit="79.8403193612775"/>
     <path d="M 413.354,126.753 C 413.852,127.133 414.566,127.038 414.947,126.54 C 415.327,126.042 415.232,125.328 414.734,124.947 C 414.236,124.567 413.522,124.662 413.141,125.16 C 412.761,125.658 412.856,126.372 413.354,126.753 Z" fill="#dfcd3e" stroke="none" stroke-width="0.067" stroke-linecap="round" marker-start="none" marker-end="none" stroke-miterlimit="79.8403193612775"/>
     <path d="M 427.694,130.893 C 428.192,131.273 428.906,131.178 429.287,130.68 C 429.667,130.182 429.572,129.468 429.074,129.087 C 428.576,128.707 427.862,128.802 427.481,129.3 C 427.101,129.798 427.196,130.512 427.694,130.893 Z" fill="#dfcd3e" stroke="none" stroke-width="0.067" stroke-linecap="round" marker-start="none" marker-end="none" stroke-miterlimit="79.8403193612775"/>
     <path d="M 442.273,139.953 C 442.771,140.333 443.485,140.238 443.866,139.74 C 444.246,139.242 444.151,138.528 443.653,138.147 C 443.155,137.767 442.441,137.862 442.06,138.36 C 441.68,138.858 441.775,139.572 442.273,139.953 Z" fill="#dfcd3e" stroke="none" stroke-width="0.067" stroke-linecap="round" marker-start="none" marker-end="none" stroke-miterlimit="79.8403193612775"/>
     <path d="M 298.166,106.667 C 298.642,107.031 299.325,106.94 299.689,106.464 C 300.053,105.988 299.962,105.305 299.486,104.941 C 299.01,104.577 298.327,104.668 297.963,105.144 C 297.599,105.62 297.69,106.303 298.166,106.667 Z" fill="#dfcd3e" stroke-width="0.061" stroke="none" stroke-linecap="round" marker-start="none" marker-end="none" stroke-miterlimit="79.8403193612775"/>
     <path d="M 298.167,104.022 C 298.643,104.386 299.326,104.295 299.69,103.819 C 300.054,103.343 299.963,102.66 299.487,102.296 C 299.011,101.932 298.328,102.023 297.964,102.499 C 297.6,102.975 297.691,103.658 298.167,104.022 Z" fill="#3ebe70" stroke-width="0.061" stroke="none" stroke-linecap="round" marker-start="none" marker-end="none" stroke-miterlimit="79.8403193612775"/>
    </g>
   </g>
  </g>
 </g>
</svg>
