<?xml version="1.0" standalone="no"?>
<!DOCTYPE svg PUBLIC "-//W3C//DTD SVG 1.1//EN" "http://www.w3.org/Graphics/SVG/1.1/DTD/svg11.dtd">
<!--Generator: Xara Designer (www.xara.com), SVG filter version: 5.0.0.2-->
<svg stroke-width="0.501" stroke-linejoin="bevel" fill-rule="evenodd" xmlns:xlink="http://www.w3.org/1999/xlink" xmlns="http://www.w3.org/2000/svg" version="1.1" overflow="visible" width="459.378pt" height="205.528pt" viewBox="0 0 459.378 205.528">
 <defs>
  <marker id="DefaultArrow2" markerUnits="strokeWidth" viewBox="0 0 1 1" markerWidth="1" markerHeight="1" overflow="visible" orient="auto">
   <!-- REF_ARROW_STRAIGHT (-2) -->
   <g transform="scale(0.0092592592)">
    <!-- 1/108 -->
    <path d="M -9 54 L -9 -54 L 117 0 z"/>
   </g>
  </marker>
  <marker id="DefaultArrow3" markerUnits="strokeWidth" viewBox="0 0 1 1" markerWidth="1" markerHeight="1" overflow="visible" orient="auto">
   <!-- REF_ARROW_ANGLED -->
   <g transform="scale(0.0092592592)">
    <path d="M -27 54 L -9 0 L -27 -54 L 135 0 z"/>
   </g>
  </marker>
  <marker id="DefaultArrow4" markerUnits="strokeWidth" viewBox="0 0 1 1" markerWidth="1" markerHeight="1" overflow="visible" orient="auto">
   <!-- REF_ARROW_ROUNDED -->
   <g transform="scale(0.0092592592)">
    <path d="M -9,0 L -9,-45 C -9,-51.708 2.808,-56.580 9,-54 L 117,-9 C 120.916,-7.369 126.000,-4.242 126,0 C 126,4.242 120.916,7.369 117,9 L 9,54 C 2.808,56.580 -9,51.708 -9,45 z"/>
   </g>
  </marker>
  <marker id="DefaultArrow5" markerUnits="strokeWidth" viewBox="0 0 1 1" markerWidth="1" markerHeight="1" overflow="visible" orient="auto">
   <!-- REF_ARROW_SPOT -->
   <g transform="scale(0.0092592592)">
    <path d="M -54, 0 C -54,29.807 -29.807,54 0,54 C 29.807,54 54,29.807 54,0 C 54,-29.807 29.807,-54 0,-54 C -29.807,-54 -54,-29.807 -54,0 z"/>
   </g>
  </marker>
  <marker id="DefaultArrow6" markerUnits="strokeWidth" viewBox="0 0 1 1" markerWidth="1" markerHeight="1" overflow="visible" orient="auto">
   <!-- REF_ARROW_DIAMOND -->
   <g transform="scale(0.0092592592)">
    <path d="M -63,0 L 0,63 L 63,0 L 0,-63 z"/>
   </g>
  </marker>
  <marker id="DefaultArrow7" markerUnits="strokeWidth" viewBox="0 0 1 1" markerWidth="1" markerHeight="1" overflow="visible" orient="auto">
   <!-- REF_ARROW_FEATHER -->
   <g transform="scale(0.0092592592)">
    <path d="M 18,-54 L 108,-54 L 63,0 L 108,54 L 18, 54 L -36,0 z"/>
   </g>
  </marker>
  <marker id="DefaultArrow8" markerUnits="strokeWidth" viewBox="0 0 1 1" markerWidth="1" markerHeight="1" overflow="visible" orient="auto">
   <!-- REF_ARROW_FEATHER2 -->
   <g transform="scale(0.0092592592)">
    <path d="M -36,0 L 18,-54 L 54,-54 L 18,-18 L 27,-18 L 63,-54 L 99,-54 L 63,-18 L 72,-18 L 108,-54 L 144,-54 L 90,0 L 144,54 L 108,54 L 72,18 L 63,18 L 99,54 L 63,54 L 27,18 L 18,18 L 54,54 L 18,54 z"/>
   </g>
  </marker>
  <marker id="DefaultArrow9" markerUnits="strokeWidth" viewBox="0 0 1 1" markerWidth="1" markerHeight="1" overflow="visible" orient="auto">
   <!-- REF_ARROW_HOLLOWDIAMOND -->
   <g transform="scale(0.0092592592)">
    <path d="M 0,45 L -45,0 L 0, -45 L 45, 0 z M 0, 63 L-63, 0 L 0, -63 L 63, 0 z"/>
   </g>
  </marker>
  <filter id="StainedFilter">
   <feBlend mode="multiply" in2="BackgroundImage" in="SourceGraphic" result="blend"/>
   <feComposite in="blend" in2="SourceAlpha" operator="in" result="comp"/>
  </filter>
  <filter id="BleachFilter">
   <feBlend mode="screen" in2="BackgroundImage" in="SourceGraphic" result="blend"/>
   <feComposite in="blend" in2="SourceAlpha" operator="in" result="comp"/>
  </filter>
  <filter id="InvertTransparencyBitmapFilter">
   <feComponentTransfer>
    <feFuncR type="gamma" amplitude="1.055" exponent=".416666666" offset="-0.055"/>
    <feFuncG type="gamma" amplitude="1.055" exponent=".416666666" offset="-0.055"/>
    <feFuncB type="gamma" amplitude="1.055" exponent=".416666666" offset="-0.055"/>
   </feComponentTransfer>
   <feComponentTransfer>
    <feFuncR type="linear" slope="-1" intercept="1"/>
    <feFuncG type="linear" slope="-1" intercept="1"/>
    <feFuncB type="linear" slope="-1" intercept="1"/>
    <feFuncA type="linear" slope="1" intercept="0"/>
   </feComponentTransfer>
   <feComponentTransfer>
    <feFuncR type="gamma" amplitude="1" exponent="2.4" offset="0"/>
    <feFuncG type="gamma" amplitude="1" exponent="2.4" offset="0"/>
    <feFuncB type="gamma" amplitude="1" exponent="2.4" offset="0"/>
   </feComponentTransfer>
  </filter>
  <linearGradient id="LinearGradient" gradientUnits="userSpaceOnUse" x1="0" y1="0" x2="21.74" y2="0" gradientTransform="translate(150.488 182.995) rotate(92.3172) skewX(1.36987)">
   <stop offset="0" stop-color="#e5e5e5"/>
   <stop offset="1" stop-color="#ffffff"/>
  </linearGradient>
  <linearGradient id="LinearGradient_1" gradientUnits="userSpaceOnUse" x1="0" y1="0" x2="21.74" y2="0" gradientTransform="translate(150.488 182.995) rotate(92.3172) skewX(1.36987)">
   <stop offset="0" stop-color="#e5e5e5"/>
   <stop offset="1" stop-color="#ffffff"/>
  </linearGradient>
 </defs>
 <g id="Document" fill="none" stroke="black" font-family="Times New Roman" font-size="16" transform="scale(1 -1)">
  <g id="Spread" transform="translate(0 -205.528)">
   <g id="Layer 1">
    <path d="M 459.188,205.326 L 0.182,205.326" fill="none" stroke="#4c4c4c" stroke-linecap="square" stroke-linejoin="round" stroke-width="0.375" stroke-miterlimit="79.8403193612775"/>
    <path d="M -0.006,205.094 L -0.006,187.499 L 459.373,187.499 L 459.373,205.094 L -0.006,205.094 Z" stroke="none" stroke-linecap="round" stroke-width="0.75" stroke-linejoin="miter" marker-start="none" marker-end="none" stroke-miterlimit="79.8403193612775" fill="url(#LinearGradient)"/>
    <path d="M 459.194,187.411 L 0.181,187.411" fill="none" stroke="#4c4c4c" stroke-linecap="square" stroke-linejoin="round" stroke-width="0.375" stroke-miterlimit="79.8403193612775"/>
    <path d="M 12.159,193.154 C 10.72,192.362 8.91,192.888 8.119,194.326 C 7.327,195.765 7.853,197.575 9.291,198.366 C 10.73,199.158 12.54,198.632 13.331,197.194 C 14.123,195.755 13.597,193.945 12.159,193.154 Z" fill="#89c7ff" stroke-linecap="round" stroke-width="0.174" stroke="#4c4c4c" stroke-linejoin="miter" marker-start="none" marker-end="none" stroke-miterlimit="79.8403193612775"/>
    <path d="M 48.245,41.668 C 46.261,43.475 44.391,45.361 42.633,47.315 L 42.638,47.319 L 42.632,47.315 C 15.883,77.084 15.53,122.918 43.053,153.129 C 53.525,164.625 66.626,172.313 80.608,176.111 C 83.536,176.906 86.504,177.531 89.494,177.985 L 101.429,100.056 L 101.428,178.883 L 101.429,178.883 L 101.429,100.056 L 121.695,23.821 L 121.711,23.759 C 96.651,17.106 68.824,22.92 48.245,41.668 Z" fill="#74cf98" stroke-width="1.5" stroke="#ffffff" marker-start="none" marker-end="none" stroke-miterlimit="79.8403193612775"/>
    <path d="M 101.429,100.056 L 168.307,141.808 C 175.066,130.994 178.981,118.85 180,106.487 L 101.429,100.056 Z" fill="#dfcd3e" stroke-width="1.5" stroke="#ffffff" marker-start="none" marker-end="none" stroke-miterlimit="79.8403193612775"/>
    <path d="M 101.429,100.056 L 101.429,178.883 C 120.234,178.877 139.095,172.194 154.145,158.654 C 154.268,158.544 154.391,158.432 154.514,158.322 C 159.974,153.347 164.575,147.781 168.307,141.809 L 101.429,100.056 Z" fill="#89c7ff" stroke-width="1.5" stroke="#ffffff" marker-start="none" marker-end="none" stroke-miterlimit="79.8403193612775"/>
    <path d="M 101.429,100.056 L 101.411,100.168 L 101.393,100.223 L 69.497,172.227 C 73.134,173.832 76.888,175.162 80.723,176.205 C 80.74,176.209 80.76,176.214 80.779,176.219 L 80.787,176.189 C 83.678,176.97 86.612,177.587 89.573,178.037 C 89.591,178.039 89.611,178.042 89.63,178.045 L 89.635,178.006 C 93.52,178.588 97.443,178.881 101.37,178.883 L 101.428,178.883 L 101.428,100.12 L 101.431,100.107 L 101.428,100.113 L 101.429,100.056 Z M 89.636,178.003 L 89.635,178.006 L 89.636,178.003 Z" fill="#970303" stroke-width="1.5" stroke="#ffffff" marker-start="none" marker-end="none" stroke-miterlimit="79.8403193612775"/>
    <path d="M 95.641,21.402 C 92.172,21.638 88.703,22.102 85.255,22.806 L 85.264,22.849 L 101.094,100.097 L 106.265,84.639 L 102.015,100.627 L 173.248,66.806 L 173.287,66.787 C 173.07,66.328 172.848,65.871 172.622,65.416 C 171.937,64.039 171.208,62.679 170.438,61.334 C 167.629,56.439 164.248,51.773 160.293,47.431 C 150.656,36.853 138.796,29.499 126.071,25.433 L 126.104,25.336 C 116.368,22.075 106.013,20.703 95.641,21.402 Z" fill="#b46bd1" stroke="#ffffff" stroke-width="1.5" marker-start="none" marker-end="none" stroke-miterlimit="79.8403193612775"/>
    <path d="M 172.701,66.216 L 172.662,66.235 L 101.429,100.056 L 101.533,100.064 L 101.431,100.098 L 178.57,116.359 C 179.257,113.103 179.74,109.806 180.015,106.488 L 179.992,106.486 L 180,106.487 C 180.006,106.412 180.012,106.338 180.013,106.246 C 180.104,105.381 180.159,104.512 180.206,102.918 C 180.218,102.769 180.223,102.62 180.224,102.46 C 180.274,101.568 180.287,100.673 180.257,99.008 C 180.26,98.89 180.258,98.773 180.253,98.648 C 180.26,97.74 180.23,96.831 180.116,95.142 C 180.114,95.032 180.107,94.923 180.096,94.805 C 180.06,93.899 179.985,92.993 179.792,91.335 C 179.783,91.206 179.768,91.077 179.748,90.933 C 179.669,90.046 179.552,89.161 179.29,87.597 C 179.271,87.428 179.244,87.261 179.201,87.033 C 179.146,86.569 179.066,86.108 178.981,85.647 C 178.925,85.345 178.867,85.044 178.711,84.416 C 178.57,83.622 178.399,82.832 178.161,81.913 C 178.049,81.288 177.896,80.67 177.712,80.028 C 177.365,78.666 176.973,77.312 176.545,75.967 C 176.542,75.96 176.54,75.953 176.472,75.762 C 176.451,75.67 176.422,75.58 176.393,75.49 L 176.391,75.49 C 175.364,72.341 174.135,69.243 172.701,66.216 Z" fill="#ed7d31" stroke-width="1.5" stroke="#ffffff" marker-start="none" marker-end="none" stroke-miterlimit="79.8403193612775"/>
    <path d="M 72.419,126.376 C 86.982,142.361 111.775,143.516 127.761,128.954 C 143.746,114.391 144.901,89.598 130.339,73.612 C 115.776,57.627 90.983,56.472 74.997,71.034 C 59.012,85.597 57.857,110.39 72.419,126.376 Z" fill="#ffffff" stroke="none" stroke-width="0.068" marker-start="none" marker-end="none" stroke-miterlimit="79.8403193612775"/>
    <path d="M 151.089,142.057 L 295.964,142.139" fill="none" stroke="#666666" stroke-width="0.75" stroke-linejoin="round" stroke-linecap="round" stroke-miterlimit="79.8403193612775"/>
    <text xml:space="preserve" transform="translate(17.232 193.647) scale(1 -1)" font-family="Arial" fill="#333333" stroke-width="0.27" stroke-linejoin="round" font-size="6" stroke-linecap="round" stroke="none" stroke-miterlimit="79.8403193612775"><tspan x="0" y="0">Новые</tspan></text>
    <path d="M 86.137,193.154 C 84.698,192.362 82.888,192.888 82.097,194.326 C 81.305,195.765 81.831,197.575 83.269,198.366 C 84.708,199.158 86.518,198.632 87.309,197.194 C 88.101,195.755 87.575,193.945 86.137,193.154 Z" fill="#dfcd3e" stroke-linecap="round" stroke-width="0.174" stroke="#4c4c4c" stroke-linejoin="miter" marker-start="none" marker-end="none" stroke-miterlimit="79.8403193612775"/>
    <text xml:space="preserve" transform="translate(91.21 193.647) scale(1 -1)" font-family="Arial" fill="#333333" stroke-width="0.27" stroke-linejoin="round" font-size="6" stroke-linecap="round" stroke="none" stroke-miterlimit="79.8403193612775"><tspan x="0" y="0">Обрабо</tspan><tspan x="21.421" y="0">тк</tspan><tspan x="26.926" y="0">а</tspan></text>
    <path d="M 171.449,193.154 C 170.01,192.362 168.2,192.888 167.409,194.326 C 166.617,195.765 167.143,197.575 168.581,198.366 C 170.02,199.158 171.83,198.632 172.621,197.194 C 173.413,195.755 172.887,193.945 171.449,193.154 Z" fill="#ed7d31" stroke-linecap="round" stroke-width="0.174" stroke="#4c4c4c" stroke-linejoin="miter" marker-start="none" marker-end="none" stroke-miterlimit="79.8403193612775"/>
    <text xml:space="preserve" transform="translate(176.522 193.647) scale(1 -1)" font-family="Arial" fill="#333333" stroke-width="0.27" stroke-linejoin="round" font-size="6" stroke-linecap="round" stroke="none" stroke-miterlimit="79.8403193612775"><tspan x="0" y="0">Сог</tspan><tspan x="9.728" y="0">лас</tspan><tspan x="19.633" y="0">ов</tspan><tspan x="26.092" y="0">ание</tspan></text>
    <path d="M 344.009,193.154 C 342.57,192.362 340.76,192.888 339.969,194.326 C 339.177,195.765 339.703,197.575 341.141,198.366 C 342.58,199.158 344.39,198.632 345.181,197.194 C 345.973,195.755 345.447,193.945 344.009,193.154 Z" fill="#74cf98" stroke-linecap="round" stroke-width="0.174" stroke="#4c4c4c" stroke-linejoin="miter" marker-start="none" marker-end="none" stroke-miterlimit="79.8403193612775"/>
    <text xml:space="preserve" transform="translate(349.082 193.647) scale(1 -1)" font-family="Arial" fill="#333333" stroke-width="0.27" stroke-linejoin="round" font-size="6" stroke-linecap="round" stroke="none" stroke-miterlimit="79.8403193612775"><tspan x="0" y="0">Выпо</tspan><tspan x="14.77" y="0">лнено</tspan></text>
    <path d="M 415.738,193.154 C 414.299,192.362 412.489,192.888 411.698,194.326 C 410.906,195.765 411.432,197.575 412.87,198.366 C 414.309,199.158 416.119,198.632 416.91,197.194 C 417.702,195.755 417.176,193.945 415.738,193.154 Z" fill="#970303" stroke-linecap="round" stroke-width="0.174" stroke="#4c4c4c" stroke-linejoin="miter" marker-start="none" marker-end="none" stroke-miterlimit="79.8403193612775"/>
    <text xml:space="preserve" transform="translate(420.811 193.647) scale(1 -1)" font-family="Arial" fill="#333333" stroke-width="0.27" stroke-linejoin="round" font-size="6" stroke-linecap="round" stroke="none" stroke-miterlimit="79.8403193612775"><tspan x="0" y="0">Отк</tspan><tspan x="10.107" y="0">л</tspan><tspan x="13.675" y="0">онено</tspan></text>
    <path d="M 152.407,140.453 C 151.499,139.954 150.357,140.286 149.857,141.193 C 149.358,142.101 149.69,143.243 150.597,143.743 C 151.505,144.242 152.647,143.91 153.147,143.003 C 153.646,142.095 153.314,140.953 152.407,140.453 Z" stroke="none" fill="#666666" stroke-linecap="round" stroke-width="0.11" stroke-linejoin="miter" marker-start="none" marker-end="none" stroke-miterlimit="79.8403193612775"/>
    <text xml:space="preserve" transform="translate(300.732 139.366) scale(1 -1)" font-family="Arial" font-size="8" fill="#333333" stroke-width="0.27" stroke-linejoin="round" stroke-linecap="round" stroke="none" stroke-miterlimit="79.8403193612775"><tspan x="0" y="0">Новые</tspan></text>
    <text xml:space="preserve" transform="translate(327.752 139.366) scale(1 -1)" font-family="Arial" font-size="8" fill="#333333" stroke-width="0.27" stroke-linejoin="round" stroke-linecap="round" stroke="none" stroke-miterlimit="79.8403193612775"><tspan x="0" y="0">16%</tspan></text>
    <path d="M 98.143,165.637 L 295.96,165.719" fill="none" stroke="#666666" stroke-width="0.75" stroke-linejoin="round" stroke-linecap="round" stroke-miterlimit="79.8403193612775"/>
    <path d="M 97.687,164.032 C 96.779,163.533 95.637,163.865 95.137,164.772 C 94.638,165.68 94.97,166.822 95.877,167.322 C 96.785,167.821 97.927,167.489 98.427,166.582 C 98.926,165.674 98.594,164.532 97.687,164.032 Z" stroke="none" fill="#666666" stroke-linecap="round" stroke-width="0.11" stroke-linejoin="miter" marker-start="none" marker-end="none" stroke-miterlimit="79.8403193612775"/>
    <text xml:space="preserve" transform="translate(300.732 162.946) scale(1 -1)" font-family="Arial" font-size="8" fill="#333333" stroke-width="0.27" stroke-linejoin="round" stroke-linecap="round" stroke="none" stroke-miterlimit="79.8403193612775"><tspan x="0" y="0">Отк</tspan><tspan x="13.477" y="0">л</tspan><tspan x="18.235" y="0">онено</tspan></text>
    <text xml:space="preserve" transform="translate(343.753 162.946) scale(1 -1)" font-family="Arial" font-size="8" fill="#333333" stroke-width="0.27" stroke-linejoin="round" stroke-linecap="round" stroke="none" stroke-miterlimit="79.8403193612775"><tspan x="0" y="0">5%</tspan></text>
    <path d="M 164.378,120.41 L 295.96,120.492" fill="none" stroke="#666666" stroke-width="0.75" stroke-linejoin="round" stroke-linecap="round" stroke-miterlimit="79.8403193612775"/>
    <path d="M 163.802,118.806 C 162.894,118.307 161.752,118.639 161.252,119.546 C 160.753,120.454 161.085,121.596 161.992,122.096 C 162.9,122.595 164.042,122.263 164.542,121.356 C 165.041,120.448 164.709,119.306 163.802,118.806 Z" stroke="none" fill="#666666" stroke-linecap="round" stroke-width="0.11" stroke-linejoin="miter" marker-start="none" marker-end="none" stroke-miterlimit="79.8403193612775"/>
    <text xml:space="preserve" transform="translate(300.732 117.719) scale(1 -1)" font-family="Arial" font-size="8" fill="#333333" stroke-width="0.27" stroke-linejoin="round" stroke-linecap="round" stroke="none" stroke-miterlimit="79.8403193612775"><tspan x="0" y="0">Обрабо</tspan><tspan x="28.559" y="0">тк</tspan><tspan x="35.899" y="0">а 6%</tspan></text>
    <path d="M 166.622,90.133 L 295.966,90.215" fill="none" stroke="#666666" stroke-width="0.75" stroke-linejoin="round" stroke-linecap="round" stroke-miterlimit="79.8403193612775"/>
    <path d="M 166.303,88.529 C 165.395,88.03 164.253,88.362 163.753,89.269 C 163.254,90.177 163.586,91.319 164.493,91.819 C 165.401,92.318 166.543,91.986 167.043,91.079 C 167.542,90.171 167.21,89.029 166.303,88.529 Z" stroke="none" fill="#666666" stroke-linecap="round" stroke-width="0.11" stroke-linejoin="miter" marker-start="none" marker-end="none" stroke-miterlimit="79.8403193612775"/>
    <text xml:space="preserve" transform="translate(300.732 87.442) scale(1 -1)" font-family="Arial" font-size="8" fill="#333333" stroke-width="0.27" stroke-linejoin="round" stroke-linecap="round" stroke="none" stroke-miterlimit="79.8403193612775"><tspan x="0" y="0">Сог</tspan><tspan x="12.969" y="0">лас</tspan><tspan x="26.176" y="0">ов</tspan><tspan x="34.786" y="0">ание 10%</tspan></text>
    <path d="M 157.441,61.578 L 295.96,61.66" fill="none" stroke="#666666" stroke-width="0.75" stroke-linejoin="round" stroke-linecap="round" stroke-miterlimit="79.8403193612775"/>
    <path d="M 157.029,59.973 C 156.121,59.474 154.979,59.806 154.479,60.713 C 153.98,61.621 154.312,62.763 155.219,63.263 C 156.127,63.762 157.269,63.43 157.769,62.523 C 158.268,61.615 157.936,60.473 157.029,59.973 Z" stroke="none" fill="#666666" stroke-linecap="round" stroke-width="0.11" stroke-linejoin="miter" marker-start="none" marker-end="none" stroke-miterlimit="79.8403193612775"/>
    <text xml:space="preserve" transform="translate(300.732 58.887) scale(1 -1)" font-family="Arial" font-size="8" fill="#333333" stroke-width="0.27" stroke-linejoin="round" stroke-linecap="round" stroke="none" stroke-miterlimit="79.8403193612775"><tspan x="0" y="0">В рабо</tspan><tspan x="25.313" y="0">т</tspan><tspan x="28.888" y="0">е 21%</tspan></text>
    <path d="M 265.532,193.154 C 264.093,192.362 262.283,192.888 261.492,194.326 C 260.7,195.765 261.226,197.575 262.664,198.366 C 264.103,199.158 265.913,198.632 266.704,197.194 C 267.496,195.755 266.97,193.945 265.532,193.154 Z" fill="#b46bd1" stroke-linecap="round" stroke-width="0.174" stroke="#4c4c4c" stroke-linejoin="miter" marker-start="none" marker-end="none" stroke-miterlimit="79.8403193612775"/>
    <text xml:space="preserve" transform="translate(270.605 193.647) scale(1 -1)" font-family="Arial" fill="#333333" stroke-width="0.27" stroke-linejoin="round" font-size="6" stroke-linecap="round" stroke="none" stroke-miterlimit="79.8403193612775"><tspan x="0" y="0">В рабо</tspan><tspan x="18.986" y="0">т</tspan><tspan x="21.668" y="0">е</tspan></text>
    <path d="M 70.488,39.035 L 295.96,39.117" fill="none" stroke="#666666" stroke-width="0.75" stroke-linejoin="round" stroke-linecap="round" stroke-miterlimit="79.8403193612775"/>
    <path d="M 70.372,37.428 C 69.464,36.929 68.322,37.261 67.822,38.168 C 67.323,39.076 67.655,40.218 68.562,40.718 C 69.47,41.217 70.612,40.885 71.112,39.978 C 71.611,39.07 71.279,37.928 70.372,37.428 Z" stroke="none" fill="#666666" stroke-linecap="round" stroke-width="0.11" stroke-linejoin="miter" marker-start="none" marker-end="none" stroke-miterlimit="79.8403193612775"/>
    <text xml:space="preserve" transform="translate(300.732 36.344) scale(1 -1)" font-family="Arial" font-size="8" fill="#333333" stroke-width="0.27" stroke-linejoin="round" stroke-linecap="round" stroke="none" stroke-miterlimit="79.8403193612775"><tspan x="0" y="0">Выпо</tspan><tspan x="19.692" y="0">лнено 41%</tspan></text>
   </g>
  </g>
 </g>
</svg>
