<?xml version="1.0" standalone="no"?>
<!DOCTYPE svg PUBLIC "-//W3C//DTD SVG 1.1//EN" "http://www.w3.org/Graphics/SVG/1.1/DTD/svg11.dtd">
<!--Generator: Xara Designer (www.xara.com), SVG filter version: 5.0.0.2-->
<svg stroke-width="0.501" stroke-linejoin="bevel" fill-rule="evenodd" xmlns:xlink="http://www.w3.org/1999/xlink" xmlns="http://www.w3.org/2000/svg" version="1.1" overflow="visible" width="459.378pt" height="205.528pt" viewBox="0 0 459.378 205.528">
 <defs>
  <marker id="DefaultArrow2" markerUnits="strokeWidth" viewBox="0 0 1 1" markerWidth="1" markerHeight="1" overflow="visible" orient="auto">
   <!-- REF_ARROW_STRAIGHT (-2) -->
   <g transform="scale(0.0092592592)">
    <!-- 1/108 -->
    <path d="M -9 54 L -9 -54 L 117 0 z"/>
   </g>
  </marker>
  <marker id="DefaultArrow3" markerUnits="strokeWidth" viewBox="0 0 1 1" markerWidth="1" markerHeight="1" overflow="visible" orient="auto">
   <!-- REF_ARROW_ANGLED -->
   <g transform="scale(0.0092592592)">
    <path d="M -27 54 L -9 0 L -27 -54 L 135 0 z"/>
   </g>
  </marker>
  <marker id="DefaultArrow4" markerUnits="strokeWidth" viewBox="0 0 1 1" markerWidth="1" markerHeight="1" overflow="visible" orient="auto">
   <!-- REF_ARROW_ROUNDED -->
   <g transform="scale(0.0092592592)">
    <path d="M -9,0 L -9,-45 C -9,-51.708 2.808,-56.580 9,-54 L 117,-9 C 120.916,-7.369 126.000,-4.242 126,0 C 126,4.242 120.916,7.369 117,9 L 9,54 C 2.808,56.580 -9,51.708 -9,45 z"/>
   </g>
  </marker>
  <marker id="DefaultArrow5" markerUnits="strokeWidth" viewBox="0 0 1 1" markerWidth="1" markerHeight="1" overflow="visible" orient="auto">
   <!-- REF_ARROW_SPOT -->
   <g transform="scale(0.0092592592)">
    <path d="M -54, 0 C -54,29.807 -29.807,54 0,54 C 29.807,54 54,29.807 54,0 C 54,-29.807 29.807,-54 0,-54 C -29.807,-54 -54,-29.807 -54,0 z"/>
   </g>
  </marker>
  <marker id="DefaultArrow6" markerUnits="strokeWidth" viewBox="0 0 1 1" markerWidth="1" markerHeight="1" overflow="visible" orient="auto">
   <!-- REF_ARROW_DIAMOND -->
   <g transform="scale(0.0092592592)">
    <path d="M -63,0 L 0,63 L 63,0 L 0,-63 z"/>
   </g>
  </marker>
  <marker id="DefaultArrow7" markerUnits="strokeWidth" viewBox="0 0 1 1" markerWidth="1" markerHeight="1" overflow="visible" orient="auto">
   <!-- REF_ARROW_FEATHER -->
   <g transform="scale(0.0092592592)">
    <path d="M 18,-54 L 108,-54 L 63,0 L 108,54 L 18, 54 L -36,0 z"/>
   </g>
  </marker>
  <marker id="DefaultArrow8" markerUnits="strokeWidth" viewBox="0 0 1 1" markerWidth="1" markerHeight="1" overflow="visible" orient="auto">
   <!-- REF_ARROW_FEATHER2 -->
   <g transform="scale(0.0092592592)">
    <path d="M -36,0 L 18,-54 L 54,-54 L 18,-18 L 27,-18 L 63,-54 L 99,-54 L 63,-18 L 72,-18 L 108,-54 L 144,-54 L 90,0 L 144,54 L 108,54 L 72,18 L 63,18 L 99,54 L 63,54 L 27,18 L 18,18 L 54,54 L 18,54 z"/>
   </g>
  </marker>
  <marker id="DefaultArrow9" markerUnits="strokeWidth" viewBox="0 0 1 1" markerWidth="1" markerHeight="1" overflow="visible" orient="auto">
   <!-- REF_ARROW_HOLLOWDIAMOND -->
   <g transform="scale(0.0092592592)">
    <path d="M 0,45 L -45,0 L 0, -45 L 45, 0 z M 0, 63 L-63, 0 L 0, -63 L 63, 0 z"/>
   </g>
  </marker>
  <filter id="StainedFilter">
   <feBlend mode="multiply" in2="BackgroundImage" in="SourceGraphic" result="blend"/>
   <feComposite in="blend" in2="SourceAlpha" operator="in" result="comp"/>
  </filter>
  <filter id="BleachFilter">
   <feBlend mode="screen" in2="BackgroundImage" in="SourceGraphic" result="blend"/>
   <feComposite in="blend" in2="SourceAlpha" operator="in" result="comp"/>
  </filter>
  <filter id="InvertTransparencyBitmapFilter">
   <feComponentTransfer>
    <feFuncR type="gamma" amplitude="1.055" exponent=".416666666" offset="-0.055"/>
    <feFuncG type="gamma" amplitude="1.055" exponent=".416666666" offset="-0.055"/>
    <feFuncB type="gamma" amplitude="1.055" exponent=".416666666" offset="-0.055"/>
   </feComponentTransfer>
   <feComponentTransfer>
    <feFuncR type="linear" slope="-1" intercept="1"/>
    <feFuncG type="linear" slope="-1" intercept="1"/>
    <feFuncB type="linear" slope="-1" intercept="1"/>
    <feFuncA type="linear" slope="1" intercept="0"/>
   </feComponentTransfer>
   <feComponentTransfer>
    <feFuncR type="gamma" amplitude="1" exponent="2.4" offset="0"/>
    <feFuncG type="gamma" amplitude="1" exponent="2.4" offset="0"/>
    <feFuncB type="gamma" amplitude="1" exponent="2.4" offset="0"/>
   </feComponentTransfer>
  </filter>
  <linearGradient id="LinearGradient" gradientUnits="userSpaceOnUse" x1="0" y1="0" x2="21.74" y2="0" gradientTransform="translate(150.488 182.995) rotate(92.3172) skewX(1.36987)">
   <stop offset="0" stop-color="#e5e5e5"/>
   <stop offset="1" stop-color="#ffffff"/>
  </linearGradient>
  <linearGradient id="LinearGradient_1" gradientUnits="userSpaceOnUse" x1="0" y1="0" x2="21.74" y2="0" gradientTransform="translate(150.488 182.995) rotate(92.3172) skewX(1.36987)">
   <stop offset="0" stop-color="#e5e5e5"/>
   <stop offset="1" stop-color="#ffffff"/>
  </linearGradient>
 </defs>
 <g id="Document" fill="none" stroke="black" font-family="Times New Roman" font-size="16" transform="scale(1 -1)">
  <g id="Spread" transform="translate(0 -205.528)">
   <g id="Layer 1">
    <path d="M 459.188,205.326 L 0.182,205.326" fill="none" stroke="#4c4c4c" stroke-linecap="square" stroke-linejoin="round" stroke-width="0.375" stroke-miterlimit="79.8403193612775"/>
    <path d="M -0.006,205.094 L -0.006,187.499 L 459.373,187.499 L 459.373,205.094 L -0.006,205.094 Z" stroke="none" stroke-linecap="round" stroke-width="0.75" stroke-linejoin="miter" marker-start="none" marker-end="none" stroke-miterlimit="79.8403193612775" fill="url(#LinearGradient)"/>
    <path d="M 459.194,187.411 L 0.181,187.411" fill="none" stroke="#4c4c4c" stroke-linecap="square" stroke-linejoin="round" stroke-width="0.375" stroke-miterlimit="79.8403193612775"/>
    <path d="M 12.159,193.154 C 10.72,192.362 8.91,192.888 8.119,194.326 C 7.327,195.765 7.853,197.575 9.291,198.366 C 10.73,199.158 12.54,198.632 13.331,197.194 C 14.123,195.755 13.597,193.945 12.159,193.154 Z" fill="#89c7ff" stroke-linecap="round" stroke-width="0.174" stroke="#4c4c4c" stroke-linejoin="miter" marker-start="none" marker-end="none" stroke-miterlimit="79.8403193612775"/>
    <text xml:space="preserve" transform="translate(17.232 193.647) scale(1 -1)" font-family="Arial" fill="#333333" stroke-width="0.27" stroke-linejoin="round" font-size="6" stroke-linecap="round" stroke="none" stroke-miterlimit="79.8403193612775"><tspan x="0" y="0">Новые</tspan></text>
    <path d="M 86.137,193.154 C 84.698,192.362 82.888,192.888 82.097,194.326 C 81.305,195.765 81.831,197.575 83.269,198.366 C 84.708,199.158 86.518,198.632 87.309,197.194 C 88.101,195.755 87.575,193.945 86.137,193.154 Z" fill="#dfcd3e" stroke-linecap="round" stroke-width="0.174" stroke="#4c4c4c" stroke-linejoin="miter" marker-start="none" marker-end="none" stroke-miterlimit="79.8403193612775"/>
    <text xml:space="preserve" transform="translate(91.21 193.647) scale(1 -1)" font-family="Arial" fill="#333333" stroke-width="0.27" stroke-linejoin="round" font-size="6" stroke-linecap="round" stroke="none" stroke-miterlimit="79.8403193612775"><tspan x="0" y="0">Обрабо</tspan><tspan x="21.421" y="0">тк</tspan><tspan x="26.926" y="0">а</tspan></text>
    <path d="M 171.449,193.154 C 170.01,192.362 168.2,192.888 167.409,194.326 C 166.617,195.765 167.143,197.575 168.581,198.366 C 170.02,199.158 171.83,198.632 172.621,197.194 C 173.413,195.755 172.887,193.945 171.449,193.154 Z" fill="#ed7d31" stroke-linecap="round" stroke-width="0.174" stroke="#4c4c4c" stroke-linejoin="miter" marker-start="none" marker-end="none" stroke-miterlimit="79.8403193612775"/>
    <text xml:space="preserve" transform="translate(176.522 193.647) scale(1 -1)" font-family="Arial" fill="#333333" stroke-width="0.27" stroke-linejoin="round" font-size="6" stroke-linecap="round" stroke="none" stroke-miterlimit="79.8403193612775"><tspan x="0" y="0">Сог</tspan><tspan x="9.728" y="0">лас</tspan><tspan x="19.633" y="0">ов</tspan><tspan x="26.092" y="0">ание</tspan></text>
    <path d="M 344.009,193.154 C 342.57,192.362 340.76,192.888 339.969,194.326 C 339.177,195.765 339.703,197.575 341.141,198.366 C 342.58,199.158 344.39,198.632 345.181,197.194 C 345.973,195.755 345.447,193.945 344.009,193.154 Z" fill="#74cf98" stroke-linecap="round" stroke-width="0.174" stroke="#4c4c4c" stroke-linejoin="miter" marker-start="none" marker-end="none" stroke-miterlimit="79.8403193612775"/>
    <text xml:space="preserve" transform="translate(349.082 193.647) scale(1 -1)" font-family="Arial" fill="#333333" stroke-width="0.27" stroke-linejoin="round" font-size="6" stroke-linecap="round" stroke="none" stroke-miterlimit="79.8403193612775"><tspan x="0" y="0">Выпо</tspan><tspan x="14.77" y="0">лнено</tspan></text>
    <path d="M 415.738,193.154 C 414.299,192.362 412.489,192.888 411.698,194.326 C 410.906,195.765 411.432,197.575 412.87,198.366 C 414.309,199.158 416.119,198.632 416.91,197.194 C 417.702,195.755 417.176,193.945 415.738,193.154 Z" fill="#970303" stroke-linecap="round" stroke-width="0.174" stroke="#4c4c4c" stroke-linejoin="miter" marker-start="none" marker-end="none" stroke-miterlimit="79.8403193612775"/>
    <text xml:space="preserve" transform="translate(420.811 193.647) scale(1 -1)" font-family="Arial" fill="#333333" stroke-width="0.27" stroke-linejoin="round" font-size="6" stroke-linecap="round" stroke="none" stroke-miterlimit="79.8403193612775"><tspan x="0" y="0">Отк</tspan><tspan x="10.107" y="0">л</tspan><tspan x="13.675" y="0">онено</tspan></text>
    <path d="M 265.532,193.154 C 264.093,192.362 262.283,192.888 261.492,194.326 C 260.7,195.765 261.226,197.575 262.664,198.366 C 264.103,199.158 265.913,198.632 266.704,197.194 C 267.496,195.755 266.97,193.945 265.532,193.154 Z" fill="#b46bd1" stroke-linecap="round" stroke-width="0.174" stroke="#4c4c4c" stroke-linejoin="miter" marker-start="none" marker-end="none" stroke-miterlimit="79.8403193612775"/>
    <text xml:space="preserve" transform="translate(270.605 193.647) scale(1 -1)" font-family="Arial" fill="#333333" stroke-width="0.27" stroke-linejoin="round" font-size="6" stroke-linecap="round" stroke="none" stroke-miterlimit="79.8403193612775"><tspan x="0" y="0">В рабо</tspan><tspan x="18.986" y="0">т</tspan><tspan x="21.668" y="0">е</tspan></text>
   </g>
   <g id="Новые">
    <path d="M 48.229,41.624 C 46.245,43.431 44.375,45.317 42.617,47.271 L 42.622,47.275 L 42.616,47.271 C 15.867,77.04 15.514,122.874 43.037,153.085 C 53.509,164.581 66.61,172.269 80.592,176.067 C 83.52,176.862 86.488,177.487 89.478,177.941 L 101.413,100.012 L 101.412,178.839 L 101.413,178.839 L 101.413,100.012 L 121.679,23.777 L 121.695,23.715 C 96.635,17.062 68.808,22.876 48.229,41.624 Z" fill="#74cf98" stroke-width="1.5" stroke="#ffffff" marker-start="none" marker-end="none" stroke-miterlimit="79.8403193612775"/>
    <path d="M 122.265,24.949 L 101.999,101.184 L 173.232,67.363 L 173.271,67.344 C 173.054,66.885 172.832,66.428 172.606,65.973 C 171.921,64.596 171.192,63.236 170.422,61.891 C 167.613,56.996 164.232,52.33 160.277,47.988 C 149.694,36.371 136.429,28.643 122.281,24.887 L 122.265,24.949 Z" fill="#b46bd1" stroke-width="0.134" stroke="none" marker-start="none" marker-end="none" stroke-miterlimit="79.8403193612775"/>
    <path d="M 172.646,66.191 L 101.413,100.012 L 179.984,106.443 C 180.826,96.21 179.685,85.827 176.529,75.923 C 175.472,72.61 174.192,69.352 172.685,66.172 L 172.646,66.191 Z" fill="#ed7d31" stroke-width="1.5" stroke="#ffffff" marker-start="none" marker-end="none" stroke-miterlimit="79.8403193612775"/>
    <path d="M 101.413,100.012 L 168.291,141.764 C 175.05,130.95 178.965,118.806 179.984,106.443 L 101.413,100.012 Z" fill="#dfcd3e" stroke-width="1.5" stroke="#ffffff" marker-start="none" marker-end="none" stroke-miterlimit="79.8403193612775"/>
    <path d="M 101.413,100.012 L 101.413,178.839 C 120.218,178.833 139.079,172.15 154.129,158.61 C 154.252,158.5 154.375,158.388 154.498,158.278 C 159.958,153.303 164.559,147.737 168.291,141.765 L 101.413,100.012 Z" fill="#89c7ff" stroke-width="1.5" stroke="#ffffff" marker-start="none" marker-end="none" stroke-miterlimit="79.8403193612775"/>
    <path d="M 101.389,99.337 L 87.886,177.01 C 91.805,177.685 95.769,178.065 99.742,178.147 C 99.761,178.147 99.781,178.148 99.8,178.148 L 101.389,99.337 Z" fill="#74cf98" stroke="none" stroke-width="1.5" marker-start="none" marker-end="none" stroke-miterlimit="79.8403193612775"/>
    <path d="M 57.627,35.123 L 101.378,100.76 L 123.151,24.972 L 123.162,24.93 C 122.675,24.788 122.185,24.653 121.695,24.521 C 120.21,24.123 118.708,23.77 117.189,23.458 C 111.66,22.326 105.925,21.773 100.053,21.867 C 84.339,22.115 69.768,26.946 57.59,35.069 L 57.627,35.123 Z" stroke="none" fill="#b46bd1" stroke-width="1.5" marker-start="none" marker-end="none" stroke-miterlimit="79.8403193612775"/>
    <path d="M 72.403,126.332 C 86.966,142.317 111.759,143.472 127.745,128.91 C 143.73,114.347 144.885,89.554 130.323,73.568 C 115.76,57.583 90.967,56.428 74.981,70.99 C 58.996,85.553 57.841,110.346 72.403,126.332 Z" fill="#ffffff" stroke="none" stroke-width="0.068" marker-start="none" marker-end="none" stroke-miterlimit="79.8403193612775"/>
    <path d="M 151.073,142.013 L 295.948,142.095" fill="none" stroke="#666666" stroke-width="0.75" stroke-linejoin="round" stroke-linecap="round" stroke-miterlimit="79.8403193612775"/>
    <path d="M 152.391,140.409 C 151.483,139.91 150.341,140.242 149.841,141.149 C 149.342,142.057 149.674,143.199 150.581,143.699 C 151.489,144.198 152.631,143.866 153.131,142.959 C 153.63,142.051 153.298,140.909 152.391,140.409 Z" stroke="none" fill="#666666" stroke-linecap="round" stroke-width="0.11" stroke-linejoin="miter" marker-start="none" marker-end="none" stroke-miterlimit="79.8403193612775"/>
    <text xml:space="preserve" transform="translate(300.716 139.322) scale(1 -1)" font-family="Arial" font-size="8" fill="#333333" stroke-width="0.27" stroke-linejoin="round" stroke-linecap="round" stroke="none" stroke-miterlimit="79.8403193612775"><tspan x="0" y="0">Новые</tspan></text>
    <text xml:space="preserve" transform="translate(327.736 139.322) scale(1 -1)" font-family="Arial" font-size="8" fill="#333333" stroke-width="0.27" stroke-linejoin="round" stroke-linecap="round" stroke="none" stroke-miterlimit="79.8403193612775"><tspan x="0" y="0">16%</tspan></text>
    <text xml:space="preserve" transform="translate(300.716 162.902) scale(1 -1)" font-family="Arial" font-size="8" fill="#333333" stroke-width="0.27" stroke-linejoin="round" stroke-linecap="round" stroke="none" stroke-miterlimit="79.8403193612775"><tspan x="0" y="0">Отк</tspan><tspan x="13.477" y="0">л</tspan><tspan x="18.235" y="0">онено</tspan></text>
    <text xml:space="preserve" transform="translate(343.737 162.902) scale(1 -1)" font-family="Arial" font-size="8" fill="#333333" stroke-width="0.27" stroke-linejoin="round" stroke-linecap="round" stroke="none" stroke-miterlimit="79.8403193612775"><tspan x="0" y="0">0%</tspan></text>
    <path d="M 164.362,120.366 L 295.944,120.448" fill="none" stroke="#666666" stroke-width="0.75" stroke-linejoin="round" stroke-linecap="round" stroke-miterlimit="79.8403193612775"/>
    <path d="M 163.786,118.762 C 162.878,118.263 161.736,118.595 161.236,119.502 C 160.737,120.41 161.069,121.552 161.976,122.052 C 162.884,122.551 164.026,122.219 164.526,121.312 C 165.025,120.404 164.693,119.262 163.786,118.762 Z" stroke="none" fill="#666666" stroke-linecap="round" stroke-width="0.11" stroke-linejoin="miter" marker-start="none" marker-end="none" stroke-miterlimit="79.8403193612775"/>
    <text xml:space="preserve" transform="translate(300.716 117.675) scale(1 -1)" font-family="Arial" font-size="8" fill="#333333" stroke-width="0.27" stroke-linejoin="round" stroke-linecap="round" stroke="none" stroke-miterlimit="79.8403193612775"><tspan x="0" y="0">Обрабо</tspan><tspan x="28.559" y="0">тк</tspan><tspan x="35.899" y="0">а 8%</tspan></text>
    <path d="M 166.606,90.089 L 295.95,90.171" fill="none" stroke="#666666" stroke-width="0.75" stroke-linejoin="round" stroke-linecap="round" stroke-miterlimit="79.8403193612775"/>
    <path d="M 166.287,88.485 C 165.379,87.986 164.237,88.318 163.737,89.225 C 163.238,90.133 163.57,91.275 164.477,91.775 C 165.385,92.274 166.527,91.942 167.027,91.035 C 167.526,90.127 167.194,88.985 166.287,88.485 Z" stroke="none" fill="#666666" stroke-linecap="round" stroke-width="0.11" stroke-linejoin="miter" marker-start="none" marker-end="none" stroke-miterlimit="79.8403193612775"/>
    <text xml:space="preserve" transform="translate(300.716 87.398) scale(1 -1)" font-family="Arial" font-size="8" fill="#333333" stroke-width="0.27" stroke-linejoin="round" stroke-linecap="round" stroke="none" stroke-miterlimit="79.8403193612775"><tspan x="0" y="0">Сог</tspan><tspan x="12.969" y="0">лас</tspan><tspan x="26.176" y="0">ов</tspan><tspan x="34.786" y="0">ание 8%</tspan></text>
    <path d="M 157.425,61.534 L 295.944,61.616" fill="none" stroke="#666666" stroke-width="0.75" stroke-linejoin="round" stroke-linecap="round" stroke-miterlimit="79.8403193612775"/>
    <path d="M 157.013,59.929 C 156.105,59.43 154.963,59.762 154.463,60.669 C 153.964,61.577 154.296,62.719 155.203,63.219 C 156.111,63.718 157.253,63.386 157.753,62.479 C 158.252,61.571 157.92,60.429 157.013,59.929 Z" stroke="none" fill="#666666" stroke-linecap="round" stroke-width="0.11" stroke-linejoin="miter" marker-start="none" marker-end="none" stroke-miterlimit="79.8403193612775"/>
    <text xml:space="preserve" transform="translate(300.716 58.843) scale(1 -1)" font-family="Arial" font-size="8" fill="#333333" stroke-width="0.27" stroke-linejoin="round" stroke-linecap="round" stroke="none" stroke-miterlimit="79.8403193612775"><tspan x="0" y="0">В рабо</tspan><tspan x="25.313" y="0">т</tspan><tspan x="28.888" y="0">е 26%</tspan></text>
    <path d="M 57.001,43.791 L 294.743,43.873" fill="none" stroke="#666666" stroke-width="0.75" stroke-linejoin="round" stroke-linecap="round" stroke-miterlimit="79.8403193612775"/>
    <path d="M 57.172,42.184 C 56.264,41.685 55.122,42.017 54.622,42.924 C 54.123,43.832 54.455,44.974 55.362,45.474 C 56.27,45.973 57.412,45.641 57.912,44.734 C 58.411,43.826 58.079,42.684 57.172,42.184 Z" stroke="none" fill="#666666" stroke-linecap="round" stroke-width="0.11" stroke-linejoin="miter" marker-start="none" marker-end="none" stroke-miterlimit="79.8403193612775"/>
    <text xml:space="preserve" transform="translate(299.516 41.1) scale(1 -1)" font-family="Arial" font-size="8" fill="#333333" stroke-width="0.27" stroke-linejoin="round" stroke-linecap="round" stroke="none" stroke-miterlimit="79.8403193612775"><tspan x="0" y="0">Выпо</tspan><tspan x="19.692" y="0">лнено 39%</tspan></text>
   </g>
  </g>
 </g>
</svg>
