<?xml version="1.0" standalone="no"?>
<!DOCTYPE svg PUBLIC "-//W3C//DTD SVG 1.1//EN" "http://www.w3.org/Graphics/SVG/1.1/DTD/svg11.dtd">
<!--Generator: Xara Designer (www.xara.com), SVG filter version: 5.0.0.2-->
<svg stroke-width="0.501" stroke-linejoin="bevel" fill-rule="evenodd" xmlns:xlink="http://www.w3.org/1999/xlink" xmlns="http://www.w3.org/2000/svg" version="1.1" overflow="visible" width="459.378pt" height="205.528pt" viewBox="0 0 459.378 205.528">
 <defs>
  <marker id="DefaultArrow2" markerUnits="strokeWidth" viewBox="0 0 1 1" markerWidth="1" markerHeight="1" overflow="visible" orient="auto">
   <!-- REF_ARROW_STRAIGHT (-2) -->
   <g transform="scale(0.0092592592)">
    <!-- 1/108 -->
    <path d="M -9 54 L -9 -54 L 117 0 z"/>
   </g>
  </marker>
  <marker id="DefaultArrow3" markerUnits="strokeWidth" viewBox="0 0 1 1" markerWidth="1" markerHeight="1" overflow="visible" orient="auto">
   <!-- REF_ARROW_ANGLED -->
   <g transform="scale(0.0092592592)">
    <path d="M -27 54 L -9 0 L -27 -54 L 135 0 z"/>
   </g>
  </marker>
  <marker id="DefaultArrow4" markerUnits="strokeWidth" viewBox="0 0 1 1" markerWidth="1" markerHeight="1" overflow="visible" orient="auto">
   <!-- REF_ARROW_ROUNDED -->
   <g transform="scale(0.0092592592)">
    <path d="M -9,0 L -9,-45 C -9,-51.708 2.808,-56.580 9,-54 L 117,-9 C 120.916,-7.369 126.000,-4.242 126,0 C 126,4.242 120.916,7.369 117,9 L 9,54 C 2.808,56.580 -9,51.708 -9,45 z"/>
   </g>
  </marker>
  <marker id="DefaultArrow5" markerUnits="strokeWidth" viewBox="0 0 1 1" markerWidth="1" markerHeight="1" overflow="visible" orient="auto">
   <!-- REF_ARROW_SPOT -->
   <g transform="scale(0.0092592592)">
    <path d="M -54, 0 C -54,29.807 -29.807,54 0,54 C 29.807,54 54,29.807 54,0 C 54,-29.807 29.807,-54 0,-54 C -29.807,-54 -54,-29.807 -54,0 z"/>
   </g>
  </marker>
  <marker id="DefaultArrow6" markerUnits="strokeWidth" viewBox="0 0 1 1" markerWidth="1" markerHeight="1" overflow="visible" orient="auto">
   <!-- REF_ARROW_DIAMOND -->
   <g transform="scale(0.0092592592)">
    <path d="M -63,0 L 0,63 L 63,0 L 0,-63 z"/>
   </g>
  </marker>
  <marker id="DefaultArrow7" markerUnits="strokeWidth" viewBox="0 0 1 1" markerWidth="1" markerHeight="1" overflow="visible" orient="auto">
   <!-- REF_ARROW_FEATHER -->
   <g transform="scale(0.0092592592)">
    <path d="M 18,-54 L 108,-54 L 63,0 L 108,54 L 18, 54 L -36,0 z"/>
   </g>
  </marker>
  <marker id="DefaultArrow8" markerUnits="strokeWidth" viewBox="0 0 1 1" markerWidth="1" markerHeight="1" overflow="visible" orient="auto">
   <!-- REF_ARROW_FEATHER2 -->
   <g transform="scale(0.0092592592)">
    <path d="M -36,0 L 18,-54 L 54,-54 L 18,-18 L 27,-18 L 63,-54 L 99,-54 L 63,-18 L 72,-18 L 108,-54 L 144,-54 L 90,0 L 144,54 L 108,54 L 72,18 L 63,18 L 99,54 L 63,54 L 27,18 L 18,18 L 54,54 L 18,54 z"/>
   </g>
  </marker>
  <marker id="DefaultArrow9" markerUnits="strokeWidth" viewBox="0 0 1 1" markerWidth="1" markerHeight="1" overflow="visible" orient="auto">
   <!-- REF_ARROW_HOLLOWDIAMOND -->
   <g transform="scale(0.0092592592)">
    <path d="M 0,45 L -45,0 L 0, -45 L 45, 0 z M 0, 63 L-63, 0 L 0, -63 L 63, 0 z"/>
   </g>
  </marker>
  <filter id="StainedFilter">
   <feBlend mode="multiply" in2="BackgroundImage" in="SourceGraphic" result="blend"/>
   <feComposite in="blend" in2="SourceAlpha" operator="in" result="comp"/>
  </filter>
  <filter id="BleachFilter">
   <feBlend mode="screen" in2="BackgroundImage" in="SourceGraphic" result="blend"/>
   <feComposite in="blend" in2="SourceAlpha" operator="in" result="comp"/>
  </filter>
  <filter id="InvertTransparencyBitmapFilter">
   <feComponentTransfer>
    <feFuncR type="gamma" amplitude="1.055" exponent=".416666666" offset="-0.055"/>
    <feFuncG type="gamma" amplitude="1.055" exponent=".416666666" offset="-0.055"/>
    <feFuncB type="gamma" amplitude="1.055" exponent=".416666666" offset="-0.055"/>
   </feComponentTransfer>
   <feComponentTransfer>
    <feFuncR type="linear" slope="-1" intercept="1"/>
    <feFuncG type="linear" slope="-1" intercept="1"/>
    <feFuncB type="linear" slope="-1" intercept="1"/>
    <feFuncA type="linear" slope="1" intercept="0"/>
   </feComponentTransfer>
   <feComponentTransfer>
    <feFuncR type="gamma" amplitude="1" exponent="2.4" offset="0"/>
    <feFuncG type="gamma" amplitude="1" exponent="2.4" offset="0"/>
    <feFuncB type="gamma" amplitude="1" exponent="2.4" offset="0"/>
   </feComponentTransfer>
  </filter>
  <linearGradient id="LinearGradient" gradientUnits="userSpaceOnUse" x1="0" y1="0" x2="21.74" y2="0" gradientTransform="translate(150.488 182.995) rotate(92.3172) skewX(1.36987)">
   <stop offset="0" stop-color="#e5e5e5"/>
   <stop offset="1" stop-color="#ffffff"/>
  </linearGradient>
  <linearGradient id="LinearGradient_1" gradientUnits="userSpaceOnUse" x1="0" y1="0" x2="21.74" y2="0" gradientTransform="translate(150.488 182.995) rotate(92.3172) skewX(1.36987)">
   <stop offset="0" stop-color="#e5e5e5"/>
   <stop offset="1" stop-color="#ffffff"/>
  </linearGradient>
 </defs>
 <g id="Document" fill="none" stroke="black" font-family="Times New Roman" font-size="16" transform="scale(1 -1)">
  <g id="Spread" transform="translate(0 -205.528)">
   <g id="Layer 1">
    <path d="M 459.188,205.326 L 0.182,205.326" fill="none" stroke="#4c4c4c" stroke-linecap="square" stroke-linejoin="round" stroke-width="0.375" stroke-miterlimit="79.8403193612775"/>
    <path d="M -0.006,205.094 L -0.006,187.499 L 459.373,187.499 L 459.373,205.094 L -0.006,205.094 Z" stroke="none" stroke-linecap="round" stroke-width="0.75" stroke-linejoin="miter" marker-start="none" marker-end="none" stroke-miterlimit="79.8403193612775" fill="url(#LinearGradient)"/>
    <path d="M 459.194,187.411 L 0.181,187.411" fill="none" stroke="#4c4c4c" stroke-linecap="square" stroke-linejoin="round" stroke-width="0.375" stroke-miterlimit="79.8403193612775"/>
    <path d="M 12.159,193.154 C 10.72,192.362 8.91,192.888 8.119,194.326 C 7.327,195.765 7.853,197.575 9.291,198.366 C 10.73,199.158 12.54,198.632 13.331,197.194 C 14.123,195.755 13.597,193.945 12.159,193.154 Z" fill="#89c7ff" stroke-linecap="round" stroke-width="0.174" stroke="#4c4c4c" stroke-linejoin="miter" marker-start="none" marker-end="none" stroke-miterlimit="79.8403193612775"/>
    <text xml:space="preserve" transform="translate(17.232 193.647) scale(1 -1)" font-family="Arial" fill="#333333" stroke-width="0.27" stroke-linejoin="round" font-size="6" stroke-linecap="round" stroke="none" stroke-miterlimit="79.8403193612775"><tspan x="0" y="0">Новые</tspan></text>
    <path d="M 86.137,193.154 C 84.698,192.362 82.888,192.888 82.097,194.326 C 81.305,195.765 81.831,197.575 83.269,198.366 C 84.708,199.158 86.518,198.632 87.309,197.194 C 88.101,195.755 87.575,193.945 86.137,193.154 Z" fill="#dfcd3e" stroke-linecap="round" stroke-width="0.174" stroke="#4c4c4c" stroke-linejoin="miter" marker-start="none" marker-end="none" stroke-miterlimit="79.8403193612775"/>
    <text xml:space="preserve" transform="translate(91.21 193.647) scale(1 -1)" font-family="Arial" fill="#333333" stroke-width="0.27" stroke-linejoin="round" font-size="6" stroke-linecap="round" stroke="none" stroke-miterlimit="79.8403193612775"><tspan x="0" y="0">Обрабо</tspan><tspan x="21.421" y="0">тк</tspan><tspan x="26.926" y="0">а</tspan></text>
    <path d="M 171.449,193.154 C 170.01,192.362 168.2,192.888 167.409,194.326 C 166.617,195.765 167.143,197.575 168.581,198.366 C 170.02,199.158 171.83,198.632 172.621,197.194 C 173.413,195.755 172.887,193.945 171.449,193.154 Z" fill="#ed7d31" stroke-linecap="round" stroke-width="0.174" stroke="#4c4c4c" stroke-linejoin="miter" marker-start="none" marker-end="none" stroke-miterlimit="79.8403193612775"/>
    <text xml:space="preserve" transform="translate(176.522 193.647) scale(1 -1)" font-family="Arial" fill="#333333" stroke-width="0.27" stroke-linejoin="round" font-size="6" stroke-linecap="round" stroke="none" stroke-miterlimit="79.8403193612775"><tspan x="0" y="0">Сог</tspan><tspan x="9.728" y="0">лас</tspan><tspan x="19.633" y="0">ов</tspan><tspan x="26.092" y="0">ание</tspan></text>
    <path d="M 344.009,193.154 C 342.57,192.362 340.76,192.888 339.969,194.326 C 339.177,195.765 339.703,197.575 341.141,198.366 C 342.58,199.158 344.39,198.632 345.181,197.194 C 345.973,195.755 345.447,193.945 344.009,193.154 Z" fill="#74cf98" stroke-linecap="round" stroke-width="0.174" stroke="#4c4c4c" stroke-linejoin="miter" marker-start="none" marker-end="none" stroke-miterlimit="79.8403193612775"/>
    <text xml:space="preserve" transform="translate(349.082 193.647) scale(1 -1)" font-family="Arial" fill="#333333" stroke-width="0.27" stroke-linejoin="round" font-size="6" stroke-linecap="round" stroke="none" stroke-miterlimit="79.8403193612775"><tspan x="0" y="0">Выпо</tspan><tspan x="14.77" y="0">лнено</tspan></text>
    <path d="M 415.738,193.154 C 414.299,192.362 412.489,192.888 411.698,194.326 C 410.906,195.765 411.432,197.575 412.87,198.366 C 414.309,199.158 416.119,198.632 416.91,197.194 C 417.702,195.755 417.176,193.945 415.738,193.154 Z" fill="#970303" stroke-linecap="round" stroke-width="0.174" stroke="#4c4c4c" stroke-linejoin="miter" marker-start="none" marker-end="none" stroke-miterlimit="79.8403193612775"/>
    <text xml:space="preserve" transform="translate(420.811 193.647) scale(1 -1)" font-family="Arial" fill="#333333" stroke-width="0.27" stroke-linejoin="round" font-size="6" stroke-linecap="round" stroke="none" stroke-miterlimit="79.8403193612775"><tspan x="0" y="0">Отк</tspan><tspan x="10.107" y="0">л</tspan><tspan x="13.675" y="0">онено</tspan></text>
    <path d="M 265.532,193.154 C 264.093,192.362 262.283,192.888 261.492,194.326 C 260.7,195.765 261.226,197.575 262.664,198.366 C 264.103,199.158 265.913,198.632 266.704,197.194 C 267.496,195.755 266.97,193.945 265.532,193.154 Z" fill="#b46bd1" stroke-linecap="round" stroke-width="0.174" stroke="#4c4c4c" stroke-linejoin="miter" marker-start="none" marker-end="none" stroke-miterlimit="79.8403193612775"/>
    <text xml:space="preserve" transform="translate(270.605 193.647) scale(1 -1)" font-family="Arial" fill="#333333" stroke-width="0.27" stroke-linejoin="round" font-size="6" stroke-linecap="round" stroke="none" stroke-miterlimit="79.8403193612775"><tspan x="0" y="0">В рабо</tspan><tspan x="18.986" y="0">т</tspan><tspan x="21.668" y="0">е</tspan></text>
   </g>
   <g id="Layer 3">
    <path d="M 48.229,41.661 C 46.245,43.468 44.375,45.354 42.617,47.308 L 42.622,47.312 L 42.616,47.308 C 15.867,77.077 15.514,122.911 43.037,153.122 C 53.509,164.618 66.61,172.306 80.592,176.104 C 83.52,176.899 86.488,177.524 89.478,177.978 L 101.413,100.049 L 101.412,178.876 L 101.413,178.876 L 101.413,100.049 L 121.679,23.814 L 121.695,23.752 C 96.635,17.099 68.808,22.913 48.229,41.661 Z" fill="#74cf98" stroke-width="1.5" stroke="#ffffff" marker-start="none" marker-end="none" stroke-miterlimit="79.8403193612775"/>
    <path d="M 122.265,24.986 L 101.999,101.221 L 173.232,67.4 L 173.271,67.381 C 173.054,66.922 172.832,66.465 172.606,66.01 C 171.921,64.633 171.192,63.273 170.422,61.928 C 167.613,57.033 164.232,52.367 160.277,48.025 C 149.694,36.408 136.429,28.68 122.281,24.924 L 122.265,24.986 Z" fill="#b46bd1" stroke-width="0.134" stroke="none" marker-start="none" marker-end="none" stroke-miterlimit="79.8403193612775"/>
    <path d="M 172.646,66.228 L 101.413,100.049 L 179.984,106.48 C 180.826,96.247 179.685,85.864 176.529,75.96 C 175.472,72.647 174.192,69.389 172.685,66.209 L 172.646,66.228 Z" fill="#ed7d31" stroke-width="1.5" stroke="#ffffff" marker-start="none" marker-end="none" stroke-miterlimit="79.8403193612775"/>
    <path d="M 101.413,100.049 L 168.291,141.801 C 175.05,130.987 178.965,118.843 179.984,106.48 L 101.413,100.049 Z" fill="#dfcd3e" stroke-width="1.5" stroke="#ffffff" marker-start="none" marker-end="none" stroke-miterlimit="79.8403193612775"/>
    <path d="M 101.413,100.049 L 101.413,178.876 C 120.218,178.87 139.079,172.187 154.129,158.647 C 154.252,158.537 154.375,158.425 154.498,158.315 C 159.958,153.34 164.559,147.774 168.291,141.802 L 101.413,100.049 Z" fill="#89c7ff" stroke-width="1.5" stroke="#ffffff" marker-start="none" marker-end="none" stroke-miterlimit="79.8403193612775"/>
    <path d="M 101.413,100.049 L 89.478,177.978 C 93.409,178.574 97.38,178.874 101.354,178.876 C 101.373,178.876 101.393,178.876 101.412,178.876 L 101.413,100.049 Z" fill="#970303" stroke-width="1.5" stroke="#ffffff" marker-start="none" marker-end="none" stroke-miterlimit="79.8403193612775"/>
    <path d="M 72.403,126.369 C 86.966,142.354 111.759,143.509 127.745,128.947 C 143.73,114.384 144.885,89.591 130.323,73.605 C 115.76,57.62 90.967,56.465 74.981,71.027 C 58.996,85.59 57.841,110.383 72.403,126.369 Z" fill="#ffffff" stroke="none" stroke-width="0.068" marker-start="none" marker-end="none" stroke-miterlimit="79.8403193612775"/>
    <path d="M 151.073,142.05 L 295.948,142.132" fill="none" stroke="#666666" stroke-width="0.75" stroke-linejoin="round" stroke-linecap="round" stroke-miterlimit="79.8403193612775"/>
    <path d="M 152.391,140.446 C 151.483,139.947 150.341,140.279 149.841,141.186 C 149.342,142.094 149.674,143.236 150.581,143.736 C 151.489,144.235 152.631,143.903 153.131,142.996 C 153.63,142.088 153.298,140.946 152.391,140.446 Z" stroke="none" fill="#666666" stroke-linecap="round" stroke-width="0.11" stroke-linejoin="miter" marker-start="none" marker-end="none" stroke-miterlimit="79.8403193612775"/>
    <text xml:space="preserve" transform="translate(300.716 139.359) scale(1 -1)" font-family="Arial" font-size="8" fill="#333333" stroke-width="0.27" stroke-linejoin="round" stroke-linecap="round" stroke="none" stroke-miterlimit="79.8403193612775"><tspan x="0" y="0">Новые</tspan></text>
    <text xml:space="preserve" transform="translate(327.736 139.359) scale(1 -1)" font-family="Arial" font-size="8" fill="#333333" stroke-width="0.27" stroke-linejoin="round" stroke-linecap="round" stroke="none" stroke-miterlimit="79.8403193612775"><tspan x="0" y="0">16%</tspan></text>
    <path d="M 98.127,165.63 L 295.944,165.712" fill="none" stroke="#666666" stroke-width="0.75" stroke-linejoin="round" stroke-linecap="round" stroke-miterlimit="79.8403193612775"/>
    <path d="M 97.671,164.025 C 96.763,163.526 95.621,163.858 95.121,164.765 C 94.622,165.673 94.954,166.815 95.861,167.315 C 96.769,167.814 97.911,167.482 98.411,166.575 C 98.91,165.667 98.578,164.525 97.671,164.025 Z" stroke="none" fill="#666666" stroke-linecap="round" stroke-width="0.11" stroke-linejoin="miter" marker-start="none" marker-end="none" stroke-miterlimit="79.8403193612775"/>
    <text xml:space="preserve" transform="translate(300.716 162.939) scale(1 -1)" font-family="Arial" font-size="8" fill="#333333" stroke-width="0.27" stroke-linejoin="round" stroke-linecap="round" stroke="none" stroke-miterlimit="79.8403193612775"><tspan x="0" y="0">Отк</tspan><tspan x="13.477" y="0">л</tspan><tspan x="18.235" y="0">онено</tspan></text>
    <text xml:space="preserve" transform="translate(343.737 162.939) scale(1 -1)" font-family="Arial" font-size="8" fill="#333333" stroke-width="0.27" stroke-linejoin="round" stroke-linecap="round" stroke="none" stroke-miterlimit="79.8403193612775"><tspan x="0" y="0">2%</tspan></text>
    <path d="M 164.362,120.403 L 295.944,120.485" fill="none" stroke="#666666" stroke-width="0.75" stroke-linejoin="round" stroke-linecap="round" stroke-miterlimit="79.8403193612775"/>
    <path d="M 163.786,118.799 C 162.878,118.3 161.736,118.632 161.236,119.539 C 160.737,120.447 161.069,121.589 161.976,122.089 C 162.884,122.588 164.026,122.256 164.526,121.349 C 165.025,120.441 164.693,119.299 163.786,118.799 Z" stroke="none" fill="#666666" stroke-linecap="round" stroke-width="0.11" stroke-linejoin="miter" marker-start="none" marker-end="none" stroke-miterlimit="79.8403193612775"/>
    <text xml:space="preserve" transform="translate(300.716 117.712) scale(1 -1)" font-family="Arial" font-size="8" fill="#333333" stroke-width="0.27" stroke-linejoin="round" stroke-linecap="round" stroke="none" stroke-miterlimit="79.8403193612775"><tspan x="0" y="0">Обрабо</tspan><tspan x="28.559" y="0">тк</tspan><tspan x="35.899" y="0">а 8%</tspan></text>
    <path d="M 166.606,90.126 L 295.95,90.208" fill="none" stroke="#666666" stroke-width="0.75" stroke-linejoin="round" stroke-linecap="round" stroke-miterlimit="79.8403193612775"/>
    <path d="M 166.287,88.522 C 165.379,88.023 164.237,88.355 163.737,89.262 C 163.238,90.17 163.57,91.312 164.477,91.812 C 165.385,92.311 166.527,91.979 167.027,91.072 C 167.526,90.164 167.194,89.022 166.287,88.522 Z" stroke="none" fill="#666666" stroke-linecap="round" stroke-width="0.11" stroke-linejoin="miter" marker-start="none" marker-end="none" stroke-miterlimit="79.8403193612775"/>
    <text xml:space="preserve" transform="translate(300.716 87.435) scale(1 -1)" font-family="Arial" font-size="8" fill="#333333" stroke-width="0.27" stroke-linejoin="round" stroke-linecap="round" stroke="none" stroke-miterlimit="79.8403193612775"><tspan x="0" y="0">Сог</tspan><tspan x="12.969" y="0">лас</tspan><tspan x="26.176" y="0">ов</tspan><tspan x="34.786" y="0">ание 8%</tspan></text>
    <path d="M 157.425,61.571 L 295.944,61.653" fill="none" stroke="#666666" stroke-width="0.75" stroke-linejoin="round" stroke-linecap="round" stroke-miterlimit="79.8403193612775"/>
    <path d="M 157.013,59.966 C 156.105,59.467 154.963,59.799 154.463,60.706 C 153.964,61.614 154.296,62.756 155.203,63.256 C 156.111,63.755 157.253,63.423 157.753,62.516 C 158.252,61.608 157.92,60.466 157.013,59.966 Z" stroke="none" fill="#666666" stroke-linecap="round" stroke-width="0.11" stroke-linejoin="miter" marker-start="none" marker-end="none" stroke-miterlimit="79.8403193612775"/>
    <text xml:space="preserve" transform="translate(300.716 58.88) scale(1 -1)" font-family="Arial" font-size="8" fill="#333333" stroke-width="0.27" stroke-linejoin="round" stroke-linecap="round" stroke="none" stroke-miterlimit="79.8403193612775"><tspan x="0" y="0">В рабо</tspan><tspan x="25.313" y="0">т</tspan><tspan x="28.888" y="0">е 13%</tspan></text>
    <path d="M 91.8,39.028 L 295.944,39.11" fill="none" stroke="#666666" stroke-width="0.75" stroke-linejoin="round" stroke-linecap="round" stroke-miterlimit="79.8403193612775"/>
    <path d="M 93.109,37.422 C 92.201,36.923 91.059,37.255 90.559,38.162 C 90.06,39.07 90.392,40.212 91.299,40.712 C 92.207,41.211 93.349,40.879 93.849,39.972 C 94.348,39.064 94.016,37.922 93.109,37.422 Z" stroke="none" fill="#666666" stroke-linecap="round" stroke-width="0.11" stroke-linejoin="miter" marker-start="none" marker-end="none" stroke-miterlimit="79.8403193612775"/>
    <text xml:space="preserve" transform="translate(300.716 36.337) scale(1 -1)" font-family="Arial" font-size="8" fill="#333333" stroke-width="0.27" stroke-linejoin="round" stroke-linecap="round" stroke="none" stroke-miterlimit="79.8403193612775"><tspan x="0" y="0">Выпо</tspan><tspan x="19.692" y="0">лнено 52%</tspan></text>
   </g>
  </g>
 </g>
</svg>
