<?xml version="1.0" standalone="no"?>
<!DOCTYPE svg PUBLIC "-//W3C//DTD SVG 1.1//EN" "http://www.w3.org/Graphics/SVG/1.1/DTD/svg11.dtd">
<!--Generator: Xara Designer (www.xara.com), SVG filter version: 5.0.0.2-->
<svg stroke-width="0.501" stroke-linejoin="bevel" fill-rule="evenodd" xmlns:xlink="http://www.w3.org/1999/xlink" xmlns="http://www.w3.org/2000/svg" version="1.1" overflow="visible" width="459.378pt" height="205.528pt" viewBox="0 0 459.378 205.528">
 <defs>
  <marker id="DefaultArrow2" markerUnits="strokeWidth" viewBox="0 0 1 1" markerWidth="1" markerHeight="1" overflow="visible" orient="auto">
   <!-- REF_ARROW_STRAIGHT (-2) -->
   <g transform="scale(0.0092592592)">
    <!-- 1/108 -->
    <path d="M -9 54 L -9 -54 L 117 0 z"/>
   </g>
  </marker>
  <marker id="DefaultArrow3" markerUnits="strokeWidth" viewBox="0 0 1 1" markerWidth="1" markerHeight="1" overflow="visible" orient="auto">
   <!-- REF_ARROW_ANGLED -->
   <g transform="scale(0.0092592592)">
    <path d="M -27 54 L -9 0 L -27 -54 L 135 0 z"/>
   </g>
  </marker>
  <marker id="DefaultArrow4" markerUnits="strokeWidth" viewBox="0 0 1 1" markerWidth="1" markerHeight="1" overflow="visible" orient="auto">
   <!-- REF_ARROW_ROUNDED -->
   <g transform="scale(0.0092592592)">
    <path d="M -9,0 L -9,-45 C -9,-51.708 2.808,-56.580 9,-54 L 117,-9 C 120.916,-7.369 126.000,-4.242 126,0 C 126,4.242 120.916,7.369 117,9 L 9,54 C 2.808,56.580 -9,51.708 -9,45 z"/>
   </g>
  </marker>
  <marker id="DefaultArrow5" markerUnits="strokeWidth" viewBox="0 0 1 1" markerWidth="1" markerHeight="1" overflow="visible" orient="auto">
   <!-- REF_ARROW_SPOT -->
   <g transform="scale(0.0092592592)">
    <path d="M -54, 0 C -54,29.807 -29.807,54 0,54 C 29.807,54 54,29.807 54,0 C 54,-29.807 29.807,-54 0,-54 C -29.807,-54 -54,-29.807 -54,0 z"/>
   </g>
  </marker>
  <marker id="DefaultArrow6" markerUnits="strokeWidth" viewBox="0 0 1 1" markerWidth="1" markerHeight="1" overflow="visible" orient="auto">
   <!-- REF_ARROW_DIAMOND -->
   <g transform="scale(0.0092592592)">
    <path d="M -63,0 L 0,63 L 63,0 L 0,-63 z"/>
   </g>
  </marker>
  <marker id="DefaultArrow7" markerUnits="strokeWidth" viewBox="0 0 1 1" markerWidth="1" markerHeight="1" overflow="visible" orient="auto">
   <!-- REF_ARROW_FEATHER -->
   <g transform="scale(0.0092592592)">
    <path d="M 18,-54 L 108,-54 L 63,0 L 108,54 L 18, 54 L -36,0 z"/>
   </g>
  </marker>
  <marker id="DefaultArrow8" markerUnits="strokeWidth" viewBox="0 0 1 1" markerWidth="1" markerHeight="1" overflow="visible" orient="auto">
   <!-- REF_ARROW_FEATHER2 -->
   <g transform="scale(0.0092592592)">
    <path d="M -36,0 L 18,-54 L 54,-54 L 18,-18 L 27,-18 L 63,-54 L 99,-54 L 63,-18 L 72,-18 L 108,-54 L 144,-54 L 90,0 L 144,54 L 108,54 L 72,18 L 63,18 L 99,54 L 63,54 L 27,18 L 18,18 L 54,54 L 18,54 z"/>
   </g>
  </marker>
  <marker id="DefaultArrow9" markerUnits="strokeWidth" viewBox="0 0 1 1" markerWidth="1" markerHeight="1" overflow="visible" orient="auto">
   <!-- REF_ARROW_HOLLOWDIAMOND -->
   <g transform="scale(0.0092592592)">
    <path d="M 0,45 L -45,0 L 0, -45 L 45, 0 z M 0, 63 L-63, 0 L 0, -63 L 63, 0 z"/>
   </g>
  </marker>
  <filter id="StainedFilter">
   <feBlend mode="multiply" in2="BackgroundImage" in="SourceGraphic" result="blend"/>
   <feComposite in="blend" in2="SourceAlpha" operator="in" result="comp"/>
  </filter>
  <filter id="BleachFilter">
   <feBlend mode="screen" in2="BackgroundImage" in="SourceGraphic" result="blend"/>
   <feComposite in="blend" in2="SourceAlpha" operator="in" result="comp"/>
  </filter>
  <filter id="InvertTransparencyBitmapFilter">
   <feComponentTransfer>
    <feFuncR type="gamma" amplitude="1.055" exponent=".416666666" offset="-0.055"/>
    <feFuncG type="gamma" amplitude="1.055" exponent=".416666666" offset="-0.055"/>
    <feFuncB type="gamma" amplitude="1.055" exponent=".416666666" offset="-0.055"/>
   </feComponentTransfer>
   <feComponentTransfer>
    <feFuncR type="linear" slope="-1" intercept="1"/>
    <feFuncG type="linear" slope="-1" intercept="1"/>
    <feFuncB type="linear" slope="-1" intercept="1"/>
    <feFuncA type="linear" slope="1" intercept="0"/>
   </feComponentTransfer>
   <feComponentTransfer>
    <feFuncR type="gamma" amplitude="1" exponent="2.4" offset="0"/>
    <feFuncG type="gamma" amplitude="1" exponent="2.4" offset="0"/>
    <feFuncB type="gamma" amplitude="1" exponent="2.4" offset="0"/>
   </feComponentTransfer>
  </filter>
  <linearGradient id="LinearGradient" gradientUnits="userSpaceOnUse" x1="0" y1="0" x2="21.74" y2="0" gradientTransform="translate(150.487 182.995) rotate(92.3172) skewX(1.36984)">
   <stop offset="0" stop-color="#e5e5e5"/>
   <stop offset="1" stop-color="#ffffff"/>
  </linearGradient>
  <linearGradient id="LinearGradient_1" gradientUnits="userSpaceOnUse" x1="0" y1="0" x2="21.74" y2="0" gradientTransform="translate(150.487 182.995) rotate(92.3172) skewX(1.36984)">
   <stop offset="0" stop-color="#e5e5e5"/>
   <stop offset="1" stop-color="#ffffff"/>
  </linearGradient>
 </defs>
 <g id="Document" fill="none" stroke="black" font-family="Times New Roman" font-size="16" transform="scale(1 -1)">
  <g id="Spread" transform="translate(0 -205.528)">
   <g id="Layer 1">
    <path d="M 459.19,205.326 L 0.181,205.326" fill="none" stroke="#4c4c4c" stroke-linecap="square" stroke-linejoin="round" stroke-width="0.375" stroke-miterlimit="79.8403193612775"/>
    <path d="M -0.006,205.094 L -0.006,187.499 L 459.371,187.499 L 459.371,205.094 L -0.006,205.094 Z" stroke="none" stroke-linecap="round" stroke-width="0.75" stroke-linejoin="miter" marker-start="none" marker-end="none" stroke-miterlimit="79.8403193612775" fill="url(#LinearGradient)"/>
    <path d="M 459.202,187.411 L 0.181,187.411" fill="none" stroke="#4c4c4c" stroke-linecap="square" stroke-linejoin="round" stroke-width="0.375" stroke-miterlimit="79.8403193612775"/>
    <text xml:space="preserve" transform="translate(18.141 193.648) scale(1 -1)" fill="#333333" stroke-width="0.27" stroke-linejoin="round" font-size="6" font-family="Arial" stroke-linecap="round" stroke="none" stroke-miterlimit="79.8403193612775"><tspan x="0" y="0">Плановые сре</tspan><tspan x="39.85" y="0">дств</tspan><tspan x="52.221" y="0">а</tspan></text>
    <path d="M 12.158,193.154 C 10.719,192.362 8.909,192.888 8.118,194.326 C 7.326,195.765 7.852,197.575 9.29,198.366 C 10.729,199.158 12.539,198.632 13.33,197.194 C 14.122,195.755 13.596,193.945 12.158,193.154 Z" fill="#3f8cdc" stroke-linecap="round" stroke-width="0.174" stroke="#4c4c4c" stroke-linejoin="miter" marker-start="none" marker-end="none" stroke-miterlimit="79.8403193612775"/>
    <text xml:space="preserve" transform="translate(108.687 193.648) scale(1 -1)" fill="#333333" stroke-width="0.27" stroke-linejoin="round" font-size="6" font-family="Arial" stroke-linecap="round" stroke="none" stroke-miterlimit="79.8403193612775"><tspan x="0" y="0">Фак</tspan><tspan x="10.591" y="0">тические сре</tspan><tspan x="46.678" y="0">дств</tspan><tspan x="59.049" y="0">а</tspan></text>
    <path d="M 102.704,193.154 C 101.265,192.362 99.455,192.888 98.664,194.326 C 97.872,195.765 98.398,197.575 99.836,198.366 C 101.275,199.158 103.085,198.632 103.876,197.194 C 104.668,195.755 104.142,193.945 102.704,193.154 Z" fill="#6fad47" stroke-linecap="round" stroke-width="0.174" stroke="#4c4c4c" stroke-linejoin="miter" marker-start="none" marker-end="none" stroke-miterlimit="79.8403193612775"/>
    <text xml:space="preserve" transform="translate(204.687 193.648) scale(1 -1)" fill="#333333" stroke-width="0.27" stroke-linejoin="round" font-size="6" font-family="Arial" stroke-linecap="round" stroke="none" stroke-miterlimit="79.8403193612775"><tspan x="0" y="0">Перерасх</tspan><tspan x="26.932" y="0">о</tspan><tspan x="30.138" y="0">д сре</tspan><tspan x="44.849" y="0">дств</tspan></text>
    <path d="M 198.704,193.154 C 197.265,192.362 195.455,192.888 194.664,194.326 C 193.872,195.765 194.398,197.575 195.836,198.366 C 197.275,199.158 199.085,198.632 199.876,197.194 C 200.668,195.755 200.142,193.945 198.704,193.154 Z" fill="#970303" stroke-linecap="round" stroke-width="0.174" stroke="#4c4c4c" stroke-linejoin="miter" marker-start="none" marker-end="none" stroke-miterlimit="79.8403193612775"/>
    <g id="Group" stroke-linejoin="round" stroke-linecap="round" stroke="#b2b2b2" stroke-width="0.188" fill="#b2b2b2" stroke-miterlimit="79.8403193612775">
     <path d="M 455.068,32.768 L 35.954,32.368" fill="none"/>
     <path d="M 455.068,48.013 L 35.954,47.613" fill="none"/>
     <path d="M 455.068,63.259 L 35.954,62.859" fill="none"/>
     <path d="M 455.068,78.504 L 35.954,78.105" fill="none"/>
     <path d="M 455.068,93.75 L 35.954,93.351" fill="none"/>
     <path d="M 455.068,108.996 L 35.954,108.596" fill="none"/>
     <path d="M 455.068,124.241 L 35.954,123.842" fill="none"/>
     <path d="M 455.068,139.487 L 35.954,139.088" fill="none"/>
     <path d="M 455.068,154.733 L 35.954,154.334" fill="none"/>
     <path d="M 455.068,169.979 L 35.954,169.58" fill="none"/>
    </g>
    <g id="Group_1" stroke-dasharray="1.504 1.504" stroke-dashoffset="0" stroke-linejoin="round" stroke-linecap="square" stroke="#4c4c4c" stroke-width="0.188" fill="#4c4c4c" stroke-miterlimit="79.8403193612775">
     <path d="M 43.422,172.638 L 43.422,26.892" fill="none"/>
     <path d="M 102.169,172.638 L 102.169,26.892" fill="none"/>
     <path d="M 160.916,172.638 L 160.916,26.892" fill="none"/>
     <path d="M 219.663,172.638 L 219.663,26.892" fill="none"/>
     <path d="M 278.411,172.639 L 278.411,26.893" fill="none"/>
     <path d="M 337.158,172.639 L 337.158,26.893" fill="none"/>
     <path d="M 395.905,172.639 L 395.905,26.893" fill="none"/>
     <path d="M 454.653,172.64 L 454.653,26.894" fill="none"/>
    </g>
    <text xml:space="preserve" transform="translate(71.757 17.806) scale(1 -1)" font-size="8" fill="#4c4c4c" font-family="Arial" stroke-linejoin="round" stroke-linecap="round" stroke="none" stroke-width="0.252" stroke-miterlimit="79.8403193612775"><tspan x="-10.168" y="0">Июнь</tspan></text>
    <text xml:space="preserve" transform="translate(33.409 30.179) scale(1 -1)" font-size="6" fill="#4c4c4c" font-family="Arial" stroke-linejoin="round" stroke-linecap="round" stroke="none" stroke-width="0.252" stroke-miterlimit="79.8403193612775"><tspan x="-3.337" y="0">0</tspan><tspan x="-0.55" y="0" font-weight="bold" text-decoration="underline"> </tspan></text>
    <path d="M 33.976,29.579 L 33.976,29.579" fill="none" marker-end="none" marker-start="none" stroke-linecap="butt" stroke="#4c4c4c" stroke-width="0.3" stroke-miterlimit="79.8403193612775"/>
    <text xml:space="preserve" transform="translate(33.413 76.435) scale(1 -1)" font-size="6" fill="#4c4c4c" font-family="Arial" stroke-linejoin="round" stroke-linecap="round" stroke="none" stroke-width="0.252" stroke-miterlimit="79.8403193612775"><tspan x="-19.882" y="0">3 </tspan><tspan x="-15.978" y="0">м</tspan><tspan x="-12.403" y="0">л</tspan><tspan x="-9.452" y="0">н</tspan><tspan x="-6.688" y="0">. </tspan><tspan x="-4.454" y="0">р</tspan><tspan x="-1.667" y="0">.</tspan><tspan x="-0.55" y="0" font-weight="bold" text-decoration="underline"> </tspan></text>
    <path d="M 33.98,75.835 L 33.98,75.835" fill="none" marker-end="none" marker-start="none" stroke-linecap="butt" stroke="#4c4c4c" stroke-width="0.3" stroke-miterlimit="79.8403193612775"/>
    <text xml:space="preserve" transform="translate(33.414 91.853) scale(1 -1)" font-size="6" fill="#4c4c4c" font-family="Arial" stroke-linejoin="round" stroke-linecap="round" stroke="none" stroke-width="0.252" stroke-miterlimit="79.8403193612775"><tspan x="-19.882" y="0">4 </tspan><tspan x="-15.978" y="0">м</tspan><tspan x="-12.403" y="0">л</tspan><tspan x="-9.452" y="0">н</tspan><tspan x="-6.688" y="0">. </tspan><tspan x="-4.454" y="0">р</tspan><tspan x="-1.667" y="0">.</tspan><tspan x="-0.55" y="0" font-weight="bold" text-decoration="underline"> </tspan></text>
    <path d="M 33.981,91.253 L 33.981,91.253" fill="none" marker-end="none" marker-start="none" stroke-linecap="butt" stroke="#4c4c4c" stroke-width="0.3" stroke-miterlimit="79.8403193612775"/>
    <text xml:space="preserve" transform="translate(33.414 107.061) scale(1 -1)" font-size="6" fill="#4c4c4c" font-family="Arial" stroke-linejoin="round" stroke-linecap="round" stroke="none" stroke-width="0.252" stroke-miterlimit="79.8403193612775"><tspan x="-19.882" y="0">5 </tspan><tspan x="-15.978" y="0">м</tspan><tspan x="-12.403" y="0">л</tspan><tspan x="-9.452" y="0">н</tspan><tspan x="-6.688" y="0">. </tspan><tspan x="-4.454" y="0">р</tspan><tspan x="-1.667" y="0">.</tspan><tspan x="-0.55" y="0" font-weight="bold" text-decoration="underline"> </tspan></text>
    <path d="M 33.981,106.461 L 33.981,106.461" fill="none" marker-end="none" marker-start="none" stroke-linecap="butt" stroke="#4c4c4c" stroke-width="0.3" stroke-miterlimit="79.8403193612775"/>
    <text xml:space="preserve" transform="translate(33.414 122.23) scale(1 -1)" font-size="6" fill="#4c4c4c" font-family="Arial" stroke-linejoin="round" stroke-linecap="round" stroke="none" stroke-width="0.252" stroke-miterlimit="79.8403193612775"><tspan x="-19.882" y="0">6 </tspan><tspan x="-15.978" y="0">м</tspan><tspan x="-12.403" y="0">л</tspan><tspan x="-9.452" y="0">н</tspan><tspan x="-6.688" y="0">. </tspan><tspan x="-4.454" y="0">р</tspan><tspan x="-1.667" y="0">.</tspan><tspan x="-0.55" y="0" font-weight="bold" text-decoration="underline"> </tspan></text>
    <path d="M 33.981,121.63 L 33.981,121.63" fill="none" marker-end="none" marker-start="none" stroke-linecap="butt" stroke="#4c4c4c" stroke-width="0.3" stroke-miterlimit="79.8403193612775"/>
    <text xml:space="preserve" transform="translate(33.414 137.504) scale(1 -1)" font-size="6" fill="#4c4c4c" font-family="Arial" stroke-linejoin="round" stroke-linecap="round" stroke="none" stroke-width="0.252" stroke-miterlimit="79.8403193612775"><tspan x="-19.882" y="0">7 </tspan><tspan x="-15.978" y="0">м</tspan><tspan x="-12.403" y="0">л</tspan><tspan x="-9.452" y="0">н</tspan><tspan x="-6.688" y="0">. </tspan><tspan x="-4.454" y="0">р</tspan><tspan x="-1.667" y="0">.</tspan><tspan x="-0.55" y="0" font-weight="bold" text-decoration="underline"> </tspan></text>
    <path d="M 33.981,136.904 L 33.981,136.904" fill="none" marker-end="none" marker-start="none" stroke-linecap="butt" stroke="#4c4c4c" stroke-width="0.3" stroke-miterlimit="79.8403193612775"/>
    <text xml:space="preserve" transform="translate(33.414 152.895) scale(1 -1)" font-size="6" fill="#4c4c4c" font-family="Arial" stroke-linejoin="round" stroke-linecap="round" stroke="none" stroke-width="0.252" stroke-miterlimit="79.8403193612775"><tspan x="-19.882" y="0">8 </tspan><tspan x="-15.978" y="0">м</tspan><tspan x="-12.403" y="0">л</tspan><tspan x="-9.452" y="0">н</tspan><tspan x="-6.688" y="0">. </tspan><tspan x="-4.454" y="0">р</tspan><tspan x="-1.667" y="0">.</tspan><tspan x="-0.55" y="0" font-weight="bold" text-decoration="underline"> </tspan></text>
    <path d="M 33.981,152.295 L 33.981,152.295" fill="none" marker-end="none" marker-start="none" stroke-linecap="butt" stroke="#4c4c4c" stroke-width="0.3" stroke-miterlimit="79.8403193612775"/>
    <text xml:space="preserve" transform="translate(33.414 167.746) scale(1 -1)" font-size="6" fill="#4c4c4c" font-family="Arial" stroke-linejoin="round" stroke-linecap="round" stroke="none" stroke-width="0.252" stroke-miterlimit="79.8403193612775"><tspan x="-19.882" y="0">9 </tspan><tspan x="-15.978" y="0">м</tspan><tspan x="-12.403" y="0">л</tspan><tspan x="-9.452" y="0">н</tspan><tspan x="-6.688" y="0">. </tspan><tspan x="-4.454" y="0">р</tspan><tspan x="-1.667" y="0">.</tspan><tspan x="-0.55" y="0" font-weight="bold" text-decoration="underline"> </tspan></text>
    <path d="M 33.981,167.146 L 33.981,167.146" fill="none" marker-end="none" marker-start="none" stroke-linecap="butt" stroke="#4c4c4c" stroke-width="0.3" stroke-miterlimit="79.8403193612775"/>
    <text xml:space="preserve" transform="translate(33.414 45.964) scale(1 -1)" font-size="6" fill="#4c4c4c" font-family="Arial" stroke-linejoin="round" stroke-linecap="round" stroke="none" stroke-width="0.252" stroke-miterlimit="79.8403193612775"><tspan x="-19.882" y="0">1 </tspan><tspan x="-15.978" y="0">м</tspan><tspan x="-12.403" y="0">л</tspan><tspan x="-9.452" y="0">н</tspan><tspan x="-6.688" y="0">. </tspan><tspan x="-4.454" y="0">р</tspan><tspan x="-1.667" y="0">.</tspan><tspan x="-0.55" y="0" font-weight="bold" text-decoration="underline"> </tspan></text>
    <path d="M 33.981,45.364 L 33.981,45.364" fill="none" marker-end="none" marker-start="none" stroke-linecap="butt" stroke="#4c4c4c" stroke-width="0.3" stroke-miterlimit="79.8403193612775"/>
    <text xml:space="preserve" transform="translate(33.415 61.323) scale(1 -1)" font-size="6" fill="#4c4c4c" font-family="Arial" stroke-linejoin="round" stroke-linecap="round" stroke="none" stroke-width="0.252" stroke-miterlimit="79.8403193612775"><tspan x="-19.882" y="0">2 </tspan><tspan x="-15.978" y="0">м</tspan><tspan x="-12.403" y="0">л</tspan><tspan x="-9.452" y="0">н</tspan><tspan x="-6.688" y="0">. </tspan><tspan x="-4.454" y="0">р</tspan><tspan x="-1.667" y="0">.</tspan><tspan x="-0.55" y="0" font-weight="bold" text-decoration="underline"> </tspan></text>
    <path d="M 33.982,60.723 L 33.982,60.723" fill="none" marker-end="none" marker-start="none" stroke-linecap="butt" stroke="#4c4c4c" stroke-width="0.3" stroke-miterlimit="79.8403193612775"/>
    <text xml:space="preserve" transform="translate(129.684 17.806) scale(1 -1)" font-size="8" fill="#4c4c4c" font-family="Arial" stroke-linejoin="round" stroke-linecap="round" stroke="none" stroke-width="0.252" stroke-miterlimit="79.8403193612775"><tspan x="-10.205" y="0">Ию</tspan><tspan x="1.37" y="0">ль</tspan></text>
    <text xml:space="preserve" transform="translate(189.686 17.806) scale(1 -1)" font-size="8" fill="#4c4c4c" font-family="Arial" stroke-linejoin="round" stroke-linecap="round" stroke="none" stroke-width="0.252" stroke-miterlimit="79.8403193612775"><tspan x="-12.039" y="0">Авгу</tspan><tspan x="4.376" y="0">ст</tspan></text>
    <text xml:space="preserve" transform="translate(248.186 17.806) scale(1 -1)" font-size="8" fill="#4c4c4c" font-family="Arial" stroke-linejoin="round" stroke-linecap="round" stroke="none" stroke-width="0.252" stroke-miterlimit="79.8403193612775"><tspan x="-17.919" y="0">Сентябрь</tspan></text>
    <text xml:space="preserve" transform="translate(309.697 17.806) scale(1 -1)" font-size="8" fill="#4c4c4c" font-family="Arial" stroke-linejoin="round" stroke-linecap="round" stroke="none" stroke-width="0.252" stroke-miterlimit="79.8403193612775"><tspan x="-15.504" y="0">Ок</tspan><tspan x="-5.691" y="0">тябрь</tspan></text>
    <text xml:space="preserve" transform="translate(365.848 17.806) scale(1 -1)" font-size="8" fill="#4c4c4c" font-family="Arial" stroke-linejoin="round" stroke-linecap="round" stroke="none" stroke-width="0.252" stroke-miterlimit="79.8403193612775"><tspan x="-13.878" y="0">Ноябрь</tspan></text>
    <text xml:space="preserve" transform="translate(426.459 17.806) scale(1 -1)" font-size="8" fill="#4c4c4c" font-family="Arial" stroke-linejoin="round" stroke-linecap="round" stroke="none" stroke-width="0.252" stroke-miterlimit="79.8403193612775"><tspan x="-15.595" y="0">Дек</tspan><tspan x="-2.052" y="0">абрь</tspan></text>
    <path d="M 57.048,98.852 L 57.048,32.673 L 89.097,32.673 L 89.097,98.852 L 57.048,98.852 Z" fill="#6fad47" stroke="none" stroke-linecap="round" stroke-width="0.375" stroke-linejoin="miter" marker-start="none" marker-end="none" stroke-miterlimit="79.8403193612775"/>
    <path d="M 115.252,92.782 L 115.252,32.673 L 147.301,32.673 L 147.301,92.782 L 115.252,92.782 Z" fill="#6fad47" stroke="none" stroke-linecap="round" stroke-width="0.375" stroke-linejoin="miter" marker-start="none" marker-end="none" stroke-miterlimit="79.8403193612775"/>
    <path d="M 115.253,109.989 L 115.253,92.316 L 147.302,92.316 L 147.302,109.989 L 115.253,109.989 Z" fill="#3f8cdc" stroke="none" stroke-linecap="round" stroke-width="0.375" stroke-linejoin="miter" marker-start="none" marker-end="none" stroke-miterlimit="79.8403193612775"/>
    <path d="M 173.497,147.238 L 173.497,32.673 L 205.546,32.673 L 205.546,147.238 L 173.497,147.238 Z" fill="#6fad47" stroke="none" stroke-linecap="round" stroke-width="0.375" stroke-linejoin="miter" marker-start="none" marker-end="none" stroke-miterlimit="79.8403193612775"/>
    <path d="M 232.064,110.623 L 232.064,32.674 L 264.113,32.674 L 264.113,110.623 L 232.064,110.623 Z" fill="#6fad47" stroke="none" stroke-linecap="round" stroke-width="0.375" stroke-linejoin="miter" marker-start="none" marker-end="none" stroke-miterlimit="79.8403193612775"/>
    <path d="M 289.075,40.754 L 289.075,32.673 L 321.124,32.673 L 321.124,40.754 L 289.075,40.754 Z" fill="#6fad47" stroke="none" stroke-linecap="round" stroke-width="0.375" stroke-linejoin="miter" marker-start="none" marker-end="none" stroke-miterlimit="79.8403193612775"/>
    <path d="M 289.076,43.379 L 289.076,40.05 L 321.125,40.05 L 321.125,43.379 L 289.076,43.379 Z" fill="#3f8cdc" stroke="none" stroke-linecap="round" stroke-width="0.375" stroke-linejoin="miter" marker-start="none" marker-end="none" stroke-miterlimit="79.8403193612775"/>
    <path d="M 350.034,96.611 L 350.034,32.674 L 382.083,32.674 L 382.083,96.611 L 350.034,96.611 Z" fill="#6fad47" stroke="none" stroke-linecap="round" stroke-width="0.375" stroke-linejoin="miter" marker-start="none" marker-end="none" stroke-miterlimit="79.8403193612775"/>
    <path d="M 350.035,100.078 L 350.035,96.279 L 382.084,96.279 L 382.084,100.078 L 350.035,100.078 Z" fill="#970303" stroke="none" stroke-linecap="round" stroke-width="0.375" stroke-linejoin="miter" marker-start="none" marker-end="none" stroke-miterlimit="79.8403193612775"/>
    <path d="M 408.132,43.705 L 408.132,32.674 L 440.181,32.674 L 440.181,43.705 L 408.132,43.705 Z" fill="#6fad47" stroke="none" stroke-linecap="round" stroke-width="0.375" stroke-linejoin="miter" marker-start="none" marker-end="none" stroke-miterlimit="79.8403193612775"/>
    <path d="M 408.133,56.314 L 408.133,43.017 L 440.182,43.017 L 440.182,56.314 L 408.133,56.314 Z" fill="#3f8cdc" stroke="none" stroke-linecap="round" stroke-width="0.375" stroke-linejoin="miter" marker-start="none" marker-end="none" stroke-miterlimit="79.8403193612775"/>
   </g>
  </g>
 </g>
</svg>
