<?xml version="1.0" standalone="no"?>
<!DOCTYPE svg PUBLIC "-//W3C//DTD SVG 1.1//EN" "http://www.w3.org/Graphics/SVG/1.1/DTD/svg11.dtd">
<!--Generator: Xara Designer (www.xara.com), SVG filter version: 5.0.0.2-->
<svg stroke-width="0.501" stroke-linejoin="bevel" fill-rule="evenodd" xmlns:xlink="http://www.w3.org/1999/xlink" xmlns="http://www.w3.org/2000/svg" version="1.1" overflow="visible" width="459.378pt" height="205.528pt" viewBox="0 0 459.378 205.528">
 <defs>
  <marker id="DefaultArrow2" markerUnits="strokeWidth" viewBox="0 0 1 1" markerWidth="1" markerHeight="1" overflow="visible" orient="auto">
   <!-- REF_ARROW_STRAIGHT (-2) -->
   <g transform="scale(0.0092592592)">
    <!-- 1/108 -->
    <path d="M -9 54 L -9 -54 L 117 0 z"/>
   </g>
  </marker>
  <marker id="DefaultArrow3" markerUnits="strokeWidth" viewBox="0 0 1 1" markerWidth="1" markerHeight="1" overflow="visible" orient="auto">
   <!-- REF_ARROW_ANGLED -->
   <g transform="scale(0.0092592592)">
    <path d="M -27 54 L -9 0 L -27 -54 L 135 0 z"/>
   </g>
  </marker>
  <marker id="DefaultArrow4" markerUnits="strokeWidth" viewBox="0 0 1 1" markerWidth="1" markerHeight="1" overflow="visible" orient="auto">
   <!-- REF_ARROW_ROUNDED -->
   <g transform="scale(0.0092592592)">
    <path d="M -9,0 L -9,-45 C -9,-51.708 2.808,-56.580 9,-54 L 117,-9 C 120.916,-7.369 126.000,-4.242 126,0 C 126,4.242 120.916,7.369 117,9 L 9,54 C 2.808,56.580 -9,51.708 -9,45 z"/>
   </g>
  </marker>
  <marker id="DefaultArrow5" markerUnits="strokeWidth" viewBox="0 0 1 1" markerWidth="1" markerHeight="1" overflow="visible" orient="auto">
   <!-- REF_ARROW_SPOT -->
   <g transform="scale(0.0092592592)">
    <path d="M -54, 0 C -54,29.807 -29.807,54 0,54 C 29.807,54 54,29.807 54,0 C 54,-29.807 29.807,-54 0,-54 C -29.807,-54 -54,-29.807 -54,0 z"/>
   </g>
  </marker>
  <marker id="DefaultArrow6" markerUnits="strokeWidth" viewBox="0 0 1 1" markerWidth="1" markerHeight="1" overflow="visible" orient="auto">
   <!-- REF_ARROW_DIAMOND -->
   <g transform="scale(0.0092592592)">
    <path d="M -63,0 L 0,63 L 63,0 L 0,-63 z"/>
   </g>
  </marker>
  <marker id="DefaultArrow7" markerUnits="strokeWidth" viewBox="0 0 1 1" markerWidth="1" markerHeight="1" overflow="visible" orient="auto">
   <!-- REF_ARROW_FEATHER -->
   <g transform="scale(0.0092592592)">
    <path d="M 18,-54 L 108,-54 L 63,0 L 108,54 L 18, 54 L -36,0 z"/>
   </g>
  </marker>
  <marker id="DefaultArrow8" markerUnits="strokeWidth" viewBox="0 0 1 1" markerWidth="1" markerHeight="1" overflow="visible" orient="auto">
   <!-- REF_ARROW_FEATHER2 -->
   <g transform="scale(0.0092592592)">
    <path d="M -36,0 L 18,-54 L 54,-54 L 18,-18 L 27,-18 L 63,-54 L 99,-54 L 63,-18 L 72,-18 L 108,-54 L 144,-54 L 90,0 L 144,54 L 108,54 L 72,18 L 63,18 L 99,54 L 63,54 L 27,18 L 18,18 L 54,54 L 18,54 z"/>
   </g>
  </marker>
  <marker id="DefaultArrow9" markerUnits="strokeWidth" viewBox="0 0 1 1" markerWidth="1" markerHeight="1" overflow="visible" orient="auto">
   <!-- REF_ARROW_HOLLOWDIAMOND -->
   <g transform="scale(0.0092592592)">
    <path d="M 0,45 L -45,0 L 0, -45 L 45, 0 z M 0, 63 L-63, 0 L 0, -63 L 63, 0 z"/>
   </g>
  </marker>
  <filter id="StainedFilter">
   <feBlend mode="multiply" in2="BackgroundImage" in="SourceGraphic" result="blend"/>
   <feComposite in="blend" in2="SourceAlpha" operator="in" result="comp"/>
  </filter>
  <filter id="BleachFilter">
   <feBlend mode="screen" in2="BackgroundImage" in="SourceGraphic" result="blend"/>
   <feComposite in="blend" in2="SourceAlpha" operator="in" result="comp"/>
  </filter>
  <filter id="InvertTransparencyBitmapFilter">
   <feComponentTransfer>
    <feFuncR type="gamma" amplitude="1.055" exponent=".416666666" offset="-0.055"/>
    <feFuncG type="gamma" amplitude="1.055" exponent=".416666666" offset="-0.055"/>
    <feFuncB type="gamma" amplitude="1.055" exponent=".416666666" offset="-0.055"/>
   </feComponentTransfer>
   <feComponentTransfer>
    <feFuncR type="linear" slope="-1" intercept="1"/>
    <feFuncG type="linear" slope="-1" intercept="1"/>
    <feFuncB type="linear" slope="-1" intercept="1"/>
    <feFuncA type="linear" slope="1" intercept="0"/>
   </feComponentTransfer>
   <feComponentTransfer>
    <feFuncR type="gamma" amplitude="1" exponent="2.4" offset="0"/>
    <feFuncG type="gamma" amplitude="1" exponent="2.4" offset="0"/>
    <feFuncB type="gamma" amplitude="1" exponent="2.4" offset="0"/>
   </feComponentTransfer>
  </filter>
  <linearGradient id="LinearGradient" gradientUnits="userSpaceOnUse" x1="0" y1="0" x2="21.74" y2="0" gradientTransform="translate(150.487 182.995) rotate(92.3172) skewX(1.36984)">
   <stop offset="0" stop-color="#e5e5e5"/>
   <stop offset="1" stop-color="#ffffff"/>
  </linearGradient>
  <linearGradient id="LinearGradient_1" gradientUnits="userSpaceOnUse" x1="0" y1="0" x2="21.74" y2="0" gradientTransform="translate(150.487 182.995) rotate(92.3172) skewX(1.36984)">
   <stop offset="0" stop-color="#e5e5e5"/>
   <stop offset="1" stop-color="#ffffff"/>
  </linearGradient>
 </defs>
 <g id="Document" fill="none" stroke="black" font-family="Times New Roman" font-size="16" transform="scale(1 -1)">
  <g id="Spread" transform="translate(0 -205.528)">
   <g id="Layer 1">
    <path d="M 459.19,205.326 L 0.181,205.326" fill="none" stroke="#4c4c4c" stroke-linecap="square" stroke-linejoin="round" stroke-width="0.375" stroke-miterlimit="79.8403193612775"/>
    <path d="M -0.006,205.094 L -0.006,187.499 L 459.371,187.499 L 459.371,205.094 L -0.006,205.094 Z" stroke="none" stroke-linecap="round" stroke-width="0.75" stroke-linejoin="miter" marker-start="none" marker-end="none" stroke-miterlimit="79.8403193612775" fill="url(#LinearGradient)"/>
    <path d="M 459.202,187.411 L 0.181,187.411" fill="none" stroke="#4c4c4c" stroke-linecap="square" stroke-linejoin="round" stroke-width="0.375" stroke-miterlimit="79.8403193612775"/>
    <text xml:space="preserve" transform="translate(18.141 193.648) scale(1 -1)" fill="#333333" stroke-width="0.27" stroke-linejoin="round" font-size="6" font-family="Arial" stroke-linecap="round" stroke="none" stroke-miterlimit="79.8403193612775"><tspan x="0" y="0">Плановые сре</tspan><tspan x="39.85" y="0">дств</tspan><tspan x="52.221" y="0">а</tspan></text>
    <path d="M 12.158,193.154 C 10.719,192.362 8.909,192.888 8.118,194.326 C 7.326,195.765 7.852,197.575 9.29,198.366 C 10.729,199.158 12.539,198.632 13.33,197.194 C 14.122,195.755 13.596,193.945 12.158,193.154 Z" fill="#3f8cdc" stroke-linecap="round" stroke-width="0.174" stroke="#4c4c4c" stroke-linejoin="miter" marker-start="none" marker-end="none" stroke-miterlimit="79.8403193612775"/>
    <text xml:space="preserve" transform="translate(108.687 193.648) scale(1 -1)" fill="#333333" stroke-width="0.27" stroke-linejoin="round" font-size="6" font-family="Arial" stroke-linecap="round" stroke="none" stroke-miterlimit="79.8403193612775"><tspan x="0" y="0">Фак</tspan><tspan x="10.591" y="0">тические сре</tspan><tspan x="46.678" y="0">дств</tspan><tspan x="59.049" y="0">а</tspan></text>
    <path d="M 102.704,193.154 C 101.265,192.362 99.455,192.888 98.664,194.326 C 97.872,195.765 98.398,197.575 99.836,198.366 C 101.275,199.158 103.085,198.632 103.876,197.194 C 104.668,195.755 104.142,193.945 102.704,193.154 Z" fill="#6fad47" stroke-linecap="round" stroke-width="0.174" stroke="#4c4c4c" stroke-linejoin="miter" marker-start="none" marker-end="none" stroke-miterlimit="79.8403193612775"/>
    <text xml:space="preserve" transform="translate(204.687 193.648) scale(1 -1)" fill="#333333" stroke-width="0.27" stroke-linejoin="round" font-size="6" font-family="Arial" stroke-linecap="round" stroke="none" stroke-miterlimit="79.8403193612775"><tspan x="0" y="0">Перерасх</tspan><tspan x="26.932" y="0">о</tspan><tspan x="30.138" y="0">д сре</tspan><tspan x="44.849" y="0">дств</tspan></text>
    <path d="M 198.704,193.154 C 197.265,192.362 195.455,192.888 194.664,194.326 C 193.872,195.765 194.398,197.575 195.836,198.366 C 197.275,199.158 199.085,198.632 199.876,197.194 C 200.668,195.755 200.142,193.945 198.704,193.154 Z" fill="#970303" stroke-linecap="round" stroke-width="0.174" stroke="#4c4c4c" stroke-linejoin="miter" marker-start="none" marker-end="none" stroke-miterlimit="79.8403193612775"/>
   </g>
   <g id="Layer 2">
    <g id="Group" stroke-linejoin="round" stroke-linecap="round" stroke="#b2b2b2" stroke-width="0.188" fill="#b2b2b2" stroke-miterlimit="79.8403193612775">
     <path d="M 455.095,32.751 L 35.981,32.351" fill="none"/>
     <path d="M 455.095,47.996 L 35.981,47.596" fill="none"/>
     <path d="M 455.095,63.242 L 35.981,62.842" fill="none"/>
     <path d="M 455.095,78.487 L 35.981,78.088" fill="none"/>
     <path d="M 455.095,93.733 L 35.981,93.334" fill="none"/>
     <path d="M 455.095,108.979 L 35.981,108.579" fill="none"/>
     <path d="M 455.095,124.224 L 35.981,123.825" fill="none"/>
     <path d="M 455.095,139.47 L 35.981,139.071" fill="none"/>
     <path d="M 455.095,154.716 L 35.981,154.317" fill="none"/>
     <path d="M 455.095,169.962 L 35.981,169.563" fill="none"/>
    </g>
    <g id="Group_1" stroke-dasharray="1.504 1.504" stroke-dashoffset="0" stroke-linejoin="round" stroke-linecap="square" stroke="#4c4c4c" stroke-width="0.188" fill="#4c4c4c" stroke-miterlimit="79.8403193612775">
     <path d="M 43.449,172.621 L 43.449,26.875" fill="none"/>
     <path d="M 102.196,172.621 L 102.196,26.875" fill="none"/>
     <path d="M 160.943,172.621 L 160.943,26.875" fill="none"/>
     <path d="M 219.69,172.621 L 219.69,26.875" fill="none"/>
     <path d="M 278.438,172.622 L 278.438,26.876" fill="none"/>
     <path d="M 337.185,172.622 L 337.185,26.876" fill="none"/>
     <path d="M 395.932,172.622 L 395.932,26.876" fill="none"/>
     <path d="M 454.68,172.623 L 454.68,26.877" fill="none"/>
    </g>
    <text xml:space="preserve" transform="translate(71.784 17.789) scale(1 -1)" font-size="8" fill="#4c4c4c" font-family="Arial" stroke-linejoin="round" stroke-linecap="round" stroke="none" stroke-width="0.252" stroke-miterlimit="79.8403193612775"><tspan x="-10.168" y="0">Июнь</tspan></text>
    <text xml:space="preserve" transform="translate(33.436 30.162) scale(1 -1)" font-size="6" fill="#4c4c4c" font-family="Arial" stroke-linejoin="round" stroke-linecap="round" stroke="none" stroke-width="0.252" stroke-miterlimit="79.8403193612775"><tspan x="-3.337" y="0">0</tspan><tspan x="-0.55" y="0" font-weight="bold" text-decoration="underline"> </tspan></text>
    <path d="M 34.003,29.562 L 34.003,29.562" fill="none" marker-end="none" marker-start="none" stroke-linecap="butt" stroke="#4c4c4c" stroke-width="0.3" stroke-miterlimit="79.8403193612775"/>
    <text xml:space="preserve" transform="translate(33.44 76.418) scale(1 -1)" font-size="6" fill="#4c4c4c" font-family="Arial" stroke-linejoin="round" stroke-linecap="round" stroke="none" stroke-width="0.252" stroke-miterlimit="79.8403193612775"><tspan x="-19.882" y="0">3 </tspan><tspan x="-15.978" y="0">м</tspan><tspan x="-12.403" y="0">л</tspan><tspan x="-9.452" y="0">н</tspan><tspan x="-6.688" y="0">. </tspan><tspan x="-4.454" y="0">р</tspan><tspan x="-1.667" y="0">.</tspan><tspan x="-0.55" y="0" font-weight="bold" text-decoration="underline"> </tspan></text>
    <path d="M 34.007,75.818 L 34.007,75.818" fill="none" marker-end="none" marker-start="none" stroke-linecap="butt" stroke="#4c4c4c" stroke-width="0.3" stroke-miterlimit="79.8403193612775"/>
    <text xml:space="preserve" transform="translate(33.441 91.836) scale(1 -1)" font-size="6" fill="#4c4c4c" font-family="Arial" stroke-linejoin="round" stroke-linecap="round" stroke="none" stroke-width="0.252" stroke-miterlimit="79.8403193612775"><tspan x="-19.882" y="0">4 </tspan><tspan x="-15.978" y="0">м</tspan><tspan x="-12.403" y="0">л</tspan><tspan x="-9.452" y="0">н</tspan><tspan x="-6.688" y="0">. </tspan><tspan x="-4.454" y="0">р</tspan><tspan x="-1.667" y="0">.</tspan><tspan x="-0.55" y="0" font-weight="bold" text-decoration="underline"> </tspan></text>
    <path d="M 34.008,91.236 L 34.008,91.236" fill="none" marker-end="none" marker-start="none" stroke-linecap="butt" stroke="#4c4c4c" stroke-width="0.3" stroke-miterlimit="79.8403193612775"/>
    <text xml:space="preserve" transform="translate(33.441 107.044) scale(1 -1)" font-size="6" fill="#4c4c4c" font-family="Arial" stroke-linejoin="round" stroke-linecap="round" stroke="none" stroke-width="0.252" stroke-miterlimit="79.8403193612775"><tspan x="-19.882" y="0">5 </tspan><tspan x="-15.978" y="0">м</tspan><tspan x="-12.403" y="0">л</tspan><tspan x="-9.452" y="0">н</tspan><tspan x="-6.688" y="0">. </tspan><tspan x="-4.454" y="0">р</tspan><tspan x="-1.667" y="0">.</tspan><tspan x="-0.55" y="0" font-weight="bold" text-decoration="underline"> </tspan></text>
    <path d="M 34.008,106.444 L 34.008,106.444" fill="none" marker-end="none" marker-start="none" stroke-linecap="butt" stroke="#4c4c4c" stroke-width="0.3" stroke-miterlimit="79.8403193612775"/>
    <text xml:space="preserve" transform="translate(33.441 122.213) scale(1 -1)" font-size="6" fill="#4c4c4c" font-family="Arial" stroke-linejoin="round" stroke-linecap="round" stroke="none" stroke-width="0.252" stroke-miterlimit="79.8403193612775"><tspan x="-19.882" y="0">6 </tspan><tspan x="-15.978" y="0">м</tspan><tspan x="-12.403" y="0">л</tspan><tspan x="-9.452" y="0">н</tspan><tspan x="-6.688" y="0">. </tspan><tspan x="-4.454" y="0">р</tspan><tspan x="-1.667" y="0">.</tspan><tspan x="-0.55" y="0" font-weight="bold" text-decoration="underline"> </tspan></text>
    <path d="M 34.008,121.613 L 34.008,121.613" fill="none" marker-end="none" marker-start="none" stroke-linecap="butt" stroke="#4c4c4c" stroke-width="0.3" stroke-miterlimit="79.8403193612775"/>
    <text xml:space="preserve" transform="translate(33.441 137.487) scale(1 -1)" font-size="6" fill="#4c4c4c" font-family="Arial" stroke-linejoin="round" stroke-linecap="round" stroke="none" stroke-width="0.252" stroke-miterlimit="79.8403193612775"><tspan x="-19.882" y="0">7 </tspan><tspan x="-15.978" y="0">м</tspan><tspan x="-12.403" y="0">л</tspan><tspan x="-9.452" y="0">н</tspan><tspan x="-6.688" y="0">. </tspan><tspan x="-4.454" y="0">р</tspan><tspan x="-1.667" y="0">.</tspan><tspan x="-0.55" y="0" font-weight="bold" text-decoration="underline"> </tspan></text>
    <path d="M 34.008,136.887 L 34.008,136.887" fill="none" marker-end="none" marker-start="none" stroke-linecap="butt" stroke="#4c4c4c" stroke-width="0.3" stroke-miterlimit="79.8403193612775"/>
    <text xml:space="preserve" transform="translate(33.441 152.878) scale(1 -1)" font-size="6" fill="#4c4c4c" font-family="Arial" stroke-linejoin="round" stroke-linecap="round" stroke="none" stroke-width="0.252" stroke-miterlimit="79.8403193612775"><tspan x="-19.882" y="0">8 </tspan><tspan x="-15.978" y="0">м</tspan><tspan x="-12.403" y="0">л</tspan><tspan x="-9.452" y="0">н</tspan><tspan x="-6.688" y="0">. </tspan><tspan x="-4.454" y="0">р</tspan><tspan x="-1.667" y="0">.</tspan><tspan x="-0.55" y="0" font-weight="bold" text-decoration="underline"> </tspan></text>
    <path d="M 34.008,152.278 L 34.008,152.278" fill="none" marker-end="none" marker-start="none" stroke-linecap="butt" stroke="#4c4c4c" stroke-width="0.3" stroke-miterlimit="79.8403193612775"/>
    <text xml:space="preserve" transform="translate(33.441 167.729) scale(1 -1)" font-size="6" fill="#4c4c4c" font-family="Arial" stroke-linejoin="round" stroke-linecap="round" stroke="none" stroke-width="0.252" stroke-miterlimit="79.8403193612775"><tspan x="-19.882" y="0">9 </tspan><tspan x="-15.978" y="0">м</tspan><tspan x="-12.403" y="0">л</tspan><tspan x="-9.452" y="0">н</tspan><tspan x="-6.688" y="0">. </tspan><tspan x="-4.454" y="0">р</tspan><tspan x="-1.667" y="0">.</tspan><tspan x="-0.55" y="0" font-weight="bold" text-decoration="underline"> </tspan></text>
    <path d="M 34.008,167.129 L 34.008,167.129" fill="none" marker-end="none" marker-start="none" stroke-linecap="butt" stroke="#4c4c4c" stroke-width="0.3" stroke-miterlimit="79.8403193612775"/>
    <text xml:space="preserve" transform="translate(33.441 45.947) scale(1 -1)" font-size="6" fill="#4c4c4c" font-family="Arial" stroke-linejoin="round" stroke-linecap="round" stroke="none" stroke-width="0.252" stroke-miterlimit="79.8403193612775"><tspan x="-19.882" y="0">1 </tspan><tspan x="-15.978" y="0">м</tspan><tspan x="-12.403" y="0">л</tspan><tspan x="-9.452" y="0">н</tspan><tspan x="-6.688" y="0">. </tspan><tspan x="-4.454" y="0">р</tspan><tspan x="-1.667" y="0">.</tspan><tspan x="-0.55" y="0" font-weight="bold" text-decoration="underline"> </tspan></text>
    <path d="M 34.008,45.347 L 34.008,45.347" fill="none" marker-end="none" marker-start="none" stroke-linecap="butt" stroke="#4c4c4c" stroke-width="0.3" stroke-miterlimit="79.8403193612775"/>
    <text xml:space="preserve" transform="translate(33.442 61.306) scale(1 -1)" font-size="6" fill="#4c4c4c" font-family="Arial" stroke-linejoin="round" stroke-linecap="round" stroke="none" stroke-width="0.252" stroke-miterlimit="79.8403193612775"><tspan x="-19.882" y="0">2 </tspan><tspan x="-15.978" y="0">м</tspan><tspan x="-12.403" y="0">л</tspan><tspan x="-9.452" y="0">н</tspan><tspan x="-6.688" y="0">. </tspan><tspan x="-4.454" y="0">р</tspan><tspan x="-1.667" y="0">.</tspan><tspan x="-0.55" y="0" font-weight="bold" text-decoration="underline"> </tspan></text>
    <path d="M 34.009,60.706 L 34.009,60.706" fill="none" marker-end="none" marker-start="none" stroke-linecap="butt" stroke="#4c4c4c" stroke-width="0.3" stroke-miterlimit="79.8403193612775"/>
    <text xml:space="preserve" transform="translate(129.711 17.789) scale(1 -1)" font-size="8" fill="#4c4c4c" font-family="Arial" stroke-linejoin="round" stroke-linecap="round" stroke="none" stroke-width="0.252" stroke-miterlimit="79.8403193612775"><tspan x="-10.205" y="0">Ию</tspan><tspan x="1.37" y="0">ль</tspan></text>
    <text xml:space="preserve" transform="translate(189.713 17.789) scale(1 -1)" font-size="8" fill="#4c4c4c" font-family="Arial" stroke-linejoin="round" stroke-linecap="round" stroke="none" stroke-width="0.252" stroke-miterlimit="79.8403193612775"><tspan x="-12.039" y="0">Авгу</tspan><tspan x="4.376" y="0">ст</tspan></text>
    <text xml:space="preserve" transform="translate(248.213 17.789) scale(1 -1)" font-size="8" fill="#4c4c4c" font-family="Arial" stroke-linejoin="round" stroke-linecap="round" stroke="none" stroke-width="0.252" stroke-miterlimit="79.8403193612775"><tspan x="-17.919" y="0">Сентябрь</tspan></text>
    <text xml:space="preserve" transform="translate(309.724 17.789) scale(1 -1)" font-size="8" fill="#4c4c4c" font-family="Arial" stroke-linejoin="round" stroke-linecap="round" stroke="none" stroke-width="0.252" stroke-miterlimit="79.8403193612775"><tspan x="-15.504" y="0">Ок</tspan><tspan x="-5.691" y="0">тябрь</tspan></text>
    <text xml:space="preserve" transform="translate(365.875 17.789) scale(1 -1)" font-size="8" fill="#4c4c4c" font-family="Arial" stroke-linejoin="round" stroke-linecap="round" stroke="none" stroke-width="0.252" stroke-miterlimit="79.8403193612775"><tspan x="-13.878" y="0">Ноябрь</tspan></text>
    <text xml:space="preserve" transform="translate(426.486 17.789) scale(1 -1)" font-size="8" fill="#4c4c4c" font-family="Arial" stroke-linejoin="round" stroke-linecap="round" stroke="none" stroke-width="0.252" stroke-miterlimit="79.8403193612775"><tspan x="-15.595" y="0">Дек</tspan><tspan x="-2.052" y="0">абрь</tspan></text>
    <path d="M 57.075,86.535 L 57.075,32.656 L 89.124,32.656 L 89.124,86.535 L 57.075,86.535 Z" fill="#6fad47" stroke="none" stroke-linecap="round" stroke-width="0.375" stroke-linejoin="miter" marker-start="none" marker-end="none" stroke-miterlimit="79.8403193612775"/>
    <path d="M 115.279,81.665 L 115.279,32.656 L 147.328,32.656 L 147.328,81.665 L 115.279,81.665 Z" fill="#6fad47" stroke="none" stroke-linecap="round" stroke-width="0.375" stroke-linejoin="miter" marker-start="none" marker-end="none" stroke-miterlimit="79.8403193612775"/>
    <path d="M 115.28,109.972 L 115.28,81.499 L 147.329,81.499 L 147.329,109.972 L 115.28,109.972 Z" fill="#3f8cdc" stroke="none" stroke-linecap="round" stroke-width="0.375" stroke-linejoin="miter" marker-start="none" marker-end="none" stroke-miterlimit="79.8403193612775"/>
    <path d="M 173.524,113.022 L 173.524,32.655 L 205.573,32.655 L 205.573,113.022 L 173.524,113.022 Z" fill="#6fad47" stroke="none" stroke-linecap="round" stroke-width="0.375" stroke-linejoin="miter" marker-start="none" marker-end="none" stroke-miterlimit="79.8403193612775"/>
    <path d="M 232.091,103.706 L 232.091,32.657 L 264.14,32.657 L 264.14,103.706 L 232.091,103.706 Z" fill="#6fad47" stroke="none" stroke-linecap="round" stroke-width="0.375" stroke-linejoin="miter" marker-start="none" marker-end="none" stroke-miterlimit="79.8403193612775"/>
    <path d="M 289.102,64.738 L 289.102,32.657 L 321.151,32.657 L 321.151,64.738 L 289.102,64.738 Z" fill="#6fad47" stroke="none" stroke-linecap="round" stroke-width="0.375" stroke-linejoin="miter" marker-start="none" marker-end="none" stroke-miterlimit="79.8403193612775"/>
    <path d="M 289.104,67.518 L 289.104,64.189 L 321.153,64.189 L 321.153,67.518 L 289.104,67.518 Z" fill="#970303" stroke="none" stroke-linecap="round" stroke-width="0.375" stroke-linejoin="miter" marker-start="none" marker-end="none" stroke-miterlimit="79.8403193612775"/>
    <path d="M 350.061,58.794 L 350.061,32.657 L 382.11,32.657 L 382.11,58.794 L 350.061,58.794 Z" fill="#6fad47" stroke="none" stroke-linecap="round" stroke-width="0.375" stroke-linejoin="miter" marker-start="none" marker-end="none" stroke-miterlimit="79.8403193612775"/>
    <path d="M 350.062,66.461 L 350.062,58.764 L 382.111,58.764 L 382.111,66.461 L 350.062,66.461 Z" fill="#970303" stroke="none" stroke-linecap="round" stroke-width="0.375" stroke-linejoin="miter" marker-start="none" marker-end="none" stroke-miterlimit="79.8403193612775"/>
    <path d="M 408.159,59.288 L 408.159,32.659 L 440.208,32.659 L 440.208,59.288 L 408.159,59.288 Z" fill="#6fad47" stroke="none" stroke-linecap="round" stroke-width="0.375" stroke-linejoin="miter" marker-start="none" marker-end="none" stroke-miterlimit="79.8403193612775"/>
    <path d="M 408.161,72.222 L 408.161,58.925 L 440.21,58.925 L 440.21,72.222 L 408.161,72.222 Z" fill="#3f8cdc" stroke="none" stroke-linecap="round" stroke-width="0.375" stroke-linejoin="miter" marker-start="none" marker-end="none" stroke-miterlimit="79.8403193612775"/>
    <path d="M 173.524,119.933 L 173.524,112.766 L 205.573,112.766 L 205.573,119.933 L 173.524,119.933 Z" fill="#3f8cdc" stroke="none" stroke-linecap="round" stroke-width="0.375" stroke-linejoin="miter" marker-start="none" marker-end="none" stroke-miterlimit="79.8403193612775"/>
    <path d="M 232.091,106.269 L 232.091,102.72 L 264.14,102.72 L 264.14,106.269 L 232.091,106.269 Z" fill="#3f8cdc" stroke="none" stroke-linecap="round" stroke-width="0.375" stroke-linejoin="miter" marker-start="none" marker-end="none" stroke-miterlimit="79.8403193612775"/>
   </g>
  </g>
 </g>
</svg>
