<?xml version="1.0" standalone="no"?>
<!DOCTYPE svg PUBLIC "-//W3C//DTD SVG 1.1//EN" "http://www.w3.org/Graphics/SVG/1.1/DTD/svg11.dtd">
<!--Generator: Xara Designer (www.xara.com), SVG filter version: 5.0.0.2-->
<svg stroke-width="0.501" stroke-linejoin="bevel" fill-rule="evenodd" xmlns:xlink="http://www.w3.org/1999/xlink" xmlns="http://www.w3.org/2000/svg" version="1.1" overflow="visible" width="462.42pt" height="198.114pt" viewBox="0 0 462.42 198.114">
 <defs>
  <marker id="DefaultArrow2" markerUnits="strokeWidth" viewBox="0 0 1 1" markerWidth="1" markerHeight="1" overflow="visible" orient="auto">
   <!-- REF_ARROW_STRAIGHT (-2) -->
   <g transform="scale(0.0092592592)">
    <!-- 1/108 -->
    <path d="M -9 54 L -9 -54 L 117 0 z"/>
   </g>
  </marker>
  <marker id="DefaultArrow3" markerUnits="strokeWidth" viewBox="0 0 1 1" markerWidth="1" markerHeight="1" overflow="visible" orient="auto">
   <!-- REF_ARROW_ANGLED -->
   <g transform="scale(0.0092592592)">
    <path d="M -27 54 L -9 0 L -27 -54 L 135 0 z"/>
   </g>
  </marker>
  <marker id="DefaultArrow4" markerUnits="strokeWidth" viewBox="0 0 1 1" markerWidth="1" markerHeight="1" overflow="visible" orient="auto">
   <!-- REF_ARROW_ROUNDED -->
   <g transform="scale(0.0092592592)">
    <path d="M -9,0 L -9,-45 C -9,-51.708 2.808,-56.580 9,-54 L 117,-9 C 120.916,-7.369 126.000,-4.242 126,0 C 126,4.242 120.916,7.369 117,9 L 9,54 C 2.808,56.580 -9,51.708 -9,45 z"/>
   </g>
  </marker>
  <marker id="DefaultArrow5" markerUnits="strokeWidth" viewBox="0 0 1 1" markerWidth="1" markerHeight="1" overflow="visible" orient="auto">
   <!-- REF_ARROW_SPOT -->
   <g transform="scale(0.0092592592)">
    <path d="M -54, 0 C -54,29.807 -29.807,54 0,54 C 29.807,54 54,29.807 54,0 C 54,-29.807 29.807,-54 0,-54 C -29.807,-54 -54,-29.807 -54,0 z"/>
   </g>
  </marker>
  <marker id="DefaultArrow6" markerUnits="strokeWidth" viewBox="0 0 1 1" markerWidth="1" markerHeight="1" overflow="visible" orient="auto">
   <!-- REF_ARROW_DIAMOND -->
   <g transform="scale(0.0092592592)">
    <path d="M -63,0 L 0,63 L 63,0 L 0,-63 z"/>
   </g>
  </marker>
  <marker id="DefaultArrow7" markerUnits="strokeWidth" viewBox="0 0 1 1" markerWidth="1" markerHeight="1" overflow="visible" orient="auto">
   <!-- REF_ARROW_FEATHER -->
   <g transform="scale(0.0092592592)">
    <path d="M 18,-54 L 108,-54 L 63,0 L 108,54 L 18, 54 L -36,0 z"/>
   </g>
  </marker>
  <marker id="DefaultArrow8" markerUnits="strokeWidth" viewBox="0 0 1 1" markerWidth="1" markerHeight="1" overflow="visible" orient="auto">
   <!-- REF_ARROW_FEATHER2 -->
   <g transform="scale(0.0092592592)">
    <path d="M -36,0 L 18,-54 L 54,-54 L 18,-18 L 27,-18 L 63,-54 L 99,-54 L 63,-18 L 72,-18 L 108,-54 L 144,-54 L 90,0 L 144,54 L 108,54 L 72,18 L 63,18 L 99,54 L 63,54 L 27,18 L 18,18 L 54,54 L 18,54 z"/>
   </g>
  </marker>
  <marker id="DefaultArrow9" markerUnits="strokeWidth" viewBox="0 0 1 1" markerWidth="1" markerHeight="1" overflow="visible" orient="auto">
   <!-- REF_ARROW_HOLLOWDIAMOND -->
   <g transform="scale(0.0092592592)">
    <path d="M 0,45 L -45,0 L 0, -45 L 45, 0 z M 0, 63 L-63, 0 L 0, -63 L 63, 0 z"/>
   </g>
  </marker>
  <filter id="StainedFilter">
   <feBlend mode="multiply" in2="BackgroundImage" in="SourceGraphic" result="blend"/>
   <feComposite in="blend" in2="SourceAlpha" operator="in" result="comp"/>
  </filter>
  <filter id="BleachFilter">
   <feBlend mode="screen" in2="BackgroundImage" in="SourceGraphic" result="blend"/>
   <feComposite in="blend" in2="SourceAlpha" operator="in" result="comp"/>
  </filter>
  <filter id="InvertTransparencyBitmapFilter">
   <feComponentTransfer>
    <feFuncR type="gamma" amplitude="1.055" exponent=".416666666" offset="-0.055"/>
    <feFuncG type="gamma" amplitude="1.055" exponent=".416666666" offset="-0.055"/>
    <feFuncB type="gamma" amplitude="1.055" exponent=".416666666" offset="-0.055"/>
   </feComponentTransfer>
   <feComponentTransfer>
    <feFuncR type="linear" slope="-1" intercept="1"/>
    <feFuncG type="linear" slope="-1" intercept="1"/>
    <feFuncB type="linear" slope="-1" intercept="1"/>
    <feFuncA type="linear" slope="1" intercept="0"/>
   </feComponentTransfer>
   <feComponentTransfer>
    <feFuncR type="gamma" amplitude="1" exponent="2.4" offset="0"/>
    <feFuncG type="gamma" amplitude="1" exponent="2.4" offset="0"/>
    <feFuncB type="gamma" amplitude="1" exponent="2.4" offset="0"/>
   </feComponentTransfer>
  </filter>
  <linearGradient id="LinearGradient" gradientUnits="userSpaceOnUse" x1="0" y1="0" x2="21.74" y2="0" gradientTransform="translate(151.365 175.034) rotate(92.3145) skewX(1.36648)">
   <stop offset="0" stop-color="#e5e5e5"/>
   <stop offset="1" stop-color="#ffffff"/>
  </linearGradient>
 </defs>
 <g id="Document" fill="none" stroke="black" font-family="Times New Roman" font-size="16" transform="scale(1 -1)">
  <g id="Spread" transform="translate(0 -198.114)">
   <g id="Layer 1">
    <path d="M 0.781,196.729 L 0.781,2.418 C 0.781,2.073 1.061,1.793 1.406,1.793 L 459.195,1.793 C 459.54,1.793 459.82,2.073 459.82,2.418 L 459.82,196.729 C 459.82,197.074 459.54,197.354 459.195,197.354 L 1.406,197.354 C 1.061,197.354 0.781,197.074 0.781,196.729 Z" stroke="#0b3c5a" stroke-width="0.375" stroke-linejoin="miter" stroke-linecap="round" fill="#ffffff" marker-start="none" marker-end="none" stroke-miterlimit="79.8403193612775"/>
    <path d="M 459.82,197.365 L 0.881,197.365" fill="none" stroke="#4c4c4c" stroke-linecap="square" stroke-linejoin="round" stroke-width="0.375" stroke-miterlimit="79.8403193612775"/>
    <path d="M 0.989,197.133 L 0.989,179.538 L 460.008,179.538 L 460.008,197.133 L 0.989,197.133 Z" stroke="none" stroke-linecap="round" stroke-width="0.75" stroke-linejoin="miter" marker-start="none" marker-end="none" stroke-miterlimit="79.8403193612775" fill="url(#LinearGradient)"/>
    <path d="M 459.668,179.45 L 1.247,179.45" fill="none" stroke="#4c4c4c" stroke-linecap="square" stroke-linejoin="round" stroke-width="0.375" stroke-miterlimit="79.8403193612775"/>
    <path d="M 12.858,185.193 C 11.419,184.401 9.609,184.927 8.818,186.365 C 8.026,187.804 8.552,189.614 9.99,190.405 C 11.429,191.197 13.239,190.671 14.03,189.233 C 14.822,187.794 14.296,185.984 12.858,185.193 Z" fill="#89c7ff" stroke-linecap="round" stroke-width="0.174" stroke="#4c4c4c" stroke-linejoin="miter" marker-start="none" marker-end="none" stroke-miterlimit="79.8403193612775"/>
    <path d="M 48.944,33.707 C 46.96,35.514 45.09,37.4 43.332,39.354 L 43.337,39.358 L 43.331,39.354 C 16.582,69.123 16.229,114.957 43.752,145.168 C 54.224,156.664 67.325,164.352 81.307,168.15 C 84.235,168.945 87.203,169.57 90.193,170.024 L 102.128,92.095 L 102.127,170.922 L 102.128,170.922 L 102.128,92.095 L 122.394,15.86 L 122.41,15.798 C 97.35,9.145 69.523,14.959 48.944,33.707 Z" fill="#74cf98" stroke-width="1.5" stroke="#ffffff" marker-start="none" marker-end="none" stroke-miterlimit="79.8403193612775"/>
    <path d="M 102.128,92.095 L 169.006,133.847 C 175.765,123.033 179.68,110.889 180.699,98.526 L 102.128,92.095 Z" fill="#dfcd3e" stroke-width="1.5" stroke="#ffffff" marker-start="none" marker-end="none" stroke-miterlimit="79.8403193612775"/>
    <path d="M 102.128,92.095 L 102.128,170.922 C 120.933,170.916 139.794,164.233 154.844,150.693 C 154.967,150.583 155.09,150.471 155.213,150.361 C 160.673,145.386 165.274,139.82 169.006,133.848 L 102.128,92.095 Z" fill="#89c7ff" stroke-width="1.5" stroke="#ffffff" marker-start="none" marker-end="none" stroke-miterlimit="79.8403193612775"/>
    <path d="M 102.128,92.095 L 102.11,92.207 L 102.092,92.262 L 70.196,164.266 C 73.833,165.871 77.587,167.201 81.422,168.244 C 81.439,168.248 81.459,168.253 81.478,168.258 L 81.486,168.228 C 84.377,169.009 87.311,169.626 90.272,170.076 C 90.29,170.078 90.31,170.081 90.329,170.084 L 90.334,170.045 C 94.219,170.627 98.142,170.92 102.069,170.922 L 102.127,170.922 L 102.127,92.159 L 102.13,92.146 L 102.127,92.152 L 102.128,92.095 Z M 90.335,170.042 L 90.334,170.045 L 90.335,170.042 Z" fill="#970303" stroke-width="1.5" stroke="#ffffff" marker-start="none" marker-end="none" stroke-miterlimit="79.8403193612775"/>
    <path d="M 96.34,13.441 C 92.871,13.677 89.402,14.141 85.954,14.845 L 85.963,14.888 L 101.793,92.136 L 106.964,76.678 L 102.714,92.666 L 173.947,58.845 L 173.986,58.826 C 173.769,58.367 173.547,57.91 173.321,57.455 C 172.636,56.078 171.907,54.718 171.137,53.373 C 168.328,48.478 164.947,43.812 160.992,39.47 C 151.355,28.892 139.495,21.538 126.77,17.472 L 126.803,17.375 C 117.067,14.114 106.712,12.742 96.34,13.441 Z" fill="#b46bd1" stroke="#ffffff" stroke-width="1.5" marker-start="none" marker-end="none" stroke-miterlimit="79.8403193612775"/>
    <path d="M 173.4,58.255 L 173.361,58.274 L 102.128,92.095 L 102.232,92.103 L 102.13,92.137 L 179.269,108.398 C 179.956,105.142 180.439,101.845 180.714,98.527 L 180.691,98.525 L 180.699,98.526 C 180.705,98.451 180.711,98.377 180.712,98.285 C 180.803,97.42 180.858,96.551 180.905,94.957 C 180.917,94.808 180.922,94.659 180.923,94.499 C 180.973,93.607 180.986,92.712 180.956,91.047 C 180.959,90.929 180.957,90.812 180.952,90.687 C 180.959,89.779 180.929,88.87 180.815,87.181 C 180.813,87.071 180.806,86.962 180.795,86.844 C 180.759,85.938 180.684,85.032 180.491,83.374 C 180.482,83.245 180.467,83.116 180.447,82.972 C 180.368,82.085 180.251,81.2 179.989,79.636 C 179.97,79.467 179.943,79.3 179.9,79.072 C 179.845,78.608 179.765,78.147 179.68,77.686 C 179.624,77.384 179.566,77.083 179.41,76.455 C 179.269,75.661 179.098,74.871 178.86,73.952 C 178.748,73.327 178.595,72.709 178.411,72.067 C 178.064,70.705 177.672,69.351 177.244,68.006 C 177.241,67.999 177.239,67.992 177.171,67.801 C 177.15,67.709 177.121,67.619 177.092,67.529 L 177.09,67.529 C 176.063,64.38 174.834,61.282 173.4,58.255 Z" fill="#ed7d31" stroke-width="1.5" stroke="#ffffff" marker-start="none" marker-end="none" stroke-miterlimit="79.8403193612775"/>
    <path d="M 73.118,118.415 C 87.681,134.4 112.474,135.555 128.46,120.993 C 144.445,106.43 145.6,81.637 131.038,65.651 C 116.475,49.666 91.682,48.511 75.696,63.073 C 59.711,77.636 58.556,102.429 73.118,118.415 Z" fill="#ffffff" stroke="none" stroke-width="0.068" marker-start="none" marker-end="none" stroke-miterlimit="79.8403193612775"/>
    <path d="M 151.788,134.096 L 296.663,134.178" fill="none" stroke="#666666" stroke-width="0.75" stroke-linejoin="round" stroke-linecap="round" stroke-miterlimit="79.8403193612775"/>
    <text xml:space="preserve" transform="translate(17.931 185.686) scale(1 -1)" font-family="Arial" fill="#333333" stroke-width="0.27" stroke-linejoin="round" font-size="6" stroke-linecap="round" stroke="none" stroke-miterlimit="79.8403193612775"><tspan x="0" y="0">Новые</tspan></text>
    <path d="M 86.836,185.193 C 85.397,184.401 83.587,184.927 82.796,186.365 C 82.004,187.804 82.53,189.614 83.968,190.405 C 85.407,191.197 87.217,190.671 88.008,189.233 C 88.8,187.794 88.274,185.984 86.836,185.193 Z" fill="#dfcd3e" stroke-linecap="round" stroke-width="0.174" stroke="#4c4c4c" stroke-linejoin="miter" marker-start="none" marker-end="none" stroke-miterlimit="79.8403193612775"/>
    <text xml:space="preserve" transform="translate(91.909 185.686) scale(1 -1)" font-family="Arial" fill="#333333" stroke-width="0.27" stroke-linejoin="round" font-size="6" stroke-linecap="round" stroke="none" stroke-miterlimit="79.8403193612775"><tspan x="0" y="0">Обрабо</tspan><tspan x="21.421" y="0">тк</tspan><tspan x="26.926" y="0">а</tspan></text>
    <path d="M 172.148,185.193 C 170.709,184.401 168.899,184.927 168.108,186.365 C 167.316,187.804 167.842,189.614 169.28,190.405 C 170.719,191.197 172.529,190.671 173.32,189.233 C 174.112,187.794 173.586,185.984 172.148,185.193 Z" fill="#ed7d31" stroke-linecap="round" stroke-width="0.174" stroke="#4c4c4c" stroke-linejoin="miter" marker-start="none" marker-end="none" stroke-miterlimit="79.8403193612775"/>
    <text xml:space="preserve" transform="translate(177.221 185.686) scale(1 -1)" font-family="Arial" fill="#333333" stroke-width="0.27" stroke-linejoin="round" font-size="6" stroke-linecap="round" stroke="none" stroke-miterlimit="79.8403193612775"><tspan x="0" y="0">Сог</tspan><tspan x="9.728" y="0">лас</tspan><tspan x="19.633" y="0">ов</tspan><tspan x="26.092" y="0">ание</tspan></text>
    <path d="M 344.708,185.193 C 343.269,184.401 341.459,184.927 340.668,186.365 C 339.876,187.804 340.402,189.614 341.84,190.405 C 343.279,191.197 345.089,190.671 345.88,189.233 C 346.672,187.794 346.146,185.984 344.708,185.193 Z" fill="#74cf98" stroke-linecap="round" stroke-width="0.174" stroke="#4c4c4c" stroke-linejoin="miter" marker-start="none" marker-end="none" stroke-miterlimit="79.8403193612775"/>
    <text xml:space="preserve" transform="translate(349.781 185.686) scale(1 -1)" font-family="Arial" fill="#333333" stroke-width="0.27" stroke-linejoin="round" font-size="6" stroke-linecap="round" stroke="none" stroke-miterlimit="79.8403193612775"><tspan x="0" y="0">Выпо</tspan><tspan x="14.77" y="0">лнено</tspan></text>
    <path d="M 416.437,185.193 C 414.998,184.401 413.188,184.927 412.397,186.365 C 411.605,187.804 412.131,189.614 413.569,190.405 C 415.008,191.197 416.818,190.671 417.609,189.233 C 418.401,187.794 417.875,185.984 416.437,185.193 Z" fill="#970303" stroke-linecap="round" stroke-width="0.174" stroke="#4c4c4c" stroke-linejoin="miter" marker-start="none" marker-end="none" stroke-miterlimit="79.8403193612775"/>
    <text xml:space="preserve" transform="translate(421.51 185.686) scale(1 -1)" font-family="Arial" fill="#333333" stroke-width="0.27" stroke-linejoin="round" font-size="6" stroke-linecap="round" stroke="none" stroke-miterlimit="79.8403193612775"><tspan x="0" y="0">Отк</tspan><tspan x="10.107" y="0">л</tspan><tspan x="13.675" y="0">онено</tspan></text>
    <path d="M 153.106,132.492 C 152.198,131.993 151.056,132.325 150.556,133.232 C 150.057,134.14 150.389,135.282 151.296,135.782 C 152.204,136.281 153.346,135.949 153.846,135.042 C 154.345,134.134 154.013,132.992 153.106,132.492 Z" stroke="none" fill="#666666" stroke-linecap="round" stroke-width="0.11" stroke-linejoin="miter" marker-start="none" marker-end="none" stroke-miterlimit="79.8403193612775"/>
    <text xml:space="preserve" transform="translate(301.431 131.405) scale(1 -1)" font-family="Arial" font-size="8" fill="#333333" stroke-width="0.27" stroke-linejoin="round" stroke-linecap="round" stroke="none" stroke-miterlimit="79.8403193612775"><tspan x="0" y="0">Новые</tspan></text>
    <text xml:space="preserve" transform="translate(328.451 131.405) scale(1 -1)" font-family="Arial" font-size="8" fill="#333333" stroke-width="0.27" stroke-linejoin="round" stroke-linecap="round" stroke="none" stroke-miterlimit="79.8403193612775"><tspan x="0" y="0">16%</tspan></text>
    <path d="M 98.842,157.676 L 296.659,157.758" fill="none" stroke="#666666" stroke-width="0.75" stroke-linejoin="round" stroke-linecap="round" stroke-miterlimit="79.8403193612775"/>
    <path d="M 98.386,156.071 C 97.478,155.572 96.336,155.904 95.836,156.811 C 95.337,157.719 95.669,158.861 96.576,159.361 C 97.484,159.86 98.626,159.528 99.126,158.621 C 99.625,157.713 99.293,156.571 98.386,156.071 Z" stroke="none" fill="#666666" stroke-linecap="round" stroke-width="0.11" stroke-linejoin="miter" marker-start="none" marker-end="none" stroke-miterlimit="79.8403193612775"/>
    <text xml:space="preserve" transform="translate(301.431 154.985) scale(1 -1)" font-family="Arial" font-size="8" fill="#333333" stroke-width="0.27" stroke-linejoin="round" stroke-linecap="round" stroke="none" stroke-miterlimit="79.8403193612775"><tspan x="0" y="0">Отк</tspan><tspan x="13.477" y="0">л</tspan><tspan x="18.235" y="0">онено</tspan></text>
    <text xml:space="preserve" transform="translate(344.452 154.985) scale(1 -1)" font-family="Arial" font-size="8" fill="#333333" stroke-width="0.27" stroke-linejoin="round" stroke-linecap="round" stroke="none" stroke-miterlimit="79.8403193612775"><tspan x="0" y="0">5%</tspan></text>
    <path d="M 165.077,112.449 L 296.659,112.531" fill="none" stroke="#666666" stroke-width="0.75" stroke-linejoin="round" stroke-linecap="round" stroke-miterlimit="79.8403193612775"/>
    <path d="M 164.501,110.845 C 163.593,110.346 162.451,110.678 161.951,111.585 C 161.452,112.493 161.784,113.635 162.691,114.135 C 163.599,114.634 164.741,114.302 165.241,113.395 C 165.74,112.487 165.408,111.345 164.501,110.845 Z" stroke="none" fill="#666666" stroke-linecap="round" stroke-width="0.11" stroke-linejoin="miter" marker-start="none" marker-end="none" stroke-miterlimit="79.8403193612775"/>
    <text xml:space="preserve" transform="translate(301.431 109.758) scale(1 -1)" font-family="Arial" font-size="8" fill="#333333" stroke-width="0.27" stroke-linejoin="round" stroke-linecap="round" stroke="none" stroke-miterlimit="79.8403193612775"><tspan x="0" y="0">Обрабо</tspan><tspan x="28.559" y="0">тк</tspan><tspan x="35.899" y="0">а 6%</tspan></text>
    <path d="M 167.321,82.172 L 296.665,82.254" fill="none" stroke="#666666" stroke-width="0.75" stroke-linejoin="round" stroke-linecap="round" stroke-miterlimit="79.8403193612775"/>
    <path d="M 167.002,80.568 C 166.094,80.069 164.952,80.401 164.452,81.308 C 163.953,82.216 164.285,83.358 165.192,83.858 C 166.1,84.357 167.242,84.025 167.742,83.118 C 168.241,82.21 167.909,81.068 167.002,80.568 Z" stroke="none" fill="#666666" stroke-linecap="round" stroke-width="0.11" stroke-linejoin="miter" marker-start="none" marker-end="none" stroke-miterlimit="79.8403193612775"/>
    <text xml:space="preserve" transform="translate(301.431 79.481) scale(1 -1)" font-family="Arial" font-size="8" fill="#333333" stroke-width="0.27" stroke-linejoin="round" stroke-linecap="round" stroke="none" stroke-miterlimit="79.8403193612775"><tspan x="0" y="0">Сог</tspan><tspan x="12.969" y="0">лас</tspan><tspan x="26.176" y="0">ов</tspan><tspan x="34.786" y="0">ание 10%</tspan></text>
    <path d="M 158.14,53.617 L 296.659,53.699" fill="none" stroke="#666666" stroke-width="0.75" stroke-linejoin="round" stroke-linecap="round" stroke-miterlimit="79.8403193612775"/>
    <path d="M 157.728,52.012 C 156.82,51.513 155.678,51.845 155.178,52.752 C 154.679,53.66 155.011,54.802 155.918,55.302 C 156.826,55.801 157.968,55.469 158.468,54.562 C 158.967,53.654 158.635,52.512 157.728,52.012 Z" stroke="none" fill="#666666" stroke-linecap="round" stroke-width="0.11" stroke-linejoin="miter" marker-start="none" marker-end="none" stroke-miterlimit="79.8403193612775"/>
    <text xml:space="preserve" transform="translate(301.431 50.926) scale(1 -1)" font-family="Arial" font-size="8" fill="#333333" stroke-width="0.27" stroke-linejoin="round" stroke-linecap="round" stroke="none" stroke-miterlimit="79.8403193612775"><tspan x="0" y="0">В рабо</tspan><tspan x="25.313" y="0">т</tspan><tspan x="28.888" y="0">е 21%</tspan></text>
    <path d="M 266.231,185.193 C 264.792,184.401 262.982,184.927 262.191,186.365 C 261.399,187.804 261.925,189.614 263.363,190.405 C 264.802,191.197 266.612,190.671 267.403,189.233 C 268.195,187.794 267.669,185.984 266.231,185.193 Z" fill="#b46bd1" stroke-linecap="round" stroke-width="0.174" stroke="#4c4c4c" stroke-linejoin="miter" marker-start="none" marker-end="none" stroke-miterlimit="79.8403193612775"/>
    <text xml:space="preserve" transform="translate(271.304 185.686) scale(1 -1)" font-family="Arial" fill="#333333" stroke-width="0.27" stroke-linejoin="round" font-size="6" stroke-linecap="round" stroke="none" stroke-miterlimit="79.8403193612775"><tspan x="0" y="0">В рабо</tspan><tspan x="18.986" y="0">т</tspan><tspan x="21.668" y="0">е</tspan></text>
    <path d="M 71.187,31.074 L 296.659,31.156" fill="none" stroke="#666666" stroke-width="0.75" stroke-linejoin="round" stroke-linecap="round" stroke-miterlimit="79.8403193612775"/>
    <path d="M 71.071,29.467 C 70.163,28.968 69.021,29.3 68.521,30.207 C 68.022,31.115 68.354,32.257 69.261,32.757 C 70.169,33.256 71.311,32.924 71.811,32.017 C 72.31,31.109 71.978,29.967 71.071,29.467 Z" stroke="none" fill="#666666" stroke-linecap="round" stroke-width="0.11" stroke-linejoin="miter" marker-start="none" marker-end="none" stroke-miterlimit="79.8403193612775"/>
    <text xml:space="preserve" transform="translate(301.431 28.383) scale(1 -1)" font-family="Arial" font-size="8" fill="#333333" stroke-width="0.27" stroke-linejoin="round" stroke-linecap="round" stroke="none" stroke-miterlimit="79.8403193612775"><tspan x="0" y="0">Выпо</tspan><tspan x="19.692" y="0">лнено 41%</tspan></text>
   </g>
  </g>
 </g>
</svg>
