<?xml version="1.0" standalone="no"?>
<!DOCTYPE svg PUBLIC "-//W3C//DTD SVG 1.1//EN" "http://www.w3.org/Graphics/SVG/1.1/DTD/svg11.dtd">
<!--Generator: Xara Designer (www.xara.com), SVG filter version: 5.0.0.2-->
<svg stroke-width="0.501" stroke-linejoin="bevel" fill-rule="evenodd" xmlns:xlink="http://www.w3.org/1999/xlink" xmlns="http://www.w3.org/2000/svg" version="1.1" overflow="visible" width="462.42pt" height="205.528pt" viewBox="0 0 462.42 205.528">
 <defs>
  <marker id="DefaultArrow2" markerUnits="strokeWidth" viewBox="0 0 1 1" markerWidth="1" markerHeight="1" overflow="visible" orient="auto">
   <!-- REF_ARROW_STRAIGHT (-2) -->
   <g transform="scale(0.0092592592)">
    <!-- 1/108 -->
    <path d="M -9 54 L -9 -54 L 117 0 z"/>
   </g>
  </marker>
  <marker id="DefaultArrow3" markerUnits="strokeWidth" viewBox="0 0 1 1" markerWidth="1" markerHeight="1" overflow="visible" orient="auto">
   <!-- REF_ARROW_ANGLED -->
   <g transform="scale(0.0092592592)">
    <path d="M -27 54 L -9 0 L -27 -54 L 135 0 z"/>
   </g>
  </marker>
  <marker id="DefaultArrow4" markerUnits="strokeWidth" viewBox="0 0 1 1" markerWidth="1" markerHeight="1" overflow="visible" orient="auto">
   <!-- REF_ARROW_ROUNDED -->
   <g transform="scale(0.0092592592)">
    <path d="M -9,0 L -9,-45 C -9,-51.708 2.808,-56.580 9,-54 L 117,-9 C 120.916,-7.369 126.000,-4.242 126,0 C 126,4.242 120.916,7.369 117,9 L 9,54 C 2.808,56.580 -9,51.708 -9,45 z"/>
   </g>
  </marker>
  <marker id="DefaultArrow5" markerUnits="strokeWidth" viewBox="0 0 1 1" markerWidth="1" markerHeight="1" overflow="visible" orient="auto">
   <!-- REF_ARROW_SPOT -->
   <g transform="scale(0.0092592592)">
    <path d="M -54, 0 C -54,29.807 -29.807,54 0,54 C 29.807,54 54,29.807 54,0 C 54,-29.807 29.807,-54 0,-54 C -29.807,-54 -54,-29.807 -54,0 z"/>
   </g>
  </marker>
  <marker id="DefaultArrow6" markerUnits="strokeWidth" viewBox="0 0 1 1" markerWidth="1" markerHeight="1" overflow="visible" orient="auto">
   <!-- REF_ARROW_DIAMOND -->
   <g transform="scale(0.0092592592)">
    <path d="M -63,0 L 0,63 L 63,0 L 0,-63 z"/>
   </g>
  </marker>
  <marker id="DefaultArrow7" markerUnits="strokeWidth" viewBox="0 0 1 1" markerWidth="1" markerHeight="1" overflow="visible" orient="auto">
   <!-- REF_ARROW_FEATHER -->
   <g transform="scale(0.0092592592)">
    <path d="M 18,-54 L 108,-54 L 63,0 L 108,54 L 18, 54 L -36,0 z"/>
   </g>
  </marker>
  <marker id="DefaultArrow8" markerUnits="strokeWidth" viewBox="0 0 1 1" markerWidth="1" markerHeight="1" overflow="visible" orient="auto">
   <!-- REF_ARROW_FEATHER2 -->
   <g transform="scale(0.0092592592)">
    <path d="M -36,0 L 18,-54 L 54,-54 L 18,-18 L 27,-18 L 63,-54 L 99,-54 L 63,-18 L 72,-18 L 108,-54 L 144,-54 L 90,0 L 144,54 L 108,54 L 72,18 L 63,18 L 99,54 L 63,54 L 27,18 L 18,18 L 54,54 L 18,54 z"/>
   </g>
  </marker>
  <marker id="DefaultArrow9" markerUnits="strokeWidth" viewBox="0 0 1 1" markerWidth="1" markerHeight="1" overflow="visible" orient="auto">
   <!-- REF_ARROW_HOLLOWDIAMOND -->
   <g transform="scale(0.0092592592)">
    <path d="M 0,45 L -45,0 L 0, -45 L 45, 0 z M 0, 63 L-63, 0 L 0, -63 L 63, 0 z"/>
   </g>
  </marker>
  <filter id="StainedFilter">
   <feBlend mode="multiply" in2="BackgroundImage" in="SourceGraphic" result="blend"/>
   <feComposite in="blend" in2="SourceAlpha" operator="in" result="comp"/>
  </filter>
  <filter id="BleachFilter">
   <feBlend mode="screen" in2="BackgroundImage" in="SourceGraphic" result="blend"/>
   <feComposite in="blend" in2="SourceAlpha" operator="in" result="comp"/>
  </filter>
  <filter id="InvertTransparencyBitmapFilter">
   <feComponentTransfer>
    <feFuncR type="gamma" amplitude="1.055" exponent=".416666666" offset="-0.055"/>
    <feFuncG type="gamma" amplitude="1.055" exponent=".416666666" offset="-0.055"/>
    <feFuncB type="gamma" amplitude="1.055" exponent=".416666666" offset="-0.055"/>
   </feComponentTransfer>
   <feComponentTransfer>
    <feFuncR type="linear" slope="-1" intercept="1"/>
    <feFuncG type="linear" slope="-1" intercept="1"/>
    <feFuncB type="linear" slope="-1" intercept="1"/>
    <feFuncA type="linear" slope="1" intercept="0"/>
   </feComponentTransfer>
   <feComponentTransfer>
    <feFuncR type="gamma" amplitude="1" exponent="2.4" offset="0"/>
    <feFuncG type="gamma" amplitude="1" exponent="2.4" offset="0"/>
    <feFuncB type="gamma" amplitude="1" exponent="2.4" offset="0"/>
   </feComponentTransfer>
  </filter>
  <linearGradient id="LinearGradient" gradientUnits="userSpaceOnUse" x1="0" y1="0" x2="21.74" y2="0" gradientTransform="translate(151.756 182.046) rotate(92.3119) skewX(1.3629)">
   <stop offset="0" stop-color="#e5e5e5"/>
   <stop offset="1" stop-color="#ffffff"/>
  </linearGradient>
 </defs>
 <g id="Document" fill="none" stroke="black" font-family="Times New Roman" font-size="16" transform="scale(1 -1)">
  <g id="Spread" transform="translate(0 -205.528)">
   <g id="Layer 1">
    <path d="M 1.325,203.536 L 1.325,9.429 C 1.325,9.084 1.605,8.804 1.95,8.804 L 459.739,8.804 C 460.084,8.804 460.364,9.084 460.364,9.429 L 460.364,203.536 C 460.364,203.881 460.084,204.161 459.739,204.161 L 1.95,204.161 C 1.605,204.161 1.325,203.881 1.325,203.536 Z" stroke="#0b3c5a" stroke-width="0.375" stroke-linejoin="miter" stroke-linecap="round" fill="#ffffff" marker-start="none" marker-end="none" stroke-miterlimit="79.8403193612775"/>
    <path d="M 460.364,204.377 L 1.425,204.377" fill="none" stroke="#4c4c4c" stroke-linecap="square" stroke-linejoin="round" stroke-width="0.375" stroke-miterlimit="79.8403193612775"/>
    <path d="M 1.533,204.145 L 1.533,186.55 L 460.084,186.55 L 460.084,204.145 L 1.533,204.145 Z" stroke="none" stroke-linecap="round" stroke-width="0.75" stroke-linejoin="miter" marker-start="none" marker-end="none" stroke-miterlimit="79.8403193612775" fill="url(#LinearGradient)"/>
    <path d="M 460.212,186.462 L 1.679,186.462" fill="none" stroke="#4c4c4c" stroke-linecap="square" stroke-linejoin="round" stroke-width="0.375" stroke-miterlimit="79.8403193612775"/>
    <g id="Group" stroke-linejoin="round" stroke-linecap="round" stroke="#b2b2b2" stroke-width="0.188" fill="#b2b2b2" stroke-miterlimit="79.8403193612775">
     <path d="M 450.929,35.912 L 17.703,35.528" fill="none"/>
     <path d="M 450.929,57.817 L 17.703,57.433" fill="none"/>
     <path d="M 450.929,79.722 L 17.703,79.339" fill="none"/>
     <path d="M 450.929,101.628 L 17.703,101.245" fill="none"/>
     <path d="M 450.929,123.533 L 17.703,123.15" fill="none"/>
     <path d="M 450.929,145.439 L 17.703,145.056" fill="none"/>
     <path d="M 450.929,167.345 L 17.703,166.962" fill="none"/>
    </g>
    <g id="Group_1" stroke-dasharray="1.504 1.504" stroke-dashoffset="0" stroke-linejoin="round" stroke-linecap="square" stroke="#4c4c4c" stroke-width="0.188" fill="#4c4c4c" stroke-miterlimit="79.8403193612775">
     <path d="M 20.88,179.999 L 20.88,35.152" fill="none"/>
     <path d="M 35.283,179.999 L 35.283,35.152" fill="none"/>
     <path d="M 49.686,179.999 L 49.686,35.152" fill="none"/>
     <path d="M 64.09,179.999 L 64.09,35.152" fill="none"/>
     <path d="M 78.493,179.999 L 78.493,35.152" fill="none"/>
     <path d="M 92.897,179.999 L 92.897,35.152" fill="none"/>
     <path d="M 107.3,179.999 L 107.3,35.152" fill="none"/>
     <path d="M 121.704,179.999 L 121.704,35.152" fill="none"/>
     <path d="M 136.107,179.999 L 136.107,35.152" fill="none"/>
     <path d="M 150.511,179.999 L 150.511,35.152" fill="none"/>
     <path d="M 164.914,179.999 L 164.914,35.152" fill="none"/>
     <path d="M 179.318,179.999 L 179.318,35.152" fill="none"/>
     <path d="M 193.721,179.999 L 193.721,35.152" fill="none"/>
     <path d="M 208.125,179.999 L 208.125,35.152" fill="none"/>
     <path d="M 222.528,179.999 L 222.528,35.152" fill="none"/>
     <path d="M 236.932,179.999 L 236.932,35.152" fill="none"/>
     <path d="M 251.335,179.999 L 251.335,35.152" fill="none"/>
     <path d="M 265.739,179.999 L 265.739,35.152" fill="none"/>
     <path d="M 280.142,179.999 L 280.142,35.152" fill="none"/>
     <path d="M 294.546,179.999 L 294.546,35.152" fill="none"/>
     <path d="M 308.949,179.999 L 308.949,35.152" fill="none"/>
     <path d="M 323.353,179.999 L 323.353,35.152" fill="none"/>
     <path d="M 337.756,179.999 L 337.756,35.152" fill="none"/>
     <path d="M 352.16,179.999 L 352.16,35.152" fill="none"/>
     <path d="M 366.563,179.999 L 366.563,35.152" fill="none"/>
     <path d="M 380.967,179.999 L 380.967,35.152" fill="none"/>
     <path d="M 395.37,179.999 L 395.37,35.152" fill="none"/>
     <path d="M 409.774,179.999 L 409.774,35.152" fill="none"/>
     <path d="M 424.177,179.999 L 424.177,35.152" fill="none"/>
     <path d="M 438.581,180 L 438.581,35.153" fill="none"/>
    </g>
    <text xml:space="preserve" transform="translate(11.531 28.853) scale(1 -1)" font-size="6" fill="#4c4c4c" font-family="Arial" stroke-linejoin="round" stroke-linecap="round" stroke="none" stroke-width="0.252" stroke-miterlimit="79.8403193612775"><tspan x="0" y="0">0</tspan><tspan x="2.787" y="0">1</tspan><tspan x="5.574" y="0">.</tspan><tspan x="6.691" y="0">1</tspan><tspan x="9.034" y="0">1</tspan><tspan x="11.821" y="0">.</tspan><tspan x="12.938" y="0">1</tspan><tspan x="15.725" y="0">5</tspan><tspan x="18.512" y="0" font-weight="bold" text-decoration="underline"> </tspan></text>
    <path d="M 31.16,28.253 L 31.16,28.253" fill="none" marker-end="none" marker-start="none" stroke-linecap="butt" stroke="#4c4c4c" stroke-width="0.3" stroke-miterlimit="79.8403193612775"/>
    <text xml:space="preserve" transform="translate(19.385 192.699) scale(1 -1)" fill="#333333" stroke-width="0.27" stroke-linejoin="round" font-size="6" font-family="Arial" stroke-linecap="round" stroke="none" stroke-miterlimit="79.8403193612775"><tspan x="0" y="0">Об</tspan><tspan x="7.906" y="0">ъём ма</tspan><tspan x="28.116" y="0">т</tspan><tspan x="30.798" y="0">ериала</tspan></text>
    <path d="M 13.402,192.205 C 11.963,191.413 10.153,191.939 9.362,193.377 C 8.57,194.816 9.096,196.626 10.534,197.417 C 11.973,198.209 13.783,197.683 14.574,196.245 C 15.366,194.806 14.84,192.996 13.402,192.205 Z" fill="#3ebe70" stroke-linecap="round" stroke-width="0.174" stroke="#4c4c4c" stroke-linejoin="miter" marker-start="none" marker-end="none" stroke-miterlimit="79.8403193612775"/>
    <text xml:space="preserve" transform="translate(40.354 28.853) scale(1 -1)" font-size="6" fill="#4c4c4c" font-family="Arial" stroke-linejoin="round" stroke-linecap="round" stroke="none" stroke-width="0.252" stroke-miterlimit="79.8403193612775"><tspan x="0" y="0">0</tspan><tspan x="2.787" y="0">3</tspan><tspan x="5.574" y="0">.</tspan><tspan x="6.691" y="0">1</tspan><tspan x="9.034" y="0">1</tspan><tspan x="11.821" y="0">.</tspan><tspan x="12.938" y="0">1</tspan><tspan x="15.725" y="0">5</tspan><tspan x="18.512" y="0" font-weight="bold" text-decoration="underline"> </tspan></text>
    <path d="M 59.983,28.253 L 59.983,28.253" fill="none" marker-end="none" marker-start="none" stroke-linecap="butt" stroke="#4c4c4c" stroke-width="0.3" stroke-miterlimit="79.8403193612775"/>
    <text xml:space="preserve" transform="translate(68.528 28.853) scale(1 -1)" font-size="6" fill="#4c4c4c" font-family="Arial" stroke-linejoin="round" stroke-linecap="round" stroke="none" stroke-width="0.252" stroke-miterlimit="79.8403193612775"><tspan x="0" y="0">0</tspan><tspan x="2.787" y="0">5</tspan><tspan x="5.574" y="0">.</tspan><tspan x="6.691" y="0">1</tspan><tspan x="9.034" y="0">1</tspan><tspan x="11.821" y="0">.</tspan><tspan x="12.938" y="0">1</tspan><tspan x="15.725" y="0">5</tspan><tspan x="18.512" y="0" font-weight="bold" text-decoration="underline"> </tspan></text>
    <path d="M 88.157,28.253 L 88.157,28.253" fill="none" marker-end="none" marker-start="none" stroke-linecap="butt" stroke="#4c4c4c" stroke-width="0.3" stroke-miterlimit="79.8403193612775"/>
    <path d="M 21.592,37.126 L 78.479,51.309 L 121.492,71.73 L 136.325,73.001 L 192.854,92.325 L 222.681,102.575 L 337.759,110.66 L 424.3,129.165 L 438.687,147.835" fill="none" stroke="#3ebe70" stroke-width="1.5" stroke-linejoin="round" stroke-linecap="round" stroke-miterlimit="79.8403193612775"/>
    <path d="M 21.033,37.98 C 21.63,38.437 22.485,38.323 22.941,37.726 C 23.398,37.129 23.284,36.274 22.687,35.818 C 22.09,35.361 21.235,35.475 20.779,36.072 C 20.322,36.669 20.436,37.524 21.033,37.98 Z" fill="#3ebe70" stroke="none" stroke-width="0.08" stroke-linejoin="round" stroke-linecap="round" marker-start="none" marker-end="none" stroke-miterlimit="79.8403193612775"/>
    <path d="M 106.678,65.941 C 107.176,66.321 107.89,66.226 108.271,65.728 C 108.651,65.23 108.556,64.516 108.058,64.135 C 107.56,63.755 106.846,63.85 106.465,64.348 C 106.085,64.846 106.18,65.56 106.678,65.941 Z" fill="#3ebe70" stroke="none" stroke-width="0.067" stroke-linejoin="round" stroke-linecap="round" marker-start="none" marker-end="none" stroke-miterlimit="79.8403193612775"/>
    <path d="M 193.197,93.877 C 193.695,94.257 194.409,94.162 194.79,93.664 C 195.17,93.166 195.075,92.452 194.577,92.071 C 194.079,91.691 193.365,91.786 192.984,92.284 C 192.604,92.782 192.699,93.496 193.197,93.877 Z" fill="#3ebe70" stroke="none" stroke-width="0.067" stroke-linejoin="round" stroke-linecap="round" marker-start="none" marker-end="none" stroke-miterlimit="79.8403193612775"/>
    <path d="M 337.257,111.652 C 337.755,112.032 338.469,111.937 338.85,111.439 C 339.23,110.941 339.135,110.227 338.637,109.846 C 338.139,109.466 337.425,109.561 337.044,110.059 C 336.664,110.557 336.759,111.271 337.257,111.652 Z" fill="#3ebe70" stroke="none" stroke-width="0.067" stroke-linejoin="round" stroke-linecap="round" marker-start="none" marker-end="none" stroke-miterlimit="79.8403193612775"/>
    <path d="M 34.671,41.628 C 35.169,42.008 35.883,41.913 36.264,41.415 C 36.644,40.917 36.549,40.203 36.051,39.822 C 35.553,39.442 34.839,39.537 34.458,40.035 C 34.078,40.533 34.173,41.247 34.671,41.628 Z" fill="#3ebe70" stroke="none" stroke-width="0.067" stroke-linejoin="round" stroke-linecap="round" marker-start="none" marker-end="none" stroke-miterlimit="79.8403193612775"/>
    <path d="M 149.877,78.567 C 150.375,78.947 151.089,78.852 151.47,78.354 C 151.85,77.856 151.755,77.142 151.257,76.761 C 150.759,76.381 150.045,76.476 149.664,76.974 C 149.284,77.472 149.379,78.186 149.877,78.567 Z" fill="#3ebe70" stroke="none" stroke-width="0.067" stroke-linejoin="round" stroke-linecap="round" marker-start="none" marker-end="none" stroke-miterlimit="79.8403193612775"/>
    <path d="M 250.677,105.676 C 251.175,106.056 251.889,105.961 252.27,105.463 C 252.65,104.965 252.555,104.251 252.057,103.87 C 251.559,103.49 250.845,103.585 250.464,104.083 C 250.084,104.581 250.179,105.295 250.677,105.676 Z" fill="#3ebe70" stroke="none" stroke-width="0.067" stroke-linejoin="round" stroke-linecap="round" marker-start="none" marker-end="none" stroke-miterlimit="79.8403193612775"/>
    <path d="M 265.078,106.56 C 265.576,106.94 266.29,106.845 266.671,106.347 C 267.051,105.849 266.956,105.135 266.458,104.754 C 265.96,104.374 265.246,104.469 264.865,104.967 C 264.485,105.465 264.58,106.179 265.078,106.56 Z" fill="#3ebe70" stroke="none" stroke-width="0.067" stroke-linejoin="round" stroke-linecap="round" marker-start="none" marker-end="none" stroke-miterlimit="79.8403193612775"/>
    <path d="M 21.132,38.113 L 49.724,42.318 L 78.584,46.878 L 107.895,58.233 L 136.395,76.683 L 178.845,83.733 L 222.704,98.538 L 280.377,108.157 L 323.502,114.297 L 381.018,122.219 L 424.002,134.407 L 438.943,143.418" fill="none" stroke="#dfcd3e" stroke-width="1.5" stroke-linejoin="round" stroke-linecap="round" stroke-miterlimit="79.8403193612775"/>
    <text xml:space="preserve" transform="translate(15.74 55.851) scale(1 -1)" fill="#4c4c4c" font-family="Arial" stroke-linejoin="round" stroke-linecap="round" stroke="none" stroke-width="0.252" stroke-miterlimit="79.8403193612775"><tspan x="-5.562" y="0" font-size="5">20</tspan><tspan x="0" y="0" font-size="5.6" font-weight="bold" text-decoration="underline"> </tspan></text>
    <path d="M 17.296,55.291 L 17.296,55.291" fill="none" marker-end="none" marker-start="none" stroke-linecap="butt" stroke="#4c4c4c" stroke-width="0.28" stroke-miterlimit="79.8403193612775"/>
    <text xml:space="preserve" transform="translate(15.741 77.625) scale(1 -1)" fill="#4c4c4c" font-family="Arial" stroke-linejoin="round" stroke-linecap="round" stroke="none" stroke-width="0.252" stroke-miterlimit="79.8403193612775"><tspan x="-5.562" y="0" font-size="5">40</tspan><tspan x="0" y="0" font-size="5.6" font-weight="bold" text-decoration="underline"> </tspan></text>
    <path d="M 17.297,77.065 L 17.297,77.065" fill="none" marker-end="none" marker-start="none" stroke-linecap="butt" stroke="#4c4c4c" stroke-width="0.28" stroke-miterlimit="79.8403193612775"/>
    <text xml:space="preserve" transform="translate(15.742 99.41) scale(1 -1)" fill="#4c4c4c" font-family="Arial" stroke-linejoin="round" stroke-linecap="round" stroke="none" stroke-width="0.252" stroke-miterlimit="79.8403193612775"><tspan x="-5.562" y="0" font-size="5">60</tspan><tspan x="0" y="0" font-size="5.6" font-weight="bold" text-decoration="underline"> </tspan></text>
    <path d="M 17.298,98.85 L 17.298,98.85" fill="none" marker-end="none" marker-start="none" stroke-linecap="butt" stroke="#4c4c4c" stroke-width="0.28" stroke-miterlimit="79.8403193612775"/>
    <text xml:space="preserve" transform="translate(15.743 121.563) scale(1 -1)" fill="#4c4c4c" font-family="Arial" stroke-linejoin="round" stroke-linecap="round" stroke="none" stroke-width="0.252" stroke-miterlimit="79.8403193612775"><tspan x="-5.562" y="0" font-size="5">80</tspan><tspan x="0" y="0" font-size="5.6" font-weight="bold" text-decoration="underline"> </tspan></text>
    <path d="M 17.299,121.003 L 17.299,121.003" fill="none" marker-end="none" marker-start="none" stroke-linecap="butt" stroke="#4c4c4c" stroke-width="0.28" stroke-miterlimit="79.8403193612775"/>
    <text xml:space="preserve" transform="translate(15.744 143.309) scale(1 -1)" fill="#4c4c4c" font-family="Arial" stroke-linejoin="round" stroke-linecap="round" stroke="none" stroke-width="0.252" stroke-miterlimit="79.8403193612775"><tspan x="-8.343" y="0" font-size="5">100</tspan><tspan x="0" y="0" font-size="5.6" font-weight="bold" text-decoration="underline"> </tspan></text>
    <path d="M 17.3,142.749 L 17.3,142.749" fill="none" marker-end="none" marker-start="none" stroke-linecap="butt" stroke="#4c4c4c" stroke-width="0.28" stroke-miterlimit="79.8403193612775"/>
    <path d="M 20.302,39.152 C 20.899,39.609 21.754,39.495 22.21,38.898 C 22.667,38.301 22.553,37.446 21.956,36.99 C 21.359,36.533 20.504,36.647 20.048,37.244 C 19.591,37.841 19.705,38.696 20.302,39.152 Z" fill="#dfcd3e" stroke="none" stroke-width="0.08" stroke-linejoin="round" stroke-linecap="round" marker-start="none" marker-end="none" stroke-miterlimit="79.8403193612775"/>
    <text xml:space="preserve" transform="translate(102.627 192.699) scale(1 -1)" fill="#333333" stroke-width="0.27" stroke-linejoin="round" font-size="6" font-family="Arial" stroke-linecap="round" stroke="none" stroke-miterlimit="79.8403193612775"><tspan x="0" y="0">Ст</tspan><tspan x="7.015" y="0">оимость</tspan></text>
    <path d="M 96.644,192.205 C 95.205,191.413 93.395,191.939 92.604,193.377 C 91.812,194.816 92.338,196.626 93.776,197.417 C 95.215,198.209 97.025,197.683 97.816,196.245 C 98.608,194.806 98.082,192.996 96.644,192.205 Z" fill="#dfcd3e" stroke-linecap="round" stroke-width="0.174" stroke="#4c4c4c" stroke-linejoin="miter" marker-start="none" marker-end="none" stroke-miterlimit="79.8403193612775"/>
    <text xml:space="preserve" transform="translate(15.745 165.239) scale(1 -1)" fill="#4c4c4c" font-family="Arial" stroke-linejoin="round" stroke-linecap="round" stroke="none" stroke-width="0.252" stroke-miterlimit="79.8403193612775"><tspan x="-8.343" y="0" font-size="5">120</tspan><tspan x="0" y="0" font-size="5.6" font-weight="bold" text-decoration="underline"> </tspan></text>
    <path d="M 17.301,164.679 L 17.301,164.679" fill="none" marker-end="none" marker-start="none" stroke-linecap="butt" stroke="#4c4c4c" stroke-width="0.28" stroke-miterlimit="79.8403193612775"/>
    <text xml:space="preserve" transform="translate(97.478 28.853) scale(1 -1)" font-size="6" fill="#4c4c4c" font-family="Arial" stroke-linejoin="round" stroke-linecap="round" stroke="none" stroke-width="0.252" stroke-miterlimit="79.8403193612775"><tspan x="0" y="0">0</tspan><tspan x="2.787" y="0">7</tspan><tspan x="5.574" y="0">.</tspan><tspan x="6.691" y="0">1</tspan><tspan x="9.034" y="0">1</tspan><tspan x="11.821" y="0">.</tspan><tspan x="12.938" y="0">1</tspan><tspan x="15.725" y="0">5</tspan><tspan x="18.512" y="0" font-weight="bold" text-decoration="underline"> </tspan></text>
    <path d="M 117.107,28.253 L 117.107,28.253" fill="none" marker-end="none" marker-start="none" stroke-linecap="butt" stroke="#4c4c4c" stroke-width="0.3" stroke-miterlimit="79.8403193612775"/>
    <text xml:space="preserve" transform="translate(126.302 28.853) scale(1 -1)" font-size="6" fill="#4c4c4c" font-family="Arial" stroke-linejoin="round" stroke-linecap="round" stroke="none" stroke-width="0.252" stroke-miterlimit="79.8403193612775"><tspan x="0" y="0">0</tspan><tspan x="2.787" y="0">9</tspan><tspan x="5.574" y="0">.</tspan><tspan x="6.691" y="0">1</tspan><tspan x="9.034" y="0">1</tspan><tspan x="11.821" y="0">.</tspan><tspan x="12.938" y="0">1</tspan><tspan x="15.725" y="0">5</tspan><tspan x="18.512" y="0" font-weight="bold" text-decoration="underline"> </tspan></text>
    <path d="M 145.931,28.253 L 145.931,28.253" fill="none" marker-end="none" marker-start="none" stroke-linecap="butt" stroke="#4c4c4c" stroke-width="0.3" stroke-miterlimit="79.8403193612775"/>
    <text xml:space="preserve" transform="translate(155.111 28.853) scale(1 -1)" font-size="6" fill="#4c4c4c" font-family="Arial" stroke-linejoin="round" stroke-linecap="round" stroke="none" stroke-width="0.252" stroke-miterlimit="79.8403193612775"><tspan x="0" y="0">1</tspan><tspan x="2.343" y="0">1</tspan><tspan x="5.13" y="0">.</tspan><tspan x="6.247" y="0">1</tspan><tspan x="8.59" y="0">1</tspan><tspan x="11.377" y="0">.</tspan><tspan x="12.494" y="0">1</tspan><tspan x="15.281" y="0">5</tspan><tspan x="18.068" y="0" font-weight="bold" text-decoration="underline"> </tspan></text>
    <path d="M 174.296,28.253 L 174.296,28.253" fill="none" marker-end="none" marker-start="none" stroke-linecap="butt" stroke="#4c4c4c" stroke-width="0.3" stroke-miterlimit="79.8403193612775"/>
    <text xml:space="preserve" transform="translate(183.912 28.853) scale(1 -1)" font-size="6" fill="#4c4c4c" font-family="Arial" stroke-linejoin="round" stroke-linecap="round" stroke="none" stroke-width="0.252" stroke-miterlimit="79.8403193612775"><tspan x="0" y="0">1</tspan><tspan x="2.787" y="0">3</tspan><tspan x="5.574" y="0">.</tspan><tspan x="6.691" y="0">1</tspan><tspan x="9.034" y="0">1</tspan><tspan x="11.821" y="0">.</tspan><tspan x="12.938" y="0">1</tspan><tspan x="15.725" y="0">5</tspan><tspan x="18.512" y="0" font-weight="bold" text-decoration="underline"> </tspan></text>
    <path d="M 203.541,28.253 L 203.541,28.253" fill="none" marker-end="none" marker-start="none" stroke-linecap="butt" stroke="#4c4c4c" stroke-width="0.3" stroke-miterlimit="79.8403193612775"/>
    <text xml:space="preserve" transform="translate(212.565 28.853) scale(1 -1)" font-size="6" fill="#4c4c4c" font-family="Arial" stroke-linejoin="round" stroke-linecap="round" stroke="none" stroke-width="0.252" stroke-miterlimit="79.8403193612775"><tspan x="0" y="0">1</tspan><tspan x="2.787" y="0">5</tspan><tspan x="5.574" y="0">.</tspan><tspan x="6.691" y="0">1</tspan><tspan x="9.034" y="0">1</tspan><tspan x="11.821" y="0">.</tspan><tspan x="12.938" y="0">1</tspan><tspan x="15.725" y="0">5</tspan><tspan x="18.512" y="0" font-weight="bold" text-decoration="underline"> </tspan></text>
    <path d="M 232.194,28.253 L 232.194,28.253" fill="none" marker-end="none" marker-start="none" stroke-linecap="butt" stroke="#4c4c4c" stroke-width="0.3" stroke-miterlimit="79.8403193612775"/>
    <text xml:space="preserve" transform="translate(241.283 28.853) scale(1 -1)" font-size="6" fill="#4c4c4c" font-family="Arial" stroke-linejoin="round" stroke-linecap="round" stroke="none" stroke-width="0.252" stroke-miterlimit="79.8403193612775"><tspan x="0" y="0">1</tspan><tspan x="2.787" y="0">7</tspan><tspan x="5.574" y="0">.</tspan><tspan x="6.691" y="0">1</tspan><tspan x="9.034" y="0">1</tspan><tspan x="11.821" y="0">.</tspan><tspan x="12.938" y="0">1</tspan><tspan x="15.725" y="0">5</tspan><tspan x="18.512" y="0" font-weight="bold" text-decoration="underline"> </tspan></text>
    <path d="M 260.912,28.253 L 260.912,28.253" fill="none" marker-end="none" marker-start="none" stroke-linecap="butt" stroke="#4c4c4c" stroke-width="0.3" stroke-miterlimit="79.8403193612775"/>
    <text xml:space="preserve" transform="translate(270.13 28.853) scale(1 -1)" font-size="6" fill="#4c4c4c" font-family="Arial" stroke-linejoin="round" stroke-linecap="round" stroke="none" stroke-width="0.252" stroke-miterlimit="79.8403193612775"><tspan x="0" y="0">1</tspan><tspan x="2.787" y="0">9</tspan><tspan x="5.574" y="0">.</tspan><tspan x="6.691" y="0">1</tspan><tspan x="9.034" y="0">1</tspan><tspan x="11.821" y="0">.</tspan><tspan x="12.938" y="0">1</tspan><tspan x="15.725" y="0">5</tspan><tspan x="18.512" y="0" font-weight="bold" text-decoration="underline"> </tspan></text>
    <path d="M 289.759,28.253 L 289.759,28.253" fill="none" marker-end="none" marker-start="none" stroke-linecap="butt" stroke="#4c4c4c" stroke-width="0.3" stroke-miterlimit="79.8403193612775"/>
    <text xml:space="preserve" transform="translate(299.042 28.853) scale(1 -1)" font-size="6" fill="#4c4c4c" font-family="Arial" stroke-linejoin="round" stroke-linecap="round" stroke="none" stroke-width="0.252" stroke-miterlimit="79.8403193612775"><tspan x="0" y="0">2</tspan><tspan x="2.787" y="0">1</tspan><tspan x="5.574" y="0">.</tspan><tspan x="6.691" y="0">1</tspan><tspan x="9.034" y="0">1</tspan><tspan x="11.821" y="0">.</tspan><tspan x="12.938" y="0">1</tspan><tspan x="15.725" y="0">5</tspan><tspan x="18.512" y="0" font-weight="bold" text-decoration="underline"> </tspan></text>
    <path d="M 318.671,28.253 L 318.671,28.253" fill="none" marker-end="none" marker-start="none" stroke-linecap="butt" stroke="#4c4c4c" stroke-width="0.3" stroke-miterlimit="79.8403193612775"/>
    <text xml:space="preserve" transform="translate(327.776 28.853) scale(1 -1)" font-size="6" fill="#4c4c4c" font-family="Arial" stroke-linejoin="round" stroke-linecap="round" stroke="none" stroke-width="0.252" stroke-miterlimit="79.8403193612775"><tspan x="0" y="0">2</tspan><tspan x="2.787" y="0">3</tspan><tspan x="5.574" y="0">.</tspan><tspan x="6.691" y="0">1</tspan><tspan x="9.034" y="0">1</tspan><tspan x="11.821" y="0">.</tspan><tspan x="12.938" y="0">1</tspan><tspan x="15.725" y="0">5</tspan><tspan x="18.512" y="0" font-weight="bold" text-decoration="underline"> </tspan></text>
    <path d="M 347.405,28.253 L 347.405,28.253" fill="none" marker-end="none" marker-start="none" stroke-linecap="butt" stroke="#4c4c4c" stroke-width="0.3" stroke-miterlimit="79.8403193612775"/>
    <text xml:space="preserve" transform="translate(356.627 28.853) scale(1 -1)" font-size="6" fill="#4c4c4c" font-family="Arial" stroke-linejoin="round" stroke-linecap="round" stroke="none" stroke-width="0.252" stroke-miterlimit="79.8403193612775"><tspan x="0" y="0">2</tspan><tspan x="2.787" y="0">5</tspan><tspan x="5.574" y="0">.</tspan><tspan x="6.691" y="0">1</tspan><tspan x="9.034" y="0">1</tspan><tspan x="11.821" y="0">.</tspan><tspan x="12.938" y="0">1</tspan><tspan x="15.725" y="0">5</tspan><tspan x="18.512" y="0" font-weight="bold" text-decoration="underline"> </tspan></text>
    <path d="M 376.256,28.253 L 376.256,28.253" fill="none" marker-end="none" marker-start="none" stroke-linecap="butt" stroke="#4c4c4c" stroke-width="0.3" stroke-miterlimit="79.8403193612775"/>
    <text xml:space="preserve" transform="translate(385.286 28.853) scale(1 -1)" font-size="6" fill="#4c4c4c" font-family="Arial" stroke-linejoin="round" stroke-linecap="round" stroke="none" stroke-width="0.252" stroke-miterlimit="79.8403193612775"><tspan x="0" y="0">2</tspan><tspan x="2.787" y="0">7</tspan><tspan x="5.574" y="0">.</tspan><tspan x="6.691" y="0">1</tspan><tspan x="9.034" y="0">1</tspan><tspan x="11.821" y="0">.</tspan><tspan x="12.938" y="0">1</tspan><tspan x="15.725" y="0">5</tspan><tspan x="18.512" y="0" font-weight="bold" text-decoration="underline"> </tspan></text>
    <path d="M 404.915,28.253 L 404.915,28.253" fill="none" marker-end="none" marker-start="none" stroke-linecap="butt" stroke="#4c4c4c" stroke-width="0.3" stroke-miterlimit="79.8403193612775"/>
    <text xml:space="preserve" transform="translate(414.254 28.853) scale(1 -1)" font-size="6" fill="#4c4c4c" font-family="Arial" stroke-linejoin="round" stroke-linecap="round" stroke="none" stroke-width="0.252" stroke-miterlimit="79.8403193612775"><tspan x="0" y="0">2</tspan><tspan x="2.787" y="0">9</tspan><tspan x="5.574" y="0">.</tspan><tspan x="6.691" y="0">1</tspan><tspan x="9.034" y="0">1</tspan><tspan x="11.821" y="0">.</tspan><tspan x="12.938" y="0">1</tspan><tspan x="15.725" y="0">5</tspan><tspan x="18.512" y="0" font-weight="bold" text-decoration="underline"> </tspan></text>
    <path d="M 433.883,28.253 L 433.883,28.253" fill="none" marker-end="none" marker-start="none" stroke-linecap="butt" stroke="#4c4c4c" stroke-width="0.3" stroke-miterlimit="79.8403193612775"/>
    <path d="M 48.958,45.039 C 49.456,45.419 50.17,45.324 50.551,44.826 C 50.931,44.328 50.836,43.614 50.338,43.233 C 49.84,42.853 49.126,42.948 48.745,43.446 C 48.365,43.944 48.46,44.658 48.958,45.039 Z" fill="#3ebe70" stroke="none" stroke-width="0.067" stroke-linejoin="round" stroke-linecap="round" marker-start="none" marker-end="none" stroke-miterlimit="79.8403193612775"/>
    <path d="M 63.507,48.605 C 64.005,48.985 64.719,48.89 65.1,48.392 C 65.48,47.894 65.385,47.18 64.887,46.799 C 64.389,46.419 63.675,46.514 63.294,47.012 C 62.914,47.51 63.009,48.224 63.507,48.605 Z" fill="#3ebe70" stroke="none" stroke-width="0.067" stroke-linejoin="round" stroke-linecap="round" marker-start="none" marker-end="none" stroke-miterlimit="79.8403193612775"/>
    <path d="M 77.758,52.335 C 78.256,52.715 78.97,52.62 79.351,52.122 C 79.731,51.624 79.636,50.91 79.138,50.529 C 78.64,50.149 77.926,50.244 77.545,50.742 C 77.165,51.24 77.26,51.954 77.758,52.335 Z" fill="#3ebe70" stroke="none" stroke-width="0.067" stroke-linejoin="round" stroke-linecap="round" marker-start="none" marker-end="none" stroke-miterlimit="79.8403193612775"/>
    <path d="M 92.157,59.028 C 92.655,59.408 93.369,59.313 93.75,58.815 C 94.13,58.317 94.035,57.603 93.537,57.222 C 93.039,56.842 92.325,56.937 91.944,57.435 C 91.564,57.933 91.659,58.647 92.157,59.028 Z" fill="#3ebe70" stroke="none" stroke-width="0.067" stroke-linejoin="round" stroke-linecap="round" marker-start="none" marker-end="none" stroke-miterlimit="79.8403193612775"/>
    <path d="M 121.078,72.799 C 121.576,73.179 122.29,73.084 122.671,72.586 C 123.051,72.088 122.956,71.374 122.458,70.993 C 121.96,70.613 121.246,70.708 120.865,71.206 C 120.485,71.704 120.58,72.418 121.078,72.799 Z" fill="#3ebe70" stroke="none" stroke-width="0.067" stroke-linejoin="round" stroke-linecap="round" marker-start="none" marker-end="none" stroke-miterlimit="79.8403193612775"/>
    <path d="M 135.477,73.794 C 135.975,74.174 136.689,74.079 137.07,73.581 C 137.45,73.083 137.355,72.369 136.857,71.988 C 136.359,71.608 135.645,71.703 135.264,72.201 C 134.884,72.699 134.979,73.413 135.477,73.794 Z" fill="#3ebe70" stroke="none" stroke-width="0.067" stroke-linejoin="round" stroke-linecap="round" marker-start="none" marker-end="none" stroke-miterlimit="79.8403193612775"/>
    <path d="M 164.278,83.711 C 164.776,84.091 165.49,83.996 165.871,83.498 C 166.251,83 166.156,82.286 165.658,81.905 C 165.16,81.525 164.446,81.62 164.065,82.118 C 163.685,82.616 163.78,83.33 164.278,83.711 Z" fill="#3ebe70" stroke="none" stroke-width="0.067" stroke-linejoin="round" stroke-linecap="round" marker-start="none" marker-end="none" stroke-miterlimit="79.8403193612775"/>
    <path d="M 178.738,88.741 C 179.236,89.121 179.95,89.026 180.331,88.528 C 180.711,88.03 180.616,87.316 180.118,86.935 C 179.62,86.555 178.906,86.65 178.525,87.148 C 178.145,87.646 178.24,88.36 178.738,88.741 Z" fill="#3ebe70" stroke="none" stroke-width="0.067" stroke-linejoin="round" stroke-linecap="round" marker-start="none" marker-end="none" stroke-miterlimit="79.8403193612775"/>
    <path d="M 207.478,98.586 C 207.976,98.966 208.69,98.871 209.071,98.373 C 209.451,97.875 209.356,97.161 208.858,96.78 C 208.36,96.4 207.646,96.495 207.265,96.993 C 206.885,97.491 206.98,98.205 207.478,98.586 Z" fill="#3ebe70" stroke="none" stroke-width="0.067" stroke-linejoin="round" stroke-linecap="round" marker-start="none" marker-end="none" stroke-miterlimit="79.8403193612775"/>
    <path d="M 221.938,103.541 C 222.436,103.921 223.15,103.826 223.531,103.328 C 223.911,102.83 223.816,102.116 223.318,101.735 C 222.82,101.355 222.106,101.45 221.725,101.948 C 221.345,102.446 221.44,103.16 221.938,103.541 Z" fill="#3ebe70" stroke="none" stroke-width="0.067" stroke-linejoin="round" stroke-linecap="round" marker-start="none" marker-end="none" stroke-miterlimit="79.8403193612775"/>
    <path d="M 236.218,104.533 C 236.716,104.913 237.43,104.818 237.811,104.32 C 238.191,103.822 238.096,103.108 237.598,102.727 C 237.1,102.347 236.386,102.442 236.005,102.94 C 235.625,103.438 235.72,104.152 236.218,104.533 Z" fill="#3ebe70" stroke="none" stroke-width="0.067" stroke-linejoin="round" stroke-linecap="round" marker-start="none" marker-end="none" stroke-miterlimit="79.8403193612775"/>
    <path d="M 279.477,107.518 C 279.975,107.898 280.689,107.803 281.07,107.305 C 281.45,106.807 281.355,106.093 280.857,105.712 C 280.359,105.332 279.645,105.427 279.264,105.925 C 278.884,106.423 278.979,107.137 279.477,107.518 Z" fill="#3ebe70" stroke="none" stroke-width="0.067" stroke-linejoin="round" stroke-linecap="round" marker-start="none" marker-end="none" stroke-miterlimit="79.8403193612775"/>
    <path d="M 308.337,109.566 C 308.835,109.946 309.549,109.851 309.93,109.353 C 310.31,108.855 310.215,108.141 309.717,107.76 C 309.219,107.38 308.505,107.475 308.124,107.973 C 307.744,108.471 307.839,109.185 308.337,109.566 Z" fill="#3ebe70" stroke="none" stroke-width="0.067" stroke-linejoin="round" stroke-linecap="round" marker-start="none" marker-end="none" stroke-miterlimit="79.8403193612775"/>
    <path d="M 322.679,110.571 C 323.177,110.951 323.891,110.856 324.272,110.358 C 324.652,109.86 324.557,109.146 324.059,108.765 C 323.561,108.385 322.847,108.48 322.466,108.978 C 322.086,109.476 322.181,110.19 322.679,110.571 Z" fill="#3ebe70" stroke="none" stroke-width="0.067" stroke-linejoin="round" stroke-linecap="round" marker-start="none" marker-end="none" stroke-miterlimit="79.8403193612775"/>
    <path d="M 351.538,114.571 C 352.036,114.951 352.75,114.856 353.131,114.358 C 353.511,113.86 353.416,113.146 352.918,112.765 C 352.42,112.385 351.706,112.48 351.325,112.978 C 350.945,113.476 351.04,114.19 351.538,114.571 Z" fill="#3ebe70" stroke="none" stroke-width="0.067" stroke-linejoin="round" stroke-linecap="round" marker-start="none" marker-end="none" stroke-miterlimit="79.8403193612775"/>
    <path d="M 365.877,117.749 C 366.375,118.129 367.089,118.034 367.47,117.536 C 367.85,117.038 367.755,116.324 367.257,115.943 C 366.759,115.563 366.045,115.658 365.664,116.156 C 365.284,116.654 365.379,117.368 365.877,117.749 Z" fill="#3ebe70" stroke="none" stroke-width="0.067" stroke-linejoin="round" stroke-linecap="round" marker-start="none" marker-end="none" stroke-miterlimit="79.8403193612775"/>
    <path d="M 380.337,120.791 C 380.835,121.171 381.549,121.076 381.93,120.578 C 382.31,120.08 382.215,119.366 381.717,118.985 C 381.219,118.605 380.505,118.7 380.124,119.198 C 379.744,119.696 379.839,120.41 380.337,120.791 Z" fill="#3ebe70" stroke="none" stroke-width="0.067" stroke-linejoin="round" stroke-linecap="round" marker-start="none" marker-end="none" stroke-miterlimit="79.8403193612775"/>
    <path d="M 394.739,123.909 C 395.237,124.289 395.951,124.194 396.332,123.696 C 396.712,123.198 396.617,122.484 396.119,122.103 C 395.621,121.723 394.907,121.818 394.526,122.316 C 394.146,122.814 394.241,123.528 394.739,123.909 Z" fill="#3ebe70" stroke="none" stroke-width="0.067" stroke-linejoin="round" stroke-linecap="round" marker-start="none" marker-end="none" stroke-miterlimit="79.8403193612775"/>
    <path d="M 409.138,126.874 C 409.636,127.254 410.35,127.159 410.731,126.661 C 411.111,126.163 411.016,125.449 410.518,125.068 C 410.02,124.688 409.306,124.783 408.925,125.281 C 408.545,125.779 408.64,126.493 409.138,126.874 Z" fill="#3ebe70" stroke="none" stroke-width="0.067" stroke-linejoin="round" stroke-linecap="round" marker-start="none" marker-end="none" stroke-miterlimit="79.8403193612775"/>
    <path d="M 423.477,130.277 C 423.975,130.657 424.689,130.562 425.07,130.064 C 425.45,129.566 425.355,128.852 424.857,128.471 C 424.359,128.091 423.645,128.186 423.264,128.684 C 422.884,129.182 422.979,129.896 423.477,130.277 Z" fill="#3ebe70" stroke="none" stroke-width="0.067" stroke-linejoin="round" stroke-linecap="round" marker-start="none" marker-end="none" stroke-miterlimit="79.8403193612775"/>
    <path d="M 437.795,148.91 C 438.392,149.367 439.247,149.253 439.703,148.656 C 440.16,148.059 440.046,147.204 439.449,146.748 C 438.852,146.291 437.997,146.405 437.541,147.002 C 437.084,147.599 437.198,148.454 437.795,148.91 Z" fill="#3ebe70" stroke="none" stroke-width="0.08" stroke-linejoin="round" stroke-linecap="round" marker-start="none" marker-end="none" stroke-miterlimit="79.8403193612775"/>
    <path d="M 34.597,41.16 C 35.095,41.54 35.809,41.445 36.19,40.947 C 36.57,40.449 36.475,39.735 35.977,39.354 C 35.479,38.974 34.765,39.069 34.384,39.567 C 34.004,40.065 34.099,40.779 34.597,41.16 Z" fill="#dfcd3e" stroke="none" stroke-width="0.067" stroke-linejoin="round" stroke-linecap="round" marker-start="none" marker-end="none" stroke-miterlimit="79.8403193612775"/>
    <path d="M 49.011,43.22 C 49.509,43.6 50.223,43.505 50.604,43.007 C 50.984,42.509 50.889,41.795 50.391,41.414 C 49.893,41.034 49.179,41.129 48.798,41.627 C 48.418,42.125 48.513,42.839 49.011,43.22 Z" fill="#dfcd3e" stroke="none" stroke-width="0.067" stroke-linejoin="round" stroke-linecap="round" marker-start="none" marker-end="none" stroke-miterlimit="79.8403193612775"/>
    <path d="M 63.449,45.494 C 63.947,45.874 64.661,45.779 65.042,45.281 C 65.422,44.783 65.327,44.069 64.829,43.688 C 64.331,43.308 63.617,43.403 63.236,43.901 C 62.856,44.399 62.951,45.113 63.449,45.494 Z" fill="#dfcd3e" stroke="none" stroke-width="0.067" stroke-linejoin="round" stroke-linecap="round" marker-start="none" marker-end="none" stroke-miterlimit="79.8403193612775"/>
    <path d="M 77.816,47.767 C 78.314,48.147 79.028,48.052 79.409,47.554 C 79.789,47.056 79.694,46.342 79.196,45.961 C 78.698,45.581 77.984,45.676 77.603,46.174 C 77.223,46.672 77.318,47.386 77.816,47.767 Z" fill="#dfcd3e" stroke="none" stroke-width="0.067" stroke-linejoin="round" stroke-linecap="round" marker-start="none" marker-end="none" stroke-miterlimit="79.8403193612775"/>
    <path d="M 92.276,53.302 C 92.774,53.682 93.488,53.587 93.869,53.089 C 94.249,52.591 94.154,51.877 93.656,51.496 C 93.158,51.116 92.444,51.211 92.063,51.709 C 91.683,52.207 91.778,52.921 92.276,53.302 Z" fill="#dfcd3e" stroke="none" stroke-width="0.067" stroke-linejoin="round" stroke-linecap="round" marker-start="none" marker-end="none" stroke-miterlimit="79.8403193612775"/>
    <path d="M 106.796,59.021 C 107.294,59.401 108.008,59.306 108.389,58.808 C 108.769,58.31 108.674,57.596 108.176,57.215 C 107.678,56.835 106.964,56.93 106.583,57.428 C 106.203,57.926 106.298,58.64 106.796,59.021 Z" fill="#dfcd3e" stroke="none" stroke-width="0.067" stroke-linejoin="round" stroke-linecap="round" marker-start="none" marker-end="none" stroke-miterlimit="79.8403193612775"/>
    <path d="M 121.077,68.083 C 121.575,68.463 122.289,68.368 122.67,67.87 C 123.05,67.372 122.955,66.658 122.457,66.277 C 121.959,65.897 121.245,65.992 120.864,66.49 C 120.484,66.988 120.579,67.702 121.077,68.083 Z" fill="#dfcd3e" stroke="none" stroke-width="0.067" stroke-linejoin="round" stroke-linecap="round" marker-start="none" marker-end="none" stroke-miterlimit="79.8403193612775"/>
    <path d="M 135.477,77.474 C 135.975,77.854 136.689,77.759 137.07,77.261 C 137.45,76.763 137.355,76.049 136.857,75.668 C 136.359,75.288 135.645,75.383 135.264,75.881 C 134.884,76.379 134.979,77.093 135.477,77.474 Z" fill="#dfcd3e" stroke="none" stroke-width="0.067" stroke-linejoin="round" stroke-linecap="round" marker-start="none" marker-end="none" stroke-miterlimit="79.8403193612775"/>
    <path d="M 149.936,80.044 C 150.434,80.424 151.148,80.329 151.529,79.831 C 151.909,79.333 151.814,78.619 151.316,78.238 C 150.818,77.858 150.104,77.953 149.723,78.451 C 149.343,78.949 149.438,79.663 149.936,80.044 Z" fill="#dfcd3e" stroke="none" stroke-width="0.067" stroke-linejoin="round" stroke-linecap="round" marker-start="none" marker-end="none" stroke-miterlimit="79.8403193612775"/>
    <path d="M 164.397,82.432 C 164.895,82.812 165.609,82.717 165.99,82.219 C 166.37,81.721 166.275,81.007 165.777,80.626 C 165.279,80.246 164.565,80.341 164.184,80.839 C 163.804,81.337 163.899,82.051 164.397,82.432 Z" fill="#dfcd3e" stroke="none" stroke-width="0.067" stroke-linejoin="round" stroke-linecap="round" marker-start="none" marker-end="none" stroke-miterlimit="79.8403193612775"/>
    <path d="M 178.676,84.835 C 179.174,85.215 179.888,85.12 180.269,84.622 C 180.649,84.124 180.554,83.41 180.056,83.029 C 179.558,82.649 178.844,82.744 178.463,83.242 C 178.083,83.74 178.178,84.454 178.676,84.835 Z" fill="#dfcd3e" stroke="none" stroke-width="0.067" stroke-linejoin="round" stroke-linecap="round" marker-start="none" marker-end="none" stroke-miterlimit="79.8403193612775"/>
    <path d="M 193.257,89.718 C 193.755,90.098 194.469,90.003 194.85,89.505 C 195.23,89.007 195.135,88.293 194.637,87.912 C 194.139,87.532 193.425,87.627 193.044,88.125 C 192.664,88.623 192.759,89.337 193.257,89.718 Z" fill="#dfcd3e" stroke="none" stroke-width="0.067" stroke-linejoin="round" stroke-linecap="round" marker-start="none" marker-end="none" stroke-miterlimit="79.8403193612775"/>
    <path d="M 207.477,94.484 C 207.975,94.864 208.689,94.769 209.07,94.271 C 209.45,93.773 209.355,93.059 208.857,92.678 C 208.359,92.298 207.645,92.393 207.264,92.891 C 206.884,93.389 206.979,94.103 207.477,94.484 Z" fill="#dfcd3e" stroke="none" stroke-width="0.067" stroke-linejoin="round" stroke-linecap="round" marker-start="none" marker-end="none" stroke-miterlimit="79.8403193612775"/>
    <path d="M 221.936,99.367 C 222.434,99.747 223.148,99.652 223.529,99.154 C 223.909,98.656 223.814,97.942 223.316,97.561 C 222.818,97.181 222.104,97.276 221.723,97.774 C 221.343,98.272 221.438,98.986 221.936,99.367 Z" fill="#dfcd3e" stroke="none" stroke-width="0.067" stroke-linejoin="round" stroke-linecap="round" marker-start="none" marker-end="none" stroke-miterlimit="79.8403193612775"/>
    <path d="M 236.336,101.707 C 236.834,102.087 237.548,101.992 237.929,101.494 C 238.309,100.996 238.214,100.282 237.716,99.901 C 237.218,99.521 236.504,99.616 236.123,100.114 C 235.743,100.612 235.838,101.326 236.336,101.707 Z" fill="#dfcd3e" stroke="none" stroke-width="0.067" stroke-linejoin="round" stroke-linecap="round" marker-start="none" marker-end="none" stroke-miterlimit="79.8403193612775"/>
    <path d="M 250.676,104.227 C 251.174,104.607 251.888,104.512 252.269,104.014 C 252.649,103.516 252.554,102.802 252.056,102.421 C 251.558,102.041 250.844,102.136 250.463,102.634 C 250.083,103.132 250.178,103.846 250.676,104.227 Z" fill="#dfcd3e" stroke="none" stroke-width="0.067" stroke-linejoin="round" stroke-linecap="round" marker-start="none" marker-end="none" stroke-miterlimit="79.8403193612775"/>
    <path d="M 265.016,106.567 C 265.514,106.947 266.228,106.852 266.609,106.354 C 266.989,105.856 266.894,105.142 266.396,104.761 C 265.898,104.381 265.184,104.476 264.803,104.974 C 264.423,105.472 264.518,106.186 265.016,106.567 Z" fill="#dfcd3e" stroke="none" stroke-width="0.067" stroke-linejoin="round" stroke-linecap="round" marker-start="none" marker-end="none" stroke-miterlimit="79.8403193612775"/>
    <path d="M 279.476,108.967 C 279.974,109.347 280.688,109.252 281.069,108.754 C 281.449,108.256 281.354,107.542 280.856,107.161 C 280.358,106.781 279.644,106.876 279.263,107.374 C 278.883,107.872 278.978,108.586 279.476,108.967 Z" fill="#dfcd3e" stroke="none" stroke-width="0.067" stroke-linejoin="round" stroke-linecap="round" marker-start="none" marker-end="none" stroke-miterlimit="79.8403193612775"/>
    <path d="M 308.276,113.047 C 308.774,113.427 309.488,113.332 309.869,112.834 C 310.249,112.336 310.154,111.622 309.656,111.241 C 309.158,110.861 308.444,110.956 308.063,111.454 C 307.683,111.952 307.778,112.666 308.276,113.047 Z" fill="#dfcd3e" stroke="none" stroke-width="0.067" stroke-linejoin="round" stroke-linecap="round" marker-start="none" marker-end="none" stroke-miterlimit="79.8403193612775"/>
    <path d="M 322.676,115.207 C 323.174,115.587 323.888,115.492 324.269,114.994 C 324.649,114.496 324.554,113.782 324.056,113.401 C 323.558,113.021 322.844,113.116 322.463,113.614 C 322.083,114.112 322.178,114.826 322.676,115.207 Z" fill="#dfcd3e" stroke="none" stroke-width="0.067" stroke-linejoin="round" stroke-linecap="round" marker-start="none" marker-end="none" stroke-miterlimit="79.8403193612775"/>
    <path d="M 337.256,117.067 C 337.754,117.447 338.468,117.352 338.849,116.854 C 339.229,116.356 339.134,115.642 338.636,115.261 C 338.138,114.881 337.424,114.976 337.043,115.474 C 336.663,115.972 336.758,116.686 337.256,117.067 Z" fill="#dfcd3e" stroke="none" stroke-width="0.067" stroke-linejoin="round" stroke-linecap="round" marker-start="none" marker-end="none" stroke-miterlimit="79.8403193612775"/>
    <path d="M 351.476,119.167 C 351.974,119.547 352.688,119.452 353.069,118.954 C 353.449,118.456 353.354,117.742 352.856,117.361 C 352.358,116.981 351.644,117.076 351.263,117.574 C 350.883,118.072 350.978,118.786 351.476,119.167 Z" fill="#dfcd3e" stroke="none" stroke-width="0.067" stroke-linejoin="round" stroke-linecap="round" marker-start="none" marker-end="none" stroke-miterlimit="79.8403193612775"/>
    <path d="M 365.876,121.147 C 366.374,121.527 367.088,121.432 367.469,120.934 C 367.849,120.436 367.754,119.722 367.256,119.341 C 366.758,118.961 366.044,119.056 365.663,119.554 C 365.283,120.052 365.378,120.766 365.876,121.147 Z" fill="#dfcd3e" stroke="none" stroke-width="0.067" stroke-linejoin="round" stroke-linecap="round" marker-start="none" marker-end="none" stroke-miterlimit="79.8403193612775"/>
    <path d="M 380.396,123.127 C 380.894,123.507 381.608,123.412 381.989,122.914 C 382.369,122.416 382.274,121.702 381.776,121.321 C 381.278,120.941 380.564,121.036 380.183,121.534 C 379.803,122.032 379.898,122.746 380.396,123.127 Z" fill="#dfcd3e" stroke="none" stroke-width="0.067" stroke-linejoin="round" stroke-linecap="round" marker-start="none" marker-end="none" stroke-miterlimit="79.8403193612775"/>
    <path d="M 394.676,127.267 C 395.174,127.647 395.888,127.552 396.269,127.054 C 396.649,126.556 396.554,125.842 396.056,125.461 C 395.558,125.081 394.844,125.176 394.463,125.674 C 394.083,126.172 394.178,126.886 394.676,127.267 Z" fill="#dfcd3e" stroke="none" stroke-width="0.067" stroke-linejoin="round" stroke-linecap="round" marker-start="none" marker-end="none" stroke-miterlimit="79.8403193612775"/>
    <path d="M 409.136,131.227 C 409.634,131.607 410.348,131.512 410.729,131.014 C 411.109,130.516 411.014,129.802 410.516,129.421 C 410.018,129.041 409.304,129.136 408.923,129.634 C 408.543,130.132 408.638,130.846 409.136,131.227 Z" fill="#dfcd3e" stroke="none" stroke-width="0.067" stroke-linejoin="round" stroke-linecap="round" marker-start="none" marker-end="none" stroke-miterlimit="79.8403193612775"/>
    <path d="M 423.476,135.367 C 423.974,135.747 424.688,135.652 425.069,135.154 C 425.449,134.656 425.354,133.942 424.856,133.561 C 424.358,133.181 423.644,133.276 423.263,133.774 C 422.883,134.272 422.978,134.986 423.476,135.367 Z" fill="#dfcd3e" stroke="none" stroke-width="0.067" stroke-linejoin="round" stroke-linecap="round" marker-start="none" marker-end="none" stroke-miterlimit="79.8403193612775"/>
    <path d="M 438.055,144.427 C 438.553,144.807 439.267,144.712 439.648,144.214 C 440.028,143.716 439.933,143.002 439.435,142.621 C 438.937,142.241 438.223,142.336 437.842,142.834 C 437.462,143.332 437.557,144.046 438.055,144.427 Z" fill="#dfcd3e" stroke="none" stroke-width="0.067" stroke-linejoin="round" stroke-linecap="round" marker-start="none" marker-end="none" stroke-miterlimit="79.8403193612775"/>
    <path d="M 293.948,111.141 C 294.424,111.505 295.107,111.414 295.471,110.938 C 295.835,110.462 295.744,109.779 295.268,109.415 C 294.792,109.051 294.109,109.142 293.745,109.618 C 293.381,110.094 293.472,110.777 293.948,111.141 Z" fill="#dfcd3e" stroke-width="0.061" stroke="none" stroke-linejoin="round" stroke-linecap="round" marker-start="none" marker-end="none" stroke-miterlimit="79.8403193612775"/>
    <path d="M 293.949,108.496 C 294.425,108.86 295.108,108.769 295.472,108.293 C 295.836,107.817 295.745,107.134 295.269,106.77 C 294.793,106.406 294.11,106.497 293.746,106.973 C 293.382,107.449 293.473,108.132 293.949,108.496 Z" fill="#3ebe70" stroke-width="0.061" stroke="none" stroke-linejoin="round" stroke-linecap="round" marker-start="none" marker-end="none" stroke-miterlimit="79.8403193612775"/>
   </g>
  </g>
 </g>
</svg>
