<?xml version="1.0" standalone="no"?>
<!DOCTYPE svg PUBLIC "-//W3C//DTD SVG 1.1//EN" "http://www.w3.org/Graphics/SVG/1.1/DTD/svg11.dtd">
<!--Generator: Xara Designer (www.xara.com), SVG filter version: 5.0.0.2-->
<svg stroke-width="0.501" stroke-linejoin="bevel" fill-rule="evenodd" xmlns:xlink="http://www.w3.org/1999/xlink" xmlns="http://www.w3.org/2000/svg" version="1.1" overflow="visible" width="462.42pt" height="205.528pt" viewBox="0 0 462.42 205.528">
 <defs>
  <marker id="DefaultArrow2" markerUnits="strokeWidth" viewBox="0 0 1 1" markerWidth="1" markerHeight="1" overflow="visible" orient="auto">
   <!-- REF_ARROW_STRAIGHT (-2) -->
   <g transform="scale(0.0092592592)">
    <!-- 1/108 -->
    <path d="M -9 54 L -9 -54 L 117 0 z"/>
   </g>
  </marker>
  <marker id="DefaultArrow3" markerUnits="strokeWidth" viewBox="0 0 1 1" markerWidth="1" markerHeight="1" overflow="visible" orient="auto">
   <!-- REF_ARROW_ANGLED -->
   <g transform="scale(0.0092592592)">
    <path d="M -27 54 L -9 0 L -27 -54 L 135 0 z"/>
   </g>
  </marker>
  <marker id="DefaultArrow4" markerUnits="strokeWidth" viewBox="0 0 1 1" markerWidth="1" markerHeight="1" overflow="visible" orient="auto">
   <!-- REF_ARROW_ROUNDED -->
   <g transform="scale(0.0092592592)">
    <path d="M -9,0 L -9,-45 C -9,-51.708 2.808,-56.580 9,-54 L 117,-9 C 120.916,-7.369 126.000,-4.242 126,0 C 126,4.242 120.916,7.369 117,9 L 9,54 C 2.808,56.580 -9,51.708 -9,45 z"/>
   </g>
  </marker>
  <marker id="DefaultArrow5" markerUnits="strokeWidth" viewBox="0 0 1 1" markerWidth="1" markerHeight="1" overflow="visible" orient="auto">
   <!-- REF_ARROW_SPOT -->
   <g transform="scale(0.0092592592)">
    <path d="M -54, 0 C -54,29.807 -29.807,54 0,54 C 29.807,54 54,29.807 54,0 C 54,-29.807 29.807,-54 0,-54 C -29.807,-54 -54,-29.807 -54,0 z"/>
   </g>
  </marker>
  <marker id="DefaultArrow6" markerUnits="strokeWidth" viewBox="0 0 1 1" markerWidth="1" markerHeight="1" overflow="visible" orient="auto">
   <!-- REF_ARROW_DIAMOND -->
   <g transform="scale(0.0092592592)">
    <path d="M -63,0 L 0,63 L 63,0 L 0,-63 z"/>
   </g>
  </marker>
  <marker id="DefaultArrow7" markerUnits="strokeWidth" viewBox="0 0 1 1" markerWidth="1" markerHeight="1" overflow="visible" orient="auto">
   <!-- REF_ARROW_FEATHER -->
   <g transform="scale(0.0092592592)">
    <path d="M 18,-54 L 108,-54 L 63,0 L 108,54 L 18, 54 L -36,0 z"/>
   </g>
  </marker>
  <marker id="DefaultArrow8" markerUnits="strokeWidth" viewBox="0 0 1 1" markerWidth="1" markerHeight="1" overflow="visible" orient="auto">
   <!-- REF_ARROW_FEATHER2 -->
   <g transform="scale(0.0092592592)">
    <path d="M -36,0 L 18,-54 L 54,-54 L 18,-18 L 27,-18 L 63,-54 L 99,-54 L 63,-18 L 72,-18 L 108,-54 L 144,-54 L 90,0 L 144,54 L 108,54 L 72,18 L 63,18 L 99,54 L 63,54 L 27,18 L 18,18 L 54,54 L 18,54 z"/>
   </g>
  </marker>
  <marker id="DefaultArrow9" markerUnits="strokeWidth" viewBox="0 0 1 1" markerWidth="1" markerHeight="1" overflow="visible" orient="auto">
   <!-- REF_ARROW_HOLLOWDIAMOND -->
   <g transform="scale(0.0092592592)">
    <path d="M 0,45 L -45,0 L 0, -45 L 45, 0 z M 0, 63 L-63, 0 L 0, -63 L 63, 0 z"/>
   </g>
  </marker>
  <filter id="StainedFilter">
   <feBlend mode="multiply" in2="BackgroundImage" in="SourceGraphic" result="blend"/>
   <feComposite in="blend" in2="SourceAlpha" operator="in" result="comp"/>
  </filter>
  <filter id="BleachFilter">
   <feBlend mode="screen" in2="BackgroundImage" in="SourceGraphic" result="blend"/>
   <feComposite in="blend" in2="SourceAlpha" operator="in" result="comp"/>
  </filter>
  <filter id="InvertTransparencyBitmapFilter">
   <feComponentTransfer>
    <feFuncR type="gamma" amplitude="1.055" exponent=".416666666" offset="-0.055"/>
    <feFuncG type="gamma" amplitude="1.055" exponent=".416666666" offset="-0.055"/>
    <feFuncB type="gamma" amplitude="1.055" exponent=".416666666" offset="-0.055"/>
   </feComponentTransfer>
   <feComponentTransfer>
    <feFuncR type="linear" slope="-1" intercept="1"/>
    <feFuncG type="linear" slope="-1" intercept="1"/>
    <feFuncB type="linear" slope="-1" intercept="1"/>
    <feFuncA type="linear" slope="1" intercept="0"/>
   </feComponentTransfer>
   <feComponentTransfer>
    <feFuncR type="gamma" amplitude="1" exponent="2.4" offset="0"/>
    <feFuncG type="gamma" amplitude="1" exponent="2.4" offset="0"/>
    <feFuncB type="gamma" amplitude="1" exponent="2.4" offset="0"/>
   </feComponentTransfer>
  </filter>
  <linearGradient id="LinearGradient" gradientUnits="userSpaceOnUse" x1="0" y1="0" x2="21.74" y2="0" gradientTransform="translate(151.334 182.527) rotate(92.3145) skewX(1.36648)">
   <stop offset="0" stop-color="#e5e5e5"/>
   <stop offset="1" stop-color="#ffffff"/>
  </linearGradient>
 </defs>
 <g id="Document" fill="none" stroke="black" font-family="Times New Roman" font-size="16" transform="scale(1 -1)">
  <g id="Spread" transform="translate(0 -205.528)">
   <g id="Layer 1">
    <path d="M 0.75,204.228 L 0.75,1.473 C 0.75,1.128 1.03,0.848 1.375,0.848 L 459.164,0.848 C 459.509,0.848 459.789,1.128 459.789,1.473 L 459.789,204.228 C 459.789,204.573 459.509,204.853 459.164,204.853 L 1.375,204.853 C 1.03,204.853 0.75,204.573 0.75,204.228 Z" stroke="#0b3c5a" stroke-width="0.375" stroke-linejoin="miter" stroke-linecap="round" fill="#ffffff" marker-start="none" marker-end="none" stroke-miterlimit="79.8403193612775"/>
    <path d="M 459.789,204.858 L 0.85,204.858" fill="none" stroke="#4c4c4c" stroke-linecap="square" stroke-linejoin="round" stroke-width="0.375" stroke-miterlimit="79.8403193612775"/>
    <path d="M 0.958,204.626 L 0.958,187.031 L 459.977,187.031 L 459.977,204.626 L 0.958,204.626 Z" stroke="none" stroke-linecap="round" stroke-width="0.75" stroke-linejoin="miter" marker-start="none" marker-end="none" stroke-miterlimit="79.8403193612775" fill="url(#LinearGradient)"/>
    <path d="M 459.637,186.943 L 1.216,186.943" fill="none" stroke="#4c4c4c" stroke-linecap="square" stroke-linejoin="round" stroke-width="0.375" stroke-miterlimit="79.8403193612775"/>
    <g id="Group" stroke-linejoin="round" stroke-linecap="round" stroke="#b2b2b2" stroke-width="0.188" fill="#b2b2b2" stroke-miterlimit="79.8403193612775">
     <path d="M 455.757,32.279 L 36.643,31.879" fill="none"/>
     <path d="M 455.757,47.524 L 36.643,47.124" fill="none"/>
     <path d="M 455.757,62.77 L 36.643,62.37" fill="none"/>
     <path d="M 455.757,78.015 L 36.643,77.616" fill="none"/>
     <path d="M 455.757,93.261 L 36.643,92.862" fill="none"/>
     <path d="M 455.757,108.507 L 36.643,108.107" fill="none"/>
     <path d="M 455.757,123.752 L 36.643,123.353" fill="none"/>
     <path d="M 455.757,138.998 L 36.643,138.599" fill="none"/>
     <path d="M 455.757,154.244 L 36.643,153.845" fill="none"/>
     <path d="M 455.757,169.49 L 36.643,169.091" fill="none"/>
    </g>
    <g id="Group_1" stroke-dasharray="1.504 1.504" stroke-dashoffset="0" stroke-linejoin="round" stroke-linecap="square" stroke="#4c4c4c" stroke-width="0.188" fill="#4c4c4c" stroke-miterlimit="79.8403193612775">
     <path d="M 44.111,172.149 L 44.111,26.403" fill="none"/>
     <path d="M 102.858,172.149 L 102.858,26.403" fill="none"/>
     <path d="M 161.605,172.149 L 161.605,26.403" fill="none"/>
     <path d="M 220.352,172.149 L 220.352,26.403" fill="none"/>
     <path d="M 279.1,172.15 L 279.1,26.404" fill="none"/>
     <path d="M 337.847,172.15 L 337.847,26.404" fill="none"/>
     <path d="M 396.594,172.15 L 396.594,26.404" fill="none"/>
     <path d="M 455.342,172.151 L 455.342,26.405" fill="none"/>
    </g>
    <text xml:space="preserve" transform="translate(18.81 193.18) scale(1 -1)" fill="#333333" stroke-width="0.27" stroke-linejoin="round" font-size="6" font-family="Arial" stroke-linecap="round" stroke="none" stroke-miterlimit="79.8403193612775"><tspan x="0" y="0">Плановые сре</tspan><tspan x="39.85" y="0">дств</tspan><tspan x="52.221" y="0">а</tspan></text>
    <path d="M 12.827,192.686 C 11.388,191.894 9.578,192.42 8.787,193.858 C 7.995,195.297 8.521,197.107 9.959,197.898 C 11.398,198.69 13.208,198.164 13.999,196.726 C 14.791,195.287 14.265,193.477 12.827,192.686 Z" fill="#3f8cdc" stroke-linecap="round" stroke-width="0.174" stroke="#4c4c4c" stroke-linejoin="miter" marker-start="none" marker-end="none" stroke-miterlimit="79.8403193612775"/>
    <text xml:space="preserve" transform="translate(72.446 17.317) scale(1 -1)" font-size="8" fill="#4c4c4c" font-family="Arial" stroke-linejoin="round" stroke-linecap="round" stroke="none" stroke-width="0.252" stroke-miterlimit="79.8403193612775"><tspan x="-10.168" y="0">Июнь</tspan></text>
    <text xml:space="preserve" transform="translate(109.356 193.18) scale(1 -1)" fill="#333333" stroke-width="0.27" stroke-linejoin="round" font-size="6" font-family="Arial" stroke-linecap="round" stroke="none" stroke-miterlimit="79.8403193612775"><tspan x="0" y="0">Фак</tspan><tspan x="10.591" y="0">тические сре</tspan><tspan x="46.678" y="0">дств</tspan><tspan x="59.049" y="0">а</tspan></text>
    <path d="M 103.373,192.686 C 101.934,191.894 100.124,192.42 99.333,193.858 C 98.541,195.297 99.067,197.107 100.505,197.898 C 101.944,198.69 103.754,198.164 104.545,196.726 C 105.337,195.287 104.811,193.477 103.373,192.686 Z" fill="#6fad47" stroke-linecap="round" stroke-width="0.174" stroke="#4c4c4c" stroke-linejoin="miter" marker-start="none" marker-end="none" stroke-miterlimit="79.8403193612775"/>
    <text xml:space="preserve" transform="translate(34.098 29.69) scale(1 -1)" font-size="6" fill="#4c4c4c" font-family="Arial" stroke-linejoin="round" stroke-linecap="round" stroke="none" stroke-width="0.252" stroke-miterlimit="79.8403193612775"><tspan x="-3.337" y="0">0</tspan><tspan x="-0.55" y="0" font-weight="bold" text-decoration="underline"> </tspan></text>
    <path d="M 34.665,29.09 L 34.665,29.09" fill="none" marker-end="none" marker-start="none" stroke-linecap="butt" stroke="#4c4c4c" stroke-width="0.3" stroke-miterlimit="79.8403193612775"/>
    <text xml:space="preserve" transform="translate(34.102 75.946) scale(1 -1)" font-size="6" fill="#4c4c4c" font-family="Arial" stroke-linejoin="round" stroke-linecap="round" stroke="none" stroke-width="0.252" stroke-miterlimit="79.8403193612775"><tspan x="-19.882" y="0">3 </tspan><tspan x="-15.978" y="0">м</tspan><tspan x="-12.403" y="0">л</tspan><tspan x="-9.452" y="0">н</tspan><tspan x="-6.688" y="0">. </tspan><tspan x="-4.454" y="0">р</tspan><tspan x="-1.667" y="0">.</tspan><tspan x="-0.55" y="0" font-weight="bold" text-decoration="underline"> </tspan></text>
    <path d="M 34.669,75.346 L 34.669,75.346" fill="none" marker-end="none" marker-start="none" stroke-linecap="butt" stroke="#4c4c4c" stroke-width="0.3" stroke-miterlimit="79.8403193612775"/>
    <text xml:space="preserve" transform="translate(34.103 91.364) scale(1 -1)" font-size="6" fill="#4c4c4c" font-family="Arial" stroke-linejoin="round" stroke-linecap="round" stroke="none" stroke-width="0.252" stroke-miterlimit="79.8403193612775"><tspan x="-19.882" y="0">4 </tspan><tspan x="-15.978" y="0">м</tspan><tspan x="-12.403" y="0">л</tspan><tspan x="-9.452" y="0">н</tspan><tspan x="-6.688" y="0">. </tspan><tspan x="-4.454" y="0">р</tspan><tspan x="-1.667" y="0">.</tspan><tspan x="-0.55" y="0" font-weight="bold" text-decoration="underline"> </tspan></text>
    <path d="M 34.67,90.764 L 34.67,90.764" fill="none" marker-end="none" marker-start="none" stroke-linecap="butt" stroke="#4c4c4c" stroke-width="0.3" stroke-miterlimit="79.8403193612775"/>
    <text xml:space="preserve" transform="translate(34.103 106.572) scale(1 -1)" font-size="6" fill="#4c4c4c" font-family="Arial" stroke-linejoin="round" stroke-linecap="round" stroke="none" stroke-width="0.252" stroke-miterlimit="79.8403193612775"><tspan x="-19.882" y="0">5 </tspan><tspan x="-15.978" y="0">м</tspan><tspan x="-12.403" y="0">л</tspan><tspan x="-9.452" y="0">н</tspan><tspan x="-6.688" y="0">. </tspan><tspan x="-4.454" y="0">р</tspan><tspan x="-1.667" y="0">.</tspan><tspan x="-0.55" y="0" font-weight="bold" text-decoration="underline"> </tspan></text>
    <path d="M 34.67,105.972 L 34.67,105.972" fill="none" marker-end="none" marker-start="none" stroke-linecap="butt" stroke="#4c4c4c" stroke-width="0.3" stroke-miterlimit="79.8403193612775"/>
    <text xml:space="preserve" transform="translate(34.103 121.741) scale(1 -1)" font-size="6" fill="#4c4c4c" font-family="Arial" stroke-linejoin="round" stroke-linecap="round" stroke="none" stroke-width="0.252" stroke-miterlimit="79.8403193612775"><tspan x="-19.882" y="0">6 </tspan><tspan x="-15.978" y="0">м</tspan><tspan x="-12.403" y="0">л</tspan><tspan x="-9.452" y="0">н</tspan><tspan x="-6.688" y="0">. </tspan><tspan x="-4.454" y="0">р</tspan><tspan x="-1.667" y="0">.</tspan><tspan x="-0.55" y="0" font-weight="bold" text-decoration="underline"> </tspan></text>
    <path d="M 34.67,121.141 L 34.67,121.141" fill="none" marker-end="none" marker-start="none" stroke-linecap="butt" stroke="#4c4c4c" stroke-width="0.3" stroke-miterlimit="79.8403193612775"/>
    <text xml:space="preserve" transform="translate(34.103 137.015) scale(1 -1)" font-size="6" fill="#4c4c4c" font-family="Arial" stroke-linejoin="round" stroke-linecap="round" stroke="none" stroke-width="0.252" stroke-miterlimit="79.8403193612775"><tspan x="-19.882" y="0">7 </tspan><tspan x="-15.978" y="0">м</tspan><tspan x="-12.403" y="0">л</tspan><tspan x="-9.452" y="0">н</tspan><tspan x="-6.688" y="0">. </tspan><tspan x="-4.454" y="0">р</tspan><tspan x="-1.667" y="0">.</tspan><tspan x="-0.55" y="0" font-weight="bold" text-decoration="underline"> </tspan></text>
    <path d="M 34.67,136.415 L 34.67,136.415" fill="none" marker-end="none" marker-start="none" stroke-linecap="butt" stroke="#4c4c4c" stroke-width="0.3" stroke-miterlimit="79.8403193612775"/>
    <text xml:space="preserve" transform="translate(34.103 152.406) scale(1 -1)" font-size="6" fill="#4c4c4c" font-family="Arial" stroke-linejoin="round" stroke-linecap="round" stroke="none" stroke-width="0.252" stroke-miterlimit="79.8403193612775"><tspan x="-19.882" y="0">8 </tspan><tspan x="-15.978" y="0">м</tspan><tspan x="-12.403" y="0">л</tspan><tspan x="-9.452" y="0">н</tspan><tspan x="-6.688" y="0">. </tspan><tspan x="-4.454" y="0">р</tspan><tspan x="-1.667" y="0">.</tspan><tspan x="-0.55" y="0" font-weight="bold" text-decoration="underline"> </tspan></text>
    <path d="M 34.67,151.806 L 34.67,151.806" fill="none" marker-end="none" marker-start="none" stroke-linecap="butt" stroke="#4c4c4c" stroke-width="0.3" stroke-miterlimit="79.8403193612775"/>
    <text xml:space="preserve" transform="translate(34.103 167.257) scale(1 -1)" font-size="6" fill="#4c4c4c" font-family="Arial" stroke-linejoin="round" stroke-linecap="round" stroke="none" stroke-width="0.252" stroke-miterlimit="79.8403193612775"><tspan x="-19.882" y="0">9 </tspan><tspan x="-15.978" y="0">м</tspan><tspan x="-12.403" y="0">л</tspan><tspan x="-9.452" y="0">н</tspan><tspan x="-6.688" y="0">. </tspan><tspan x="-4.454" y="0">р</tspan><tspan x="-1.667" y="0">.</tspan><tspan x="-0.55" y="0" font-weight="bold" text-decoration="underline"> </tspan></text>
    <path d="M 34.67,166.657 L 34.67,166.657" fill="none" marker-end="none" marker-start="none" stroke-linecap="butt" stroke="#4c4c4c" stroke-width="0.3" stroke-miterlimit="79.8403193612775"/>
    <text xml:space="preserve" transform="translate(34.103 45.475) scale(1 -1)" font-size="6" fill="#4c4c4c" font-family="Arial" stroke-linejoin="round" stroke-linecap="round" stroke="none" stroke-width="0.252" stroke-miterlimit="79.8403193612775"><tspan x="-19.882" y="0">1 </tspan><tspan x="-15.978" y="0">м</tspan><tspan x="-12.403" y="0">л</tspan><tspan x="-9.452" y="0">н</tspan><tspan x="-6.688" y="0">. </tspan><tspan x="-4.454" y="0">р</tspan><tspan x="-1.667" y="0">.</tspan><tspan x="-0.55" y="0" font-weight="bold" text-decoration="underline"> </tspan></text>
    <path d="M 34.67,44.875 L 34.67,44.875" fill="none" marker-end="none" marker-start="none" stroke-linecap="butt" stroke="#4c4c4c" stroke-width="0.3" stroke-miterlimit="79.8403193612775"/>
    <text xml:space="preserve" transform="translate(34.104 60.834) scale(1 -1)" font-size="6" fill="#4c4c4c" font-family="Arial" stroke-linejoin="round" stroke-linecap="round" stroke="none" stroke-width="0.252" stroke-miterlimit="79.8403193612775"><tspan x="-19.882" y="0">2 </tspan><tspan x="-15.978" y="0">м</tspan><tspan x="-12.403" y="0">л</tspan><tspan x="-9.452" y="0">н</tspan><tspan x="-6.688" y="0">. </tspan><tspan x="-4.454" y="0">р</tspan><tspan x="-1.667" y="0">.</tspan><tspan x="-0.55" y="0" font-weight="bold" text-decoration="underline"> </tspan></text>
    <path d="M 34.671,60.234 L 34.671,60.234" fill="none" marker-end="none" marker-start="none" stroke-linecap="butt" stroke="#4c4c4c" stroke-width="0.3" stroke-miterlimit="79.8403193612775"/>
    <text xml:space="preserve" transform="translate(130.373 17.317) scale(1 -1)" font-size="8" fill="#4c4c4c" font-family="Arial" stroke-linejoin="round" stroke-linecap="round" stroke="none" stroke-width="0.252" stroke-miterlimit="79.8403193612775"><tspan x="-10.205" y="0">Ию</tspan><tspan x="1.37" y="0">ль</tspan></text>
    <text xml:space="preserve" transform="translate(190.375 17.317) scale(1 -1)" font-size="8" fill="#4c4c4c" font-family="Arial" stroke-linejoin="round" stroke-linecap="round" stroke="none" stroke-width="0.252" stroke-miterlimit="79.8403193612775"><tspan x="-12.039" y="0">Авгу</tspan><tspan x="4.376" y="0">ст</tspan></text>
    <text xml:space="preserve" transform="translate(248.875 17.317) scale(1 -1)" font-size="8" fill="#4c4c4c" font-family="Arial" stroke-linejoin="round" stroke-linecap="round" stroke="none" stroke-width="0.252" stroke-miterlimit="79.8403193612775"><tspan x="-17.919" y="0">Сентябрь</tspan></text>
    <text xml:space="preserve" transform="translate(310.386 17.317) scale(1 -1)" font-size="8" fill="#4c4c4c" font-family="Arial" stroke-linejoin="round" stroke-linecap="round" stroke="none" stroke-width="0.252" stroke-miterlimit="79.8403193612775"><tspan x="-15.504" y="0">Ок</tspan><tspan x="-5.691" y="0">тябрь</tspan></text>
    <text xml:space="preserve" transform="translate(366.537 17.317) scale(1 -1)" font-size="8" fill="#4c4c4c" font-family="Arial" stroke-linejoin="round" stroke-linecap="round" stroke="none" stroke-width="0.252" stroke-miterlimit="79.8403193612775"><tspan x="-13.878" y="0">Ноябрь</tspan></text>
    <text xml:space="preserve" transform="translate(427.148 17.317) scale(1 -1)" font-size="8" fill="#4c4c4c" font-family="Arial" stroke-linejoin="round" stroke-linecap="round" stroke="none" stroke-width="0.252" stroke-miterlimit="79.8403193612775"><tspan x="-15.595" y="0">Дек</tspan><tspan x="-2.052" y="0">абрь</tspan></text>
    <path d="M 57.737,98.363 L 57.737,32.184 L 89.786,32.184 L 89.786,98.363 L 57.737,98.363 Z" fill="#6fad47" stroke="none" stroke-linecap="round" stroke-width="0.375" stroke-linejoin="miter" marker-start="none" marker-end="none" stroke-miterlimit="79.8403193612775"/>
    <path d="M 115.941,92.293 L 115.941,32.184 L 147.99,32.184 L 147.99,92.293 L 115.941,92.293 Z" fill="#6fad47" stroke="none" stroke-linecap="round" stroke-width="0.375" stroke-linejoin="miter" marker-start="none" marker-end="none" stroke-miterlimit="79.8403193612775"/>
    <path d="M 115.942,109.5 L 115.942,91.827 L 147.991,91.827 L 147.991,109.5 L 115.942,109.5 Z" fill="#3f8cdc" stroke="none" stroke-linecap="round" stroke-width="0.375" stroke-linejoin="miter" marker-start="none" marker-end="none" stroke-miterlimit="79.8403193612775"/>
    <path d="M 174.186,146.749 L 174.186,32.184 L 206.235,32.184 L 206.235,146.749 L 174.186,146.749 Z" fill="#6fad47" stroke="none" stroke-linecap="round" stroke-width="0.375" stroke-linejoin="miter" marker-start="none" marker-end="none" stroke-miterlimit="79.8403193612775"/>
    <path d="M 232.753,110.134 L 232.753,32.185 L 264.802,32.185 L 264.802,110.134 L 232.753,110.134 Z" fill="#6fad47" stroke="none" stroke-linecap="round" stroke-width="0.375" stroke-linejoin="miter" marker-start="none" marker-end="none" stroke-miterlimit="79.8403193612775"/>
    <path d="M 289.764,40.265 L 289.764,32.184 L 321.813,32.184 L 321.813,40.265 L 289.764,40.265 Z" fill="#6fad47" stroke="none" stroke-linecap="round" stroke-width="0.375" stroke-linejoin="miter" marker-start="none" marker-end="none" stroke-miterlimit="79.8403193612775"/>
    <path d="M 289.765,42.89 L 289.765,39.561 L 321.814,39.561 L 321.814,42.89 L 289.765,42.89 Z" fill="#3f8cdc" stroke="none" stroke-linecap="round" stroke-width="0.375" stroke-linejoin="miter" marker-start="none" marker-end="none" stroke-miterlimit="79.8403193612775"/>
    <path d="M 350.723,96.122 L 350.723,32.185 L 382.772,32.185 L 382.772,96.122 L 350.723,96.122 Z" fill="#6fad47" stroke="none" stroke-linecap="round" stroke-width="0.375" stroke-linejoin="miter" marker-start="none" marker-end="none" stroke-miterlimit="79.8403193612775"/>
    <path d="M 350.724,99.589 L 350.724,95.79 L 382.773,95.79 L 382.773,99.589 L 350.724,99.589 Z" fill="#970303" stroke="none" stroke-linecap="round" stroke-width="0.375" stroke-linejoin="miter" marker-start="none" marker-end="none" stroke-miterlimit="79.8403193612775"/>
    <path d="M 408.821,43.216 L 408.821,32.185 L 440.87,32.185 L 440.87,43.216 L 408.821,43.216 Z" fill="#6fad47" stroke="none" stroke-linecap="round" stroke-width="0.375" stroke-linejoin="miter" marker-start="none" marker-end="none" stroke-miterlimit="79.8403193612775"/>
    <path d="M 408.822,55.825 L 408.822,42.528 L 440.871,42.528 L 440.871,55.825 L 408.822,55.825 Z" fill="#3f8cdc" stroke="none" stroke-linecap="round" stroke-width="0.375" stroke-linejoin="miter" marker-start="none" marker-end="none" stroke-miterlimit="79.8403193612775"/>
    <text xml:space="preserve" transform="translate(205.356 193.18) scale(1 -1)" fill="#333333" stroke-width="0.27" stroke-linejoin="round" font-size="6" font-family="Arial" stroke-linecap="round" stroke="none" stroke-miterlimit="79.8403193612775"><tspan x="0" y="0">Перерасх</tspan><tspan x="26.932" y="0">о</tspan><tspan x="30.138" y="0">д сре</tspan><tspan x="44.849" y="0">дств</tspan></text>
    <path d="M 199.373,192.686 C 197.934,191.894 196.124,192.42 195.333,193.858 C 194.541,195.297 195.067,197.107 196.505,197.898 C 197.944,198.69 199.754,198.164 200.545,196.726 C 201.337,195.287 200.811,193.477 199.373,192.686 Z" fill="#970303" stroke-linecap="round" stroke-width="0.174" stroke="#4c4c4c" stroke-linejoin="miter" marker-start="none" marker-end="none" stroke-miterlimit="79.8403193612775"/>
   </g>
  </g>
 </g>
</svg>
