<?xml version="1.0" standalone="no"?>
<!DOCTYPE svg PUBLIC "-//W3C//DTD SVG 1.1//EN" "http://www.w3.org/Graphics/SVG/1.1/DTD/svg11.dtd">
<!--Generator: Xara Designer (www.xara.com), SVG filter version: 5.0.0.2-->
<svg stroke-width="0.501" stroke-linejoin="bevel" fill-rule="evenodd" xmlns:xlink="http://www.w3.org/1999/xlink" xmlns="http://www.w3.org/2000/svg" version="1.1" overflow="visible" width="462.42pt" height="205.528pt" viewBox="0 0 462.42 205.528">
 <defs>
  <marker id="DefaultArrow2" markerUnits="strokeWidth" viewBox="0 0 1 1" markerWidth="1" markerHeight="1" overflow="visible" orient="auto">
   <!-- REF_ARROW_STRAIGHT (-2) -->
   <g transform="scale(0.0092592592)">
    <!-- 1/108 -->
    <path d="M -9 54 L -9 -54 L 117 0 z"/>
   </g>
  </marker>
  <marker id="DefaultArrow3" markerUnits="strokeWidth" viewBox="0 0 1 1" markerWidth="1" markerHeight="1" overflow="visible" orient="auto">
   <!-- REF_ARROW_ANGLED -->
   <g transform="scale(0.0092592592)">
    <path d="M -27 54 L -9 0 L -27 -54 L 135 0 z"/>
   </g>
  </marker>
  <marker id="DefaultArrow4" markerUnits="strokeWidth" viewBox="0 0 1 1" markerWidth="1" markerHeight="1" overflow="visible" orient="auto">
   <!-- REF_ARROW_ROUNDED -->
   <g transform="scale(0.0092592592)">
    <path d="M -9,0 L -9,-45 C -9,-51.708 2.808,-56.580 9,-54 L 117,-9 C 120.916,-7.369 126.000,-4.242 126,0 C 126,4.242 120.916,7.369 117,9 L 9,54 C 2.808,56.580 -9,51.708 -9,45 z"/>
   </g>
  </marker>
  <marker id="DefaultArrow5" markerUnits="strokeWidth" viewBox="0 0 1 1" markerWidth="1" markerHeight="1" overflow="visible" orient="auto">
   <!-- REF_ARROW_SPOT -->
   <g transform="scale(0.0092592592)">
    <path d="M -54, 0 C -54,29.807 -29.807,54 0,54 C 29.807,54 54,29.807 54,0 C 54,-29.807 29.807,-54 0,-54 C -29.807,-54 -54,-29.807 -54,0 z"/>
   </g>
  </marker>
  <marker id="DefaultArrow6" markerUnits="strokeWidth" viewBox="0 0 1 1" markerWidth="1" markerHeight="1" overflow="visible" orient="auto">
   <!-- REF_ARROW_DIAMOND -->
   <g transform="scale(0.0092592592)">
    <path d="M -63,0 L 0,63 L 63,0 L 0,-63 z"/>
   </g>
  </marker>
  <marker id="DefaultArrow7" markerUnits="strokeWidth" viewBox="0 0 1 1" markerWidth="1" markerHeight="1" overflow="visible" orient="auto">
   <!-- REF_ARROW_FEATHER -->
   <g transform="scale(0.0092592592)">
    <path d="M 18,-54 L 108,-54 L 63,0 L 108,54 L 18, 54 L -36,0 z"/>
   </g>
  </marker>
  <marker id="DefaultArrow8" markerUnits="strokeWidth" viewBox="0 0 1 1" markerWidth="1" markerHeight="1" overflow="visible" orient="auto">
   <!-- REF_ARROW_FEATHER2 -->
   <g transform="scale(0.0092592592)">
    <path d="M -36,0 L 18,-54 L 54,-54 L 18,-18 L 27,-18 L 63,-54 L 99,-54 L 63,-18 L 72,-18 L 108,-54 L 144,-54 L 90,0 L 144,54 L 108,54 L 72,18 L 63,18 L 99,54 L 63,54 L 27,18 L 18,18 L 54,54 L 18,54 z"/>
   </g>
  </marker>
  <marker id="DefaultArrow9" markerUnits="strokeWidth" viewBox="0 0 1 1" markerWidth="1" markerHeight="1" overflow="visible" orient="auto">
   <!-- REF_ARROW_HOLLOWDIAMOND -->
   <g transform="scale(0.0092592592)">
    <path d="M 0,45 L -45,0 L 0, -45 L 45, 0 z M 0, 63 L-63, 0 L 0, -63 L 63, 0 z"/>
   </g>
  </marker>
  <filter id="StainedFilter">
   <feBlend mode="multiply" in2="BackgroundImage" in="SourceGraphic" result="blend"/>
   <feComposite in="blend" in2="SourceAlpha" operator="in" result="comp"/>
  </filter>
  <filter id="BleachFilter">
   <feBlend mode="screen" in2="BackgroundImage" in="SourceGraphic" result="blend"/>
   <feComposite in="blend" in2="SourceAlpha" operator="in" result="comp"/>
  </filter>
  <filter id="InvertTransparencyBitmapFilter">
   <feComponentTransfer>
    <feFuncR type="gamma" amplitude="1.055" exponent=".416666666" offset="-0.055"/>
    <feFuncG type="gamma" amplitude="1.055" exponent=".416666666" offset="-0.055"/>
    <feFuncB type="gamma" amplitude="1.055" exponent=".416666666" offset="-0.055"/>
   </feComponentTransfer>
   <feComponentTransfer>
    <feFuncR type="linear" slope="-1" intercept="1"/>
    <feFuncG type="linear" slope="-1" intercept="1"/>
    <feFuncB type="linear" slope="-1" intercept="1"/>
    <feFuncA type="linear" slope="1" intercept="0"/>
   </feComponentTransfer>
   <feComponentTransfer>
    <feFuncR type="gamma" amplitude="1" exponent="2.4" offset="0"/>
    <feFuncG type="gamma" amplitude="1" exponent="2.4" offset="0"/>
    <feFuncB type="gamma" amplitude="1" exponent="2.4" offset="0"/>
   </feComponentTransfer>
  </filter>
  <linearGradient id="LinearGradient" gradientUnits="userSpaceOnUse" x1="0" y1="0" x2="21.74" y2="0" gradientTransform="translate(151.213 182.307) rotate(92.3145) skewX(1.36648)">
   <stop offset="0" stop-color="#e5e5e5"/>
   <stop offset="1" stop-color="#ffffff"/>
  </linearGradient>
 </defs>
 <g id="Document" fill="none" stroke="black" font-family="Times New Roman" font-size="16" transform="scale(1 -1)">
  <g id="Spread" transform="translate(0 -205.528)">
   <g id="Layer 1">
    <path d="M 0.629,204.021 L 0.629,1.258 C 0.629,0.913 0.909,0.633 1.254,0.633 L 459.043,0.633 C 459.388,0.633 459.668,0.913 459.668,1.258 L 459.668,204.021 C 459.668,204.366 459.388,204.646 459.043,204.646 L 1.254,204.646 C 0.909,204.646 0.629,204.366 0.629,204.021 Z" stroke="#0b3c5a" stroke-width="0.375" stroke-linejoin="miter" stroke-linecap="round" fill="#ffffff" marker-start="none" marker-end="none" stroke-miterlimit="79.8403193612775"/>
    <path d="M 459.668,204.638 L 0.729,204.638" fill="none" stroke="#4c4c4c" stroke-linecap="square" stroke-linejoin="round" stroke-width="0.375" stroke-miterlimit="79.8403193612775"/>
    <path d="M 0.837,204.406 L 0.837,186.811 L 459.856,186.811 L 459.856,204.406 L 0.837,204.406 Z" stroke="none" stroke-linecap="round" stroke-width="0.75" stroke-linejoin="miter" marker-start="none" marker-end="none" stroke-miterlimit="79.8403193612775" fill="url(#LinearGradient)"/>
    <path d="M 459.516,186.723 L 1.095,186.723" fill="none" stroke="#4c4c4c" stroke-linecap="square" stroke-linejoin="round" stroke-width="0.375" stroke-miterlimit="79.8403193612775"/>
    <g id="Group" stroke-linejoin="round" stroke-linecap="round" stroke="#b2b2b2" stroke-width="0.188" fill="#b2b2b2" stroke-miterlimit="79.8403193612775">
     <path d="M 455.636,32.059 L 36.522,31.659" fill="none"/>
     <path d="M 455.636,59.501 L 36.522,59.101" fill="none"/>
     <path d="M 455.636,86.943 L 36.522,86.543" fill="none"/>
     <path d="M 455.636,114.385 L 36.522,113.986" fill="none"/>
     <path d="M 455.636,141.827 L 36.522,141.428" fill="none"/>
     <path d="M 455.636,169.27 L 36.522,168.871" fill="none"/>
    </g>
    <g id="Group_1" stroke-dasharray="1.504 1.504" stroke-dashoffset="0" stroke-linejoin="round" stroke-linecap="square" stroke="#4c4c4c" stroke-width="0.188" fill="#4c4c4c" stroke-miterlimit="79.8403193612775">
     <path d="M 43.99,171.929 L 43.99,26.183" fill="none"/>
     <path d="M 181.066,171.929 L 181.066,26.183" fill="none"/>
     <path d="M 318.143,171.93 L 318.143,26.184" fill="none"/>
     <path d="M 455.221,171.931 L 455.221,26.185" fill="none"/>
    </g>
    <text xml:space="preserve" transform="translate(18.689 192.96) scale(1 -1)" fill="#333333" stroke-width="0.27" stroke-linejoin="round" font-size="6" font-family="Arial" stroke-linecap="round" stroke="none" stroke-miterlimit="79.8403193612775"><tspan x="0" y="0">Всег</tspan><tspan x="12.397" y="0">о заяв</tspan><tspan x="29.86" y="0">ок</tspan></text>
    <path d="M 12.706,192.466 C 11.267,191.674 9.457,192.2 8.666,193.638 C 7.874,195.077 8.4,196.887 9.838,197.678 C 11.277,198.47 13.087,197.944 13.878,196.506 C 14.67,195.067 14.144,193.257 12.706,192.466 Z" fill="#6fad47" stroke-linecap="round" stroke-width="0.174" stroke="#4c4c4c" stroke-linejoin="miter" marker-start="none" marker-end="none" stroke-miterlimit="79.8403193612775"/>
    <text xml:space="preserve" transform="translate(106.156 17.097) scale(1 -1)" font-size="8" fill="#4c4c4c" font-family="Arial" stroke-linejoin="round" stroke-linecap="round" stroke="none" stroke-width="0.252" stroke-miterlimit="79.8403193612775"><tspan x="-11.934" y="0">С</tspan><tspan x="-6.332" y="0">А</tspan><tspan x="-1.261" y="0">Ф-1</tspan></text>
    <text xml:space="preserve" transform="translate(80.748 192.96) scale(1 -1)" fill="#333333" stroke-width="0.27" stroke-linejoin="round" font-size="6" font-family="Arial" stroke-linecap="round" stroke="none" stroke-miterlimit="79.8403193612775"><tspan x="0" y="0">Закрыт</tspan><tspan x="19.918" y="0">о заяв</tspan><tspan x="37.381" y="0">ок</tspan></text>
    <path d="M 74.765,192.466 C 73.326,191.674 71.516,192.2 70.725,193.638 C 69.933,195.077 70.459,196.887 71.897,197.678 C 73.336,198.47 75.146,197.944 75.937,196.506 C 76.729,195.067 76.203,193.257 74.765,192.466 Z" fill="#3f8cdc" stroke-linecap="round" stroke-width="0.174" stroke="#4c4c4c" stroke-linejoin="miter" marker-start="none" marker-end="none" stroke-miterlimit="79.8403193612775"/>
    <text xml:space="preserve" transform="translate(33.977 29.47) scale(1 -1)" font-size="6" fill="#4c4c4c" font-family="Arial" stroke-linejoin="round" stroke-linecap="round" stroke="none" stroke-width="0.252" stroke-miterlimit="79.8403193612775"><tspan x="-3.337" y="0">0</tspan><tspan x="-0.55" y="0" font-weight="bold" text-decoration="underline"> </tspan></text>
    <path d="M 34.544,28.87 L 34.544,28.87" fill="none" marker-end="none" marker-start="none" stroke-linecap="butt" stroke="#4c4c4c" stroke-width="0.3" stroke-miterlimit="79.8403193612775"/>
    <text xml:space="preserve" transform="translate(33.984 57.147) scale(1 -1)" font-size="6" fill="#4c4c4c" font-family="Arial" stroke-linejoin="round" stroke-linecap="round" stroke="none" stroke-width="0.252" stroke-miterlimit="79.8403193612775"><tspan x="-6.124" y="0">2</tspan><tspan x="-3.337" y="0">0</tspan><tspan x="-0.55" y="0" font-weight="bold" text-decoration="underline"> </tspan></text>
    <path d="M 34.551,56.547 L 34.551,56.547" fill="none" marker-end="none" marker-start="none" stroke-linecap="butt" stroke="#4c4c4c" stroke-width="0.3" stroke-miterlimit="79.8403193612775"/>
    <text xml:space="preserve" transform="translate(33.985 84.399) scale(1 -1)" font-size="6" fill="#4c4c4c" font-family="Arial" stroke-linejoin="round" stroke-linecap="round" stroke="none" stroke-width="0.252" stroke-miterlimit="79.8403193612775"><tspan x="-6.124" y="0">4</tspan><tspan x="-3.337" y="0">0</tspan><tspan x="-0.55" y="0" font-weight="bold" text-decoration="underline"> </tspan></text>
    <path d="M 34.552,83.799 L 34.552,83.799" fill="none" marker-end="none" marker-start="none" stroke-linecap="butt" stroke="#4c4c4c" stroke-width="0.3" stroke-miterlimit="79.8403193612775"/>
    <text xml:space="preserve" transform="translate(33.986 111.919) scale(1 -1)" font-size="6" fill="#4c4c4c" font-family="Arial" stroke-linejoin="round" stroke-linecap="round" stroke="none" stroke-width="0.252" stroke-miterlimit="79.8403193612775"><tspan x="-6.124" y="0">6</tspan><tspan x="-3.337" y="0">0</tspan><tspan x="-0.55" y="0" font-weight="bold" text-decoration="underline"> </tspan></text>
    <path d="M 34.553,111.319 L 34.553,111.319" fill="none" marker-end="none" marker-start="none" stroke-linecap="butt" stroke="#4c4c4c" stroke-width="0.3" stroke-miterlimit="79.8403193612775"/>
    <text xml:space="preserve" transform="translate(33.987 139.255) scale(1 -1)" font-size="6" fill="#4c4c4c" font-family="Arial" stroke-linejoin="round" stroke-linecap="round" stroke="none" stroke-width="0.252" stroke-miterlimit="79.8403193612775"><tspan x="-6.124" y="0">8</tspan><tspan x="-3.337" y="0">0</tspan><tspan x="-0.55" y="0" font-weight="bold" text-decoration="underline"> </tspan></text>
    <path d="M 34.554,138.655 L 34.554,138.655" fill="none" marker-end="none" marker-start="none" stroke-linecap="butt" stroke="#4c4c4c" stroke-width="0.3" stroke-miterlimit="79.8403193612775"/>
    <text xml:space="preserve" transform="translate(33.988 166.858) scale(1 -1)" font-size="6" fill="#4c4c4c" font-family="Arial" stroke-linejoin="round" stroke-linecap="round" stroke="none" stroke-width="0.252" stroke-miterlimit="79.8403193612775"><tspan x="-8.911" y="0">1</tspan><tspan x="-6.124" y="0">0</tspan><tspan x="-3.337" y="0">0</tspan><tspan x="-0.55" y="0" font-weight="bold" text-decoration="underline"> </tspan></text>
    <path d="M 34.555,166.258 L 34.555,166.258" fill="none" marker-end="none" marker-start="none" stroke-linecap="butt" stroke="#4c4c4c" stroke-width="0.3" stroke-miterlimit="79.8403193612775"/>
    <text xml:space="preserve" transform="translate(246.819 17.097) scale(1 -1)" font-size="8" fill="#4c4c4c" font-family="Arial" stroke-linejoin="round" stroke-linecap="round" stroke="none" stroke-width="0.252" stroke-miterlimit="79.8403193612775"><tspan x="-27.752" y="0">М</tspan><tspan x="-20.998" y="0">оно</tspan><tspan x="-7.857" y="0">литСтрой</tspan></text>
    <text xml:space="preserve" transform="translate(386.214 17.097) scale(1 -1)" font-size="8" fill="#4c4c4c" font-family="Arial" stroke-linejoin="round" stroke-linecap="round" stroke="none" stroke-width="0.252" stroke-miterlimit="79.8403193612775"><tspan x="-20.593" y="0">СитиСтрой</tspan></text>
    <path d="M 85.141,79.97 L 85.141,31.417 L 150.566,31.417 L 150.566,79.97 L 85.141,79.97 Z" fill="#3f8cdc" stroke="none" stroke-linecap="round" stroke-width="0.375" stroke-linejoin="miter" marker-start="none" marker-end="none" stroke-miterlimit="79.8403193612775"/>
    <path d="M 85.144,124.218 L 85.144,79.791 L 150.569,79.791 L 150.569,124.218 L 85.144,124.218 Z" fill="#3ebe70" stroke="none" stroke-linecap="round" stroke-width="0.375" stroke-linejoin="miter" marker-start="none" marker-end="none" stroke-miterlimit="79.8403193612775"/>
    <path d="M 216.859,149.346 L 216.859,31.417 L 282.284,31.417 L 282.284,149.346 L 216.859,149.346 Z" fill="#3f8cdc" stroke="none" stroke-linecap="round" stroke-width="0.375" stroke-linejoin="miter" marker-start="none" marker-end="none" stroke-miterlimit="79.8403193612775"/>
    <path d="M 216.86,159.931 L 216.86,148.876 L 282.285,148.876 L 282.285,159.931 L 216.86,159.931 Z" fill="#3ebe70" stroke="none" stroke-linecap="round" stroke-width="0.375" stroke-linejoin="miter" marker-start="none" marker-end="none" stroke-miterlimit="79.8403193612775"/>
    <path d="M 352.534,69.19 L 352.534,31.417 L 417.959,31.417 L 417.959,69.19 L 352.534,69.19 Z" fill="#3f8cdc" stroke="none" stroke-linecap="round" stroke-width="0.375" stroke-linejoin="miter" marker-start="none" marker-end="none" stroke-miterlimit="79.8403193612775"/>
    <path d="M 352.535,76.109 L 352.535,68.804 L 417.96,68.804 L 417.96,76.109 L 352.535,76.109 Z" fill="#3ebe70" stroke="none" stroke-linecap="round" stroke-width="0.375" stroke-linejoin="miter" marker-start="none" marker-end="none" stroke-miterlimit="79.8403193612775"/>
   </g>
  </g>
 </g>
</svg>
