<?xml version="1.0" standalone="no"?>
<!DOCTYPE svg PUBLIC "-//W3C//DTD SVG 1.1//EN" "http://www.w3.org/Graphics/SVG/1.1/DTD/svg11.dtd">
<!--Generator: Xara Designer (www.xara.com), SVG filter version: 5.0.0.2-->
<svg stroke-width="0.501" stroke-linejoin="bevel" fill-rule="evenodd" xmlns:xlink="http://www.w3.org/1999/xlink" xmlns="http://www.w3.org/2000/svg" version="1.1" overflow="visible" width="462.42pt" height="205.528pt" viewBox="0 0 462.42 205.528">
 <defs>
  <marker id="DefaultArrow2" markerUnits="strokeWidth" viewBox="0 0 1 1" markerWidth="1" markerHeight="1" overflow="visible" orient="auto">
   <!-- REF_ARROW_STRAIGHT (-2) -->
   <g transform="scale(0.0092592592)">
    <!-- 1/108 -->
    <path d="M -9 54 L -9 -54 L 117 0 z"/>
   </g>
  </marker>
  <marker id="DefaultArrow3" markerUnits="strokeWidth" viewBox="0 0 1 1" markerWidth="1" markerHeight="1" overflow="visible" orient="auto">
   <!-- REF_ARROW_ANGLED -->
   <g transform="scale(0.0092592592)">
    <path d="M -27 54 L -9 0 L -27 -54 L 135 0 z"/>
   </g>
  </marker>
  <marker id="DefaultArrow4" markerUnits="strokeWidth" viewBox="0 0 1 1" markerWidth="1" markerHeight="1" overflow="visible" orient="auto">
   <!-- REF_ARROW_ROUNDED -->
   <g transform="scale(0.0092592592)">
    <path d="M -9,0 L -9,-45 C -9,-51.708 2.808,-56.580 9,-54 L 117,-9 C 120.916,-7.369 126.000,-4.242 126,0 C 126,4.242 120.916,7.369 117,9 L 9,54 C 2.808,56.580 -9,51.708 -9,45 z"/>
   </g>
  </marker>
  <marker id="DefaultArrow5" markerUnits="strokeWidth" viewBox="0 0 1 1" markerWidth="1" markerHeight="1" overflow="visible" orient="auto">
   <!-- REF_ARROW_SPOT -->
   <g transform="scale(0.0092592592)">
    <path d="M -54, 0 C -54,29.807 -29.807,54 0,54 C 29.807,54 54,29.807 54,0 C 54,-29.807 29.807,-54 0,-54 C -29.807,-54 -54,-29.807 -54,0 z"/>
   </g>
  </marker>
  <marker id="DefaultArrow6" markerUnits="strokeWidth" viewBox="0 0 1 1" markerWidth="1" markerHeight="1" overflow="visible" orient="auto">
   <!-- REF_ARROW_DIAMOND -->
   <g transform="scale(0.0092592592)">
    <path d="M -63,0 L 0,63 L 63,0 L 0,-63 z"/>
   </g>
  </marker>
  <marker id="DefaultArrow7" markerUnits="strokeWidth" viewBox="0 0 1 1" markerWidth="1" markerHeight="1" overflow="visible" orient="auto">
   <!-- REF_ARROW_FEATHER -->
   <g transform="scale(0.0092592592)">
    <path d="M 18,-54 L 108,-54 L 63,0 L 108,54 L 18, 54 L -36,0 z"/>
   </g>
  </marker>
  <marker id="DefaultArrow8" markerUnits="strokeWidth" viewBox="0 0 1 1" markerWidth="1" markerHeight="1" overflow="visible" orient="auto">
   <!-- REF_ARROW_FEATHER2 -->
   <g transform="scale(0.0092592592)">
    <path d="M -36,0 L 18,-54 L 54,-54 L 18,-18 L 27,-18 L 63,-54 L 99,-54 L 63,-18 L 72,-18 L 108,-54 L 144,-54 L 90,0 L 144,54 L 108,54 L 72,18 L 63,18 L 99,54 L 63,54 L 27,18 L 18,18 L 54,54 L 18,54 z"/>
   </g>
  </marker>
  <marker id="DefaultArrow9" markerUnits="strokeWidth" viewBox="0 0 1 1" markerWidth="1" markerHeight="1" overflow="visible" orient="auto">
   <!-- REF_ARROW_HOLLOWDIAMOND -->
   <g transform="scale(0.0092592592)">
    <path d="M 0,45 L -45,0 L 0, -45 L 45, 0 z M 0, 63 L-63, 0 L 0, -63 L 63, 0 z"/>
   </g>
  </marker>
  <filter id="StainedFilter">
   <feBlend mode="multiply" in2="BackgroundImage" in="SourceGraphic" result="blend"/>
   <feComposite in="blend" in2="SourceAlpha" operator="in" result="comp"/>
  </filter>
  <filter id="BleachFilter">
   <feBlend mode="screen" in2="BackgroundImage" in="SourceGraphic" result="blend"/>
   <feComposite in="blend" in2="SourceAlpha" operator="in" result="comp"/>
  </filter>
  <filter id="InvertTransparencyBitmapFilter">
   <feComponentTransfer>
    <feFuncR type="gamma" amplitude="1.055" exponent=".416666666" offset="-0.055"/>
    <feFuncG type="gamma" amplitude="1.055" exponent=".416666666" offset="-0.055"/>
    <feFuncB type="gamma" amplitude="1.055" exponent=".416666666" offset="-0.055"/>
   </feComponentTransfer>
   <feComponentTransfer>
    <feFuncR type="linear" slope="-1" intercept="1"/>
    <feFuncG type="linear" slope="-1" intercept="1"/>
    <feFuncB type="linear" slope="-1" intercept="1"/>
    <feFuncA type="linear" slope="1" intercept="0"/>
   </feComponentTransfer>
   <feComponentTransfer>
    <feFuncR type="gamma" amplitude="1" exponent="2.4" offset="0"/>
    <feFuncG type="gamma" amplitude="1" exponent="2.4" offset="0"/>
    <feFuncB type="gamma" amplitude="1" exponent="2.4" offset="0"/>
   </feComponentTransfer>
  </filter>
  <linearGradient id="LinearGradient" gradientUnits="userSpaceOnUse" x1="0" y1="0" x2="21.74" y2="0" gradientTransform="translate(152.702 180.172) rotate(92.3119) skewX(1.3629)">
   <stop offset="0" stop-color="#e5e5e5"/>
   <stop offset="1" stop-color="#ffffff"/>
  </linearGradient>
 </defs>
 <g id="Document" fill="none" stroke="black" font-family="Times New Roman" font-size="16" transform="scale(1 -1)">
  <g id="Spread" transform="translate(0 -205.528)">
   <g id="Layer 1">
    <path d="M 2.271,201.848 L 2.271,7.557 C 2.271,7.212 2.551,6.932 2.896,6.932 L 460.685,6.932 C 461.03,6.932 461.31,7.212 461.31,7.557 L 461.31,201.848 C 461.31,202.193 461.03,202.473 460.685,202.473 L 2.896,202.473 C 2.551,202.473 2.271,202.193 2.271,201.848 Z" stroke="#0b3c5a" stroke-width="0.375" stroke-linejoin="miter" stroke-linecap="round" fill="#ffffff" marker-start="none" marker-end="none" stroke-miterlimit="79.8403193612775"/>
    <path d="M 461.31,202.503 L 2.371,202.503" fill="none" stroke="#4c4c4c" stroke-linecap="square" stroke-linejoin="round" stroke-width="0.375" stroke-miterlimit="79.8403193612775"/>
    <path d="M 2.479,202.271 L 2.479,184.676 L 461.03,184.676 L 461.03,202.271 L 2.479,202.271 Z" stroke="none" stroke-linecap="round" stroke-width="0.75" stroke-linejoin="miter" marker-start="none" marker-end="none" stroke-miterlimit="79.8403193612775" fill="url(#LinearGradient)"/>
    <path d="M 461.158,184.588 L 2.625,184.588" fill="none" stroke="#4c4c4c" stroke-linecap="square" stroke-linejoin="round" stroke-width="0.375" stroke-miterlimit="79.8403193612775"/>
    <g id="Group" stroke-linejoin="round" stroke-linecap="round" stroke="#b2b2b2" stroke-width="0.188" fill="#b2b2b2" stroke-miterlimit="79.8403193612775">
     <path d="M 451.875,34.038 L 18.649,33.654" fill="none"/>
     <path d="M 451.875,55.943 L 18.649,55.559" fill="none"/>
     <path d="M 451.875,77.848 L 18.649,77.465" fill="none"/>
     <path d="M 451.875,99.754 L 18.649,99.371" fill="none"/>
     <path d="M 451.875,121.659 L 18.649,121.276" fill="none"/>
     <path d="M 451.875,143.565 L 18.649,143.182" fill="none"/>
     <path d="M 451.875,165.471 L 18.649,165.088" fill="none"/>
    </g>
    <g id="Group_1" stroke-dasharray="1.504 1.504" stroke-dashoffset="0" stroke-linejoin="round" stroke-linecap="square" stroke="#4c4c4c" stroke-width="0.188" fill="#4c4c4c" stroke-miterlimit="79.8403193612775">
     <path d="M 21.826,178.125 L 21.826,33.278" fill="none"/>
     <path d="M 36.229,178.125 L 36.229,33.278" fill="none"/>
     <path d="M 50.632,178.125 L 50.632,33.278" fill="none"/>
     <path d="M 65.036,178.125 L 65.036,33.278" fill="none"/>
     <path d="M 79.439,178.125 L 79.439,33.278" fill="none"/>
     <path d="M 93.843,178.125 L 93.843,33.278" fill="none"/>
     <path d="M 108.246,178.125 L 108.246,33.278" fill="none"/>
     <path d="M 122.65,178.125 L 122.65,33.278" fill="none"/>
     <path d="M 137.053,178.125 L 137.053,33.278" fill="none"/>
     <path d="M 151.457,178.125 L 151.457,33.278" fill="none"/>
     <path d="M 165.86,178.125 L 165.86,33.278" fill="none"/>
     <path d="M 180.264,178.125 L 180.264,33.278" fill="none"/>
     <path d="M 194.667,178.125 L 194.667,33.278" fill="none"/>
     <path d="M 209.071,178.125 L 209.071,33.278" fill="none"/>
     <path d="M 223.474,178.125 L 223.474,33.278" fill="none"/>
     <path d="M 237.878,178.125 L 237.878,33.278" fill="none"/>
     <path d="M 252.281,178.125 L 252.281,33.278" fill="none"/>
     <path d="M 266.685,178.125 L 266.685,33.278" fill="none"/>
     <path d="M 281.088,178.125 L 281.088,33.278" fill="none"/>
     <path d="M 295.492,178.125 L 295.492,33.278" fill="none"/>
     <path d="M 309.895,178.125 L 309.895,33.278" fill="none"/>
     <path d="M 324.299,178.125 L 324.299,33.278" fill="none"/>
     <path d="M 338.702,178.125 L 338.702,33.278" fill="none"/>
     <path d="M 353.106,178.125 L 353.106,33.278" fill="none"/>
     <path d="M 367.509,178.125 L 367.509,33.278" fill="none"/>
     <path d="M 381.913,178.125 L 381.913,33.278" fill="none"/>
     <path d="M 396.316,178.125 L 396.316,33.278" fill="none"/>
     <path d="M 410.72,178.125 L 410.72,33.278" fill="none"/>
     <path d="M 425.123,178.125 L 425.123,33.278" fill="none"/>
     <path d="M 439.527,178.126 L 439.527,33.279" fill="none"/>
    </g>
    <text xml:space="preserve" transform="translate(12.477 26.979) scale(1 -1)" font-size="6" fill="#4c4c4c" font-family="Arial" stroke-linejoin="round" stroke-linecap="round" stroke="none" stroke-width="0.252" stroke-miterlimit="79.8403193612775"><tspan x="0" y="0">0</tspan><tspan x="2.787" y="0">1</tspan><tspan x="5.574" y="0">.</tspan><tspan x="6.691" y="0">1</tspan><tspan x="9.034" y="0">1</tspan><tspan x="11.821" y="0">.</tspan><tspan x="12.938" y="0">1</tspan><tspan x="15.725" y="0">5</tspan><tspan x="18.512" y="0" font-weight="bold" text-decoration="underline"> </tspan></text>
    <path d="M 32.106,26.379 L 32.106,26.379" fill="none" marker-end="none" marker-start="none" stroke-linecap="butt" stroke="#4c4c4c" stroke-width="0.3" stroke-miterlimit="79.8403193612775"/>
    <text xml:space="preserve" transform="translate(20.331 190.825) scale(1 -1)" fill="#333333" stroke-width="0.27" stroke-linejoin="round" font-size="6" font-family="Arial" stroke-linecap="round" stroke="none" stroke-miterlimit="79.8403193612775"><tspan x="0" y="0">Об</tspan><tspan x="7.906" y="0">ъём ма</tspan><tspan x="28.116" y="0">т</tspan><tspan x="30.798" y="0">ериала</tspan></text>
    <path d="M 14.348,190.331 C 12.909,189.539 11.099,190.065 10.308,191.503 C 9.516,192.942 10.042,194.752 11.48,195.543 C 12.919,196.335 14.729,195.809 15.52,194.371 C 16.312,192.932 15.786,191.122 14.348,190.331 Z" fill="#3ebe70" stroke-linecap="round" stroke-width="0.174" stroke="#4c4c4c" stroke-linejoin="miter" marker-start="none" marker-end="none" stroke-miterlimit="79.8403193612775"/>
    <text xml:space="preserve" transform="translate(41.3 26.979) scale(1 -1)" font-size="6" fill="#4c4c4c" font-family="Arial" stroke-linejoin="round" stroke-linecap="round" stroke="none" stroke-width="0.252" stroke-miterlimit="79.8403193612775"><tspan x="0" y="0">0</tspan><tspan x="2.787" y="0">3</tspan><tspan x="5.574" y="0">.</tspan><tspan x="6.691" y="0">1</tspan><tspan x="9.034" y="0">1</tspan><tspan x="11.821" y="0">.</tspan><tspan x="12.938" y="0">1</tspan><tspan x="15.725" y="0">5</tspan><tspan x="18.512" y="0" font-weight="bold" text-decoration="underline"> </tspan></text>
    <path d="M 60.929,26.379 L 60.929,26.379" fill="none" marker-end="none" marker-start="none" stroke-linecap="butt" stroke="#4c4c4c" stroke-width="0.3" stroke-miterlimit="79.8403193612775"/>
    <text xml:space="preserve" transform="translate(69.474 26.979) scale(1 -1)" font-size="6" fill="#4c4c4c" font-family="Arial" stroke-linejoin="round" stroke-linecap="round" stroke="none" stroke-width="0.252" stroke-miterlimit="79.8403193612775"><tspan x="0" y="0">0</tspan><tspan x="2.787" y="0">5</tspan><tspan x="5.574" y="0">.</tspan><tspan x="6.691" y="0">1</tspan><tspan x="9.034" y="0">1</tspan><tspan x="11.821" y="0">.</tspan><tspan x="12.938" y="0">1</tspan><tspan x="15.725" y="0">5</tspan><tspan x="18.512" y="0" font-weight="bold" text-decoration="underline"> </tspan></text>
    <path d="M 89.103,26.379 L 89.103,26.379" fill="none" marker-end="none" marker-start="none" stroke-linecap="butt" stroke="#4c4c4c" stroke-width="0.3" stroke-miterlimit="79.8403193612775"/>
    <path d="M 22.538,35.252 L 79.607,39.524 L 122.571,54.852 L 137.271,71.127 L 194.721,79.602 L 223.393,104.568 L 338.823,119.802 L 425.062,140.412 L 439.633,145.961" fill="none" stroke="#3ebe70" stroke-width="1.5" stroke-linejoin="round" stroke-linecap="round" stroke-miterlimit="79.8403193612775"/>
    <path d="M 21.979,36.106 C 22.576,36.563 23.431,36.449 23.887,35.852 C 24.344,35.255 24.23,34.4 23.633,33.944 C 23.036,33.487 22.181,33.601 21.725,34.198 C 21.268,34.795 21.382,35.65 21.979,36.106 Z" fill="#3ebe70" stroke="none" stroke-width="0.08" stroke-linejoin="round" stroke-linecap="round" marker-start="none" marker-end="none" stroke-miterlimit="79.8403193612775"/>
    <path d="M 107.623,50.591 C 108.121,50.971 108.835,50.876 109.216,50.378 C 109.596,49.88 109.501,49.166 109.003,48.785 C 108.505,48.405 107.791,48.5 107.41,48.998 C 107.03,49.496 107.125,50.21 107.623,50.591 Z" fill="#3ebe70" stroke="none" stroke-width="0.067" stroke-linejoin="round" stroke-linecap="round" marker-start="none" marker-end="none" stroke-miterlimit="79.8403193612775"/>
    <path d="M 194.143,80.621 C 194.641,81.001 195.355,80.906 195.736,80.408 C 196.116,79.91 196.021,79.196 195.523,78.815 C 195.025,78.435 194.311,78.53 193.93,79.028 C 193.55,79.526 193.645,80.24 194.143,80.621 Z" fill="#3ebe70" stroke="none" stroke-width="0.067" stroke-linejoin="round" stroke-linecap="round" marker-start="none" marker-end="none" stroke-miterlimit="79.8403193612775"/>
    <path d="M 338.203,120.809 C 338.701,121.189 339.415,121.094 339.796,120.596 C 340.176,120.098 340.081,119.384 339.583,119.003 C 339.085,118.623 338.371,118.718 337.99,119.216 C 337.61,119.714 337.705,120.428 338.203,120.809 Z" fill="#3ebe70" stroke="none" stroke-width="0.067" stroke-linejoin="round" stroke-linecap="round" marker-start="none" marker-end="none" stroke-miterlimit="79.8403193612775"/>
    <path d="M 22.078,36.239 L 50.67,40.444 L 79.53,45.004 L 108.27,49.144 L 137.183,53.314 L 180.683,71.642 L 223.65,96.664 L 281.323,106.283 L 324.448,112.423 L 381.964,120.345 L 424.948,132.533 L 439.889,141.544" fill="none" stroke="#dfcd3e" stroke-width="1.5" stroke-linejoin="round" stroke-linecap="round" stroke-miterlimit="79.8403193612775"/>
    <text xml:space="preserve" transform="translate(16.686 53.977) scale(1 -1)" fill="#4c4c4c" font-family="Arial" stroke-linejoin="round" stroke-linecap="round" stroke="none" stroke-width="0.252" stroke-miterlimit="79.8403193612775"><tspan x="-5.562" y="0" font-size="5">20</tspan><tspan x="0" y="0" font-size="5.6" font-weight="bold" text-decoration="underline"> </tspan></text>
    <path d="M 18.242,53.417 L 18.242,53.417" fill="none" marker-end="none" marker-start="none" stroke-linecap="butt" stroke="#4c4c4c" stroke-width="0.28" stroke-miterlimit="79.8403193612775"/>
    <text xml:space="preserve" transform="translate(16.687 75.751) scale(1 -1)" fill="#4c4c4c" font-family="Arial" stroke-linejoin="round" stroke-linecap="round" stroke="none" stroke-width="0.252" stroke-miterlimit="79.8403193612775"><tspan x="-5.562" y="0" font-size="5">40</tspan><tspan x="0" y="0" font-size="5.6" font-weight="bold" text-decoration="underline"> </tspan></text>
    <path d="M 18.243,75.191 L 18.243,75.191" fill="none" marker-end="none" marker-start="none" stroke-linecap="butt" stroke="#4c4c4c" stroke-width="0.28" stroke-miterlimit="79.8403193612775"/>
    <text xml:space="preserve" transform="translate(16.688 97.536) scale(1 -1)" fill="#4c4c4c" font-family="Arial" stroke-linejoin="round" stroke-linecap="round" stroke="none" stroke-width="0.252" stroke-miterlimit="79.8403193612775"><tspan x="-5.562" y="0" font-size="5">60</tspan><tspan x="0" y="0" font-size="5.6" font-weight="bold" text-decoration="underline"> </tspan></text>
    <path d="M 18.244,96.976 L 18.244,96.976" fill="none" marker-end="none" marker-start="none" stroke-linecap="butt" stroke="#4c4c4c" stroke-width="0.28" stroke-miterlimit="79.8403193612775"/>
    <text xml:space="preserve" transform="translate(16.689 119.689) scale(1 -1)" fill="#4c4c4c" font-family="Arial" stroke-linejoin="round" stroke-linecap="round" stroke="none" stroke-width="0.252" stroke-miterlimit="79.8403193612775"><tspan x="-5.562" y="0" font-size="5">80</tspan><tspan x="0" y="0" font-size="5.6" font-weight="bold" text-decoration="underline"> </tspan></text>
    <path d="M 18.245,119.129 L 18.245,119.129" fill="none" marker-end="none" marker-start="none" stroke-linecap="butt" stroke="#4c4c4c" stroke-width="0.28" stroke-miterlimit="79.8403193612775"/>
    <text xml:space="preserve" transform="translate(16.69 141.435) scale(1 -1)" fill="#4c4c4c" font-family="Arial" stroke-linejoin="round" stroke-linecap="round" stroke="none" stroke-width="0.252" stroke-miterlimit="79.8403193612775"><tspan x="-8.343" y="0" font-size="5">100</tspan><tspan x="0" y="0" font-size="5.6" font-weight="bold" text-decoration="underline"> </tspan></text>
    <path d="M 18.246,140.875 L 18.246,140.875" fill="none" marker-end="none" marker-start="none" stroke-linecap="butt" stroke="#4c4c4c" stroke-width="0.28" stroke-miterlimit="79.8403193612775"/>
    <path d="M 21.248,37.278 C 21.845,37.735 22.7,37.621 23.156,37.024 C 23.613,36.427 23.499,35.572 22.902,35.116 C 22.305,34.659 21.45,34.773 20.994,35.37 C 20.537,35.967 20.651,36.822 21.248,37.278 Z" fill="#dfcd3e" stroke="none" stroke-width="0.08" stroke-linejoin="round" stroke-linecap="round" marker-start="none" marker-end="none" stroke-miterlimit="79.8403193612775"/>
    <text xml:space="preserve" transform="translate(103.573 190.825) scale(1 -1)" fill="#333333" stroke-width="0.27" stroke-linejoin="round" font-size="6" font-family="Arial" stroke-linecap="round" stroke="none" stroke-miterlimit="79.8403193612775"><tspan x="0" y="0">Ст</tspan><tspan x="7.015" y="0">оимость</tspan></text>
    <path d="M 97.59,190.331 C 96.151,189.539 94.341,190.065 93.55,191.503 C 92.758,192.942 93.284,194.752 94.722,195.543 C 96.161,196.335 97.971,195.809 98.762,194.371 C 99.554,192.932 99.028,191.122 97.59,190.331 Z" fill="#dfcd3e" stroke-linecap="round" stroke-width="0.174" stroke="#4c4c4c" stroke-linejoin="miter" marker-start="none" marker-end="none" stroke-miterlimit="79.8403193612775"/>
    <text xml:space="preserve" transform="translate(16.691 163.365) scale(1 -1)" fill="#4c4c4c" font-family="Arial" stroke-linejoin="round" stroke-linecap="round" stroke="none" stroke-width="0.252" stroke-miterlimit="79.8403193612775"><tspan x="-8.343" y="0" font-size="5">120</tspan><tspan x="0" y="0" font-size="5.6" font-weight="bold" text-decoration="underline"> </tspan></text>
    <path d="M 18.247,162.805 L 18.247,162.805" fill="none" marker-end="none" marker-start="none" stroke-linecap="butt" stroke="#4c4c4c" stroke-width="0.28" stroke-miterlimit="79.8403193612775"/>
    <text xml:space="preserve" transform="translate(98.424 26.979) scale(1 -1)" font-size="6" fill="#4c4c4c" font-family="Arial" stroke-linejoin="round" stroke-linecap="round" stroke="none" stroke-width="0.252" stroke-miterlimit="79.8403193612775"><tspan x="0" y="0">0</tspan><tspan x="2.787" y="0">7</tspan><tspan x="5.574" y="0">.</tspan><tspan x="6.691" y="0">1</tspan><tspan x="9.034" y="0">1</tspan><tspan x="11.821" y="0">.</tspan><tspan x="12.938" y="0">1</tspan><tspan x="15.725" y="0">5</tspan><tspan x="18.512" y="0" font-weight="bold" text-decoration="underline"> </tspan></text>
    <path d="M 118.053,26.379 L 118.053,26.379" fill="none" marker-end="none" marker-start="none" stroke-linecap="butt" stroke="#4c4c4c" stroke-width="0.3" stroke-miterlimit="79.8403193612775"/>
    <text xml:space="preserve" transform="translate(127.248 26.979) scale(1 -1)" font-size="6" fill="#4c4c4c" font-family="Arial" stroke-linejoin="round" stroke-linecap="round" stroke="none" stroke-width="0.252" stroke-miterlimit="79.8403193612775"><tspan x="0" y="0">0</tspan><tspan x="2.787" y="0">9</tspan><tspan x="5.574" y="0">.</tspan><tspan x="6.691" y="0">1</tspan><tspan x="9.034" y="0">1</tspan><tspan x="11.821" y="0">.</tspan><tspan x="12.938" y="0">1</tspan><tspan x="15.725" y="0">5</tspan><tspan x="18.512" y="0" font-weight="bold" text-decoration="underline"> </tspan></text>
    <path d="M 146.877,26.379 L 146.877,26.379" fill="none" marker-end="none" marker-start="none" stroke-linecap="butt" stroke="#4c4c4c" stroke-width="0.3" stroke-miterlimit="79.8403193612775"/>
    <text xml:space="preserve" transform="translate(156.057 26.979) scale(1 -1)" font-size="6" fill="#4c4c4c" font-family="Arial" stroke-linejoin="round" stroke-linecap="round" stroke="none" stroke-width="0.252" stroke-miterlimit="79.8403193612775"><tspan x="0" y="0">1</tspan><tspan x="2.343" y="0">1</tspan><tspan x="5.13" y="0">.</tspan><tspan x="6.247" y="0">1</tspan><tspan x="8.59" y="0">1</tspan><tspan x="11.377" y="0">.</tspan><tspan x="12.494" y="0">1</tspan><tspan x="15.281" y="0">5</tspan><tspan x="18.068" y="0" font-weight="bold" text-decoration="underline"> </tspan></text>
    <path d="M 175.242,26.379 L 175.242,26.379" fill="none" marker-end="none" marker-start="none" stroke-linecap="butt" stroke="#4c4c4c" stroke-width="0.3" stroke-miterlimit="79.8403193612775"/>
    <text xml:space="preserve" transform="translate(184.858 26.979) scale(1 -1)" font-size="6" fill="#4c4c4c" font-family="Arial" stroke-linejoin="round" stroke-linecap="round" stroke="none" stroke-width="0.252" stroke-miterlimit="79.8403193612775"><tspan x="0" y="0">1</tspan><tspan x="2.787" y="0">3</tspan><tspan x="5.574" y="0">.</tspan><tspan x="6.691" y="0">1</tspan><tspan x="9.034" y="0">1</tspan><tspan x="11.821" y="0">.</tspan><tspan x="12.938" y="0">1</tspan><tspan x="15.725" y="0">5</tspan><tspan x="18.512" y="0" font-weight="bold" text-decoration="underline"> </tspan></text>
    <path d="M 204.487,26.379 L 204.487,26.379" fill="none" marker-end="none" marker-start="none" stroke-linecap="butt" stroke="#4c4c4c" stroke-width="0.3" stroke-miterlimit="79.8403193612775"/>
    <text xml:space="preserve" transform="translate(213.511 26.979) scale(1 -1)" font-size="6" fill="#4c4c4c" font-family="Arial" stroke-linejoin="round" stroke-linecap="round" stroke="none" stroke-width="0.252" stroke-miterlimit="79.8403193612775"><tspan x="0" y="0">1</tspan><tspan x="2.787" y="0">5</tspan><tspan x="5.574" y="0">.</tspan><tspan x="6.691" y="0">1</tspan><tspan x="9.034" y="0">1</tspan><tspan x="11.821" y="0">.</tspan><tspan x="12.938" y="0">1</tspan><tspan x="15.725" y="0">5</tspan><tspan x="18.512" y="0" font-weight="bold" text-decoration="underline"> </tspan></text>
    <path d="M 233.14,26.379 L 233.14,26.379" fill="none" marker-end="none" marker-start="none" stroke-linecap="butt" stroke="#4c4c4c" stroke-width="0.3" stroke-miterlimit="79.8403193612775"/>
    <text xml:space="preserve" transform="translate(242.229 26.979) scale(1 -1)" font-size="6" fill="#4c4c4c" font-family="Arial" stroke-linejoin="round" stroke-linecap="round" stroke="none" stroke-width="0.252" stroke-miterlimit="79.8403193612775"><tspan x="0" y="0">1</tspan><tspan x="2.787" y="0">7</tspan><tspan x="5.574" y="0">.</tspan><tspan x="6.691" y="0">1</tspan><tspan x="9.034" y="0">1</tspan><tspan x="11.821" y="0">.</tspan><tspan x="12.938" y="0">1</tspan><tspan x="15.725" y="0">5</tspan><tspan x="18.512" y="0" font-weight="bold" text-decoration="underline"> </tspan></text>
    <path d="M 261.858,26.379 L 261.858,26.379" fill="none" marker-end="none" marker-start="none" stroke-linecap="butt" stroke="#4c4c4c" stroke-width="0.3" stroke-miterlimit="79.8403193612775"/>
    <text xml:space="preserve" transform="translate(271.076 26.979) scale(1 -1)" font-size="6" fill="#4c4c4c" font-family="Arial" stroke-linejoin="round" stroke-linecap="round" stroke="none" stroke-width="0.252" stroke-miterlimit="79.8403193612775"><tspan x="0" y="0">1</tspan><tspan x="2.787" y="0">9</tspan><tspan x="5.574" y="0">.</tspan><tspan x="6.691" y="0">1</tspan><tspan x="9.034" y="0">1</tspan><tspan x="11.821" y="0">.</tspan><tspan x="12.938" y="0">1</tspan><tspan x="15.725" y="0">5</tspan><tspan x="18.512" y="0" font-weight="bold" text-decoration="underline"> </tspan></text>
    <path d="M 290.705,26.379 L 290.705,26.379" fill="none" marker-end="none" marker-start="none" stroke-linecap="butt" stroke="#4c4c4c" stroke-width="0.3" stroke-miterlimit="79.8403193612775"/>
    <text xml:space="preserve" transform="translate(299.988 26.979) scale(1 -1)" font-size="6" fill="#4c4c4c" font-family="Arial" stroke-linejoin="round" stroke-linecap="round" stroke="none" stroke-width="0.252" stroke-miterlimit="79.8403193612775"><tspan x="0" y="0">2</tspan><tspan x="2.787" y="0">1</tspan><tspan x="5.574" y="0">.</tspan><tspan x="6.691" y="0">1</tspan><tspan x="9.034" y="0">1</tspan><tspan x="11.821" y="0">.</tspan><tspan x="12.938" y="0">1</tspan><tspan x="15.725" y="0">5</tspan><tspan x="18.512" y="0" font-weight="bold" text-decoration="underline"> </tspan></text>
    <path d="M 319.617,26.379 L 319.617,26.379" fill="none" marker-end="none" marker-start="none" stroke-linecap="butt" stroke="#4c4c4c" stroke-width="0.3" stroke-miterlimit="79.8403193612775"/>
    <text xml:space="preserve" transform="translate(328.722 26.979) scale(1 -1)" font-size="6" fill="#4c4c4c" font-family="Arial" stroke-linejoin="round" stroke-linecap="round" stroke="none" stroke-width="0.252" stroke-miterlimit="79.8403193612775"><tspan x="0" y="0">2</tspan><tspan x="2.787" y="0">3</tspan><tspan x="5.574" y="0">.</tspan><tspan x="6.691" y="0">1</tspan><tspan x="9.034" y="0">1</tspan><tspan x="11.821" y="0">.</tspan><tspan x="12.938" y="0">1</tspan><tspan x="15.725" y="0">5</tspan><tspan x="18.512" y="0" font-weight="bold" text-decoration="underline"> </tspan></text>
    <path d="M 348.351,26.379 L 348.351,26.379" fill="none" marker-end="none" marker-start="none" stroke-linecap="butt" stroke="#4c4c4c" stroke-width="0.3" stroke-miterlimit="79.8403193612775"/>
    <text xml:space="preserve" transform="translate(357.573 26.979) scale(1 -1)" font-size="6" fill="#4c4c4c" font-family="Arial" stroke-linejoin="round" stroke-linecap="round" stroke="none" stroke-width="0.252" stroke-miterlimit="79.8403193612775"><tspan x="0" y="0">2</tspan><tspan x="2.787" y="0">5</tspan><tspan x="5.574" y="0">.</tspan><tspan x="6.691" y="0">1</tspan><tspan x="9.034" y="0">1</tspan><tspan x="11.821" y="0">.</tspan><tspan x="12.938" y="0">1</tspan><tspan x="15.725" y="0">5</tspan><tspan x="18.512" y="0" font-weight="bold" text-decoration="underline"> </tspan></text>
    <path d="M 377.202,26.379 L 377.202,26.379" fill="none" marker-end="none" marker-start="none" stroke-linecap="butt" stroke="#4c4c4c" stroke-width="0.3" stroke-miterlimit="79.8403193612775"/>
    <text xml:space="preserve" transform="translate(386.232 26.979) scale(1 -1)" font-size="6" fill="#4c4c4c" font-family="Arial" stroke-linejoin="round" stroke-linecap="round" stroke="none" stroke-width="0.252" stroke-miterlimit="79.8403193612775"><tspan x="0" y="0">2</tspan><tspan x="2.787" y="0">7</tspan><tspan x="5.574" y="0">.</tspan><tspan x="6.691" y="0">1</tspan><tspan x="9.034" y="0">1</tspan><tspan x="11.821" y="0">.</tspan><tspan x="12.938" y="0">1</tspan><tspan x="15.725" y="0">5</tspan><tspan x="18.512" y="0" font-weight="bold" text-decoration="underline"> </tspan></text>
    <path d="M 405.861,26.379 L 405.861,26.379" fill="none" marker-end="none" marker-start="none" stroke-linecap="butt" stroke="#4c4c4c" stroke-width="0.3" stroke-miterlimit="79.8403193612775"/>
    <text xml:space="preserve" transform="translate(415.2 26.979) scale(1 -1)" font-size="6" fill="#4c4c4c" font-family="Arial" stroke-linejoin="round" stroke-linecap="round" stroke="none" stroke-width="0.252" stroke-miterlimit="79.8403193612775"><tspan x="0" y="0">2</tspan><tspan x="2.787" y="0">9</tspan><tspan x="5.574" y="0">.</tspan><tspan x="6.691" y="0">1</tspan><tspan x="9.034" y="0">1</tspan><tspan x="11.821" y="0">.</tspan><tspan x="12.938" y="0">1</tspan><tspan x="15.725" y="0">5</tspan><tspan x="18.512" y="0" font-weight="bold" text-decoration="underline"> </tspan></text>
    <path d="M 434.829,26.379 L 434.829,26.379" fill="none" marker-end="none" marker-start="none" stroke-linecap="butt" stroke="#4c4c4c" stroke-width="0.3" stroke-miterlimit="79.8403193612775"/>
    <path d="M 49.903,38.253 C 50.401,38.633 51.115,38.538 51.496,38.04 C 51.876,37.542 51.781,36.828 51.283,36.447 C 50.785,36.067 50.071,36.162 49.69,36.66 C 49.31,37.158 49.405,37.872 49.903,38.253 Z" fill="#3ebe70" stroke="none" stroke-width="0.067" stroke-linejoin="round" stroke-linecap="round" marker-start="none" marker-end="none" stroke-miterlimit="79.8403193612775"/>
    <path d="M 35.616,37.053 C 36.114,37.433 36.828,37.338 37.209,36.84 C 37.589,36.342 37.494,35.628 36.996,35.247 C 36.498,34.867 35.784,34.962 35.403,35.46 C 35.023,35.958 35.118,36.672 35.616,37.053 Z" fill="#3ebe70" stroke="none" stroke-width="0.067" stroke-linejoin="round" stroke-linecap="round" marker-start="none" marker-end="none" stroke-miterlimit="79.8403193612775"/>
    <path d="M 64.453,39.341 C 64.951,39.721 65.665,39.626 66.046,39.128 C 66.426,38.63 66.331,37.916 65.833,37.535 C 65.335,37.155 64.621,37.25 64.24,37.748 C 63.86,38.246 63.955,38.96 64.453,39.341 Z" fill="#3ebe70" stroke="none" stroke-width="0.067" stroke-linejoin="round" stroke-linecap="round" marker-start="none" marker-end="none" stroke-miterlimit="79.8403193612775"/>
    <path d="M 78.703,40.466 C 79.201,40.846 79.915,40.751 80.296,40.253 C 80.676,39.755 80.581,39.041 80.083,38.66 C 79.585,38.28 78.871,38.375 78.49,38.873 C 78.11,39.371 78.205,40.085 78.703,40.466 Z" fill="#3ebe70" stroke="none" stroke-width="0.067" stroke-linejoin="round" stroke-linecap="round" marker-start="none" marker-end="none" stroke-miterlimit="79.8403193612775"/>
    <path d="M 93.103,45.566 C 93.601,45.946 94.315,45.851 94.696,45.353 C 95.076,44.855 94.981,44.141 94.483,43.76 C 93.985,43.38 93.271,43.475 92.89,43.973 C 92.51,44.471 92.605,45.185 93.103,45.566 Z" fill="#3ebe70" stroke="none" stroke-width="0.067" stroke-linejoin="round" stroke-linecap="round" marker-start="none" marker-end="none" stroke-miterlimit="79.8403193612775"/>
    <path d="M 122.023,55.901 C 122.521,56.281 123.235,56.186 123.616,55.688 C 123.996,55.19 123.901,54.476 123.403,54.095 C 122.905,53.715 122.191,53.81 121.81,54.308 C 121.43,54.806 121.525,55.52 122.023,55.901 Z" fill="#3ebe70" stroke="none" stroke-width="0.067" stroke-linejoin="round" stroke-linecap="round" marker-start="none" marker-end="none" stroke-miterlimit="79.8403193612775"/>
    <path d="M 136.543,71.801 C 137.041,72.181 137.755,72.086 138.136,71.588 C 138.516,71.09 138.421,70.376 137.923,69.995 C 137.425,69.615 136.711,69.71 136.33,70.208 C 135.95,70.706 136.045,71.42 136.543,71.801 Z" fill="#3ebe70" stroke="none" stroke-width="0.067" stroke-linejoin="round" stroke-linecap="round" marker-start="none" marker-end="none" stroke-miterlimit="79.8403193612775"/>
    <path d="M 150.823,74.141 C 151.321,74.521 152.035,74.426 152.416,73.928 C 152.796,73.43 152.701,72.716 152.203,72.335 C 151.705,71.955 150.991,72.05 150.61,72.548 C 150.23,73.046 150.325,73.76 150.823,74.141 Z" fill="#3ebe70" stroke="none" stroke-width="0.067" stroke-linejoin="round" stroke-linecap="round" marker-start="none" marker-end="none" stroke-miterlimit="79.8403193612775"/>
    <path d="M 165.223,76.301 C 165.721,76.681 166.435,76.586 166.816,76.088 C 167.196,75.59 167.101,74.876 166.603,74.495 C 166.105,74.115 165.391,74.21 165.01,74.708 C 164.63,75.206 164.725,75.92 165.223,76.301 Z" fill="#3ebe70" stroke="none" stroke-width="0.067" stroke-linejoin="round" stroke-linecap="round" marker-start="none" marker-end="none" stroke-miterlimit="79.8403193612775"/>
    <path d="M 179.683,78.461 C 180.181,78.841 180.895,78.746 181.276,78.248 C 181.656,77.75 181.561,77.036 181.063,76.655 C 180.565,76.275 179.851,76.37 179.47,76.868 C 179.09,77.366 179.185,78.08 179.683,78.461 Z" fill="#3ebe70" stroke="none" stroke-width="0.067" stroke-linejoin="round" stroke-linecap="round" marker-start="none" marker-end="none" stroke-miterlimit="79.8403193612775"/>
    <path d="M 208.423,93.197 C 208.921,93.577 209.635,93.482 210.016,92.984 C 210.396,92.486 210.301,91.772 209.803,91.391 C 209.305,91.011 208.591,91.106 208.21,91.604 C 207.83,92.102 207.925,92.816 208.423,93.197 Z" fill="#3ebe70" stroke="none" stroke-width="0.067" stroke-linejoin="round" stroke-linecap="round" marker-start="none" marker-end="none" stroke-miterlimit="79.8403193612775"/>
    <path d="M 222.884,105.518 C 223.382,105.898 224.096,105.803 224.477,105.305 C 224.857,104.807 224.762,104.093 224.264,103.712 C 223.766,103.332 223.052,103.427 222.671,103.925 C 222.291,104.423 222.386,105.137 222.884,105.518 Z" fill="#3ebe70" stroke="none" stroke-width="0.067" stroke-linejoin="round" stroke-linecap="round" marker-start="none" marker-end="none" stroke-miterlimit="79.8403193612775"/>
    <path d="M 237.164,107.302 C 237.662,107.682 238.376,107.587 238.757,107.089 C 239.137,106.591 239.042,105.877 238.544,105.496 C 238.046,105.116 237.332,105.211 236.951,105.709 C 236.571,106.207 236.666,106.921 237.164,107.302 Z" fill="#3ebe70" stroke="none" stroke-width="0.067" stroke-linejoin="round" stroke-linecap="round" marker-start="none" marker-end="none" stroke-miterlimit="79.8403193612775"/>
    <path d="M 251.623,109.38 C 252.121,109.76 252.835,109.665 253.216,109.167 C 253.596,108.669 253.501,107.955 253.003,107.574 C 252.505,107.194 251.791,107.289 251.41,107.787 C 251.03,108.285 251.125,108.999 251.623,109.38 Z" fill="#3ebe70" stroke="none" stroke-width="0.067" stroke-linejoin="round" stroke-linecap="round" marker-start="none" marker-end="none" stroke-miterlimit="79.8403193612775"/>
    <path d="M 266.023,111.202 C 266.521,111.582 267.235,111.487 267.616,110.989 C 267.996,110.491 267.901,109.777 267.403,109.396 C 266.905,109.016 266.191,109.111 265.81,109.609 C 265.43,110.107 265.525,110.821 266.023,111.202 Z" fill="#3ebe70" stroke="none" stroke-width="0.067" stroke-linejoin="round" stroke-linecap="round" marker-start="none" marker-end="none" stroke-miterlimit="79.8403193612775"/>
    <path d="M 280.423,113.051 C 280.921,113.431 281.635,113.336 282.016,112.838 C 282.396,112.34 282.301,111.626 281.803,111.245 C 281.305,110.865 280.591,110.96 280.21,111.458 C 279.83,111.956 279.925,112.67 280.423,113.051 Z" fill="#3ebe70" stroke="none" stroke-width="0.067" stroke-linejoin="round" stroke-linecap="round" marker-start="none" marker-end="none" stroke-miterlimit="79.8403193612775"/>
    <path d="M 309.283,116.987 C 309.781,117.367 310.495,117.272 310.876,116.774 C 311.256,116.276 311.161,115.562 310.663,115.181 C 310.165,114.801 309.451,114.896 309.07,115.394 C 308.69,115.892 308.785,116.606 309.283,116.987 Z" fill="#3ebe70" stroke="none" stroke-width="0.067" stroke-linejoin="round" stroke-linecap="round" marker-start="none" marker-end="none" stroke-miterlimit="79.8403193612775"/>
    <path d="M 323.624,118.784 C 324.122,119.164 324.836,119.069 325.217,118.571 C 325.597,118.073 325.502,117.359 325.004,116.978 C 324.506,116.598 323.792,116.693 323.411,117.191 C 323.031,117.689 323.126,118.403 323.624,118.784 Z" fill="#3ebe70" stroke="none" stroke-width="0.067" stroke-linejoin="round" stroke-linecap="round" marker-start="none" marker-end="none" stroke-miterlimit="79.8403193612775"/>
    <path d="M 352.483,124.182 C 352.981,124.562 353.695,124.467 354.076,123.969 C 354.456,123.471 354.361,122.757 353.863,122.376 C 353.365,121.996 352.651,122.091 352.27,122.589 C 351.89,123.087 351.985,123.801 352.483,124.182 Z" fill="#3ebe70" stroke="none" stroke-width="0.067" stroke-linejoin="round" stroke-linecap="round" marker-start="none" marker-end="none" stroke-miterlimit="79.8403193612775"/>
    <path d="M 366.823,127.594 C 367.321,127.974 368.035,127.879 368.416,127.381 C 368.796,126.883 368.701,126.169 368.203,125.788 C 367.705,125.408 366.991,125.503 366.61,126.001 C 366.23,126.499 366.325,127.213 366.823,127.594 Z" fill="#3ebe70" stroke="none" stroke-width="0.067" stroke-linejoin="round" stroke-linecap="round" marker-start="none" marker-end="none" stroke-miterlimit="79.8403193612775"/>
    <path d="M 381.283,130.877 C 381.781,131.257 382.495,131.162 382.876,130.664 C 383.256,130.166 383.161,129.452 382.663,129.071 C 382.165,128.691 381.451,128.786 381.07,129.284 C 380.69,129.782 380.785,130.496 381.283,130.877 Z" fill="#3ebe70" stroke="none" stroke-width="0.067" stroke-linejoin="round" stroke-linecap="round" marker-start="none" marker-end="none" stroke-miterlimit="79.8403193612775"/>
    <path d="M 395.684,134.41 C 396.182,134.79 396.896,134.695 397.277,134.197 C 397.657,133.699 397.562,132.985 397.064,132.604 C 396.566,132.224 395.852,132.319 395.471,132.817 C 395.091,133.315 395.186,134.029 395.684,134.41 Z" fill="#3ebe70" stroke="none" stroke-width="0.067" stroke-linejoin="round" stroke-linecap="round" marker-start="none" marker-end="none" stroke-miterlimit="79.8403193612775"/>
    <path d="M 410.083,137.796 C 410.581,138.176 411.295,138.081 411.676,137.583 C 412.056,137.085 411.961,136.371 411.463,135.99 C 410.965,135.61 410.251,135.705 409.87,136.203 C 409.49,136.701 409.585,137.415 410.083,137.796 Z" fill="#3ebe70" stroke="none" stroke-width="0.067" stroke-linejoin="round" stroke-linecap="round" marker-start="none" marker-end="none" stroke-miterlimit="79.8403193612775"/>
    <path d="M 424.423,141.341 C 424.921,141.721 425.635,141.626 426.016,141.128 C 426.396,140.63 426.301,139.916 425.803,139.535 C 425.305,139.155 424.591,139.25 424.21,139.748 C 423.83,140.246 423.925,140.96 424.423,141.341 Z" fill="#3ebe70" stroke="none" stroke-width="0.067" stroke-linejoin="round" stroke-linecap="round" marker-start="none" marker-end="none" stroke-miterlimit="79.8403193612775"/>
    <path d="M 438.741,147.036 C 439.338,147.493 440.193,147.379 440.649,146.782 C 441.106,146.185 440.992,145.33 440.395,144.874 C 439.798,144.417 438.943,144.531 438.487,145.128 C 438.03,145.725 438.144,146.58 438.741,147.036 Z" fill="#3ebe70" stroke="none" stroke-width="0.08" stroke-linejoin="round" stroke-linecap="round" marker-start="none" marker-end="none" stroke-miterlimit="79.8403193612775"/>
    <path d="M 35.543,39.286 C 36.041,39.666 36.755,39.571 37.136,39.073 C 37.516,38.575 37.421,37.861 36.923,37.48 C 36.425,37.1 35.711,37.195 35.33,37.693 C 34.95,38.191 35.045,38.905 35.543,39.286 Z" fill="#dfcd3e" stroke="none" stroke-width="0.067" stroke-linejoin="round" stroke-linecap="round" marker-start="none" marker-end="none" stroke-miterlimit="79.8403193612775"/>
    <path d="M 49.957,41.346 C 50.455,41.726 51.169,41.631 51.55,41.133 C 51.93,40.635 51.835,39.921 51.337,39.54 C 50.839,39.16 50.125,39.255 49.744,39.753 C 49.364,40.251 49.459,40.965 49.957,41.346 Z" fill="#dfcd3e" stroke="none" stroke-width="0.067" stroke-linejoin="round" stroke-linecap="round" marker-start="none" marker-end="none" stroke-miterlimit="79.8403193612775"/>
    <path d="M 64.395,43.62 C 64.893,44 65.607,43.905 65.988,43.407 C 66.368,42.909 66.273,42.195 65.775,41.814 C 65.277,41.434 64.563,41.529 64.182,42.027 C 63.802,42.525 63.897,43.239 64.395,43.62 Z" fill="#dfcd3e" stroke="none" stroke-width="0.067" stroke-linejoin="round" stroke-linecap="round" marker-start="none" marker-end="none" stroke-miterlimit="79.8403193612775"/>
    <path d="M 78.762,45.893 C 79.26,46.273 79.974,46.178 80.355,45.68 C 80.735,45.182 80.64,44.468 80.142,44.087 C 79.644,43.707 78.93,43.802 78.549,44.3 C 78.169,44.798 78.264,45.512 78.762,45.893 Z" fill="#dfcd3e" stroke="none" stroke-width="0.067" stroke-linejoin="round" stroke-linecap="round" marker-start="none" marker-end="none" stroke-miterlimit="79.8403193612775"/>
    <path d="M 93.222,48.053 C 93.72,48.433 94.434,48.338 94.815,47.84 C 95.195,47.342 95.1,46.628 94.602,46.247 C 94.104,45.867 93.39,45.962 93.009,46.46 C 92.629,46.958 92.724,47.672 93.222,48.053 Z" fill="#dfcd3e" stroke="none" stroke-width="0.067" stroke-linejoin="round" stroke-linecap="round" marker-start="none" marker-end="none" stroke-miterlimit="79.8403193612775"/>
    <path d="M 107.742,49.973 C 108.24,50.353 108.954,50.258 109.335,49.76 C 109.715,49.262 109.62,48.548 109.122,48.167 C 108.624,47.787 107.91,47.882 107.529,48.38 C 107.149,48.878 107.244,49.592 107.742,49.973 Z" fill="#dfcd3e" stroke="none" stroke-width="0.067" stroke-linejoin="round" stroke-linecap="round" marker-start="none" marker-end="none" stroke-miterlimit="79.8403193612775"/>
    <path d="M 122.022,52.073 C 122.52,52.453 123.234,52.358 123.615,51.86 C 123.995,51.362 123.9,50.648 123.402,50.267 C 122.904,49.887 122.19,49.982 121.809,50.48 C 121.429,50.978 121.524,51.692 122.022,52.073 Z" fill="#dfcd3e" stroke="none" stroke-width="0.067" stroke-linejoin="round" stroke-linecap="round" marker-start="none" marker-end="none" stroke-miterlimit="79.8403193612775"/>
    <path d="M 136.422,54.173 C 136.92,54.553 137.634,54.458 138.015,53.96 C 138.395,53.462 138.3,52.748 137.802,52.367 C 137.304,51.987 136.59,52.082 136.209,52.58 C 135.829,53.078 135.924,53.792 136.422,54.173 Z" fill="#dfcd3e" stroke="none" stroke-width="0.067" stroke-linejoin="round" stroke-linecap="round" marker-start="none" marker-end="none" stroke-miterlimit="79.8403193612775"/>
    <path d="M 150.882,60.353 C 151.38,60.733 152.094,60.638 152.475,60.14 C 152.855,59.642 152.76,58.928 152.262,58.547 C 151.764,58.167 151.05,58.262 150.669,58.76 C 150.289,59.258 150.384,59.972 150.882,60.353 Z" fill="#dfcd3e" stroke="none" stroke-width="0.067" stroke-linejoin="round" stroke-linecap="round" marker-start="none" marker-end="none" stroke-miterlimit="79.8403193612775"/>
    <path d="M 165.342,66.473 C 165.84,66.853 166.554,66.758 166.935,66.26 C 167.315,65.762 167.22,65.048 166.722,64.667 C 166.224,64.287 165.51,64.382 165.129,64.88 C 164.749,65.378 164.844,66.092 165.342,66.473 Z" fill="#dfcd3e" stroke="none" stroke-width="0.067" stroke-linejoin="round" stroke-linecap="round" marker-start="none" marker-end="none" stroke-miterlimit="79.8403193612775"/>
    <path d="M 179.622,72.413 C 180.12,72.793 180.834,72.698 181.215,72.2 C 181.595,71.702 181.5,70.988 181.002,70.607 C 180.504,70.227 179.79,70.322 179.409,70.82 C 179.029,71.318 179.124,72.032 179.622,72.413 Z" fill="#dfcd3e" stroke="none" stroke-width="0.067" stroke-linejoin="round" stroke-linecap="round" marker-start="none" marker-end="none" stroke-miterlimit="79.8403193612775"/>
    <path d="M 194.202,81.053 C 194.7,81.433 195.414,81.338 195.795,80.84 C 196.175,80.342 196.08,79.628 195.582,79.247 C 195.084,78.867 194.37,78.962 193.989,79.46 C 193.609,79.958 193.704,80.672 194.202,81.053 Z" fill="#dfcd3e" stroke="none" stroke-width="0.067" stroke-linejoin="round" stroke-linecap="round" marker-start="none" marker-end="none" stroke-miterlimit="79.8403193612775"/>
    <path d="M 208.422,89.093 C 208.92,89.473 209.634,89.378 210.015,88.88 C 210.395,88.382 210.3,87.668 209.802,87.287 C 209.304,86.907 208.59,87.002 208.209,87.5 C 207.829,87.998 207.924,88.712 208.422,89.093 Z" fill="#dfcd3e" stroke="none" stroke-width="0.067" stroke-linejoin="round" stroke-linecap="round" marker-start="none" marker-end="none" stroke-miterlimit="79.8403193612775"/>
    <path d="M 222.882,97.493 C 223.38,97.873 224.094,97.778 224.475,97.28 C 224.855,96.782 224.76,96.068 224.262,95.687 C 223.764,95.307 223.05,95.402 222.669,95.9 C 222.289,96.398 222.384,97.112 222.882,97.493 Z" fill="#dfcd3e" stroke="none" stroke-width="0.067" stroke-linejoin="round" stroke-linecap="round" marker-start="none" marker-end="none" stroke-miterlimit="79.8403193612775"/>
    <path d="M 237.282,99.833 C 237.78,100.213 238.494,100.118 238.875,99.62 C 239.255,99.122 239.16,98.408 238.662,98.027 C 238.164,97.647 237.45,97.742 237.069,98.24 C 236.689,98.738 236.784,99.452 237.282,99.833 Z" fill="#dfcd3e" stroke="none" stroke-width="0.067" stroke-linejoin="round" stroke-linecap="round" marker-start="none" marker-end="none" stroke-miterlimit="79.8403193612775"/>
    <path d="M 251.622,102.353 C 252.12,102.733 252.834,102.638 253.215,102.14 C 253.595,101.642 253.5,100.928 253.002,100.547 C 252.504,100.167 251.79,100.262 251.409,100.76 C 251.029,101.258 251.124,101.972 251.622,102.353 Z" fill="#dfcd3e" stroke="none" stroke-width="0.067" stroke-linejoin="round" stroke-linecap="round" marker-start="none" marker-end="none" stroke-miterlimit="79.8403193612775"/>
    <path d="M 265.962,104.693 C 266.46,105.073 267.174,104.978 267.555,104.48 C 267.935,103.982 267.84,103.268 267.342,102.887 C 266.844,102.507 266.13,102.602 265.749,103.1 C 265.369,103.598 265.464,104.312 265.962,104.693 Z" fill="#dfcd3e" stroke="none" stroke-width="0.067" stroke-linejoin="round" stroke-linecap="round" marker-start="none" marker-end="none" stroke-miterlimit="79.8403193612775"/>
    <path d="M 280.422,107.093 C 280.92,107.473 281.634,107.378 282.015,106.88 C 282.395,106.382 282.3,105.668 281.802,105.287 C 281.304,104.907 280.59,105.002 280.209,105.5 C 279.829,105.998 279.924,106.712 280.422,107.093 Z" fill="#dfcd3e" stroke="none" stroke-width="0.067" stroke-linejoin="round" stroke-linecap="round" marker-start="none" marker-end="none" stroke-miterlimit="79.8403193612775"/>
    <path d="M 309.222,111.173 C 309.72,111.553 310.434,111.458 310.815,110.96 C 311.195,110.462 311.1,109.748 310.602,109.367 C 310.104,108.987 309.39,109.082 309.009,109.58 C 308.629,110.078 308.724,110.792 309.222,111.173 Z" fill="#dfcd3e" stroke="none" stroke-width="0.067" stroke-linejoin="round" stroke-linecap="round" marker-start="none" marker-end="none" stroke-miterlimit="79.8403193612775"/>
    <path d="M 323.622,113.333 C 324.12,113.713 324.834,113.618 325.215,113.12 C 325.595,112.622 325.5,111.908 325.002,111.527 C 324.504,111.147 323.79,111.242 323.409,111.74 C 323.029,112.238 323.124,112.952 323.622,113.333 Z" fill="#dfcd3e" stroke="none" stroke-width="0.067" stroke-linejoin="round" stroke-linecap="round" marker-start="none" marker-end="none" stroke-miterlimit="79.8403193612775"/>
    <path d="M 338.202,115.193 C 338.7,115.573 339.414,115.478 339.795,114.98 C 340.175,114.482 340.08,113.768 339.582,113.387 C 339.084,113.007 338.37,113.102 337.989,113.6 C 337.609,114.098 337.704,114.812 338.202,115.193 Z" fill="#dfcd3e" stroke="none" stroke-width="0.067" stroke-linejoin="round" stroke-linecap="round" marker-start="none" marker-end="none" stroke-miterlimit="79.8403193612775"/>
    <path d="M 352.422,117.293 C 352.92,117.673 353.634,117.578 354.015,117.08 C 354.395,116.582 354.3,115.868 353.802,115.487 C 353.304,115.107 352.59,115.202 352.209,115.7 C 351.829,116.198 351.924,116.912 352.422,117.293 Z" fill="#dfcd3e" stroke="none" stroke-width="0.067" stroke-linejoin="round" stroke-linecap="round" marker-start="none" marker-end="none" stroke-miterlimit="79.8403193612775"/>
    <path d="M 366.822,119.273 C 367.32,119.653 368.034,119.558 368.415,119.06 C 368.795,118.562 368.7,117.848 368.202,117.467 C 367.704,117.087 366.99,117.182 366.609,117.68 C 366.229,118.178 366.324,118.892 366.822,119.273 Z" fill="#dfcd3e" stroke="none" stroke-width="0.067" stroke-linejoin="round" stroke-linecap="round" marker-start="none" marker-end="none" stroke-miterlimit="79.8403193612775"/>
    <path d="M 381.342,121.253 C 381.84,121.633 382.554,121.538 382.935,121.04 C 383.315,120.542 383.22,119.828 382.722,119.447 C 382.224,119.067 381.51,119.162 381.129,119.66 C 380.749,120.158 380.844,120.872 381.342,121.253 Z" fill="#dfcd3e" stroke="none" stroke-width="0.067" stroke-linejoin="round" stroke-linecap="round" marker-start="none" marker-end="none" stroke-miterlimit="79.8403193612775"/>
    <path d="M 395.622,125.393 C 396.12,125.773 396.834,125.678 397.215,125.18 C 397.595,124.682 397.5,123.968 397.002,123.587 C 396.504,123.207 395.79,123.302 395.409,123.8 C 395.029,124.298 395.124,125.012 395.622,125.393 Z" fill="#dfcd3e" stroke="none" stroke-width="0.067" stroke-linejoin="round" stroke-linecap="round" marker-start="none" marker-end="none" stroke-miterlimit="79.8403193612775"/>
    <path d="M 410.082,129.353 C 410.58,129.733 411.294,129.638 411.675,129.14 C 412.055,128.642 411.96,127.928 411.462,127.547 C 410.964,127.167 410.25,127.262 409.869,127.76 C 409.489,128.258 409.584,128.972 410.082,129.353 Z" fill="#dfcd3e" stroke="none" stroke-width="0.067" stroke-linejoin="round" stroke-linecap="round" marker-start="none" marker-end="none" stroke-miterlimit="79.8403193612775"/>
    <path d="M 424.422,133.493 C 424.92,133.873 425.634,133.778 426.015,133.28 C 426.395,132.782 426.3,132.068 425.802,131.687 C 425.304,131.307 424.59,131.402 424.209,131.9 C 423.829,132.398 423.924,133.112 424.422,133.493 Z" fill="#dfcd3e" stroke="none" stroke-width="0.067" stroke-linejoin="round" stroke-linecap="round" marker-start="none" marker-end="none" stroke-miterlimit="79.8403193612775"/>
    <path d="M 439.001,142.553 C 439.499,142.933 440.213,142.838 440.594,142.34 C 440.974,141.842 440.879,141.128 440.381,140.747 C 439.883,140.367 439.169,140.462 438.788,140.96 C 438.408,141.458 438.503,142.172 439.001,142.553 Z" fill="#dfcd3e" stroke="none" stroke-width="0.067" stroke-linejoin="round" stroke-linecap="round" marker-start="none" marker-end="none" stroke-miterlimit="79.8403193612775"/>
    <path d="M 294.894,109.267 C 295.37,109.631 296.053,109.54 296.417,109.064 C 296.781,108.588 296.69,107.905 296.214,107.541 C 295.738,107.177 295.055,107.268 294.691,107.744 C 294.327,108.22 294.418,108.903 294.894,109.267 Z" fill="#dfcd3e" stroke-width="0.061" stroke="none" stroke-linejoin="round" stroke-linecap="round" marker-start="none" marker-end="none" stroke-miterlimit="79.8403193612775"/>
    <path d="M 294.895,115.06 C 295.371,115.424 296.054,115.333 296.418,114.857 C 296.782,114.381 296.691,113.698 296.215,113.334 C 295.739,112.97 295.056,113.061 294.692,113.537 C 294.328,114.013 294.419,114.696 294.895,115.06 Z" fill="#3ebe70" stroke-width="0.061" stroke="none" stroke-linejoin="round" stroke-linecap="round" marker-start="none" marker-end="none" stroke-miterlimit="79.8403193612775"/>
   </g>
  </g>
 </g>
</svg>
