<?xml version="1.0" encoding="UTF-8" standalone="no"?>
<!DOCTYPE svg  PUBLIC '-//W3C//DTD SVG 1.1//EN'  'http://www.w3.org/Graphics/SVG/1.1/DTD/svg11.dtd'>
<svg xmlns="http://www.w3.org/2000/svg" version="1.1">
<defs>
<font id="PTAstraSans-BoldItalic" horiz-adv-x="1024">
<font-face unicode-range="U+0020-F6D4" underline-position="-514" ascent="1638" cap-height="1356" bbox="-464 -445 2236 1748" panose-1="2 11 7 3 2 2 3 2 2 4" font-weight="700" slope="-16" units-per-em="2048" font-family="PT Astra Sans" underline-thickness="195" x-height="900" descent="-410" font-style="italic"/>
<missing-glyph/>
<glyph unicode=" " horiz-adv-x="512" glyph-name="space"/>
<glyph unicode=" " horiz-adv-x="512" glyph-name="space"/>
<glyph unicode="!" d="M434 1356h283l-124 -634l-114 -312h-175l6 312zM172 131q0 72 46.5 113t121.5 41q78 0 124.5 -41t46.5 -113q0 -67 -46.5 -110t-124.5 -43q-75 0 -121.5 43t-46.5 110z" horiz-adv-x="797" glyph-name="exclam"/>
<glyph unicode='&quot;' d="M424 1356h240l-156 -423h-166zM783 1356h240l-156 -423h-166z" horiz-adv-x="1137" glyph-name="quotedbl"/>
<glyph unicode="#" d="M589 393h-187l-75 -297h-217l75 297h-125l47 196h129l50 197h-121l46 196h125l72 277h216l-70 -277h187l72 277h217l-72 -277h119l-51 -196h-118l-53 -197h115l-50 -196h-115l-74 -297h-216zM452 589h189l50 197h-189z" glyph-name="numbersign"/>
<glyph unicode="$" d="M348 -26q-58 2 -105 10.5t-82.5 19.5t-60.5 22.5t-39 19.5l127 235q35 -22 84.5 -42.5t121.5 -27.5l72 374q-36 16 -84 45t-90.5 72t-72.5 100.5t-30 130.5q0 95 32.5 170t90.5 130t136.5 90t171.5 50l35 176h218l-34 -170q78 -6 136.5 -23.5t110.5 -44.5l-127 -228 q-15 7 -30 15.5t-34 16t-43.5 14t-58.5 11.5l-66 -348q43 -19 91.5 -48.5t89.5 -70.5t68.5 -94.5t27.5 -121.5q0 -100 -32.5 -181t-90 -141t-137.5 -97.5t-175 -50.5l-35 -181h-218zM521 209q50 2 86 16.5t59.5 36.5t35 50.5t11.5 58.5q0 37 -11.5 64.5t-30.5 47t-42 33 t-45 23.5zM667 1148q-51 -2 -87 -15.5t-58.5 -34.5t-32.5 -47.5t-10 -53.5q0 -30 10 -54.5t27.5 -43.5t40.5 -33.5t50 -25.5z" glyph-name="dollar"/>
<glyph unicode="%" d="M1245 1379l158 -110l-874 -1325l-158 104zM1024 329q0 86 21.5 148.5t60 102.5t92.5 59t120 19q65 0 119 -18t93 -57t60.5 -101.5t21.5 -152.5t-21.5 -152.5t-60.5 -102t-93 -57t-119 -17.5q-66 0 -120 17.5t-92.5 57t-60 102t-21.5 152.5zM1221 329q0 -76 21.5 -118.5 t75.5 -42.5q50 0 72.5 37t22.5 124t-22.5 124t-72.5 37q-51 0 -74 -37t-23 -124zM194 1050q0 86 21.5 148.5t60 102.5t92.5 59t120 19q65 0 119 -18t93 -57t60.5 -101.5t21.5 -152.5t-21.5 -152.5t-60.5 -102t-93 -57t-119 -17.5q-66 0 -120 17.5t-92.5 57t-60 102 t-21.5 152.5zM391 1050q0 -76 21.5 -118.5t75.5 -42.5q50 0 72.5 37t22.5 124t-22.5 124t-72.5 37q-51 0 -74 -37t-23 -124z" horiz-adv-x="1706" glyph-name="percent"/>
<glyph unicode="&amp;" d="M104 325q0 84 31.5 157t90.5 135.5t144.5 114.5t193.5 94q-35 47 -54.5 108t-19.5 121q0 57 27 115t82 105t137 77t193 30q85 0 143.5 -19.5t94.5 -51t52 -71.5t16 -82q0 -65 -29.5 -121t-80 -102.5t-117 -84t-139.5 -67.5q57 -108 112 -186.5t120 -139.5 q57 48 109 115.5t103 149.5l177 -112q-60 -91 -121 -163t-115 -119q22 -22 52.5 -45.5t62 -45.5t61 -39.5t49.5 -27.5l-189 -197q-25 12 -57 31t-66 42.5t-65.5 49.5t-55.5 52q-71 -52 -134.5 -86t-126.5 -53.5t-130 -27.5t-145 -8q-96 0 -171 25.5t-127.5 72t-80 111 t-27.5 143.5zM903 300q-40 41 -78.5 86.5t-72.5 92.5t-63 94t-51 90q-118 -46 -185 -113.5t-67 -165.5q0 -38 15 -71.5t42 -58.5t64.5 -39.5t82.5 -14.5q40 0 77.5 3.5t76 14.5t77.5 30.5t82 51.5zM757 1064q0 -35 10 -71.5t41 -83.5q55 22 94 47.5t63.5 51t36 50.5t11.5 46 q0 39 -27.5 61t-79.5 22q-30 0 -57.5 -9t-47.5 -25.5t-32 -39t-12 -49.5z" horiz-adv-x="1593" glyph-name="ampersand"/>
<glyph unicode="&apos;" d="M356 1356h240l-156 -423h-166z" horiz-adv-x="569" glyph-name="quotesingle"/>
<glyph unicode="(" d="M336 -426q-56 65 -94.5 147t-62.5 171t-35 180.5t-11 174.5q0 135 31.5 281t99.5 293t174 289.5t256 268.5l151 -119q-126 -125 -210 -255.5t-135 -259.5t-72 -251t-21 -228q0 -70 8 -147.5t24.5 -153t42.5 -145.5t63 -126z" horiz-adv-x="682" glyph-name="parenleft"/>
<glyph unicode=")" d="M-101 -306q108 103 190.5 223.5t139 251t85.5 265.5t29 266q0 68 -7.5 142.5t-23.5 148t-42 142.5t-63 127l198 119q56 -71 95.5 -157t64 -177.5t35.5 -184t11 -175.5q0 -85 -13 -178.5t-41.5 -190t-72 -195t-105 -193.5t-140.5 -185t-178 -169z" horiz-adv-x="682" glyph-name="parenright"/>
<glyph unicode="*" d="M559 1423l58 -91l31 -118l31 111l58 98l130 -71l-62 -105l-99 -85l135 33h117v-149h-112l-127 35l103 -94l52 -87l-131 -74l-56 94l-41 126l-27 -115l-60 -100l-132 75l63 101l92 72l-116 -33h-120v151h122l122 -35l-104 87l-59 98z" glyph-name="asterisk"/>
<glyph unicode="+" d="M180 769h341v349h240v-349h341v-233h-341v-350h-240v350h-341v233z" horiz-adv-x="1167" glyph-name="plus"/>
<glyph unicode="," d="M36 97q0 46 18 79t53 59q53 40 124 40q88 0 127 -56q14 -20 21 -46.5t7 -55.5q0 -67 -17.5 -120t-46.5 -95t-66.5 -73t-77 -54t-78.5 -38t-72 -24l-56 113q56 16 107 65q49 46 67 101q-48 -5 -84 28q-14 12 -20 32t-6 45z" horiz-adv-x="512" glyph-name="comma"/>
<glyph unicode="-" d="M137 658h458v-200h-458v200z" horiz-adv-x="682" glyph-name="hyphen"/>
<glyph unicode="­" d="M137 658h458v-200h-458v200z" horiz-adv-x="682" glyph-name="hyphen"/>
<glyph unicode="." d="M23 131q0 72 46.5 113t121.5 41q78 0 124.5 -41t46.5 -113q0 -67 -46.5 -110t-124.5 -43q-75 0 -121.5 43t-46.5 110z" horiz-adv-x="512" glyph-name="period"/>
<glyph unicode="/" d="M433 1377l222 -65l-504 -1650l-227 66z" horiz-adv-x="569" glyph-name="slash"/>
<glyph unicode="0" d="M103 438q0 88 12 177.5t32 173t47.5 157.5t59.5 131q37 66 82 122t99.5 96.5t119 63.5t139.5 23q77 0 138 -30.5t103 -90t64 -146.5t22 -199q0 -180 -37 -343.5t-106 -292.5q-38 -70 -85 -127t-103 -97t-121 -62t-139 -22q-77 0 -138 30.5t-103 90t-64 146t-22 199.5z M753 939q0 101 -23.5 159t-79.5 58q-63 0 -113.5 -67.5t-96.5 -207.5q-14 -44 -27 -100.5t-22.5 -118.5t-15 -125.5t-5.5 -121.5q0 -102 26 -159.5t77 -57.5q58 0 105 58.5t94 187.5q16 44 30.5 96.5t25.5 114t18 132.5t7 152z" glyph-name="zero"/>
<glyph unicode="1" d="M142 227h241l139 715l37 133l-107 -98l-151 -87l-76 159l489 330h154l-224 -1152h234l-44 -227h-736z" glyph-name="one"/>
<glyph unicode="2" d="M977 1067q0 -73 -20.5 -145.5t-55.5 -142.5t-82 -137.5t-100.5 -130t-110.5 -119.5t-111 -107l-124 -81l-2 -7l155 30h331l-44 -227h-805l26 135q89 65 172 136.5t155 146t131 150.5t101.5 149.5t65.5 142.5t23 131q0 68 -34 109.5t-105 41.5q-35 0 -68 -10t-62.5 -25 t-55 -32.5t-44.5 -32.5l-75 194q50 35 98 62.5t98 46t103 28t112 9.5q140 0 228 -78q45 -40 72.5 -101.5t27.5 -135.5z" glyph-name="two"/>
<glyph unicode="3" d="M354 200q76 0 131 21.5t90.5 56.5t52.5 79t17 90q0 38 -11 68.5t-37 52t-69 33t-107 11.5h-133l28 144l289 301l108 84l-148 -12h-281l44 227h722l-29 -146l-300 -326l-132 -86l70 3q48 -6 95 -28t84.5 -59.5t60.5 -92t23 -124.5q0 -130 -47.5 -228t-126.5 -164 t-181.5 -99t-212.5 -33q-45 0 -91 4t-90.5 11.5t-84.5 19.5t-73 27l118 224q11 -7 31.5 -17t48.5 -19.5t63.5 -16t77.5 -6.5z" glyph-name="three"/>
<glyph unicode="4" d="M988 374h-160l-73 -374h-255l73 374h-527l29 151l721 840h225l-152 -781h160zM668 863l35 147l-87 -127l-186 -227l-81 -79l121 7h144z" glyph-name="four"/>
<glyph unicode="5" d="M365 213q68 0 120 19t87.5 52.5t53.5 78.5t18 97q0 58 -20.5 95t-56 58t-82 28t-97.5 4l-140 -8l140 719h614l-49 -252h-378l-47 -241l90 3q64 0 119.5 -25t96.5 -70t64 -109t23 -142q0 -115 -36 -209.5t-102 -168.5q-75 -84 -186 -126.5t-255 -42.5q-96 0 -168 17.5 t-126 42.5l118 226q11 -5 28.5 -13t41.5 -15.5t56 -12.5t73 -5z" glyph-name="five"/>
<glyph unicode="6" d="M950 516q0 -69 -16 -136.5t-46.5 -127.5t-75 -111.5t-102.5 -88.5t-128 -58t-152 -21q-72 0 -133.5 27t-106.5 78t-71 124.5t-26 166.5q0 133 33 255.5t92.5 229.5t142.5 196.5t184 157.5t216 112.5t239 61.5l15 -210q-121 -24 -217 -65.5t-169.5 -99t-126 -130 t-86.5 -156.5q16 17 43 38t60.5 39t71.5 30.5t75 12.5q79 0 133 -26.5t87.5 -71.5t48.5 -104t15 -123zM678 462q0 152 -127 152q-30 0 -58.5 -12t-51.5 -28.5t-39.5 -34.5t-22.5 -29q-4 -11 -8.5 -27t-8.5 -34.5t-7 -37t-3 -32.5q0 -35 6.5 -67.5t21.5 -57t39 -39.5t59 -15 q49 0 86.5 24.5t62.5 62.5t38 84.5t13 90.5z" glyph-name="six"/>
<glyph unicode="7" d="M91 0l576 973l113 137l-150 -10h-371l50 256h822l-15 -76l-759 -1280h-266z" glyph-name="seven"/>
<glyph unicode="8" d="M56 297q0 77 26 140t68.5 112t97 84.5t111.5 57.5q-26 22 -49.5 50t-41.5 62.5t-28.5 75t-10.5 87.5q0 83 30 158.5t89.5 132.5t148 91t206.5 34q85 0 148.5 -23t105.5 -62.5t63 -93t21 -114.5q0 -131 -61.5 -221.5t-186.5 -150.5q81 -59 118 -130t37 -160 q0 -98 -37 -181t-105 -144t-164.5 -95t-215.5 -34q-94 0 -163.5 25.5t-115.5 69t-68.5 102.5t-22.5 127zM682 385q0 37 -13.5 68.5t-37.5 58.5t-57 49.5t-71 42.5q-35 -16 -68 -41t-59 -57.5t-42 -72t-16 -84.5q0 -73 42 -111t115 -38q99 0 153 50t54 135zM490 988 q0 -69 46 -117t118 -82q38 28 62.5 58t38.5 60.5t19.5 60.5t5.5 58q0 60 -30.5 95t-94.5 35q-52 0 -84 -17t-50 -42.5t-24.5 -54.5t-6.5 -54z" glyph-name="eight"/>
<glyph unicode="9" d="M166 845q0 108 36 205.5t103 171t162 117t212 43.5q90 0 154.5 -29.5t106 -83t61.5 -128.5t20 -166q0 -113 -22 -213.5t-58 -188.5t-83 -162t-97 -133q-61 -72 -136.5 -125.5t-159.5 -91t-173 -59t-177 -29.5l-18 207q118 15 210 52.5t162 92.5t120 125t83 150 q-47 -45 -107.5 -66.5t-119.5 -21.5q-51 0 -101 20.5t-89.5 62t-64 104t-24.5 146.5zM435 885q0 -78 34.5 -117.5t87.5 -39.5q35 0 63.5 10t50 24.5t36.5 29t23 23.5q5 15 10.5 34.5t10 41t7.5 44.5t3 44q0 38 -5.5 72t-19.5 59.5t-38 40.5t-61 15q-45 0 -82.5 -20.5 t-64 -57.5t-41 -88.5t-14.5 -114.5z" glyph-name="nine"/>
<glyph unicode=":" d="M123 131q0 72 46.5 113t121.5 41q78 0 124.5 -41t46.5 -113q0 -67 -46.5 -110t-124.5 -43q-75 0 -121.5 43t-46.5 110zM249 823q0 72 46.5 113t121.5 41q78 0 124.5 -41t46.5 -113q0 -67 -46.5 -110t-124.5 -43q-75 0 -121.5 43t-46.5 110z" horiz-adv-x="682" glyph-name="colon"/>
<glyph unicode=";" d="M119 97q0 46 18 79t53 59q53 40 124 40q88 0 127 -56q14 -20 21 -46.5t7 -55.5q0 -67 -17.5 -120t-46.5 -95t-66.5 -73t-77 -54t-78.5 -38t-72 -24l-56 113q56 16 107 65q49 46 67 101q-48 -5 -84 28q-14 12 -20 32t-6 45zM247 821q0 72 46.5 113t121.5 41 q78 0 124.5 -41t46.5 -113q0 -67 -46.5 -110t-124.5 -43q-75 0 -121.5 43t-46.5 110z" horiz-adv-x="682" glyph-name="semicolon"/>
<glyph unicode="&lt;" d="M160 548v143l821 457l113 -189l-466 -268l-192 -68l190 -59l477 -264l-110 -189z" horiz-adv-x="1167" glyph-name="less"/>
<glyph unicode="=" d="M160 957h924v-233h-924v233zM160 581h924v-232h-924v232z" horiz-adv-x="1167" glyph-name="equal"/>
<glyph unicode="&gt;" d="M1123 711v-144l-824 -458l-109 193l467 265l192 70l-190 58l-479 266l109 190z" horiz-adv-x="1167" glyph-name="greater"/>
<glyph unicode="?" d="M309 410q8 87 31 151t55 111.5t70.5 81.5t77.5 61q39 26 74.5 49t62.5 49t43 57.5t16 75.5q0 48 -36.5 79t-113.5 31q-32 0 -68.5 -8t-72.5 -21.5t-70.5 -31t-63.5 -36.5l-66 201q58 35 110.5 58.5t104 37.5t104 20t111.5 6q65 0 128.5 -15.5t114 -49.5t81.5 -88.5 t31 -132.5q0 -79 -22 -135t-56.5 -97t-78 -71.5t-85.5 -58.5q-43 -28 -81.5 -56t-71 -64t-56 -85t-36.5 -119h-237zM223 131q0 72 46.5 113t121.5 41q78 0 124.5 -41t46.5 -113q0 -67 -46.5 -110t-124.5 -43q-75 0 -121.5 43t-46.5 110z" glyph-name="question"/>
<glyph unicode="@" d="M1191 860h136l-95 -477q-4 -20 -6.5 -41.5t-2.5 -35.5q0 -40 16.5 -55.5t47.5 -15.5q37 0 78.5 34.5t70.5 93.5q21 42 35 105.5t14 132.5t-11 125.5t-32 103t-50.5 84.5t-66.5 68q-69 57 -161.5 84.5t-215.5 27.5q-137 0 -260.5 -53t-214.5 -153q-49 -53 -83.5 -112 t-57 -121.5t-33 -126.5t-10.5 -128q0 -126 42.5 -233.5t127.5 -191.5q76 -75 190 -116t266 -41q66 0 137 14t129 37l59 -186q-80 -38 -169.5 -52t-180.5 -14q-168 0 -311.5 44t-248.5 138q-57 51 -104.5 113.5t-81.5 137.5t-52.5 162t-18.5 188q0 92 18.5 180t53 169t84 154 t111.5 135q58 58 129.5 105.5t150 81t162.5 52t168 18.5q166 0 297.5 -43t227.5 -123q107 -89 165.5 -217.5t58.5 -300.5q0 -53 -9.5 -107.5t-26.5 -106.5t-41.5 -98.5t-54.5 -83.5q-69 -85 -161.5 -130t-192.5 -45q-41 0 -80 9.5t-67.5 33.5t-43 64t-7.5 100h-7 q-30 -42 -62 -79.5t-70.5 -66t-85.5 -45t-107 -16.5q-46 0 -85.5 18.5t-68.5 53t-45.5 82.5t-16.5 107q0 70 16 140t45.5 133t71.5 117.5t93.5 94.5t111 62.5t124.5 22.5q68 0 114.5 -18.5t87.5 -50.5zM1069 634q-26 22 -53 31.5t-69 9.5q-59 0 -104.5 -29.5t-77 -75 t-48 -100t-16.5 -103.5q0 -29 3 -53t12.5 -41.5t29 -27.5t52.5 -10q29 0 59 15t59 41t56 60.5t49 72.5z" horiz-adv-x="1704" glyph-name="at"/>
<glyph unicode="A" d="M959 288h-548l-172 -288h-299l838 1365h211l327 -1365h-292zM546 515h362l-63 283l-27 175h-8l-96 -177z" horiz-adv-x="1366" glyph-name="A"/>
<glyph unicode="B" d="M1331 1076q0 -49 -19 -104t-59 -104.5t-103 -88t-151 -53.5l-2 -11q54 -5 99 -22.5t78.5 -48t53 -73.5t21.5 -100q3 -99 -36 -188t-124.5 -156t-219 -106.5t-318.5 -39.5h-96.5t-115.5 2.5t-121 8.5t-113 17l260 1337q42 6 99 11.5t119 9t125.5 6t117.5 2.5 q99 0 190 -12.5t161 -46t112 -91.5t42 -149zM636 213q71 0 128.5 15.5t98 44t62.5 68.5t22 88q0 50 -24 79.5t-62.5 44.5t-87 19.5t-97.5 4.5h-185l-68 -352q9 -5 35.5 -7t58.5 -3.5t65 -1.5h54zM656 791h33t36.5 0.5t36 1.5t31.5 3q48 9 90 25.5t74 40.5t50.5 55.5 t18.5 70.5q0 50 -20.5 80.5t-53.5 47t-74.5 21.5t-84.5 5q-27 0 -55.5 -0.5t-54.5 -1t-47.5 -2t-35.5 -3.5l-67 -344h123z" horiz-adv-x="1366" glyph-name="B"/>
<glyph unicode="C" d="M1260 99q-56 -34 -119.5 -58t-127 -39t-125 -22t-114.5 -7q-147 0 -264 38.5t-198.5 113t-124.5 183.5t-43 250q0 84 17 164t48 153.5t75 139t98 120.5q115 117 271.5 182t362.5 65q127 0 239.5 -31.5t204.5 -90.5l-126 -232q-85 50 -171 76.5t-185 26.5 q-140 0 -239.5 -50.5t-167.5 -141.5q-22 -30 -43 -68.5t-37.5 -83t-26.5 -93.5t-10 -98q0 -183 96.5 -277t279.5 -94q48 0 96.5 8t95 22t90 33t79.5 40z" horiz-adv-x="1366" glyph-name="C"/>
<glyph unicode="D" d="M370 1356q43 6 95.5 9.5t109.5 6t115 3t111 0.5q174 0 302.5 -37.5t212.5 -109t125 -176t41 -238.5q0 -176 -55.5 -329t-172 -265.5t-297 -177t-431.5 -64.5q-55 0 -118 2t-121.5 5t-107 6.5t-73.5 6.5zM790 1123q-58 0 -106 -1t-74 -4l-171 -880q9 -2 32.5 -3.5t52 -2 t56.5 -1t45 -0.5q126 0 227 38t172 109.5t109 174t38 232.5q0 80 -22.5 143t-69 106.5t-118.5 66t-171 22.5z" horiz-adv-x="1479" glyph-name="D"/>
<glyph unicode="E" d="M392 1356h1013l-49 -252h-726l-58 -295h661l-49 -251h-661l-59 -306h735l-49 -252h-1022z" horiz-adv-x="1366" glyph-name="E"/>
<glyph unicode="F" d="M384 1356h1031l-49 -252h-744l-62 -315h678l-49 -253h-678l-104 -536h-287z" horiz-adv-x="1366" glyph-name="F"/>
<glyph unicode="G" d="M892 713h544l-118 -608q-77 -41 -144.5 -67t-129.5 -40.5t-122.5 -19.5t-124.5 -5q-151 0 -273.5 38t-209 112.5t-133.5 184.5t-47 253q0 175 59 325.5t171.5 260.5t275.5 172.5t370 62.5q149 0 275.5 -31.5t215.5 -90.5l-117 -222q-77 40 -174 66.5t-214 26.5 q-119 0 -220 -37t-175 -105t-116 -164t-42 -214q0 -104 29 -177t83.5 -119.5t133.5 -68t179 -21.5q72 0 132.5 17.5t121.5 48.5l41 217l-305 30z" horiz-adv-x="1479" glyph-name="G"/>
<glyph unicode="H" d="M1145 560h-650l-109 -560h-286l264 1356h286l-106 -545h650l106 545h287l-264 -1356h-287z" horiz-adv-x="1593" glyph-name="H"/>
<glyph unicode="I" d="M441 1356h283l-261 -1356h-283z" horiz-adv-x="797" glyph-name="I"/>
<glyph unicode="J" d="M727 1356h286l-188 -968q-20 -99 -59 -176.5t-100.5 -130t-147 -80t-198.5 -27.5q-38 0 -76.5 3.5t-78 14t-80 30t-81.5 50.5l128 222q36 -29 86.5 -48t103.5 -19q55 0 93.5 15t64.5 42t42 65t25 83z" glyph-name="J"/>
<glyph unicode="K" d="M653 573h-156l-111 -573h-286l264 1356h286l-116 -597l121 30l512 567h379l-558 -589l-103 -76l78 -76l366 -615h-346z" horiz-adv-x="1366" glyph-name="K"/>
<glyph unicode="L" d="M1166 0h-1062l264 1356h286l-215 -1104h776z" horiz-adv-x="1251" glyph-name="L"/>
<glyph unicode="M" d="M1425 690l58 231h-7l-118 -153l-449 -526h-89l-244 528l-54 149h-6l-25 -227l-135 -692h-271l264 1356h245l290 -626l51 -119h9l89 123l536 622h273l-264 -1356h-287z" horiz-adv-x="1821" glyph-name="M"/>
<glyph unicode="N" d="M608 723l-85 172h-8l-20 -187l-138 -708h-272l265 1365h207l405 -738l87 -186h9l20 200l139 715h271l-266 -1365h-207z" horiz-adv-x="1479" glyph-name="N"/>
<glyph unicode="O" d="M118 516q-2 106 19 211.5t65 201.5t110.5 178.5t154 143.5t195.5 95.5t237 35.5q135 0 239.5 -40.5t176 -114t108 -176.5t36.5 -228q0 -182 -54 -337.5t-152.5 -269.5t-235.5 -179t-303 -65q-135 0 -244 37t-186 107.5t-120 171t-46 228.5zM852 1131q-73 0 -133.5 -25 t-108.5 -67.5t-83.5 -100t-58.5 -122.5t-34 -134.5t-9 -136.5q2 -70 23 -129t59 -102t92 -67t122 -24q99 0 178 47.5t135 126.5t86 181t30 211q0 73 -18 135.5t-55 108.5t-93 72t-132 26z" horiz-adv-x="1479" glyph-name="O"/>
<glyph unicode="P" d="M368 1342q91 16 195 24.5t210 8.5q99 0 191 -18t162.5 -61t113 -114t42.5 -177q0 -98 -24.5 -177t-69 -141t-106.5 -107t-136 -74t-157.5 -43t-171.5 -14q-10 0 -28 0.5t-38 1.5t-38.5 2.5t-29.5 3.5l-89 -457h-287zM742 1123q-42 0 -74.5 -2.5t-56.5 -6.5l-79 -403 q7 -2 22.5 -4t32.5 -3.5t32.5 -2t24.5 -0.5q65 0 124 11.5t104 41t71.5 79t26.5 125.5q0 46 -17.5 78t-48 51t-72 27.5t-90.5 8.5z" horiz-adv-x="1251" glyph-name="P"/>
<glyph unicode="Q" d="M118 516q-2 106 19 211.5t65 201.5t110.5 178.5t154 143.5t195.5 95.5t237 35.5q135 0 239.5 -40.5t176 -114t108 -176.5t36.5 -228q0 -178 -52 -331t-146.5 -266.5t-227 -180t-292.5 -72.5q-4 -23 -4 -50q0 -29 7.5 -50t24.5 -35t46 -21t71 -7q49 0 94 14t88 37l59 -208 q-31 -20 -70.5 -36t-81 -27.5t-82.5 -17.5t-75 -6q-78 0 -144 20t-114.5 59t-76 97.5t-26.5 136.5q0 62 13 130q-163 55 -255.5 185t-96.5 322zM852 1131q-73 0 -133.5 -25t-108.5 -67.5t-83.5 -100t-58.5 -122.5t-34 -134.5t-9 -136.5q2 -70 23 -129t59 -102t92 -67 t122 -24q99 0 178 47.5t135 126.5t86 181t30 211q0 73 -18 135.5t-55 108.5t-93 72t-132 26z" horiz-adv-x="1479" glyph-name="Q"/>
<glyph unicode="R" d="M361 1342q48 8 110 14t124 10.5t118.5 6.5t94.5 2q126 0 225 -20t167.5 -62t104.5 -105.5t36 -150.5q0 -95 -32 -171.5t-85.5 -133.5t-123.5 -94.5t-146 -54.5l57 -70l302 -513h-344l-295 525l-181 23l-107 -548h-286zM782 1123q-23 0 -48.5 -0.5t-50 -1t-46 -2 t-34.5 -3.5l-73 -375h156q53 0 113 10t110.5 36t84 70t33.5 113q0 50 -22.5 80t-58 46.5t-79 21.5t-85.5 5z" horiz-adv-x="1366" glyph-name="R"/>
<glyph unicode="S" d="M765 374q0 41 -24.5 72t-64 57t-90.5 50t-103.5 50.5t-103.5 58.5t-90.5 74.5t-64 98t-24.5 129.5q0 96 39.5 173.5t112.5 132t175.5 83.5t228.5 29q122 0 229.5 -28t200.5 -83l-131 -230q-21 14 -54 30.5t-75 30.5t-92.5 23.5t-105.5 9.5q-109 0 -170 -39.5t-61 -107.5 q0 -35 24.5 -62.5t64 -52t90.5 -49t104 -52.5t104 -62t90.5 -78t64 -100t24.5 -129q0 -99 -40.5 -178.5t-115 -135.5t-180.5 -86t-237 -30q-98 0 -175.5 14t-136.5 35t-100 44t-66 41l136 224q19 -19 52.5 -39t79.5 -36t103.5 -26t124.5 -10q59 0 106.5 10.5t81 30.5 t51.5 48.5t18 64.5z" horiz-adv-x="1139" glyph-name="S"/>
<glyph unicode="T" d="M1338 1104h-446l-215 -1104h-287l215 1104h-445l49 252h1178z" horiz-adv-x="1251" glyph-name="T"/>
<glyph unicode="U" d="M1194 1356h272l-169 -870q-26 -132 -80 -228t-134.5 -159t-186 -93t-233.5 -30q-226 0 -351.5 90t-139.5 253q-4 46 4 98.5t18 103.5l162 835h285l-165 -850q-11 -51 -9 -93q2 -94 60 -139t181 -45q63 0 116 16t94.5 52.5t70.5 95t46 143.5z" horiz-adv-x="1479" glyph-name="U"/>
<glyph unicode="V" d="M647 573l24 -181h9l92 183l456 781h316l-838 -1365h-205l-322 1365h309z" horiz-adv-x="1366" glyph-name="V"/>
<glyph unicode="W" d="M537 610l3 -170h7l78 174l396 742h185l102 -746l16 -170h8l51 174l343 742h294l-672 -1365h-193l-116 737l-18 140h-12l-73 -142l-401 -735h-204l-149 1365h284z" horiz-adv-x="1821" glyph-name="W"/>
<glyph unicode="X" d="M553 689l-321 667h319l184 -386l43 -103l84 103l333 386h331l-593 -650l361 -706h-316l-210 417l-49 100l-88 -100l-362 -417h-334z" horiz-adv-x="1366" glyph-name="X"/>
<glyph unicode="Y" d="M507 499l-357 857h321l183 -490l35 -115h7l76 118l357 487h346l-680 -855l-98 -501h-287z" horiz-adv-x="1251" glyph-name="Y"/>
<glyph unicode="Z" d="M53 252l798 772l104 80h-706l49 252h1053l-49 -252l-824 -779l-97 -73h772l-49 -252h-1100z" horiz-adv-x="1251" glyph-name="Z"/>
<glyph unicode="[" d="M334 1356h491l-44 -227h-231l-262 -1347h231l-44 -227h-491z" horiz-adv-x="682" glyph-name="bracketleft"/>
<glyph unicode="\" d="M741 -272l-227 -66l-504 1650l222 65z" horiz-adv-x="569" glyph-name="backslash"/>
<glyph unicode="]" d="M409 -445h-492l44 227h232l262 1347h-232l44 227h492z" horiz-adv-x="682" glyph-name="bracketright"/>
<glyph unicode="^" d="M620 1365h146l389 -569h-275l-139 220l-57 126l-64 -128l-150 -218h-262z" horiz-adv-x="1167" glyph-name="asciicircum"/>
<glyph unicode="_" d="M-70 -218h995v-220h-995v220z" glyph-name="underscore"/>
<glyph unicode="`" d="M597 1088h-129l-199 219l11 58h252z" horiz-adv-x="682" glyph-name="grave"/>
<glyph unicode="a" d="M863 359q-14 -60 -19 -122.5t-5 -117.5q0 -35 2.5 -68t4.5 -53h-181l-32 150h-8q-22 -30 -54.5 -60.5t-72 -55.5t-84.5 -40.5t-93 -15.5q-66 0 -116.5 21.5t-85 60.5t-52 95t-17.5 125q0 77 16.5 155.5t50.5 150t85 134t119.5 108.5t154.5 72.5t190 26.5q69 0 152.5 -12 t162.5 -30zM411 184q36 0 66.5 12.5t54.5 31.5t43 41.5t33 41.5l90 390q-23 8 -50 11.5t-55 3.5q-71 0 -125 -34.5t-91.5 -88.5t-56.5 -120.5t-19 -130.5q0 -74 26.5 -116t83.5 -42z" glyph-name="a"/>
<glyph unicode="b" d="M317 1377h246l-143 -630h4q29 37 61 68.5t69.5 55t83 37t101.5 13.5q54 0 98 -19t75 -54.5t48 -85.5t17 -111q0 -165 -50.5 -291t-133.5 -210.5t-191 -127.5t-222 -43q-120 0 -214 21t-145 52zM299 207q20 -11 51 -15.5t71 -4.5q54 0 108 27t98 79t71.5 127.5t27.5 173.5 q0 34 -8.5 56.5t-23 36.5t-33 20t-37.5 6q-39 0 -77 -17.5t-71 -44.5t-59 -59t-42 -61z" glyph-name="b"/>
<glyph unicode="c" d="M809 637q-17 9 -40.5 21t-52 23t-62 18.5t-71.5 7.5q-53 0 -103 -26.5t-89 -72.5t-62.5 -106.5t-23.5 -127.5q0 -84 39 -132.5t133 -48.5q37 0 74.5 8t70.5 19.5t61 24t48 22.5l54 -173q-29 -23 -71 -44t-91.5 -37.5t-104 -26.5t-107.5 -10q-96 0 -165 27.5t-113.5 74 t-66 107.5t-21.5 127q0 146 47.5 260t125 192.5t175 119.5t198.5 41q46 0 92.5 -6t88.5 -18t78.5 -29t62.5 -39z" horiz-adv-x="909" glyph-name="c"/>
<glyph unicode="d" d="M853 317q-15 -68 -22 -128.5t-7 -111.5q0 -21 0.5 -37t4.5 -42h-167l-32 162v-12h-8v6q-23 -32 -57 -64t-75.5 -57.5t-87.5 -41t-91 -15.5q-62 0 -111.5 22t-85 64.5t-54.5 105t-19 143.5q0 77 16.5 152t47.5 142.5t76 125.5t102.5 100t126.5 66t148 24q56 0 98 -6.5 t78 -20.5l112 483h247zM691 691q-23 11 -58 16.5t-86 5.5q-59 0 -106 -33t-80 -86.5t-50.5 -121t-17.5 -136.5q0 -76 31 -114t79 -38q32 0 62.5 12.5t57 32t48 42.5t34.5 44l1 -4z" glyph-name="d"/>
<glyph unicode="e" d="M773 99q-32 -23 -70.5 -45.5t-85 -39.5t-101 -27.5t-117.5 -10.5q-81 0 -148 23t-114 66.5t-73 106.5t-26 143q0 140 47 253t123.5 192.5t173.5 122t198 42.5q83 0 141 -18t94.5 -49.5t53 -73.5t16.5 -91q0 -77 -38 -136t-108.5 -99.5t-171 -61t-224.5 -20.5 q-14 0 -28.5 0.5t-31.5 1.5q-5 -11 -6 -25t-1 -25q0 -73 47.5 -108.5t133.5 -35.5q44 0 84 8t73.5 20t59 25.5t42.5 24.5zM548 722q-41 0 -75.5 -13.5t-63 -37.5t-50.5 -57t-37 -71q93 0 156 6t102 19.5t56 35t17 51.5q0 10 -3 22t-14 22t-31.5 16.5t-56.5 6.5z" horiz-adv-x="909" glyph-name="e"/>
<glyph unicode="f" d="M497 692l-142 -708q-15 -84 -41.5 -150.5t-70.5 -113t-108 -71.5t-155 -25q-65 0 -120 11t-110 43l72 190q32 -14 62 -20.5t68 -6.5q72 0 113.5 46.5t55.5 129.5l125 675h-142l48 208h124l49 216q31 134 113.5 201t211.5 67q89 0 158 -16.5t131 -42.5l-65 -188 q-43 14 -88 26t-81 12q-37 0 -62.5 -8.5t-43.5 -28.5t-30 -55t-22 -87l-19 -96h198l-42 -208h-187z" horiz-adv-x="682" glyph-name="f"/>
<glyph unicode="g" d="M791 11q-24 -106 -67.5 -180t-105 -120.5t-139.5 -67.5t-172 -21q-67 0 -123 9.5t-100 22.5t-76 27.5t-52 25.5l102 188q22 -14 47 -25.5t56.5 -20.5t69.5 -14t85 -5q48 0 88.5 15.5t71 42.5t51.5 63.5t32 78.5l30 118h-3q-21 -31 -50.5 -60t-67 -51.5t-83.5 -36.5 t-99 -14q-54 0 -99 20t-77 57.5t-50 90.5t-18 119q0 135 40 253t114 205.5t178.5 138.5t233.5 51q121 0 218 -19t154 -42zM704 698q-23 8 -59.5 11.5t-69.5 3.5q-63 0 -115 -30.5t-89 -83t-57 -122t-20 -147.5q0 -71 27.5 -103t71.5 -32q37 0 73 17.5t67.5 44t56 58 t38.5 59.5z" glyph-name="g"/>
<glyph unicode="h" d="M645 0l115 514q8 38 12.5 60.5t4.5 42.5q0 26 -8 43t-21 27.5t-29.5 15t-33.5 4.5q-45 0 -90.5 -20t-85 -49.5t-69.5 -64t-45 -63.5v4l-111 -514h-246l310 1377h246l-147 -630h3v-5q27 28 63.5 60.5t80.5 59.5t96.5 45t111.5 18q48 0 90.5 -11t74.5 -36t50.5 -65.5 t18.5 -99.5q0 -67 -21 -161l-124 -552h-246z" horiz-adv-x="1139" glyph-name="h"/>
<glyph unicode="i" d="M269 899h252l-217 -899h-252zM302 1237q0 34 12 60.5t32.5 44.5t48 27t58.5 9q30 0 57 -9t48 -27t33.5 -44.5t12.5 -60.5q0 -33 -12.5 -59.5t-33.5 -44.5t-48 -27.5t-57 -9.5q-31 0 -58.5 9.5t-48 27.5t-32.5 44.5t-12 59.5z" horiz-adv-x="569" glyph-name="i"/>
<glyph unicode="j" d="M266 899h254l-227 -937q-39 -161 -132 -247t-249 -86q-29 0 -61 3t-66 10l49 191q52 -4 88.5 7.5t62 37t42.5 63.5t30 88zM291 1237q0 34 12 60.5t32.5 44.5t48 27t58.5 9q30 0 57 -9t48 -27t33.5 -44.5t12.5 -60.5q0 -33 -12.5 -59.5t-33.5 -44.5t-48 -27.5t-57 -9.5 q-31 0 -58.5 9.5t-48 27.5t-32.5 44.5t-12 59.5z" horiz-adv-x="569" glyph-name="j"/>
<glyph unicode="k" d="M463 360h-110l-82 -360h-246l307 1377h246l-189 -848l87 16l319 355h298l-357 -387l-60 -53l33 -48l223 -412h-277z" glyph-name="k"/>
<glyph unicode="l" d="M346 361q-6 -29 -9.5 -48t-5 -32.5t-2 -24.5t-0.5 -24q0 -45 49 -45q29 0 56.5 7.5t53.5 17.5l27 -180q-19 -10 -49.5 -19.5t-65 -17t-69.5 -12t-62 -4.5q-94 0 -146.5 44t-52.5 144q0 15 4 55t17 98l259 1057h246z" horiz-adv-x="569" glyph-name="l"/>
<glyph unicode="m" d="M574 0l107 491q11 48 17.5 84.5t6.5 62.5q0 35 -16.5 52t-54.5 17q-36 0 -72.5 -15.5t-69 -38t-59 -49.5t-41.5 -49l-119 -555h-247l202 900h189l-9 -153h7v-4q31 35 69.5 68t85.5 58.5t101.5 40.5t117.5 15q78 0 119.5 -51t41.5 -138q29 40 69 74.5t87 60t98.5 40 t102.5 14.5q46 0 83.5 -9.5t63.5 -31.5t40.5 -58.5t14.5 -90.5q0 -45 -6.5 -94.5t-19.5 -107.5l-119 -533h-245l115 519q17 74 17 118q0 70 -85 70q-32 0 -67 -16t-66.5 -39.5t-56.5 -51t-38 -50.5l-120 -550h-244z" horiz-adv-x="1593" glyph-name="m"/>
<glyph unicode="n" d="M666 0l126 558q11 49 11 79q0 33 -33.5 51.5t-81.5 18.5q-38 0 -79.5 -15.5t-80.5 -39.5t-71.5 -54t-51.5 -60l-120 -538h-247l202 900h183l-8 -153h8q26 27 67.5 58t94 58t115 44.5t131.5 17.5q45 0 86.5 -11.5t73 -36t50.5 -64t19 -94.5q0 -26 -2.5 -56.5t-9.5 -61.5 l-136 -601h-246z" horiz-adv-x="1139" glyph-name="n"/>
<glyph unicode="o" d="M56 353q0 129 42.5 234.5t116.5 180.5t173.5 116t213.5 41q90 0 158.5 -31.5t114.5 -84.5t69 -122.5t23 -145.5q0 -117 -39 -219.5t-108 -179.5t-165 -121.5t-210 -44.5q-104 0 -178 32.5t-121 85.5t-68.5 120.5t-21.5 138.5zM308 352q0 -38 10.5 -69t29 -53t44.5 -34 t57 -12q55 0 103 30t84 81t57 119t21 145q0 34 -7 63t-23 50t-42 32.5t-63 11.5q-56 0 -105 -30t-86 -80t-58.5 -116t-21.5 -138z" glyph-name="o"/>
<glyph unicode="p" d="M225 900h178l-8 -153h8q28 32 62.5 63.5t75 57t88.5 41.5t104 16q52 0 97 -16.5t79 -50.5t53.5 -87.5t19.5 -126.5q0 -148 -42.5 -271t-116.5 -211t-173.5 -137t-213.5 -49q-50 0 -95.5 9.5t-68.5 23.5l-89 -376h-245zM312 210q43 -26 109 -26q68 0 125 34.5t98 93 t64 135.5t23 161q0 48 -24.5 78t-81.5 30q-43 0 -78.5 -14.5t-64 -38t-50.5 -51.5t-38 -55v4z" glyph-name="p"/>
<glyph unicode="q" d="M708 -367h-240l112 503h-3q-20 -27 -48.5 -55.5t-65 -52t-79.5 -38t-92 -14.5q-66 0 -113.5 24t-78 64t-45 92.5t-14.5 110.5q0 89 19.5 172t56.5 155.5t90.5 133t121 103.5t148 66.5t172.5 23.5q48 0 97 -5.5t93.5 -14.5t82.5 -20.5t64 -23.5zM704 697q-25 9 -53 12.5 t-64 3.5q-65 0 -119 -35.5t-93 -93t-60.5 -130t-21.5 -147.5q0 -27 4.5 -49.5t16 -39t30 -25.5t46.5 -9q38 0 73.5 15t66.5 41.5t57.5 61.5t47.5 75z" glyph-name="q"/>
<glyph unicode="r" d="M405 900l5 -153h9q21 33 45.5 63.5t54.5 53.5t66.5 36.5t83.5 13.5q46 0 91.5 -11.5t72.5 -37.5l-87 -204q-23 19 -47 27.5t-64 8.5q-42 0 -79 -12t-67.5 -32.5t-55 -47t-40.5 -55.5l-121 -550h-246l202 900h177z" horiz-adv-x="797" glyph-name="r"/>
<glyph unicode="s" d="M56 265q21 -12 47 -26.5t56.5 -26.5t64 -20t68.5 -8q69 0 107 19.5t38 60.5q0 33 -24.5 56t-61.5 43t-80.5 42t-80.5 53.5t-61.5 77.5t-24.5 114q0 61 25.5 111.5t72 87t112.5 56.5t148 20q57 0 105 -7.5t88 -18.5t71.5 -25t55.5 -26l-73 -185q-19 7 -43.5 16t-53 17.5 t-59 14t-60.5 5.5q-63 0 -100 -15t-37 -49q0 -26 24.5 -47t61.5 -42t80.5 -45.5t80.5 -58.5t61.5 -79.5t24.5 -109.5q0 -74 -27.5 -129t-78.5 -92t-122.5 -55t-159.5 -18q-62 0 -112 10t-89.5 24.5t-71 31.5t-56.5 31z" horiz-adv-x="797" glyph-name="s"/>
<glyph unicode="t" d="M120 899h86l60 243l261 63l-72 -306h133l-50 -209h-127l-89 -382q-5 -23 -8.5 -40.5t-3.5 -30.5q0 -31 14 -42t46 -11q28 0 50 2.5t38 10.5v-190q-42 -15 -85.5 -23t-106.5 -8q-102 0 -158 45t-56 138q0 17 1.5 36.5t6.5 39.5l102 455h-93z" horiz-adv-x="569" glyph-name="t"/>
<glyph unicode="u" d="M474 900l-119 -509q-5 -24 -10.5 -47t-5.5 -51q0 -44 24 -67.5t89 -23.5q39 0 79.5 14t77 36t65.5 48.5t46 51.5l121 548h246l-121 -540q-7 -30 -13 -69t-10.5 -81t-7 -82.5t-2.5 -72.5q0 -14 0.5 -24.5t2.5 -30.5h-197l-14 171l-3 1q-28 -33 -68 -68t-89 -63.5 t-104.5 -46.5t-114.5 -18q-47 0 -94.5 12t-85.5 40t-62 73.5t-24 111.5q0 39 8 82.5t16 78.5l124 526h246z" horiz-adv-x="1139" glyph-name="u"/>
<glyph unicode="v" d="M407 454l6 -121h6l53 120l256 447h289l-602 -909h-143l-208 909h271z" horiz-adv-x="909" glyph-name="v"/>
<glyph unicode="w" d="M853 900l74 -458l11 -135h10l46 145l216 448h247l-497 -909h-174l-78 490l-6 108h-7l-52 -109l-289 -489h-183l-100 909h251l31 -451l-7 -141h7l69 155l255 437h176z" horiz-adv-x="1366" glyph-name="w"/>
<glyph unicode="x" d="M346 465l-180 435h280l72 -192l29 -122l88 126l151 188h301l-376 -438l199 -462h-274l-92 215l-33 130l-92 -136l-172 -209h-302z" glyph-name="x"/>
<glyph unicode="y" d="M429 412l4 -137h9l45 134l245 491h269l-456 -805q-55 -93 -109.5 -178t-110 -150t-114 -104t-120.5 -39q-43 0 -75.5 7t-60.5 24l70 193q8 -5 20.5 -5.5t26.5 -0.5q25 0 47 7.5t45 27t49 53.5t60 88l-194 882h277z" horiz-adv-x="909" glyph-name="y"/>
<glyph unicode="z" d="M0 215l433 420l76 48h-404l51 217h679l-47 -215l-442 -426l-58 -42h395l-49 -217h-679z" horiz-adv-x="797" glyph-name="z"/>
<glyph unicode="{" d="M149 180q20 99 -16.5 136t-117.5 37l40 205q81 0 132 39.5t68 124.5l76 394q21 104 87.5 173t183.5 69h251l-44 -227h-106q-56 0 -87.5 -28t-43.5 -90l-70 -362q-17 -86 -71 -129.5t-112 -52.5l-4 -20q55 -7 91 -58t20 -132l-70 -359q-12 -61 8.5 -89.5t78.5 -28.5h104 l-44 -227h-251q-109 0 -154.5 62.5t-22.5 177.5z" horiz-adv-x="713" glyph-name="braceleft"/>
<glyph unicode="|" d="M149 1356h225v-1608h-225v1608z" horiz-adv-x="451" glyph-name="bar"/>
<glyph unicode="}" d="M566 732q-19 -98 17 -135t117 -37l-39 -205q-81 0 -132.5 -40t-68.5 -125l-76 -391q-20 -105 -91 -174.5t-187 -69.5h-244l44 227h105q56 0 88.5 27.5t44.5 90.5l70 361q17 86 70 129.5t113 52.5l3 19q-54 9 -90 59t-20 131l70 361q12 60 -8.5 89t-80.5 29h-103l44 227 h250q110 0 155 -64.5t23 -177.5z" horiz-adv-x="713" glyph-name="braceright"/>
<glyph unicode="~" d="M149 736q99 73 177.5 102.5t145.5 29.5q60 0 112.5 -16.5t101 -36t95 -36t96.5 -16.5q38 0 78 13t85 45l99 -209q-76 -54 -138 -74.5t-116 -20.5q-58 0 -108.5 17.5t-99 40t-97 40t-101.5 17.5q-52 0 -111 -21.5t-128 -78.5z" horiz-adv-x="1167" glyph-name="asciitilde"/>
<glyph unicode="¡" d="M401.026 -395.917h-282.982l123.992 633.961l113.993 311.981h174.989l-6 -311.981zM663.011 829.008q0 -71.9951 -46.4971 -112.993q-46.4971 -40.9971 -121.493 -40.9971q-77.9951 0 -124.492 40.9971q-46.4971 40.998 -46.4971 112.993q0 66.9961 46.4971 109.993 q46.4971 42.998 124.492 42.998q74.9961 0 121.493 -42.998q46.4971 -42.9971 46.4971 -109.993z" horiz-adv-x="797" glyph-name="exclamdown"/>
<glyph unicode="¢" d="M661 201q43 5 87 20.5t76 35.5l23 -190q-20 -13 -45.5 -25.5t-54.5 -23t-59.5 -18t-58.5 -10.5l-33 -168h-232l31 158q-64 7 -117 36t-90.5 74.5t-58 105t-20.5 129.5q0 121 33 221t94 175.5t147.5 123t192.5 63.5l31 161h232l-31 -161q54 -6 99 -18.5t77 -29.5l-99 -204 q-28 12 -62 20t-67 12zM575 684q-53 -8 -92 -33.5t-64.5 -64.5t-38.5 -88t-13 -104q0 -32 4.5 -62.5t16.5 -56.5t34.5 -45t58.5 -26z" glyph-name="cent"/>
<glyph unicode="£" d="M162 767h160q-10 26 -17.5 68.5t-7.5 92.5q0 101 38.5 184.5t107 143.5t163.5 93t208 33q63 0 111 -7.5t85 -19.5t65.5 -26.5t52.5 -29.5l-137 -246q-18 13 -39 26.5t-45.5 24t-53 17t-62.5 6.5q-56 0 -97 -15.5t-69 -42.5t-41.5 -63.5t-13.5 -78.5q0 -47 14.5 -90.5 t28.5 -69.5h281l-43 -220h-195q-3 -36 -14 -74t-29.5 -74.5t-43 -69t-54.5 -56.5l-90 -55l-1 -9l136 31h374l-47 -240h-824l47 240q50 9 97 29.5t83 55t58 83t22 111.5v14.5t-1 13.5h-250z" glyph-name="sterling"/>
<glyph unicode="¤" d="M217 1182l120 -121l35 -71q79 56 193 56q57 0 107 -14.5t88 -41.5l37 71l128 123l155 -162l-126 -126l-72 -28q28 -42 39.5 -93t11.5 -106q0 -60 -12.5 -110.5t-38.5 -85.5l72 -31l112 -112l-155 -159l-114 110l-33 70q-37 -28 -89.5 -42.5t-109.5 -14.5q-113 0 -193 57 l-35 -70l-112 -114l-156 159l111 116l70 35q-21 38 -34.5 85t-13.5 107q0 55 14.5 103t37.5 93l-74 33l-119 124zM422 670q0 -34 10.5 -63.5t29 -51.5t45.5 -34.5t60 -12.5q35 0 62 12t45.5 34t28 51.5t9.5 64.5q0 34 -10.5 64t-29 52t-45.5 34.5t-60 12.5q-34 0 -61 -13.5 t-45.5 -36.5t-28.5 -52.5t-10 -60.5z" glyph-name="currency"/>
<glyph unicode="¥" d="M140 654h214l-146 702h302l86 -557h10l302 557h304l-433 -702h198l-36 -181h-275l-22 -113h275l-35 -182h-275l-35 -178h-287l35 178h-275l35 182h275l22 113h-275z" glyph-name="yen"/>
<glyph unicode="¦" d="M149 412h225v-664h-225v664zM374 691h-225v665h225v-665z" horiz-adv-x="451" glyph-name="brokenbar"/>
<glyph unicode="§" d="M123 684q6 30 17 60.5t28.5 59t40.5 54t52 44.5l93 26q-42 25 -65.5 64.5t-23.5 96.5q0 70 32 124.5t98 98.5q104 70 290 70q97 0 187 -12.5t176 -52.5l-110 -219q-57 27 -117.5 42.5t-135.5 15.5q-44 0 -73.5 -6t-47.5 -16t-26 -24.5t-8 -30.5q0 -21 21 -36.5t55.5 -28 t79.5 -24t92 -24.5q43 -12 82.5 -30.5t69.5 -46.5t48 -67.5t18 -94.5q0 -42 -11.5 -82.5t-31.5 -76t-46 -64t-54 -47.5l-100 -27q42 -26 69 -66.5t27 -100.5q0 -56 -18.5 -99.5t-50.5 -76t-74 -54.5t-89 -35t-97 -19t-96 -6q-103 0 -192 18t-170 70l114 205 q15 -8 37.5 -19.5t53 -22t69.5 -17.5t87 -7q89 0 124.5 19.5t35.5 60.5q0 23 -27 40.5t-65.5 31t-81 24t-74.5 19.5q-51 13 -93.5 36t-72 57.5t-42.5 82.5t-4 113zM720 689q0 29 -13.5 48.5t-40 35t-66.5 28.5t-94 30q-54 -27 -84 -70t-30 -92q0 -27 12.5 -47.5t38.5 -36.5 t65.5 -29.5t93.5 -26.5q57 26 87.5 69t30.5 91z" glyph-name="section"/>
<glyph unicode="¨" d="M185 1220q0 60 37.5 93.5t97.5 33.5q59 0 97 -33.5t38 -93.5q0 -58 -38 -90t-97 -32q-60 0 -97.5 32t-37.5 90zM611 1222q0 58 37.5 91.5t97.5 33.5q59 0 97 -33.5t38 -91.5t-38 -91t-97 -33q-60 0 -97.5 33t-37.5 91z" horiz-adv-x="682" glyph-name="dieresis"/>
<glyph unicode="©" d="M80 552q0 103 25.5 199t72 179t111.5 151.5t144 117t170 75.5t190 27q98 0 189.5 -27t170.5 -75.5t144 -117t111.5 -151.5t72 -179t25.5 -199t-25.5 -198.5t-72 -179t-111.5 -151.5t-144 -117t-170.5 -75.5t-189.5 -26.5q-99 0 -190 26.5t-170 75.5t-144 117 t-111.5 151.5t-72 179t-25.5 198.5zM286 553q0 -114 40 -214.5t108.5 -175t161 -118t197.5 -43.5t197.5 43.5t161 118t108.5 175t40 214.5t-40 214.5t-108.5 175t-161 118t-197.5 43.5t-197.5 -43.5t-161 -118t-108.5 -175t-40 -214.5zM1087 227q-45 -31 -115.5 -48.5 t-149.5 -17.5q-167 0 -255 105q-88 106 -88 288q0 187 94 290t249 103q78 0 137 -18t114 -48l-69 -186q-35 18 -65 23.5t-57 5.5q-56 0 -90 -37q-34 -35 -34 -133q0 -173 139 -173q37 0 66 7t62 24z" horiz-adv-x="1530" glyph-name="copyright"/>
<glyph unicode="ª" d="M184 1319q55 21 120 36.5t153 15.5q105 0 156 -46.5t51 -126.5q0 -20 -4 -47.5t-11 -59.5l-41 -187q-8 -39 -13 -75.5t-5 -67.5v-10.5t1 -14.5h-168l1 90h-8q-32 -44 -72 -71t-105 -27q-34 0 -61.5 13t-47 35.5t-30 52.5t-10.5 64q0 140 118 202q41 21 94 31.5t111 10.5 q15 0 28.5 -1t28.5 -1q2 8 3.5 19.5t1.5 19.5q0 15 -7.5 25t-19.5 16t-26.5 8.5t-27.5 2.5q-64 0 -108.5 -12t-80.5 -23zM333 885q19 0 36.5 9.5t31 21.5t22 23t10.5 14l14 72q-16 2 -28.5 2.5t-28.5 0.5q-39 0 -61.5 -10.5t-33.5 -25t-14 -29.5t-3 -24q0 -25 14.5 -39.5 t40.5 -14.5z" horiz-adv-x="545" glyph-name="ordfeminine"/>
<glyph unicode="«" d="M474 506l406 416l119 -122l-208 -221l-81 -76l53 -67l135 -219l-168 -122zM63 501l425 446l134 -136l-221 -229l-86 -79l57 -69l146 -225l-189 -135z" glyph-name="guillemotleft"/>
<glyph unicode="¬" d="M193 806h931v-451h-242v218h-689v233z" horiz-adv-x="1241" glyph-name="logicalnot"/>
<glyph unicode="®" d="M280 843q0 139 47.5 248.5t128 185t187 114t226.5 38.5q122 0 228.5 -38.5t187 -114t126 -185t45.5 -248.5q0 -140 -47.5 -249.5t-127 -185t-186.5 -114.5t-226 -39q-122 0 -229.5 39t-188 114.5t-126 185t-45.5 249.5zM480 843q0 -100 32 -174t85 -124t124 -74t148 -24 q82 0 152.5 24t123 73t82 123t29.5 176q0 98 -30.5 172.5t-84 124t-124 74t-148.5 24.5q-87 0 -158.5 -27.5t-123 -78.5t-79.5 -125t-28 -164zM656 1112q33 9 93 15t112 6q88 0 151 -37t63 -126q0 -64 -43 -99.5t-105 -39.5l56 -29l134 -225h-126l-130 215l-99 31v-246h-106 v535zM840 1040q-22 0 -43 -1t-35 -6v-148h72q60 0 93 18.5t33 62.5q0 35 -32 54.5t-88 19.5z" horiz-adv-x="1530" glyph-name="registered"/>
<glyph unicode="¯" d="M296 1233h631l-39 -166h-631z" glyph-name="macron"/>
<glyph unicode="°" d="M180 1055q0 72 28 132t75.5 103.5t110.5 67.5t130 24q72 0 135 -22t111.5 -64.5t76.5 -102.5t28 -138q0 -75 -28 -134.5t-76.5 -101t-111.5 -63.5t-135 -22q-67 0 -130 22t-110.5 63.5t-75.5 101t-28 134.5zM389 1057q0 -59 40.5 -91.5t96.5 -32.5q57 0 98.5 32.5 t41.5 91.5q0 61 -41.5 93.5t-98.5 32.5q-56 0 -96.5 -33.5t-40.5 -92.5z" horiz-adv-x="819" glyph-name="degree"/>
<glyph unicode="±" d="M130 1022h341v338h242v-338h341v-231h-341v-214h-242v214h-341v231zM130 490h924v-233h-924v233z" horiz-adv-x="1124" glyph-name="plusminus"/>
<glyph unicode="²" d="M709 1359q0 -64 -21 -119t-55.5 -101.5t-78 -85t-89.5 -68.5l-64 -39l-1 -5l76 5h184l-41 -211h-566l29 151q65 37 131.5 83t120 97t87.5 104.5t34 104.5q0 38 -20 56t-58 18q-24 0 -46.5 -5t-42 -12t-35 -14.5t-24.5 -12.5l-29 190q23 12 53 24.5t64 22t71 15.5t75 6 q118 0 182 -52.5t64 -151.5z" horiz-adv-x="614" glyph-name="twosuperior"/>
<glyph unicode="³" d="M330 920q47 0 76.5 10t46.5 25.5t23.5 35t6.5 38.5q0 28 -16 42.5t-40 20.5t-53 6.5t-54 0.5h-73l15 78l157 144l49 37l-73 -2h-192l37 194h526l-25 -129l-184 -167l-59 -39l41 1q77 -5 123.5 -46t46.5 -121q0 -68 -28.5 -127t-80 -103t-123 -69.5t-157.5 -25.5 q-82 0 -141 13.5t-107 34.5l85 185q26 -15 74 -26t99 -11z" horiz-adv-x="614" glyph-name="threesuperior"/>
<glyph unicode="´" d="M572 1365h256l-12 -54l-272 -223h-142z" horiz-adv-x="682" glyph-name="acute"/>
<glyph unicode="µ" d="M483 900l-94 -483q-22 -112 8 -171t128 -59q91 0 147.5 43.5t96.5 124.5l107 545h250l-119 -609q-14 -75 -23.5 -148t-2.5 -143h-186l-34 141h-7q-59 -78 -129.5 -120.5t-158.5 -42.5q-63 0 -103 25t-71 69h-9l4 -192l-48 -247h-251l247 1267h248z" horiz-adv-x="1180" glyph-name="mu"/>
<glyph unicode="¶" d="M747 1356h224v-1608h-224v1608zM357 565q-71 9 -124.5 43.5t-90 87t-54.5 120.5t-18 145q0 75 23 146t68 126.5t111.5 89t153.5 33.5h157v-1608h-226v817z" glyph-name="paragraph"/>
<glyph unicode="·" d="M125 615q0 72 46.5 113t121.5 41q78 0 124.5 -41t46.5 -113q0 -67 -46.5 -110t-124.5 -43q-75 0 -121.5 43t-46.5 110z" horiz-adv-x="512" glyph-name="periodcentered"/>
<glyph unicode="¸" d="M323 -77q69 -5 106 -39t37 -85q0 -47 -23.5 -81t-63.5 -56.5t-94.5 -33.5t-115.5 -11q-79 0 -158 16l41 87q52 -5 87.5 -1.5t56.5 11.5t30 20t9 25q0 31 -41 43.5t-119 10.5l153 171h162z" horiz-adv-x="682" glyph-name="cedilla"/>
<glyph unicode="¹" d="M364 1228l26 80l-63 -52l-55 -35l-75 145l302 199h163l-120 -619h154l-41 -209h-550l41 209h164z" horiz-adv-x="614" glyph-name="onesuperior"/>
<glyph unicode="º" d="M132 993q0 74 25.5 143.5t72 123.5t112 86.5t145.5 32.5q114 0 174 -69q29 -33 45 -80t16 -104q0 -50 -10 -95.5t-25.5 -84.5t-35.5 -70t-41 -52q-54 -55 -113 -79t-137 -24q-54 0 -98.5 20.5t-73.5 56.5q-31 38 -43.5 89.5t-12.5 105.5zM336 1001q0 -14 1.5 -33.5t7 -37 t16.5 -29.5t31 -12q33 0 56.5 24t38.5 58t22 71.5t7 64.5q0 16 -2 34t-8 33.5t-18.5 25.5t-33.5 10q-33 0 -55 -22.5t-35.5 -55t-20 -68.5t-7.5 -63z" horiz-adv-x="614" glyph-name="ordmasculine"/>
<glyph unicode="»" d="M154 95l-120 122l220 219l79 67l-52 76l-122 221l167 122l244 -416zM547 74l-137 135l234 225l84 69l-55 79l-133 229l188 136l251 -446z" glyph-name="guillemotright"/>
<glyph unicode="¼" d="M307 1032l26 80l-63 -52l-55 -35l-75 145l302 199h163l-161 -827h-232zM1255 1379l136 -110l-1131 -1325l-138 104zM1460 145h-131l-28 -146h-209l28 146h-398l27 139l527 544h186l-98 -502h131zM1184 473l23 85l-65 -73l-112 -112l-52 -54l80 7h97z" horiz-adv-x="1536" glyph-name="onequarter"/>
<glyph unicode="½" d="M315 1032l26 80l-63 -52l-55 -35l-75 145l302 199h163l-161 -827h-232zM1248 1379l136 -110l-1131 -1325l-138 104zM1524 623q0 -64 -21 -119t-55.5 -101.5t-78 -85t-89.5 -68.5l-64 -39l-1 -5l76 5h184l-41 -211h-566l29 151q65 37 131.5 83t120 97t87.5 104.5t34 104.5 q0 38 -20 56t-58 18q-24 0 -46.5 -5t-42 -12t-35 -14.5t-24.5 -12.5l-29 190q23 12 53 24.5t64 22t71 15.5t75 6q118 0 182 -52.5t64 -151.5z" horiz-adv-x="1536" glyph-name="onehalf"/>
<glyph unicode="¾" d="M319 725q47 0 76.5 10t46.5 25.5t23.5 35t6.5 38.5q0 28 -16 42.5t-40 20.5t-53 6.5t-54 0.5h-73l15 78l157 144l49 37l-73 -2h-192l37 194h526l-25 -129l-184 -167l-59 -39l41 1q77 -5 123.5 -46t46.5 -121q0 -68 -28.5 -127t-80 -103t-123 -69.5t-157.5 -25.5 q-82 0 -141 13.5t-107 34.5l85 185q26 -15 74 -26t99 -11zM1347 1379l136 -110l-1131 -1325l-138 104zM1481 146h-131l-28 -146h-209l28 146h-398l27 139l527 544h186l-98 -502h131zM1205 474l23 85l-65 -73l-112 -112l-52 -54l80 7h97z" horiz-adv-x="1536" glyph-name="threequarters"/>
<glyph unicode="¿" d="M742.019 550.025q-7.99902 -86.9951 -30.998 -150.991q-22.998 -63.9961 -54.9961 -111.493t-70.4961 -81.4951t-77.4951 -60.9961q-38.998 -25.998 -74.4951 -48.9971q-35.498 -22.999 -62.4971 -48.9971q-26.998 -25.998 -42.9971 -57.4961t-15.999 -75.4961 q0 -47.9971 36.498 -78.9951t113.493 -30.998q31.998 0 68.4961 8q36.4971 7.99902 72.4951 21.498q35.998 13.5 70.4961 30.998q34.4971 17.499 63.4961 36.498l65.9951 -200.987q-57.9961 -34.998 -110.493 -58.4971q-52.4961 -23.498 -103.993 -37.4971t-103.994 -19.999 q-52.4961 -6 -111.493 -6q-64.9961 0 -128.492 15.499t-113.993 49.4971q-50.4961 33.998 -81.4941 88.4951q-30.998 54.4961 -30.998 132.491q0 78.9961 21.998 134.992q21.999 55.9971 56.4971 96.9941q34.4971 40.9971 77.9951 71.4961q43.4971 30.498 85.4941 58.4961 q42.998 27.998 81.4951 55.9961q38.498 27.999 70.9961 63.9961q32.498 35.998 55.9961 84.9951q23.499 48.9971 36.498 118.993h236.985zM828.014 829.008q0 -71.9951 -46.4971 -112.993q-46.4971 -40.9971 -121.493 -40.9971q-77.9951 0 -124.492 40.9971 q-46.4971 40.998 -46.4971 112.993q0 66.9961 46.4971 109.993q46.4971 42.998 124.492 42.998q74.9961 0 121.493 -42.998q46.4971 -42.9971 46.4971 -109.993z" glyph-name="questiondown"/>
<glyph unicode="À" d="M959 288h-548l-172 -288h-299l838 1365h211l327 -1365h-292zM546 515h362l-63 283l-27 175h-8l-96 -177zM1002 1486h-221l-300 169l12 60h335z" horiz-adv-x="1366" glyph-name="Agrave"/>
<glyph unicode="Á" d="M959 288h-548l-172 -288h-299l838 1365h211l327 -1365h-292zM546 515h362l-63 283l-27 175h-8l-96 -177zM1045 1715h333l-12 -60l-370 -169h-217z" horiz-adv-x="1366" glyph-name="Aacute"/>
<glyph unicode="Â" d="M959 288h-548l-172 -288h-299l838 1365h211l327 -1365h-292zM546 515h362l-63 283l-27 175h-8l-96 -177zM843 1744h203l233 -179l-15 -79h-210l-85 77l-52 57l-77 -55l-122 -79h-206l16 81z" horiz-adv-x="1366" glyph-name="Acircumflex"/>
<glyph unicode="Ã" d="M959 288h-548l-172 -288h-299l838 1365h211l327 -1365h-292zM546 515h362l-63 283l-27 175h-8l-96 -177zM524 1610q64 68 125 93.5t121 25.5q46 0 92.5 -11t90.5 -25t85.5 -24t80.5 -10q32 0 63.5 9.5t60.5 36.5l48 -140q-57 -50 -110.5 -69.5t-105.5 -19.5q-48 0 -93 11 t-88.5 24t-85.5 24t-82 11q-41 0 -79.5 -14.5t-77.5 -53.5z" horiz-adv-x="1366" glyph-name="Atilde"/>
<glyph unicode="Ä" d="M959 288h-548l-172 -288h-299l838 1365h211l327 -1365h-292zM546 515h362l-63 283l-27 175h-8l-96 -177zM520 1585q0 53 38 84.5t123 31.5q81 0 119 -31.5t38 -84.5q0 -50 -38 -80t-119 -30q-85 0 -123 30t-38 80zM971 1585q0 53 38 84.5t119 31.5q85 0 123 -31.5 t38 -84.5q0 -50 -38 -80t-123 -30q-81 0 -119 30t-38 80z" horiz-adv-x="1366" glyph-name="Adieresis"/>
<glyph unicode="Å" d="M959 288h-548l-172 -288h-299l838 1365h211l327 -1365h-292zM546 515h362l-63 283l-27 175h-8l-96 -177zM629 1567q0 35 11.5 67t42 56t82.5 37.5t132 13.5q148 0 208 -46.5t60 -127.5q0 -35 -12 -66t-43.5 -54t-83.5 -36.5t-129 -13.5q-76 0 -127.5 12.5t-82 36 t-44.5 54t-14 67.5zM803 1567q0 -28 21.5 -43t72.5 -15q54 0 74 14.5t20 43.5q0 31 -22 46.5t-72 15.5q-94 0 -94 -62z" horiz-adv-x="1366" glyph-name="Aring"/>
<glyph unicode="Æ" d="M971 960l-112 -139l-222 -269h258l80 408h-4zM850 320h-391l-268 -320h-306l1158 1356h932l-49 -252h-636l-58 -295h584l-49 -251h-584l-59 -306h646l-49 -252h-933z" horiz-adv-x="1933" glyph-name="AE"/>
<glyph unicode="Ç" d="M1260 99q-53 -32 -112 -55t-119 -38t-118.5 -23t-109.5 -10l-54 -73q82 -6 128 -35t46 -89q0 -52 -28.5 -91t-76.5 -65.5t-112 -40t-134 -13.5q-35 0 -69.5 2t-69.5 10l37 91q69 -5 109.5 1t60.5 17t25.5 25.5t5.5 26.5q0 29 -41.5 45t-133.5 20l141 179 q-116 16 -207 61.5t-154 118.5t-96.5 172t-33.5 223q0 84 17 164t48 153.5t75 139t98 120.5q115 117 271.5 182t362.5 65q127 0 239.5 -31.5t204.5 -90.5l-126 -232q-85 50 -171 76.5t-185 26.5q-140 0 -239.5 -50.5t-167.5 -141.5q-22 -30 -43 -68.5t-37.5 -83t-26.5 -93.5 t-10 -98q0 -183 96.5 -277t279.5 -94q48 0 96.5 8t95 22t90 33t79.5 40z" horiz-adv-x="1366" glyph-name="Ccedilla"/>
<glyph unicode="È" d="M392 1356h1013l-49 -252h-726l-58 -295h661l-49 -251h-661l-59 -306h735l-49 -252h-1022zM1066 1486h-221l-300 169l12 60h335z" horiz-adv-x="1366" glyph-name="Egrave"/>
<glyph unicode="É" d="M392 1356h1013l-49 -252h-726l-58 -295h661l-49 -251h-661l-59 -306h735l-49 -252h-1022zM1037 1715h333l-12 -60l-370 -169h-217z" horiz-adv-x="1366" glyph-name="Eacute"/>
<glyph unicode="Ê" d="M392 1356h1013l-49 -252h-726l-58 -295h661l-49 -251h-661l-59 -306h735l-49 -252h-1022zM894 1744h203l233 -179l-15 -79h-210l-85 77l-52 57l-77 -55l-122 -79h-206l16 81z" horiz-adv-x="1366" glyph-name="Ecircumflex"/>
<glyph unicode="Ë" d="M392 1356h1013l-49 -252h-726l-58 -295h661l-49 -251h-661l-59 -306h735l-49 -252h-1022zM552 1585q0 53 38 84.5t123 31.5q81 0 119 -31.5t38 -84.5q0 -50 -38 -80t-119 -30q-85 0 -123 30t-38 80zM1003 1585q0 53 38 84.5t119 31.5q85 0 123 -31.5t38 -84.5 q0 -50 -38 -80t-123 -30q-81 0 -119 30t-38 80z" horiz-adv-x="1366" glyph-name="Edieresis"/>
<glyph unicode="Ì" d="M441 1356h283l-261 -1356h-283zM756 1486h-221l-300 169l12 60h335z" horiz-adv-x="797" glyph-name="Igrave"/>
<glyph unicode="Í" d="M441 1356h283l-261 -1356h-283zM719 1715h333l-12 -60l-370 -169h-217z" horiz-adv-x="797" glyph-name="Iacute"/>
<glyph unicode="Î" d="M441 1356h283l-261 -1356h-283zM571 1744h203l233 -179l-15 -79h-210l-85 77l-52 57l-77 -55l-122 -79h-206l16 81z" horiz-adv-x="797" glyph-name="Icircumflex"/>
<glyph unicode="Ï" d="M441 1356h283l-261 -1356h-283zM220 1585q0 53 38 84.5t123 31.5q81 0 119 -31.5t38 -84.5q0 -50 -38 -80t-119 -30q-85 0 -123 30t-38 80zM671 1585q0 53 38 84.5t119 31.5q85 0 123 -31.5t38 -84.5q0 -50 -38 -80t-123 -30q-81 0 -119 30t-38 80z" horiz-adv-x="797" glyph-name="Idieresis"/>
<glyph unicode="Ð" d="M217 571h-163l44 227h163l109 558q43 6 95.5 9.5t109.5 6t115 3t111 0.5q174 0 302.5 -37.5t212.5 -109t125 -176t41 -238.5q0 -176 -55.5 -329t-172 -265.5t-297 -177t-431.5 -64.5q-55 0 -118 2t-121.5 5t-107 6.5t-73.5 6.5zM790 1123q-58 0 -106 -1t-74 -4l-63 -320 h261l-44 -227h-261l-64 -333q9 -2 32.5 -3.5t52 -2t56.5 -1t45 -0.5q126 0 227 38t172 109.5t109 174t38 232.5q0 80 -22.5 143t-69 106.5t-118.5 66t-171 22.5z" horiz-adv-x="1479" glyph-name="Eth"/>
<glyph unicode="Ñ" d="M608 723l-85 172h-8l-20 -187l-138 -708h-272l265 1365h207l405 -738l87 -186h9l20 200l139 715h271l-266 -1365h-207zM552 1610q64 68 125 93.5t121 25.5q46 0 92.5 -11t90.5 -25t85.5 -24t80.5 -10q32 0 63.5 9.5t60.5 36.5l48 -140q-57 -50 -110.5 -69.5t-105.5 -19.5 q-48 0 -93 11t-88.5 24t-85.5 24t-82 11q-41 0 -79.5 -14.5t-77.5 -53.5z" horiz-adv-x="1479" glyph-name="Ntilde"/>
<glyph unicode="Ò" d="M118 516q-2 106 19 211.5t65 201.5t110.5 178.5t154 143.5t195.5 95.5t237 35.5q135 0 239.5 -40.5t176 -114t108 -176.5t36.5 -228q0 -182 -54 -337.5t-152.5 -269.5t-235.5 -179t-303 -65q-135 0 -244 37t-186 107.5t-120 171t-46 228.5zM852 1131q-73 0 -133.5 -25 t-108.5 -67.5t-83.5 -100t-58.5 -122.5t-34 -134.5t-9 -136.5q2 -70 23 -129t59 -102t92 -67t122 -24q99 0 178 47.5t135 126.5t86 181t30 211q0 73 -18 135.5t-55 108.5t-93 72t-132 26zM1084 1486h-221l-300 169l12 60h335z" horiz-adv-x="1479" glyph-name="Ograve"/>
<glyph unicode="Ó" d="M118 516q-2 106 19 211.5t65 201.5t110.5 178.5t154 143.5t195.5 95.5t237 35.5q135 0 239.5 -40.5t176 -114t108 -176.5t36.5 -228q0 -182 -54 -337.5t-152.5 -269.5t-235.5 -179t-303 -65q-135 0 -244 37t-186 107.5t-120 171t-46 228.5zM852 1131q-73 0 -133.5 -25 t-108.5 -67.5t-83.5 -100t-58.5 -122.5t-34 -134.5t-9 -136.5q2 -70 23 -129t59 -102t92 -67t122 -24q99 0 178 47.5t135 126.5t86 181t30 211q0 73 -18 135.5t-55 108.5t-93 72t-132 26zM1052 1715h333l-12 -60l-370 -169h-217z" horiz-adv-x="1479" glyph-name="Oacute"/>
<glyph unicode="Ô" d="M118 516q-2 106 19 211.5t65 201.5t110.5 178.5t154 143.5t195.5 95.5t237 35.5q135 0 239.5 -40.5t176 -114t108 -176.5t36.5 -228q0 -182 -54 -337.5t-152.5 -269.5t-235.5 -179t-303 -65q-135 0 -244 37t-186 107.5t-120 171t-46 228.5zM852 1131q-73 0 -133.5 -25 t-108.5 -67.5t-83.5 -100t-58.5 -122.5t-34 -134.5t-9 -136.5q2 -70 23 -129t59 -102t92 -67t122 -24q99 0 178 47.5t135 126.5t86 181t30 211q0 73 -18 135.5t-55 108.5t-93 72t-132 26zM882 1744h203l233 -179l-15 -79h-210l-85 77l-52 57l-77 -55l-122 -79h-206l16 81z " horiz-adv-x="1479" glyph-name="Ocircumflex"/>
<glyph unicode="Õ" d="M118 516q-2 106 19 211.5t65 201.5t110.5 178.5t154 143.5t195.5 95.5t237 35.5q135 0 239.5 -40.5t176 -114t108 -176.5t36.5 -228q0 -182 -54 -337.5t-152.5 -269.5t-235.5 -179t-303 -65q-135 0 -244 37t-186 107.5t-120 171t-46 228.5zM852 1131q-73 0 -133.5 -25 t-108.5 -67.5t-83.5 -100t-58.5 -122.5t-34 -134.5t-9 -136.5q2 -70 23 -129t59 -102t92 -67t122 -24q99 0 178 47.5t135 126.5t86 181t30 211q0 73 -18 135.5t-55 108.5t-93 72t-132 26zM573 1610q64 68 125 93.5t121 25.5q46 0 92.5 -11t90.5 -25t85.5 -24t80.5 -10 q32 0 63.5 9.5t60.5 36.5l48 -140q-57 -50 -110.5 -69.5t-105.5 -19.5q-48 0 -93 11t-88.5 24t-85.5 24t-82 11q-41 0 -79.5 -14.5t-77.5 -53.5z" horiz-adv-x="1479" glyph-name="Otilde"/>
<glyph unicode="Ö" d="M118 516q-2 106 19 211.5t65 201.5t110.5 178.5t154 143.5t195.5 95.5t237 35.5q135 0 239.5 -40.5t176 -114t108 -176.5t36.5 -228q0 -182 -54 -337.5t-152.5 -269.5t-235.5 -179t-303 -65q-135 0 -244 37t-186 107.5t-120 171t-46 228.5zM852 1131q-73 0 -133.5 -25 t-108.5 -67.5t-83.5 -100t-58.5 -122.5t-34 -134.5t-9 -136.5q2 -70 23 -129t59 -102t92 -67t122 -24q99 0 178 47.5t135 126.5t86 181t30 211q0 73 -18 135.5t-55 108.5t-93 72t-132 26zM552 1585q0 53 38 84.5t123 31.5q81 0 119 -31.5t38 -84.5q0 -50 -38 -80t-119 -30 q-85 0 -123 30t-38 80zM1003 1585q0 53 38 84.5t119 31.5q85 0 123 -31.5t38 -84.5q0 -50 -38 -80t-123 -30q-81 0 -119 30t-38 80z" horiz-adv-x="1479" glyph-name="Odieresis"/>
<glyph unicode="×" d="M355 1073l273 -260l271 260l160 -173l-263 -244l263 -249l-160 -171l-271 259l-275 -260l-159 170l266 251l-264 244z" horiz-adv-x="1167" glyph-name="multiply"/>
<glyph unicode="Ø" d="M118 516q-2 106 19 211.5t65 201.5t110.5 178.5t154 143.5t195.5 95.5t237 35.5q94 0 173 -19.5t143 -57.5l105 119l161 -118l-120 -136q48 -69 73 -156.5t25 -190.5q0 -182 -54 -337.5t-152.5 -269.5t-235.5 -179t-303 -65q-100 0 -185.5 20.5t-154.5 59.5l-114 -129 l-158 116l124 141q-51 66 -78.5 150t-29.5 186zM852 1131q-73 0 -133.5 -25t-108.5 -67.5t-83.5 -100t-58.5 -122.5t-34 -134.5t-9 -136.5q2 -65 19 -117l577 656q-34 23 -76 35t-93 12zM1150 789q0 66 -15 125l-572 -648q66 -43 158 -43q99 0 178 47.5t135 126.5t86 181 t30 211z" horiz-adv-x="1479" glyph-name="Oslash"/>
<glyph unicode="Ù" d="M1194 1356h272l-169 -870q-26 -132 -80 -228t-134.5 -159t-186 -93t-233.5 -30q-226 0 -351.5 90t-139.5 253q-4 46 4 98.5t18 103.5l162 835h285l-165 -850q-11 -51 -9 -93q2 -94 60 -139t181 -45q63 0 116 16t94.5 52.5t70.5 95t46 143.5zM1086 1486h-221l-300 169 l12 60h335z" horiz-adv-x="1479" glyph-name="Ugrave"/>
<glyph unicode="Ú" d="M1194 1356h272l-169 -870q-26 -132 -80 -228t-134.5 -159t-186 -93t-233.5 -30q-226 0 -351.5 90t-139.5 253q-4 46 4 98.5t18 103.5l162 835h285l-165 -850q-11 -51 -9 -93q2 -94 60 -139t181 -45q63 0 116 16t94.5 52.5t70.5 95t46 143.5zM1060 1715h333l-12 -60 l-370 -169h-217z" horiz-adv-x="1479" glyph-name="Uacute"/>
<glyph unicode="Û" d="M1194 1356h272l-169 -870q-26 -132 -80 -228t-134.5 -159t-186 -93t-233.5 -30q-226 0 -351.5 90t-139.5 253q-4 46 4 98.5t18 103.5l162 835h285l-165 -850q-11 -51 -9 -93q2 -94 60 -139t181 -45q63 0 116 16t94.5 52.5t70.5 95t46 143.5zM900 1744h203l233 -179 l-15 -79h-210l-85 77l-52 57l-77 -55l-122 -79h-206l16 81z" horiz-adv-x="1479" glyph-name="Ucircumflex"/>
<glyph unicode="Ü" d="M1194 1356h272l-169 -870q-26 -132 -80 -228t-134.5 -159t-186 -93t-233.5 -30q-226 0 -351.5 90t-139.5 253q-4 46 4 98.5t18 103.5l162 835h285l-165 -850q-11 -51 -9 -93q2 -94 60 -139t181 -45q63 0 116 16t94.5 52.5t70.5 95t46 143.5zM570 1585q0 53 38 84.5 t123 31.5q81 0 119 -31.5t38 -84.5q0 -50 -38 -80t-119 -30q-85 0 -123 30t-38 80zM1021 1585q0 53 38 84.5t119 31.5q85 0 123 -31.5t38 -84.5q0 -50 -38 -80t-123 -30q-81 0 -119 30t-38 80z" horiz-adv-x="1479" glyph-name="Udieresis"/>
<glyph unicode="Ý" d="M507 499l-357 857h321l183 -490l35 -115h7l76 118l357 487h346l-680 -855l-98 -501h-287zM920 1715h333l-12 -60l-370 -169h-217z" horiz-adv-x="1251" glyph-name="Yacute"/>
<glyph unicode="Þ" d="M364 1356h287l-28 -140q30 2 60 3t61 1q112 0 202.5 -15.5t159.5 -58.5q64 -40 101.5 -113t37.5 -177q0 -134 -46.5 -238.5t-130.5 -176.5t-200.5 -109.5t-257.5 -37.5q-10 0 -33 0.5t-48.5 1.5t-48.5 2.5t-34 3.5l-59 -302h-287zM495 556q7 -2 24 -4t36 -3t36 -1.5 t26 -0.5q163 0 239.5 64t76.5 188q0 38 -12.5 73.5t-41.5 56.5q-53 39 -165 39q-42 0 -79.5 -2.5t-61.5 -6.5z" horiz-adv-x="1251" glyph-name="Thorn"/>
<glyph unicode="ß" d="M288 1037q22 96 64.5 162t102 107t133.5 59.5t159 18.5q89 0 147 -25t92.5 -61.5t48 -77t13.5 -71.5q0 -50 -13 -91.5t-32.5 -76t-42.5 -62t-43 -49.5q-26 -28 -45.5 -50.5t-32.5 -43.5t-19.5 -42t-6.5 -45q0 -25 7.5 -47t19.5 -43t26.5 -42t28.5 -43q12 -18 24.5 -40 t23 -48.5t17.5 -57.5t7 -68q0 -67 -23 -126t-70.5 -103.5t-120 -70t-171.5 -25.5q-42 0 -85.5 13t-73.5 34l75 174q14 -11 38.5 -22.5t56.5 -11.5q21 0 41 8.5t35.5 25t25.5 40.5t10 55q0 26 -5 48.5t-12.5 43.5t-17.5 41t-20 43q-11 23 -23.5 48t-24 51.5t-19 55t-7.5 60.5 q0 35 13 67.5t32.5 62.5t41.5 56.5t40 49.5q32 41 57.5 85t25.5 93q0 42 -22 68t-62 26q-49 0 -79.5 -19t-48.5 -48t-27.5 -65t-16.5 -70l-208 -988q-17 -81 -40.5 -148t-56.5 -110q-44 -57 -102.5 -87.5t-145.5 -30.5q-37 0 -72 6.5t-65 15.5t-53.5 20t-36.5 20l73 185 q6 -3 18 -8.5t27.5 -10t34 -8t38.5 -3.5q25 0 49.5 10.5t41.5 40.5q13 22 25 59.5t19 69.5l136 671h-127l48 208h124z" glyph-name="germandbls"/>
<glyph unicode="à" d="M863 359q-14 -60 -19 -122.5t-5 -117.5q0 -35 2.5 -68t4.5 -53h-181l-32 150h-8q-22 -30 -54.5 -60.5t-72 -55.5t-84.5 -40.5t-93 -15.5q-66 0 -116.5 21.5t-85 60.5t-52 95t-17.5 125q0 77 16.5 155.5t50.5 150t85 134t119.5 108.5t154.5 72.5t190 26.5q69 0 152.5 -12 t162.5 -30zM411 184q36 0 66.5 12.5t54.5 31.5t43 41.5t33 41.5l90 390q-23 8 -50 11.5t-55 3.5q-71 0 -125 -34.5t-91.5 -88.5t-56.5 -120.5t-19 -130.5q0 -74 26.5 -116t83.5 -42zM781 1088h-129l-199 219l11 58h252z" glyph-name="agrave"/>
<glyph unicode="á" d="M863 359q-14 -60 -19 -122.5t-5 -117.5q0 -35 2.5 -68t4.5 -53h-181l-32 150h-8q-22 -30 -54.5 -60.5t-72 -55.5t-84.5 -40.5t-93 -15.5q-66 0 -116.5 21.5t-85 60.5t-52 95t-17.5 125q0 77 16.5 155.5t50.5 150t85 134t119.5 108.5t154.5 72.5t190 26.5q69 0 152.5 -12 t162.5 -30zM411 184q36 0 66.5 12.5t54.5 31.5t43 41.5t33 41.5l90 390q-23 8 -50 11.5t-55 3.5q-71 0 -125 -34.5t-91.5 -88.5t-56.5 -120.5t-19 -130.5q0 -74 26.5 -116t83.5 -42zM749 1365h256l-12 -54l-272 -223h-142z" glyph-name="aacute"/>
<glyph unicode="â" d="M863 359q-14 -60 -19 -122.5t-5 -117.5q0 -35 2.5 -68t4.5 -53h-181l-32 150h-8q-22 -30 -54.5 -60.5t-72 -55.5t-84.5 -40.5t-93 -15.5q-66 0 -116.5 21.5t-85 60.5t-52 95t-17.5 125q0 77 16.5 155.5t50.5 150t85 134t119.5 108.5t154.5 72.5t190 26.5q69 0 152.5 -12 t162.5 -30zM411 184q36 0 66.5 12.5t54.5 31.5t43 41.5t33 41.5l90 390q-23 8 -50 11.5t-55 3.5q-71 0 -125 -34.5t-91.5 -88.5t-56.5 -120.5t-19 -130.5q0 -74 26.5 -116t83.5 -42zM676 1386h168l137 -327h-197l-49 119l-8 88l-55 -88l-117 -119h-199z" glyph-name="acircumflex"/>
<glyph unicode="ã" d="M863 359q-14 -60 -19 -122.5t-5 -117.5q0 -35 2.5 -68t4.5 -53h-181l-32 150h-8q-22 -30 -54.5 -60.5t-72 -55.5t-84.5 -40.5t-93 -15.5q-66 0 -116.5 21.5t-85 60.5t-52 95t-17.5 125q0 77 16.5 155.5t50.5 150t85 134t119.5 108.5t154.5 72.5t190 26.5q69 0 152.5 -12 t162.5 -30zM411 184q36 0 66.5 12.5t54.5 31.5t43 41.5t33 41.5l90 390q-23 8 -50 11.5t-55 3.5q-71 0 -125 -34.5t-91.5 -88.5t-56.5 -120.5t-19 -130.5q0 -74 26.5 -116t83.5 -42zM371 1224q72 65 126.5 90.5t98.5 25.5q37 0 69 -12.5t63 -27t63 -27t69 -12.5q29 0 63 11 t74 38l9 -126q-65 -59 -116.5 -81t-94.5 -22q-38 0 -71 12t-64.5 26t-64.5 26t-71 12q-31 0 -67 -11t-78 -40z" glyph-name="atilde"/>
<glyph unicode="ä" d="M863 359q-14 -60 -19 -122.5t-5 -117.5q0 -35 2.5 -68t4.5 -53h-181l-32 150h-8q-22 -30 -54.5 -60.5t-72 -55.5t-84.5 -40.5t-93 -15.5q-66 0 -116.5 21.5t-85 60.5t-52 95t-17.5 125q0 77 16.5 155.5t50.5 150t85 134t119.5 108.5t154.5 72.5t190 26.5q69 0 152.5 -12 t162.5 -30zM411 184q36 0 66.5 12.5t54.5 31.5t43 41.5t33 41.5l90 390q-23 8 -50 11.5t-55 3.5q-71 0 -125 -34.5t-91.5 -88.5t-56.5 -120.5t-19 -130.5q0 -74 26.5 -116t83.5 -42zM318 1220q0 60 37.5 93.5t97.5 33.5q59 0 97 -33.5t38 -93.5q0 -58 -38 -90t-97 -32 q-60 0 -97.5 32t-37.5 90zM744 1222q0 58 37.5 91.5t97.5 33.5q59 0 97 -33.5t38 -91.5t-38 -91t-97 -33q-60 0 -97.5 33t-37.5 91z" glyph-name="adieresis"/>
<glyph unicode="å" d="M863 359q-14 -60 -19 -122.5t-5 -117.5q0 -35 2.5 -68t4.5 -53h-181l-32 150h-8q-22 -30 -54.5 -60.5t-72 -55.5t-84.5 -40.5t-93 -15.5q-66 0 -116.5 21.5t-85 60.5t-52 95t-17.5 125q0 77 16.5 155.5t50.5 150t85 134t119.5 108.5t154.5 72.5t190 26.5q69 0 152.5 -12 t162.5 -30zM411 184q36 0 66.5 12.5t54.5 31.5t43 41.5t33 41.5l90 390q-23 8 -50 11.5t-55 3.5q-71 0 -125 -34.5t-91.5 -88.5t-56.5 -120.5t-19 -130.5q0 -74 26.5 -116t83.5 -42zM489 1213q0 37 15 69t43.5 55t71 36t98.5 13q105 0 166 -44t61 -129q0 -35 -15.5 -65.5 t-45 -53.5t-71.5 -36t-95 -13q-109 0 -168.5 45.5t-59.5 122.5zM637 1213q0 -28 24 -43.5t56 -15.5q35 0 57.5 15t22.5 44q0 32 -24 47t-56 15t-56 -15t-24 -47z" glyph-name="aring"/>
<glyph unicode="æ" d="M602 401q-17 2 -34 2h-34q-117 0 -181.5 -33t-64.5 -104q0 -49 26.5 -70t59.5 -21q37 0 69.5 11.5t59 29.5t47 39.5t34.5 41.5zM608 139q-24 -29 -58 -56.5t-76 -49t-92.5 -34.5t-107.5 -13q-67 0 -113.5 19.5t-76 51t-43 72t-13.5 83.5q0 84 37 147.5t98 103.5 q69 45 173.5 62.5t228.5 17.5h34t34 -2q11 33 16.5 59.5t5.5 46.5q0 44 -40.5 64.5t-114.5 20.5q-68 0 -134 -14.5t-131 -37.5l-36 167q83 37 183 53.5t202 16.5q47 0 90.5 -6.5t79.5 -19.5t62.5 -33.5t39.5 -47.5q18 21 51 41.5t74 37t88 26.5t93 10q87 0 143 -20.5 t89 -52.5t46 -72t13 -80q0 -100 -50.5 -163.5t-135 -99t-196 -47.5t-234.5 -9q-2 -14 -3 -28t-1 -26q0 -81 49 -124t134 -43q79 0 145 21.5t111 47.5l47 -154q-36 -24 -82.5 -42.5t-99 -31.5t-107.5 -19.5t-106 -6.5q-67 0 -116.5 11t-85.5 32t-61 51.5t-43 69.5h-10z M878 525q66 -1 125.5 2t105.5 17t73 41.5t27 76.5q0 15 -4 30t-15.5 27t-32 19t-54.5 7q-55 0 -94.5 -23.5t-66.5 -58t-42.5 -72.5t-21.5 -66z" horiz-adv-x="1479" glyph-name="ae"/>
<glyph unicode="ç" d="M809 637q-17 9 -40.5 21t-52 23t-62 18.5t-71.5 7.5q-53 0 -103 -26.5t-89 -72.5t-62.5 -106.5t-23.5 -127.5q0 -84 39 -132.5t133 -48.5q37 0 74.5 8t70.5 19.5t61 24t48 22.5l54 -173q-24 -19 -57.5 -37t-73.5 -33.5t-84.5 -26.5t-89.5 -17l-41 -57q69 -5 106 -38 t37 -84q0 -47 -23.5 -81t-63.5 -56.5t-94.5 -33.5t-115.5 -11q-79 0 -158 16l41 87q52 -5 87.5 -1.5t56.5 11.5t30 20t9 25q0 31 -41 42.5t-119 9.5l138 153q-74 12 -127.5 43t-88.5 75t-51.5 98.5t-16.5 113.5q0 146 47.5 260t125 192.5t175 119.5t198.5 41q46 0 92.5 -6 t88.5 -18t78.5 -29t62.5 -39z" horiz-adv-x="909" glyph-name="ccedilla"/>
<glyph unicode="è" d="M773 99q-32 -23 -70.5 -45.5t-85 -39.5t-101 -27.5t-117.5 -10.5q-81 0 -148 23t-114 66.5t-73 106.5t-26 143q0 140 47 253t123.5 192.5t173.5 122t198 42.5q83 0 141 -18t94.5 -49.5t53 -73.5t16.5 -91q0 -77 -38 -136t-108.5 -99.5t-171 -61t-224.5 -20.5 q-14 0 -28.5 0.5t-31.5 1.5q-5 -11 -6 -25t-1 -25q0 -73 47.5 -108.5t133.5 -35.5q44 0 84 8t73.5 20t59 25.5t42.5 24.5zM548 722q-41 0 -75.5 -13.5t-63 -37.5t-50.5 -57t-37 -71q93 0 156 6t102 19.5t56 35t17 51.5q0 10 -3 22t-14 22t-31.5 16.5t-56.5 6.5zM678 1088 h-129l-199 219l11 58h252z" horiz-adv-x="909" glyph-name="egrave"/>
<glyph unicode="é" d="M773 99q-32 -23 -70.5 -45.5t-85 -39.5t-101 -27.5t-117.5 -10.5q-81 0 -148 23t-114 66.5t-73 106.5t-26 143q0 140 47 253t123.5 192.5t173.5 122t198 42.5q83 0 141 -18t94.5 -49.5t53 -73.5t16.5 -91q0 -77 -38 -136t-108.5 -99.5t-171 -61t-224.5 -20.5 q-14 0 -28.5 0.5t-31.5 1.5q-5 -11 -6 -25t-1 -25q0 -73 47.5 -108.5t133.5 -35.5q44 0 84 8t73.5 20t59 25.5t42.5 24.5zM548 722q-41 0 -75.5 -13.5t-63 -37.5t-50.5 -57t-37 -71q93 0 156 6t102 19.5t56 35t17 51.5q0 10 -3 22t-14 22t-31.5 16.5t-56.5 6.5zM684 1365 h256l-12 -54l-272 -223h-142z" horiz-adv-x="909" glyph-name="eacute"/>
<glyph unicode="ê" d="M773 99q-32 -23 -70.5 -45.5t-85 -39.5t-101 -27.5t-117.5 -10.5q-81 0 -148 23t-114 66.5t-73 106.5t-26 143q0 140 47 253t123.5 192.5t173.5 122t198 42.5q83 0 141 -18t94.5 -49.5t53 -73.5t16.5 -91q0 -77 -38 -136t-108.5 -99.5t-171 -61t-224.5 -20.5 q-14 0 -28.5 0.5t-31.5 1.5q-5 -11 -6 -25t-1 -25q0 -73 47.5 -108.5t133.5 -35.5q44 0 84 8t73.5 20t59 25.5t42.5 24.5zM548 722q-41 0 -75.5 -13.5t-63 -37.5t-50.5 -57t-37 -71q93 0 156 6t102 19.5t56 35t17 51.5q0 10 -3 22t-14 22t-31.5 16.5t-56.5 6.5zM587 1386 h168l137 -327h-197l-49 119l-8 88l-55 -88l-117 -119h-199z" horiz-adv-x="909" glyph-name="ecircumflex"/>
<glyph unicode="ë" d="M773 99q-32 -23 -70.5 -45.5t-85 -39.5t-101 -27.5t-117.5 -10.5q-81 0 -148 23t-114 66.5t-73 106.5t-26 143q0 140 47 253t123.5 192.5t173.5 122t198 42.5q83 0 141 -18t94.5 -49.5t53 -73.5t16.5 -91q0 -77 -38 -136t-108.5 -99.5t-171 -61t-224.5 -20.5 q-14 0 -28.5 0.5t-31.5 1.5q-5 -11 -6 -25t-1 -25q0 -73 47.5 -108.5t133.5 -35.5q44 0 84 8t73.5 20t59 25.5t42.5 24.5zM548 722q-41 0 -75.5 -13.5t-63 -37.5t-50.5 -57t-37 -71q93 0 156 6t102 19.5t56 35t17 51.5q0 10 -3 22t-14 22t-31.5 16.5t-56.5 6.5zM291 1220 q0 60 37.5 93.5t97.5 33.5q59 0 97 -33.5t38 -93.5q0 -58 -38 -90t-97 -32q-60 0 -97.5 32t-37.5 90zM717 1222q0 58 37.5 91.5t97.5 33.5q59 0 97 -33.5t38 -91.5t-38 -91t-97 -33q-60 0 -97.5 33t-37.5 91z" horiz-adv-x="909" glyph-name="edieresis"/>
<glyph unicode="ì" d="M287 899h252l-217 -899h-252zM499 1088h-129l-199 219l11 58h252z" horiz-adv-x="569" glyph-name="igrave"/>
<glyph unicode="í" d="M269 899h252l-217 -899h-252zM496 1365h256l-12 -54l-272 -223h-142z" horiz-adv-x="569" glyph-name="iacute"/>
<glyph unicode="î" d="M269 899h252l-217 -899h-252zM421 1386h168l137 -327h-197l-49 119l-8 88l-55 -88l-117 -119h-199z" horiz-adv-x="569" glyph-name="icircumflex"/>
<glyph unicode="ï" d="M269 899h252l-217 -899h-252zM82 1220q0 60 37.5 93.5t97.5 33.5q59 0 97 -33.5t38 -93.5q0 -58 -38 -90t-97 -32q-60 0 -97.5 32t-37.5 90zM508 1222q0 58 37.5 91.5t97.5 33.5q59 0 97 -33.5t38 -91.5t-38 -91t-97 -33q-60 0 -97.5 33t-37.5 91z" horiz-adv-x="569" glyph-name="idieresis"/>
<glyph unicode="ð" d="M503 1064l143 53q-37 32 -81.5 55.5t-90.5 37.5l199 74q45 -15 87 -39t80 -58l150 54l57 -97l-131 -49q34 -56 55 -124t21 -149q0 -222 -48.5 -382t-130 -263.5t-189.5 -152.5t-226 -49q-164 0 -250 84.5t-86 249.5q0 127 38.5 234.5t105.5 186t157.5 123t194.5 44.5 q72 0 122.5 -16.5t84.5 -51.5q5 57 -7.5 105t-35.5 89l-154 -55zM722 635q-17 35 -54.5 57t-91.5 22q-60 0 -107.5 -34t-80 -90t-49.5 -127t-17 -145q0 -75 29 -116.5t88 -41.5q53 0 94.5 23.5t73.5 62t54 88.5t36 102.5t20 104t5 94.5z" glyph-name="eth"/>
<glyph unicode="ñ" d="M666 0l126 558q11 49 11 79q0 33 -33.5 51.5t-81.5 18.5q-38 0 -79.5 -15.5t-80.5 -39.5t-71.5 -54t-51.5 -60l-120 -538h-247l202 900h183l-8 -153h8q26 27 67.5 58t94 58t115 44.5t131.5 17.5q45 0 86.5 -11.5t73 -36t50.5 -64t19 -94.5q0 -26 -2.5 -56.5t-9.5 -61.5 l-136 -601h-246zM413 1224q72 65 126.5 90.5t98.5 25.5q37 0 69 -12.5t63 -27t63 -27t69 -12.5q29 0 63 11t74 38l9 -126q-65 -59 -116.5 -81t-94.5 -22q-38 0 -71 12t-64.5 26t-64.5 26t-71 12q-31 0 -67 -11t-78 -40z" horiz-adv-x="1139" glyph-name="ntilde"/>
<glyph unicode="ò" d="M56 353q0 129 42.5 234.5t116.5 180.5t173.5 116t213.5 41q90 0 158.5 -31.5t114.5 -84.5t69 -122.5t23 -145.5q0 -117 -39 -219.5t-108 -179.5t-165 -121.5t-210 -44.5q-104 0 -178 32.5t-121 85.5t-68.5 120.5t-21.5 138.5zM308 352q0 -38 10.5 -69t29 -53t44.5 -34 t57 -12q55 0 103 30t84 81t57 119t21 145q0 34 -7 63t-23 50t-42 32.5t-63 11.5q-56 0 -105 -30t-86 -80t-58.5 -116t-21.5 -138zM687 1088h-129l-199 219l11 58h252z" glyph-name="ograve"/>
<glyph unicode="ó" d="M56 353q0 129 42.5 234.5t116.5 180.5t173.5 116t213.5 41q90 0 158.5 -31.5t114.5 -84.5t69 -122.5t23 -145.5q0 -117 -39 -219.5t-108 -179.5t-165 -121.5t-210 -44.5q-104 0 -178 32.5t-121 85.5t-68.5 120.5t-21.5 138.5zM308 352q0 -38 10.5 -69t29 -53t44.5 -34 t57 -12q55 0 103 30t84 81t57 119t21 145q0 34 -7 63t-23 50t-42 32.5t-63 11.5q-56 0 -105 -30t-86 -80t-58.5 -116t-21.5 -138zM703 1365h256l-12 -54l-272 -223h-142z" glyph-name="oacute"/>
<glyph unicode="ô" d="M56 353q0 129 42.5 234.5t116.5 180.5t173.5 116t213.5 41q90 0 158.5 -31.5t114.5 -84.5t69 -122.5t23 -145.5q0 -117 -39 -219.5t-108 -179.5t-165 -121.5t-210 -44.5q-104 0 -178 32.5t-121 85.5t-68.5 120.5t-21.5 138.5zM308 352q0 -38 10.5 -69t29 -53t44.5 -34 t57 -12q55 0 103 30t84 81t57 119t21 145q0 34 -7 63t-23 50t-42 32.5t-63 11.5q-56 0 -105 -30t-86 -80t-58.5 -116t-21.5 -138zM633 1386h168l137 -327h-197l-49 119l-8 88l-55 -88l-117 -119h-199z" glyph-name="ocircumflex"/>
<glyph unicode="õ" d="M56 353q0 129 42.5 234.5t116.5 180.5t173.5 116t213.5 41q90 0 158.5 -31.5t114.5 -84.5t69 -122.5t23 -145.5q0 -117 -39 -219.5t-108 -179.5t-165 -121.5t-210 -44.5q-104 0 -178 32.5t-121 85.5t-68.5 120.5t-21.5 138.5zM308 352q0 -38 10.5 -69t29 -53t44.5 -34 t57 -12q55 0 103 30t84 81t57 119t21 145q0 34 -7 63t-23 50t-42 32.5t-63 11.5q-56 0 -105 -30t-86 -80t-58.5 -116t-21.5 -138zM345 1224q72 65 126.5 90.5t98.5 25.5q37 0 69 -12.5t63 -27t63 -27t69 -12.5q29 0 63 11t74 38l9 -126q-65 -59 -116.5 -81t-94.5 -22 q-38 0 -71 12t-64.5 26t-64.5 26t-71 12q-31 0 -67 -11t-78 -40z" glyph-name="otilde"/>
<glyph unicode="ö" d="M56 353q0 129 42.5 234.5t116.5 180.5t173.5 116t213.5 41q90 0 158.5 -31.5t114.5 -84.5t69 -122.5t23 -145.5q0 -117 -39 -219.5t-108 -179.5t-165 -121.5t-210 -44.5q-104 0 -178 32.5t-121 85.5t-68.5 120.5t-21.5 138.5zM308 352q0 -38 10.5 -69t29 -53t44.5 -34 t57 -12q55 0 103 30t84 81t57 119t21 145q0 34 -7 63t-23 50t-42 32.5t-63 11.5q-56 0 -105 -30t-86 -80t-58.5 -116t-21.5 -138zM302 1220q0 60 37.5 93.5t97.5 33.5q59 0 97 -33.5t38 -93.5q0 -58 -38 -90t-97 -32q-60 0 -97.5 32t-37.5 90zM728 1222q0 58 37.5 91.5 t97.5 33.5q59 0 97 -33.5t38 -91.5t-38 -91t-97 -33q-60 0 -97.5 33t-37.5 91z" glyph-name="odieresis"/>
<glyph unicode="÷" d="M140 769h924v-233h-924v233zM433 1042q0 72 46.5 112.5t121.5 40.5q78 0 124.5 -40.5t46.5 -112.5q0 -68 -46.5 -110.5t-124.5 -42.5q-75 0 -121.5 42.5t-46.5 110.5zM433 264q0 71 46.5 111.5t121.5 40.5q78 0 124.5 -40.5t46.5 -111.5q0 -68 -46.5 -110.5t-124.5 -42.5 q-75 0 -121.5 42.5t-46.5 110.5z" horiz-adv-x="1124" glyph-name="divide"/>
<glyph unicode="ø" d="M56 353q0 129 42.5 234.5t116.5 180.5t173.5 116t213.5 41q64 0 117 -16t95 -45l82 82l131 -107l-105 -103q23 -44 34 -93t11 -102q0 -117 -39 -219.5t-108 -179.5t-165 -121.5t-210 -44.5q-74 0 -132 16.5t-103 45.5l-84 -81l-135 108l105 105q-21 42 -30.5 88.5 t-9.5 94.5zM308 337l358 353q-16 12 -37 19t-50 7q-56 0 -105 -30t-86 -80t-58.5 -116t-21.5 -138v-15zM362 215q36 -31 87 -31q55 0 103 30t84 81t57 119.5t21 146.5z" glyph-name="oslash"/>
<glyph unicode="ù" d="M474 900l-119 -509q-5 -24 -10.5 -47t-5.5 -51q0 -44 24 -67.5t89 -23.5q39 0 79.5 14t77 36t65.5 48.5t46 51.5l121 548h246l-121 -540q-7 -30 -13 -69t-10.5 -81t-7 -82.5t-2.5 -72.5q0 -14 0.5 -24.5t2.5 -30.5h-197l-14 171l-3 1q-28 -33 -68 -68t-89 -63.5 t-104.5 -46.5t-114.5 -18q-47 0 -94.5 12t-85.5 40t-62 73.5t-24 111.5q0 39 8 82.5t16 78.5l124 526h246zM761 1088h-129l-199 219l11 58h252z" horiz-adv-x="1139" glyph-name="ugrave"/>
<glyph unicode="ú" d="M474 900l-119 -509q-5 -24 -10.5 -47t-5.5 -51q0 -44 24 -67.5t89 -23.5q39 0 79.5 14t77 36t65.5 48.5t46 51.5l121 548h246l-121 -540q-7 -30 -13 -69t-10.5 -81t-7 -82.5t-2.5 -72.5q0 -14 0.5 -24.5t2.5 -30.5h-197l-14 171l-3 1q-28 -33 -68 -68t-89 -63.5 t-104.5 -46.5t-114.5 -18q-47 0 -94.5 12t-85.5 40t-62 73.5t-24 111.5q0 39 8 82.5t16 78.5l124 526h246zM753 1365h256l-12 -54l-272 -223h-142z" horiz-adv-x="1139" glyph-name="uacute"/>
<glyph unicode="û" d="M474 900l-119 -509q-5 -24 -10.5 -47t-5.5 -51q0 -44 24 -67.5t89 -23.5q39 0 79.5 14t77 36t65.5 48.5t46 51.5l121 548h246l-121 -540q-7 -30 -13 -69t-10.5 -81t-7 -82.5t-2.5 -72.5q0 -14 0.5 -24.5t2.5 -30.5h-197l-14 171l-3 1q-28 -33 -68 -68t-89 -63.5 t-104.5 -46.5t-114.5 -18q-47 0 -94.5 12t-85.5 40t-62 73.5t-24 111.5q0 39 8 82.5t16 78.5l124 526h246zM666 1386h168l137 -327h-197l-49 119l-8 88l-55 -88l-117 -119h-199z" horiz-adv-x="1139" glyph-name="ucircumflex"/>
<glyph unicode="ü" d="M474 900l-119 -509q-5 -24 -10.5 -47t-5.5 -51q0 -44 24 -67.5t89 -23.5q39 0 79.5 14t77 36t65.5 48.5t46 51.5l121 548h246l-121 -540q-7 -30 -13 -69t-10.5 -81t-7 -82.5t-2.5 -72.5q0 -14 0.5 -24.5t2.5 -30.5h-197l-14 171l-3 1q-28 -33 -68 -68t-89 -63.5 t-104.5 -46.5t-114.5 -18q-47 0 -94.5 12t-85.5 40t-62 73.5t-24 111.5q0 39 8 82.5t16 78.5l124 526h246zM353 1220q0 60 37.5 93.5t97.5 33.5q59 0 97 -33.5t38 -93.5q0 -58 -38 -90t-97 -32q-60 0 -97.5 32t-37.5 90zM779 1222q0 58 37.5 91.5t97.5 33.5q59 0 97 -33.5 t38 -91.5t-38 -91t-97 -33q-60 0 -97.5 33t-37.5 91z" horiz-adv-x="1139" glyph-name="udieresis"/>
<glyph unicode="ý" d="M429 412l4 -137h9l45 134l245 491h269l-456 -805q-55 -93 -109.5 -178t-110 -150t-114 -104t-120.5 -39q-43 0 -75.5 7t-60.5 24l70 193q8 -5 20.5 -5.5t26.5 -0.5q25 0 47 7.5t45 27t49 53.5t60 88l-194 882h277zM618 1365h256l-12 -54l-272 -223h-142z" horiz-adv-x="909" glyph-name="yacute"/>
<glyph unicode="þ" d="M329 1259h252l-124 -473h8q10 14 33.5 37.5t58.5 46t82.5 39t106.5 16.5q52 0 96 -15.5t75 -47.5t48.5 -81.5t17.5 -116.5q0 -149 -42.5 -275t-116.5 -218t-173 -144t-213 -52q-54 0 -96.5 9t-65.5 23l-88 -367h-250zM317 186q9 -8 32.5 -17t55.5 -9q67 0 122.5 30.5 t98.5 102.5q19 32 35.5 72.5t28.5 84.5t18.5 88.5t6.5 84.5q0 51 -22 83.5t-70 32.5q-37 0 -68.5 -13.5t-57.5 -34.5t-45.5 -47t-32.5 -50z" glyph-name="thorn"/>
<glyph unicode="ı" d="M269 899h252l-217 -899h-252z" horiz-adv-x="569" glyph-name="dotlessi"/>
<glyph unicode="ˆ" d="M471 1386h168l137 -327h-197l-49 119l-8 88l-55 -88l-117 -119h-199z" horiz-adv-x="682" glyph-name="circumflex"/>
<glyph unicode="˚" d="M336 1213q0 37 15 69t43.5 55t71 36t98.5 13q105 0 166 -44t61 -129q0 -35 -15.5 -65.5t-45 -53.5t-71.5 -36t-95 -13q-109 0 -168.5 45.5t-59.5 122.5zM484 1213q0 -28 24 -43.5t56 -15.5q35 0 57.5 15t22.5 44q0 32 -24 47t-56 15t-56 -15t-24 -47z" horiz-adv-x="682" glyph-name="ring"/>
<glyph unicode="˜" d="M182 1224q72 65 126.5 90.5t98.5 25.5q37 0 69 -12.5t63 -27t63 -27t69 -12.5q29 0 63 11t74 38l9 -126q-65 -59 -116.5 -81t-94.5 -22q-38 0 -71 12t-64.5 26t-64.5 26t-71 12q-31 0 -67 -11t-78 -40z" horiz-adv-x="682" glyph-name="tilde"/>
<glyph unicode="˝" d="M410 1319h230l-6 -29l-195 -204h-152zM756 1319h246l-6 -29l-279 -204h-159z" horiz-adv-x="682" glyph-name="hungarumlaut"/>
<glyph unicode="Ё" d="M392 1356h1013l-49 -252h-726l-58 -295h661l-49 -251h-661l-59 -306h735l-49 -252h-1022zM552 1585q0 53 38 84.5t123 31.5q81 0 119 -31.5t38 -84.5q0 -50 -38 -80t-119 -30q-85 0 -123 30t-38 80zM1003 1585q0 53 38 84.5t119 31.5q85 0 123 -31.5t38 -84.5 q0 -50 -38 -80t-123 -30q-81 0 -119 30t-38 80z" horiz-adv-x="1366" glyph-name="afii10023"/>
<glyph unicode="Ђ" d="M647 0h-287l215 1104h-415l49 252h1126l-49 -252h-424l-50 -256q18 5 48 12t68 13.5t82 11t90 4.5q94 0 182.5 -19.5t155.5 -71.5q63 -49 103 -130t40 -183q0 -122 -43 -215.5t-119 -156.5q-78 -65 -188.5 -95.5t-265.5 -30.5q-28 0 -56 0.5t-51 1.5t-40.5 2t-24.5 3 l48 248q57 -3 85.5 -3.5t45.5 -0.5q60 0 114 10.5t94.5 35.5t64 66.5t23.5 104.5q0 53 -24 88t-62.5 56t-85.5 29.5t-92 8.5t-109.5 -7.5t-130.5 -27.5z" horiz-adv-x="1675" glyph-name="afii10051"/>
<glyph unicode="Ѓ" d="M1308 1104h-706l-215 -1104h-287l264 1356h993zM1026 1715h333l-12 -60l-370 -169h-217z" horiz-adv-x="1237" glyph-name="afii10052"/>
<glyph unicode="Є" d="M1217 808l-44 -227h-723q1 -97 31.5 -165t84 -110.5t126.5 -61.5t160 -19q48 0 98 7t97 19t88 26.5t71 29.5l21 -239q-56 -27 -118.5 -45t-126 -29.5t-125.5 -16t-117 -4.5q-114 0 -222 32.5t-191.5 101t-134 176t-50.5 257.5q0 126 31 237t87.5 204.5t135.5 168 t175.5 126t207.5 79t232 27.5q63 0 124.5 -6t118 -16.5t105 -25t86.5 -30.5l-103 -240q-72 29 -162 48t-196 19q-74 0 -144 -18t-133 -56.5t-116.5 -100t-92.5 -148.5h719z" horiz-adv-x="1346" glyph-name="afii10053"/>
<glyph unicode="Ѕ" d="M765 374q0 41 -24.5 72t-64 57t-90.5 50t-103.5 50.5t-103.5 58.5t-90.5 74.5t-64 98t-24.5 129.5q0 96 39.5 173.5t112.5 132t175.5 83.5t228.5 29q122 0 229.5 -28t200.5 -83l-131 -230q-21 14 -54 30.5t-75 30.5t-92.5 23.5t-105.5 9.5q-109 0 -170 -39.5t-61 -107.5 q0 -35 24.5 -62.5t64 -52t90.5 -49t104 -52.5t104 -62t90.5 -78t64 -100t24.5 -129q0 -99 -40.5 -178.5t-115 -135.5t-180.5 -86t-237 -30q-98 0 -175.5 14t-136.5 35t-100 44t-66 41l136 224q19 -19 52.5 -39t79.5 -36t103.5 -26t124.5 -10q59 0 106.5 10.5t81 30.5 t51.5 48.5t18 64.5z" horiz-adv-x="1139" glyph-name="afii10054"/>
<glyph unicode="І" d="M441 1356h283l-261 -1356h-283z" horiz-adv-x="797" glyph-name="afii10055"/>
<glyph unicode="Ї" d="M441 1356h283l-261 -1356h-283zM220 1585q0 53 38 84.5t123 31.5q81 0 119 -31.5t38 -84.5q0 -50 -38 -80t-119 -30q-85 0 -123 30t-38 80zM671 1585q0 53 38 84.5t119 31.5q85 0 123 -31.5t38 -84.5q0 -50 -38 -80t-123 -30q-81 0 -119 30t-38 80z" horiz-adv-x="797" glyph-name="afii10056"/>
<glyph unicode="Ј" d="M727 1356h286l-188 -968q-20 -99 -59 -176.5t-100.5 -130t-147 -80t-198.5 -27.5q-38 0 -76.5 3.5t-78 14t-80 30t-81.5 50.5l128 222q36 -29 86.5 -48t103.5 -19q55 0 93.5 15t64.5 42t42 65t25 83z" glyph-name="afii10057"/>
<glyph unicode="Љ" d="M1016 1104h-260q-45 -185 -81.5 -332.5t-74.5 -265.5t-82.5 -209.5t-106.5 -163.5q-40 -44 -82 -73t-83.5 -45.5t-80 -23t-71.5 -6.5q-37 0 -69 7t-65 23l79 240q11 -3 22 -5t24 -2q33 0 65 14.5t64 51.5q78 83 155 339.5t166 702.5h817l-94 -482q20 4 61 9.5t87 5.5 q83 0 159 -20t131 -64q60 -47 97 -121t37 -180q0 -119 -49.5 -217t-130.5 -163q-49 -39 -106.5 -66t-119.5 -44.5t-126.5 -25t-126.5 -7.5q-28 0 -73.5 1.5t-97.5 5t-104 10t-92 15.5zM1135 242q22 -4 44.5 -6.5t64.5 -2.5q60 0 110.5 15.5t86.5 46t56.5 75t20.5 102.5 q0 47 -14.5 79t-40.5 51t-62 27t-78 8q-45 0 -71 -6t-43 -10z" horiz-adv-x="1860" glyph-name="afii10058"/>
<glyph unicode="Њ" d="M1000 582h-492l-113 -582h-287l264 1356h287l-102 -521h492l102 521h287l-98 -504q11 2 34 4.5t51.5 5t59 4.5t56.5 2q92 0 170.5 -20t135.5 -61.5t89.5 -105t32.5 -150.5q0 -126 -43 -227.5t-128.5 -173t-213 -110.5t-296.5 -39q-30 0 -78 1.5t-103.5 4.5t-113 7.5 t-105.5 11.5zM1221 242q23 -4 59.5 -6.5t79.5 -2.5q46 0 98 10t96 36t73 71t29 114q0 83 -55.5 117.5t-165.5 34.5q-15 0 -36 -2t-42.5 -4.5t-39.5 -5.5t-27 -5z" horiz-adv-x="1999" glyph-name="afii10059"/>
<glyph unicode="Ћ" d="M647 0h-287l215 1104h-415l49 252h1126l-49 -252h-424l-64 -328q30 16 71.5 30.5t92.5 25.5t109 17.5t121 6.5q75 0 137.5 -15.5t107.5 -49t70.5 -85t25.5 -123.5q0 -15 -2.5 -36.5t-6 -45.5t-8 -48.5t-8.5 -44.5l-80 -408h-286l67 345q2 11 5 28t5.5 35t4.5 34t2 25 q-1 73 -44 111t-134 38q-41 0 -83 -4.5t-81 -12.5t-73 -20.5t-57 -28.5z" horiz-adv-x="1661" glyph-name="afii10060"/>
<glyph unicode="Ќ" d="M653 573h-156l-111 -573h-286l264 1356h286l-116 -597l121 30l512 567h379l-558 -589l-103 -76l78 -76l366 -615h-346zM1015 1715h333l-12 -60l-370 -169h-217z" horiz-adv-x="1389" glyph-name="afii10061"/>
<glyph unicode="Ў" d="M730 785l44 -139h12l90 147l400 563h317l-596 -825q-70 -97 -127.5 -175t-108.5 -138.5t-97 -104t-93.5 -71.5t-98 -41.5t-110.5 -13.5t-111 19.5t-87 49.5l109 216q31 -15 60.5 -24.5t62.5 -9.5q51 0 103.5 37t94.5 107l-384 974h318zM775 1748q13 -58 46 -84.5 t99 -26.5q70 0 119.5 27t68.5 82l237 -33q-56 -125 -161.5 -186t-278.5 -61q-171 0 -264 58.5t-105 182.5z" horiz-adv-x="1425" glyph-name="afii10062"/>
<glyph unicode="Џ" d="M661 1356l-215 -1104h640l215 1104h286l-264 -1356h-477l-97 -337h-183l22 337h-478l264 1356h287z" horiz-adv-x="1593" glyph-name="afii10145"/>
<glyph unicode="А" d="M959 288h-548l-172 -288h-299l838 1365h211l327 -1365h-292zM546 515h362l-63 283l-27 175h-8l-96 -177z" horiz-adv-x="1366" glyph-name="afii10017"/>
<glyph unicode="Б" d="M361 1356h928l-49 -252h-641l-51 -261q19 3 46 5.5t56 4.5t59 3.5t55 1.5q104 0 190 -20t147.5 -62.5t95 -109.5t33.5 -160q0 -135 -50 -234t-141 -163.5t-217 -96t-278 -31.5q-36 0 -93.5 1.5t-120.5 5.5t-124.5 10t-105.5 15zM602 213q60 0 117.5 13t102.5 42.5t72 76 t27 113.5q0 50 -20 82.5t-55.5 51.5t-82.5 26.5t-101 7.5q-19 0 -41 -1.5t-44 -3.5t-41.5 -4.5t-32.5 -4.5l-75 -389q12 -2 32 -4t44 -3.5t49.5 -2t48.5 -0.5z" horiz-adv-x="1301" glyph-name="afii10018"/>
<glyph unicode="В" d="M1331 1076q0 -49 -19 -104t-59 -104.5t-103 -88t-151 -53.5l-2 -11q54 -5 99 -22.5t78.5 -48t53 -73.5t21.5 -100q3 -99 -36 -188t-124.5 -156t-219 -106.5t-318.5 -39.5h-96.5t-115.5 2.5t-121 8.5t-113 17l260 1337q42 6 99 11.5t119 9t125.5 6t117.5 2.5 q99 0 190 -12.5t161 -46t112 -91.5t42 -149zM636 213q71 0 128.5 15.5t98 44t62.5 68.5t22 88q0 50 -24 79.5t-62.5 44.5t-87 19.5t-97.5 4.5h-185l-68 -352q9 -5 35.5 -7t58.5 -3.5t65 -1.5h54zM656 791h33t36.5 0.5t36 1.5t31.5 3q48 9 90 25.5t74 40.5t50.5 55.5 t18.5 70.5q0 50 -20.5 80.5t-53.5 47t-74.5 21.5t-84.5 5q-27 0 -55.5 -0.5t-54.5 -1t-47.5 -2t-35.5 -3.5l-67 -344h123z" horiz-adv-x="1366" glyph-name="afii10019"/>
<glyph unicode="Г" d="M1308 1104h-706l-215 -1104h-287l264 1356h993z" horiz-adv-x="1237" glyph-name="afii10020"/>
<glyph unicode="Д" d="M1258 -240h-203l15 240h-875l-78 -240h-203l96 492h137q12 14 37.5 50.5t59 98.5t72 151t77.5 207t76.5 266.5t67.5 330.5h856l-214 -1104h175zM891 252l165 852h-305q-21 -95 -50.5 -207t-68.5 -226.5t-88 -223t-109 -195.5h456z" horiz-adv-x="1399" glyph-name="afii10021"/>
<glyph unicode="Е" d="M392 1356h1013l-49 -252h-726l-58 -295h661l-49 -251h-661l-59 -306h735l-49 -252h-1022z" horiz-adv-x="1366" glyph-name="afii10022"/>
<glyph unicode="Ж" d="M1001 1356h272l-117 -599l99 27l457 572h338l-506 -612l-64 -68l56 -83l309 -593h-327l-296 582h-100l-113 -582h-272l118 606l-94 -27l-493 -579h-346l542 619l80 78l-47 72l-288 587h326l253 -576h101z" horiz-adv-x="1880" glyph-name="afii10024"/>
<glyph unicode="З" d="M297 595l42 218h86q163 0 252 43t89 138q0 30 -9 56.5t-30.5 45.5t-57 30t-88.5 11q-46 0 -85 -5.5t-72.5 -14.5t-62 -20.5t-54.5 -22.5l-69 218q23 10 68 25t103.5 28.5t126 23.5t135.5 10q79 0 152.5 -14t129.5 -49t89.5 -96.5t33.5 -155.5q0 -56 -18.5 -109t-55 -97.5 t-91 -78t-126.5 -49.5l-2 -11q45 -8 84 -30t67 -57t44 -83t16 -106q0 -116 -46 -204t-126.5 -147t-188.5 -89t-232 -30q-84 0 -148 11.5t-111.5 27t-79 32t-49.5 25.5l107 231q33 -17 65.5 -31t68.5 -23.5t75.5 -15t86.5 -5.5q49 0 100 11t92 36.5t67 66.5t26 101 q0 24 -6 45.5t-21 39t-40 31t-64 21.5q-63 13 -121.5 15.5t-121.5 2.5h-30z" horiz-adv-x="1042" glyph-name="afii10025"/>
<glyph unicode="И" d="M1180 707l49 184h-7l-174 -183l-726 -708h-212l264 1356h286l-140 -719l-51 -171h10l138 167l754 723h216l-264 -1356h-288z" horiz-adv-x="1593" glyph-name="afii10026"/>
<glyph unicode="Й" d="M1180 707l49 184h-7l-174 -183l-726 -708h-212l264 1356h286l-140 -719l-51 -171h10l138 167l754 723h216l-264 -1356h-288zM894 1748q13 -58 46 -84.5t99 -26.5q70 0 119.5 27t68.5 82l237 -33q-56 -125 -161.5 -186t-278.5 -61q-171 0 -264 58.5t-105 182.5z" horiz-adv-x="1593" glyph-name="afii10027"/>
<glyph unicode="К" d="M638 573h-141l-111 -573h-286l264 1356h286l-116 -597l119 30l547 567h359l-583 -595l-95 -74l70 -78l388 -609h-342z" horiz-adv-x="1389" glyph-name="afii10028"/>
<glyph unicode="Л" d="M1087 1104h-316q-41 -159 -79.5 -304.5t-81 -270t-92 -225t-112.5 -171.5q-40 -45 -81.5 -74t-81.5 -45.5t-78 -22.5t-71 -6q-40 0 -72.5 7.5t-61.5 22.5l78 240q20 -7 48 -7q29 0 59.5 13.5t62.5 48.5q39 43 79.5 124.5t83 208t87 303t91.5 410.5h873l-264 -1356h-286z " horiz-adv-x="1405" glyph-name="afii10029"/>
<glyph unicode="М" d="M1425 690l58 231h-7l-118 -153l-449 -526h-89l-244 528l-54 149h-6l-25 -227l-135 -692h-271l264 1356h245l290 -626l51 -119h9l89 123l536 622h273l-264 -1356h-287z" horiz-adv-x="1821" glyph-name="afii10030"/>
<glyph unicode="Н" d="M1145 560h-650l-109 -560h-286l264 1356h286l-106 -545h650l106 545h287l-264 -1356h-287z" horiz-adv-x="1593" glyph-name="afii10031"/>
<glyph unicode="О" d="M118 516q-2 106 19 211.5t65 201.5t110.5 178.5t154 143.5t195.5 95.5t237 35.5q135 0 239.5 -40.5t176 -114t108 -176.5t36.5 -228q0 -182 -54 -337.5t-152.5 -269.5t-235.5 -179t-303 -65q-135 0 -244 37t-186 107.5t-120 171t-46 228.5zM852 1131q-73 0 -133.5 -25 t-108.5 -67.5t-83.5 -100t-58.5 -122.5t-34 -134.5t-9 -136.5q2 -70 23 -129t59 -102t92 -67t122 -24q99 0 178 47.5t135 126.5t86 181t30 211q0 73 -18 135.5t-55 108.5t-93 72t-132 26z" horiz-adv-x="1479" glyph-name="afii10032"/>
<glyph unicode="П" d="M1244 1104h-632l-215 -1104h-287l264 1356h1205l-264 -1356h-286z" horiz-adv-x="1593" glyph-name="afii10033"/>
<glyph unicode="Р" d="M368 1342q91 16 195 24.5t210 8.5q99 0 191 -18t162.5 -61t113 -114t42.5 -177q0 -98 -24.5 -177t-69 -141t-106.5 -107t-136 -74t-157.5 -43t-171.5 -14q-10 0 -28 0.5t-38 1.5t-38.5 2.5t-29.5 3.5l-89 -457h-287zM742 1123q-42 0 -74.5 -2.5t-56.5 -6.5l-79 -403 q7 -2 22.5 -4t32.5 -3.5t32.5 -2t24.5 -0.5q65 0 124 11.5t104 41t71.5 79t26.5 125.5q0 46 -17.5 78t-48 51t-72 27.5t-90.5 8.5z" horiz-adv-x="1251" glyph-name="afii10034"/>
<glyph unicode="С" d="M1251 99q-56 -34 -119.5 -58t-127 -39t-125 -22t-114.5 -7q-147 0 -264 38.5t-198.5 113t-124.5 183.5t-43 250q0 84 17 164t48 153.5t75 139t98 120.5q115 117 271.5 182t362.5 65q127 0 239.5 -31.5t204.5 -90.5l-126 -232q-85 50 -171 76.5t-185 26.5 q-140 0 -239.5 -50.5t-167.5 -141.5q-22 -30 -43 -68.5t-37.5 -83t-26.5 -93.5t-10 -98q0 -183 96.5 -277t279.5 -94q48 0 96.5 8t95 22t90 33t79.5 40z" horiz-adv-x="1366" glyph-name="afii10035"/>
<glyph unicode="Т" d="M1338 1104h-446l-215 -1104h-287l215 1104h-445l49 252h1178z" horiz-adv-x="1251" glyph-name="afii10036"/>
<glyph unicode="У" d="M730 785l44 -139h12l90 147l400 563h317l-596 -825q-70 -97 -127.5 -175t-108.5 -138.5t-97 -104t-93.5 -71.5t-98 -41.5t-110.5 -13.5t-111 19.5t-87 49.5l109 216q31 -15 60.5 -24.5t62.5 -9.5q51 0 103.5 37t94.5 107l-384 974h318z" horiz-adv-x="1425" glyph-name="afii10037"/>
<glyph unicode="Ф" d="M677 148q-20 -3 -36.5 -5t-31.5 -3.5t-31.5 -2t-36.5 -0.5q-82 0 -157 26t-132 78.5t-91 130.5t-34 183q0 154 48.5 280t133 216t200 139.5t250.5 49.5q32 0 64.5 -2.5t64.5 -8.5l32 166h285l-33 -171q41 7 73 11.5t76 4.5q94 0 169 -30t127 -85.5t79.5 -133.5t27.5 -173 q0 -107 -23.5 -199.5t-65.5 -168t-100.5 -134t-127.5 -98.5t-146.5 -60.5t-158.5 -20.5q-35 0 -74 3.5t-65 10.5l-37 -190h-285zM1222 1013q-29 0 -52 -2t-52 -8l-124 -635q17 -4 40 -4h49q69 0 131.5 26.5t110 78.5t75 129.5t27.5 178.5q0 49 -10.5 92t-35 75t-63.5 50.5 t-96 18.5zM627 364q17 0 48.5 2t58.5 8l123 633q-22 3 -49 4.5t-55 1.5q-67 0 -127 -25.5t-105 -76.5t-71.5 -128.5t-26.5 -181.5q0 -51 11.5 -94.5t36 -75t63 -49.5t93.5 -18z" horiz-adv-x="1741" glyph-name="afii10038"/>
<glyph unicode="Х" d="M553 689l-321 667h319l184 -386l43 -103l84 103l333 386h331l-593 -650l361 -706h-316l-210 417l-49 100l-88 -100l-362 -417h-334z" horiz-adv-x="1366" glyph-name="afii10039"/>
<glyph unicode="Ц" d="M1416 -240h-204l16 240h-1108l264 1356h286l-215 -1104h582l215 1104h286l-215 -1104h189z" horiz-adv-x="1593" glyph-name="afii10040"/>
<glyph unicode="Ч" d="M637 1356l-81 -419q-4 -21 -6.5 -39.5t-2.5 -35.5q-1 -82 46 -120t152 -38q47 0 96 6.5t95.5 18t88 26.5t74.5 32l112 569h287l-264 -1356h-287l105 542q-39 -16 -88 -30t-104 -24.5t-111.5 -16.5t-110.5 -6q-88 0 -160 18t-123.5 54t-80 89.5t-29.5 124.5q0 22 5.5 70.5 t18.5 115.5l82 419h286z" horiz-adv-x="1532" glyph-name="afii10041"/>
<glyph unicode="Ш" d="M163 0l264 1356h286l-215 -1104h475l215 1104h287l-215 -1104h475l215 1104h286l-264 -1356h-1809z" horiz-adv-x="2306" glyph-name="afii10042"/>
<glyph unicode="Щ" d="M163 0l264 1356h286l-215 -1104h470l215 1104h287l-215 -1104h470l215 1104h286l-215 -1104h198l-96 -492h-203l15 240h-1762z" horiz-adv-x="2306" glyph-name="afii10043"/>
<glyph unicode="Ъ" d="M526 1104h-346l49 252h633l-94 -482q10 2 33.5 4.5t51.5 5t58 4t54 1.5q91 1 179.5 -16t158.5 -59t113 -114.5t43 -182.5q0 -143 -56 -245t-152 -166.5t-225 -94.5t-274 -30q-28 0 -82 1t-117 4.5t-127 10t-112 16.5zM816 233q66 0 126.5 14t106.5 44t73.5 75.5 t27.5 108.5q0 50 -21.5 81.5t-57 49.5t-81.5 24.5t-96 6.5q-15 0 -41.5 -1.5t-53.5 -4t-49.5 -5.5t-30.5 -5l-74 -379q11 -2 31 -3.5t44 -3t49.5 -2t46.5 -0.5z" horiz-adv-x="1557" glyph-name="afii10044"/>
<glyph unicode="Ы" d="M1662 1356h286l-264 -1356h-286zM385 1356h287l-94 -482q11 2 34 4.5t51.5 5t58.5 4t54 1.5q125 1 218 -27t154.5 -78t92 -118.5t30.5 -148.5q0 -119 -46.5 -218t-133.5 -169.5t-212 -109.5t-282 -39q-41 0 -102 1t-127 4.5t-131 10t-113 16.5zM627 233q66 0 126 12.5 t106.5 40.5t74 74t27.5 112q0 48 -21 80t-56.5 50.5t-82 26.5t-96.5 8q-15 0 -41.5 -1.5t-54 -4t-50 -5.5t-30.5 -5l-73 -379q11 -2 31 -3.5t44 -3t49.5 -2t46.5 -0.5z" horiz-adv-x="1985" glyph-name="afii10045"/>
<glyph unicode="Ь" d="M371 1356h287l-94 -482q11 2 34 4.5t51.5 5t58.5 4t54 1.5q61 1 121 -6.5t115 -24t102.5 -44.5t82 -69.5t54.5 -98t20 -129.5q0 -124 -48 -223.5t-142 -169t-232 -106.5t-318 -37q-41 0 -91.5 1.5t-104.5 5t-108.5 9.5t-102.5 16zM603 233q66 0 128 12.5t110 41t77 74.5 t29 112q0 51 -22.5 83t-60 50t-85.5 24.5t-98 6.5q-15 0 -40 -1.5t-50.5 -4t-46.5 -5.5t-29 -5l-73 -379q11 -2 29.5 -3.5t40.5 -3t46 -2t45 -0.5z" horiz-adv-x="1298" glyph-name="afii10046"/>
<glyph unicode="Э" d="M364 802h660q3 72 -16 132t-63.5 104t-116 68.5t-173.5 24.5t-196 -19t-191 -66l-64 233q61 26 125.5 45.5t127 32t120 19t105.5 6.5q139 0 254.5 -33t198.5 -103t128.5 -178.5t45.5 -259.5q0 -206 -66 -362.5t-181 -261.5t-269 -158t-331 -53q-75 0 -144 8t-128 22 t-107 33t-82 41l120 232q40 -22 80 -37.5t83 -26t90.5 -15.5t101.5 -5q81 0 161 19t148.5 61t120 108.5t76.5 161.5h-662z" horiz-adv-x="1333" glyph-name="afii10047"/>
<glyph unicode="Ю" d="M759 516q-1 11 -0.5 22t0.5 22h-263l-109 -560h-287l264 1356h287l-106 -545h254q35 117 101 220.5t161.5 181t218 123t270.5 46.5q135 0 240 -40.5t177 -114t109 -176.5t37 -228q0 -182 -54.5 -337.5t-153.5 -269.5t-236.5 -179t-303.5 -65q-135 0 -245.5 37 t-189.5 107.5t-123.5 171t-47.5 228.5zM1503 1131q-73 0 -134 -25t-110.5 -67.5t-86 -100t-61 -122.5t-36 -134.5t-9.5 -136.5q2 -70 24.5 -129t62.5 -102t95.5 -67t123.5 -24q99 0 178.5 47.5t136 126.5t87 181t30.5 211q0 73 -18.5 135.5t-56 108.5t-94 72t-132.5 26z" horiz-adv-x="2163" glyph-name="afii10048"/>
<glyph unicode="Я" d="M1169 0h-286l95 530l-213 -36l-456 -494h-353l423 443l113 101q-36 9 -76.5 32t-74.5 61.5t-56.5 92t-22.5 124.5q0 116 46.5 212t136 164.5t219 106.5t295.5 38q48 0 111 -1t128 -5t126 -10.5t106 -16.5zM898 1123q-54 0 -111.5 -10.5t-105.5 -36.5t-79 -71.5 t-31 -114.5q0 -54 23.5 -88t61 -53t84 -25.5t93.5 -6.5h189l78 399q-12 2 -37.5 3.5t-55.5 2l-60 1t-49 0.5z" horiz-adv-x="1411" glyph-name="afii10049"/>
<glyph unicode="а" d="M863 359q-14 -60 -19 -122.5t-5 -117.5q0 -35 2.5 -68t4.5 -53h-181l-32 150h-8q-22 -30 -54.5 -60.5t-72 -55.5t-84.5 -40.5t-93 -15.5q-66 0 -116.5 21.5t-85 60.5t-52 95t-17.5 125q0 77 16.5 155.5t50.5 150t85 134t119.5 108.5t154.5 72.5t190 26.5q69 0 152.5 -12 t162.5 -30zM411 184q36 0 66.5 12.5t54.5 31.5t43 41.5t33 41.5l90 390q-23 8 -50 11.5t-55 3.5q-71 0 -125 -34.5t-91.5 -88.5t-56.5 -120.5t-19 -130.5q0 -74 26.5 -116t83.5 -42z" glyph-name="afii10065"/>
<glyph unicode="б" d="M348 712q72 95 155.5 145.5t188.5 50.5q71 0 123 -24.5t86.5 -67t51 -99.5t16.5 -122q0 -140 -42 -254t-114 -195t-168.5 -125.5t-205.5 -44.5q-90 0 -156 28t-109.5 79t-64.5 121.5t-21 155.5q0 213 50.5 389t134 305t192 205.5t225.5 90.5q39 5 95.5 7.5t115.5 8 t113 15.5t88 30l-24 -226q-39 -23 -119 -36t-211 -23q-62 -5 -121 -28.5t-111.5 -72t-96.5 -125t-75 -188.5h4zM340 341q0 -32 8.5 -60t24 -50t38 -34.5t51.5 -12.5q67 0 113.5 35.5t79.5 89.5q29 47 46 110t17 130q0 24 -4 50.5t-16.5 48.5t-35.5 36.5t-62 14.5 q-53 0 -100 -29.5t-82.5 -79t-56.5 -114.5t-21 -135z" horiz-adv-x="1022" glyph-name="afii10066"/>
<glyph unicode="в" d="M27 284q0 129 35.5 244t104 200.5t169 135.5t230.5 50q88 0 148.5 -13t97 -38.5t52.5 -62.5t16 -85q0 -39 -13.5 -75t-38 -66.5t-58 -54.5t-72.5 -40q62 -15 96 -53t34 -110q0 -78 -35 -139.5t-97 -103.5t-146.5 -64.5t-182.5 -22.5q-72 0 -134.5 16.5t-108 52.5 t-71.5 92.5t-26 136.5zM271 367q-8 -26 -10 -43t-2 -29q0 -52 37.5 -79t106.5 -27q37 0 70 8t57.5 23t38.5 37t14 50q0 30 -28.5 50t-101.5 20q-27 0 -53.5 -1.5t-51 -3t-44.5 -3t-33 -2.5zM302 531q78 1 139 12.5t103 29t64 38t22 40.5q0 14 -3.5 25t-14 19t-30.5 12t-53 4 q-83 0 -141 -42t-86 -138z" horiz-adv-x="915" glyph-name="afii10067"/>
<glyph unicode="г" d="M648 86q-33 -23 -74 -43t-85 -35t-89.5 -23.5t-85.5 -8.5q-91 0 -152.5 22t-99 58t-53.5 82.5t-16 95.5q0 73 28 122t72.5 82t99.5 54.5t110 38.5q75 23 123 53.5t48 71.5q0 26 -16 38.5t-44 12.5q-33 0 -66 -6t-63 -16t-57 -22.5t-49 -25.5l-54 193q38 22 83 38t90 26.5 t86.5 16t73.5 5.5q67 0 117.5 -17t83.5 -46.5t49.5 -70t16.5 -86.5q0 -76 -28 -129.5t-72 -91t-99 -62t-109 -41.5q-38 -12 -69.5 -24.5t-54.5 -27t-36 -32.5t-13 -41q0 -11 3.5 -22t13 -20t26.5 -15t44 -6q40 0 74 7.5t61.5 18.5t50.5 23.5t43 23.5z" horiz-adv-x="756" glyph-name="afii10068"/>
<glyph unicode="д" d="M553 900q53 0 90 -8.5t62 -22.5h8q-9 69 -36.5 129t-73.5 104.5t-110 70t-147 24.5l45 188q148 3 256 -48.5t178.5 -142t104.5 -211.5t34 -256q0 -189 -46.5 -330t-123 -234.5t-175.5 -140t-205 -46.5q-91 0 -158.5 25t-111.5 71.5t-66 114t-22 151.5q0 111 36 212.5 t101 179t157 124t203 46.5zM437 184q48 0 87 21t69.5 56t53.5 82t37.5 99t22 106.5t7.5 104.5q-51 39 -149 39q-51 0 -97.5 -23.5t-82 -68.5t-57 -110t-21.5 -147q0 -32 8 -61t24 -50.5t40.5 -34.5t57.5 -13z" horiz-adv-x="1016" glyph-name="afii10069"/>
<glyph unicode="е" d="M773 99q-32 -23 -70.5 -45.5t-85 -39.5t-101 -27.5t-117.5 -10.5q-81 0 -148 23t-114 66.5t-73 106.5t-26 143q0 140 47 253t123.5 192.5t173.5 122t198 42.5q83 0 141 -18t94.5 -49.5t53 -73.5t16.5 -91q0 -77 -38 -136t-108.5 -99.5t-171 -61t-224.5 -20.5 q-14 0 -28.5 0.5t-31.5 1.5q-5 -11 -6 -25t-1 -25q0 -73 47.5 -108.5t133.5 -35.5q44 0 84 8t73.5 20t59 25.5t42.5 24.5zM548 722q-41 0 -75.5 -13.5t-63 -37.5t-50.5 -57t-37 -71q93 0 156 6t102 19.5t56 35t17 51.5q0 10 -3 22t-14 22t-31.5 16.5t-56.5 6.5z" horiz-adv-x="909" glyph-name="afii10070"/>
<glyph unicode="ж" d="M1322 546q30 99 69.5 167t86.5 110.5t101 61.5t113 19q49 0 88.5 -7.5t71 -20t55 -29.5t40.5 -36l-86 -171q-26 24 -56.5 38t-74.5 14q-40 0 -72 -17.5t-56.5 -46.5t-41.5 -67t-28 -78.5t-16 -81t-5 -74.5q0 -37 9.5 -61.5t25 -39t35.5 -20.5t42 -6q24 0 43 3.5 t34.5 10.5t29 16.5t27.5 20.5l80 -176q-51 -38 -115.5 -61t-158.5 -23q-144 0 -211 67.5t-67 214.5q0 18 2 43t4 43h-208l-82 -359h-236l81 359h-199q-30 -99 -71.5 -168.5t-91 -114t-105.5 -65t-114 -20.5q-99 0 -164.5 30t-100.5 73l92 186q22 -24 57.5 -43.5t85.5 -19.5 q60 0 102.5 35.5t68.5 88.5t38 114.5t12 112.5q0 74 -30 103.5t-75 29.5q-46 0 -78.5 -14t-61.5 -37l-71 170q25 19 52.5 34.5t62 26.5t78 17t102.5 6q121 0 184 -67.5t63 -214.5q0 -18 -1 -38t-3 -38h208l82 354h236l-81 -354h199z" horiz-adv-x="1950" glyph-name="afii10072"/>
<glyph unicode="з" d="M155 372l41 174h102q40 0 72.5 7t56 20t36.5 31t13 41q0 14 -4 27t-16.5 23.5t-36 17t-61.5 6.5q-68 0 -115.5 -17.5t-77.5 -32.5l-51 179q67 32 154 50t179 18q81 0 135.5 -15t88 -42t48 -65.5t14.5 -86.5q0 -40 -13 -74.5t-35.5 -63.5t-52.5 -51.5t-65 -37.5 q32 -12 54 -29.5t35.5 -40t19 -48t5.5 -53.5q0 -77 -34 -138t-94.5 -103t-145 -64.5t-184.5 -22.5q-94 0 -163 20.5t-119 55.5l89 183q37 -21 89 -37t127 -16q92 0 138.5 32.5t46.5 83.5q0 16 -8.5 28.5t-29.5 21.5t-58 14t-94 5h-86z" horiz-adv-x="799" glyph-name="afii10073"/>
<glyph unicode="и" d="M474 900l-119 -509q-5 -24 -10.5 -47t-5.5 -51q0 -44 24 -67.5t89 -23.5q39 0 79.5 14t77 36t65.5 48.5t46 51.5l121 548h246l-121 -540q-7 -30 -13 -69t-10.5 -81t-7 -82.5t-2.5 -72.5q0 -14 0.5 -24.5t2.5 -30.5h-197l-14 171l-3 1q-28 -33 -68 -68t-89 -63.5 t-104.5 -46.5t-114.5 -18q-47 0 -94.5 12t-85.5 40t-62 73.5t-24 111.5q0 39 8 82.5t16 78.5l124 526h246z" horiz-adv-x="1139" glyph-name="afii10074"/>
<glyph unicode="й" d="M474 900l-119 -509q-5 -24 -10.5 -47t-5.5 -51q0 -44 24 -67.5t89 -23.5q39 0 79.5 14t77 36t65.5 48.5t46 51.5l121 548h246l-121 -540q-7 -30 -13 -69t-10.5 -81t-7 -82.5t-2.5 -72.5q0 -14 0.5 -24.5t2.5 -30.5h-197l-14 171l-3 1q-28 -33 -68 -68t-89 -63.5 t-104.5 -46.5t-114.5 -18q-47 0 -94.5 12t-85.5 40t-62 73.5t-24 111.5q0 39 8 82.5t16 78.5l124 526h246zM570 1266q2 -59 32.5 -93.5t81.5 -34.5q27 0 53.5 7t50 22t43.5 39t35 58l180 -44q-26 -65 -66 -109.5t-90 -71.5t-108.5 -38.5t-120.5 -11.5q-60 0 -112.5 12.5 t-90.5 40.5t-59 72t-16 106z" horiz-adv-x="1139" glyph-name="afii10075"/>
<glyph unicode="к" d="M463 360h-100l-82 -360h-246l202 900h246l-85 -371l79 16l326 355h293l-382 -383l-63 -48l41 -57l240 -412h-275z" horiz-adv-x="1038" glyph-name="afii10076"/>
<glyph unicode="л" d="M719 692h-218q-45 -161 -84 -290.5t-85.5 -221.5t-108 -141.5t-151.5 -49.5q-106 0 -155 32l80 211q10 -3 25.5 -6t28.5 -2q25 1 46.5 15.5t42 46.5t40 83.5t42 126t48.5 174.5t59 230h682l-203 -900h-246z" horiz-adv-x="1051" glyph-name="afii10077"/>
<glyph unicode="м" d="M1020 418l53 182l-141 -148l-252 -245h-81l-147 249l-77 150l-24 -194l-90 -412h-222l202 900h215l239 -407h6l412 407h251l-202 -900h-236z" horiz-adv-x="1403" glyph-name="afii10078"/>
<glyph unicode="н" d="M727 339h-364l-79 -339h-246l202 900h246l-76 -325h364l76 325h248l-202 -900h-248z" horiz-adv-x="1137" glyph-name="afii10079"/>
<glyph unicode="о" d="M56 353q0 129 42.5 234.5t116.5 180.5t173.5 116t213.5 41q90 0 158.5 -31.5t114.5 -84.5t69 -122.5t23 -145.5q0 -117 -39 -219.5t-108 -179.5t-165 -121.5t-210 -44.5q-104 0 -178 32.5t-121 85.5t-68.5 120.5t-21.5 138.5zM308 352q0 -38 10.5 -69t29 -53t44.5 -34 t57 -12q55 0 103 30t84 81t57 119t21 145q0 34 -7 63t-23 50t-42 32.5t-63 11.5q-56 0 -105 -30t-86 -80t-58.5 -116t-21.5 -138z" glyph-name="afii10080"/>
<glyph unicode="п" d="M666 0l126 558q11 49 11 79q0 33 -33.5 51.5t-81.5 18.5q-38 0 -79.5 -15.5t-80.5 -39.5t-71.5 -54t-51.5 -60l-120 -538h-247l202 900h183l-8 -153h8q26 27 67.5 58t94 58t115 44.5t131.5 17.5q45 0 86.5 -11.5t73 -36t50.5 -64t19 -94.5q0 -26 -2.5 -56.5t-9.5 -61.5 l-136 -601h-246z" horiz-adv-x="1139" glyph-name="afii10081"/>
<glyph unicode="р" d="M225 900h178l-8 -153h8q28 32 62.5 63.5t75 57t88.5 41.5t104 16q52 0 97 -16.5t79 -50.5t53.5 -87.5t19.5 -126.5q0 -148 -42.5 -271t-116.5 -211t-173.5 -137t-213.5 -49q-50 0 -95.5 9.5t-68.5 23.5l-89 -376h-245zM312 210q43 -26 109 -26q68 0 125 34.5t98 93 t64 135.5t23 161q0 48 -24.5 78t-81.5 30q-43 0 -78.5 -14.5t-64 -38t-50.5 -51.5t-38 -55v4z" glyph-name="afii10082"/>
<glyph unicode="с" d="M809 637q-17 9 -40.5 21t-52 23t-62 18.5t-71.5 7.5q-53 0 -103 -26.5t-89 -72.5t-62.5 -106.5t-23.5 -127.5q0 -84 39 -132.5t133 -48.5q37 0 74.5 8t70.5 19.5t61 24t48 22.5l54 -173q-29 -23 -71 -44t-91.5 -37.5t-104 -26.5t-107.5 -10q-96 0 -165 27.5t-113.5 74 t-66 107.5t-21.5 127q0 146 47.5 260t125 192.5t175 119.5t198.5 41q46 0 92.5 -6t88.5 -18t78.5 -29t62.5 -39z" horiz-adv-x="909" glyph-name="afii10083"/>
<glyph unicode="т" d="M574 0l107 491q11 48 17.5 84.5t6.5 62.5q0 35 -16.5 52t-54.5 17q-36 0 -72.5 -15.5t-69 -38t-59 -49.5t-41.5 -49l-119 -555h-247l202 900h189l-9 -153h7v-4q31 35 69.5 68t85.5 58.5t101.5 40.5t117.5 15q78 0 119.5 -51t41.5 -138q29 40 69 74.5t87 60t98.5 40 t102.5 14.5q46 0 83.5 -9.5t63.5 -31.5t40.5 -58.5t14.5 -90.5q0 -45 -6.5 -94.5t-19.5 -107.5l-119 -533h-245l115 519q17 74 17 118q0 70 -85 70q-32 0 -67 -16t-66.5 -39.5t-56.5 -51t-38 -50.5l-120 -550h-244z" horiz-adv-x="1593" glyph-name="afii10084"/>
<glyph unicode="у" d="M429 412l4 -137h9l45 134l245 491h269l-456 -805q-55 -93 -109.5 -178t-110 -150t-114 -104t-120.5 -39q-43 0 -75.5 7t-60.5 24l70 193q8 -5 20.5 -5.5t26.5 -0.5q25 0 47 7.5t45 27t49 53.5t60 88l-194 882h277z" horiz-adv-x="909" glyph-name="afii10085"/>
<glyph unicode="ф" d="M504 -13q-15 -3 -34 -5.5t-37.5 -3.5t-35.5 -1.5t-28 -0.5q-77 0 -135 25.5t-96.5 70t-57.5 105t-19 131.5q0 155 43 270t115 190.5t165.5 112.5t195.5 37q12 0 30 -0.5t36.5 -1t35.5 -2t28 -3.5l108 466h240l-105 -467q16 2 35 3.5t38.5 2.5t37 1.5t29.5 0.5 q158 0 234.5 -86t76.5 -241q0 -162 -45 -278.5t-117.5 -191t-164.5 -110t-186 -35.5q-9 0 -28 0.5t-41 2t-42 4t-31 6.5l-84 -356h-242zM784 194q22 -11 44 -13t48 -2q54 0 104.5 24t90.5 72.5t64 121t24 170.5q0 31 -9.5 58t-29 47t-49.5 31.5t-72 11.5q-22 0 -49.5 -3 t-47.5 -8zM678 706q-17 5 -43.5 7t-48.5 2q-53 0 -103.5 -25.5t-89.5 -73t-62.5 -116t-23.5 -154.5q0 -35 9.5 -65.5t28 -53t45.5 -35.5t63 -13q62 0 106 10z" horiz-adv-x="1466" glyph-name="afii10086"/>
<glyph unicode="х" d="M346 465l-180 435h280l72 -192l29 -122l88 126l151 188h301l-376 -438l199 -462h-274l-92 215l-33 130l-92 -136l-172 -209h-302z" glyph-name="afii10087"/>
<glyph unicode="ц" d="M829 0q-72 1 -107.5 35.5t-35.5 97.5q0 6 0.5 12t0.5 12l-6 2q-22 -31 -63 -63.5t-92.5 -59t-111 -43.5t-118.5 -17q-47 0 -89 13.5t-74 41.5t-51 72t-19 104q0 28 4.5 66.5t12.5 73.5l151 553h246l-146 -534q-5 -24 -7.5 -45.5t-2.5 -36.5q0 -12 4 -26.5t14.5 -26.5 t28.5 -20.5t47 -8.5q34 0 75 14t80 36t71 48.5t49 51.5l141 548h245l-149 -576q-11 -49 -11 -76q0 -23 14 -32t51 -9h105l-123 -406h-191z" horiz-adv-x="1139" glyph-name="afii10088"/>
<glyph unicode="ч" d="M438 900l-60 -213q-10 -34 -18 -64.5t-8 -52.5q0 -21 5.5 -37.5t19 -27t37 -16t58.5 -5.5q29 0 60.5 4t61.5 10.5t57 15t47 18.5l92 368h246l-213 -900h-245l82 341q-18 -9 -51.5 -20.5t-75.5 -21.5t-88.5 -17t-89.5 -7q-52 0 -100 11t-84.5 36t-58 66t-21.5 101 q0 23 5.5 54.5t13.5 58.5l83 298h245z" horiz-adv-x="1075" glyph-name="afii10089"/>
<glyph unicode="ш" d="M1076 899l-117 -490q-11 -48 -17.5 -84.5t-6.5 -62.5q0 -35 23.5 -52t53.5 -17q48 0 91.5 15.5t79.5 38t63 49t42 49.5l119 554h247l-202 -899h-189l9 156l-7 1q-31 -35 -68.5 -68t-83.5 -58.5t-101 -40.5t-121 -15q-39 0 -75 13.5t-64 38t-45 59.5t-17 78 q-29 -40 -70.5 -74.5t-90.5 -60t-102 -40t-104 -14.5q-46 0 -88 9.5t-74 31.5t-51 58.5t-19 90.5q0 45 6.5 94.5t19.5 107.5l139 532h245l-135 -518q-17 -74 -17 -118q0 -34 19 -52t67 -18q43 0 85.5 16t78.5 39.5t63 51t40 50.5l130 549h244z" horiz-adv-x="1706" glyph-name="afii10090"/>
<glyph unicode="щ" d="M1481 270q-7 -32 5.5 -47.5t48.5 -15.5h107l-125 -406h-189l56 199q-72 1 -108 35.5t-36 97.5v12t1 12h-6q-31 -35 -68.5 -68t-83.5 -58.5t-101 -40.5t-121 -15q-39 0 -75 13.5t-64 38t-45 59.5t-17 78q-29 -40 -70.5 -74.5t-90.5 -60t-102 -40t-104 -14.5q-46 0 -88 9.5 t-74 31.5t-51 58.5t-19 90.5q0 45 6.5 94.5t19.5 107.5l139 532h245l-135 -518q-17 -74 -17 -118q0 -34 19 -52t67 -18q43 0 85.5 16t78.5 39.5t63 51t40 50.5l130 549h244l-117 -490q-11 -48 -17.5 -84.5t-6.5 -62.5q0 -35 23.5 -52t53.5 -17q48 0 91.5 15.5t79.5 38t63 49 t42 49.5l119 554h247z" horiz-adv-x="1706" glyph-name="afii10091"/>
<glyph unicode="ъ" d="M426 311q-3 -8 -8.5 -26t-5.5 -33q0 -25 24 -40t69 -15t85.5 8t71.5 28q42 27 67 59.5t25 70.5q0 35 -29.5 53.5t-97.5 18.5q-21 0 -44.5 -2.5t-46.5 -6.5t-43 -9.5t-34 -11.5zM495 577q23 10 52.5 18.5t62 14.5t67 9.5t66.5 3.5q124 0 192.5 -56t68.5 -159 q0 -52 -15 -99.5t-42.5 -89t-65.5 -76.5t-84 -62q-78 -45 -173 -69t-197 -24q-76 0 -128 17t-84 45t-46 64t-14 74q0 21 5 51t16 66l118 386h-225l48 208h473z" horiz-adv-x="1079" glyph-name="afii10092"/>
<glyph unicode="ы" d="M1139 900h246l-202 -900h-246zM327 267q-3 -11 -4 -14.5t-1 -4.5q-2 -51 96 -51q40 0 78.5 11t68.5 31t48 47t18 59q0 38 -27 54t-95 16q-41 0 -80.5 -8t-65.5 -19zM400 577q42 10 100 18t118 8q84 0 135.5 -18.5t80 -48t38.5 -67t10 -76.5q0 -86 -38 -160t-107 -128.5 t-165.5 -85.5t-213.5 -31q-84 0 -139 16t-88 43t-46.5 62t-13.5 73q0 22 3 40l159 678h247z" horiz-adv-x="1421" glyph-name="afii10093"/>
<glyph unicode="ь" d="M317 267q-3 -11 -4 -14.5t-1 -4.5q-2 -51 96 -51q40 0 78.5 11t68.5 31t48.5 47t18.5 59q0 38 -27 54t-95 16q-41 0 -81 -8t-66 -19zM390 577q42 10 100.5 18t118.5 8q84 0 135.5 -18.5t80 -48t38.5 -67t10 -76.5q0 -86 -38 -160t-107.5 -128.5t-166 -85.5t-213.5 -31 q-84 0 -139 16t-88 43t-46.5 62t-13.5 73q0 22 3 40l159 678h247z" horiz-adv-x="936" glyph-name="afii10094"/>
<glyph unicode="э" d="M213 545h328q2 3 3 14.5t1 21.5q0 69 -41 102t-105 33q-39 0 -68.5 -3.5t-54 -9t-45.5 -13.5t-42 -17l-65 175q41 22 79.5 37t77.5 24t80.5 12.5t88.5 3.5q75 0 137 -22t106.5 -64t69.5 -103.5t25 -140.5q0 -159 -44.5 -275.5t-119.5 -193t-173 -113.5t-204 -37 q-92 0 -159.5 23.5t-118.5 58.5l99 178q37 -21 79.5 -36.5t104.5 -15.5q57 0 100 14.5t74.5 39.5t52 58.5t32.5 70.5h-332z" horiz-adv-x="850" glyph-name="afii10095"/>
<glyph unicode="ю" d="M583 566q36 83 86.5 149.5t114.5 113t142.5 71.5t170.5 25q93 0 158 -28.5t106 -75.5t59.5 -107.5t18.5 -125.5q0 -134 -42.5 -246t-115.5 -193.5t-169 -127t-203 -45.5q-105 0 -176 29t-114.5 77.5t-62 112.5t-18.5 133v15t1 15h-172l-81 -358h-246l202 900h246 l-76 -334h171zM781 334q0 -69 33 -109.5t94 -40.5q57 0 107.5 33t89 87.5t60.5 123.5t22 141q0 32 -7 59t-21.5 46.5t-37 30.5t-54.5 11q-63 0 -115.5 -33t-90.5 -86.5t-59 -122t-21 -140.5z" horiz-adv-x="1495" glyph-name="afii10096"/>
<glyph unicode="я" d="M642 316l-137 -11l-263 -305h-309l335 348q-57 22 -95 73.5t-38 129.5q0 82 36 151t99 118.5t149 77t186 27.5q72 0 135.5 -4.5t116 -10.5t92.5 -13t66 -13l-198 -884h-245zM675 475l54 220q-5 2 -22 4t-39.5 4t-46 3t-42.5 1q-43 0 -78 -9t-60.5 -26.5t-39.5 -42.5 t-14 -58q0 -24 9 -42.5t29.5 -31t54.5 -19t85 -6.5z" horiz-adv-x="1055" glyph-name="afii10097"/>
<glyph unicode="ё" d="M773 99q-32 -23 -70.5 -45.5t-85 -39.5t-101 -27.5t-117.5 -10.5q-81 0 -148 23t-114 66.5t-73 106.5t-26 143q0 140 47 253t123.5 192.5t173.5 122t198 42.5q83 0 141 -18t94.5 -49.5t53 -73.5t16.5 -91q0 -77 -38 -136t-108.5 -99.5t-171 -61t-224.5 -20.5 q-14 0 -28.5 0.5t-31.5 1.5q-5 -11 -6 -25t-1 -25q0 -73 47.5 -108.5t133.5 -35.5q44 0 84 8t73.5 20t59 25.5t42.5 24.5zM548 722q-41 0 -75.5 -13.5t-63 -37.5t-50.5 -57t-37 -71q93 0 156 6t102 19.5t56 35t17 51.5q0 10 -3 22t-14 22t-31.5 16.5t-56.5 6.5zM306 1185 q0 60 37.5 93.5t97.5 33.5q59 0 97 -33.5t38 -93.5q0 -58 -38 -90t-97 -32q-60 0 -97.5 32t-37.5 90zM732 1187q0 58 37.5 91.5t97.5 33.5q59 0 97 -33.5t38 -91.5t-38 -91t-97 -33q-60 0 -97.5 33t-37.5 91z" horiz-adv-x="909" glyph-name="afii10071"/>
<glyph unicode="ђ" d="M174 1178h143l46 199h252l-48 -199h318l-35 -144h-318l-61 -252h8q25 25 57 51t72.5 46.5t91.5 33.5t114 13q48 0 86 -10.5t64.5 -33t41 -58.5t14.5 -88q0 -35 -6 -79t-18 -95l-124 -562q-46 -191 -138.5 -282.5t-244.5 -91.5q-28 0 -58.5 2.5t-62.5 9.5l47 200 q50 -4 84 4.5t57.5 29t38 53t25.5 75.5l118 533q8 31 12 60t4 52q0 46 -20 71t-68 25q-35 0 -71 -14.5t-68.5 -37.5t-59.5 -53.5t-43 -61.5l-128 -574h-252l239 1034h-144z" horiz-adv-x="1071" glyph-name="afii10099"/>
<glyph unicode="ѓ" d="M651 86q-33 -23 -74 -43t-85 -35t-89.5 -23.5t-85.5 -8.5q-91 0 -152.5 22t-99 58t-53.5 82.5t-16 95.5q0 73 28 122t72.5 82t99.5 54.5t110 38.5q75 23 123 53.5t48 71.5q0 26 -16 38.5t-44 12.5q-33 0 -66 -6t-63 -16t-57 -22.5t-49 -25.5l-54 193q38 22 83 38t90 26.5 t86.5 16t73.5 5.5q67 0 117.5 -17t83.5 -46.5t49.5 -70t16.5 -86.5q0 -76 -28 -129.5t-72 -91t-99 -62t-109 -41.5q-38 -12 -69.5 -24.5t-54.5 -27t-36 -32.5t-13 -41q0 -11 3.5 -22t13 -20t26.5 -15t44 -6q40 0 74 7.5t61.5 18.5t50.5 23.5t43 23.5zM558 1365h256l-12 -54 l-272 -223h-142z" horiz-adv-x="805" glyph-name="afii10100"/>
<glyph unicode="є" d="M750 83q-142 -108 -337 -108q-83 0 -151 23.5t-116 67t-74.5 105t-26.5 136.5q0 67 14 128.5t37.5 116t54.5 101.5t66 86q86 95 191.5 140.5t226.5 45.5q53 0 89.5 -4.5t63.5 -12t47 -17t40 -19.5l-86 -167q-37 20 -71 27t-83 7q-43 0 -85 -13t-79.5 -38.5t-69.5 -62.5 t-55 -86h355l-39 -154h-357q-2 -13 -3 -25q-2 -11 -2.5 -22t-0.5 -19q0 -86 50 -122.5t136 -36.5q69 0 123 20t89 43z" horiz-adv-x="850" glyph-name="afii10101"/>
<glyph unicode="ѕ" d="M56 265q21 -12 47 -26.5t56.5 -26.5t64 -20t68.5 -8q69 0 107 19.5t38 60.5q0 33 -24.5 56t-61.5 43t-80.5 42t-80.5 53.5t-61.5 77.5t-24.5 114q0 61 25.5 111.5t72 87t112.5 56.5t148 20q57 0 105 -7.5t88 -18.5t71.5 -25t55.5 -26l-73 -185q-19 7 -43.5 16t-53 17.5 t-59 14t-60.5 5.5q-63 0 -100 -15t-37 -49q0 -26 24.5 -47t61.5 -42t80.5 -45.5t80.5 -58.5t61.5 -79.5t24.5 -109.5q0 -74 -27.5 -129t-78.5 -92t-122.5 -55t-159.5 -18q-62 0 -112 10t-89.5 24.5t-71 31.5t-56.5 31z" horiz-adv-x="797" glyph-name="afii10102"/>
<glyph unicode="і" d="M269 899h252l-217 -899h-252zM302 1237q0 34 12 60.5t32.5 44.5t48 27t58.5 9q30 0 57 -9t48 -27t33.5 -44.5t12.5 -60.5q0 -33 -12.5 -59.5t-33.5 -44.5t-48 -27.5t-57 -9.5q-31 0 -58.5 9.5t-48 27.5t-32.5 44.5t-12 59.5z" horiz-adv-x="569" glyph-name="afii10103"/>
<glyph unicode="ї" d="M146 1181q0 57 34 88.5t91 31.5t91 -31.5t34 -88.5t-34 -88t-91 -31q-59 0 -92 31t-33 88zM461 1181q0 57 33 88.5t92 31.5q57 0 91 -31.5t34 -88.5t-34 -88t-93 -31q-57 0 -90 31t-33 88zM262 899h252l-217 -899h-252z" horiz-adv-x="569" glyph-name="afii10104"/>
<glyph unicode="ј" d="M266 899h254l-227 -937q-39 -161 -132 -247t-249 -86q-29 0 -61 3t-66 10l49 191q52 -4 88.5 7.5t62 37t42.5 63.5t30 88zM291 1237q0 34 12 60.5t32.5 44.5t48 27t58.5 9q30 0 57 -9t48 -27t33.5 -44.5t12.5 -60.5q0 -33 -12.5 -59.5t-33.5 -44.5t-48 -27.5t-57 -9.5 q-31 0 -58.5 9.5t-48 27.5t-32.5 44.5t-12 59.5z" horiz-adv-x="569" glyph-name="afii10105"/>
<glyph unicode="љ" d="M797 268q-2 -8 -4 -15.5t-2 -15.5q0 -64 69 -64q37 0 71 14.5t59 39t40 56t15 64.5q0 43 -21.5 62t-77.5 19q-32 0 -59.5 -8t-52.5 -19zM957 899l-84 -334q28 7 68.5 17t105.5 10q84 0 134.5 -19t76.5 -47.5t34 -63.5t8 -66q0 -75 -31.5 -148.5t-94 -131t-155.5 -93 t-215 -35.5q-84 0 -137 15t-82 39.5t-39.5 56t-10.5 64.5q0 6 1.5 17.5t3 23.5t3.5 23t4 17l119 470h-164q-23 -77 -42.5 -148t-37.5 -134t-36 -117.5t-38 -100.5q-51 -117 -124.5 -171t-176.5 -54q-49 0 -82.5 10.5t-47.5 16.5l78 193q15 -5 22 -7t19 -2q18 0 34.5 7.5 t32.5 27t32.5 52.5t34.5 83q28 77 62.5 207t87.5 322h637z" horiz-adv-x="1350" glyph-name="afii10106"/>
<glyph unicode="њ" d="M946 563q19 5 38 10.5t41 9.5t48.5 6.5t59.5 2.5q84 0 134.5 -18.5t78.5 -48t37 -66.5t9 -73q0 -72 -34 -143t-99.5 -127.5t-160.5 -92t-217 -35.5q-83 0 -136 14t-83.5 38t-42.5 55t-13 65q0 29 6 56l37 153h-279l-88 -369h-252l217 899h252l-86 -345h281l84 345h252z M872 266q-2 -8 -4 -14.5t-2 -14.5q0 -64 80 -64q42 0 77 16t60 40.5t38.5 53t13.5 54.5q0 23 -5.5 40t-19 28.5t-36.5 17t-58 5.5q-32 0 -59 -8.5t-46 -18.5z" horiz-adv-x="1460" glyph-name="afii10107"/>
<glyph unicode="ћ" d="M192 1176h143l44 201h252l-46 -201h318l-35 -144h-318l-59 -242h8q31 30 66 54.5t77 42t92 27.5t112 10q45 0 83.5 -10.5t66.5 -33.5t44 -61t16 -92q0 -35 -6 -79.5t-18 -94.5l-119 -553h-252l114 536q10 35 15.5 66t5.5 53q0 41 -27.5 62.5t-73.5 21.5q-42 0 -80.5 -15 t-71.5 -39t-60 -55.5t-45 -64.5l-121 -565h-252l236 1032h-144z" horiz-adv-x="1139" glyph-name="afii10108"/>
<glyph unicode="ќ" d="M493 360h-100l-82 -360h-246l202 900h246l-85 -371l79 16l326 355h293l-382 -383l-63 -48l41 -57l240 -412h-275zM702 1365h256l-12 -54l-272 -223h-142z" horiz-adv-x="1038" glyph-name="afii10109"/>
<glyph unicode="ў" d="M429 412l4 -137h9l45 134l245 491h269l-456 -805q-55 -93 -109.5 -178t-110 -150t-114 -104t-120.5 -39q-43 0 -75.5 7t-60.5 24l70 193q8 -5 20.5 -5.5t26.5 -0.5q25 0 47 7.5t45 27t49 53.5t60 88l-194 882h277zM459 1266q2 -59 32.5 -93.5t81.5 -34.5q27 0 53.5 7 t50 22t43.5 39t35 58l180 -44q-26 -65 -66 -109.5t-90 -71.5t-108.5 -38.5t-120.5 -11.5q-60 0 -112.5 12.5t-90.5 40.5t-59 72t-16 106z" horiz-adv-x="909" glyph-name="afii10110"/>
<glyph unicode="џ" d="M674 -63l-45 -297h-233l92 297h186zM474 900l-119 -509q-5 -24 -10.5 -47t-5.5 -51q0 -44 24 -67.5t89 -23.5q39 0 79.5 14t77 36t65.5 48.5t46 51.5l121 548h246l-121 -540q-7 -30 -13 -69t-10.5 -81t-7 -82.5t-2.5 -72.5q0 -14 0.5 -24.5t2.5 -30.5h-197l-14 171l-3 1 q-28 -33 -68 -68t-89 -63.5t-104.5 -46.5t-114.5 -18q-47 0 -94.5 12t-85.5 40t-62 73.5t-24 111.5q0 39 8 82.5t16 78.5l124 526h246z" horiz-adv-x="1139" glyph-name="afii10193"/>
<glyph unicode="Ѣ" d="M137 1262h260l28 144h287l-28 -144h412l-47 -240h-412l-31 -162q10 2 32 5.5t48.5 6.5t55 5.5t52.5 2.5q36 0 77.5 -3.5t83 -12.5t80.5 -23.5t71 -36.5q31 -22 59 -51t48.5 -65.5t32.5 -80t12 -93.5q0 -134 -54.5 -234t-148 -166.5t-218 -99.5t-264.5 -33q-28 0 -79 1.5 t-110.5 5.5t-120.5 10t-109 15l196 1009h-260zM637 233q39 0 92.5 9t102.5 34.5t83 70t34 115.5q0 42 -16.5 74t-46 53t-71 32t-91.5 11q-15 0 -38 -1t-47 -3.5t-46 -5.5t-35 -6l-73 -374q23 -4 66 -6.5t86 -2.5z" horiz-adv-x="1298" glyph-name="afii10146"/>
<glyph unicode="ѣ" d="M807 266q-5 -15 -8 -27t-3 -15q0 -20 15 -35.5t54 -15.5q43 0 78.5 18t61.5 45t40.5 59t14.5 60q0 73 -96 73q-41 0 -73 -10t-46 -17zM637 558q4 17 8 35.5t7 35t5 29.5t2 19q0 25 -12 39t-41 14t-55.5 -17t-50 -43.5t-43.5 -60t-36 -66.5l-131 -543h-252l217 899h190 l-10 -151h8q22 31 48 63t60.5 57t82 41t113.5 16q83 0 126.5 -41t43.5 -134q0 -30 -5.5 -64t-16.5 -77l-13 -44q7 2 27 6.5t47.5 9t58.5 8t59 3.5q69 0 115 -17t74.5 -44.5t40.5 -63t12 -71.5q0 -87 -35.5 -161.5t-102.5 -129t-164 -86t-219 -31.5q-69 0 -116.5 16t-77 41 t-43 56.5t-13.5 63.5q0 8 2 21.5t4.5 28.5t5.5 28.5t5 21.5z" horiz-adv-x="1366" glyph-name="afii10194"/>
<glyph unicode="Ѳ" d="M118 516q-2 106 19 211.5t65 201.5t110.5 178.5t154 143.5t195.5 95.5t237 35.5q135 0 239.5 -40.5t176 -114t108 -176.5t36.5 -228q0 -182 -54 -337.5t-152.5 -269.5t-235.5 -179t-303 -65q-135 0 -244 37t-186 107.5t-120 171t-46 228.5zM721 223q72 0 134.5 26.5 t112.5 72.5t87.5 109t60.5 136h-691v-22q2 -70 23 -129t59 -102t92 -67t122 -24zM852 1131q-76 0 -138.5 -27t-111.5 -73t-84.5 -107t-57.5 -130h690q-1 72 -19.5 133.5t-55 107t-92.5 71t-131 25.5z" horiz-adv-x="1479" glyph-name="afii10147"/>
<glyph unicode="ѳ" d="M50 301q0 142 46.5 257.5t124 197t179 125.5t211.5 44q98 0 165.5 -29t109 -75.5t59.5 -106t18 -120.5q0 -141 -45 -255.5t-121.5 -195t-177 -124.5t-211.5 -44q-95 0 -163 29.5t-111.5 76.5t-63.5 105t-20 115zM697 520q6 34 6 70q0 72 -28 110.5t-103 38.5 q-33 0 -68 -17t-65.5 -46t-55 -69.5t-36.5 -86.5h350zM312 374q-2 -14 -2 -27v-25q0 -162 133 -162q32 0 64 15.5t60.5 43.5t52.5 67.5t40 87.5h-348z" glyph-name="afii10195"/>
<glyph unicode="Ѵ" d="M735 -9h-204l-328 1365h335l156 -783l27 -171h5l83 173l237 420q25 44 51 86t54.5 81t60.5 73.5t70 63.5q51 38 113 56t131 18q60 0 108 -10.5t96 -33.5l-110 -241q-23 14 -52 23.5t-59 9.5q-27 0 -49.5 -6t-46 -23.5t-49 -50t-57.5 -85.5z" horiz-adv-x="1589" glyph-name="afii10148"/>
<glyph unicode="ѵ" d="M473 -9h-155l-201 908h276l68 -471v-138h8l62 142l73 127q58 98 106.5 166t96 110t98.5 61t115 19q47 0 87.5 -8t66.5 -22l-80 -187q-15 5 -30.5 9.5t-30.5 4.5q-34 0 -71.5 -26t-86.5 -94z" horiz-adv-x="1096" glyph-name="afii10196"/>
<glyph unicode="Ҋ" d="M1106 748l55 162h-7l-141 -165l-701 -745h-212l264 1356h286l-142 -730l-53 -171h10l141 171l691 730h216l-217 -1116h229l-12 -62l-283 -430h-200l144 252h-213zM854 1748q13 -58 46 -84.5t99 -26.5q70 0 119.5 27t68.5 82l237 -33q-56 -125 -161.5 -186t-278.5 -61 q-171 0 -264 58.5t-105 182.5z" horiz-adv-x="1593" glyph-name="uni048A"/>
<glyph unicode="ҋ" d="M484 899l-134 -556q-12 -54 -12 -89q0 -37 16 -56.5t58 -19.5q34 0 70 15.5t69 39.5t60.5 53.5t46.5 58.5l131 554h252l-129 -539q-8 -32 -15.5 -68t-13.5 -80h207l-12 -56l-248 -390h-185l126 234h-101l-10 162h-8q-29 -34 -67 -67.5t-83.5 -60t-100 -43t-116.5 -16.5 q-48 0 -87.5 9.5t-68 32.5t-44 61t-15.5 95q0 31 4.5 67t15.5 78l142 581h252zM580 1266q-5 -71 20.5 -99.5t75.5 -28.5q54 0 93.5 29t68.5 97l180 -44q-25 -59 -65 -102t-90.5 -72t-109 -43t-120.5 -14q-60 0 -112.5 12.5t-91 40.5t-59 72t-15.5 106z" horiz-adv-x="1139" glyph-name="uni048B"/>
<glyph unicode="Ҍ" d="M158 1262h210l28 144h287l-28 -144h462l-47 -240h-462l-31 -162q21 5 68 11t103 7q60 1 121 -5t117.5 -22t105.5 -43t85.5 -68t57.5 -97t21 -129q0 -101 -28.5 -180t-78.5 -138.5t-119 -100.5t-150.5 -66t-172 -36.5t-183.5 -11.5q-28 0 -76 2t-103.5 5.5t-113.5 9.5 t-106 15l196 1009h-210zM598 233q65 0 128 11t112 38t79 73t30 117q0 51 -23.5 82.5t-62 49.5t-87 24t-98.5 6q-15 0 -35 -1t-40 -2.5t-39 -4.5t-32 -6l-74 -378q23 -4 61 -6.5t81 -2.5z" horiz-adv-x="1298" glyph-name="uni048C"/>
<glyph unicode="ҍ" d="M255 899l117 488h247l-120 -488h329l-41 -163h-328l-39 -159q42 10 95.5 18t113.5 8q84 0 135.5 -18.5t80 -48t38.5 -67t10 -76.5q0 -86 -36.5 -160t-104 -128.5t-162.5 -85.5t-212 -31q-84 0 -139 16t-88 43t-46.5 62t-13.5 73q0 22 3 40l122 514h-167l41 163h165z M347 267q-3 -11 -4 -14.5t-1 -4.5q-2 -51 96 -51q40 0 77 11t65.5 31t45 47t16.5 59q0 38 -27 54t-95 16q-41 0 -76 -8t-61 -19z" horiz-adv-x="936" glyph-name="uni048D"/>
<glyph unicode="Ҏ" d="M361 1342q88 13 185 23t188 10q52 0 106 -2.5t107 -11t102 -24t90 -40.5q34 -21 60 -52.5t43.5 -70.5t26.5 -83.5t9 -91.5q0 -84 -22 -151t-59.5 -121t-88 -97t-107.5 -78l108 -201l-185 -111l-118 233q-48 -10 -92.5 -15t-92.5 -5q-10 0 -30 0.5t-41.5 1.5t-41.5 2.5 t-31 3.5l-90 -461h-287zM524 707q7 -2 21 -4t29.5 -3.5t30 -2.5t23.5 -1q27 0 56 1.5t56 8.5l-82 166l121 67l89 -185q48 34 74.5 83.5t26.5 121.5q0 48 -19.5 80t-53 50.5t-78 26t-93.5 7.5q-42 0 -70 -3t-51 -6z" horiz-adv-x="1251" glyph-name="cyrErcrossed"/>
<glyph unicode="ҏ" d="M241 899h186l-15 -158h8q36 52 72.5 87t76.5 56.5t84.5 31t95.5 9.5q106 0 164 -72.5t58 -208.5q0 -97 -17.5 -183.5t-47.5 -158.5t-70.5 -128.5t-86.5 -94.5l71 -111l-167 -108l-84 131q-60 -16 -123 -16q-54 0 -100.5 9t-69.5 23l-88 -367h-250zM540 329l59 -95 q21 13 41.5 52.5t36 94t25 117.5t9.5 123q0 25 -4 46.5t-13.5 37.5t-25.5 25t-40 9q-37 0 -68.5 -13.5t-58.5 -37t-49 -54.5t-39 -66l-94 -377q24 -15 52 -23t62 -8q36 0 68 11l-61 97z" glyph-name="cyrercrossed"/>
<glyph unicode="Ґ" d="M1070 1104h-469l-215 -1104h-286l264 1356h529l101 298h183z" horiz-adv-x="963" glyph-name="afii10050"/>
<glyph unicode="ґ" d="M777 705h-316l-170 -705h-262l217 899h368l106 273h170z" horiz-adv-x="756" glyph-name="afii10098"/>
<glyph unicode="Ғ" d="M1308 1104h-689l-68 -350h539l-37 -192h-539l-109 -562h-296l109 562h-193l37 192h193l117 602h985z" horiz-adv-x="1237" glyph-name="cyrGebar"/>
<glyph unicode="ғ" d="M787 714h-326l-55 -221h275l-34 -144h-278l-86 -349h-252l84 349h-126l35 144h126l98 406h578z" horiz-adv-x="756" glyph-name="cyrgebar"/>
<glyph unicode="Ҕ" d="M391 0h-286l264 1356h1015l-49 -252h-729l-73 -374q57 16 145 29.5t193 13.5q99 0 195 -20.5t171 -70.5t121 -133t46 -208q0 -145 -54.5 -254t-147.5 -182q-97 -75 -224.5 -113t-271.5 -38q-29 0 -57 0.5t-51.5 1.5t-40.5 2.5t-24 3.5l48 247q37 -2 72.5 -2.5t72.5 -0.5 q78 0 144.5 18t115.5 54t76.5 90.5t27.5 128.5q0 62 -24 103.5t-64 67.5q-23 15 -53 25t-63.5 16t-68 9t-65.5 3q-28 0 -64 -3t-73 -8.5t-71.5 -12.5t-58.5 -15z" horiz-adv-x="1522" glyph-name="cyrGehook"/>
<glyph unicode="ҕ" d="M286 0h-252l217 899h658l-43 -185h-408l-61 -259q17 6 38.5 14t51 15.5t68.5 13t92 5.5q61 0 117 -19t91 -52q38 -36 60 -91t22 -115q0 -131 -43.5 -245t-121.5 -192t-185.5 -119.5t-235.5 -41.5q-51 0 -77.5 3t-40.5 7l49 182q14 -3 39.5 -5t68.5 -2q30 0 61.5 8 t61.5 24.5t57 41.5t49 60q26 43 42 98.5t16 121.5q0 33 -10.5 64t-29.5 49q-20 19 -49 28.5t-61 9.5q-59 0 -103.5 -12.5t-69.5 -24.5z" horiz-adv-x="1036" glyph-name="cyrgehook"/>
<glyph unicode="Җ" d="M982 1356h272l-117 -599l100 27l454 572h325l-495 -595l-65 -68l57 -83l162 -358h179l-96 -492h-205l17 240h-118l-230 582h-119l-113 -582h-272l118 606l-94 -27l-483 -579h-337l525 597l80 78l-47 72l-275 609h335l228 -576h102z" horiz-adv-x="1880" glyph-name="cyrZhedesc"/>
<glyph unicode="җ" d="M1322 546q30 99 69.5 167t86.5 110.5t101 61.5t113 19q49 0 88.5 -7.5t71 -20t55 -29.5t40.5 -36l-86 -171q-26 24 -56.5 38t-74.5 14q-40 0 -72 -17.5t-56.5 -46.5t-41.5 -67t-28 -78.5t-16 -81t-5 -74.5q0 -37 9.5 -61.5t25 -39t35.5 -20.5t42 -6q24 0 43 3.5 t34.5 10.5t29 16.5t27.5 20.5l99 -118l-111 -338h-192l61 202q-11 -1 -29.5 -3.5t-31.5 -2.5q-129 0 -198.5 72.5t-69.5 219.5q0 18 2 38t4 38h-208l-82 -359h-236l81 359h-199q-30 -99 -71.5 -168.5t-91 -114t-105.5 -65t-114 -20.5q-99 0 -164.5 30t-100.5 73l92 186 q22 -24 57.5 -43.5t85.5 -19.5q60 0 102.5 35.5t68.5 88.5t38 114.5t12 112.5q0 74 -30 103.5t-75 29.5q-46 0 -78.5 -14t-61.5 -37l-71 170q25 19 52.5 34.5t62 26.5t78 17t102.5 6q121 0 184 -67.5t63 -214.5q0 -18 -1 -38t-3 -38h208l82 354h236l-81 -354h199z" horiz-adv-x="1950" glyph-name="cyrzhedesc"/>
<glyph unicode="Ҙ" d="M297 595l42 218h86q163 0 252 43t89 138q0 30 -9 56.5t-30.5 45.5t-57 30t-88.5 11q-46 0 -85 -5.5t-72.5 -14.5t-62 -20.5t-54.5 -22.5l-69 218q23 10 68 25t103.5 28.5t126 23.5t135.5 10q79 0 152.5 -14t129.5 -49t89.5 -96.5t33.5 -155.5q0 -56 -18.5 -109t-55 -97.5 t-91 -78t-126.5 -49.5l-2 -11q45 -8 84 -30t67 -57t44 -83t16 -106q0 -99 -33.5 -177t-93.5 -135.5t-142 -94t-179 -51.5l-87 -322h-184l20 316q-58 7 -104 19t-80.5 25t-58.5 25.5t-39 20.5l107 231q33 -17 65.5 -31t68.5 -23.5t75.5 -15t86.5 -5.5q49 0 100 11t92 36.5 t67 66.5t26 101q0 24 -6 45.5t-21 39t-40 31t-64 21.5q-63 13 -121.5 15.5t-121.5 2.5h-30z" horiz-adv-x="1042" glyph-name="cyrZetail"/>
<glyph unicode="ҙ" d="M155 372l41 174h102q40 0 72.5 7t56 20t36.5 31t13 41q0 14 -4 27t-16.5 23.5t-36 17t-61.5 6.5q-68 0 -115.5 -17.5t-77.5 -32.5l-51 179q67 32 154 50t179 18q81 0 135.5 -15t88 -42t48 -65.5t14.5 -86.5q0 -40 -13 -74.5t-35.5 -63.5t-52.5 -51.5t-65 -37.5 q32 -12 54 -29.5t35.5 -40t19 -48t5.5 -53.5q0 -63 -23 -115.5t-65 -92.5t-101 -67.5t-131 -40.5l-53 -307h-238l87 298q-69 7 -122 25.5t-94 47.5l89 183q37 -21 89 -37t127 -16q92 0 138.5 32.5t46.5 83.5q0 16 -8.5 28.5t-29.5 21.5t-58 14t-94 5h-86z" horiz-adv-x="799" glyph-name="cyrzetail"/>
<glyph unicode="Қ" d="M648 573h-151l-111 -573h-286l264 1356h286l-116 -597l119 30l517 567h359l-550 -571l-95 -74l70 -78l204 -381h200l-96 -492h-205l18 240h-138z" horiz-adv-x="1389" glyph-name="cyrKadesc"/>
<glyph unicode="қ" d="M478 372h-100l-88 -372h-252l217 899h252l-94 -383l73 23l312 360h276l-326 -359l-65 -66l41 -73l100 -216h170l-131 -390h-192l61 205h-105z" horiz-adv-x="1038" glyph-name="cyrkadesc"/>
<glyph unicode="Ҝ" d="M608 575h-110l-112 -575h-286l264 1356h286l-117 -599l112 6l50 263h184l-47 -246l25 4l412 572h305l-436 -571l-62 -72l38 -78l235 -635h-320l-195 575h-42l-48 -246h-184z" horiz-adv-x="1389" glyph-name="cyrKavertbar"/>
<glyph unicode="ҝ" d="M451 372h-86l-88 -372h-252l217 899h252l-94 -383l88 7l51 216h147l-49 -202l9 4l232 358h248l-235 -351l-56 -62l20 -77l89 -409h-246l-68 372h-32l-51 -212h-147z" horiz-adv-x="1038" glyph-name="cyrkavertbar"/>
<glyph unicode="Ҟ" d="M638 573h-135l-111 -573h-287l205 1055h-210l38 194h210l21 107h287l-21 -107h192l-33 -170h-192l-63 -320l124 30l551 567h355l-584 -571l-95 -74l70 -78l389 -633h-378z" horiz-adv-x="1389" glyph-name="cyrKabar"/>
<glyph unicode="ҟ" d="M123 1126h153l56 251h246l-56 -251h281l-35 -144h-278l-101 -453l87 16l319 355h298l-357 -387l-60 -53l33 -48l223 -412h-277l-192 360h-110l-82 -360h-246l219 982h-156z" horiz-adv-x="1038" glyph-name="cyrkabar"/>
<glyph unicode="Ҡ" d="M857 573h-129l-112 -573h-286l215 1104h-355l49 252h641l-116 -597l118 30l565 567h372l-610 -591l-94 -74l69 -78l418 -613h-372z" horiz-adv-x="1681" glyph-name="cyrKaback"/>
<glyph unicode="ҡ" d="M548 516l69 25l326 358h288l-325 -341l-86 -75l39 -62l230 -421h-264l-194 372h-118l-90 -372h-252l174 714h-265l45 185h515z" horiz-adv-x="1177" glyph-name="cyrkaback"/>
<glyph unicode="Ң" d="M1097 560h-601l-109 -560h-287l264 1356h287l-106 -545h601l106 545h286l-215 -1104h182l-96 -492h-203l15 240h-233z" horiz-adv-x="1593" glyph-name="cyrEndesc"/>
<glyph unicode="ң" d="M710 339h-347l-79 -339h-246l202 900h246l-76 -325h347l76 325h248l-161 -715h164l-131 -390h-193l62 205h-191z" horiz-adv-x="1137" glyph-name="cyrendesc"/>
<glyph unicode="Ҥ" d="M2109 1104h-594l-215 -1104h-287l109 560h-622l-109 -560h-287l264 1356h287l-106 -545h622l106 545h881z" horiz-adv-x="2038" glyph-name="cyrEnGe"/>
<glyph unicode="ҥ" d="M681 350h-319l-84 -350h-252l217 899h252l-84 -336h319l82 336h571l-45 -185h-317l-172 -714h-254z" horiz-adv-x="1288" glyph-name="cyrenge"/>
<glyph unicode="Ҧ" d="M1270 0h-287l215 1104h-597l-215 -1104h-286l264 1356h1170l-122 -626q17 5 48.5 12.5t73 14t90 11.5t99.5 5q57 0 116.5 -9t116 -29.5t106 -53t87 -79.5t59 -109t21.5 -142q0 -57 -11 -116.5t-35.5 -118.5t-64 -116t-96.5 -109q-75 -69 -183 -103t-240 -34 q-30 0 -58.5 0.5t-52.5 1.5t-41.5 2.5t-24.5 3.5l48 247q7 0 24.5 -0.5t38.5 -1t42.5 -1t38.5 -0.5q61 0 116.5 19t97.5 57t66.5 94t24.5 131q0 63 -27.5 104t-71.5 65.5t-100.5 34.5t-114.5 10q-23 0 -54 -2.5t-64 -7t-65.5 -11.5t-57.5 -16z" horiz-adv-x="2312" glyph-name="cyrPehook"/>
<glyph unicode="ҧ" d="M833 0h-252l127 519q3 11 6.5 27.5t6.5 34t5.5 34.5t2.5 30q0 40 -13.5 62.5t-52.5 22.5q-38 0 -73 -16.5t-65.5 -43t-56.5 -60t-47 -67.5l-131 -543h-252l217 899h190l-10 -158h8q29 35 63 68.5t78.5 59t100.5 41t129 15.5q93 0 138 -49t45 -152q0 -27 -6 -68t-18 -85 l-25 -106q35 11 85 24.5t124 13.5q60 0 118 -19.5t103 -61.5q42 -39 65 -96.5t23 -120.5q0 -65 -8 -118.5t-23.5 -100t-38.5 -87.5t-53 -80q-73 -94 -181 -142t-239 -48q-45 0 -81 6.5t-50 12.5l49 179q20 -7 46 -9.5t63 -2.5q57 0 109.5 29t89.5 86q26 41 41.5 90t15.5 116 q0 36 -9 72t-28 59q-18 23 -50.5 37t-77.5 14q-44 0 -78 -11.5t-60 -22.5z" horiz-adv-x="1564" glyph-name="cyrpehook"/>
<glyph unicode="Ҩ" d="M693 1131q-67 -18 -122 -57.5t-94.5 -108.5t-61.5 -171.5t-22 -246.5q0 -75 16 -138t46.5 -108.5t75 -70.5t101.5 -25q21 0 47 4t46 9q-19 22 -37.5 60.5t-33.5 88.5t-24.5 109t-9.5 122q0 104 20 197.5t56.5 173.5t87 144.5t110.5 109.5t127.5 69.5t139.5 24.5 q80 0 137.5 -30t94.5 -83t54.5 -125t17.5 -155q0 -93 -16 -177t-42.5 -157.5t-61 -134.5t-71.5 -109t-73.5 -81t-67.5 -50q5 -3 14.5 -5t21 -3.5t22 -2.5t16.5 -1q63 0 113.5 20t85.5 43l38 -212q-16 -12 -44 -26.5t-66.5 -26.5t-87 -20t-105.5 -8q-82 0 -146.5 23.5 t-106.5 67.5q-30 -18 -61.5 -34.5t-69.5 -29t-84 -20t-104 -7.5q-109 0 -195 42.5t-145.5 115t-91 169.5t-31.5 206q0 188 46 343.5t129.5 269.5t200.5 181.5t259 81.5zM888 609q0 -45 5.5 -88.5t14.5 -81t22 -68t28 -48.5q37 28 78.5 83t76.5 129t58 164t23 189q0 34 -4 66 t-14 56.5t-27 39.5t-43 15q-35 0 -73.5 -24.5t-70.5 -79t-53 -141.5t-21 -211z" horiz-adv-x="1480" glyph-name="cyrOhook"/>
<glyph unicode="ҩ" d="M430 726q-77 -18 -118.5 -109.5t-41.5 -243.5q0 -50 8.5 -90.5t26.5 -69.5t44.5 -45t62.5 -16q31 0 53 4t38 12q-14 13 -27 41t-23.5 64t-16.5 78.5t-6 84.5q0 78 17 159t55.5 146t101 106.5t153.5 41.5q59 0 101.5 -20t70.5 -57t41 -90t13 -120q0 -58 -12 -120.5 t-38 -122.5q-29 -66 -71 -120.5t-93 -86.5q9 -6 27.5 -12t41.5 -6q16 0 32 4t29.5 9t24 9.5t15.5 7.5l-6 -143q-9 -7 -24 -15t-34.5 -15t-42 -11.5t-46.5 -4.5q-42 0 -73.5 9t-54 22t-37 27t-23.5 23q-15 -12 -36 -26.5t-51 -26.5t-70.5 -20t-93.5 -8q-65 0 -122.5 25 t-100.5 72t-68.5 115.5t-25.5 154.5q0 112 29.5 214t86.5 181.5t140.5 129.5t190.5 58zM622 451q0 -26 2.5 -54.5t7.5 -56t12.5 -51t17.5 -38.5q7 6 18.5 20t23.5 34t23.5 45.5t19.5 53.5q12 41 19 86.5t7 92.5q0 22 -2 43.5t-8 38.5t-17 27t-28 10q-48 0 -72 -65t-24 -186z " horiz-adv-x="1020" glyph-name="cyrohook"/>
<glyph unicode="Ҫ" d="M1260 99q-45 -27 -95 -48t-101.5 -35.5t-102.5 -24t-99 -13.5l-90 -315h-184l21 324q-110 19 -196.5 65.5t-146 119t-91 169.5t-31.5 217q0 84 17 164t48 153.5t75 139t98 120.5q115 117 271.5 182t362.5 65q127 0 239.5 -31.5t204.5 -90.5l-126 -232q-85 50 -171 76.5 t-185 26.5q-140 0 -239.5 -50.5t-167.5 -141.5q-22 -30 -43 -68.5t-37.5 -83t-26.5 -93.5t-10 -98q0 -183 96.5 -277t279.5 -94q48 0 96.5 8t95 22t90 33t79.5 40z" horiz-adv-x="1366" glyph-name="cyrEstail"/>
<glyph unicode="ҫ" d="M809 637q-17 9 -40.5 21t-52 23t-62 18.5t-71.5 7.5q-53 0 -103 -26.5t-89 -72.5t-62.5 -106.5t-23.5 -127.5q0 -84 39 -132.5t133 -48.5q37 0 74.5 8t70.5 19.5t61 24t48 22.5l54 -173q-23 -18 -54.5 -35.5t-69 -32t-79.5 -26t-85 -17.5l-52 -297h-238l90 303 q-66 15 -113.5 46.5t-78 74.5t-45.5 95t-15 107q0 146 47.5 260t125 192.5t175 119.5t198.5 41q46 0 92.5 -6t88.5 -18t78.5 -29t62.5 -39z" horiz-adv-x="909" glyph-name="cyrestail"/>
<glyph unicode="Ҭ" d="M605 1104h-445l49 252h1178l-49 -252h-446l-166 -852h184l-95 -492h-203l15 240h-237z" horiz-adv-x="1251" glyph-name="cyrTedesc"/>
<glyph unicode="ҭ" d="M549 0l116 489q13 51 20 90t7 68q0 42 -17 62.5t-55 20.5q-34 0 -67 -18.5t-61 -45t-49 -55.5t-30 -50l-131 -561h-252l217 899h197l-13 -158h8q31 42 64 76t73.5 58t91 37t116.5 13q82 0 124.5 -52t37.5 -139q28 36 63.5 70.5t78.5 61t92 43t104 16.5q47 0 83.5 -9 t61 -30t37.5 -56.5t13 -88.5q0 -78 -31 -202l-86 -354h179l-131 -390h-193l61 205h-207l117 505q9 42 16 77.5t7 62.5q0 42 -17 63.5t-59 21.5q-32 0 -62.5 -17.5t-57 -43.5t-48 -56.5t-35.5 -56.5l-132 -556h-251z" horiz-adv-x="1593" glyph-name="cyrtedesc"/>
<glyph unicode="Ү" d="M507 499l-357 857h321l183 -490l35 -115h7l76 118l357 487h346l-680 -855l-98 -501h-287z" horiz-adv-x="1251" glyph-name="cyrstraightU"/>
<glyph unicode="ү" d="M114 899h283l53 -534l2 -137h10l59 141l291 530h285l-571 -901l-90 -365h-252l88 365z" glyph-name="cyrstraightu"/>
<glyph unicode="Ұ" d="M485 386h-311l37 187h265l-326 783h321l183 -490l35 -115h7l76 118l357 487h346l-623 -783h266l-37 -187h-309l-75 -386h-287z" horiz-adv-x="1251" glyph-name="cyrstraightUbar"/>
<glyph unicode="ұ" d="M43 0h228l-157 899h283l53 -534l2 -137h10l59 141l291 530h285l-570 -899h227l-35 -144h-228l-55 -223h-252l54 223h-230z" glyph-name="cyrstraightubar"/>
<glyph unicode="Ҳ" d="M504 689l-321 667h346l172 -383l43 -103l74 103l323 383h316l-573 -650l232 -454h215l-96 -492h-204l16 240h-145l-209 412l-49 100l-70 -100l-332 -412h-326z" horiz-adv-x="1366" glyph-name="cyrHadesc"/>
<glyph unicode="ҳ" d="M526 216l-36 113l-87 -113l-173 -216h-293l394 460l-184 439h284l78 -192l31 -116l86 116l158 192h293l-379 -432l124 -282h158l-131 -390h-192l61 205h-94z" glyph-name="cyrhadesc"/>
<glyph unicode="Ҵ" d="M1416 -240h-203l15 240h-1011l215 1104h-292l49 252h871l-49 -252h-292l-166 -852h483l215 1104h287l-215 -1104h188z" horiz-adv-x="1593" glyph-name="cyrTeTse"/>
<glyph unicode="ҵ" d="M829 0q-72 1 -107.5 35.5t-35.5 97.5q0 6 0.5 12t0.5 12l-6 2q-22 -31 -63 -63.5t-92.5 -59t-111 -43.5t-118.5 -17q-47 0 -89 13.5t-74 41.5t-51 72t-19 104q0 28 4.5 66.5t12.5 73.5l151 553h246l-146 -534q-5 -24 -7.5 -45.5t-2.5 -36.5q0 -12 4 -26.5t14.5 -26.5 t28.5 -20.5t47 -8.5q34 0 75 14t80 36t71 48.5t49 51.5l141 548h245l-149 -576q-11 -49 -11 -76q0 -23 14 -32t51 -9h105l-123 -406h-191zM405 1233h631l-39 -166h-631z" horiz-adv-x="1139" glyph-name="cyrtetse"/>
<glyph unicode="Ҷ" d="M1016 542q-28 -13 -70.5 -26.5t-95 -25t-113 -18.5t-124.5 -7q-78 0 -145 17t-116.5 53t-77.5 90.5t-28 129.5q0 35 7 76.5t18 95.5l84 429h286l-70 -364q-4 -19 -7.5 -39.5t-6 -39t-4 -33t-1.5 -20.5q0 -42 14 -72t41.5 -48.5t66.5 -27t89 -8.5q40 0 83 6t83 15.5 t74.5 21.5t57.5 24l114 585h286l-215 -1104h181l-96 -492h-203l16 240h-233z" horiz-adv-x="1532" glyph-name="cyrChedesc"/>
<glyph unicode="ҷ" d="M439 899l-50 -205q-9 -38 -14.5 -68t-5.5 -56q0 -51 23.5 -75.5t78.5 -24.5q59 0 103 15.5t73 36.5l95 377h252l-175 -714h168l-131 -390h-192l61 205h-200l83 352q-17 -9 -42 -21t-57.5 -22.5t-73.5 -17.5t-89 -7q-53 0 -98 10t-78 33.5t-52 61.5t-19 95q0 24 3 51 t11 59l74 305h252z" horiz-adv-x="1075" glyph-name="cyrchedesc"/>
<glyph unicode="Ҹ" d="M671 467q-10 -1 -28.5 -1.5t-34.5 -0.5q-78 0 -143.5 15.5t-114 48t-76 83.5t-28.5 123q0 12 2 34t5 46t7 47t7 38l89 456h286l-65 -339q-2 -10 -6 -35.5t-8.5 -53t-8 -52t-3.5 -32.5q-1 -73 42.5 -105.5t123.5 -34.5l44 226h194l-42 -215q51 6 101 20.5t83 31.5l114 589 h287l-264 -1356h-287l106 542q-29 -15 -76.5 -29t-107.5 -25l-49 -255h-194z" horiz-adv-x="1532" glyph-name="cyrChevertbar"/>
<glyph unicode="ҹ" d="M385 286q-13 -2 -26 -2h-27q-59 0 -104.5 11t-77 35t-48 62.5t-16.5 93.5q0 24 3 51t11 57l74 305h252l-52 -212q-12 -50 -19 -81.5t-7 -54.5q0 -45 22.5 -63t59.5 -18l55 224h148l-54 -214q38 8 66 20t47 23l90 376h254l-217 -899h-254l86 352q-33 -18 -113 -41 l-49 -205h-147z" horiz-adv-x="1075" glyph-name="cyrchevertbar"/>
<glyph unicode="Һ" d="M1000 0l63 326q1 8 5 28t8.5 43.5t7.5 46.5t3 38q0 45 -14.5 78t-52.5 56q-40 24 -90 29.5t-98 5.5q-41 0 -86 -5t-88.5 -14t-84 -21.5t-72.5 -26.5l-114 -584h-287l264 1356h287l-106 -545q29 14 80 28.5t111.5 26t126.5 18.5t125 7q39 0 82.5 -3.5t86 -13t81 -25 t65.5 -39.5q42 -37 64 -88.5t23 -126.5q0 -14 -3.5 -43t-8.5 -65.5t-11.5 -76t-13.5 -74.5l-66 -336h-287z" horiz-adv-x="1532" glyph-name="cyrH"/>
<glyph unicode="һ" d="M645 0l115 514q8 38 12.5 60.5t4.5 42.5q0 26 -8 43t-21 27.5t-29.5 15t-33.5 4.5q-45 0 -90.5 -20t-85 -49.5t-69.5 -64t-45 -63.5v4l-111 -514h-246l310 1377h246l-147 -630h3v-5q27 28 63.5 60.5t80.5 59.5t96.5 45t111.5 18q48 0 90.5 -11t74.5 -36t50.5 -65.5 t18.5 -99.5q0 -67 -21 -161l-124 -552h-246z" horiz-adv-x="1139" glyph-name="cyrh"/>
<glyph unicode="Ҽ" d="M734 562q-2 -87 26.5 -150.5t81 -105t125.5 -61.5t161 -20q94 0 189.5 26t181.5 71l24 -241q-44 -23 -99 -43t-116.5 -34.5t-127 -22.5t-131.5 -8q-138 0 -253 35.5t-198 110.5q-39 36 -69.5 85t-50.5 107t-28 122t-2 129h-72q-87 0 -145.5 20t-94 54t-50 78t-14.5 92 q0 38 7 68.5t19 55t27 44.5t31 37h242q-31 -32 -47.5 -68t-16.5 -67q0 -14 5.5 -30t22.5 -29t48.5 -19.5t83.5 -1.5q36 118 111 224.5t178 187t229 127.5t263 47q114 0 205.5 -32t155 -92t98 -147t34.5 -198q0 -30 -4 -70t-13.5 -86t-25 -96t-38.5 -99h-953zM1476 798 q6 17 15 48.5t9 69.5q0 49 -17 91t-50 73t-82 48.5t-112 17.5q-76 0 -149.5 -22t-135.5 -65.5t-108 -108.5t-66 -152h696z" horiz-adv-x="1788" glyph-name="cyrIehook"/>
<glyph unicode="ҽ" d="M988 86q-63 -46 -159.5 -78.5t-228.5 -32.5q-83 0 -144 25t-101.5 70.5t-60.5 109t-20 139.5q0 10 0.5 18t1 15t1 14.5t1.5 18.5q-69 0 -118 16.5t-80 44t-45.5 63t-14.5 74.5q0 32 9 60.5t24 52t34 41.5t40 30h211q-13 -8 -30.5 -23t-33.5 -34.5t-27.5 -42t-11.5 -44.5 q0 -11 3.5 -25t13 -26t25.5 -20.5t42 -8.5q35 90 90 160.5t122.5 120t145 75.5t158.5 26q85 0 139 -19.5t85.5 -51t43.5 -71t12 -78.5q0 -90 -53 -157.5t-155 -107.5q-66 -26 -140.5 -39t-177.5 -13q-15 0 -30.5 1t-30.5 1q-4 -14 -6 -30t-2 -30q0 -33 6 -63.5t23 -54.5 t47 -38t78 -14q45 0 84 8t72 20t59.5 26t44.5 26zM565 530q57 0 112.5 7t99.5 24t71 46t27 74q0 9 -2.5 20.5t-10.5 21t-23 16t-40 6.5q-45 0 -81 -16.5t-65 -45.5t-51 -68t-37 -85z" horiz-adv-x="1139" glyph-name="cyriehook"/>
<glyph unicode="Ҿ" d="M734 562q-2 -87 26.5 -150.5t81 -105t125.5 -61.5t161 -20q94 0 189.5 26t181.5 71l24 -241q-38 -20 -84 -37.5t-97 -31t-105.5 -23t-110.5 -13.5l-89 -313h-183l22 326q-84 16 -155 48.5t-126 83.5q-39 36 -69 85t-49 106.5t-27 121t-2 128.5h-72q-87 0 -145.5 20 t-94 54t-50 78t-14.5 92q0 38 6.5 68.5t18 55t27 44.5t32.5 37h242q-31 -32 -47.5 -68t-16.5 -67q0 -14 5.5 -30t22.5 -29t48.5 -19.5t83.5 -1.5q36 118 111 224.5t178 187t229 127.5t263 47q114 0 205.5 -32t155 -92t98 -147t34.5 -198q0 -30 -4 -64.5t-13.5 -77t-25 -94 t-38.5 -115.5h-953zM1476 798q3 8 7 17.5t8 23t6.5 32t2.5 45.5q0 49 -17 91t-50 73t-82 48.5t-112 17.5q-76 0 -149.5 -22t-135.5 -65.5t-108 -108.5t-66 -152h696z" horiz-adv-x="1788" glyph-name="cyrIehookogonek"/>
<glyph unicode="ҿ" d="M988 86q-50 -36 -119.5 -64.5t-161.5 -39.5l-50 -296h-237l87 299q-59 13 -103 42.5t-73 73t-43 98.5t-14 120q0 10 0.5 18t1 15t1 14.5t1.5 18.5q-69 0 -118 16.5t-80 44t-45.5 63t-14.5 74.5q0 32 9 60.5t24 52t34 41.5t40 30h211q-13 -8 -30.5 -23t-33.5 -34.5 t-27.5 -42t-11.5 -44.5q0 -11 3.5 -25t13 -26t25.5 -20.5t42 -8.5q35 90 90 160.5t122.5 120t145 75.5t158.5 26q85 0 139 -19.5t85.5 -51t43.5 -71t12 -78.5q0 -90 -53 -157.5t-155 -107.5q-66 -26 -140.5 -39t-177.5 -13q-15 0 -30.5 1t-30.5 1q-4 -14 -6 -30t-2 -30 q0 -33 6 -63.5t23 -54.5t47 -38t78 -14q45 0 84 8t72 20t59.5 26t44.5 26zM565 530q57 0 112.5 7t99.5 24t71 46t27 74q0 9 -2.5 20.5t-10.5 21t-23 16t-40 6.5q-45 0 -81 -16.5t-65 -45.5t-51 -68t-37 -85z" horiz-adv-x="1139" glyph-name="cyriehookogonek"/>
<glyph unicode="Ӏ" d="M441 1356h283l-261 -1356h-283z" horiz-adv-x="797" glyph-name="cyrI"/>
<glyph unicode="Ӄ" d="M1029 237q0 94 -31.5 158t-85.5 104q-53 39 -124 56.5t-157 17.5h-134l-111 -573h-286l264 1356h286l-116 -597l91 30l550 567h327l-550 -541l-108 -83l92 -3q34 -9 67.5 -21t66 -28.5t64 -39t62.5 -54.5t53.5 -71t37 -82.5t21 -90t5.5 -92.5q-4 -125 -41 -236.5 t-124 -211.5q-44 -50 -99.5 -89t-117 -66t-125 -41.5t-121.5 -14.5q-31 0 -63.5 3t-56.5 8l44 229q15 -2 32.5 -2h32.5q79 0 146 26.5t118 84.5q44 50 67.5 125t23.5 172z" horiz-adv-x="1389" glyph-name="cyrKahook"/>
<glyph unicode="ӄ" d="M38 0l217 899h252l-96 -390l71 25l318 365h278l-323 -354l-115 -58l78 -3q41 -11 76 -34t61 -58q13 -18 24 -40.5t18.5 -47.5t11.5 -50.5t4 -48.5q0 -17 -2.5 -56.5t-14 -92t-34 -112.5t-62.5 -119q-68 -100 -162 -148.5t-208 -48.5q-15 0 -33.5 0.5t-38 2t-38.5 4 t-35 5.5l50 184q4 -1 13 -1.5t19 -0.5h18.5h13.5q35 -1 65.5 8.5t55.5 27.5t45.5 43t36.5 55q26 50 38.5 109.5t12.5 119.5q0 46 -15.5 83t-47.5 60q-28 20 -66.5 27.5t-76.5 7.5h-69l-88 -363h-252z" horiz-adv-x="1038" glyph-name="cyrkahook"/>
<glyph unicode="Ӆ" d="M899 -252l143 252h-190l215 1104h-316q-41 -159 -76 -304.5t-74 -270t-85.5 -225t-109.5 -171.5q-40 -45 -81.5 -74t-81.5 -45.5t-78 -22.5t-71 -6q-40 0 -72.5 7.5t-61.5 22.5l78 240q20 -7 48 -7q29 0 59 13.5t63 48.5q36 39 73.5 119.5t76.5 208.5t81.5 306t89.5 412 h873l-218 -1116h209l-12 -62l-283 -430h-199z" horiz-adv-x="1405" glyph-name="cyrEltail"/>
<glyph unicode="ӆ" d="M828 212h181l-12 -56l-279 -390h-184l145 234h-152l168 692h-209q-44 -165 -82 -295.5t-84 -221t-107 -138.5t-151 -48q-54 0 -89 8t-56 24l80 211q10 -3 25.5 -6t28.5 -2q38 1 67 34t57 111t60.5 207.5t78.5 323.5h682z" horiz-adv-x="1051" glyph-name="cyreltail"/>
<glyph unicode="Ӈ" d="M1317 -35q-17 -88 -48 -156.5t-78 -118.5q-93 -99 -259 -99q-34 0 -66 4t-70 11l44 225q55 -5 89 3.5t55 29.5t32 53.5t20 76.5l110 566h-651l-109 -560h-286l264 1356h286l-106 -545h651l106 545h286z" horiz-adv-x="1593" glyph-name="cyrEnhook"/>
<glyph unicode="ӈ" d="M507 899l-84 -336h339l82 336h254l-227 -937q-40 -162 -130.5 -249t-242.5 -87q-28 0 -58.5 2.5t-62.5 9.5l47 200q50 -4 84 5t57 30t37 53.5t25 75.5l86 348h-339l-84 -350h-252l217 899h252z" horiz-adv-x="1137" glyph-name="cyrenhook"/>
<glyph unicode="Ӊ" d="M1131 560h-636l-109 -560h-286l264 1356h286l-106 -545h636l106 545h287l-217 -1116h216l-12 -62l-283 -430h-200l145 252h-200z" horiz-adv-x="1593" glyph-name="cyrEntail"/>
<glyph unicode="ӊ" d="M691 350h-317l-84 -350h-252l217 899h252l-84 -336h317l82 336h254l-168 -687h195l-13 -56l-278 -390h-184l145 234h-168z" horiz-adv-x="1137" glyph-name="cyrentail"/>
<glyph unicode="Ӌ" d="M640 1356l-55 -285q-2 -9 -7 -34.5t-10.5 -57t-10 -63.5t-4.5 -53q0 -82 42 -120.5t140 -38.5q40 0 85.5 3.5t92.5 11.5t93.5 20.5t90.5 31.5l114 585h287l-264 -1356h-250l-76 -240h-205l96 492h197l56 290q-33 -17 -82.5 -31t-108 -24t-123.5 -16t-129 -6 q-78 0 -144.5 17t-115 52.5t-76.5 90t-28 129.5q0 10 3 32.5t7.5 50t9.5 57t10 55.5l79 407h286z" horiz-adv-x="1532" glyph-name="cyrChedescleft"/>
<glyph unicode="ӌ" d="M658 372q-18 -10 -49 -20.5t-71.5 -19t-88 -14t-98.5 -5.5q-117 0 -181 48.5t-64 143.5q0 23 3 50.5t11 57.5l70 286h251l-45 -185q-8 -34 -13 -61.5t-5 -50.5q0 -48 23.5 -71.5t80.5 -23.5q28 0 60.5 4t62.5 10.5t55.5 15t40.5 17.5l84 345h251l-217 -899h-245l-60 -205 h-213l113 381h194z" horiz-adv-x="1075" glyph-name="cyrchedescleft"/>
<glyph unicode="Ӎ" d="M1368 680l72 241h-5l-126 -171l-419 -508h-89l-230 508l-49 169h-6l-27 -237l-133 -682h-271l264 1356h260l255 -626l47 -119h9l87 123l502 622h278l-217 -1116h226l-12 -62l-284 -430h-199l143 252h-208z" horiz-adv-x="1821" glyph-name="cyrEmtail"/>
<glyph unicode="ӎ" d="M968 412l47 167h-10l-104 -135l-249 -279h-92l-121 279l-47 135h-12l-19 -165l-98 -414h-227l217 899h240l139 -338l37 -113h6l89 117l285 334h279l-168 -687h185l-12 -56l-279 -390h-184l145 234h-146z" horiz-adv-x="1403" glyph-name="cyremtail"/>
<glyph unicode="ӏ" d="M298 1356h246l-267 -1356h-246z" horiz-adv-x="569" glyph-name="uni04CF"/>
<glyph unicode="Ӑ" d="M959 288h-548l-172 -288h-299l838 1365h211l327 -1365h-292zM546 515h362l-63 283l-27 175h-8l-96 -177zM756 1748q13 -58 46 -84.5t99 -26.5q70 0 119.5 27t68.5 82l237 -33q-56 -125 -161.5 -186t-278.5 -61q-171 0 -264 58.5t-105 182.5z" horiz-adv-x="1366" glyph-name="cyrAcyrbreve"/>
<glyph unicode="ӑ" d="M863 359q-14 -60 -19 -122.5t-5 -117.5q0 -35 2.5 -68t4.5 -53h-181l-32 150h-8q-22 -30 -54.5 -60.5t-72 -55.5t-84.5 -40.5t-93 -15.5q-66 0 -116.5 21.5t-85 60.5t-52 95t-17.5 125q0 77 16.5 155.5t50.5 150t85 134t119.5 108.5t154.5 72.5t190 26.5q69 0 152.5 -12 t162.5 -30zM411 184q36 0 66.5 12.5t54.5 31.5t43 41.5t33 41.5l90 390q-23 8 -50 11.5t-55 3.5q-71 0 -125 -34.5t-91.5 -88.5t-56.5 -120.5t-19 -130.5q0 -74 26.5 -116t83.5 -42zM573 1266q2 -59 32.5 -93.5t81.5 -34.5q27 0 53.5 7t50 22t43.5 39t35 58l180 -44 q-26 -65 -66 -109.5t-90 -71.5t-108.5 -38.5t-120.5 -11.5q-60 0 -112.5 12.5t-90.5 40.5t-59 72t-16 106z" glyph-name="cyracyrbreve"/>
<glyph unicode="Ӓ" d="M959 288h-548l-172 -288h-299l838 1365h211l327 -1365h-292zM546 515h362l-63 283l-27 175h-8l-96 -177zM520 1585q0 53 38 84.5t123 31.5q81 0 119 -31.5t38 -84.5q0 -50 -38 -80t-119 -30q-85 0 -123 30t-38 80zM971 1585q0 53 38 84.5t119 31.5q85 0 123 -31.5 t38 -84.5q0 -50 -38 -80t-123 -30q-81 0 -119 30t-38 80z" horiz-adv-x="1366" glyph-name="cyrAdieresis"/>
<glyph unicode="ӓ" d="M863 359q-14 -60 -19 -122.5t-5 -117.5q0 -35 2.5 -68t4.5 -53h-181l-32 150h-8q-22 -30 -54.5 -60.5t-72 -55.5t-84.5 -40.5t-93 -15.5q-66 0 -116.5 21.5t-85 60.5t-52 95t-17.5 125q0 77 16.5 155.5t50.5 150t85 134t119.5 108.5t154.5 72.5t190 26.5q69 0 152.5 -12 t162.5 -30zM411 184q36 0 66.5 12.5t54.5 31.5t43 41.5t33 41.5l90 390q-23 8 -50 11.5t-55 3.5q-71 0 -125 -34.5t-91.5 -88.5t-56.5 -120.5t-19 -130.5q0 -74 26.5 -116t83.5 -42zM342 1185q0 60 37.5 93.5t97.5 33.5q59 0 97 -33.5t38 -93.5q0 -58 -38 -90t-97 -32 q-60 0 -97.5 32t-37.5 90zM768 1187q0 58 37.5 91.5t97.5 33.5q59 0 97 -33.5t38 -91.5t-38 -91t-97 -33q-60 0 -97.5 33t-37.5 91z" glyph-name="cyradieresis"/>
<glyph unicode="Ӕ" d="M971 960l-112 -139l-222 -269h258l80 408h-4zM850 320h-391l-268 -320h-306l1158 1356h932l-49 -252h-636l-58 -295h584l-49 -251h-584l-59 -306h646l-49 -252h-933z" horiz-adv-x="1933" glyph-name="cyrAE"/>
<glyph unicode="ӕ" d="M602 401q-17 2 -34 2h-34q-117 0 -181.5 -33t-64.5 -104q0 -49 26.5 -70t59.5 -21q37 0 69.5 11.5t59 29.5t47 39.5t34.5 41.5zM608 139q-24 -29 -58 -56.5t-76 -49t-92.5 -34.5t-107.5 -13q-67 0 -113.5 19.5t-76 51t-43 72t-13.5 83.5q0 84 37 147.5t98 103.5 q69 45 173.5 62.5t228.5 17.5h34t34 -2q11 33 16.5 59.5t5.5 46.5q0 44 -40.5 64.5t-114.5 20.5q-68 0 -134 -14.5t-131 -37.5l-36 167q83 37 183 53.5t202 16.5q47 0 90.5 -6.5t79.5 -19.5t62.5 -33.5t39.5 -47.5q18 21 51 41.5t74 37t88 26.5t93 10q87 0 143 -20.5 t89 -52.5t46 -72t13 -80q0 -100 -50.5 -163.5t-135 -99t-196 -47.5t-234.5 -9q-2 -14 -3 -28t-1 -26q0 -81 49 -124t134 -43q79 0 145 21.5t111 47.5l47 -154q-36 -24 -82.5 -42.5t-99 -31.5t-107.5 -19.5t-106 -6.5q-67 0 -116.5 11t-85.5 32t-61 51.5t-43 69.5h-10z M878 525q66 -1 125.5 2t105.5 17t73 41.5t27 76.5q0 15 -4 30t-15.5 27t-32 19t-54.5 7q-55 0 -94.5 -23.5t-66.5 -58t-42.5 -72.5t-21.5 -66z" horiz-adv-x="1479" glyph-name="cyrae"/>
<glyph unicode="Ӗ" d="M392 1356h1013l-49 -252h-726l-58 -295h661l-49 -251h-661l-59 -306h735l-49 -252h-1022zM798 1748q13 -58 46 -84.5t99 -26.5q70 0 119.5 27t68.5 82l237 -33q-56 -125 -161.5 -186t-278.5 -61q-171 0 -264 58.5t-105 182.5z" horiz-adv-x="1366" glyph-name="cyrIecyrbreve"/>
<glyph unicode="ӗ" d="M773 99q-32 -23 -70.5 -45.5t-85 -39.5t-101 -27.5t-117.5 -10.5q-81 0 -148 23t-114 66.5t-73 106.5t-26 143q0 140 47 253t123.5 192.5t173.5 122t198 42.5q83 0 141 -18t94.5 -49.5t53 -73.5t16.5 -91q0 -77 -38 -136t-108.5 -99.5t-171 -61t-224.5 -20.5 q-14 0 -28.5 0.5t-31.5 1.5q-5 -11 -6 -25t-1 -25q0 -73 47.5 -108.5t133.5 -35.5q44 0 84 8t73.5 20t59 25.5t42.5 24.5zM548 722q-41 0 -75.5 -13.5t-63 -37.5t-50.5 -57t-37 -71q93 0 156 6t102 19.5t56 35t17 51.5q0 10 -3 22t-14 22t-31.5 16.5t-56.5 6.5zM496 1266 q2 -59 32.5 -93.5t81.5 -34.5q27 0 53.5 7t50 22t43.5 39t35 58l180 -44q-26 -65 -66 -109.5t-90 -71.5t-108.5 -38.5t-120.5 -11.5q-60 0 -112.5 12.5t-90.5 40.5t-59 72t-16 106z" horiz-adv-x="909" glyph-name="cyriecyrbreve"/>
<glyph unicode="Ә" d="M424 564q-3 -7 -6 -19t-5.5 -26t-4.5 -30t-2 -31q0 -52 16.5 -98t54.5 -82q36 -34 92 -51.5t116 -17.5q73 0 144 22.5t129.5 67t101 111t59.5 154.5h-695zM1165 800q6 76 -13 137.5t-62 104.5t-110 66t-157 23q-50 0 -110 -7t-119 -19t-112.5 -29t-91.5 -36l-9 244 q56 25 120 43.5t130.5 30.5t134 18t130.5 6q121 0 223 -35t175 -103t114 -167.5t41 -228.5q0 -116 -24 -226t-71 -207t-116 -178.5t-159.5 -140t-201 -91t-239.5 -32.5q-54 0 -108 9.5t-104 27.5t-94 44t-77 59q-68 67 -102.5 158t-34.5 200q0 73 16 155t51 174h980z" horiz-adv-x="1479" glyph-name="cyrinvE"/>
<glyph unicode="ә" d="M162 844q66 32 152.5 56.5t190.5 24.5q97 0 163.5 -23.5t107.5 -65t59.5 -97.5t18.5 -121q0 -137 -39.5 -246.5t-107.5 -197.5q-38 -49 -86 -86.5t-99.5 -62.5t-104 -37.5t-99.5 -12.5q-75 0 -127 10.5t-94 36.5q-48 30 -71.5 78.5t-23.5 107.5q0 68 32 133.5t99 110.5 q25 17 55.5 31.5t68.5 25.5t86 17t109 6q35 0 72.5 -2t77.5 -5q4 19 6 35.5t2 31.5q0 80 -43 113.5t-128 33.5q-75 0 -128 -17.5t-94 -34.5zM565 381q-32 4 -65 6.5t-64 2.5q-54 0 -89.5 -13t-57 -33.5t-30.5 -44.5t-9 -46q0 -39 25 -66t84 -27q37 0 68.5 16.5t57 45.5 t45.5 70t35 89z" horiz-adv-x="909" glyph-name="cyrinve"/>
<glyph unicode="Ӛ" d="M424 564q-3 -7 -6 -19t-5.5 -26t-4.5 -30t-2 -31q0 -52 16.5 -98t54.5 -82q36 -34 92 -51.5t116 -17.5q73 0 144 22.5t129.5 67t101 111t59.5 154.5h-695zM1165 800q6 76 -13 137.5t-62 104.5t-110 66t-157 23q-50 0 -110 -7t-119 -19t-112.5 -29t-91.5 -36l-9 244 q56 25 120 43.5t130.5 30.5t134 18t130.5 6q121 0 223 -35t175 -103t114 -167.5t41 -228.5q0 -116 -24 -226t-71 -207t-116 -178.5t-159.5 -140t-201 -91t-239.5 -32.5q-54 0 -108 9.5t-104 27.5t-94 44t-77 59q-68 67 -102.5 158t-34.5 200q0 73 16 155t51 174h980z M500 1585q0 53 38 84.5t123 31.5q81 0 119 -31.5t38 -84.5q0 -50 -38 -80t-119 -30q-85 0 -123 30t-38 80zM951 1585q0 53 38 84.5t119 31.5q85 0 123 -31.5t38 -84.5q0 -50 -38 -80t-123 -30q-81 0 -119 30t-38 80z" horiz-adv-x="1479" glyph-name="cyrinvEdieresis"/>
<glyph unicode="ӛ" d="M162 844q66 32 152.5 56.5t190.5 24.5q97 0 163.5 -23.5t107.5 -65t59.5 -97.5t18.5 -121q0 -137 -39.5 -246.5t-107.5 -197.5q-38 -49 -86 -86.5t-99.5 -62.5t-104 -37.5t-99.5 -12.5q-75 0 -127 10.5t-94 36.5q-48 30 -71.5 78.5t-23.5 107.5q0 68 32 133.5t99 110.5 q25 17 55.5 31.5t68.5 25.5t86 17t109 6q35 0 72.5 -2t77.5 -5q4 19 6 35.5t2 31.5q0 80 -43 113.5t-128 33.5q-75 0 -128 -17.5t-94 -34.5zM565 381q-32 4 -65 6.5t-64 2.5q-54 0 -89.5 -13t-57 -33.5t-30.5 -44.5t-9 -46q0 -39 25 -66t84 -27q37 0 68.5 16.5t57 45.5 t45.5 70t35 89zM184 1185q0 60 37.5 93.5t97.5 33.5q59 0 97 -33.5t38 -93.5q0 -58 -38 -90t-97 -32q-60 0 -97.5 32t-37.5 90zM610 1187q0 58 37.5 91.5t97.5 33.5q59 0 97 -33.5t38 -91.5t-38 -91t-97 -33q-60 0 -97.5 33t-37.5 91z" horiz-adv-x="909" glyph-name="cyrinvedieresis"/>
<glyph unicode="Ӝ" d="M1001 1356h272l-117 -599l99 27l457 572h338l-506 -612l-64 -68l56 -83l309 -593h-327l-296 582h-100l-113 -582h-272l118 606l-94 -27l-493 -579h-346l542 619l80 78l-47 72l-288 587h326l253 -576h101zM770 1585q0 53 38 84.5t123 31.5q81 0 119 -31.5t38 -84.5 q0 -50 -38 -80t-119 -30q-85 0 -123 30t-38 80zM1221 1585q0 53 38 84.5t119 31.5q85 0 123 -31.5t38 -84.5q0 -50 -38 -80t-123 -30q-81 0 -119 30t-38 80z" horiz-adv-x="1880" glyph-name="cyrZhedieresis"/>
<glyph unicode="ӝ" d="M1187 546q30 99 69.5 167t86.5 110.5t101 61.5t113 19q49 0 88.5 -7.5t71 -20t55 -29.5t40.5 -36l-86 -171q-26 24 -56.5 38t-74.5 14q-40 0 -72 -17.5t-56.5 -46.5t-41.5 -67t-28 -78.5t-16 -81t-5 -74.5q0 -37 9.5 -61.5t25 -39t35.5 -20.5t42 -6q24 0 43 3.5 t34.5 10.5t29 16.5t27.5 20.5l80 -176q-51 -38 -115.5 -61t-158.5 -23q-144 0 -211 67.5t-67 214.5q0 18 2 43t4 43h-208l-82 -359h-236l81 359h-199q-30 -99 -71.5 -168.5t-91 -114t-105.5 -65t-114 -20.5q-99 0 -164.5 30t-100.5 73l92 186q22 -24 57.5 -43.5t85.5 -19.5 q60 0 102.5 35.5t68.5 88.5t38 114.5t12 112.5q0 74 -30 103.5t-75 29.5q-46 0 -78.5 -14t-61.5 -37l-71 170q25 19 52.5 34.5t62 26.5t78 17t102.5 6q121 0 184 -67.5t63 -214.5q0 -18 -1 -38t-3 -38h208l82 354h236l-81 -354h199zM621 1185q0 60 37.5 93.5t97.5 33.5 q59 0 97 -33.5t38 -93.5q0 -58 -38 -90t-97 -32q-60 0 -97.5 32t-37.5 90zM1047 1187q0 58 37.5 91.5t97.5 33.5q59 0 97 -33.5t38 -91.5t-38 -91t-97 -33q-60 0 -97.5 33t-37.5 91z" horiz-adv-x="1950" glyph-name="cyrzhedieresis"/>
<glyph unicode="Ӟ" d="M297 595l42 218h86q163 0 252 43t89 138q0 30 -9 56.5t-30.5 45.5t-57 30t-88.5 11q-46 0 -85 -5.5t-72.5 -14.5t-62 -20.5t-54.5 -22.5l-69 218q23 10 68 25t103.5 28.5t126 23.5t135.5 10q79 0 152.5 -14t129.5 -49t89.5 -96.5t33.5 -155.5q0 -56 -18.5 -109t-55 -97.5 t-91 -78t-126.5 -49.5l-2 -11q45 -8 84 -30t67 -57t44 -83t16 -106q0 -116 -46 -204t-126.5 -147t-188.5 -89t-232 -30q-84 0 -148 11.5t-111.5 27t-79 32t-49.5 25.5l107 231q33 -17 65.5 -31t68.5 -23.5t75.5 -15t86.5 -5.5q49 0 100 11t92 36.5t67 66.5t26 101 q0 24 -6 45.5t-21 39t-40 31t-64 21.5q-63 13 -121.5 15.5t-121.5 2.5h-30zM283 1585q0 53 38 84.5t123 31.5q81 0 119 -31.5t38 -84.5q0 -50 -38 -80t-119 -30q-85 0 -123 30t-38 80zM734 1585q0 53 38 84.5t119 31.5q85 0 123 -31.5t38 -84.5q0 -50 -38 -80t-123 -30 q-81 0 -119 30t-38 80z" horiz-adv-x="1042" glyph-name="cyrZedieresis"/>
<glyph unicode="ӟ" d="M194 372l41 174h102q40 0 72.5 7t56 20t36.5 31t13 41q0 14 -4 27t-16.5 23.5t-36 17t-61.5 6.5q-68 0 -115.5 -17.5t-77.5 -32.5l-51 179q67 32 154 50t179 18q81 0 135.5 -15t88 -42t48 -65.5t14.5 -86.5q0 -40 -13 -74.5t-35.5 -63.5t-52.5 -51.5t-65 -37.5 q32 -12 54 -29.5t35.5 -40t19 -48t5.5 -53.5q0 -77 -34 -138t-94.5 -103t-145 -64.5t-184.5 -22.5q-94 0 -163 20.5t-119 55.5l89 183q37 -21 89 -37t127 -16q92 0 138.5 32.5t46.5 83.5q0 16 -8.5 28.5t-29.5 21.5t-58 14t-94 5h-86zM124 1185q0 60 37.5 93.5t97.5 33.5 q59 0 97 -33.5t38 -93.5q0 -58 -38 -90t-97 -32q-60 0 -97.5 32t-37.5 90zM550 1187q0 58 37.5 91.5t97.5 33.5q59 0 97 -33.5t38 -91.5t-38 -91t-97 -33q-60 0 -97.5 33t-37.5 91z" horiz-adv-x="799" glyph-name="cyrzedieresis"/>
<glyph unicode="Ӡ" d="M417 225q67 0 123.5 13t97 40.5t63 70t22.5 102.5q0 84 -70 122.5t-227 38.5h-167l24 124l362 312l100 80l-118 -21h-384l49 249h837l-31 -159l-375 -343l-106 -63l-1 -3l99 12q44 0 98.5 -19t102 -58t80 -98.5t32.5 -139.5q0 -112 -45.5 -206t-129.5 -162t-203 -106 t-267 -38q-46 0 -96 3.5t-100.5 13t-98.5 25.5t-90 40l116 242q27 -14 62 -27t75 -23t82.5 -16t83.5 -6z" horiz-adv-x="1107" glyph-name="cyrDze"/>
<glyph unicode="ӡ" d="M210 -196q69 0 128.5 18t103.5 51.5t69 81t25 106.5q0 43 -12 74t-43.5 50.5t-85.5 28.5t-138 9h-102l23 84l305 330l133 93l-146 -16h-321l45 185h762l-31 -125l-354 -337l-90 -52v-4l61 5q44 -1 89.5 -18.5t82 -50.5t60 -81.5t23.5 -111.5q0 -120 -48.5 -214 t-131 -158.5t-192.5 -98.5t-233 -34q-97 0 -183.5 21t-142.5 63l103 170q23 -14 52 -26t60.5 -22t64.5 -15.5t64 -5.5z" horiz-adv-x="965" glyph-name="cyrdze"/>
<glyph unicode="Ӣ" d="M1180 707l49 184h-7l-174 -183l-726 -708h-212l264 1356h286l-140 -719l-51 -171h10l138 167l754 723h216l-264 -1356h-288zM643 1675h723v-179h-723v179z" horiz-adv-x="1593" glyph-name="cyrImacron"/>
<glyph unicode="ӣ" d="M474 900l-119 -509q-5 -24 -10.5 -47t-5.5 -51q0 -44 24 -67.5t89 -23.5q39 0 79.5 14t77 36t65.5 48.5t46 51.5l121 548h246l-121 -540q-7 -30 -13 -69t-10.5 -81t-7 -82.5t-2.5 -72.5q0 -14 0.5 -24.5t2.5 -30.5h-197l-14 171l-3 1q-28 -33 -68 -68t-89 -63.5 t-104.5 -46.5t-114.5 -18q-47 0 -94.5 12t-85.5 40t-62 73.5t-24 111.5q0 39 8 82.5t16 78.5l124 526h246zM421 1233h631l-39 -166h-631z" horiz-adv-x="1139" glyph-name="cyrimacron"/>
<glyph unicode="Ӥ" d="M1180 707l49 184h-7l-174 -183l-726 -708h-212l264 1356h286l-140 -719l-51 -171h10l138 167l754 723h216l-264 -1356h-288zM625 1585q0 53 38 84.5t123 31.5q81 0 119 -31.5t38 -84.5q0 -50 -38 -80t-119 -30q-85 0 -123 30t-38 80zM1076 1585q0 53 38 84.5t119 31.5 q85 0 123 -31.5t38 -84.5q0 -50 -38 -80t-123 -30q-81 0 -119 30t-38 80z" horiz-adv-x="1593" glyph-name="cyrIdieresis"/>
<glyph unicode="ӥ" d="M474 900l-119 -509q-5 -24 -10.5 -47t-5.5 -51q0 -44 24 -67.5t89 -23.5q39 0 79.5 14t77 36t65.5 48.5t46 51.5l121 548h246l-121 -540q-7 -30 -13 -69t-10.5 -81t-7 -82.5t-2.5 -72.5q0 -14 0.5 -24.5t2.5 -30.5h-197l-14 171l-3 1q-28 -33 -68 -68t-89 -63.5 t-104.5 -46.5t-114.5 -18q-47 0 -94.5 12t-85.5 40t-62 73.5t-24 111.5q0 39 8 82.5t16 78.5l124 526h246zM356 1185q0 60 37.5 93.5t97.5 33.5q59 0 97 -33.5t38 -93.5q0 -58 -38 -90t-97 -32q-60 0 -97.5 32t-37.5 90zM782 1187q0 58 37.5 91.5t97.5 33.5q59 0 97 -33.5 t38 -91.5t-38 -91t-97 -33q-60 0 -97.5 33t-37.5 91z" horiz-adv-x="1139" glyph-name="cyridieresis"/>
<glyph unicode="Ӧ" d="M118 516q-2 106 19 211.5t65 201.5t110.5 178.5t154 143.5t195.5 95.5t237 35.5q135 0 239.5 -40.5t176 -114t108 -176.5t36.5 -228q0 -182 -54 -337.5t-152.5 -269.5t-235.5 -179t-303 -65q-135 0 -244 37t-186 107.5t-120 171t-46 228.5zM852 1131q-73 0 -133.5 -25 t-108.5 -67.5t-83.5 -100t-58.5 -122.5t-34 -134.5t-9 -136.5q2 -70 23 -129t59 -102t92 -67t122 -24q99 0 178 47.5t135 126.5t86 181t30 211q0 73 -18 135.5t-55 108.5t-93 72t-132 26zM552 1585q0 53 38 84.5t123 31.5q81 0 119 -31.5t38 -84.5q0 -50 -38 -80t-119 -30 q-85 0 -123 30t-38 80zM1003 1585q0 53 38 84.5t119 31.5q85 0 123 -31.5t38 -84.5q0 -50 -38 -80t-123 -30q-81 0 -119 30t-38 80z" horiz-adv-x="1479" glyph-name="cyrOdieresis"/>
<glyph unicode="ӧ" d="M56 353q0 129 42.5 234.5t116.5 180.5t173.5 116t213.5 41q90 0 158.5 -31.5t114.5 -84.5t69 -122.5t23 -145.5q0 -117 -39 -219.5t-108 -179.5t-165 -121.5t-210 -44.5q-104 0 -178 32.5t-121 85.5t-68.5 120.5t-21.5 138.5zM308 352q0 -38 10.5 -69t29 -53t44.5 -34 t57 -12q55 0 103 30t84 81t57 119t21 145q0 34 -7 63t-23 50t-42 32.5t-63 11.5q-56 0 -105 -30t-86 -80t-58.5 -116t-21.5 -138zM286 1185q0 60 37.5 93.5t97.5 33.5q59 0 97 -33.5t38 -93.5q0 -58 -38 -90t-97 -32q-60 0 -97.5 32t-37.5 90zM712 1187q0 58 37.5 91.5 t97.5 33.5q59 0 97 -33.5t38 -91.5t-38 -91t-97 -33q-60 0 -97.5 33t-37.5 91z" glyph-name="cyrodieresis"/>
<glyph unicode="Ө" d="M118 516q-2 106 19 211.5t65 201.5t110.5 178.5t154 143.5t195.5 95.5t237 35.5q135 0 239.5 -40.5t176 -114t108 -176.5t36.5 -228q0 -182 -54 -337.5t-152.5 -269.5t-235.5 -179t-303 -65q-135 0 -244 37t-186 107.5t-120 171t-46 228.5zM721 223q72 0 134.5 26.5 t112.5 72.5t87.5 109t60.5 136h-691v-22q2 -70 23 -129t59 -102t92 -67t122 -24zM852 1131q-76 0 -138.5 -27t-111.5 -73t-84.5 -107t-57.5 -130h690q-1 72 -19.5 133.5t-55 107t-92.5 71t-131 25.5z" horiz-adv-x="1479" glyph-name="cyrObar"/>
<glyph unicode="ө" d="M50 301q0 142 46.5 257.5t124 197t179 125.5t211.5 44q98 0 165.5 -29t109 -75.5t59.5 -106t18 -120.5q0 -141 -45 -255.5t-121.5 -195t-177 -124.5t-211.5 -44q-95 0 -163 29.5t-111.5 76.5t-63.5 105t-20 115zM697 520q6 34 6 70q0 72 -28 110.5t-103 38.5 q-33 0 -68 -17t-65.5 -46t-55 -69.5t-36.5 -86.5h350zM312 374q-2 -14 -2 -27v-25q0 -162 133 -162q32 0 64 15.5t60.5 43.5t52.5 67.5t40 87.5h-348z" glyph-name="cyrobar"/>
<glyph unicode="Ӫ" d="M118 516q-2 106 19 211.5t65 201.5t110.5 178.5t154 143.5t195.5 95.5t237 35.5q135 0 239.5 -40.5t176 -114t108 -176.5t36.5 -228q0 -182 -54 -337.5t-152.5 -269.5t-235.5 -179t-303 -65q-135 0 -244 37t-186 107.5t-120 171t-46 228.5zM721 223q72 0 134.5 26.5 t112.5 72.5t87.5 109t60.5 136h-691v-22q2 -70 23 -129t59 -102t92 -67t122 -24zM852 1131q-76 0 -138.5 -27t-111.5 -73t-84.5 -107t-57.5 -130h690q-1 72 -19.5 133.5t-55 107t-92.5 71t-131 25.5zM552 1585q0 53 38 84.5t123 31.5q81 0 119 -31.5t38 -84.5q0 -50 -38 -80 t-119 -30q-85 0 -123 30t-38 80zM1003 1585q0 53 38 84.5t119 31.5q85 0 123 -31.5t38 -84.5q0 -50 -38 -80t-123 -30q-81 0 -119 30t-38 80z" horiz-adv-x="1479" glyph-name="cyrObardieresis"/>
<glyph unicode="ӫ" d="M50 301q0 142 46.5 257.5t124 197t179 125.5t211.5 44q98 0 165.5 -29t109 -75.5t59.5 -106t18 -120.5q0 -141 -45 -255.5t-121.5 -195t-177 -124.5t-211.5 -44q-95 0 -163 29.5t-111.5 76.5t-63.5 105t-20 115zM697 520q6 34 6 70q0 72 -28 110.5t-103 38.5 q-33 0 -68 -17t-65.5 -46t-55 -69.5t-36.5 -86.5h350zM312 374q-2 -14 -2 -27v-25q0 -162 133 -162q32 0 64 15.5t60.5 43.5t52.5 67.5t40 87.5h-348zM286 1185q0 60 37.5 93.5t97.5 33.5q59 0 97 -33.5t38 -93.5q0 -58 -38 -90t-97 -32q-60 0 -97.5 32t-37.5 90zM712 1187 q0 58 37.5 91.5t97.5 33.5q59 0 97 -33.5t38 -91.5t-38 -91t-97 -33q-60 0 -97.5 33t-37.5 91z" glyph-name="cyrobardieresis"/>
<glyph unicode="Ӭ" d="M364 802h660q3 72 -16 132t-63.5 104t-116 68.5t-173.5 24.5t-196 -19t-191 -66l-64 233q61 26 125.5 45.5t127 32t120 19t105.5 6.5q139 0 254.5 -33t198.5 -103t128.5 -178.5t45.5 -259.5q0 -206 -66 -362.5t-181 -261.5t-269 -158t-331 -53q-75 0 -144 8t-128 22 t-107 33t-82 41l120 232q40 -22 80 -37.5t83 -26t90.5 -15.5t101.5 -5q81 0 161 19t148.5 61t120 108.5t76.5 161.5h-662zM355 1585q0 53 38 84.5t123 31.5q81 0 119 -31.5t38 -84.5q0 -50 -38 -80t-119 -30q-85 0 -123 30t-38 80zM806 1585q0 53 38 84.5t119 31.5 q85 0 123 -31.5t38 -84.5q0 -50 -38 -80t-123 -30q-81 0 -119 30t-38 80z" horiz-adv-x="1333" glyph-name="cyrEdieresis"/>
<glyph unicode="ӭ" d="M279 545h328q2 3 3 14.5t1 21.5q0 69 -41 102t-105 33q-39 0 -68.5 -3.5t-54 -9t-45.5 -13.5t-42 -17l-65 175q41 22 79.5 37t77.5 24t80.5 12.5t88.5 3.5q75 0 137 -22t106.5 -64t69.5 -103.5t25 -140.5q0 -159 -44.5 -275.5t-119.5 -193t-173 -113.5t-204 -37 q-92 0 -159.5 23.5t-118.5 58.5l99 178q37 -21 79.5 -36.5t104.5 -15.5q57 0 100 14.5t74.5 39.5t52 58.5t32.5 70.5h-332zM159 1185q0 60 37.5 93.5t97.5 33.5q59 0 97 -33.5t38 -93.5q0 -58 -38 -90t-97 -32q-60 0 -97.5 32t-37.5 90zM585 1187q0 58 37.5 91.5t97.5 33.5 q59 0 97 -33.5t38 -91.5t-38 -91t-97 -33q-60 0 -97.5 33t-37.5 91z" horiz-adv-x="850" glyph-name="cyredieresis"/>
<glyph unicode="Ӯ" d="M730 785l44 -139h12l90 147l400 563h317l-596 -825q-70 -97 -127.5 -175t-108.5 -138.5t-97 -104t-93.5 -71.5t-98 -41.5t-110.5 -13.5t-111 19.5t-87 49.5l109 216q31 -15 60.5 -24.5t62.5 -9.5q51 0 103.5 37t94.5 107l-384 974h318zM556 1675h723v-179h-723v179z" horiz-adv-x="1425" glyph-name="cyrUmacron"/>
<glyph unicode="ӯ" d="M429 412l4 -137h9l45 134l245 491h269l-456 -805q-55 -93 -109.5 -178t-110 -150t-114 -104t-120.5 -39q-43 0 -75.5 7t-60.5 24l70 193q8 -5 20.5 -5.5t26.5 -0.5q25 0 47 7.5t45 27t49 53.5t60 88l-194 882h277zM281 1233h631l-39 -166h-631z" horiz-adv-x="909" glyph-name="cyrumacron"/>
<glyph unicode="Ӱ" d="M730 785l44 -139h12l90 147l400 563h317l-596 -825q-70 -97 -127.5 -175t-108.5 -138.5t-97 -104t-93.5 -71.5t-98 -41.5t-110.5 -13.5t-111 19.5t-87 49.5l109 216q31 -15 60.5 -24.5t62.5 -9.5q51 0 103.5 37t94.5 107l-384 974h318zM547 1585q0 53 38 84.5t123 31.5 q81 0 119 -31.5t38 -84.5q0 -50 -38 -80t-119 -30q-85 0 -123 30t-38 80zM998 1585q0 53 38 84.5t119 31.5q85 0 123 -31.5t38 -84.5q0 -50 -38 -80t-123 -30q-81 0 -119 30t-38 80z" horiz-adv-x="1425" glyph-name="cyrUdieresis"/>
<glyph unicode="ӱ" d="M429 412l4 -137h9l45 134l245 491h269l-456 -805q-55 -93 -109.5 -178t-110 -150t-114 -104t-120.5 -39q-43 0 -75.5 7t-60.5 24l70 193q8 -5 20.5 -5.5t26.5 -0.5q25 0 47 7.5t45 27t49 53.5t60 88l-194 882h277zM218 1185q0 60 37.5 93.5t97.5 33.5q59 0 97 -33.5 t38 -93.5q0 -58 -38 -90t-97 -32q-60 0 -97.5 32t-37.5 90zM644 1187q0 58 37.5 91.5t97.5 33.5q59 0 97 -33.5t38 -91.5t-38 -91t-97 -33q-60 0 -97.5 33t-37.5 91z" horiz-adv-x="909" glyph-name="cyrudieresis"/>
<glyph unicode="Ӳ" d="M730 785l44 -139h12l90 147l400 563h317l-596 -825q-70 -97 -127.5 -175t-108.5 -138.5t-97 -104t-93.5 -71.5t-98 -41.5t-110.5 -13.5t-111 19.5t-87 49.5l109 216q31 -15 60.5 -24.5t62.5 -9.5q51 0 103.5 37t94.5 107l-384 974h318zM725 1697h281v-31l-211 -180h-196z M1141 1697h293v-31l-300 -180h-198z" horiz-adv-x="1425" glyph-name="cyrUdblacute"/>
<glyph unicode="ӳ" d="M429 412l4 -137h9l45 134l245 491h269l-456 -805q-55 -93 -109.5 -178t-110 -150t-114 -104t-120.5 -39q-43 0 -75.5 7t-60.5 24l70 193q8 -5 20.5 -5.5t26.5 -0.5q25 0 47 7.5t45 27t49 53.5t60 88l-194 882h277zM426 1319h230l-6 -29l-195 -204h-152zM772 1319h246 l-6 -29l-279 -204h-159z" horiz-adv-x="909" glyph-name="cyrudblacute"/>
<glyph unicode="Ӵ" d="M637 1356l-81 -419q-4 -21 -6.5 -39.5t-2.5 -35.5q-1 -82 46 -120t152 -38q47 0 96 6.5t95.5 18t88 26.5t74.5 32l112 569h287l-264 -1356h-287l105 542q-39 -16 -88 -30t-104 -24.5t-111.5 -16.5t-110.5 -6q-88 0 -160 18t-123.5 54t-80 89.5t-29.5 124.5q0 22 5.5 70.5 t18.5 115.5l82 419h286zM567 1585q0 53 38 84.5t123 31.5q81 0 119 -31.5t38 -84.5q0 -50 -38 -80t-119 -30q-85 0 -123 30t-38 80zM1018 1585q0 53 38 84.5t119 31.5q85 0 123 -31.5t38 -84.5q0 -50 -38 -80t-123 -30q-81 0 -119 30t-38 80z" horiz-adv-x="1532" glyph-name="cyrChedieresis"/>
<glyph unicode="ӵ" d="M438 900l-60 -213q-10 -34 -18 -64.5t-8 -52.5q0 -21 5.5 -37.5t19 -27t37 -16t58.5 -5.5q29 0 60.5 4t61.5 10.5t57 15t47 18.5l92 368h246l-213 -900h-245l82 341q-18 -9 -51.5 -20.5t-75.5 -21.5t-88.5 -17t-89.5 -7q-52 0 -100 11t-84.5 36t-58 66t-21.5 101 q0 23 5.5 54.5t13.5 58.5l83 298h245zM296 1185q0 60 37.5 93.5t97.5 33.5q59 0 97 -33.5t38 -93.5q0 -58 -38 -90t-97 -32q-60 0 -97.5 32t-37.5 90zM722 1187q0 58 37.5 91.5t97.5 33.5q59 0 97 -33.5t38 -91.5t-38 -91t-97 -33q-60 0 -97.5 33t-37.5 91z" horiz-adv-x="1075" glyph-name="cyrchedieresis"/>
<glyph unicode="Ӷ" d="M1308 1104h-706l-166 -852h192l-96 -492h-203l16 240h-245l264 1356h993z" horiz-adv-x="1237" glyph-name="uni04F6"/>
<glyph unicode="ӷ" d="M675 134l-99 -339h-193l62 207q-35 -12 -67 -19t-64 -7q-91 0 -152.5 22t-99 58t-53.5 82.5t-16 95.5q0 73 28 122t72.5 82t99.5 54.5t110 38.5q75 23 123 53.5t48 71.5q0 26 -16 38.5t-44 12.5q-33 0 -66 -6t-63 -16t-57 -22.5t-49 -25.5l-54 193q38 22 83 38t90 26.5 t86.5 16t73.5 5.5q67 0 117.5 -17t83.5 -46.5t49.5 -70t16.5 -86.5q0 -76 -28 -129.5t-72 -91t-99 -62t-109 -41.5q-38 -12 -69.5 -24.5t-54.5 -27t-36 -32.5t-13 -41q0 -11 3.5 -22t13 -20t26.5 -15t44 -6q40 0 72.5 6.5t58.5 17t47.5 23.5t40.5 26z" horiz-adv-x="756" glyph-name="uni04F7"/>
<glyph unicode="Ӹ" d="M1662 1356h286l-264 -1356h-286zM385 1356h287l-94 -482q11 2 34 4.5t51.5 5t58.5 4t54 1.5q125 1 218 -27t154.5 -78t92 -118.5t30.5 -148.5q0 -119 -46.5 -218t-133.5 -169.5t-212 -109.5t-282 -39q-41 0 -102 1t-127 4.5t-131 10t-113 16.5zM627 233q66 0 126 12.5 t106.5 40.5t74 74t27.5 112q0 48 -21 80t-56.5 50.5t-82 26.5t-96.5 8q-15 0 -41.5 -1.5t-54 -4t-50 -5.5t-30.5 -5l-73 -379q11 -2 31 -3.5t44 -3t49.5 -2t46.5 -0.5zM796 1585q0 53 38 84.5t123 31.5q81 0 119 -31.5t38 -84.5q0 -50 -38 -80t-119 -30q-85 0 -123 30 t-38 80zM1247 1585q0 53 38 84.5t119 31.5q85 0 123 -31.5t38 -84.5q0 -50 -38 -80t-123 -30q-81 0 -119 30t-38 80z" horiz-adv-x="1985" glyph-name="cyrYerudieresis"/>
<glyph unicode="ӹ" d="M1130 900h246l-202 -900h-246zM318 267q-3 -11 -4 -14.5t-1 -4.5q-2 -51 96 -51q40 0 78.5 11t68.5 31t48 47t18 59q0 38 -27 54t-95 16q-41 0 -80.5 -8t-65.5 -19zM391 577q42 10 100 18t118 8q84 0 135.5 -18.5t80 -48t38.5 -67t10 -76.5q0 -86 -38 -160t-107 -128.5 t-165.5 -85.5t-213.5 -31q-84 0 -139 16t-88 43t-46.5 62t-13.5 73q0 22 3 40l159 678h247zM495 1185q0 60 37.5 93.5t97.5 33.5q59 0 97 -33.5t38 -93.5q0 -58 -38 -90t-97 -32q-60 0 -97.5 32t-37.5 90zM921 1187q0 58 37.5 91.5t97.5 33.5q59 0 97 -33.5t38 -91.5 t-38 -91t-97 -33q-60 0 -97.5 33t-37.5 91z" horiz-adv-x="1421" glyph-name="cyryerudieresis"/>
<glyph unicode="Ӽ" d="M958 -33q0 27 -7 56t-18 58.5t-25 58t-28 52.5l-172 318l-86 -98l-360 -412h-316l633 707l-342 649h344l189 -374l44 -94l65 85l332 383h316l-592 -656l212 -367q16 -28 35 -66.5t35.5 -84t27 -95t10.5 -99.5q0 -89 -30 -162t-85 -125.5t-131 -81t-167 -28.5q-33 0 -66 4 t-71 11l44 225q59 -5 99 4t64.5 28t35 46t10.5 58z" horiz-adv-x="1366" glyph-name="cyrHahook"/>
<glyph unicode="ӽ" d="M818 230q28 -56 41.5 -108.5t13.5 -119.5q0 -88 -31.5 -156.5t-87 -116t-130 -72t-160.5 -24.5q-56 0 -117 11l43 183q51 -7 92 1.5t70 29.5t45 53t16 73q0 38 -6.5 71t-23.5 71l-43 90l-40 119l-87 -119l-171 -216h-293l392 460l-184 439h286l78 -192l35 -116l80 116 l156 192h295l-379 -432z" glyph-name="cyrhahook"/>
<glyph unicode="Ԑ" d="M830 593h-101q-113 -5 -187 -21.5t-117.5 -43.5t-61 -64.5t-17.5 -83.5q0 -41 18.5 -70t50 -48t74 -28t90.5 -9q45 0 84 5t77.5 15t77 23.5t82.5 31.5l34 -224q-33 -18 -77 -36.5t-97.5 -33t-115.5 -24t-130 -9.5q-111 0 -200.5 19.5t-152.5 60t-97.5 103t-34.5 148.5 q0 84 25 153.5t72 122.5t113.5 88t149.5 49l2 11q-88 34 -136.5 98t-48.5 163q0 70 22.5 126t62.5 99.5t94.5 74.5t119 51t136 29.5t145.5 9.5q62 0 117 -9.5t100.5 -23t80 -28.5t55.5 -26l-115 -229q-32 14 -62 26t-60 20.5t-61.5 13t-68.5 4.5q-134 0 -201.5 -39.5 t-67.5 -124.5q0 -45 25.5 -74t63.5 -46t81.5 -23.5t80.5 -6.5h119z" horiz-adv-x="1042" glyph-name="cyrEpsilon"/>
<glyph unicode="ԑ" d="M514 378q-62 0 -106 -9t-72 -24.5t-42 -36t-16 -44.5q-3 -43 30.5 -71t119.5 -28q77 0 145 17t119 41l20 -162q-27 -17 -63.5 -31.5t-79.5 -25.5t-91 -17.5t-97 -6.5q-101 0 -170.5 16.5t-112 46.5t-61.5 73t-19 96q0 94 64 162.5t180 100.5v7q-56 20 -82.5 63t-26.5 99 t27.5 105.5t78.5 86t124 58t164 21.5q60 0 106.5 -4.5t83.5 -12.5t66.5 -20.5t55.5 -28.5l-87 -166q-21 9 -40 17.5t-41.5 15t-52 10.5t-71.5 4q-74 0 -119.5 -30.5t-48.5 -78.5q-3 -42 30 -65.5t101 -23.5h119l-39 -154h-96z" horiz-adv-x="823" glyph-name="cyrepsilon"/>
<glyph unicode="Ԓ" d="M674 -169q6 -1 10.5 -1.5t15.5 -0.5q40 1 69.5 13.5t50 36t33.5 56.5t21 74l213 1095h-316q-41 -159 -79.5 -304.5t-81 -270t-92 -225t-112.5 -171.5q-40 -45 -81.5 -74t-81.5 -45.5t-78 -22.5t-71 -6q-40 0 -72.5 7.5t-61.5 22.5l78 240q20 -7 48 -7q29 0 59.5 13.5 t62.5 48.5q39 43 79.5 124.5t83 208t87 303t91.5 410.5h873l-271 -1391q-35 -175 -126 -274q-47 -51 -115.5 -75.5t-151.5 -24.5q-33 0 -67.5 4t-60.5 11l44 225v0z" horiz-adv-x="1405" glyph-name="uni0512"/>
<glyph unicode="ԓ" d="M1026 899l-217 -899q-46 -191 -143.5 -282.5t-249.5 -91.5q-28 0 -53.5 2.5t-57.5 9.5l48 197q50 -4 84 5.5t57.5 31t37.5 54.5t25 76l174 712h-198q-27 -102 -52.5 -192t-51.5 -166t-53.5 -136.5t-59.5 -102.5q-47 -63 -107.5 -95.5t-153.5 -32.5q-42 0 -77 7.5 t-56 19.5l78 195q15 -4 28.5 -7t27.5 -3q32 2 57.5 20t50.5 63q17 31 36 83t42 127.5t51 176t62 228.5h671z" horiz-adv-x="1051" glyph-name="uni0513"/>
<glyph unicode="Ԝ" d="M537 610l3 -170h7l78 174l396 742h185l102 -746l16 -170h8l51 174l343 742h294l-672 -1365h-193l-116 737l-18 140h-12l-73 -142l-401 -735h-204l-149 1365h284z" horiz-adv-x="1821" glyph-name="uni051C"/>
<glyph unicode="ԝ" d="M853 900l74 -458l11 -135h10l46 145l216 448h247l-497 -909h-174l-78 490l-6 108h-7l-52 -109l-289 -489h-183l-100 909h251l31 -451l-7 -141h7l69 155l255 437h176z" horiz-adv-x="1366" glyph-name="uni051D"/>
<glyph unicode="Ԥ" d="M1202 1104h-601l-215 -1104h-286l264 1356h1174l-215 -1104h171l-96 -492h-204l16 240h-223z" horiz-adv-x="1593" glyph-name="uni0524"/>
<glyph unicode="ԥ" d="M809 0h-218l135 558q6 26 9.5 47.5t3.5 39.5q0 40 -18.5 62.5t-67.5 22.5q-38 0 -73 -16.5t-66 -43t-57.5 -60t-47.5 -67.5l-131 -543h-252l217 899h190l-12 -158h8q27 34 62 67t80 59t102.5 42t130.5 16q46 0 83.5 -10.5t64 -34t41 -59.5t14.5 -87q0 -27 -3.5 -58 t-13.5 -67l-104 -424h185l-131 -390h-193z" horiz-adv-x="1139" glyph-name="uni0525"/>
<glyph unicode="Ԧ" d="M1008 378q2 10 5 26t5.5 34t4.5 37t2 35q0 38 -15.5 64.5t-43.5 43.5t-67 25t-85 8q-41 0 -86 -5t-88 -14t-79.5 -21.5t-60.5 -26.5l-114 -584h-286l264 1356h286l-106 -545q30 16 75.5 30.5t100 25.5t116 17.5t124.5 6.5q75 0 142.5 -16t118 -49t80.5 -84.5t30 -122.5 q0 -12 -2.5 -33t-5.5 -43.5t-6.5 -44t-6.5 -35.5l-40 -211h185l-96 -492h-204l16 240h-236z" horiz-adv-x="1532" glyph-name="uni0526"/>
<glyph unicode="ԧ" d="M761 -205l61 205h-187l115 514q8 38 12.5 60.5t4.5 42.5q0 26 -8 43t-21 27.5t-29.5 15t-33.5 4.5q-45 0 -89 -20t-81.5 -49.5t-66 -64t-43.5 -63.5v4l-111 -514h-246l310 1377h246l-144 -630v-5q27 28 62 60.5t77.5 59.5t93 45t109.5 18q48 0 90.5 -11t74.5 -36 t50.5 -65.5t18.5 -99.5q0 -67 -21 -161l-82 -367h162l-132 -390h-192z" horiz-adv-x="1139" glyph-name="uni0527"/>
<glyph unicode="⁄" d="M669 1379l136 -110l-1131 -1325l-138 104z" horiz-adv-x="342" glyph-name="fraction"/>
<glyph unicode="₁" d="M360 297l26 80l-63 -52l-55 -35l-75 145l302 199h163l-120 -619h154l-41 -209h-550l41 209h164z" horiz-adv-x="901" glyph-name="oneinferior"/>
<glyph unicode="₂" d="M718 430q0 -64 -21 -119t-55.5 -101.5t-78 -85t-89.5 -68.5l-64 -39l-1 -5l76 5h184l-41 -211h-566l29 151q65 37 131.5 83t120 97t87.5 104.5t34 104.5q0 38 -20 56t-58 18q-24 0 -46.5 -5t-42 -12t-35 -14.5t-24.5 -12.5l-29 190q23 12 53 24.5t64 22t71 15.5t75 6 q118 0 182 -52.5t64 -151.5z" horiz-adv-x="901" glyph-name="twoinferior"/>
<glyph unicode="₃" d="M326 -11q47 0 76.5 10t46.5 25.5t23.5 35t6.5 38.5q0 28 -16 42.5t-40 20.5t-53 6.5t-54 0.5h-73l15 78l157 144l49 37l-73 -2h-192l37 194h526l-25 -129l-184 -167l-59 -39l41 1q77 -5 123.5 -46t46.5 -121q0 -68 -28.5 -127t-80 -103t-123 -69.5t-157.5 -25.5 q-82 0 -141 13.5t-107 34.5l85 185q26 -15 74 -26t99 -11z" horiz-adv-x="901" glyph-name="threeinferior"/>
<glyph unicode="₄" d="M769 -48h-131l-28 -146h-209l28 146h-398l27 139l527 544h186l-98 -502h131zM493 280l23 85l-65 -73l-112 -112l-52 -54l80 7h97z" horiz-adv-x="901" glyph-name="fourinferior"/>
<glyph unicode="Ⱨ" d="M1097 560h-601l-109 -560h-287l264 1356h287l-106 -545h601l106 545h286l-215 -1104h182l-96 -492h-203l15 240h-233z" horiz-adv-x="1593" glyph-name="Hdesc"/>
<glyph unicode="ⱨ" d="M761 -205l61 205h-187l115 514q8 38 12.5 60.5t4.5 42.5q0 26 -8 43t-21 27.5t-29.5 15t-33.5 4.5q-45 0 -89 -20t-81.5 -49.5t-66 -64t-43.5 -63.5v4l-111 -514h-246l310 1377h246l-144 -630v-5q27 28 62 60.5t77.5 59.5t93 45t109.5 18q48 0 90.5 -11t74.5 -36 t50.5 -65.5t18.5 -99.5q0 -67 -21 -161l-82 -367h162l-132 -390h-192z" horiz-adv-x="1139" glyph-name="hdesc"/>
<glyph unicode="" d="M764 1744h203l233 -179l-15 -79h-210l-85 77l-52 57l-77 -55l-122 -79h-206l16 81z" horiz-adv-x="1040" glyph-name="Circumflex"/>
<glyph unicode="" d="M139 1567q0 35 11.5 67t42 56t82.5 37.5t132 13.5q148 0 208 -46.5t60 -127.5q0 -35 -12 -66t-43.5 -54t-83.5 -36.5t-129 -13.5q-76 0 -127.5 12.5t-82 36t-44.5 54t-14 67.5zM313 1567q0 -28 21.5 -43t72.5 -15q54 0 74 14.5t20 43.5q0 31 -22 46.5t-72 15.5 q-94 0 -94 -62z" horiz-adv-x="813" glyph-name="Ring"/>
<glyph unicode="" d="M145 1610q64 68 125 93.5t121 25.5q46 0 92.5 -11t90.5 -25t85.5 -24t80.5 -10q32 0 63.5 9.5t60.5 36.5l48 -140q-57 -50 -110.5 -69.5t-105.5 -19.5q-48 0 -93 11t-88.5 24t-85.5 24t-82 11q-41 0 -79.5 -14.5t-77.5 -53.5z" horiz-adv-x="1057" glyph-name="Tilde"/>
<glyph unicode="" d="M574 1032l26 80l-63 -52l-55 -35l-75 145l302 199h163l-161 -827h-232z" horiz-adv-x="901" glyph-name="one.numerator"/>
<glyph unicode="" d="M721 1715h333l-12 -60l-370 -169h-217z" horiz-adv-x="831" glyph-name="Acute"/>
<glyph unicode="" d="M145 1585q0 53 38 84.5t123 31.5q81 0 119 -31.5t38 -84.5q0 -50 -38 -80t-119 -30q-85 0 -123 30t-38 80zM596 1585q0 53 38 84.5t119 31.5q85 0 123 -31.5t38 -84.5q0 -50 -38 -80t-123 -30q-81 0 -119 30t-38 80z" horiz-adv-x="1059" glyph-name="Dieresis"/>
<glyph unicode="" d="M959 1486h-221l-300 169l12 60h335z" horiz-adv-x="831" glyph-name="Grave"/>
<glyph unicode="" d="M242 1697h281v-31l-211 -180h-196zM658 1697h293v-31l-300 -180h-198z" horiz-adv-x="1128" glyph-name="Hungarumlaut"/>
<glyph unicode="" d="M144 1675h723v-179h-723v179z" horiz-adv-x="1010" glyph-name="Macron"/>
<glyph unicode="" d="M717 1748q13 -58 46 -84.5t99 -26.5q70 0 119.5 27t68.5 82l237 -33q-56 -125 -161.5 -186t-278.5 -61q-171 0 -264 58.5t-105 182.5z" horiz-adv-x="1100" glyph-name="cyrBreve"/>
<glyph unicode="" d="M652 1266q2 -59 32.5 -93.5t81.5 -34.5q27 0 53.5 7t50 22t43.5 39t35 58l180 -44q-26 -65 -66 -109.5t-90 -71.5t-108.5 -38.5t-120.5 -11.5q-60 0 -112.5 12.5t-90.5 40.5t-59 72t-16 106z" horiz-adv-x="1016" glyph-name="cyrbreve"/>
<glyph d="M395 1356h246l-267 -1356h-246z" horiz-adv-x="582" glyph-name="l.var"/>
</font>
</defs>
</svg>
