<svg xmlns="http://www.w3.org/2000/svg" viewBox="0 0 2815.3 678"><style>.st0{fill:#686868}.st1{fill:#888}</style><g id="Слой_7"><path class="st0" d="M287.2 553.1h-120c-8.1 0-13.8-2.3-18.5-5.8-4.6-3.5-6.9-8.1-6.9-13.8 0-4.6 1.2-9.2 2.3-12.7l129.2-318.5c1.2-3.5 2.3-6.9 2.3-10.4 0-4.6-2.3-9.2-4.6-12.7-3.5-3.5-6.9-5.8-11.5-5.8l2.3-12.7h153.5c5.8 0 11.5 2.3 16.2 4.6 4.6 3.5 6.9 8.1 6.9 15l3.5 137.3 50.8-118.9c1.2-3.5 2.3-6.9 2.3-10.4 0-9.2-4.6-13.8-13.8-13.8l3.5-12.7h155.8c6.9 0 11.5 3.5 16.2 8.1 4.6 5.8 6.9 12.7 6.9 19.6L682.1 523c0 5.8 2.3 9.2 8.1 12.7s10.4 4.6 16.2 4.6l-2.3 12.7H548c-4.6 0-9.2-2.3-13.8-6.9-4.6-4.6-6.9-9.2-6.9-15l1.2-150-65.8 173.1h-135l-3.5-171.9L271 516.1v8.1c0 5.8 2.3 9.2 5.8 12.7 3.5 2.3 8.1 4.6 13.8 4.6l-3.4 11.6zm830.8 1.1H971.5c-10.4 0-17.3-1.2-21.9-4.6-4.6-3.5-6.9-9.2-8.1-17.3l-4.6-57.7h-65.8L848 520.7V527.6c0 3.5 1.2 6.9 4.6 9.2 3.5 2.3 6.9 3.5 11.5 3.5l-5.8 13.8H734.9c-16.2 0-24.2-5.8-24.2-18.5 0-3.5 1.2-6.9 3.5-10.4l166.2-324.3c1.2-2.3 2.3-4.6 2.3-8.1 0-4.6-2.3-8.1-5.8-11.5s-6.9-5.8-11.5-5.8l3.5-12.7h169.6c9.2 0 16.2 2.3 21.9 6.9 5.8 4.6 9.2 11.5 9.2 20.8l26.5 332.3c0 4.6 2.3 9.2 8.1 13.8 5.8 4.6 11.5 5.8 16.2 5.8l-2.4 11.8zM931.1 333.8l-27.7 63.5h32.3l-4.6-63.5zm423.5-80.8l-58.8 258.5c-1.2 4.6-1.2 8.1-1.2 12.7s2.3 8.1 6.9 12.7c4.6 3.5 9.2 5.8 12.7 5.8l-2.3 12.7h-161.5c-6.9 0-11.5-2.3-15-5.8s-4.6-8.1-4.6-15c0-2.3 0-5.8 1.2-9.2l77.3-332.3c1.2-4.6-1.2-8.1-4.6-11.5s-8.1-5.8-12.7-5.8l3.5-12.7H1484l-15 63.5c-2.3 8.1-5.8 15-12.7 19.6-6.9 4.6-13.8 6.9-23.1 6.9l-78.6-.1zm308.1 128.1h-40.4L1590 520.7v4.6c0 4.6 2.3 8.1 5.8 10.4 3.5 3.5 8.1 4.6 11.5 4.6L1605 553h-158.1c-12.7 0-18.5-5.8-18.5-18.5 0-2.3 0-4.6 1.2-9.2l77.3-333.5c1.2-3.5-1.2-8.1-4.6-11.5-4.6-3.5-8.1-5.8-12.7-5.8l4.6-12.7h158.1c11.5 0 18.5 5.8 18.5 18.5v9.2L1642 306h40.4l26.5-113.1c1.2-3.5-1.2-8.1-4.6-11.5-3.5-3.5-8.1-5.8-11.5-5.8v-13.8h158.1c6.9 0 11.5 1.2 13.8 4.6 2.3 3.5 4.6 8.1 4.6 13.8l-1.2 8.1-77.3 334.6c-1.2 3.5 1.2 8.1 4.6 11.5 4.6 3.5 8.1 5.8 12.7 5.8l-3.5 12.7-158.1 1.2c-11.5 0-18.5-5.8-18.5-18.5v-9.2l34.7-145.3zm465 1.2l-78.5 120c-4.6 5.8-6.9 10.4-8.1 11.5-2.3 3.5-3.5 6.9-3.5 11.5s2.3 8.1 5.8 10.4c3.5 3.5 8.1 4.6 11.5 4.6l-2.3 12.7h-158.1c-12.7 0-18.5-5.8-18.5-18.5 0-2.3 0-4.6 1.2-9.2l77.3-333.5c1.2-3.5-1.2-8.1-4.6-11.5-4.6-3.5-8.1-5.8-12.7-5.8l4.6-12.7H2100c11.5 0 18.5 5.8 18.5 18.5v9.2L2083.9 336l73.9-111.9c3.5-4.6 6.9-9.2 9.2-13.8 3.5-4.6 5.8-10.4 6.9-16.2 1.2-3.5-1.2-8.1-4.6-11.5-3.5-3.5-8.1-5.8-11.5-5.8l3.5-12.7h158.1c6.9 0 11.5 1.2 13.8 4.6 3.5 3.5 4.6 8.1 4.6 13.8l-1.2 8.1-77.3 334.6c-1.2 3.5 1.2 8.1 4.6 11.5 4.6 3.5 8.1 5.8 12.7 5.8l-3.5 12.7H2115c-12.7 0-18.5-5.8-18.5-18.5v-9.2l31.2-145.2zm273.5-220.4h231.9c5.8 0 11.5-1.2 17.3-3.5 5.8-2.3 9.2-5.8 10.4-10.4h12.7l-23.1 86.5c-3.5 12.7-15 18.5-33.5 18.5h-33.5l-63.5 270c-1.2 3.5 1.2 8.1 4.6 11.5 4.6 4.6 8.1 5.8 12.7 5.8l-2.3 13.8h-158.1c-11.5 0-18.5-5.8-18.5-18.5 0-1.2 0-4.6 1.2-9.2l63.5-273.5h-39.2c-5.8 0-10.4 1.2-15 4.6-3.5 2.3-6.9 6.9-8.1 11.5h-13.8l23.1-91c1.2-5.8 4.6-9.2 9.2-11.5 4.7-3.5 11.6-4.6 22-4.6z"/><path class="st0" d="M2795.8 206.9c0-92.3-79.6-167.3-176.6-167.3h-178.9l-5.8 30h185.8c80.8 0 146.5 61.2 146.5 137.3v304.6c0 76.2-65.8 137.3-146.5 137.3l-2423.2-1.2c-80.8 0-146.5-62.3-146.5-137.3V205.7c0-76.2 65.8-137.3 146.5-137.3l1125.1 1.2 5.8-30-1130.8-1.2C99.1 37.2 19.5 112.3 19.5 204.6v304.6c0 92.3 79.6 167.3 176.5 167.3l2423.2 1.2c96.9 0 176.6-75 176.6-167.3V206.9z"/><path class="st1" d="M1391.5 105.3c-6.9 0-11.5-1.2-15-1.2l4.6-18.5c2.3 1.2 4.6 2.3 6.9 2.3 4.6 0 9.2-2.3 11.5-5.8l1.2-1.2-28.8-78.5h27.7l17.3 56.5 35.8-56.5h26.5l-58.8 84.2c-2.3 4.6-5.8 6.9-9.2 10.4-3.5 2.3-6.9 4.6-10.4 5.8-4.7 1.4-8.2 2.5-9.3 2.5zM1506.9 58l-10.4 46.2h-23.1l23.1-101.5h23.1l-9.2 38.1h43.8l9.2-38.1h23.1l-23.1 101.5h-23.1l10.4-45-43.8-1.2zM1620 73l61.2-70.4h24.2l-24.2 101.5h-21.9l16.2-72.7-61.2 72.7h-23.1l23.1-101.5h21.9L1620 73zm111.9-70.4h54.2c8.1 0 15 1.2 19.6 3.5s6.9 5.8 8.1 10.4c1.2 3.5 1.2 8.1 0 11.5-1.2 5.8-3.5 10.4-6.9 13.8-3.5 2.3-6.9 4.6-11.5 6.9 10.4 3.5 15 12.7 11.5 24.2-1.2 3.5-2.3 8.1-4.6 11.5-2.3 3.5-5.8 6.9-9.2 9.2-3.5 2.3-5.8 3.5-8.1 4.6-2.3 1.2-6.9 2.3-10.4 3.5-4.6 1.2-10.4 1.2-17.3 1.2H1710l21.9-100.3zm3.5 84.3h28.8c11.5 0 18.5-4.6 20.8-15 1.2-4.6 0-6.9-2.3-9.2-2.3-2.3-6.9-3.5-11.5-3.5h-30l-5.8 27.7zm10.3-45h27.7c4.6 0 9.2-1.2 12.7-2.3 3.5-1.2 5.8-4.6 6.9-8.1 1.2-3.5 0-6.9-2.3-8.1-2.3-1.2-6.9-2.3-12.7-2.3h-26.5l-5.8 20.8zm182.4-20.8h-58.8l-4.6 20.8h54.2l-4.6 17.3H1860l-5.8 26.5h62.3l-4.6 18.5h-84.2l23.1-101.5h81.9l-4.6 18.4zm31.1 83.1h-23.1l23.1-101.5h50.8c6.9 0 12.7 1.2 17.3 3.5s8.1 6.9 9.2 11.5c1.2 4.6 1.2 10.4 0 17.3-1.2 3.5-3.5 8.1-5.8 13.8-3.5 4.6-8.1 9.2-13.8 12.7-5.8 3.5-13.8 5.8-23.1 5.8h-26.5l-8.1 36.9zm34.6-54.3c8.1 0 12.7-1.2 15-4.6 2.3-3.5 4.6-6.9 5.8-11.5 1.2-4.6 0-8.1-2.3-10.4-2.3-2.3-8.1-3.5-15-3.5h-18.5l-6.9 30h21.9zm138.5-13.8c0-4.6-2.3-9.2-4.6-12.7s-8.1-4.6-16.2-4.6c-6.9 0-13.8 2.3-20.8 8.1s-11.5 15-15 27.7c-1.2 6.9-2.3 12.7-1.2 17.3 1.2 4.6 2.3 9.2 6.9 12.7 3.5 3.5 8.1 4.6 15 4.6 4.6 0 8.1-1.2 11.5-2.3 3.5-1.2 6.9-3.5 10.4-6.9 3.5-2.3 5.8-5.8 6.9-10.4h23.1c-3.5 8.1-8.1 13.8-12.7 19.6-5.8 5.8-11.5 10.4-19.6 12.7-8.1 3.5-16.2 4.6-24.2 4.6-10.4 0-18.5-2.3-25.4-5.8-6.9-4.6-11.5-10.4-13.8-18.5s-2.3-17.3 0-28.8 6.9-20.8 13.8-28.8c5.8-8.1 13.8-13.8 21.9-18.5 9.2-3.5 18.5-5.8 27.7-5.8 8.1 0 15 1.2 20.8 3.5s9.2 4.6 12.7 9.2c3.5 3.5 4.6 6.9 5.8 11.5 1.2 4.6 1.2 8.1 1.2 12.7l-24.2-1.1zm40.4 68.1h-24.2l62.3-101.5h26.5l16.2 101.5h-25.4l-2.3-20.8h-41.5l-11.6 20.8zm23.1-38.1h28.8l-4.6-40.4-24.2 40.4zm185.7 38.1h-21.9l16.2-73.9-36.9 73.9h-23.1l-3.5-73.9-17.3 73.9h-21.9l23.1-101.5h34.6l4.6 70.4 35.8-70.4h33.5l-23.2 101.5z"/></g></svg>