<svg id="Layer_1" xmlns="http://www.w3.org/2000/svg" viewBox="0 0 240.6 58.8"><style>.st0{fill:#686868}.st1{fill:#888}</style><path class="st0" d="M23.2 47.9H12.8c-.7 0-1.2-.2-1.6-.5-.4-.3-.6-.7-.6-1.2 0-.4.1-.8.2-1.1L22 17.5c.1-.3.2-.6.2-.9 0-.4-.2-.8-.4-1.1-.3-.3-.6-.5-1-.5l.2-1.1h13.3c.5 0 1 .2 1.4.4.4.3.6.7.6 1.3l.3 11.9L41 17.2c.1-.3.2-.6.2-.9 0-.8-.4-1.2-1.2-1.2l.3-1.1h13.5c.6 0 1 .3 1.4.7.4.5.6 1.1.6 1.7l1.6 28.9c0 .5.2.8.7 1.1s.9.4 1.4.4l-.2 1.1H45.8c-.4 0-.8-.2-1.2-.6-.4-.4-.6-.8-.6-1.3l.1-13-5.7 15H26.7l-.3-14.9-4.6 11.6v.7c0 .5.2.8.5 1.1.3.2.7.4 1.2.4l-.3 1zm72 .1H82.5c-.9 0-1.5-.1-1.9-.4-.4-.3-.6-.8-.7-1.5l-.4-5h-5.7l-2 4V45.7c0 .3.1.6.4.8s.6.3 1 .3l-.5 1.2H62c-1.4 0-2.1-.5-2.1-1.6 0-.3.1-.6.3-.9l14.4-28.1c.1-.2.2-.4.2-.7 0-.4-.2-.7-.5-1s-.6-.5-1-.5l.3-1.1h14.7c.8 0 1.4.2 1.9.6.5.4.8 1 .8 1.8l2.3 28.8c0 .4.2.8.7 1.2s1 .5 1.4.5l-.2 1zM79 28.9l-2.4 5.5h2.8l-.4-5.5zm36.7-7l-5.1 22.4c-.1.4-.1.7-.1 1.1 0 .4.2.7.6 1.1.4.3.8.5 1.1.5l-.2 1.1H98c-.6 0-1-.2-1.3-.5s-.4-.7-.4-1.3c0-.2 0-.5.1-.8l6.7-28.8c.1-.4-.1-.7-.4-1s-.7-.5-1.1-.5l.3-1.1h25l-1.3 5.5c-.2.7-.5 1.3-1.1 1.7-.6.4-1.2.6-2 .6h-6.8zM142.4 33h-3.5l-2.8 12.1v.4c0 .4.2.7.5.9.3.3.7.4 1 .4l-.2 1.1h-13.7c-1.1 0-1.6-.5-1.6-1.6 0-.2 0-.4.1-.8l6.7-28.9c.1-.3-.1-.7-.4-1-.4-.3-.7-.5-1.1-.5l.4-1.1h13.7c1 0 1.6.5 1.6 1.6v.8l-2.5 10.1h3.5l2.3-9.8c.1-.3-.1-.7-.4-1-.3-.3-.7-.5-1-.5V14h13.7c.6 0 1 .1 1.2.4.2.3.4.7.4 1.2l-.1.7-6.7 29c-.1.3.1.7.4 1 .4.3.7.5 1.1.5l-.3 1.1-13.7.1c-1 0-1.6-.5-1.6-1.6v-.8l3-12.6zm40.3.1l-6.8 10.4c-.4.5-.6.9-.7 1-.2.3-.3.6-.3 1s.2.7.5.9c.3.3.7.4 1 .4l-.2 1.1h-13.7c-1.1 0-1.6-.5-1.6-1.6 0-.2 0-.4.1-.8l6.7-28.9c.1-.3-.1-.7-.4-1-.4-.3-.7-.5-1.1-.5l.4-1.1h13.7c1 0 1.6.5 1.6 1.6v.8l-3 12.7 6.4-9.7c.3-.4.6-.8.8-1.2.3-.4.5-.9.6-1.4.1-.3-.1-.7-.4-1-.3-.3-.7-.5-1-.5l.3-1.1h13.7c.6 0 1 .1 1.2.4.3.3.4.7.4 1.2l-.1.7-6.7 29c-.1.3.1.7.4 1 .4.3.7.5 1.1.5l-.3 1.1h-13.7c-1.1 0-1.6-.5-1.6-1.6v-.8l2.7-12.6zM206.4 14h20.1c.5 0 1-.1 1.5-.3s.8-.5.9-.9h1.1l-2 7.5c-.3 1.1-1.3 1.6-2.9 1.6h-2.9l-5.5 23.4c-.1.3.1.7.4 1 .4.4.7.5 1.1.5L218 48h-13.7c-1 0-1.6-.5-1.6-1.6 0-.1 0-.4.1-.8l5.5-23.7h-3.4c-.5 0-.9.1-1.3.4-.3.2-.6.6-.7 1h-1.2l2-7.9c.1-.5.4-.8.8-1 .4-.3 1-.4 1.9-.4z"/><path class="st0" d="M240.6 17.9c0-8-6.9-14.5-15.3-14.5h-15.5l-.5 2.6h16.1c7 0 12.7 5.3 12.7 11.9v26.4c0 6.6-5.7 11.9-12.7 11.9l-210-.1c-7 0-12.7-5.4-12.7-11.9V17.8c0-6.6 5.7-11.9 12.7-11.9l97.5.1.5-2.6-98-.1C6.9 3.2 0 9.7 0 17.7v26.4c0 8 6.9 14.5 15.3 14.5l210 .1c8.4 0 15.3-6.5 15.3-14.5V17.9z"/><path class="st1" d="M118.9 9.1c-.6 0-1-.1-1.3-.1l.4-1.6c.2.1.4.2.6.2.4 0 .8-.2 1-.5l.1-.1-2.5-6.8h2.4l1.5 4.9 3.1-4.9h2.3l-5.1 7.3c-.2.4-.5.6-.8.9-.3.2-.6.4-.9.5-.4.1-.7.2-.8.2zm10-4.1l-.9 4h-2l2-8.8h2l-.8 3.3h3.8l.8-3.3h2l-2 8.8h-2l.9-3.9-3.8-.1zm9.8 1.3L144 .2h2.1L144 9h-1.9l1.4-6.3-5.3 6.3h-2l2-8.8h1.9l-1.4 6.1zm9.7-6.1h4.7c.7 0 1.3.1 1.7.3s.6.5.7.9c.1.3.1.7 0 1-.1.5-.3.9-.6 1.2-.3.2-.6.4-1 .6.9.3 1.3 1.1 1 2.1-.1.3-.2.7-.4 1s-.5.6-.8.8c-.3.2-.5.3-.7.4-.2.1-.6.2-.9.3-.4.1-.9.1-1.5.1h-4.1l1.9-8.7zm.3 7.3h2.5c1 0 1.6-.4 1.8-1.3.1-.4 0-.6-.2-.8-.2-.2-.6-.3-1-.3h-2.6l-.5 2.4zm.9-3.9h2.4c.4 0 .8-.1 1.1-.2.3-.1.5-.4.6-.7s0-.6-.2-.7c-.2-.1-.6-.2-1.1-.2h-2.3l-.5 1.8zm15.8-1.8h-5.1l-.4 1.8h4.7l-.4 1.5h-4.7l-.5 2.3h5.4L164 9h-7.3l2-8.8h7.1l-.4 1.6zm2.7 7.2h-2l2-8.8h4.4c.6 0 1.1.1 1.5.3s.7.6.8 1 .1.9 0 1.5c-.1.3-.3.7-.5 1.2-.3.4-.7.8-1.2 1.1-.5.3-1.2.5-2 .5h-2.3l-.7 3.2zm3-4.7c.7 0 1.1-.1 1.3-.4.2-.3.4-.6.5-1s0-.7-.2-.9-.7-.3-1.3-.3h-1.6l-.6 2.6h1.9zm12-1.2c0-.4-.2-.8-.4-1.1s-.7-.4-1.4-.4c-.6 0-1.2.2-1.8.7s-1 1.3-1.3 2.4c-.1.6-.2 1.1-.1 1.5.1.4.2.8.6 1.1.3.3.7.4 1.3.4.4 0 .7-.1 1-.2s.6-.3.9-.6c.3-.2.5-.5.6-.9h2c-.3.7-.7 1.2-1.1 1.7-.5.5-1 .9-1.7 1.1-.7.3-1.4.4-2.1.4-.9 0-1.6-.2-2.2-.5-.6-.4-1-.9-1.2-1.6s-.2-1.5 0-2.5.6-1.8 1.2-2.5c.5-.7 1.2-1.2 1.9-1.6.8-.3 1.6-.5 2.4-.5.7 0 1.3.1 1.8.3s.8.4 1.1.8c.3.3.4.6.5 1s.1.7.1 1.1l-2.1-.1zm3.5 5.9h-2.1l5.4-8.8h2.3l1.4 8.8h-2.2l-.2-1.8h-3.6l-1 1.8zm2-3.3h2.5l-.4-3.5-2.1 3.5zM204.7 9h-1.9l1.4-6.4L201 9h-2l-.3-6.4-1.5 6.4h-1.9l2-8.8h3l.4 6.1 3.1-6.1h2.9l-2 8.8z"/></svg>