<svg id="Слой_1" xmlns="http://www.w3.org/2000/svg" viewBox="0 0 357.1 86"><style>.st0{fill:#888}.st1{fill:#686868}</style><g id="_x23_7e7d7bff"><path class="st0" d="M28.7 2.7C33.6.6 39 0 44.3 0c-2.6 3.4-4.9 7-6.4 11 1.9-1.1 3.8-2.1 5.6-3.4 2.1-2.5 3.7-5.5 6.5-7.2 5.9.9 11.8 2.7 16.7 6.3-2.3.3-4.6.4-6.8.6 1.7 1 3.4 2 5.2 2.9 3.2 1.3 7.5.1 9.9 3 9 9.2 13.5 22.7 11.5 35.5-1.9 4-5.3 7.3-8.5 10.3 2.2-5.7 4.2-11.7 3.3-17.9-.5-6.1-3.2-11.8-7.2-16.3 0 2.1.1 4.2 0 6.3 3.9 6.9 4.8 15.5 1.6 22.8-2.9 6.8-8.9 13.2-16.7 14-6.8 1-14.2 1.1-20.4-2.1 12.2-.2 23.6-8.5 27.5-20.1-2.9 1.5-5.9 3-7.5 5.9-7.4 10.6-23.7 13.6-34.2 5.9-6.3-5.9-10.6-13.8-12-22.3C19.2 45.4 31.8 51.9 44.1 49c-5.2-4.2-12.3-2.8-17.9-6.1-10.1-5.3-16.6-18.6-11.6-29.4 1.1-4.3 5.3-6.3 8.7-8.4-1.9 9.3.2 19.5 6.7 26.6-.1-2.7.4-5.5-.8-8-3.1-6.4-4.1-14.6-.5-21m20.4 7.6c-6.4 1.1-12 5.7-14.1 11.8-2.9 7.5.2 16.6 6.8 21 6.1 4.3 14.9 4.2 20.9-.3 6.2-4.4 9-12.9 6.6-20.1-2.4-8.3-11.6-14-20.2-12.4zM248 42c1.3-5.5 8.7-6.8 13.1-4.1 2.3 1.5 2.5 4.5 3 6.9-1.9.1-3.8.1-5.7.1-.1-.8-.3-2.3-.4-3.1-1.5-.6-3.4-.9-4.3.9-.4 3.9-.3 7.9 0 11.8 0 2.3 2.6 1.6 4.1 1.6.3-1.3.5-2.6.8-3.9 1.8 0 3.7 0 5.5.1 0 2.8-.5 6-3.1 7.6-4.2 2.7-11.6 1.6-12.9-3.9-.8-4.5-.9-9.3-.1-14zM266.1 37.2H282c0 1.5 0 3.1-.1 4.6h-10.2v4.3c2.4 0 4.8 0 7.1.1v4.7h-7.1v4.9c3.7.1 7.3 0 11-.1 0 1.6 0 3.3.1 4.9-5.6.1-11.1 0-16.7 0-.1-7.7 0-15.6 0-23.4zM284.6 37.2c4 .1 8-.4 11.9.4 6 1.5 6.3 11.4.7 13.7-2.2.9-4.7.7-7 .9.1 2.8.1 5.6.1 8.4h-5.8c.1-7.8 0-15.6.1-23.4m5.7 4.1v6.5c1.6-.4 4 .1 4.9-1.8.5-1.3.3-2.7-.3-4-1.5-.4-3.1-.5-4.6-.7zM303 37.2c4.1.1 8.4-.6 12.5.5 4.3 1.8 4 7.4 1.4 10.6 3.4 3.2 3.3 10.3-1.7 11.9-3.9 1-8.1.3-12.1.5-.4-7.8-.1-15.7-.1-23.5m5.4 3.9c0 1.9 0 3.7.1 5.5 1.5-.2 3-.4 4.4-.9.4-1.2.5-2.4.1-3.6-1.2-1.2-3.1-.8-4.6-1m0 9.3v6.2c2-.3 5.3.2 5.2-2.7.7-3.2-2.9-3.3-5.2-3.5zM321.2 37.2c1.7 0 3.4-.1 5.2-.1.1 4.1.1 8.1 0 12.2 2.4-3.9 4.5-8.1 6.8-12.1 1.7 0 3.5-.1 5.2-.1.1 7.8.1 15.7 0 23.6h-5.2c0-4.8-.2-9.6.3-14.4-2.3 5-5 9.7-7.7 14.4h-4.6c-.1-7.8-.1-15.7 0-23.5zM341.2 42c1.3-5.7 9.3-7 13.5-3.7 2.1 1.6 2.1 4.3 2.4 6.7-1.8 0-3.6 0-5.4-.1-.1-2.5-2.4-4.8-4.7-2.7-.8 4.6-.4 9.4-.1 14h3.8c.6-1.2.4-2.9 1.5-3.8 1.6-.2 3.2-.1 4.8-.1 0 2.4.1 5.2-1.9 6.9-4 3.8-12.5 2.8-13.9-3.1-.5-4.7-.5-9.4 0-14.1z"/></g><g id="_x23_5462a0ff"><path class="st1" d="M0 38.4c1.1-7.6 3.9-14.9 8.6-21-.3 3.8-1 7.7-1 11.6-.2 12.8 6 25.4 15.9 33.4 10 8.2 23.8 11.7 36.4 8.9 8.8-1.6 16.3-6.7 22.9-12.4-5.5 14.6-19.5 25.5-35 27.1H36.5c-11.4-2-22.1-8.3-28.7-17.8C3.3 62 .6 54.5 0 46.9v-8.5zM102 24c1.2 1.2 1.6 2.8 2.7 4.1.7-1.5 1.6-2.9 2.8-4-1.1 2.9-1.4 8.1-5.4 8 .6-.7 1.3-1.4 1.9-2-.9-2-1.9-4-2-6.1zM114.7 24.6c1.8-.1 3.5-.1 5.3-.1.2 2.4.2 4.8.3 7.1h-1.5c.1-2 .2-3.9.4-5.9-.8 0-2.4-.1-3.2-.1 0 2.3-.1 4.6-.4 6.9-1.7-2.3-.8-5.3-.9-7.9zM128.2 24.3c1.6.3 4 .2 4.3 2.2.2 1.8-1.6 2.4-2.9 2.7-.4 1.1-.7 2.2-1 3.3-.6-2.7-.5-5.5-.4-8.2m1 1.6c-.5 1.6 0 2.2 1.6 1.7.6-1.6 0-2.2-1.6-1.7zM141.8 24.6c.9-.8 1.3 1 1.7 1.4 1 2 1.7 4.1 2.5 6.1-1.3-.8-2.4-2.3-4.1-2.4-1.1.7-2.1 1.5-3.2 2.3.9-2.4 1.6-5.1 3.1-7.4m.5 2.4c-1.3.8-1.3 1.5 0 2.1 1.2-.8 1.2-1.5 0-2.1zM165.6 24.6c1.4-.1 2.8-.1 4.2-.2.1 2.7.1 5.4-.3 8.1-1.2-2.1-.6-4.6-.7-6.8l-1.9-.1c-.1 2.5.6 6-2.6 6.8 1-2.5 1.4-5.1 1.3-7.8zM190.8 32.4c-.4-2.6-1.5-5.9.3-8.2.1.7.4 2 .6 2.7 1.4-1.1 2.7-3.5 4.8-2.5 3.4 1.1 3 7-.5 7.4-1.9.5-3-1.2-4.2-2.2-.2.7-.7 2.1-1 2.8m3.2-6.3c-1.6 1.8-.3 5.3 2.3 4.5 2.5-1.5.8-6.7-2.3-4.5zM272.5 24.7c4.6-2.4 7.1 6.1 2.4 7.1-4.2 1.4-6-5.4-2.4-7.1m.6 1.2c-2.4 1.1-1.3 5.5 1.5 4.8 3-.9 1.2-6.5-1.5-4.8zM284.8 24.2c2.4.7 2.7 3.5 3.6 5.6 1.1-2 2.1-4.1 3.6-5.9.4 2.8 1.7 6.2-.5 8.5l-.4-4.4c-.9 1.4-1.8 2.9-2.7 4.3-.8-1.5-1.5-2.9-2.3-4.4-.2 1.2-.6 3.5-.8 4.7-1.2-2.6-.5-5.6-.5-8.4zM300.6 24.6c1.7-.2 3.4-.1 5.1-.1.1 2.6.1 5.2-.1 7.9-3.1-1.7 1-7.8-4-6.9v6.3c-.3 0-1 .1-1.3.1 0-2.5-.2-4.9.3-7.3zM314.1 27.1c.7-1 1.4-2 2.2-2.9 1.7 2.4 2.6 5.2 3.6 8-1.3-.8-2.4-2.3-4-2.4-1.1.7-2.1 1.6-3.1 2.4.4-1.5.7-3 1-4.5 1.2 1.2 2.6 1.5 4 .4-1.1-.6-2.4-.9-3.7-1zM340.4 29.3c1.1-1.9 2.4-3.8 4.1-5.3.3 2.8.3 5.5.2 8.3-1.9-.7-1.2-3-1.6-4.5-1.2 1.6-2.4 3.3-3.8 4.7-.3-2.8-.3-5.6-.1-8.4 1.4 1.4 1 3.4 1.2 5.2zM154.1 23.8c0 1.7-.5 5.5 2.6 2.9l-2.3-.6c.7-.5 1.4-1.1 2.2-1.6.1 2.3 1.9 5.1 0 7.1-1.2.3-2.4.5-3.6.5 0-2.8-.9-6 1.1-8.3m0 5.1c-.5 1.6.1 2.1 1.8 1.6.4-1.6-.2-2.1-1.8-1.6zM178.9 24.3c.5.9 2.3 2.1.1 2.8.4.3 1.3.8 1.8 1l.6-4.2c1.7 2.3 1.9 6.1.3 8.5-.1-.9-.4-2.9-.5-3.8-1.1 1.2-2.1 2.6-3.1 3.8.7-2.7-.4-5.5.8-8.1zM206.2 24.7l1.3.1c0 1.9 0 3.8-.1 5.7.6.1 1.8.2 2.4.3.1-2 .2-4 .3-6.1l1 .1v5.9c.6 0 1.8-.1 2.4-.2 0-1.9 0-3.9-.1-5.8l1.3-.1c-.1 2.8.2 5.7 1.1 8.4-3-1.5-6.4-1.3-9.6-1.3v-7zM221.9 32.1c1-2.8 2-5.5 3.4-8.2 1.9 2.4 3 5.3 3.9 8.2-1.1-.8-2.1-1.6-3.1-2.3-1.8-.1-2.8 1.6-4.2 2.3m3.2-4.9c-1.6 3 3.3.3 0 0zM236.5 24.5c.7.5 1.4 1.1 2.2 1.6l-2 .6c.6.4 1.8 1.1 2.4 1.5-.1-1.4-.2-2.8-.4-4.2 3.5 1.3 1.6 5.6 1.8 8.4-1.3-.8-1.3-2.4-1.6-3.7-1.1 1.2-1.9 2.7-3.1 3.7.3-1.2.6-2.3.9-3.4-.5-1.5-.7-3-.2-4.5zM259.4 32.5c-2-2.3-.8-5.5-.8-8.2 1.2 2.9 3.4 1.1 5.1.1-1 1.3-2.1 2.5-3.1 3.7 1.3 1.3 2.6 2.6 3.6 4.2-1.7-.6-3-1.8-4.4-3l-.4 3.2zM326.2 31.8c.1-2.6-.5-5.5.8-7.9.2.9.6 2.8.8 3.7 2 .3 2.9-.9 2.8-2.8l1.1-.1c0 2.5 0 5.1-.3 7.7-1.1-.9-1.1-2.3-1.3-3.6h-2.6v3h-1.3zM353.3 29c-1.6-2-.6-3.8 1.2-5.2.2 1.4-.1 2.6-.9 3.8.6 0 1.7.1 2.3.1-.1-.9-.4-2.8-.6-3.8 2.9 1.7 1.4 5.8 1 8.6-.1-1-.4-2.9-.6-3.9-1.1 1.3-2.1 2.8-3.6 3.8.4-1.2.8-2.3 1.2-3.4zM100.7 42.6c1-5.8 8.7-7.1 13.1-4.3 2.3 1.4 2.5 4.3 3.1 6.7l-5.4.3c-.7-1.5-1.1-4.2-3.5-3.5-2.7.8-1.7 4.2-2 6.4.4 2.9-1.1 6.9 1.9 8.7 2.7.5 3.1-2.5 3.6-4.3 1.8 0 3.6.1 5.4.1-.2 2.3-.3 4.8-1.9 6.6-3.9 4.2-12.7 3.1-14.2-2.9-.7-4.7-.7-9.3-.1-13.8zM131.2 37.2h5.1c.1 7.9.1 15.8 0 23.7-1.7 0-3.4 0-5.2-.1 0-4.3 0-8.7-.1-13.1-2.6 4.3-4.8 8.7-7.2 13-1.5 0-3.1.1-4.6.1-.1-7.8 0-15.7-.1-23.5 1.7-.1 3.4-.1 5.2-.2 0 4.1 0 8.2-.1 12.4 2.5-3.9 4.5-8.2 7-12.3zM139.2 42.1c1.3-5.2 7.9-6.2 12.2-4.4 2.9 1.3 3.5 4.7 3.7 7.5-1 0-3.1-.1-4.1-.1-2 .4-1.7-2.2-2.4-3.3h-3.7c-.3 4.7-.8 9.4.2 14.1 1.1 1.2 2.6.6 4 .3.2-1.2.3-2.5.5-3.7 1.8 0 3.6-.1 5.4-.1-.1 1.9.2 4-.9 5.6-3.3 5.4-13.4 4.5-14.9-2-.7-4.5-.8-9.3 0-13.9zM174 37.3h15.7c0 1.5 0 3.1.1 4.6-3.5.2-7.1.2-10.6.2v4.4c2.4 0 4.7 0 7.1-.1.1 1.5.2 3 .2 4.5-2.4.2-4.9.2-7.4.3V56c3.8.1 7.5 0 11.3.2-.3 1.4.3 3.4-.6 4.6-5.4.4-10.8 0-16.1.1.2-7.9-.1-15.8.3-23.6zM192.4 37.3c2.4-.1 4.8-.1 7.2-.1 1.4 4.7 2.7 9.3 4 14 1.2-4.7 2.5-9.3 3.9-14h7.3c.1 7.8.1 15.7 0 23.5-1.6.1-3.3.1-4.9.1-.2-5.4.2-10.8-.2-16.2-1.6 5.3-2.7 10.8-4.1 16.2-1.4 0-2.7-.1-4.1-.1-1.3-5.4-2.6-10.8-4.1-16.1-.4 5.4.1 10.9-.2 16.3-1.6 0-3.3-.1-4.9-.2.1-7.7.1-15.5.1-23.4zM222.1 37.3h6.5c2.3 7.9 4.6 15.7 6.8 23.6-1.8 0-3.6.1-5.4.1-.4-1.6-.9-3.1-1.2-4.7h-6.5c-.4 1.5-.9 3.1-1.3 4.6-1.8 0-3.6.1-5.3.1 1.7-8 4.1-15.8 6.4-23.7m.9 14.6c1.5 0 3 0 4.5.1-.7-3-1.4-6.1-2-9.2-1 3-1.7 6.1-2.5 9.1zM155.6 37.3c5.9-.1 11.7-.1 17.6.1l-.3 4.5c-1.9.1-3.7.2-5.6.2.1 6.3.1 12.5 0 18.8h-5.8c-.1-6.3-.1-12.5 0-18.8-1.9-.1-3.9-.2-5.8-.2 0-1.5 0-3-.1-4.6zM238.4 45.7c3.3-2.1 7.7 2.2 5.8 5.5-1.1 2.6-4.8 3.4-6.8 1.3-2.1-1.8-1.6-5.6 1-6.8z"/></g></svg>