<svg xmlns="http://www.w3.org/2000/svg" viewBox="0 0 2815.3 678"><style>.st0{fill:#686868}.st1{fill:#888}</style><g id="Слой_5"><g id="_x23_68757dff"><path class="st0" d="M1260 11.1c21-10.3 45.5-10.7 68.4-8.8 18 1.5 36.3 8.4 48.2 22.2 12.6 13.8 15.7 33.6 15.3 51.6V206c-15.7.4-31-.8-46.6-.4 0-9.6 0-18.7-.4-28.3-9.9 5.4-14.5 16.1-23.7 21.8-21 15.7-52 13.4-73-1.1-33.6-22.5-34.8-81 .8-102 27.5-18.7 61.9-14.5 93.2-17.6 0-13-4.2-27.9-16.8-34-20.3-11.5-48.2-1.1-55 21.4-14.5-3.4-29-6.9-43.9-9.2 1.4-19.5 15.5-37.5 33.5-45.5m27.5 108.5c-19.5 8.4-17.6 42 2.7 48.5 17.6 6.9 36.3-1.9 51.2-11.5.8-14.5.4-29 .4-43.2-18 .9-37.1-1-54.3 6.2zM1784.7 57.3c1.9-29 28.7-50.1 56.2-53.9 27.1-4.2 57.3-4.2 81.8 10.3 18.3 11.1 27.5 33.2 27.1 54.3v137.2c-15.7 0-31.3 1.5-47 0 .4-9.6.4-18.7-.8-28.3-8 5.4-12.6 14.5-20.6 20.3-29 24.1-78.7 12.2-94.4-22.2-11.8-26-7.3-61.5 18-77.6 27.9-20.3 63.4-16.1 95.9-18.7 0-13.8-5-29.8-19.1-35.2-19.9-9.6-46.2.4-52.4 22.2-15.3-1.9-29.8-6.1-44.7-8.4m61.1 62.3c-19.5 8.4-18 42 2.7 48.2 18 6.5 36.7-1.9 51.6-11.5.4-14.5.4-28.7.4-43.2-18.8 1.6-37.9-1.1-54.7 6.5zM2020.5 7.3c26-8.4 54.6-7.6 80.6-.4 22.9 6.5 40.9 26 44.3 49.7-14.9 3.8-29.8 7.3-45.1 9.6-7.3-26.4-45.1-34-63.1-14.5-11.1 11.8-7.3 29-8 43.9.8 18-1.9 35.9 1.9 53.5 6.5 22.5 36.3 27.9 54.6 16.4 7.6-4.2 10.7-12.6 14.9-19.9 14.9 2.7 29.8 5.7 44.7 9.2-3.4 30.2-31.7 50.8-60.4 53.5-26.4 1.9-55.4 3.8-78.7-11.1-18.7-11.8-27.1-34.8-26.8-56.2.4-26.8-.4-53.1.4-79.9 1.3-23.6 17.3-46.6 40.7-53.8zM1033 6.5h170.4v41.7c-20.3.4-40.5 0-60.4 0-1.1 52.4-.4 105.1-.4 157.4-16.8.4-33.6 0-50.4.4.4-39.4-.8-78.7.8-118.1.8-16.8 11.1-31 25.6-39-28.7-1.9-56.9.4-85.6-1.1.4-13.8 0-27.5 0-41.3zM1430 6.5c47.8-.4 95.5.4 143.7-.4.4 13.8 0 27.5.4 41.3-31.3 1.9-62.7 0-93.6.8.4 52.4 0 104.7 0 157.1-16.8.4-33.6.4-50.4.4.3-66.2-.1-132.7-.1-199.2zM1602.8 6.5c33.6 1.1 67.3-1.9 100.5 1.9 21 3.1 44.3 11.5 55.4 31.3 15.3 27.9 8.4 67.3-18 86-25.2 18-57.7 18.7-87.1 16.8 0 21-.4 42 0 63.1-17.2.8-34 .4-51.2.4.8-66.5.4-133 .4-199.5m51.2 38.2c-.4 19.9-.8 39.4 0 59.2 16.8.4 35.2 1.9 50.1-7.3 16.4-10.3 18-40.5-1.9-47.4-15.4-5.2-32.2-4.5-48.2-4.5zM1081.5 342c0-5 .4-9.6.8-14.5 132.6 1.1 265.2.4 397.8.4V342h-398.6z"/></g><g id="_x23_029ba5ff"><path class="st1" d="M1117.8 492.2c16.4-15.3 44.3-13.8 59.6 2.7 16.8 18 22.5 43.2 25.2 66.9 1.9 31.7-1.5 65.3-18.3 93.2-10.7 18-34.8 27.1-54.3 18-21.4-9.2-30.6-33.6-34-54.6-1.9-7.6 9.2-6.9 13-10.7 4.2 14.1 6.1 30.6 16.8 41.7 11.5 11.5 33.2 11.1 42.8-2.7 13.4-17.6 16.4-40.5 17.2-61.9h-45.5v-19.1c15.3 0 30.6.4 45.9-.4-2.7-19.5-4.6-41.3-19.5-55.8-10.3-11.5-30.2-12.6-41.3-1.5-8 8-11.5 19.5-14.1 30.2-5-1.9-9.9-3.8-14.9-5.7 4.2-15.1 9.6-30.3 21.4-40.3zM1715.1 481.9c18.7-3.4 37.5 8.4 47.4 24.1 16.4 25.2 19.1 56.6 17.6 86-1.9 24.1-8 49.7-24.5 68-11.5 13-30.6 20.3-47.4 13.8-14.1-4.2-24.8-16.1-31-29-16.4-30.2-16.4-66.5-11.5-99.4 4.3-26.8 19.6-57.8 49.4-63.5m-6.9 21c-25.6 14.5-28.3 47.8-29.4 74.1 0 24.8 2.3 52.7 21 71.5 11.1 12.2 32.1 11.8 43.6-.4 17.2-17.6 20.3-43.9 20.3-67.6s-1.9-50.4-18.3-69.2c-8.9-10.3-24.5-14.1-37.2-8.4zM1812.6 506.7c10.7-18.3 34.8-31.3 55.4-22.2 21 7.6 29.8 30.6 34.4 50.4-5 2.3-10.3 4.6-15.7 6.5-3.1-14.1-7.6-30.2-20.6-38.2-14.1-6.9-32.1-.8-40.1 12.6-14.5 23.7-14.5 53.1-13.4 80.3 2.3 18.3 4.6 38.6 18.3 52 9.2 11.1 27.9 12.6 38.6 3.1 13-10.3 16.8-27.5 19.1-43.2 5.3 2.3 10.7 5 15.7 7.3-4.2 20.6-11.1 43.9-30.6 55-18.3 11.1-44.7 5.3-56.9-12.2-12.2-16.8-17.6-37.8-19.5-58.5-2.3-31.3-2.3-65.3 15.3-92.9zM2418.7 486.1c16.4-9.2 37.8-4.6 50.1 9.2 10.3 10.7 14.5 25.6 18 39.4-5 2.3-9.9 4.6-15.3 7.3-3.8-14.5-8-30.6-21.4-39-14.1-6.9-32.1-.4-40.1 12.6-14.5 23.7-14.5 53.1-13.4 80.3 2.3 18.3 4.6 38.6 18.3 52.4 9.2 11.1 27.5 12.6 38.6 3.4 13-10.3 17.2-27.5 19.1-43.2 5.4 2.3 10.3 4.6 15.7 7.3-3.8 21.8-11.8 47-33.6 56.9-19.1 9.9-44.7 2.3-55.8-16.1-20.3-31-20.3-69.9-17.6-105.5 4.5-25.3 14.4-52.8 37.4-65zM1223.7 485.3h15.3v80.3h65v-80.3h15.7v186.9H1304v-87.9h-65v87.9c-5 0-10.3 0-15.3.4V485.3zM1346 485.3h88.3V504h-73.4v65c22.9 0 45.9-.4 68.8 0v18.7c-22.9.4-45.9 0-68.8.4v65h76v19.1h-91c.1-61.9.1-124.6.1-186.9zM1460.6 485.3c21 .8 42.4-1.9 63.1 1.9 22.2 3.8 29.8 28.7 30.2 48.2 0 18-3.4 39.4-19.5 50.1-17.6 11.1-39 5.7-58.5 6.9v80.3h-15.7c.4-62.8.4-125.1.4-187.4m16.1 19.1v68.8c14.9-.8 30.2 1.9 45.1-1.9 16.1-6.1 17.2-26 15.7-40.5-1.1-10.3-5.3-24.1-17.2-25.6-14.6-1.9-29.1-.4-43.6-.8zM1575.3 485.3h74.1V504h-58.9v168.1h-15.7c.5-61.8.5-124.5.5-186.8zM1923 485.3h88.3v19.1h-73.4v65c22.9 0 45.9-.4 68.8.4v18.7h-68.8v65h76v19.1h-91c.1-62.7.1-125 .1-187.3zM2037.7 485.3c21 1.1 42.4-1.9 63.4 1.9 21.8 3.8 29.8 28.7 30.2 47.8 0 18-3.4 39.4-19.1 50.1-17.6 11.1-39 5.7-58.5 7.3v80.3H2038c-.3-62.8-.3-125.1-.3-187.4m16 19.1v68.8c14.9-.8 30.6 1.9 45.1-1.9 16.1-6.1 16.8-26 15.7-40.5-1.1-10.3-5.4-24.1-17.2-26-14.6-1.5-29.1 0-43.6-.4zM2152.3 485.3c22.5 2.3 47.4-5.4 68 6.1 24.1 20.3 23.7 61.5 1.9 83.3 16.4 9.9 23.3 29.4 21.8 47.8 0 19.9-9.2 43.9-31 48.2-19.9 3.4-40.5.8-60.4 1.5-.3-62.3-.3-124.6-.3-186.9m15.3 19.1v61.1c17.6-2.3 43.6 7.6 52.7-13.4 3.1-15.3 5.4-37.5-10.7-46.2-13.7-3-27.9-1.1-42-1.5m0 80.3v68.8c15.3-.8 31 2.3 45.9-1.9 17.6-10.7 17.2-36.3 10.3-53.5-10.7-21-37.5-11.5-56.2-13.4zM2263.1 485.3h14.1c.4 49.3-.4 98.6.4 147.9 22.2-48.9 43.9-97.8 65-147.1 5.7-.4 11.5-.8 17.6-.8v187.3h-15.7c-.4-48.9.8-97.8-.4-146.7-21.4 48.9-43.6 97.8-65 146.7H2263c.5-62.7.1-125 .1-187.3z"/></g><g id="_x23_009aa3ff"><path class="st1" d="M611.1 18.7c7.3-6.1 17.6-4.6 25.2 0 82.9 47.8 165.9 95.5 248.8 143.3 18.3 11.8 30.6 32.5 32.5 53.9.4 23.7 0 47.8 0 71.5-37.1-21.4-74.1-42.8-111.2-64.2v113.9c-30.6-17.6-60.8-35.2-91-52.7-.4-37.8 0-76 0-113.9C678.7 149.1 642.1 128 605 107c.4-22.2 0-43.9 0-66.1 0-3.8-1.1-7.6 0-11.8.8-3.9 3-7.3 6.1-10.4zM555.3 157.8c16.1-9.6 32.5-18.7 48.5-27.9v175c-1.5 27.1 14.1 55 38.2 67.3 36.3 21 72.2 41.7 108.5 62.7-42.8 24.8-86 49.7-128.8 74.5-35.9-20.6-72.2-41.7-108.1-62.3-21.4-10.7-35.9-33.6-38.2-57.3-.4-24.1 0-48.2 0-72.2 16.4-9.6 32.9-19.1 49.3-28.7.4-26.4 0-52.7.4-78.7 1.9-20.6 13.4-40.5 30.2-52.4z"/><path class="st1" d="M373.8 262.5c6.9-3.8 15.7-6.1 22.9-1.9 6.9 4.2 9.2 12.6 9.6 19.9v76.8c16.4-9.6 32.9-19.1 49.3-28.7v61.9c-1.5 24.5 11.1 49.3 31.3 63.1 38.2 22.2 76.4 44.3 114.6 66.5v.8c-42.4 24.5-85.2 48.9-127.6 73.8-36.3-21-72.6-41.7-108.5-62.7-21.4-11.1-35.9-34-38.2-57.7v-185c15.6-8.8 31.3-18 46.6-26.8zM642.1 520.9c42.8-24.8 86-49.7 128.8-74.5l1.1.8c37.8 21.4 75.3 43.6 113.1 65 6.1 3.4 13.8 5.7 21 3.4-23.7 14.1-47.4 27.5-71.1 41.3-21.8 12.6-43.6 25.2-65.3 37.5-42.8-25-85.6-49.1-127.6-73.5zM493.8 606.1c42.8-24.8 85.6-49.3 128.4-73.8 42.4 24.5 84.8 48.9 127.3 73.4-38.2 22.5-76.8 44.3-115.4 66.9-7.6 6.1-18.3 4.6-26.4-.4-37.9-22.2-76.1-44.3-113.9-66.1z"/></g><g id="_x23_e4002fff"><path class="st0" d="M607.3 20.7c1.1-.8 2.3-1.1 3.4-1.9-3.1 3.1-5 6.5-6.1 10.7-1.1 3.4-.8 6.9-.8 10.3v67.6c-1.9.8-4.2 1.9-5.7 3.1-31 18-61.9 35.9-92.9 53.9v113.9c-26.4 14.9-52.7 30.2-79.1 45.5V209.9c-32.9 19.1-65.7 37.8-98.6 56.9-.8-2.3-.4-5-.4-6.9V198c0-6.1 1.5-12.6 5.4-17.6 2.3-3.1 6.1-4.6 9.2-6.5 88.7-51.2 176.9-102.4 265.6-153.2zM603.8 129.6c17.6 9.9 35.2 20.3 52.7 30.6 21.4 10.7 35.9 33.6 38.2 57.3.4 26.4 0 52.4 0 78.7 18.3 10.7 37.1 21.4 55.4 31.7.4 35.5 0 71.1.4 107-36.3-21-72.2-41.7-108.5-62.7-24.5-12.6-39.7-40.1-38.2-67.3.4-58.4.4-116.9 0-175.3zM835.8 274.8c7.3-4.2 16.4-1.9 23.3 1.9 19.5 11.1 39 22.5 58.5 33.6v183c0 8.4-3.4 18.3-11.8 21.4-6.9 2.7-14.5.4-21-3.4-37.8-21.8-75.3-43.6-113.1-65-.4-.4-.8-1.1-1.1-1.5V338.9c18.7 10.7 37.1 21.4 55.8 32.1v-76.8c-.1-6.8 2.5-15.2 9.4-19.4z"/></g></g></svg>