<svg id="Слой_1" xmlns="http://www.w3.org/2000/svg" viewBox="0 0 3280.7 809.6"><style>.st0{fill:#888}.st1{fill:#686868}</style><g id="_x23_f1af00ff"><path class="st0" d="M401.7 0c1.7 0 3.4.1 5.1.2 3.5 4.5 9 6.6 12.9 10.7 14.1 11.4 24.8 26.4 33 42.5.6 2.5 1.6 4.9 2.9 7.2.6 1.9 1.1 3.8 1.6 5.8l1.6.8c-.7 6.9 3.8 12.9 3.2 19.8-.2 6 1.8 11.9.9 18-1.2 6.4 0 13.1-2.4 19.3-1.5 7.8-3.8 15.5-7.3 22.6-.1 1.2-.2 3.6-.3 4.8 4.3-1.4 6.3-5.9 9.9-8.4 9.8-9.2 21.3-16.4 32.8-23.3 1.6-1 3.3-2 5-2.9 2.3-1.1 4.5-2.5 6.4-4.2.5-.1 1.4-.3 1.9-.5 16.1-10.1 32.6-19.5 48.9-29.3 2.7-1.3 5.2-3 7.5-5 .8-.3 1.6-.5 2.5-.7 1.6-1.1 3.2-2.2 4.9-3.3 1.4-.6 2.7-1.3 4.1-1.9 4.6-3.5 9.9-6.1 14.9-9 1.9-1.9 4.5-2.8 7-3.6 3.1 7.2 6.8 14 9.2 21.5 1 3.7 3.1 7.2 3.4 11.1.4 4.4 2.6 8.5 2.8 12.9-.1 9.4 2.2 18.8.4 28.2 0 10.8-3.9 21-6.8 31.3-2.9 4.6-4.3 9.9-7.2 14.4-7 11.7-15.6 22.9-26.7 31-2.2 2.4-4.4 5-7.7 6v3.1c10.5-3.6 21.5-6.9 32.8-6.5 46.3-.3 92.7-.1 139-.1.7 5.2-.8 10.3-.6 15.6.2 3.4-.6 6.8-1.8 10-1.2 6.1-3.2 12.1-4.5 18.2-.3.4-1 1.1-1.4 1.5-1.6 7.2-5.5 13.6-8.9 20-9.9 16.7-23.8 31.3-41.1 40.4-6.7 3.6-13.7 6.5-20.8 9.1-4.1.5-7.9 2.4-12.1 2.5-6.1.7-12.2 2.3-18.4 1.9 3.2 1 6.3 2.1 9.3 3.6 3.5.5 6.9 1.3 10.1 2.9 6.4 1.8 12.4 4.8 18.3 7.9 4.8 2.9 10 5 14.7 8.1 14.2 8.5 28.3 17.1 42.6 25.2 2.9 1.8 5.8 3.7 8.5 5.8 1.3.6 2.7 1.3 4 1.9 5.2 2.8 9.9 6.4 15.1 9.1 3.4 1.8 6.7 3.8 9.8 6 5.8 3.1 11.3 6.7 17 10 2.1 1.2 4.3 2.4 6.4 3.6 0 1.2-.1 2.4-.1 3.6-6.1 8.5-11.6 17.6-19.3 24.8-6.5 7-14.2 12.5-21.8 18.1l-2.4.4c-.8.8-1.6 1.7-2.4 2.6-.6.1-1.7.4-2.3.5-2.9 2.3-6.5 3.2-9.6 5-3.4.7-6.2 2.9-9.6 3.4-4.4.6-8.4 2.8-12.9 3.1-2.7.2-5.3.2-8 .4-11.2 2.1-22.7 0-33.8-1.8-2.3-1-4.8-1.6-7.3-1.9-5.5-3.1-11.6-5-17.8-6.2 1.6 3.9 5.1 6.2 7.6 9.4 12.1 13.4 20.2 29.6 29.1 45 4.5 7.9 8.5 16 13.2 23.7 3.8 6.6 7.7 13.2 10.9 20.1.8.8 1.6 1.7 2.4 2.5.1.6.4 1.8.5 2.3 3.5 5.1 6.3 10.6 9.2 16 5.3 9.4 10.5 18.9 16 28.1.8 1.5.4 3.4.5 5.1-1.5.1-3 .2-4.5.4l-3 2.4c-2.1.8-4.1 1.9-6.1 3-4.8 1.5-9.5 3.3-14.1 5.2-4.2.6-8.4 1.4-12.5 2.7-3.9 1.2-8.1.5-12.1 1-9.3 1.5-18.7 0-28-1-25-4.4-47.4-19.2-63.4-38.6-2.7-3.4-5-7.1-8-10.3-.2-1-.4-1.9-.6-2.8-.6-1.6-1.4-3.1-3.2-3.6-.3-.8-.7-1.7-1-2.5-.3 1-.5 1.9-.8 2.9.4.9.8 1.7 1.2 2.6 1.4 1.4 1.1 3.5 1.5 5.3.4.1 1.1.4 1.5.6.5 3.9 1.8 7.7 2.9 11.5.7 4.4 1 8.8 2.1 13.1 0 5.3 1 10.6 1.2 15.9v131.1c.6 3.3-3.1 3.8-5.5 3.5-16.8-1.2-33.8-4.6-48.7-12.7-.5-.2-1.6-.5-2.1-.7-16-9-30.9-21-40.6-36.9-.8-1.2-1.7-2.4-2.6-3.5-8.8-14.5-13.7-31.1-16-47.8-.5-2.2-1.1-4.3-1.6-6.5-.5 0-1.4-.1-1.8-.1 0 .7-.1 2-.2 2.7-.9 3.8-1.7 7.6-3.1 11.2-2.1 8.7-6.4 16.6-10.1 24.6-2.9 5.4-6 10.7-9.1 16-.6 1.4-1.3 2.7-1.9 4.1-3.1 5.2-6.1 10.6-9.1 15.9-4.3 7.7-8.4 15.5-13 23-9.6 18-20 35.5-29.6 53.4-.8 1.5-1.7 3.1-2.8 4.4-1.2.1-2.4.1-3.5.2-5.8-4.8-12.4-8.6-17.8-14-9.6-9.4-19.3-19.6-24.6-32.2-2.8-3.4-4.8-7.3-5.8-11.6-4.2-7.7-5.2-16.5-7.4-24.9-.8-13.3-2.7-27.1 1.2-40.1.7-3.3.8-6.8 2-10 2.3-6.2 3.9-12.8 7.2-18.6.6-2.2 1.6-4.2 2.9-6.1-.4.1-1.2.4-1.6.5-2.9 3.1-5.6 6.2-8.1 9.6-.5.1-1.7.4-2.2.5-.2.6-.5 1.7-.6 2.2-3.4 2.6-6.6 5.5-9.8 8.3-5.9 4.7-12.5 8.3-18.6 12.6-19.1 11.2-38 22.8-57.1 33.9-1.7 1-3.4 2.1-5 3.3-.5.2-1.7.4-2.2.6l-2.5 2.5c-.5.1-1.6.4-2.2.5-1.7 1.1-3.4 2.2-5 3.2-9.5 5.7-18.9 11.5-28.6 16.9-1.1.7-2.1 1.6-3.1 2.5-1.5 0-3 0-4.4.1-.1-.7-.4-2.1-.5-2.8-1.9-3.2-3.6-6.6-5.6-9.8-.2-1.7-.4-3.5-.6-5.2-2.4-2.8-3-6.5-4.2-9.9-1-4.6-1.7-9.3-3.1-13.8-1.6-5.6-1-11.4-1.2-17.1 0-8.3-.5-16.8 1.7-25 1.7-11.2 6.1-21.7 10.8-31.9 6.9-11.6 14.9-22.9 25.5-31.5 3.3-3.3 6.9-6.3 10.9-8.6l1.5-2.4c1.5-.6 3.1-1.2 4.6-1.8-1.3-.2-2.5-.3-3.8-.5-.3.5-1 1.5-1.3 2-4-.2-7.5 1.9-11.3 2.8-8.3 1.5-16.6 3.6-25 3.4-45.6.1-91.1 0-136.7.1.1-6.6-.5-13.3 1.1-19.8 1.2-5.1 1.4-10.4 3.4-15.2 1-2.5 1.5-5.2 1.8-7.8l1.5-2.4c1.1-4.1 2.9-7.8 4.6-11.7.4-.2 1.1-.7 1.5-.9.1-.8.2-2.3.3-3.1 5.4-8.3 10.3-16.9 17.4-24 6.2-7 13.8-12.6 21.3-18.1.5-.2 1.5-.5 2-.7 7.7-4.9 16.3-8.1 24.8-11.4l4.2-.3c1.3-.6 2.5-1.2 3.8-1.8 7.3-1.1 14.6-1.8 21.9-2.5-1.7-.3-3.3-.5-5-.7-.9-.6-1.7-1.2-2.6-1.8-4.1-1-8.3-1.8-12.2-3.7-4.2-1.3-8.2-3-12.1-4.9-2.5-1.5-5.2-2.9-7.8-4.3-.5-.1-1.6-.4-2.2-.6-1.9-1.2-3.8-2.3-5.7-3.3-5.5-3.4-10.9-6.6-16.4-9.9-6.6-4.1-13.6-7.6-19.8-12.1-.5-.2-1.5-.5-2-.7-10.4-6.7-21.5-12.6-31.9-19.4-.5-.1-1.6-.4-2.1-.5-.9-.9-1.7-1.7-2.5-2.6-.6-.1-1.7-.4-2.2-.5-6.2-4.5-13.2-7.7-19.5-11.9-3.7-2.5-7.6-4.6-11.5-6.7 0-.9.1-2.8.1-3.8 5.7-9.2 12-18 20-25.4 8.7-9.3 19.5-16.4 30.6-22.7 4.8-1.9 9.6-3.6 14.1-5.9 5.3-.5 10.1-2.8 15.3-3.6 4.2-.9 8.6-.4 12.8-1.5 5.6-.8 11.2.7 16.8.9 3.4.3 6.7.9 10.1 1.5 6.2 1.5 12.3 3.7 18.3 5.8 2.4 1 4.9 2 7.3 3l1.2 1.6c1 .1 1.9.2 2.9.3 0-.5-.1-1.6-.1-2.1-4.7-3.7-8.8-8.1-12.4-12.8-7-7.4-11.7-16.6-17.2-25.1-3.7-5.8-6.1-12.3-10.2-17.9-.2-.5-.6-1.6-.7-2.1-5.3-8-9.2-16.8-14.2-24.9-4.3-7.6-8.6-15.3-12.8-23-2.8-5.2-6.3-10-8.3-15.6l-1.2-.8c-.9-1.8-1.8-3.6-2.8-5.4-4.6-7.5-9.2-15.1-12.6-23.2 3.5-1.9 7.1-3.7 10.6-5.7 2.3-1.1 4.7-2.1 7-3 4-1.5 7.9-3.1 12-4.2 4-.7 8.1-1.3 12-2.9 5-.9 10-.1 15-1 3.3-.6 6.8-.5 10.1 0 4.3.7 8.7.3 13 1 2.3.7 4.6 1.3 7 1.8 5.2 1.3 10.1 3.3 15.2 4.8.2.3.5 1 .7 1.4 2.5.3 4.8 1.3 6.5 3.1 1.1.2 2.3.4 3.4.6 6.4 4.7 13.6 8.5 19.2 14.3 8.2 7.6 16 16 21.8 25.7.5-.1 1.5-.2 2-.3-1.9-4.3-3.1-8.8-3.9-13.4-.4-1-.9-2-1.3-3-.1-2.7-.2-5.4-.6-8.1-.8-4.9-.3-9.9-1.3-14.8-1.7-12.6-.9-25.3-.9-38-.2-29.7-.2-59.4 0-89.1.2-4.4-1.1-9.2 1.2-13.2 7.7-1 15.4 1.6 23.1 1.9 6.9 2.1 14.1 3.7 21 6.1.4.3 1.2 1 1.6 1.3 11.2 3.7 21 10.6 30.2 17.9 17.1 14.8 30.1 34.8 35 57 2.4 5.7 2 12 3.6 17.9.4 1.4.7 2.8 1.1 4.1.1 1.7.2 3.4.3 5.2l1.6.4c.1-.6.2-1.9.3-2.5 1.2-3.9.4-8.2 2.1-12 2.4-5.7 3.9-11.8 6.6-17.4 6.2-13.2 13.2-26 20.8-38.4.2-.5.5-1.6.7-2.1 2.5-3.1 4-6.8 5.9-10.3 12.8-22.5 25.2-45.3 38.1-67.8.9-2.6 2.5-5.5 3.5-8.7m-79.1 194c-.1.7-.2 2.2-.3 3-.6 2.6-1.2 5.2-1.2 7.9.1 32.2 0 64.4.1 96.7-5.5 0-11.1.1-16.6-.5-4.7-1-9.3-2.3-14-2.8-6.1-1.7-12.1-3.9-18-6.2-11.9-5.3-23-12.4-32.4-21.5-2.7-2.4-4.7-6.1-8.5-6.6 2.7 5.2 5.7 10.2 8.7 15.2.8 1.9 2 3.6 3.3 5.2.2.6.5 1.9.6 2.5 1.2 2 2.3 4 3.4 6.1 2.2 3.8 4.2 7.8 6.7 11.4 4.1 8 8.9 15.6 13 23.5 2.6 4.1 4.7 8.4 7.1 12.5 1.7 3.5 3.8 7 6.1 10.2.1.4.3 1 .4 1.4-2.1 1.2-4.1 2.5-5.9 4-.7.1-2 .3-2.6.4-1 .8-2.1 1.6-3.1 2.5-4.4 1.6-8.8 3.3-13.2 4.9-3.7.8-7.2 2.1-10.9 3.1-5.2 1.1-10.5 1.3-15.7 2.3-7.6.6-15.3.4-22.9 0-4.8-1.2-9.8-1.3-14.4-3.1-2.4-.9-5-2-7.4-.4 2.3 1.4 4.6 2.8 6.9 4.3 5 2.5 9.7 5.4 14.3 8.4 6.4 3.8 12.8 7.4 19 11.5 3.4 1.9 6.7 3.9 9.9 5.9 8.2 4.7 16.2 9.7 24.6 14.2 1.7 1 3.3 2.1 4.9 3.3 1 .1 1.9.3 2.9.5.8 1.3 1.7 2.6 2.5 3.9-1.3 1.9-2.5 3.8-3.6 5.8-5 7.6-10.8 14.6-17 21.2-7.8 7-15.6 14.1-25 19-4 3-8.7 4.8-13.2 6.9-4.2 1.8-8.7 3-13.3 3.6v3.2c31.4-.1 62.7 0 94.1 0 0 5.5.5 11-.6 16.4-1.2 5.1-1.8 10.4-2.8 15.6-2.6 8.9-5.1 17.9-9.8 26-5.9 13.3-15.3 24.8-25.9 34.7-.8 1.5-2.1 2.4-3.7 3l1.2.9c1.7-1.8 3.8-3.2 6.1-4.2 16.9-10 33.5-20.5 50.7-30 4.7-3.4 9.7-6.4 15-8.9 4.2-3.1 8.8-5.7 13.5-8.1 1.5-1.3 3.1-2.4 5-2.9 1.5 2.8 2.8 5.7 4.2 8.5 1.5 2.2 2.5 4.6 2.7 7.3.3.3.9.8 1.3 1.1.9 3.3 2.2 6.4 3.3 9.6 1.6 5.3 2.4 10.9 3.4 16.4.8 4.1.4 8.3 1.4 12.3 1.1 10-.6 20-1.2 29.9-.7 4.3-3 8.2-2.9 12.6.5 0 1.4-.1 1.9-.2 2.2-5 5.2-9.6 7.8-14.4 4.3-7.6 8-15.5 13.2-22.6.1-.7.4-1.9.6-2.6 9.2-15.2 17.4-31 26.3-46.4 2.2-.7 3.6 1.1 5.1 2.4 2.8 1.9 6.1 3.3 8.1 6.2.5.1 1.4.4 1.8.6 5.9 4.8 11.2 10.3 16.4 15.9 6.7 8 12.4 16.7 17 26.1 2.5 4.5 4 9.4 5.9 14.1 1.8 4.5 2 9.4 3.7 14 2.5-4.9 1.4-10.4 1.5-15.6v-86.6c8.3 0 17-.6 24.9 2.5 5.6-.1 10.5 2.7 15.9 3.8 4.6 2.2 9.4 3.9 14 5.9.4.3 1.2.9 1.7 1.2 10.7 5.8 21 12.8 28.9 22.1 1.2 1 2.4 1.9 3.7 2.9 0 .6.1 1.7.2 2.2.5.1 1.5.4 2.1.5-.4-1.7-.9-3.3-1.9-4.7-5-8.2-9.3-16.7-14-24.9-3.3-5.2-6-10.8-9.2-16-.2-.6-.5-1.8-.7-2.3-1.2-1.7-2.3-3.4-3.3-5.2-.9-1.7-1.9-3.3-2.9-4.9-3.4-5.9-6.3-12-10.1-17.6-.2-.6-.5-1.9-.7-2.5-3-4.2-5.8-8.6-7.3-13.6 3.4-2.1 6.8-4.1 10.2-6 3.8-1.5 7.5-3.3 11.5-4.1 4-3 9.2-2.5 13.7-4.3 5.8-2 12-1.6 17.9-2.8 5.6-.5 11.2-.3 16.8 0 7.9 1.6 16 2.1 23.6 5.2V443c-1.9-.6-3.5-1.6-5-2.9-2.3-1-4.5-2.2-6.3-3.9.1.4.2 1.1.3 1.5-8.3-6-17.4-10.6-26.1-15.9-3.3-2.1-6.7-4.1-10.1-6l-4.8-3c-5.3-3.2-10.5-6.6-16-9.6-4.5-2.5-8.7-5.8-13.7-7.3-.7-1.3-1.4-2.6-2-3.9 1.3-1.4 2.3-3.1 3.2-4.8 8.1-12.6 18.2-23.9 30-33.1 6.9-4.9 14-9.7 21.8-13 3.3-1.5 6.7-2.9 10.1-4.2 2.5-.4 5-.8 7.5-1.3-.1-1-.1-2.1-.2-3.1-31.7 0-63.3.1-95 0-.1-4.5-.1-9.1.2-13.6 2.4-6.4.9-13.5 3.9-19.7 1.3-2.7 1.9-5.7 2.3-8.7 2.1-4.2 3.4-8.6 5.1-13 1.1-2 2.1-4 3-6.1 5.5-9.6 11.6-19.1 19.9-26.5.9-1 1.9-2 2.9-2.9.8-.9 1.6-1.7 2.4-2.6h-2.8c-.4.4-1 1.2-1.4 1.6-7.7 3.1-14.1 8.8-21.7 12.2-4.8 3.4-9.7 6.6-15.1 9-2.1 1.3-4 2.8-6.3 3.9-9.2 5.9-18.8 11.2-28.1 16.9-4.3 2.4-8.3 5.5-13 7.1-1.4-2.9-2.7-5.8-4.2-8.7-1.3-2.2-2.3-4.5-3-6.9-2.7-6.5-5.1-13.2-5.8-20.3-3.3-6.5-2-13.9-3-20.9-.5 3.5-.3 7.1-.3 10.7-.3-6-1.1-12-1-18.1.2-8.1 2.5-15.9 3.1-23.9 1.5-3 2.1-6.4 1.7-9.7-1.5 1.4-2.6 3.1-3.5 4.9-1 1.6-1.9 3.3-2.9 4.9-4.2 7.9-8.7 15.6-13 23.4-1.9 3.5-3.8 6.9-6.1 10-.2.6-.5 1.9-.6 2.5-4 5.5-6.4 11.8-10.1 17.4-4.2 8-8.8 15.7-13 23.7-18.8-9.9-33.6-26.1-44.5-44.1-.2-.6-.5-1.9-.6-2.6-2.1-2.7-3.9-5.7-5-8.9-2.7-7-6.1-14-6.5-21.6.2-2.6-.5-5.2-1.2-7.9zM1658.9 392c.3.1.9.4 1.2.5 0 71.9.1 143.8-.1 215.8-9 .8-17.8-1.7-26.6-3.4-2.3-.4-4.4-1.3-6.6-2-.6-.4-1.3-.9-1.9-1.3-1.9.3-3.3-.9-4.8-1.7-4.1-2.5-8.3-4.7-12.2-7.3-1.2-.3-2.3-.6-3.5-.9 0-2-1.7-2.7-3.1-3.5-3.8-3.4-6.9-7.7-11.3-10.5-3.8-2.7-4-8.3-8.3-10.6-6.2 2.8-10.8 8.2-16.8 11.2-5.9 3.8-12.3 6.6-18.5 9.9-3.5 1.8-7.1 3.6-11 4.7-.3.3-.8.8-1 1.1-2 .4-3.7 1.3-5.1 2.6-2.7 1.4-5.9 1-8.7 2.2-2.6 1-5.1 2.3-7.8 2.5-3.7.4-7 2.7-10.7 2.5.1-.2.2-.6.2-.8 7.1-.4 13.7-3.6 20.5-5.5 5.9-1.3 11.2-4.4 16.9-6.3 2.7-1.4 5.3-2.7 8.1-4 7.4-3.2 13.6-8.4 20.7-12.4 3.1-1.5 6.2-3.2 8.2-6.1 2.7-1.5 5.8-3.8 8.8-1.5 2 3.1 2.5 7.3 5.8 9.4 3 3.9 6.1 7.9 10.6 10.2 6.1 6.6 14.2 11.1 22.6 14 1.8.9 3.7 1.5 5.7 1.6 2.8.2 4.8 2.8 7.6 3.2 1.8.2 3.6 0 5.4-.1 5.1 2.5 10.8 2.3 16.3 2.3.1-59.9 0-119.8 0-179.7-.3-11.6.6-23.2-.6-34.7-.1-.5 0-1.1 0-1.4zM3052.2 605.3c.1 0 .4-.1.5-.2 8.3 1.3 16.6 2.2 25 2.5 9.3.5 18.5-1.3 27.8-1.3-2.1 1.2-4.6.9-6.8 1.1-10.6 1-21.4 1.6-32 .1-4.9-.1-9.8-1.1-14.7-1.4.1-.1.1-.6.2-.8z"/></g><g id="_x23_002c11ff"><path class="st1" d="M1445.8 202.5c8.7-1.8 17.6-.5 26.3-.8l-.3.9c3.2-.1 6.5-.1 9.6.8 4.2.8 8.5 1.3 12.8 1.2l-.2 1c1.4-.1 2.8-.1 4.2-.2l-.1.9c4.1.2 8.1 1.3 12.1 2.4l-.2.6c3.2.1 6.3.9 9.3 1.9 1.4.6 2.8 1.2 4.3 1.8l3.6.6-.2 1.1 2-.4v1c2 .4 4 1 6.1 1.4v1.1c.5-.1 1.5-.4 2-.5v1.3c.8 0 2.3-.2 3-.2l-.1.9c1 .4 2 .9 3.1 1.3v.9c.8-.1 2.3-.2 3-.2l-.1.9c1 .4 2.1.9 3.1 1.3v.8c.7 0 2 .1 2.6.1 1.8 1.3 3.7 2.4 5.7 3.5 1.5 1 3.1 1.9 4.7 2.8v.6l1.2-.2-.2 1.3c.4-.1 1.1-.1 1.5-.2.7.3 2 1 2.7 1.4 0 .4-.1 1.1-.1 1.5.6 0 1.9.1 2.5.2.6.3 1.9 1 2.5 1.4v1.1c1.9.5 3.3 1.8 4.6 3.2.4.2 1.2.5 1.6.7 2 1.6 4.1 3.1 5.6 5.3.5.1 1.4.2 1.9.3 2.2 2.2 4.5 4.3 6.7 6.5l2.4 1.8v.8l1.4-.2c-.1.3-.2 1-.2 1.3 3.4 1.7 5.9 4.7 8.3 7.6l.3.2c2.7 3.4 5.7 6.5 8.8 9.5.2.4.6 1.1.7 1.5h.4c.9 1.7 1.9 3.3 3.3 4.6v1.4l1.2-.2-.1.8c1.6 1.8 3.2 3.7 4.5 5.8.8 1.3 1.5 2.5 2.3 3.8l.8-.3c.4 1.4.9 2.7 1.4 4.1l1-.2-.3 1.3.8-.1c.4 1.2.9 2.5 1.4 3.7.3.3.8 1 1.1 1.4l.8-.1c.1 1.3.1 2.5.3 3.8.4 0 1.3-.1 1.8-.1.5 1.7 1 3.4 1.4 5.2h1.3c.5 2 1.1 4 1.6 6l.6-.2c.3.4.9 1.1 1.2 1.4-.1.4-.2 1.3-.3 1.7l1.2.1c0 .7 0 2.2-.1 2.9l1.3-.2-.4 1.3.7.1c.5 2.4 1.5 4.6 2.5 6.8.5 1.2.9 2.4 1.3 3.7.3 1.2.5 2.4.8 3.5l1.1-.2c-.1.5-.4 1.5-.5 2.1h1.3c0 1.3-.1 2.7 0 4l.6.1c.4 1.2.8 2.3 1.3 3.5 0 .6.1 1.9.1 2.5l.8-.1c-.1 4.4 1.4 8.5 3 12.5.1 2.5.2 5.1.2 7.7l.7-.1c.3 3.4 1.3 6.7 1.4 10.1l.7.1c0 3.5.1 7-.2 10.5v1c0 .3-.1.9-.1 1.2 1.1 11.5.3 23.2.6 34.7v179.7c-5.5 0-11.2.2-16.3-2.3-1.8.1-3.6.3-5.4.1-2.8-.4-4.8-3-7.6-3.2-2-.1-3.9-.7-5.7-1.6-8.4-2.9-16.5-7.4-22.6-14-4.5-2.3-7.6-6.2-10.6-10.2-3.3-2.2-3.8-6.3-5.8-9.4-3-2.3-6.1 0-8.8 1.5-2 2.9-5.1 4.6-8.2 6.1-7 3.9-13.2 9.2-20.7 12.4-2.7 1.3-5.4 2.6-8.1 4-5.7 1.8-11 4.9-16.9 6.3-6.8 1.9-13.3 5.1-20.5 5.5-.1.2-.2.6-.2.8v.1c-1-.1-2.9-.4-3.9-.5l.1 1.3c-.8-.1-2.4-.2-3.1-.3l.2 1.1c-5.4-.1-10.7 1.4-16.2 1.1l.2.9c-4.4 0-8.8.2-13.2.1l.2.9c-4.1-.1-8.1 0-12.2 0l.2-.9c-5.4.1-10.8-.2-16.1-.2l.2-.8c-6.2 0-12.2-1.6-18.3-2.3l.2-.8h-5.1v-.9h-4.1l.2-1.2c-.8 0-2.3.2-3.1.2l.1-1.1c-1.7 0-3.4-.1-5.1 0v-.6c-1.7-.4-3.4-.8-5.1-1.3l.2-1c-2.3-.1-4.6-.3-6.9-.4v-1.9c-.5.1-1.6.2-2.2.2l.1-1c-2-.1-4-.2-5.9-.3 0-.4.1-1.2.1-1.6-.7-.2-2-.4-2.7-.6-1.2-.4-2.3-.7-3.5-1v-1.2c-1.2-.4-2.4-.9-3.6-1.3-.6 0-1.9-.1-2.5-.2 0-.4.1-1.3.1-1.8-2-.7-4-1.1-6.1-1.5 0-.3.1-1 .1-1.3-.6-.3-1.8-.8-2.5-1-1.8-1-3.7-1.9-5.5-2.8v-.2c-.9-.8-1.8-1.5-2.7-2.2-1.1-.2-2.2-.3-3.3-.4 0-.4.1-1.1.1-1.5-.4-.3-1.2-.9-1.5-1.3h-2.3c-.6-1-1.2-1.9-1.8-2.8-.6-.1-1.9-.2-2.5-.3 0-.3-.1-1-.1-1.3-1.6-1-3.2-2.1-4.7-3.3-.5-.2-1.4-.4-1.8-.6l-1.8-2.7c-.4 0-1.2.1-1.6.1v-.8c-.9-.6-1.7-1.2-2.5-1.8-2.4-2.4-4.8-4.7-7.3-6.9l-.1-.3c-3.3-2.4-6.3-5.2-8.8-8.5-2.3-2.6-4.7-5-6.8-7.7-.4 0-1.1-.1-1.5-.1.1-.5.2-1.4.3-1.8h-1.3l.2-1.2-.9.1c-.8-1.3-1.7-2.7-2.5-4l-.9.1.2-1.2-1.3.2c.1-.5.3-1.5.4-1.9l-.7-.2c-.8-.9-1.6-1.7-2.4-2.5.1-.3.1-1 .2-1.3h-1.3l.2-1.2-1 .2c-.5-1-.9-2-1.3-3l-.7.1c-.8-1.7-1.7-3.3-2.5-5h-.8l.3-1.3-1.4.2.4-2h-1.4c.1-.5.4-1.5.5-2l-1.4.1.3-1.3-1.4.2.4-1.6c-.4-.5-1.3-1.4-1.8-1.9-.9-1.8-1.8-3.6-2.5-5.4l-1.8-2.1c0-.7-.1-2.2-.1-3l-.8.2c-.3-.6-.9-1.9-1.2-2.5-.3-.5-.9-1.6-1.2-2.1.1-.4.3-1.2.4-1.5l-1.4-.1c.1-.5.2-1.5.3-2l-1.3.1V485c-.4-1.2-.8-2.5-1.1-3.7h-.9l.4-2-1 .2c-.2-1.2-.5-2.4-.7-3.6-.5-1.5-1.1-3.1-1.6-4.6l-.7.1c-.4-2.4-1.1-4.7-1.5-7.1l-1 .1c.2-.5.4-1.6.6-2.1l-1.2.1c-.1-1.9-.1-3.7-.2-5.6-.7-1.7-1.2-3.3-1.8-5-.1-.2-.2-.7-.2-1-1.5-5.4-1.7-11-3.1-16.4-1.1-4.3-.9-8.8-.9-13.2l-.8.1c0-10.5-.4-21 .2-31.5.8-4.5.8-9 .8-13.5l1 .1v-5.2l1.1.2c-.1-1.8 0-3.5-.1-5.2l.9.2c0-2.1 0-4.1.1-6.2l1.2.1c-.1-.4-.3-1.2-.3-1.6.7-1.4 1.2-2.9 1.9-4.3.2-2.1.2-4.2.4-6.2l1.1.1c0-.4-.1-1.1-.1-1.5.9-2.5 1.7-5.1 2.2-7.7l.9.2c-.1-.5-.3-1.6-.4-2.1l1.4.2c0-.5-.1-1.4-.1-1.9.4-1.5.8-3 1.3-4.4l.9.2-.2-.8c.4-1.3.9-2.6 1.3-3.9.3-1.2.7-2.4 1-3.5.3 0 1 .1 1.4.2.3-2 .7-4 1.3-6l1.2.2-.3-1.4 1.1.3c0-1.3.1-2.7.1-4l1.1.1-.3-1.3 1 .1c.5-1.7 1-3.3 1.5-4.9l.9.1-.3-1.2 1.3.1c-.1-.5-.3-1.5-.3-1.9l.8-.2c.5-.8 1-1.6 1.6-2.4.9-1.2 1.5-2.5 2.2-3.8.7-1.4 1.5-2.6 2.3-3.9 1.1-1.8 2.3-3.6 3.6-5.3 1.8-2.3 3.5-4.6 5.1-6.9 1-1.4 1.9-2.7 2.9-4.1l4.5-4.8v-.5c.3-.3.9-.8 1.2-1.1 2.8-2.9 5.6-5.8 8.1-8.9.2-.3.7-.9.9-1.2l.9.1v-.7c3.8-3 7-6.5 10.5-9.7.3-.2.9-.7 1.2-.9 2.1-1.8 4.4-3.5 6.7-5.1 3.3-2.8 7-5.1 10.2-8 1.5-.6 2.9-1.3 4.1-2.4.3 0 .9-.1 1.2-.1l.1-1.3 2 .4-.1-1.4 1.3.3c0-.5-.1-1.4-.2-1.8 1.3-.1 2.7-.2 4.1-.3 0-.4-.1-1.3-.1-1.8 1.1-.1 2.3-.3 3.4-.4.8-.9 1.7-1.9 2.6-2.8h2.8l2.4-2.1 1 .3-.2-1 3.3-.3c.9-.8 1.8-1.5 2.7-2.2v-.6h4v-1.3c.5.1 1.5.4 2 .5l-.1-1.5c.5.1 1.5.3 2 .5v-1.2h4.1l-.1-.8c1.2-.6 2.4-1.1 3.6-1.7 1.5-.3 3-.5 4.5-.7l-.2-1.1c.5.1 1.5.4 2 .5l-.1-1.2c1.2-.1 2.4-.1 3.6-.2 2.5-.7 5-1.4 7.6-2.1l-.2-.6c5.8-.4 11.2-2.4 16.9-3.1 3.6-.2 7.2-1 10.8-1.3 2.3-.7 4.7-.8 7-.8m.8 90.8c-2.5.6-5 1.1-7.6 1.2l.3.8c-2.5.1-5.1.2-7.5.9-1 .2-2 .3-2.9.5-.7.3-2 .8-2.6 1.1v.7h-2.7c-1.8.7-3.6 1.5-5.4 2.2l.1.8c-1.7 0-3.3.1-5 .2 0 .4.1 1.2.1 1.6-1.7.4-3.4 1-5.1 1.4l.1.9-1.2-.3.2.9c-.6.3-1.9 1-2.5 1.4-.4-.1-1.2-.2-1.6-.3l.1 1.3-1.3-.3.2 1.1c-1.4.5-2.7 1-4 1.4l.2.9-1.3-.3.1.9c-1.4.8-2.7 1.6-4.1 2.4l.1.7c-1 .4-2.1.8-3.1 1.3l.2 1-1.2-.3v.7c-5.8 5-11.3 10.4-16 16.5l-.9-.1c-.1.6-.2 1.8-.3 2.4-2.1 1.8-3.7 4.1-5.3 6.3-.5 1.5-.9 3-2.4 3.8-.6 1.4-1.1 2.9-1.6 4.4h-1.6c0 .5.1 1.6.2 2.1l-1.1-.1c-.1 1.3-.1 2.6-.2 4-.4 0-1.2 0-1.6-.1l-1.2 4.2-2.1 4.2c-.2 1.3-.3 2.6-.4 4-3.6 4.7-3.1 11-3.9 16.6l-.6-.3c-.4 1.3-.7 2.5-1.1 3.8-.1 11.2-.2 22.4.1 33.7l1.2-.1c-.2.5-.5 1.6-.7 2.1h1.2c0 4.3.9 8.6 2.3 12.7.8 2 1.4 4.1 2.1 6.2 0 .5-.1 1.5-.1 2l1.3-.2-.4 1.3 1-.2c.3 2-.1 4.6 2.2 5.6.7 1.7 1.1 3.6 1.4 5.4h1.3c.8 2 1.6 4.1 3.1 5.7.5 1.1 1.1 2.2 1.6 3.3h.4c.7.8 1.4 1.7 2.2 2.6 0 .4-.1 1.2-.1 1.6l1-.2c.3.6.9 1.7 1.2 2.2h.4c.6 1.1 1.3 2.3 1.9 3.4 2.8 2.6 5.3 5.4 8 8.1 2.4 2.3 4.8 4.7 7.4 6.9l.2.3c.3.3 1 .9 1.3 1.2.9.4 1.8.8 2.8 1.3l-.2 1 1.3-.3-.2 1c1 .4 2.1.9 3.2 1.4 0 .8.1 1.6.2 2.4 1.6.1 3.1.2 4.7.4l-.2 1.2 1.3-.3-.1 1.4c.5-.1 1.5-.4 2-.5l.1 1.4 2-.4-.2 1.3 1.3-.2-.2 1.1c1.6.1 3.3.2 5 .3 0 .4-.1 1.4-.2 1.8 2.3.8 4.7 1.1 7.1 1.3v1.8c.5-.1 1.6-.3 2.2-.3v1.1h4.1l-.1 1.3c.5-.1 1.6-.4 2.1-.5l-.2 1.3h4.1v.8c2.5 0 5 .3 7.4 1 2 .3 4 .8 6 1.2 10.6.3 21.1.2 31.7-.1v-.9c2.8-.1 5.5-.3 8.3-.2-.6-.2-1.8-.6-2.4-.7.9-.1 2.7-.2 3.5-.3 1-.4 2-.7 3.1-1 .6-.2 2-.7 2.6-.9l-.2-.6c2.4-.3 4.8-.9 7.1-1.4l-.2-.9c1.7-.5 3.3-.9 5-1.2.7-.6 1.4-1.1 2.1-1.7 1.4-.5 2.8-1 4.3-1.5 1.6-1.8 4.1-1.9 6.3-2.4-.5 0-1.5-.1-2-.2v-.6c.4-.2 1.3-.5 1.8-.6 2.2-1.2 4.2-2.8 6.3-4.1l6.9-5.1c1.7-1.6 3.4-3.2 5.2-4.6 1.6-1.5 3.2-3 4.7-4.5.3-.4 1-1.3 1.3-1.7 1.9-2.2 3.8-4.3 5.7-6.6l.8-.2c-.1-.5-.3-1.4-.4-1.9l1.1.1c.3-.3.9-1 1.2-1.3l-.2-1 1.1.1c0-.7.1-2.1.1-2.8.4 0 1.2 0 1.6.1.3-.6.8-1.9 1.1-2.6.5-.9.9-1.7 1.4-2.6l.8.1c.1-1.3.1-2.7.2-4 .4.1 1.3.2 1.8.3l-.2-1.4.9.1c.4-1.6.9-3.2 1.4-4.8.3-.3.8-1 1.1-1.4l.7.1c.1-2 .2-3.9.3-5.9h1.5c.3-.7.8-2 1-2.6.4-2.2 1-4.3 1.4-6.5l.7.1c.9-4.1 2-8.1 2.3-12.3l.7.2c-.1-3.9 1.2-7.7 1.1-11.6.1-7.5-.1-15-.1-22.6l-.9.1c0-2.1-.1-4.1-.1-6.2l-.7.3c-.3-1.6-.6-3.2-1.1-4.7l-.3-4.5-1 .1c.1-.8.2-2.3.3-3.1l-.9.1c-.3-1.2-.5-2.4-.8-3.5-.5-1.6-1-3.1-1.5-4.6l-.9.1c-.1-.6-.2-1.8-.3-2.4-.4-1.2-.8-2.4-1.1-3.6l-.8.1.3-1.3-1 .2c-.5-1.7-1-3.4-1.4-5.1l-.6.1c-.5-.9-.9-1.8-1.4-2.7-.3-.6-.8-1.8-1-2.4l-.8.1.2-1.2-.8.2c-.5-1.2-1-2.4-1.5-3.5-.8-1-1.6-2-2.5-2.9-1-1.5-2-3-2.9-4.4h-.6l.1-.7c-.8-1-1.7-1.9-2.5-2.9-2-2-3.9-4.1-5.7-6.1-.3-.4-.8-1.2-1.1-1.6-.4 0-1.2.1-1.6.2v-1.6c-1.1-.8-2.2-1.5-3.3-2.3l.2-1.1c-.7 0-2.2-.1-3-.2 0-.4.1-1.2.1-1.6-.4-.3-1.1-1-1.4-1.3-.6 0-1.9-.1-2.5-.1-.1-.6-.3-1.7-.4-2.2-1.7-.9-3.3-1.8-4.9-2.8l.1-.9c-.6 0-1.8-.1-2.4-.1-.9-1-1.9-2-2.8-2.9h-2.9v-2c-.5 0-1.5.1-2.1.2l.1-1.2c-.8 0-2.3.1-3.1.2l.1-.9c-1-.5-2.1-.9-3.1-1.4v-.8h-4l.2-1.2-1.3.4.2-1.3c-.8 0-2.3.1-3 .2l-.1-1.1h-4.1l.1-1.3c-.5.1-1.6.3-2.1.5l.1-1c-1.9-.2-3.7-.4-5.5-.7-4-1.1-7.9-2.5-12.1-2.5-8.6-.7-17.3-.5-26-.5zM2314.2 203.5c2.6 0 5.3-.1 8-.1v-.9c11.4-.2 22.7-.2 34.1 0l-.2.9c6.1-.4 12 1.6 18.2 1.2l-.2.7c4.5.3 8.7 2.1 13.2 2.4v.9c.8-.1 2.3-.2 3.1-.2l-.2 1.1 4.5.3c1.2.4 2.4.7 3.7 1l-.1.8 1.3-.3-.2 1.1c1.1.1 2.3.1 3.5.2l3 1.2c1.3 1.7 3.4 1.6 5.4 1.8.8.3 2.4.8 3.2 1l-.2.9c.5-.1 1.6-.2 2.1-.3l-.2 1.3c.8 0 2.4-.1 3.1-.1l-.1 1.2c.5 0 1.6-.1 2.2-.2 0 .5 0 1.4-.1 1.9 1.6.1 3.2.2 4.9.3l-.1 1.1 1.3-.4-.2 1.4c.5-.1 1.5-.3 2-.5v1.2h2.6c2.9 2.4 6.3 4.1 9.6 5.9.3.3.9.8 1.2 1.1l.9-.2-.2 1.4 2-.4-.1 1.3c.5-.1 1.5-.3 2.1-.4l-.1 1.4 1.3-.3-.3 1.4c.4-.1 1.2-.2 1.6-.3 1.5 1.3 3 2.5 4.6 3.7 1.4 1 2.8 2 4.2 2.9 2.5 2 5 3.9 7.6 5.8l-.1.8.5.1c1 .8 2.1 1.6 3.3 2.3.6.8 1.1 1.6 1.7 2.5.4 0 1.2-.1 1.6-.1l-.1 1.3.8-.1c.3.3 1 .9 1.3 1.2l-.1.9c.5 0 1.5-.1 1.9-.1 0 1.7.1 3.4.1 5.1l-1.2-.2.2 1.3-.9-.2c-.2.4-.5 1.2-.7 1.6-3 3.1-6 6.3-9.4 8.9l-.1.8h-1.3c-.9 1.1-2.1 1.9-3.3 2.5-.6.8-1.3 1.5-1.8 2.3-1.2.1-2.4.2-3.5.3.1.5.2 1.4.2 1.8l-1.4-.3.1 1.1c-.6.1-1.8.2-2.4.2-.9 1-1.8 1.9-2.6 2.8-1.4 0-2.7.1-3.9.2 0 .4.1 1.2.1 1.6-.6.3-1.9.8-2.6 1-1.3.5-2.5 1-3.7 1.4l.2 1c-.4 0-1.2 0-1.5-.1-1.9.7-3.8 1.4-5.6 2.1l.2.6c-2.8.6-5.5 1.4-8.2 2.3l.2.8c-1.9.2-3.8.5-5.6 1l-4.5.3.2 1c-.8-.1-2.3-.2-3.1-.2l.1 1.1c-4.2.1-8.5-.2-12.6.8-4.7.3-9.3.2-14 0-3.1-.9-6.4-.8-9.6-.8l.1-1c-1.4 0-2.8 0-4.1.1l.2-1c-1.6-.1-3.1-.1-4.6-.3-2.2-.6-4.4-.8-6.7-.9l.2-.9c-1.4 0-2.8 0-4.2.1l.2-1c-3.2 0-6.4-.1-9.5-.2-6.3-1.1-12.8-.9-19-.1-3.3.2-6.5 1.2-9.7 1.4l.2.8c-1.6 0-3.2.1-4.7.2-2.5.7-5 1.4-7.4 2.1l.1.5c-1.6.3-3.2.7-4.7 1.2-.4 0-1.1-.1-1.4-.1l.1 1.4c-.5-.1-1.6-.4-2.1-.5l.1 1c-4 .5-7.3 3-10.9 4.6-1.4.7-2.8 1.4-4.1 2.1v.4c-1.7.8-3.4 1.7-5 2.5v.7l-1.3-.2c0 .5.1 1.4.2 1.9h-3l.1 1.2-.6.3c-1.1.7-2.3 1.4-3.3 2.1l-.1.5c-.9.5-1.8 1-2.6 1.5-2.6 2.9-5.5 5.6-8.5 8.2 0 .2-.1.7-.1.9-1.8 1.4-3.4 3.1-4.8 4.9-1.2 1.7-2.6 3.3-3.9 5-.7 1.4-1.9 2.5-2.6 3.8h-.9c.1.5.4 1.5.5 2l-1.4-.2.2 1c-.8.8-1.5 1.7-2.2 2.5.1.4.3 1.3.4 1.7l-1.3-.3.2 1.3-1.3-.2c.1.4.1 1.2.2 1.5-.6.9-1.1 1.9-1.6 2.9-.6 1.1-1.3 2.1-2 3.1-.3 1.2-.5 2.4-.7 3.7-.6-.1-1.1-.2-1.6-.2-.1 1.5-.2 3.1-.3 4.6l-1.5 2.7c-1.4 2-1.6 4.4-1.6 6.8h-.8c-.1 1.4-.1 2.8-.1 4.2-.4-.1-1.3-.2-1.7-.3.3 5.4-1 10.8-1.4 16.2l-.8-.1c.3 7.5-.8 15.1.8 22.5.3 2.2.3 4.3.3 6.5l.8-.1v6.2l1.1-.1c-.1.8-.2 2.3-.3 3.1l.9-.1c.5 2.7 1.2 5.4 1.5 8.2l1-.2c-.1.5-.3 1.6-.4 2.1l1.1-.1c.6 2.4 1.1 4.7 1.5 7.1.4-.1.8-.1 1.3-.2.3 1.2.7 2.5 1.2 3.7.1.6.2 1.9.3 2.6.4-.1 1.1-.1 1.4-.2.4 1.2.8 2.4 1.3 3.6.1.6.2 1.8.3 2.4h1.5c.4 1.3.9 2.7 1.4 4l1-.1-.3 1.2 1.4-.1-.4 2 .8.2c1.9 2.9 4 5.6 6.4 8.1v.5l1.3 1.3.4-.1c.3.4 1 1.1 1.4 1.4l-.2.8h.7c.9 1.1 1.9 2.3 2.9 3.4 1.5 1.4 3.1 2.9 4.6 4.3 1.5 1.1 3 2.3 4.5 3.4 1.6 1.2 3.4 2.4 5.2 3.3 0 .4.1 1.2.1 1.6.5-.1 1.5-.3 2-.3v1.4l2-.4-.1 1.4 1.3-.4-.2 1.4c.4-.1 1.2-.3 1.6-.3.6.3 1.9 1 2.6 1.3l-.1.6c1.1.5 2.3 1.1 3.5 1.7.6.2 1.9.7 2.5.9 0 .4-.1 1.2-.1 1.6 1.3 0 2.7.1 4.1.1l-.1 1.1 1.3-.4-.3 1.4c.5-.1 1.5-.4 2-.5v1.4c.8-.1 2.3-.2 3-.2v1.3c.5-.1 1.5-.2 2-.3l-.1 1.3c2 .6 4 .9 6.1 1.1v.7c1.6.1 3.2.1 4.8.3-1.5.3-3.1.6-4.5.9 2.2-.1 4.4-.1 6.6-.1l.1 1h5.1l-.1 1c4.6-.2 9.1 1.2 13.7 1.1 6.8.2 13.6-.2 20.5-.1l-.2-1c1.3 0 2.7 0 4.1.1l-.1-.9c7.1.3 13.6-3.2 20.6-3.4 8.5-1.5 17.3-.6 26-.5 2.8.8 5.7.8 8.6.8l-.2.7c4.7 1.1 9.5 2 14.2 3.3l-.2 1.1c.8-.1 2.3-.2 3.1-.2l.1.8c1.7.3 3.4.8 5.1 1.3l-.1 1.1c.8 0 2.3-.1 3-.2l.1.7c1.9.9 3.8 1.8 5.8 2.7l.1.7c.4 0 1.1-.1 1.5-.2 1.1.8 2.2 1.5 3.4 2.3 2.3 1.4 4.6 2.8 7 4.1l-.1.6c1 .4 2.1.8 3.2 1.3v.6l3.9 2.7-.1.8 1.2-.3-.1.9c.8.4 1.7.9 2.6 1.4.7.8 1.4 1.5 2.2 2.3l.1.3 1.3 1.3.4-.2 1.4 1.4-.2.8 1.3-.3-.2 1.3 1.4-.1-.4 2 1.2-.3c1.6 1.6 2.2 3.6 2.1 5.8-1.5.7-2.4 2.1-3.8 2.9-.3.4-.9 1.2-1.2 1.5-.4.2-1.2.5-1.6.7-1.1 1.1-2.1 2.2-3.1 3.3-.4 0-1.1.1-1.5.1v1.5c-1.3.6-2.5 1.3-3.5 2.3l-.5.1.1 1c-.6.1-1.9.4-2.5.5-.7.9-1.3 1.8-1.9 2.8-.4-.1-1.1-.2-1.4-.3-.9 1-1.8 2-2.7 3.1h-1.5l-.1.7c-.9.7-1.7 1.4-2.5 2.2-.4.1-1.3.4-1.7.5-1.5 1.3-3.3 2.3-5 3.3-1.2.6-2.4 1.3-3.5 2l-.1.2c-4.4 2.5-8.8 5.1-13.4 7.2l-.8-.1.2 1.3c-.8 0-2.3-.1-3.1-.2v1.3c-.5-.1-1.5-.4-2-.5l.2 1.2c-2.4.9-4.8 1.7-7.2 2.4l.1.8c-2 .6-4.1.9-6.1 1.2v1c-.5-.1-1.5-.4-2-.5l.1 1.5c-.5-.1-1.5-.4-2-.6v1.3c-1.4 0-2.8-.1-4.1 0l.1 1.3c-.5-.1-1.5-.4-2-.5l.1 1.1c-3.1.1-6.1.9-9.1 1.4l.1.9c-.8-.1-2.4-.2-3.1-.2l.2.9c-3.4.4-6.8 1.3-10.2 1.3l.2.8h-5.2l.2.9c-2.6 0-5.2.1-7.7.8-3.9.3-7.8.3-11.6.2l.2.9c-9.4.2-18.7 0-28.1 0l.2-.9c-6.5 0-12.8-1.5-19.3-1.1 0-.4 0-1.3.1-1.7-1.9-.1-3.8-.2-5.6-.2-2.8-.8-5.6-1.1-8.4-1.1v-1.2c-.5.2-1.5.5-2 .6l.1-1.1c-3.2-.1-6.3-1-9.3-2l.3-.9c-2.5-.2-4.9-.6-7.3-1.2 0-.4.1-1.3.1-1.7-1.9-.1-3.7-.3-5.5-.4-1.1-.4-2.2-.9-3.2-1.3v-.7l-.7-.2c-1.5-.4-3-.7-4.5-1l.1-.9-.6-.1c-1.5-1.5-3.6-1.8-5.6-1.9l.2-.9-1.3.3.2-1c-1.8-.4-3.5-1-5.2-1.4 0-.3 0-1 .1-1.4-1.7-.4-3.3-.9-4.9-1.4l.1-1-1.3.2.3-.9c-1.5-.5-2.9-1-4.4-1.4.1-.3.2-1 .2-1.4-1.7-.5-3.4-1-5-1.5 0-.5.1-1.4.1-1.8-.7 0-2-.1-2.7-.1-1-1-1.9-1.9-2.8-2.9-.4-.1-1.2-.2-1.6-.3-.8-.8-1.5-1.5-2.3-2.2-.5-.3-1.5-.8-2-1.1-1.1-1-2.2-2-3.4-2.9-.8-.6-1.6-1.2-2.4-1.7l.2-1.1c-.5.1-1.5.3-2 .5l.2-1.4-.8.3c-.4-.4-1.2-1.1-1.6-1.4l.4-.9c-.3 0-1 0-1.4.1-1.2-1.2-2.4-2.3-3.5-3.4l-.1-.7-1.3.1c.1-.5.2-1.4.2-1.9-.4 0-1.3.1-1.7.1-1.4-1.6-2.8-3.3-4.1-5-.5-.1-1.6-.3-2.1-.4l-.4-2.8c-.4 0-1.1.2-1.5.2-.3-.4-.8-1.2-1-1.6-1.1-1.1-2.2-2.1-3.3-3.1 0-.4.1-1.2.1-1.6-.5 0-1.5.1-2 .1-.1-.8-.2-2.2-.3-3-.5 0-1.4.1-1.8.2l.2-1.3-.8.1c-.9-1.3-1.7-2.5-2.5-3.7l-3.3-3.9c-1-1.3-2-2.7-3-4-.9-1.4-1.8-2.8-2.6-4.2-1.2-1.7-2.3-3.3-3.6-4.8-.1-.4-.4-1.2-.6-1.6-1.6-2.3-3.2-4.7-4.6-7.1-.6-1.5-1.1-3.1-1.6-4.6h-1.6c.1-.5.2-1.6.2-2.1l-1.1.1c-.1-1.4-.2-2.7-.2-4-.4 0-1.1.1-1.5.1-.7-2.4-1.5-4.8-2.9-6.9-.7-1.7-1.2-3.4-1.7-5.2l-1 .1.5-1.3-1.1.2c-.1-2.3-.3-4.6-.4-6.9h-1.8c-.7-2.2-1.3-4.5-2-6.7.1-.4.2-1.1.2-1.5l-.9.2c-.3-.7-.9-2-1.2-2.6-.1-1.8-.2-3.6-.2-5.4l-1 .1c.1-.5.2-1.7.3-2.2l-.9.2c-.4-1.8-.9-3.6-1.3-5.4-.1-2.6-.2-5.1-.2-7.7l-.8.3-1.2-2.8.4-1.6h-1.1c.5-6.1-1.2-12-1.3-18l-.8.1c.1-11-.6-22.1.4-33.1.8-3 .6-6.2.7-9.2l.9.2c0-3.1.1-6.1.1-9.2h.9c-.1-1.4-.1-2.8-.1-4.2l1 .2c0-.7.1-2 .1-2.6.6-2.7 1.2-5.3 1.9-7.9.1-.9.3-2.7.3-3.5l1 .1c0-.3-.1-1.1-.1-1.4 1-2.4 1.1-5.1 1.1-7.7l.6.1c.4-1.3.9-2.5 1.4-3.7.9-2.5 1.7-5.1 2.7-7.6.4-1.1.8-2.1 1.2-3.1v-2.6l.9.1c.4-1.4.9-2.7 1.4-4l.2-.3c.6-1.2 1.3-2.3 2.1-3.5.6-1.6 1.2-3.1 1.8-4.6 1.1-1.3 1.7-3 2-4.7h.8l-.4-2 1.4.1-.4-1.3 1.4.1c-.1-.4-.3-1.3-.4-1.7.8-1 1.6-1.8 2.4-2.6l-.3-.9.7.1 2.4-5.1h1.1l-.4-2 1.3.1V294h1.7c.1-.6.3-1.8.4-2.3 1.1-1.2 2-2.5 2.9-3.8.9-1.4 1.9-2.7 2.9-4 1.1-1.5 2.3-3 3.4-4.5 2-2.5 4.1-4.9 6.1-7.5.4 0 1.2.1 1.6.1.1-.7.2-2.1.3-2.8.7-.1 2-.3 2.7-.4.1-.7.2-2 .2-2.7.6-.1 1.7-.3 2.3-.4.5-1.6 1.1-3.1 2.4-4.2l.2-.5 1.2.2-.2-1.2 1.2.2v-.8c.3-.3 1-.9 1.3-1.2h.5c.3-.3 1-.9 1.3-1.2v-1c.5 0 1.4.1 1.9.2 0-.5-.1-1.5-.1-2 .7-.1 2.1-.2 2.8-.3.1-.6.3-1.9.4-2.6.7-.1 2.2-.2 2.9-.3 0-.4-.1-1.1-.2-1.5.4-.4 1.1-1.2 1.5-1.6.4.1 1.3.3 1.7.4l-.2-1 1.3-1.3.9.2v-.8c1.9-1.3 3.8-2.6 5.8-3.8l-.1-.4 1.2-1.2 1 .2v-.8c1.3-.8 2.6-1.7 4-2.5v-.8h2.9V234c.5.1 1.6.2 2.1.3v-1.4c.5.1 1.5.4 2.1.5l-.2-1.4 1.3.3-.2-1.4 2 .4v-1.4l2 .4-.2-1.3 1.3.2-.1-1.3c.5.1 1.5.4 2 .5l.1-1.5c.5.1 1.5.4 2 .5l-.2-1.4 1.3.3-.2-1.3c.8 0 2.3.1 3 .2l.1-1.3c.5.1 1.5.4 2 .5l-.2-1.2c1.3-.5 2.7-.9 4.1-1.3l.1-.9 2 .4-.2-1.3.7-.1c1.4-.4 2.9-.8 4.4-1.1v-.4c1.5-.7 2.9-1.5 4.4-2.2 1.2 0 2.4-.1 3.6-.1l-.1-.9c1.3-.5 2.7-1 4-1.4l.1-.7h4l-.1-1.3c.5.1 1.6.3 2.1.5l-.1-1c1.5-.3 3-.6 4.5-1 1-.1 2.1-.3 3.2-.4 1.1-.4 2.2-.8 3.4-1.2l-.2-.5c3.1-.3 6.1-1.1 9.2-1.4l-.2-.6c4.7-.4 9.3-1.7 14-1.3v-1.5zM2686.6 205.3c5.8-1.3 11.7-2 17.7-1.9l-.1-.9c11.7-.2 23.4-.2 35.2 0l-.2.8c5.8-.2 11.4 1.6 17.2 1.2l-.3.7c4.5.1 8.6 2.6 13.3 2.3l-.1 1c.8-.1 2.3-.2 3.1-.2l-.2 1.1h5.1v.9c1.6 0 3.3.2 5 .3-.1.4-.1 1.2-.2 1.6 1.5.2 3.1.3 4.6.5 1.6.9 3.3 1.8 5 2.6 1.8.1 3.7.2 5.6.3l-.4 1.6c1.8.5 3.6 1 5.4 1.4l-.3.8 1.4-.3-.3 1c1.6.5 3.2 1 4.8 1.4.3.2 1 .7 1.4.9l-.1 1.1c.5-.1 1.5-.3 2-.5l.1.9c1.7.2 3.8.3 4.5 2.3.3-.1 1.1-.2 1.4-.2l.1 1.2h2.9v2h1.6c1.1.5 2.2 1 3.4 1.4v1.2c1.4.4 2.7.9 4.2 1.4l-.2.8c1 .5 2 .9 3.1 1.4v1c.5 0 1.5-.2 1.9-.2 0 .4.1 1.1.1 1.5 1.6.8 3.2 1.8 4.6 2.9 3.1 2.4 6.2 4.7 9.3 7l-.1.8 1.2-.2.1.7c2.6 2.2 5.1 4.5 7.7 6.8l.6-.1c1.2 1.4 1.6 3.2 1.6 5-1.2 1.1-2.3 2.3-3.3 3.5-1.9 2.5-4.1 4.7-6.6 6.7l-.1.7-1.2-.2.1.7c-1.7 1.2-3.3 2.5-5 3.7v.8c-.5 0-1.5-.1-2-.1 0 .4.1 1.2.1 1.7-1.4.4-2.8.9-4.1 1.4l.2 1-1.2-.2-.1.6c-1.8 1-3.5 2.1-5.1 3.5-.7 0-2 .1-2.7.1l-.1.7c-1.2.7-2.3 1.5-3.3 2.3h-2.7l.2 1.3-1.3-.5.1.9c-.6.3-1.8.9-2.3 1.3-1.3 0-2.5 0-3.7.1l.4 1.1-1.5-.3.3.9c-1.3.4-2.5.8-3.7 1.2-.6 0-1.9 0-2.6.1l.2 1.2c-.5-.1-1.5-.4-2.1-.5v1.1c-1.9.2-3.8.5-5.6 1-1.5.1-3.1.2-4.5.3l.2 1c-.8-.1-2.4-.2-3.1-.3l.1 1.1c-3.9.1-7.7.1-11.5.3-9.5 1.7-19.2.2-28.6-1.5l.2-.7c-1.6-.1-3.1-.2-4.6-.3-2.5-.8-5.1-.9-7.6-.9l.1-1c-.8.1-2.3.2-3.1.3l.2-1.1c-2.9 0-5.8-.1-8.6-.2-6.6-1.1-13.4-1-20 0-1.9.1-3.8.2-5.6.2l.2.9c-1.3 0-2.5 0-3.7.1-4.1 1.3-8.4 1.9-12.5 3.1l.1.5c-1.6.3-3.2.7-4.7 1.2-.3 0-1.1-.1-1.4-.1v1.4c-.5-.1-1.6-.3-2.1-.5l.1 1.3h-4v.8c-1.9 1-3.9 2-6 2.6l-.1.4c-1.7.8-3.4 1.7-5 2.5l-.1.4c-2.3 1.1-4.5 2.4-6.6 3.8-.4.3-1.2 1-1.6 1.3-1.6 1.2-3.1 2.4-4.7 3.5l-.2.2c-3.2 2.5-6 5.5-9 8.2-.3.3-.8.9-1.1 1.2l-.6-.1c-.6 1-1.1 2-1.6 3-.4 0-1.2-.1-1.6-.1l.2 1.4-1.3-.3c0 .4.1 1.1.1 1.5-1.9 2-3.7 4.2-5.4 6.5v.4c-.9.7-1.8 1.5-2.4 2.4-.1.4-.3 1.3-.4 1.7-.8.9-1.5 1.7-2.2 2.6h-.6c-.1.6-.2 1.7-.2 2.3-.8.9-1.5 1.7-2.3 2.6h-.6c0 .8 0 2.3.1 3l-.9-.1c-.8 1.9-1.7 3.8-2.3 5.8-.2.4-.6 1.1-.8 1.5l-.9-.3c0 .6-.1 1.8-.1 2.5-.4 1.5-.9 3.1-1.3 4.7l-.9-.1.4 2-1.2-.1-.3 3.6c-.5 1.5-.8 3.1-1.1 4.7l-.4-.1-1.2 3.6c-.1 3.3-.1 6.7-1.1 9.9 0 3.3-.2 6.6-1.1 9.9-.5 7.3.5 14.5 1.2 21.7l.7-.1c0 2.2.1 4.4.2 6.6 1 2.6 1.8 5.3 2.8 7.9 0 1 .1 2.1.2 3.1.3.6.9 1.9 1.2 2.5l.7-.1c0 .6 0 1.9.1 2.6.4 1.1.9 2.1 1.3 3.2.6 1.3 1.2 2.6 1.9 3.9.5 1.2 1.1 2.4 1.7 3.6l-.1.8h.7c1.4 3.8 3.6 7.2 5.9 10.5.8 1.5 1.8 2.9 2.7 4.4l.4.1c1.6 2.1 3.3 4.2 5 6.3 4.2 4 7.8 8.6 12.6 11.9 0 .4-.1 1.1-.1 1.5.7 0 2.2.1 2.9.1l-.1.8c.4.3 1 .8 1.4 1.1.9.4 1.8.8 2.7 1.3l-.1 1 1.3-.1c-.1.4-.2 1.3-.2 1.7 1 .1 2.1.3 3.3.5 1 1.1 2.2 1.8 3.6 2.3v.6c.3 0 1 0 1.3.1 1.1.7 2.1 1.5 3.1 2.4.7.2 2.1.5 2.8.7-.1.4-.1 1.2-.2 1.6 1.1 0 2.3.1 3.5.2.6.3 2 .9 2.6 1.2 0 .4-.1 1.1-.2 1.5 1.6.1 3.2.2 5 .3v.7c1.4.7 2.8 1.5 4.3 2.3h3.8l-.1 1.1c.8-.1 2.3-.2 3.1-.2l-.1.9c1.5.3 3.1.6 4.6 1 1.5.1 3 .2 4.6.3l-.2 1c1.4-.1 2.8-.1 4.2-.2l-.2 1c8.7.1 17.5.3 26.3.1l-.2-.9c2.1 0 4.1-.1 6.2 0l-.3-.9c5.5.3 10.8-1.4 16.1-2.4l-.1-.7c2.2 0 4.3-.1 6.5-.3 3.2-1.1 6.7-.7 10.1-.9 2.1-1 4.6-1 6.8 0 5.9-.1 11.7 1.4 17.7 1.2l-.1.7c4 .8 7.9 2.1 12.1 2.4l-.1 1c.5-.1 1.5-.2 2-.3l-.1 1 3.6.6c1.5.6 3.1 1.1 4.7 1.7l-.2 1c.8 0 2.3-.1 3-.2l.1.7c1.9.9 3.9 1.9 5.9 2.7l.2.8c.5-.1 1.5-.4 2-.5l-.1 1.1c.5.3 1.6.8 2.1 1.1 1.2.5 2.4 1 3.7 1.5.1.4.3 1.3.4 1.7h2.9l-.3 1.2 1.3-.2-.1 1c1 .4 2 .8 3.1 1.2l-.1.9 1.2-.2-.1 1c1 .4 2 .9 3.1 1.3l-.2 1 1.3-.3-.2 1c1 .4 2 .9 3 1.3l-.1.9 1.2-.1-.2 1.2 1.3-.3-.2.9 1.3 1.3h.4l1.3 1.3-.1.4 1.3 1.3.3.2c1.4 1.7 3 3.3 4.3 5.2-.6 1.1-1.4 2.1-2.1 3.2-4.2 3.4-8.3 7-12.3 10.7l-1.2.8c-.3.2-1 .7-1.3 1l.1 1c-.4-.1-1.2-.2-1.6-.2-.3.3-.9 1-1.1 1.3-.3.2-.8.7-1.1.9l-1.6 1.2c-1.1.8-2.2 1.6-3.3 2.2l-.3.1c-.8.8-1.6 1.6-2.4 2.5-.6 0-1.8.1-2.4.1l.1 1.1-1.3-.2c0 .4.1 1.3.1 1.7-1.1.1-2.2.3-3.2.5-1.6 1.2-3.3 2.3-5.1 3.4-1.7.9-3.4 1.9-5.1 3-2.1 1.3-4.4 2.2-6.8 2.8 0 .4.1 1.1.1 1.5-.6 0-2 0-2.6.1-1 .5-2 1-2.9 1.5-2.1 1.2-4.4 2.1-6.7 2.8l.1.9c-.5-.1-1.5-.4-1.9-.5 0 .3-.1 1-.1 1.3-1.7 0-3.3.1-5 .1l.1 1.2c-.4-.1-1.4-.3-1.8-.4-.6.7-1.1 1.3-1.6 2-1.6.1-3.1.1-4.7.2l.1.8c-3.6 1-7.3 1.8-11.1 2.4v.9c-.8 0-2.3-.2-3.1-.2l.2 1c-4.9.3-9.5 1.9-14.3 2.3l.3.7c-2.6 0-5.1.1-7.6.3-4.9 1.5-10.1.3-15.1 1.1-6.1 1.2-12.3.4-18.5.6l.2-.9c-8.1.7-16.1-1.2-24.2-1.1l.2-1c-1.4 0-2.8 0-4.1.1l.1-.9c-4.1 0-8.1-1.1-12.1-1.3l.1-.7c-3-1-6.1-1.3-9.2-1.4.1-.4.2-1.2.2-1.6-1.4 0-2.8-.1-4.1-.1v-1c-1.8 0-3.5-.1-5.2-.1 0-.4.1-1.3.2-1.8h-3.1v-1c-2.1-.1-4.1-.2-6-.3l.4-1.6c-2.1-.6-4.3-1.2-6.4-1.4 0-.5.1-1 .2-1.5-2.1-.6-4.1-1.2-6.2-1.6.1-.3.2-.9.2-1.2-1.3-.4-2.5-.8-3.6-1.3-.6-.1-1.9-.2-2.5-.3 0-.4.1-1.2.1-1.6-1.8-.5-3.4-1.1-5.1-1.6 0-.3.1-1 .1-1.3-1.2-.4-2.4-.9-3.6-1.3-.2 0-.7-.1-.9-.2-.7-1.5-2.1-2-3.6-2.2l-.2-.2c-.8-.8-1.7-1.5-2.4-2.2l-2-.4c-.6-.9-1.3-1.8-1.8-2.7-.7 0-2-.1-2.6-.1l.2-.9c-.3-.3-.9-.9-1.2-1.3l-.6.2c-.4-.4-1.4-1.1-1.8-1.5-2.5-2-4.9-4-7.4-5.9-1.4-1-2.7-2.1-4-3l.1-.8-.9.2c-.3-.3-.8-.9-1.1-1.3-4.9-4.4-9.5-9.1-14-13.8l-1.2-1.2.2-.9-1.3.1c.1-.5.2-1.5.3-2-.5.1-1.5.1-2 .2l.1-1.3-1.3.1c.1-.5.2-1.5.3-2l-1.3.3.2-1.3-1.2.2.2-.9c-1.3-1.5-2.6-3-3.8-4.5l-3.6-4.5c-1.1-1.6-2.1-3.1-3.1-4.7-1.4-2-2.7-4-4.1-6-1.1-1.6-2.2-3.3-3.2-4.9-.4-1.6-.5-3.4-2.3-4.1l.2-.6-1.1.1c-.1-1.3-.2-2.6-.2-3.9-.4 0-1.1.1-1.5.1-.4-.7-1.1-2-1.4-2.6.1-.4.2-1.2.3-1.5h-1.4c.1-.5.3-1.5.3-2l-1.3.1c-.5-1.7-.9-3.4-1.2-5l-.9.1.3-1.3-1.3.2c0-.3.1-1.1.2-1.4-.5-1.2-.9-2.4-1.3-3.7l-.8.1.4-1.3-1 .2c-.5-2.4-1.1-4.7-1.5-7l-.6.1c-.7-1.9-1.4-3.7-2.1-5.5 0-.6-.1-1.9-.1-2.6l-1.3.1c.2-.5.5-1.5.6-2l-1.3.1-.3-4.5c-.4-1.2-.8-2.5-1.1-3.7l-.9.1c.1-.8.2-2.3.2-3.1l-.9.2c-.1-5.3-1.9-10.4-2.9-15.6-.2-2-.3-4.1-.5-6.1-.8-2.4-.8-5-.8-7.5l-.9.1c.4-6.2-1.2-12.3-1-18.5-.4-8.3 1.5-16.4.9-24.6l1 .2c0-2 0-4 .1-6h.9c0-3.2-.1-6.4.7-9.5.6-3 1.3-5.9 2.3-8.8 0-.6.1-1.7.1-2.3.4-1.2.8-2.4 1.2-3.7l.9.2c0-.4-.1-1.1-.1-1.5.7-3.2 1.2-6.4 1.7-9.5l1.2.1c.4-2.4 1-4.8 1.5-7.2.4 0 1.2 0 1.6.1 0-.6 0-1.9.1-2.5.6-2.7 1.4-5.5 3.1-7.8 0-.6.1-1.9.1-2.5h1.1c0-.4-.1-1.1-.2-1.4 1.7-.7 2-2.4 2.3-4 .2-.7.7-2 1-2.7.3 0 1 .1 1.3.1.3-2.1.8-4.1 1.4-6.1.4 0 1.3.1 1.8.1.1-1.3.1-2.7.3-4l1.1.1.1-.5c2-2.9 3.5-6 5.1-9 1.8-2.6 3.5-5.2 5.4-7.7.7-1.2 1.5-2.4 2.4-3.6.9-1 1.8-2 2.7-2.9v-1.2l.8-.1c1.2-1.7 2.4-3.3 3.6-5l.9.1-.3-1.2.5-.2c1.2-1.1 2.3-2.3 3.5-3.4v-1.3h1.3l-.1-1.3h1.2c1.4-2.4 3.2-4.4 5.2-6.4 1.9-1.9 4-3.7 6.3-5.2.1-.2.2-.6.3-.8 3.9-3.3 7.4-7.1 11.8-9.8l.1-.4c1.9-1.4 3.9-2.7 6-3.8 0-.2.1-.7.1-.9 1.7-.9 3.3-1.9 4.7-3.3.3 0 .9-.1 1.3-.1v-1.1h2.9v-2.1c.5.1 1.6.2 2.1.3v-1.3l2 .4-.2-1.4 1.3.3-.2-1.4 2 .4v-1.3c.3 0 1 .1 1.3.1 1.3-2 3.6-2.5 5.7-3.3l-.2-.8 1.3.3-.2-1.2c.8 0 2.3.1 3 .2l.1-1.3c.5.1 1.5.3 2 .5l-.2-1.4 1.3.4-.1-1.3c.8 0 2.3.1 3 .2v-1.3c.5.1 1.5.3 2 .3l-.1-1.4 1.3.4-.1-.9c1.7-.3 3.4-.8 5.1-1.2l-.2-1c2.1-.4 4.1-1 6.2-1.3l-.1-.5c1.5-.5 3-1 4.6-1.5 5.6-2.4 11.5-3.7 17.4-5l-.1-.7c1.5-.1 2.9-.2 4.5-.3 1.5-.5 3.1-.8 4.8-1l-.2-.7c1.5-1.2 3-1.2 4.5-1.3zM3057.1 203.4c2.4 0 4.7-.1 7.2 0l-.1-.9c13.1.1 26.3-1 39.4 1 1.2 0 2.4.1 3.6.1l.1.8c3 0 6 .1 9 .3-1.3.3-2.6.6-3.8 1 4.1-.6 8.2.2 12.2 1.3 1.3.3 2.7.5 4.2.8 1.1.4 2.2.7 3.4 1.1l-.2.5c1.9.2 3.8.5 5.7 1 1.1.1 2.3.2 3.5.3l-.3 1.1 1.4-.4-.3 1c2.3.3 4.6.8 6.8 1.4.7.5 1.4 1.1 2.2 1.7 2.1.4 4.2 1 6.3 1.6 1.1.7 2.1 1.4 3.1 2.3 1.2.2 2.4.4 3.6.5l-.4 1 1.4-.2-.2 1.2c.8 0 2.3-.1 3.1-.2l.1 1.3c.5-.1 1.5-.4 2-.5-.1.4-.1 1.1-.2 1.4h1.4c1.2.4 2.5.8 3.8 1.2-.1.3-.1.9-.2 1.2l3.3.9c2 1.7 4.3 3 6.8 3.9v1c2.7 1.2 5.3 2.6 7.9 4v.3c.4.3 1.1.7 1.5 1 1.5 1.2 3.1 2.3 4.7 3.5v1c.5-.1 1.5-.4 2-.5l-.3 1.4.9-.3.4 1.1 1.1.4-.2.5c1 .4 2 .9 3 1.4l.1.5c2.7 2 5.1 4.4 7.5 6.8.4.2 1.1.6 1.5.8v.5c5.1 4.3 10 9.1 14.3 14.3h.7l-.2.9c2.6 2.6 5.1 5.2 7.5 8l.3.2c.6 1.4 1.9 2.5 2.6 3.9l.3.2c3.5 5.2 7.8 9.9 10.5 15.6 1.1 1.8 2.3 3.6 3.5 5.4.8 1.6 1.7 3.2 2.6 4.8l.4.1c.4 1.3.9 2.7 1.4 4.1l1.2-.2c-.1.5-.4 1.5-.5 2l1.2.1c0 .8-.1 2.2-.1 3l1.3-.2-.4 1.4 1-.2c.5 2 1.1 4 1.6 6 .4 0 1.2-.1 1.5-.1 0 .7.1 1.9.2 2.6l1.2 3.6 1-.2c-.1.5-.4 1.6-.5 2.1l1-.1c.3 1.5.6 3.1 1.1 4.6.1.6.3 1.9.4 2.6.4-.1 1.3-.2 1.7-.2 0 1.7 0 3.4.2 5.1h.7c.3 1.1.6 2.2 1 3.3.3 1 .8 2.1 1.2 3.1 0 1.8.1 3.7.2 5.5l1-.1c0 .8-.1 2.4-.1 3.2.4-.1 1.3-.2 1.8-.2.1 3.4.3 6.7.3 10.1l.7-.1c1.9 5.3 1.5 11 1.7 16.5-.2 19.5.5 39-.7 58.5-.4-.1-1.3-.3-1.8-.4-.1 1.8-.1 3.6-.1 5.5h-.9v2.7c-.7 1.5-1.4 3.1-2 4.6-.1 2.6-.3 5.2-.3 7.8-.4-.1-1.3-.2-1.8-.3v3.2h-1c-.1 2-.2 4.1-.3 6.1l-1.6-.4c-.5 2.1-1.1 4.3-1.4 6.4l-1-.1c.1.5.4 1.6.5 2.1l-1-.2c-.4 1.2-.8 2.4-1.1 3.6-.1.4-.3 1.3-.3 1.8-2 2.1-2.7 4.9-3.2 7.7-.3 0-1-.1-1.4-.2l-.6 3.6c-1.8 2.8-3.3 5.7-4.8 8.6h-.4c-1 1.8-2 3.5-2.9 5.3-1.1 1.6-2.1 3.3-3.1 5-2.1 3.5-4.6 6.7-7.1 10-.6.8-1.2 1.7-1.8 2.6l-.8.1c.1.5.2 1.4.3 1.9-.4.1-1.1.2-1.5.2-1.7 3.4-4.6 5.9-7 8.7l-.7.1.2.8-1.3 1.3-.4.1c-4.7 5.4-9.8 10.5-15.3 15.2l-.1.4c-.3.3-1 .9-1.4 1.3l-.8-.2.1.8c-1.9 1.5-3.7 3.1-5.6 4.7-1.4.9-2.8 1.9-4.1 2.8-.3.3-1 .8-1.4 1l.1.6c-1.1.4-2.1.9-3.1 1.3l.2 1.1-1.3-.3.1.8c-.8.5-1.6 1.1-2.4 1.7-1.9 1.3-3.8 2.6-5.8 3.5l.3 1.1h-3.1l-.1.6c-.9.8-1.7 1.5-2.5 2.3-.6 0-1.8.1-2.4.1l.2.9c-1.1.4-2.1.9-3.1 1.4l-.1.9-2-.4.1 1.4-1.3-.3.3.9c-1.8.4-3.5.8-5.1 1.3l.1 1.2-2-.4-.1 1.2c-.7 0-2.2-.1-3-.1v.9c-.3.3-1 .9-1.3 1.2-1.6.5-3.2.9-4.7 1.3l-.1.9c-.5-.1-1.5-.4-2-.5l.1 1.5-2-.4v1.3c-1.4 0-2.8-.1-4.1-.1l.1 1.2c-.5-.1-1.5-.3-2.1-.4v1.5c-.5-.2-1.5-.5-2-.6v1.3h-4.1l.1 1.2c-.5-.1-1.5-.3-2.1-.4l.1 1c-1.3.2-2.5.5-3.7.8-2.6.3-5.1.9-7.6 1.5l.2.6c-1.6.3-3.2.6-4.7 1.1l-4.5.3.1.9h-5.1l.1.9c-2.6 0-5.1.1-7.6.8-.8 0-2.4.1-3.2.2-9.3 0-18.5 1.8-27.8 1.3-8.4-.2-16.7-1.2-25-2.5-.1 0-.4.1-.5.2-2.8.6-5.5-.6-8.2-1l.2-.6c-2.2-.1-4.3-.2-6.4-.4-1.6-.4-3.1-.8-4.7-1l.1-.6c-2.7-.8-5.4-1.4-8.1-1.4v-.9c-.8.1-2.3.2-3.1.2l.1-1.4c-.5.1-1.5.4-2 .6v-1.3h-4.1v-1.3c-.5.1-1.5.4-2 .5l.1-1.5c-.5.1-1.5.3-2 .5v-1.2c-1.8-.1-3.5-.1-5.1-.1 0-.4.1-1.1.1-1.5-3.7-.6-7.1-2.2-10.3-4.2-1.6-.6-3.1-1.2-4.6-1.8.6-.1 1.9-.2 2.5-.3-2.8-.2-5.3-1.2-7.8-2.3l.2-1.2c-.5.1-1.5.4-2 .5l-.1-1.4c-.5.1-1.5.3-2 .3l.2-1.4-1.3.3.1-1.4-2 .4v-1.3h-1.3c-1-1-2.1-1.8-3.3-2.4-1.8-1-3.4-2-5.2-3-1.4-1-2.8-2-4.1-2.9l-.2-.3c-1.8-1.4-3.6-2.8-5.3-4.3l-.7.1v-1.3l-2 .4.2-1.4-1.3.2.3-1.3c-.4.1-1.2.1-1.6.2-.7-.8-1.4-1.6-2-2.4-.3-.2-.9-.5-1.2-.7-.9-.8-1.8-1.6-2.6-2.4-3.4-3.3-6.8-6.6-10.2-9.8-3.1-3.3-6.2-6.5-9.2-9.8-.2-.3-.7-.8-.9-1.1-1.6-1.8-3.2-3.6-4.7-5.5l-.7-.2c0-.5.1-1.5.2-2h-1.9c-.1-.6-.2-1.7-.3-2.3-1-.9-1.9-1.8-2.7-2.8-1.2-1.8-2.4-3.6-3.7-5.3-1.2-1.8-2.2-3.6-2.9-5.6-.3 0-.8-.1-1.1-.1-.5-1.3-1-2.5-1.5-3.8-.8-1.2-1.6-2.5-2.4-3.7-.2-.6-.6-1.8-.9-2.5h-1.3c-.5-1.2-.9-2.5-1.3-3.6 0-.4.1-1.1.1-1.5l-1 .2c-.8-2.1-1.6-4.1-2.3-6.2l-.9.1c0-.4 0-1.1-.1-1.5-.5-1.2-.9-2.3-1.2-3.5-.4-.4-1.3-1.1-1.7-1.4.1-.4.2-1.3.3-1.7h-1.2v-4h-1.3c.1-.5.4-1.5.6-2l-1.2.1c-.5-2.1-1-4.1-1.4-6.2l-1 .1c.1-.5.3-1.6.5-2.1l-1 .1-1.2-3.6c-.1-1.2-.2-2.4-.2-3.5l-.8.2c-.6-2.5-1.3-5-1.8-7.5-1.5-6.5-3.8-12.9-3.4-19.7l-.9.2c-.1-1.7 0-3.4 0-5.1l-1 .2c.1-4.2 0-8.4-.3-12.6-1.4-8.4-.4-17-.7-25.5l.8-.1c0-5.3.3-10.7.2-16l1.1.2c-.1-1.4-.1-2.8-.2-4.2l1.1.2c-.1-1.5-.2-3-.2-4.4.2.1.7.4.9.5v-7.3l1 .1c0-.8-.1-2.4-.1-3.2l1.1.3c0-.7.1-2 .1-2.6.5-2.2.9-4.4 1.1-6.6l.9.1c-.1-.6-.3-1.7-.4-2.2l1.2.3c0-1.2 0-2.5.1-3.7.4-1.6.9-3.2 1.4-4.7 1.1-1.3 1.6-2.9 1.8-4.5.3-1.5.7-2.9 1.1-4.3.4 0 1.1.1 1.5.1 0-1.5.1-3.1.2-4.6.4-.9.9-1.9 1.5-2.8 1.4-1.1 1.5-3 1.8-4.6h.9c0-.4 0-1.1-.1-1.4 2-.8 1.8-3 2.1-4.7l.9.1c0-.5-.1-1.6-.2-2.1h1.9c0-1.3.1-2.6.2-3.8.8-.9 1.6-1.8 2.4-2.6 1.2-2.5 2.5-5 3.9-7.5l.4.1c.8-1.6 1.6-3.1 2.6-4.6 1.1-.9 1.6-2 2-3.4.8-.9 1.7-1.9 2.7-2.8 0-.3 0-1-.1-1.3h1.3l-.2-1.2 1.2.1-.2-1.2 1.3.2c-.1-.4-.2-1.3-.2-1.7.8-.9 1.8-1.8 2.7-2.7 1.8-3.2 4.4-5.7 6.8-8.5l.7-.1-.1-.8c.3-.3.9-.8 1.2-1 .3-.4.8-1.1 1.1-1.5.4 0 1.1.1 1.4.2.1-.6.3-1.7.4-2.2 2.3-2 4.4-4.2 6.4-6.5l.8-.4c1.1-1.1 2.3-2.2 3.4-3.3l.1-.6 1.2.2-.2-1.2 1.2.3-.1-.8c.3-.3 1-.9 1.3-1.3l.8.1.1-.6c1.2-1.1 2.3-2.2 3.5-3.4.6-.1 1.8-.3 2.3-.4 0-.4-.1-1.3-.2-1.8l1.3.2-.1-.8c1.3-.4 2.6-.9 3.5-2.1 1.1-.9 2.3-1.8 3.5-2.6l.1-.4c1.7-1.2 3.3-2.4 5.1-3.5v-.3c1.6-.9 3.3-1.7 4.9-2.6l.1-.5c1.4-.4 2.7-1.1 3.5-2.4h.9c.6-.3 1.9-1 2.5-1.3l-.2-.8 1.3.3-.2-1.4c.5.1 1.5.4 2 .5l.1-1.4 2 .4-.2-1.4.8.1c.9-.5 1.9-.9 2.9-1.3.6-.2 1.9-.6 2.5-.8l-.2-1 1.4.4-.2-.9c1.7-.4 3.3-.8 5.1-1.3l-.2-1.2 1.4.3-.3-.9c2.1-.3 4.1-.8 6.1-1.4l-.1-.7c2.7-.7 5.4-1.6 8.1-2.4l-.2-.7c2-.5 4.1-1 6.2-1.3l-.1-1c.5.1 1.6.3 2.1.4l-.2-1.1c1.1-.1 2.3-.2 3.5-.3 1.8-.5 3.7-.8 5.7-1l-.1-1.1c.5.2 1.6.5 2.1.6l-.1-1.2 4.5-.3c2.1-.8 4.4-.9 6.7-1l-.3-1c1.4.1 2.8.1 4.2.2l-.2-1c3 0 6.1-.2 9.2-.2l.9-.8m7 90.1l.2.8c-2.3 0-4.4.4-6.4 1.1-2.2.1-4.4.3-6.6.4l.2.8c-1.3.6-2.5 1.2-3.7 1.9-.5 0-1.6.1-2.2.1-1.1.4-2.2.9-3.3 1.3-2.1 1.5-4.6 1.8-7 2 0 .5 0 1.3.1 1.8-.5 0-1.6-.1-2.2-.2l.2 1.1c-1.4 0-2.8.1-4.1.1 0 .4.1 1.3.1 1.8-1.7.6-3.4 1.1-5.1 1.5 0 .3.1 1 .1 1.4-1.3.5-2.5 1-3.7 1.5-.9.9-1.9 1.8-2.8 2.8h-1c-1 .9-2 1.8-3 2.5-1.3.9-2.4 1.8-3.6 2.8l-.1.7c-.4 0-1.4-.1-1.8-.1 0 .4-.1 1.1-.2 1.5-3.5 2.8-6.7 6-9.5 9.5-.2.1-.7.2-.9.2-1.3 1.9-2.6 3.9-3.9 5.8h-.8c.1.5.2 1.4.2 1.9-.7.1-2 .3-2.6.4-.3 1-.5 2-.7 3-1 .9-1.8 2.1-2.2 3.4-.2.3-.6.8-.8 1-1 1.1-1.7 2.5-2.2 3.9-1.1 2-2.2 4-2.9 6.2-.6.8-1.1 1.6-1.6 2.5-.1.3-.3.8-.4 1.1-.4 1.2-.7 2.5-.9 3.7l-1-.1c.1.5.4 1.6.5 2.1l-1-.1c-.4 1.2-.7 2.4-1.1 3.5-.1.5-.2 1.5-.3 2-.5 1.2-.9 2.3-1.2 3.6l-.5-.2c-.3 3.1-1.2 6.1-1.3 9.2l-.8-.2c0 1.7-.1 3.4 0 5.1l-1-.2c-.3 10.7-.3 21.4-.1 32.2l1-.1c0 1.7-.1 3.4 0 5.1l.9-.2c.1 3.4.9 6.8 1.4 10.1l.6-.1c.4 1.9 1.1 3.7 1.5 5.6.3 1.1.6 2.3.9 3.5l1-.1c-.1.5-.4 1.6-.5 2.1l1.3-.2v4h1.2c-.1.5-.2 1.6-.3 2.1.5 0 1.5-.1 2-.1 0 1.3.1 2.7.1 4h.8c.4 1 .9 2 1.4 3.1l.4.1c.8 1.7 1.7 3.3 2.5 5h.4c.9 1.9 2 3.6 3.2 5.3 1 1.3 2 2.5 3.1 3.8.6 1.4 1.9 2.4 2.6 3.9l.3.1c4.3 5.1 9.1 9.8 14.1 14.2 1.3 1 2.7 2 4.1 3 1.3 1 2.7 2.1 4.1 3.1v.7l1.2-.2-.2 1.1c1.5.1 3.1.3 4.7.4.1.7.2 2 .2 2.6 1.3.1 2.6.2 4 .3 0 .5 0 1.4-.1 1.9.5 0 1.6-.1 2.1-.1l-.1 1.1c1.3 0 2.7.1 4.1.1 0 .5-.1 1.4-.1 1.8 2.3.8 4.6 1.1 7.1 1.4-.1.3-.2 1-.2 1.4 1.4.3 3.1.7 4.6 1.1 1.3.4 2.7.9 4 1.3l.6-.2-.1.8c1.5.3 3.1.7 4.7 1.1 1.8.1 3.6.2 5.5.3l-.2 1c1.4-.1 2.8-.1 4.2-.1l-.2 1c11.7.3 23.5.3 35.3-.1l-.2-1c2.4 0 4.8 0 7.3.1-.9-.6-1.7-1.1-2.5-1.6 1.1.2 3.1.6 4.2.8l.1-1.2h2.6c1.1-.5 2.2-.9 3.4-1.3l-.1-.7c1.3 0 2.7 0 4.1.1v-1.3c.5.2 1.5.4 2 .6v-1.6c.5.1 1.5.4 2 .5v-1c1.9-.4 4.6.2 5.5-2.2 1.2-.2 2.5-.4 3.9-.6 1.3-2.8 4.7-3.5 7.2-5.1 1.5-1.1 3.1-2.1 4.7-3.2 1.6-1.2 3.1-2.5 4.8-3.6l.2-.2c1.3-.6 2.4-1.5 3.3-2.6h1.4V490c3.9-2.9 7.1-6.5 10.5-10 1.7-2.1 3.4-4.2 5-6.3h.7v-.6c2-2.7 3.9-5.4 5.4-8.4l.7.1-.2-1.3c.5 0 1.4.1 1.8.1 0-1.3.1-2.7.3-4l1.1.1-.3-1.2.9.1c.8-2.4 1.7-4.7 2.6-7h1.4c0-1.4.1-2.8.3-4.2.4 0 1.3.1 1.8.1 0-1.5.1-3 .3-4.5.3-1 .7-2.1 1.1-3.1.3-.6.8-1.9 1.1-2.5l.7.3c0-1.9.1-3.7.3-5.6.5-1.8.9-3.7 1.2-5.5l.7.1c0-1.9.1-3.7.3-5.5 1.6-7.5.6-15.4.8-23 .3-4.6-1-9.1-1.1-13.7l-.9.2c0-1.4 0-2.7.1-4l-1 .1c-.1-2-.1-4-.1-6.1l-.7.1c-.4-1.7-1.1-3.4-1.4-5.1h-.9c0-1.4 0-2.7.1-4.1l-1.3.1c.1-.5.4-1.6.6-2.1l-1.1.1c-.5-1.6-1.1-3.1-1.6-4.6-.6-1.1-1.2-2.2-1.7-3.2-.7-2-1.2-4.4-3.5-5-.3-1.2-.5-2.4-.7-3.6-.9-.9-1.7-1.9-2.2-3-1-1.7-2.2-3.3-3.3-4.9-1.3-1.7-2.6-3.5-3.7-5.2-1-1-2.1-2.1-3-3.1-.9-1.1-1.9-2.2-2.7-3.2l-.8-1.2c-1.3-.9-2.6-1.8-3.8-2.7 0-.3-.1-1-.1-1.4h-2c0-.5.1-1.4.1-1.8l-1.3.1v-.8c-1.3-.9-2.4-1.9-3.6-2.8-1.5-1.1-2.9-2.2-4.1-3.5h-1.2v-.9c-1.8-.9-3.5-1.9-5.3-2.8-1.5-1.3-3.2-2.4-5-2.9-1.3-1.2-2.7-2.2-4.3-2.9-2.4-1.1-4.7-2.5-7.3-3l-.1-.8c-.5.1-1.5.3-2 .5l.2-1c-1.3-.4-2.5-.8-3.7-1.2-1.2-.1-2.4-.2-3.5-.2l.1-1.2c-.5.1-1.5.4-2.1.6l.1-1.4c-.8.1-2.3.2-3.1.3v-1c-1.6-.1-3.1-.1-4.6-.1-1.6-.5-3.3-1-4.8-1.5-4.3-.8-8.7-.5-13-.7-4-1.1-8.1-.5-12.2-.6-.7 0-2.1 0-2.8.1-3.2.4-5.8.4-8.4.4zM989.9 209.4c2.9-.6 5.8-1 8.8-.9 89.1.1 178.2 0 267.3 0 0 5.8.4 11.6-.9 17.3v2.6l-1.5-.3c-.3 3.2-.6 6.3-1.2 9.5-.3.5-1 1.6-1.3 2.2.1.4.2 1.2.3 1.5l-1-.1c-.4 2 .4 4.9-2.2 5.6.1.4.2 1.1.2 1.5h-.9c-.3 1.7-.3 3.5-1.8 4.6-.3.5-.8 1.5-1 2l-2.7 4.5-.3.1c-.7 1.1-1.4 2.2-1.9 3.5-1.1 1.2-2.2 2.5-3.2 3.9l-1.2 1.6c-.3.3-1 .8-1.3 1.1l.1.8h-.8c-.9 1.2-1.8 2.3-2.8 3.5-1.2.9-2.3 1.9-3.5 2.8v.8l-.8-.2c-.3.3-.8 1-1.1 1.4-1.5 1.2-3.2 2.3-4.8 3.2-.6.8-1.2 1.5-1.7 2.3-.5 0-1.6.2-2.2.2-.8.8-1.5 1.7-2.3 2.6-1.5.4-2.9.9-4.3 1.4v1.4c-1.7.3-3.5.5-5.1 1.3-1.8 1.4-4 2.1-6.3 2.5-4.3 2.8-9.8 2.5-14.6 3.9l.2.7c-3.6.1-7.2-.2-10.6.8-18.2.5-36.5.1-54.7.2.1.5.3 1.5.3 2l-1.1-.1v4.2l.9-.1c0 100.4-.1 200.8 0 301.2l-1.3-.2c.1.5.3 1.5.5 2-29.7 0-59.4.1-89.1-.1-.3-103 .1-205.9-.2-308.9H905.2c-.3-.6-1-1.8-1.4-2.3 1.6-5.6 1-11.6 2.9-17.1.1-1.5.2-3.1.3-4.6l1.1.2c-.1-.8-.2-2.3-.2-3.1l.9.2c.4-2.4 1-4.8 1.4-7.2l1.1.1c-.1-.5-.3-1.6-.5-2.1l1 .1c.4-1.6 1-3.1 1.5-4.6.8-1.4 1.6-2.8 2.3-4.3l.7-.2c-.1-.5-.3-1.4-.4-1.9l1.3.2-.3-1.3 1.2.1c0-.6.1-1.8.2-2.4.9-.9 1.7-1.8 2.6-2.7.3-1.4 1.2-2.5 2.2-3.4l-.1-.6 1.3.1c0-.4-.1-1.1-.1-1.4 1.6-1.3 3-2.8 4.3-4.4l.2-.4c1-1.1 2.1-2.2 3.2-3.3l.1-.2 1.5-1.5.4.4c.4-.4 1.1-1.1 1.5-1.4l-.2-1c.5.1 1.5.2 2 .3 0-.4.1-1.2.1-1.5 3.2-1.8 6.3-4.1 9.2-6.4 1.3-.4 2.5-.9 3.8-1.3l-.2-.8c1.4-.5 2.7-.9 4.1-1.3v-.9l2 .4-.1-1.5c.5.1 1.5.3 2 .5v-1.2h4l-.1-1.2 1.3.4-.2-1c8.9-1.6 17.6-4.9 26.8-4.3zM1731.1 207.3c13.4-.2 26.8.1 40.3.2l-.2 1c1.7 0 3.5-.1 5.3-.1l-.3 1c2.5 0 5.1.1 7.7.2 3.1.8 6.4 1 9.6.9l-.3 1.1c.8-.1 2.4-.2 3.2-.3l-.2 1c1.8.1 3.7.2 5.5.4 1.5.4 3.1.7 4.7 1l-.2.9c.8-.1 2.4-.2 3.1-.3l-.2 1.1c1.2 0 2.4 0 3.7.1 1.5.7 2.9 1.5 4.5 2.2l-.1.8h4.1v1.3c.5-.1 1.5-.4 2-.5l-.1 1.5 2-.4-.1 1.3c.8 0 2.4-.1 3.1-.2v1.1c.5 0 1.6-.1 2.1-.1 0 .5-.1 1.4-.1 1.9 1.3.1 2.7.1 4 .2l-.2 1.1.6-.1c.9 1.7 2.7 1.9 4.4 2.3v.8l1.3-.3-.3 1.4c.5-.1 1.5-.3 1.9-.5l.2 1.4 2-.4-.1 1c1.3.8 2.6 1.7 4 2.5l-.1.5c.4.2 1.1.7 1.5.9 2.5 2 4.9 4 7.3 6.1h1.4l-.2.8c.3.4 1 1.1 1.4 1.5l.4-.3 1.4 1.4-.2.8.8-.1c.3.3.9 1 1.2 1.4l-.1.8.8-.1c.4.3 1.1 1 1.4 1.4 0 .3-.1.9-.1 1.2 1 .5 2.1 1 3.2 1.6 0 .4-.1 1.3-.1 1.8.5 0 1.4-.1 1.9-.1.1.6.3 1.9.4 2.6.9.4 1.9.8 2.9 1.3l-.3 1.3h.8c1.2 1.7 2.5 3.3 3.7 5l.3.1c1.2 1.5 2.4 3.1 3.7 4.6 1.3 1.8 2.7 3.5 4 5.4l.8.1c0 .5-.2 1.4-.2 1.9l1-.1c.3.4 1 1.1 1.3 1.5-.1.4-.1 1.2-.2 1.6l.8-.1 1.8 2.7c1.3 2 2.7 4.1 4 6.2l.3.1c.3.3.9 1 1.3 1.4l-.2.9 1.4-.1c-.1.5-.3 1.5-.5 2l.8.1c.7.9 1.5 1.8 2.3 2.6.1.6.2 1.8.2 2.3l1.1-.3-.3 1.3 1.1-.1c.5 1.6 1 3.2 1.4 4.9h1.2c.8 1.7 1.7 3.5 2.5 5.2h.8c.4 1.3.9 2.7 1.3 4.1l.9-.3-.3 1.3 1.3-.1-.4 2 1 .1c.4 1 .9 2 1.4 3l.6-.1c.3.6.8 1.9 1.1 2.5.9 1.8 1.7 3.5 2.5 5.4.3.4 1 1.1 1.3 1.5.3.5 1 1.6 1.4 2.2v2.6l1.1-.3-.2 1.3 1.1-.1c.5 1.7.9 3.3 1.3 5.1.4 0 1.1 0 1.4-.1.6 2 1.2 3.9 1.7 5.9h1.3c.3.7.9 2 1.1 2.7.1.5.3 1.4.4 1.8 1.3.8 1.8 2.2 2.2 3.7l.7-.1v3h1.9v3.1l1.1-.1-.3 1c.7.8 1.5 1.6 2.3 2.4-.1.4-.3 1.3-.4 1.7l1.3.1c-.1.5-.3 1.5-.3 2l1.2-.2c.4 1.3.9 2.7 1.3 4.1h.5c.4 1 .9 2 1.4 3l.9.1c0 .8-.1 2.2-.2 3l1.2-.3-.3 1.3 1.3-.1c-.1.5-.3 1.5-.3 2h1.3c0 .8-.1 2.3-.2 3l1.2-.3-.2 1.3 1.3-.1-.4 2 .8.1c1.4 2.6 2.7 5.2 3.8 8l.7-.2-.3 1.3.9-.1c.4 1.7 1 3.3 1.5 5l.9-.3-.2 1.3.7-.1c1.1 2.7 2.4 5.3 3.8 7.9l.7.2c-.1.5-.2 1.5-.3 2l1.3-.1-.3 1.3 1.3-.3c0 .8-.1 2.3-.2 3.1l1.2-.1c0 .3 0 1-.1 1.4 1.7 1 2 2.8 2.2 4.6h.5c1.6 2.9 3.2 5.9 4.6 8.9l.7.1c0 .5-.1 1.5-.2 2.1.4 0 1.2.1 1.6.1.7 1.8 1.4 3.6 2.3 5.4l.1.7.8-.2c.4 1.2.9 2.5 1.4 3.7.8 1.1 1.5 2.2 2.3 3.3l.7.1c0 .4-.1 1.1-.2 1.5 1 1.2 2 2.4 3 3.7.8 1.6 1.7 3.1 2.6 4.6h.7l-.3.8 1.5 1.5.9-.2-.4 2c.6.1 1.7.2 2.3.3-.3-82.1.1-164.2-.2-246.2l1.2.2-.3-1.2c29.4.1 58.9 0 88.3 0 .1 132.8.1 265.6 0 398.3-8.1 0-16.2-.2-24.3-.2l.2-.9c-6.5.5-12.8-1.1-19.2-1.2l.3-.7c-3.2-.6-6.3-1.3-9.5-1.9-1.9-.4-3.8-1-5.7-1.5l.1-.8c-1.2-.1-2.4-.1-3.5-.2-1.2-.5-2.4-.8-3.6-1.2l.1-1c-.5.1-1.5.5-2 .6v-1c-2.1-.4-4.1-1-6.1-1.5 0-.4.1-1.2.1-1.6-1.7-.1-3.4-.2-5.1-.2l.2-1.1-1.3.4.1-.9c-.6-.2-1.8-.7-2.4-.9l-3.6-1.5.2-.8c-1.4-.5-2.8-.9-4.2-1.3l.2-.9-1.3.3.2-1.4-2 .4-.1-.9c-2-1.2-4-2.5-6-3.6v-.5c-1.4-.8-2.7-1.7-4-2.5v-.5c-1.2-.9-2.4-1.8-3.5-2.7-.8-.7-1.6-1.3-2.4-1.9v-.8l-.9.2-1.3-1.3.1-.9h-1.4c-2.6-2.9-5.4-5.6-8.1-8.4-.4-.4-1.2-1.3-1.6-1.7l.2-1.3c-.4.5-1.9 3.5-.9.6-.4-.4-1.1-1.2-1.4-1.6-2-2-3.9-4.1-5.8-6.2-.2-.4-.7-1.1-1-1.4h-.5c-1.2-1.6-2.4-3.1-3.6-4.7-1.6-1.9-3-3.9-4.3-6-.2-.1-.6-.3-.9-.4-1.9-2.9-4.1-5.6-6-8.5l-.1-.5c-.8-.8-1.6-1.5-2.4-2.2v-.4c-.6-.8-1.1-1.7-1.6-2.5-1-1.5-1.9-3.1-2.8-4.6h-.8l.2-1.3-1.3.3c.1-.4.2-1.2.3-1.6-1.3-1.6-2.5-3.3-3.7-4.9-1-1.5-1.9-3-2.8-4.5l-.3.1-2.7-5.1h-.6l-.1-.7c-.8-1.4-1.6-2.9-2.3-4.3h-.7l.3-1.3-1.3.3c.1-.4.2-1.2.3-1.6l-1.6-2c-.7-1.1-1.3-2.2-1.9-3.3l-.7-.1c0-.3.1-1.1.1-1.4-1.2-.8-1.9-1.9-2.3-3.2-.3-.4-.9-1.4-1.2-1.8-.9-1.7-1.9-3.4-2.8-5.1-.7-1.5-1.5-2.9-2.2-4.4h-.3c-.9-1.7-1.9-3.4-2.6-5.1h-.6v-1.4c-2-.8-1.9-2.9-2.2-4.6l-.8.1-.3-.5c-.8-1.5-1.4-3.1-2-4.6l-.7.1.3-1.3-.9.3c-.5-1.2-.9-2.3-1.3-3.5v-1.5l-1.2.1.1-.6c-1.8-1-1.8-3-2-4.7l-.9.2c0-.3-.1-1-.1-1.3-1.6-1.1-1.8-3.1-2.1-4.8-.4 0-1 .1-1.4.1-.3-1.2-.5-2.4-.7-3.6-.7-1.1-1.3-2.2-1.9-3.3h-.4c-.4-1.3-.8-2.5-1.3-3.7l-1.2-1.6-.8.2v-2.8c-.9-.9-1.8-1.9-2.6-2.8-.2-1.2-.4-2.3-.6-3.5l-1 .2.3-1.3c-.4 0-1.4.1-1.8.1-.1-1.4-.2-2.7-.2-4l-1.1.1c0-.5.1-1.6.1-2.1h-1.8c-.1-1.4-.2-2.7-.2-4l-1.1.2.3-1.3-1.4.2c.1-.4.2-1.3.3-1.7-1.9-2.6-3.6-5.3-4.5-8.4h-1.1c-.4-1.5-.9-3-1.4-4.4-2.1-.6-2-2.8-2.3-4.5l-.6.1c-.5-1-.9-2-1.4-3.1h-1c.1-.5.3-1.4.4-1.9l-.7-.2c-.9-.8-1.7-1.7-2.4-2.6 0-.6-.1-1.7-.2-2.3l-1.1.1.2-1.2-1.3.2c.1-.5.2-1.5.3-1.9h-1.2c0-.4 0-1.1-.1-1.4-1.9-2.3-3.5-4.9-5-7.4-2.3-2.8-4.5-5.7-6.8-8.5l.1-.8-1.2.1.2-1.2-1.2.1c0-.3 0-1.1-.1-1.4-3.3-2.5-5.6-6.8-10.1-7.1-.2 86.1 0 172.3-.1 258.4-29.9.4-59.8 0-89.7.2-.4-134.8-.1-268.5-.2-402.2z"/><path class="st1" d="M2357.1 356.5c5.6.3 11-1.2 16.6-1 35.1-.1 70.2 0 105.2 0 .3 1.1.6 2.2 1 3.3-1.1 3.2-.8 6.5-.8 9.8l-.9-.2c0 2.1-.1 4.1 0 6.2l-1-.1c0 1.7-.1 3.4 0 5.1h-.6c-.4 2.5-1.3 5-2.2 7.4-.1 1.2-.2 2.4-.2 3.6h-1.1l.4 2h-1.5c.1.5.4 1.5.6 2h-1.3c0 .7.1 2.2.1 2.9-1 1-1.9 2-2.8 3-.1.7-.2 2.1-.3 2.8-1.4 1.6-2.5 3.4-3.4 5.3l-.7-.1.3 1.3-1.4-.3c.1.4.2 1.3.3 1.7-6.4 8.2-13.6 15.8-21.8 22.2l-2.7.6c-.4 2.9-3.3 2.7-5.6 3 0 .4.1 1.2.1 1.6-2 .7-4 1.1-6.1 1.4v1.7c-.5-.1-1.6-.2-2.2-.2v.7c-1.5.3-2.9.8-4.4 1.2-1.7.7-3.4 1.4-5 2.1h-3.7l.1 1.2c-.8-.1-2.3-.2-3.1-.3l.1 1c-2.3.1-4.6.2-6.7.8-6.5.7-13.1-.4-19.4 1.4l.1-1.1c-5.4.1-10.8.1-16.2 0v1.3c-.6-.3-1.7-1-2.3-1.3-3.3.5-6.5 0-9.7-.1v1.4c-.6-.3-1.7-1-2.3-1.3-3.9.1-7.8.1-11.7 0l.1.9h-2.2l.2-.9c-3.1.1-6.1.1-9.2 0v1.3l-3.2-1.2c-3.8 1.1-7.9-.5-11.8-.1l.1 1.2-1.5-.5c-1.7-.4-3.4-.8-5.1-.6-6.5.1-13 .1-19.5 0l.2.9h-3.2l.1-1.2c-.5.1-1.5.3-2.1.4 0-2.9.1-5.8.2-8.7.9-3.4.7-7 .8-10.6l1.1.1c-.1-.8-.2-2.3-.3-3.1l.9.2c.2-1.9.5-3.8 1-5.6 0-1.2.1-2.4.2-3.6l1.3.2c-.2-.5-.5-1.6-.6-2.1l1.3.1c0-.6.1-1.9.1-2.5l1.2-3.6.6.1c.8-2.1 1.5-4.1 2.3-6.2l1 .1c-.1-.5-.2-1.5-.3-2h1.4l-.4-2h1c.8-1.6 1.7-3.3 2.6-4.9h.4c.8-1.4 1.7-2.7 2.5-4.1h.5c.8-1.4 1.6-2.7 2.5-4.1h.4c.3-.3 1-.9 1.4-1.3l-.1-.6 7.2-7.2.9.2.1-.6c1.2-1.1 2.3-2.3 3.5-3.4.3 0 1 .1 1.4.1v-.9c1.2-.8 2.4-1.7 3.7-2.5.6-.3 1.7-.9 2.3-1.1v-1.5h2.8c.8-.8 1.6-1.5 2.4-2.3.4.1 1.2.2 1.7.3l.1-.8c1.4-.4 2.7-.9 4.1-1.3l-.2-.9c.6 0 1.9-.1 2.5-.1 1.2-.4 2.4-.8 3.7-1.2l-.1-1c.5.1 1.6.4 2.1.5l-.1-1.3h5.1v-1c.8.1 2.3.2 3 .2l-.1-1.2c1.4 0 2.8.1 4.2.1v-1.1z"/></g></svg>