<svg xmlns="http://www.w3.org/2000/svg" viewBox="0 0 2815.3 678"><style>.st0{fill:#888}.st1{fill:#686868}</style><g id="Слой_2"><g id="_x23_f1af00ff"><path class="st0" d="M370.3 0c1.4 0 2.8.1 4.3.2 2.9 3.8 7.5 5.5 10.8 9 11.8 9.5 20.8 22.1 27.6 35.6.5 2.1 1.3 4.1 2.4 6 .5 1.6.9 3.2 1.3 4.9.3.2 1 .5 1.3.7-.6 5.8 3.2 10.8 2.7 16.6-.2 5 1.5 10 .8 15.1-1 5.4 0 11-2 16.2-1.3 6.5-3.2 13-6.1 18.9-.1 1-.2 3-.3 4 3.6-1.2 5.3-4.9 8.3-7 8.2-7.7 17.8-13.7 27.5-19.5 1.3-.8 2.8-1.7 4.2-2.4 1.9-.9 3.8-2.1 5.4-3.5l1.6-.4c13.5-8.5 27.3-16.3 40.9-24.5 2.3-1.1 4.4-2.5 6.3-4.2.7-.3 1.3-.4 2.1-.6 1.3-.9 2.7-1.8 4.1-2.8 1.2-.5 2.3-1.1 3.4-1.6 3.9-2.9 8.3-5.1 12.5-7.5 1.6-1.6 3.8-2.3 5.9-3 2.6 6 5.7 11.7 7.7 18 .8 3.1 2.6 6 2.8 9.3.3 3.7 2.2 7.1 2.3 10.8-.1 7.9 1.8 15.7.3 23.6 0 9-3.3 17.6-5.7 26.2-2.4 3.9-3.6 8.3-6 12.1-5.9 9.8-13.1 19.2-22.4 26-1.8 2-3.7 4.2-6.4 5v2.6c8.8-3 18-5.8 27.5-5.4 38.8-.3 77.6-.1 116.4-.1.6 4.4-.7 8.6-.5 13.1.2 2.8-.5 5.7-1.5 8.4-1 5.1-2.7 10.1-3.8 15.2-.3.3-.8.9-1.2 1.3-1.3 6-4.6 11.4-7.5 16.7-8.3 14-19.9 26.2-34.4 33.8-5.6 3-11.5 5.4-17.4 7.6-3.4.4-6.6 2-10.1 2.1-5.1.6-10.2 1.9-15.4 1.6 2.7.8 5.3 1.8 7.8 3 2.9.4 5.8 1.1 8.5 2.4 5.4 1.5 10.4 4 15.3 6.6 4 2.4 8.4 4.2 12.3 6.8 11.9 7.1 23.7 14.3 35.7 21.1 2.4 1.5 4.9 3.1 7.1 4.9 1.1.5 2.3 1.1 3.3 1.6 4.4 2.3 8.3 5.4 12.6 7.6 2.8 1.5 5.6 3.2 8.2 5 4.9 2.6 9.5 5.6 14.2 8.4l5.4 3c0 1-.1 2-.1 3-5.1 7.1-9.7 14.7-16.2 20.8-5.4 5.9-11.9 10.5-18.3 15.2-.5.1-1.5.3-2 .3-.7.7-1.3 1.4-2 2.2-.5.1-1.4.3-1.9.4-2.4 1.9-5.4 2.7-8 4.2-2.8.6-5.2 2.4-8 2.8-3.7.5-7 2.3-10.8 2.6-2.3.2-4.4.2-6.7.3-9.4 1.8-19 0-28.3-1.5-1.9-.8-4-1.3-6.1-1.6-4.6-2.6-9.7-4.2-14.9-5.2 1.3 3.3 4.3 5.2 6.4 7.9 10.1 11.2 16.9 24.8 24.4 37.7 3.8 6.6 7.1 13.4 11.1 19.8 3.2 5.5 6.4 11.1 9.1 16.8.7.7 1.3 1.4 2 2.1.1.5.3 1.5.4 1.9 2.9 4.3 5.3 8.9 7.7 13.4 4.4 7.9 8.8 15.8 13.4 23.5.7 1.3.3 2.8.4 4.3-1.3.1-2.5.2-3.8.3-.8.7-1.7 1.3-2.5 2-1.8.7-3.4 1.6-5.1 2.5-4 1.3-8 2.8-11.8 4.4-3.5.5-7 1.2-10.5 2.3-3.3 1-6.8.4-10.1.8-7.8 1.3-15.7 0-23.4-.8-20.9-3.7-39.7-16.1-53.1-32.3-2.3-2.8-4.2-5.9-6.7-8.6-.2-.8-.3-1.6-.5-2.3-.5-1.3-1.2-2.6-2.7-3-.3-.7-.6-1.4-.8-2.1-.3.8-.4 1.6-.7 2.4.3.8.7 1.4 1 2.2 1.2 1.2.9 2.9 1.3 4.4.3.1.9.3 1.3.5.4 3.3 1.5 6.4 2.4 9.6.6 3.7.8 7.4 1.8 11 0 4.4.8 8.9 1 13.3v109.8c.5 2.8-2.6 3.2-4.6 2.9-14.1-1-28.3-3.9-40.8-10.6-.4-.2-1.3-.4-1.8-.6-13.4-7.5-25.9-17.6-34-30.9-.7-1-1.4-2-2.2-2.9-7.4-12.1-11.5-26-13.4-40-.4-1.8-.9-3.6-1.3-5.4-.4 0-1.2-.1-1.5-.1 0 .6-.1 1.7-.2 2.3-.8 3.2-1.4 6.4-2.6 9.4-1.8 7.3-5.4 13.9-8.5 20.6-2.4 4.5-5 9-7.6 13.4-.5 1.2-1.1 2.3-1.6 3.4-2.6 4.4-5.1 8.9-7.6 13.3-3.6 6.4-7 13-10.9 19.3-8 15.1-16.7 29.7-24.8 44.7-.7 1.3-1.4 2.6-2.3 3.7-1 .1-2 .1-2.9.2-4.9-4-10.4-7.2-14.9-11.7-8-7.9-16.2-16.4-20.6-27-2.3-2.8-4-6.1-4.9-9.7-3.5-6.4-4.4-13.8-6.2-20.8-.7-11.1-2.3-22.7 1-33.6.6-2.8.7-5.7 1.7-8.4 1.9-5.2 3.3-10.7 6-15.6.5-1.8 1.3-3.5 2.4-5.1-.3.1-1 .3-1.3.4-2.4 2.6-4.7 5.2-6.8 8-.4.1-1.4.3-1.8.4-.2.5-.4 1.4-.5 1.8-2.8 2.2-5.5 4.6-8.2 6.9-4.9 3.9-10.5 6.9-15.6 10.6-16 9.4-31.8 19.1-47.8 28.4-1.4.8-2.8 1.8-4.2 2.8-.4.2-1.4.3-1.8.5l-2.1 2.1c-.4.1-1.3.3-1.8.4l-4.2 2.7c-8 4.8-15.8 9.6-23.9 14.2-.9.6-1.8 1.3-2.6 2.1-1.3 0-2.5 0-3.7.1-.1-.6-.3-1.8-.4-2.3-1.6-2.7-3-5.5-4.7-8.2-.2-1.4-.3-2.9-.5-4.4-2-2.3-2.5-5.4-3.5-8.3-.8-3.9-1.4-7.8-2.6-11.6-1.3-4.7-.8-9.5-1-14.3 0-6.9-.4-14.1 1.4-20.9 1.4-9.4 5.1-18.2 9-26.7 5.8-9.7 12.5-19.2 21.4-26.4 2.8-2.8 5.8-5.3 9.1-7.2.4-.7.8-1.3 1.3-2l3.9-1.5c-1.1-.2-2.1-.3-3.2-.4-.3.4-.8 1.3-1.1 1.7-3.3-.2-6.3 1.6-9.5 2.3-6.9 1.3-13.9 3-20.9 2.8-38.2.1-76.3 0-114.5.1.1-5.5-.4-11.1.9-16.6 1-4.3 1.2-8.7 2.8-12.7.8-2.1 1.3-4.4 1.5-6.5.4-.7.8-1.3 1.3-2 .9-3.4 2.4-6.5 3.9-9.8.3-.2.9-.6 1.3-.8.1-.7.2-1.9.3-2.6 4.5-6.9 8.6-14.2 14.6-20.1 5.2-5.9 11.6-10.6 17.8-15.2.4-.2 1.3-.4 1.7-.6 6.4-4.1 13.6-6.8 20.8-9.5 1.2-.1 2.3-.2 3.5-.3 1.1-.5 2.1-1 3.2-1.5 6.1-.9 12.2-1.5 18.3-2.1-1.4-.3-2.8-.4-4.2-.6-.8-.5-1.4-1-2.2-1.5-3.4-.8-6.9-1.5-10.2-3.1-3.5-1.1-6.9-2.5-10.1-4.1-2.1-1.3-4.4-2.4-6.5-3.6-.4-.1-1.3-.3-1.8-.5-1.6-1-3.2-1.9-4.8-2.8-4.6-2.8-9.1-5.5-13.7-8.3-5.5-3.4-11.4-6.4-16.6-10.1-.4-.2-1.3-.4-1.7-.6-8.7-5.6-18-10.6-26.7-16.2-.4-.1-1.3-.3-1.8-.4-.8-.8-1.4-1.4-2.1-2.2-.5-.1-1.4-.3-1.8-.4-5.2-3.8-11.1-6.4-16.3-10-3.1-2.1-6.4-3.9-9.6-5.6 0-.8.1-2.3.1-3.2 4.8-7.7 10-15.1 16.7-21.3 7.3-7.8 16.3-13.7 25.6-19 4-1.6 8-3 11.8-4.9 4.4-.4 8.5-2.3 12.8-3 3.5-.8 7.2-.3 10.7-1.3 4.7-.7 9.4.6 14.1.8 2.8.3 5.6.8 8.5 1.3 5.2 1.3 10.3 3.1 15.3 4.9 2 .8 4.1 1.7 6.1 2.5.3.3.8 1 1 1.3l2.4.3c0-.4-.1-1.3-.1-1.8-3.9-3.1-7.4-6.8-10.4-10.7-5.9-6.2-9.8-13.9-14.4-21-3.1-4.9-5.1-10.3-8.5-15-.2-.4-.5-1.3-.6-1.8-4.4-6.7-7.7-14.1-11.9-20.8-3.6-6.4-7.2-12.8-10.7-19.3-2.3-4.4-5.3-8.4-6.9-13.1-.3-.2-.8-.5-1-.7-.8-1.5-1.5-3-2.3-4.5-3.9-6.3-7.7-12.6-10.6-19.4 2.9-1.6 5.9-3.1 8.9-4.8 1.9-.9 3.9-1.8 5.9-2.5 3.3-1.3 6.6-2.6 10-3.5 3.3-.6 6.8-1.1 10-2.4 4.2-.8 8.4-.1 12.6-.8 2.8-.5 5.7-.4 8.5 0 3.6.6 7.3.3 10.9.8 1.9.6 3.9 1.1 5.9 1.5 4.4 1.1 8.5 2.8 12.7 4 .2.3.4.8.6 1.2 2.1.3 4 1.1 5.4 2.6.9.2 1.9.3 2.8.5 5.4 3.9 11.4 7.1 16.1 12 6.9 6.4 13.4 13.4 18.3 21.5.4-.1 1.3-.2 1.7-.3-1.6-3.6-2.6-7.4-3.3-11.2-.3-.8-.8-1.7-1.1-2.5-.1-2.3-.2-4.5-.5-6.8-.7-4.1-.3-8.3-1.1-12.4-1.4-10.6-.8-21.2-.8-31.8-.2-24.9-.2-49.7 0-74.6.2-3.7-.9-7.7 1-11.1 6.4-.8 12.9 1.3 19.3 1.6 5.8 1.8 11.8 3.1 17.6 5.1.3.3 1 .8 1.3 1.1 9.4 3.1 17.6 8.9 25.3 15 14.3 12.4 25.2 29.1 29.3 47.7 2 4.8 1.7 10 3 15 .3 1.2.6 2.3.9 3.4.1 1.4.2 2.8.3 4.4.3.1 1 .3 1.3.3.1-.5.2-1.6.3-2.1 1-3.3.3-6.9 1.8-10 2-4.8 3.3-9.9 5.5-14.6 5.2-11.1 11.1-21.8 17.4-32.2.2-.4.4-1.3.6-1.8 2.1-2.6 3.3-5.7 4.9-8.6 10.7-18.8 21.1-37.9 31.9-56.8.5-2.5 1.8-4.9 2.7-7.6M304 162.4c-.1.6-.2 1.8-.3 2.5-.5 2.2-1 4.4-1 6.6.1 27 0 53.9.1 81-4.6 0-9.3.1-13.9-.4-3.9-.8-7.8-1.9-11.7-2.3-5.1-1.4-10.1-3.3-15.1-5.2-10-4.4-19.3-10.4-27.1-18-2.3-2-3.9-5.1-7.1-5.5 2.3 4.4 4.8 8.5 7.3 12.7.7 1.6 1.7 3 2.8 4.4.2.5.4 1.6.5 2.1 1 1.7 1.9 3.3 2.8 5.1 1.8 3.2 3.5 6.5 5.6 9.5 3.4 6.7 7.5 13.1 10.9 19.7 2.2 3.4 3.9 7 5.9 10.5 1.4 2.9 3.2 5.9 5.1 8.5.1.3.3.8.3 1.2-1.8 1-3.4 2.1-4.9 3.3-.6.1-1.7.3-2.2.3-.8.7-1.8 1.3-2.6 2.1-3.7 1.3-7.4 2.8-11.1 4.1-3.1.7-6 1.8-9.1 2.6-4.4.9-8.8 1.1-13.1 1.9-6.4.5-12.8.3-19.2 0-4-1-8.2-1.1-12.1-2.6-2-.8-4.2-1.7-6.2-.3 1.9 1.2 3.9 2.3 5.8 3.6 4.2 2.1 8.1 4.5 12 7 5.4 3.2 10.7 6.2 15.9 9.6 2.8 1.6 5.6 3.3 8.3 4.9 6.9 3.9 13.6 8.1 20.6 11.9 1.4.8 2.8 1.8 4.1 2.8.8.1 1.6.3 2.4.4l2.1 3.3c-1.1 1.6-2.1 3.2-3 4.9-4.2 6.4-9 12.2-14.2 17.8-6.5 5.9-13.1 11.8-20.9 15.9-3.3 2.5-7.3 4-11.1 5.8-3.5 1.5-7.3 2.5-11.1 3v2.7c26.3-.1 52.5 0 78.8 0 0 4.6.4 9.2-.5 13.7-1 4.3-1.5 8.7-2.3 13.1-2.2 7.5-4.3 15-8.2 21.8-4.9 11.1-12.8 20.8-21.7 29.1-.7 1.3-1.8 2-3.1 2.5.3.3.7.5 1 .8 1.4-1.5 3.2-2.7 5.1-3.5 14.2-8.4 28.1-17.2 42.5-25.1 3.9-2.8 8.1-5.4 12.6-7.5 3.5-2.6 7.4-4.8 11.3-6.8 1.3-1.1 2.6-2 4.2-2.4 1.3 2.3 2.3 4.8 3.5 7.1 1.3 1.8 2.1 3.9 2.3 6.1.3.3.8.7 1.1.9.8 2.8 1.8 5.4 2.8 8 1.3 4.4 2 9.1 2.8 13.7.7 3.4.3 6.9 1.2 10.3.9 8.4-.5 16.7-1 25-.6 3.6-2.5 6.9-2.4 10.6.4 0 1.2-.1 1.6-.2 1.8-4.2 4.4-8 6.5-12.1 3.6-6.4 6.7-13 11.1-18.9.1-.6.3-1.6.5-2.2 7.7-12.7 14.6-26 22-38.9 1.8-.6 3 .9 4.3 2 2.3 1.6 5.1 2.8 6.8 5.2.4.1 1.2.3 1.5.5 4.9 4 9.4 8.6 13.7 13.3 5.6 6.7 10.4 14 14.2 21.9 2.1 3.8 3.3 7.9 4.9 11.8 1.5 3.8 1.7 7.9 3.1 11.7 2.1-4.1 1.2-8.7 1.3-13.1v-72.5c6.9 0 14.2-.5 20.8 2.1 4.7-.1 8.8 2.3 13.3 3.2 3.9 1.8 7.9 3.3 11.7 4.9.3.3 1 .8 1.4 1 9 4.9 17.6 10.7 24.2 18.5 1 .8 2 1.6 3.1 2.4 0 .5.1 1.4.2 1.8.4.1 1.3.3 1.8.4-.3-1.4-.8-2.8-1.6-3.9-4.2-6.9-7.8-14-11.7-20.8-2.8-4.4-5-9-7.7-13.4-.2-.5-.4-1.5-.6-1.9-1-1.4-1.9-2.8-2.8-4.4-.8-1.4-1.6-2.8-2.4-4.1-2.8-4.9-5.3-10-8.5-14.7-.2-.5-.4-1.6-.6-2.1-2.5-3.5-4.9-7.2-6.1-11.4 2.8-1.8 5.7-3.4 8.5-5 3.2-1.3 6.3-2.8 9.6-3.4 3.3-2.5 7.7-2.1 11.5-3.6 4.9-1.7 10-1.3 15-2.3 4.7-.4 9.4-.3 14.1 0 6.6 1.3 13.4 1.8 19.8 4.4V371c-1.6-.5-2.9-1.3-4.2-2.4-1.9-.8-3.8-1.8-5.3-3.3.1.3.2.9.3 1.3-7-5-14.6-8.9-21.9-13.3-2.8-1.8-5.6-3.4-8.5-5-1.3-.8-2.7-1.7-4-2.5-4.4-2.7-8.8-5.5-13.4-8-3.8-2.1-7.3-4.9-11.5-6.1-.6-1.1-1.2-2.2-1.7-3.3 1.1-1.2 1.9-2.6 2.7-4 6.8-10.6 15.2-20 25.1-27.7 5.8-4.1 11.7-8.1 18.3-10.9 2.8-1.3 5.6-2.4 8.5-3.5 2.1-.3 4.2-.7 6.3-1.1-.1-.8-.1-1.8-.2-2.6-26.5 0-53 .1-79.5 0-.1-3.8-.1-7.6.2-11.4 2-5.4.8-11.3 3.3-16.5 1.1-2.3 1.6-4.8 1.9-7.3 1.8-3.5 2.8-7.2 4.3-10.9.9-1.7 1.8-3.3 2.5-5.1 4.6-8 9.7-16 16.7-22.2.8-.8 1.6-1.7 2.4-2.4.7-.8 1.3-1.4 2-2.2H476c-.3.3-.8 1-1.2 1.3-6.4 2.6-11.8 7.4-18.2 10.2-4 2.8-8.1 5.5-12.6 7.5-1.8 1.1-3.3 2.3-5.3 3.3-7.7 4.9-15.7 9.4-23.5 14.2-3.6 2-6.9 4.6-10.9 5.9-1.2-2.4-2.3-4.9-3.5-7.3-1.1-1.8-1.9-3.8-2.5-5.8-2.3-5.4-4.3-11.1-4.9-17-2.8-5.4-1.7-11.6-2.5-17.5-.4 2.9-.3 5.9-.3 9-.3-5-.9-10-.8-15.2.2-6.8 2.1-13.3 2.6-20 1.3-2.5 1.8-5.4 1.4-8.1-1.3 1.2-2.2 2.6-2.9 4.1-.8 1.3-1.6 2.8-2.4 4.1-3.5 6.6-7.3 13.1-10.9 19.6-1.6 2.9-3.2 5.8-5.1 8.4-.2.5-.4 1.6-.5 2.1-3.3 4.6-5.4 9.9-8.5 14.6-3.5 6.7-7.4 13.1-10.9 19.8-15.7-8.3-28.1-21.9-37.3-36.9-.2-.5-.4-1.6-.5-2.2-1.8-2.3-3.3-4.8-4.2-7.5-2.3-5.9-5.1-11.7-5.4-18.1 0-2.2-.6-4.4-1.2-6.7zM1423 328.2c.3.1.8.3 1 .4 0 60.2.1 120.4-.1 180.7-7.5.7-14.9-1.4-22.3-2.8-1.9-.3-3.7-1.1-5.5-1.7-.5-.3-1.1-.8-1.6-1.1-1.6.3-2.8-.8-4-1.4-3.4-2.1-7-3.9-10.2-6.1-1-.3-1.9-.5-2.9-.8 0-1.7-1.4-2.3-2.6-2.9-3.2-2.8-5.8-6.4-9.5-8.8-3.2-2.3-3.3-6.9-7-8.9-5.2 2.3-9 6.9-14.1 9.4-4.9 3.2-10.3 5.5-15.5 8.3-2.9 1.5-5.9 3-9.2 3.9-.3.3-.7.7-.8.9-1.7.3-3.1 1.1-4.3 2.2-2.3 1.2-4.9.8-7.3 1.8-2.2.8-4.3 1.9-6.5 2.1-3.1.3-5.9 2.3-9 2.1.1-.2.2-.5.2-.7 5.9-.3 11.5-3 17.2-4.6 4.9-1.1 9.4-3.7 14.2-5.3 2.3-1.2 4.4-2.3 6.8-3.3 6.2-2.7 11.4-7 17.3-10.4 2.6-1.3 5.2-2.7 6.9-5.1 2.3-1.3 4.9-3.2 7.4-1.3 1.7 2.6 2.1 6.1 4.9 7.9 2.5 3.3 5.1 6.6 8.9 8.5 5.1 5.5 11.9 9.3 18.9 11.7 1.5.8 3.1 1.3 4.8 1.3 2.3.2 4 2.3 6.4 2.7 1.5.2 3 0 4.5-.1 4.3 2.1 9 1.9 13.6 1.9.1-50.2 0-100.3 0-150.5-.3-9.7.5-19.4-.5-29.1-.2-.1-.1-.6-.1-.9zM2589.7 506.8c.1 0 .3-.1.4-.2 6.9 1.1 13.9 1.8 20.9 2.1 7.8.4 15.5-1.1 23.3-1.1-1.8 1-3.9.8-5.7.9-8.9.8-17.9 1.3-26.8.1-4.1-.1-8.2-.9-12.3-1.2.1 0 .1-.4.2-.6z"/></g><g id="_x23_002c11ff"><path class="st1" d="M1244.6 169.6c7.3-1.5 14.7-.4 22-.7l-.3.8c2.7-.1 5.4-.1 8 .7 3.5.7 7.1 1.1 10.7 1l-.2.8c1.2-.1 2.3-.1 3.5-.2l-.1.8c3.4.2 6.8 1.1 10.1 2l-.2.5c2.7.1 5.3.8 7.8 1.6 1.2.5 2.3 1 3.6 1.5 1 .2 2 .3 3 .5l-.2.9c.4-.1 1.3-.3 1.7-.3v.8c1.7.3 3.3.8 5.1 1.2v.9c.4-.1 1.3-.3 1.7-.4v1.1c.7 0 1.9-.2 2.5-.2l-.1.8c.8.3 1.7.8 2.6 1.1v.8c.7-.1 1.9-.2 2.5-.2l-.1.8c.8.3 1.8.8 2.6 1.1v.7c.6 0 1.7.1 2.2.1 1.5 1.1 3.1 2 4.8 2.9 1.3.8 2.6 1.6 3.9 2.3v.5l1-.2-.2 1.1c.3-.1.9-.1 1.3-.2.6.3 1.7.8 2.3 1.2 0 .3-.1.9-.1 1.3.5 0 1.6.1 2.1.2.5.3 1.6.8 2.1 1.2v.9c1.6.4 2.8 1.5 3.9 2.7.3.2 1 .4 1.3.6 1.7 1.3 3.4 2.6 4.7 4.4.4.1 1.2.2 1.6.3 1.8 1.8 3.8 3.6 5.6 5.4.7.5 1.3 1 2 1.5v.7l1.2-.2c-.1.3-.2.8-.2 1.1 2.8 1.4 4.9 3.9 7 6.4l.3.2c2.3 2.8 4.8 5.4 7.4 8 .2.3.5.9.6 1.3h.3c.8 1.4 1.6 2.8 2.8 3.9v1.2l1-.2-.1.7c1.3 1.5 2.7 3.1 3.8 4.9.7 1.1 1.3 2.1 1.9 3.2l.7-.3c.3 1.2.8 2.3 1.2 3.4l.8-.2-.3 1.1.7-.1c.3 1 .8 2.1 1.2 3.1.3.3.7.8.9 1.2l.7-.1c.1 1.1.1 2.1.3 3.2.3 0 1.1-.1 1.5-.1.4 1.4.8 2.8 1.2 4.4h1.1c.4 1.7.9 3.3 1.3 5l.5-.2c.3.3.8.9 1 1.2-.1.3-.2 1.1-.3 1.4l1 .1c0 .6 0 1.8-.1 2.4l1.1-.2-.3 1.1.6.1c.4 2 1.3 3.9 2.1 5.7.4 1 .8 2 1.1 3.1.3 1 .4 2 .7 2.9l.9-.2c-.1.4-.3 1.3-.4 1.8h1.1c0 1.1-.1 2.3 0 3.3l.5.1c.3 1 .7 1.9 1.1 2.9 0 .5.1 1.6.1 2.1l.7-.1c-.1 3.7 1.2 7.1 2.5 10.5.1 2.1.2 4.3.2 6.4l.6-.1c.3 2.8 1.1 5.6 1.2 8.5l.6.1c0 2.9.1 5.9-.2 8.8v.8c0 .3-.1.8-.1 1 .9 9.6.3 19.4.5 29.1v150.5c-4.6 0-9.4.2-13.6-1.9-1.5.1-3 .3-4.5.1-2.3-.3-4-2.5-6.4-2.7-1.7-.1-3.3-.6-4.8-1.3-7-2.4-13.8-6.2-18.9-11.7-3.8-1.9-6.4-5.2-8.9-8.5-2.8-1.8-3.2-5.3-4.9-7.9-2.5-1.9-5.1 0-7.4 1.3-1.7 2.4-4.3 3.9-6.9 5.1-5.9 3.3-11.1 7.7-17.3 10.4-2.3 1.1-4.5 2.2-6.8 3.3-4.8 1.5-9.2 4.1-14.2 5.3-5.7 1.6-11.1 4.3-17.2 4.6-.1.2-.2.5-.2.7v.1c-.8-.1-2.4-.3-3.3-.4l.1 1.1c-.7-.1-2-.2-2.6-.3l.2.9c-4.5-.1-9 1.2-13.6.9l.2.8c-3.7 0-7.4.2-11.1.1l.2.8c-3.4-.1-6.8 0-10.2 0l.2-.8c-4.5.1-9-.2-13.5-.2l.2-.7c-5.2 0-10.2-1.3-15.3-1.9l.2-.7h-4.3v-.8h-3.4l.2-1c-.7 0-1.9.2-2.6.2l.1-.9c-1.4 0-2.8-.1-4.3 0v-.5c-1.4-.3-2.8-.7-4.3-1.1l.2-.8c-1.9-.1-3.9-.3-5.8-.3v-1.6c-.4.1-1.3.2-1.8.2l.1-.8c-1.7-.1-3.3-.2-4.9-.3 0-.3.1-1 .1-1.3-.6-.2-1.7-.3-2.3-.5-1-.3-1.9-.6-2.9-.8v-1c-1-.3-2-.8-3-1.1-.5 0-1.6-.1-2.1-.2 0-.3.1-1.1.1-1.5-1.7-.6-3.3-.9-5.1-1.3 0-.3.1-.8.1-1.1-.5-.3-1.5-.7-2.1-.8-1.5-.8-3.1-1.6-4.6-2.3v-.2c-.8-.7-1.5-1.3-2.3-1.8-.9-.2-1.8-.3-2.8-.3 0-.3.1-.9.1-1.3-.3-.3-1-.8-1.3-1.1h-1.9c-.5-.8-1-1.6-1.5-2.3-.5-.1-1.6-.2-2.1-.3 0-.3-.1-.8-.1-1.1-1.3-.8-2.7-1.8-3.9-2.8-.4-.2-1.2-.3-1.5-.5-.5-.8-1-1.5-1.5-2.3-.3 0-1 .1-1.3.1v-.7c-.8-.5-1.4-1-2.1-1.5-2-2-4-3.9-6.1-5.8l-.1-.3c-2.8-2-5.3-4.4-7.4-7.1-1.9-2.2-3.9-4.2-5.7-6.4-.3 0-.9-.1-1.3-.1.1-.4.2-1.2.3-1.5h-1.1l.2-1-.8.1c-.7-1.1-1.4-2.3-2.1-3.3l-.8.1.2-1-1.1.2c.1-.4.3-1.3.3-1.6l-.6-.2c-.7-.8-1.3-1.4-2-2.1.1-.3.1-.8.2-1.1h-1.1l.2-1-.8.2c-.4-.8-.8-1.7-1.1-2.5l-.6.1-2.1-4.2h-.7l.3-1.1-1.2.2c.1-.4.3-1.3.3-1.7h-1.2c.1-.4.3-1.3.4-1.7l-1.2.1.3-1.1-1.2.2c.1-.3.3-1 .3-1.3-.3-.4-1.1-1.2-1.5-1.6-.8-1.5-1.5-3-2.1-4.5l-1.5-1.8c0-.6-.1-1.8-.1-2.5l-.7.2c-.3-.5-.8-1.6-1-2.1-.3-.4-.8-1.3-1-1.8.1-.3.3-1 .3-1.3l-1.2-.1c.1-.4.2-1.3.3-1.7l-1.1.1v-1.3c-.3-1-.7-2.1-.9-3.1h-.8c.1-.4.3-1.3.3-1.7l-.8.2-.6-3c-.4-1.3-.9-2.6-1.3-3.9l-.6.1c-.3-2-.9-3.9-1.3-5.9l-.8.1c.2-.4.3-1.3.5-1.8l-1 .1c-.1-1.6-.1-3.1-.2-4.7-.6-1.4-1-2.8-1.5-4.2-.1-.2-.2-.6-.2-.8-1.3-4.5-1.4-9.2-2.6-13.7-.9-3.6-.8-7.4-.8-11.1l-.7.1c0-8.8-.3-17.6.2-26.4.7-3.8.7-7.5.7-11.3l.8.1v-4.4l.9.2c-.1-1.5 0-2.9-.1-4.4l.8.2c0-1.8 0-3.4.1-5.2l1 .1c-.1-.3-.3-1-.3-1.3.6-1.2 1-2.4 1.6-3.6.2-1.8.2-3.5.3-5.2l.9.1c0-.3-.1-.9-.1-1.3.8-2.1 1.4-4.3 1.8-6.4l.8.2c-.1-.4-.3-1.3-.3-1.8l1.2.2c0-.4-.1-1.2-.1-1.6.3-1.3.7-2.5 1.1-3.7l.8.2-.2-.7c.3-1.1.8-2.2 1.1-3.3.3-1 .6-2 .8-2.9.3 0 .8.1 1.2.2.3-1.7.6-3.3 1.1-5l1 .2-.3-1.2.9.3c0-1.1.1-2.3.1-3.3l.9.1-.3-1.1.8.1c.4-1.4.8-2.8 1.3-4.1l.8.1-.3-1 1.1.1c-.1-.4-.3-1.3-.3-1.6l.7-.2c.4-.7.8-1.3 1.3-2 .8-1 1.3-2.1 1.8-3.2.6-1.2 1.3-2.2 1.9-3.3.9-1.5 1.9-3 3-4.4 1.5-1.9 2.9-3.9 4.3-5.8.8-1.2 1.6-2.3 2.4-3.4 1.3-1.3 2.5-2.7 3.8-4v-.4c.3-.3.8-.7 1-.9 2.3-2.4 4.7-4.9 6.8-7.5.2-.3.6-.8.8-1l.8.1v-.6c3.2-2.5 5.9-5.4 8.8-8.1.3-.2.8-.6 1-.8 1.8-1.5 3.7-2.9 5.6-4.3 2.8-2.3 5.9-4.3 8.5-6.7 1.3-.5 2.4-1.1 3.4-2 .3 0 .8-.1 1-.1l.1-1.1c.4.1 1.3.3 1.7.3l-.1-1.2 1.1.3c0-.4-.1-1.2-.2-1.5 1.1-.1 2.3-.2 3.4-.3 0-.3-.1-1.1-.1-1.5.9-.1 1.9-.3 2.8-.3.7-.8 1.4-1.6 2.2-2.3h2.3c.7-.6 1.3-1.2 2-1.8l.8.3-.2-.8c.9-.1 1.8-.2 2.8-.3.8-.7 1.5-1.3 2.3-1.8V183h3.3v-1c.4.1 1.3.3 1.7.4l-.1-1.3c.4.1 1.3.3 1.7.4v-1h3.4l-.1-.7c1-.5 2-.9 3-1.4 1.3-.3 2.5-.4 3.8-.6l-.2-.9c.4.1 1.3.3 1.7.4l-.1-1c1-.1 2-.1 3-.2 2.1-.6 4.2-1.2 6.4-1.8l-.2-.5c4.9-.3 9.4-2 14.2-2.6 3-.2 6-.8 9-1.1 2.5-.5 4.5-.5 6.5-.5m.6 76c-2.1.5-4.2.9-6.4 1l.3.7c-2.1.1-4.3.2-6.3.8-.8.2-1.7.3-2.4.4-.6.3-1.7.7-2.2.9v.6h-2.3c-1.5.6-3 1.3-4.5 1.8l.1.7c-1.4 0-2.8.1-4.2.2 0 .3.1 1 .1 1.3-1.4.3-2.8.8-4.3 1.2l.1.8-1-.3.2.8c-.5.3-1.6.8-2.1 1.2-.3-.1-1-.2-1.3-.3l.1 1.1-1.1-.3.2.9c-1.2.4-2.3.8-3.3 1.2l.2.8-1.1-.3.1.8c-1.2.7-2.3 1.3-3.4 2l.1.6c-.8.3-1.8.7-2.6 1.1l.2.8-1-.3v.6c-4.9 4.2-9.5 8.7-13.4 13.8l-.8-.1c-.1.5-.2 1.5-.3 2-1.8 1.5-3.1 3.4-4.4 5.3-.4 1.3-.8 2.5-2 3.2-.5 1.2-.9 2.4-1.3 3.7h-1.3c0 .4.1 1.3.2 1.8l-.9-.1c-.1 1.1-.1 2.2-.2 3.3-.3 0-1 0-1.3-.1-.3 1.2-.7 2.3-1 3.5-.6 1.2-1.2 2.3-1.8 3.5-.2 1.1-.3 2.2-.3 3.3-3 3.9-2.6 9.2-3.3 13.9l-.5-.3c-.3 1.1-.6 2.1-.9 3.2-.1 9.4-.2 18.8.1 28.2l1-.1c-.2.4-.4 1.3-.6 1.8h1c0 3.6.8 7.2 1.9 10.6.7 1.7 1.2 3.4 1.8 5.2 0 .4-.1 1.3-.1 1.7l1.1-.2-.3 1.1.8-.2c.3 1.7-.1 3.9 1.8 4.7.6 1.4.9 3 1.2 4.5h1.1c.7 1.7 1.3 3.4 2.6 4.8.4.9.9 1.8 1.3 2.8h.3c.6.7 1.2 1.4 1.8 2.2 0 .3-.1 1-.1 1.3l.8-.2c.3.5.8 1.4 1 1.8h.3c.5.9 1.1 1.9 1.6 2.8 2.3 2.2 4.4 4.5 6.7 6.8 2 1.9 4 3.9 6.2 5.8l.2.3c.3.3.8.8 1.1 1 .8.3 1.5.7 2.3 1.1l-.2.8 1.1-.3-.2.8c.8.3 1.8.8 2.7 1.2 0 .7.1 1.3.2 2l3.9.3-.2 1 1.1-.3-.1 1.2c.4-.1 1.3-.3 1.7-.4l.1 1.2c.4-.1 1.3-.3 1.7-.3l-.2 1.1 1.1-.2-.2.9c1.3.1 2.8.2 4.2.3 0 .3-.1 1.2-.2 1.5 1.9.7 3.9.9 5.9 1.1v1.5c.4-.1 1.3-.3 1.8-.3v.9h3.4l-.1 1.1c.4-.1 1.3-.3 1.8-.4l-.2 1.1h3.4v.7c2.1 0 4.2.3 6.2.8 1.7.3 3.3.7 5 1 8.9.3 17.7.2 26.5-.1v-.8c2.3-.1 4.6-.3 7-.2-.5-.2-1.5-.5-2-.6.8-.1 2.3-.2 2.9-.3.8-.3 1.7-.6 2.6-.8.5-.2 1.7-.6 2.2-.8l-.2-.5c2-.3 4-.8 5.9-1.2l-.2-.8c1.4-.4 2.8-.8 4.2-1 .6-.5 1.2-.9 1.8-1.4 1.2-.4 2.3-.8 3.6-1.3 1.3-1.5 3.4-1.6 5.3-2-.4 0-1.3-.1-1.7-.2v-.5c.3-.2 1.1-.4 1.5-.5 1.8-1 3.5-2.3 5.3-3.4 1.9-1.4 3.9-2.8 5.8-4.3 1.4-1.3 2.8-2.7 4.4-3.9 1.3-1.3 2.7-2.5 3.9-3.8.3-.3.8-1.1 1.1-1.4 1.6-1.8 3.2-3.6 4.8-5.5l.7-.2c-.1-.4-.3-1.2-.3-1.6l.9.1c.3-.3.8-.8 1-1.1l-.2-.8.9.1c0-.6.1-1.8.1-2.3.3 0 1 0 1.3.1.3-.5.7-1.6.9-2.2.4-.8.8-1.4 1.2-2.2l.7.1c.1-1.1.1-2.3.2-3.3.3.1 1.1.2 1.5.3l-.2-1.2.8.1c.3-1.3.8-2.7 1.2-4 .3-.3.7-.8.9-1.2l.6.1c.1-1.7.2-3.3.3-4.9h1.3c.3-.6.7-1.7.8-2.2.3-1.8.8-3.6 1.2-5.4l.6.1c.8-3.4 1.7-6.8 1.9-10.3l.6.2c-.1-3.3 1-6.4.9-9.7.1-6.3-.1-12.6-.1-18.9l-.8.1c0-1.8-.1-3.4-.1-5.2l-.6.3c-.3-1.3-.5-2.7-.9-3.9-.1-1.3-.2-2.5-.3-3.8l-.8.1c.1-.7.2-1.9.3-2.6l-.8.1c-.3-1-.4-2-.7-2.9-.4-1.3-.8-2.6-1.3-3.9l-.8.1c-.1-.5-.2-1.5-.3-2-.3-1-.7-2-.9-3l-.7.1.3-1.1-.8.2c-.4-1.4-.8-2.8-1.2-4.3l-.5.1c-.4-.8-.8-1.5-1.2-2.3-.3-.5-.7-1.5-.8-2l-.7.1.2-1-.7.2c-.4-1-.8-2-1.3-2.9-.7-.8-1.3-1.7-2.1-2.4-.8-1.3-1.7-2.5-2.4-3.7h-.5l.1-.6-2.1-2.4c-1.7-1.7-3.3-3.4-4.8-5.1-.3-.3-.7-1-.9-1.3-.3 0-1 .1-1.3.2v-1.3c-.9-.7-1.8-1.3-2.8-1.9l.2-.9c-.6 0-1.8-.1-2.5-.2 0-.3.1-1 .1-1.3-.3-.3-.9-.8-1.2-1.1-.5 0-1.6-.1-2.1-.1-.1-.5-.3-1.4-.3-1.8-1.4-.8-2.8-1.5-4.1-2.3l.1-.8c-.5 0-1.5-.1-2-.1-.8-.8-1.6-1.7-2.3-2.4h-2.4v-1.7c-.4 0-1.3.1-1.8.2l.1-1c-.7 0-1.9.1-2.6.2l.1-.8c-.8-.4-1.8-.8-2.6-1.2v-.7h-3.3l.2-1-1.1.3.2-1.1c-.7 0-1.9.1-2.5.2l-.1-.9h-3.4l.1-1.1c-.4.1-1.3.3-1.8.4l.1-.8c-1.6-.2-3.1-.3-4.6-.6-3.3-.9-6.6-2.1-10.1-2.1-7.3-.7-14.6-.5-21.9-.5zM1971.7 170.4c2.2 0 4.4-.1 6.7-.1v-.8c9.5-.2 19-.2 28.6 0l-.2.8c5.1-.3 10 1.3 15.2 1l-.2.6c3.8.3 7.3 1.8 11.1 2v.8c.7-.1 1.9-.2 2.6-.2l-.2.9c1.3.1 2.5.2 3.8.3 1 .3 2 .6 3.1.8l-.1.7 1.1-.3-.2.9c.9.1 1.9.1 2.9.2.8.3 1.7.7 2.5 1 1.1 1.4 2.8 1.3 4.5 1.5.7.3 2 .7 2.7.8l-.2.8c.4-.1 1.3-.2 1.8-.3l-.2 1.1c.7 0 2-.1 2.6-.1l-.1 1c.4 0 1.3-.1 1.8-.2 0 .4 0 1.2-.1 1.6 1.3.1 2.7.2 4.1.3l-.1.9 1.1-.3-.2 1.2c.4-.1 1.3-.3 1.7-.4v1h2.2c2.4 2 5.3 3.4 8 4.9.3.3.8.7 1 .9l.8-.2-.2 1.2c.4-.1 1.3-.3 1.7-.3l-.1 1.1c.4-.1 1.3-.3 1.8-.3l-.1 1.2 1.1-.3-.3 1.2c.3-.1 1-.2 1.3-.3 1.3 1.1 2.5 2.1 3.9 3.1 1.2.8 2.3 1.7 3.5 2.4 2.1 1.7 4.2 3.3 6.4 4.9l-.1.7.4.1c.8.7 1.8 1.3 2.8 1.9.5.7.9 1.3 1.4 2.1.3 0 1-.1 1.3-.1l-.1 1.1.7-.1c.3.3.8.8 1.1 1l-.1.8c.4 0 1.3-.1 1.6-.1 0 1.4.1 2.8.1 4.3l-1-.2.2 1.1-.8-.2c-.2.3-.4 1-.6 1.3-2.5 2.6-5 5.3-7.9 7.5l-.1.7h-1.1c-.8.9-1.8 1.6-2.8 2.1-.5.7-1.1 1.3-1.5 1.9-1 .1-2 .2-2.9.3.1.4.2 1.2.2 1.5l-1.2-.3.1.9c-.5.1-1.5.2-2 .2-.8.8-1.5 1.6-2.2 2.3-1.2 0-2.3.1-3.3.2 0 .3.1 1 .1 1.3-.5.3-1.6.7-2.2.8-1.1.4-2.1.8-3.1 1.2l.2.8c-.3 0-1 0-1.3-.1-1.6.6-3.2 1.2-4.7 1.8l.2.5c-2.3.5-4.6 1.2-6.9 1.9l.2.7c-1.6.2-3.2.4-4.7.8-1.3.1-2.5.2-3.8.3l.2.8c-.7-.1-1.9-.2-2.6-.2l.1.9c-3.5.1-7.1-.2-10.6.7-3.9.3-7.8.2-11.7 0-2.6-.8-5.4-.7-8-.7l.1-.8c-1.2 0-2.3 0-3.4.1l.2-.8c-1.3-.1-2.6-.1-3.9-.3-1.8-.5-3.7-.7-5.6-.8l.2-.8c-1.2 0-2.3 0-3.5.1l.2-.8c-2.7 0-5.4-.1-8-.2-5.3-.9-10.7-.8-15.9-.1-2.8.2-5.4 1-8.1 1.2l.2.7c-1.3 0-2.7.1-3.9.2-2.1.6-4.2 1.2-6.2 1.8l.1.4c-1.3.3-2.7.6-3.9 1-.3 0-.9-.1-1.2-.1l.1 1.2c-.4-.1-1.3-.3-1.8-.4l.1.8c-3.3.4-6.1 2.5-9.1 3.9-1.2.6-2.3 1.2-3.4 1.8v.3l-4.2 2.1v.6l-1.1-.2c0 .4.1 1.2.2 1.6h-2.5l.1 1-.5.3c-.9.6-1.9 1.2-2.8 1.8l-.1.4c-.8.4-1.5.8-2.2 1.3-2.2 2.4-4.6 4.7-7.1 6.9 0 .2-.1.6-.1.8-1.5 1.2-2.8 2.6-4 4.1-1 1.4-2.2 2.8-3.3 4.2-.6 1.2-1.6 2.1-2.2 3.2h-.8c.1.4.3 1.3.4 1.7l-1.2-.2.2.8c-.7.7-1.3 1.4-1.8 2.1.1.3.3 1.1.3 1.4l-1.1-.3.2 1.1-1.1-.2c.1.3.1 1 .2 1.3-.5.8-.9 1.6-1.3 2.4-.5.9-1.1 1.8-1.7 2.6-.3 1-.4 2-.6 3.1-.5-.1-.9-.2-1.3-.2l-.3 3.9c-.4.8-.8 1.5-1.3 2.3-1.2 1.7-1.3 3.7-1.3 5.7h-.7c-.1 1.2-.1 2.3-.1 3.5-.3-.1-1.1-.2-1.4-.3.3 4.5-.8 9-1.2 13.6l-.7-.1c.3 6.3-.7 12.6.7 18.8.3 1.8.3 3.6.3 5.4l.7-.1v5.2l.9-.1c-.1.7-.2 1.9-.3 2.6l.8-.1c.4 2.3 1 4.5 1.3 6.9l.8-.2c-.1.4-.3 1.3-.3 1.8l.9-.1c.5 2 .9 3.9 1.3 5.9.3-.1.7-.1 1.1-.2.3 1 .6 2.1 1 3.1.1.5.2 1.6.3 2.2.3-.1.9-.1 1.2-.2.3 1 .7 2 1.1 3 .1.5.2 1.5.3 2h1.3c.3 1.1.8 2.3 1.2 3.3l.8-.1-.3 1 1.2-.1c-.1.4-.3 1.3-.3 1.7l.7.2c1.6 2.4 3.3 4.7 5.4 6.8v.4l1.1 1.1.3-.1c.3.3.8.9 1.2 1.2l-.2.7h.6c.8.9 1.6 1.9 2.4 2.8l3.9 3.6c1.3.9 2.5 1.9 3.8 2.8 1.3 1 2.8 2 4.4 2.8 0 .3.1 1 .1 1.3.4-.1 1.3-.3 1.7-.3v1.2c.4-.1 1.3-.3 1.7-.3l-.1 1.2 1.1-.3-.2 1.2c.3-.1 1-.3 1.3-.3.5.3 1.6.8 2.2 1.1l-.1.5c.9.4 1.9.9 2.9 1.4.5.2 1.6.6 2.1.8 0 .3-.1 1-.1 1.3 1.1 0 2.3.1 3.4.1l-.1.9 1.1-.3-.3 1.2c.4-.1 1.3-.3 1.7-.4v1.2c.7-.1 1.9-.2 2.5-.2v1.1c.4-.1 1.3-.2 1.7-.3l-.1 1.1c1.7.5 3.3.8 5.1.9v.6c1.3.1 2.7.1 4 .3-1.3.3-2.6.5-3.8.8 1.8-.1 3.7-.1 5.5-.1l.1.8h4.3l-.1.8c3.9-.2 7.6 1 11.5.9 5.7.2 11.4-.2 17.2-.1l-.2-.8c1.1 0 2.3 0 3.4.1l-.1-.8c5.9.3 11.4-2.7 17.2-2.8 7.1-1.3 14.5-.5 21.8-.4 2.3.7 4.8.7 7.2.7l-.2.6c3.9.9 8 1.7 11.9 2.8l-.2.9c.7-.1 1.9-.2 2.6-.2l.1.7c1.4.3 2.8.7 4.3 1.1l-.1.9c.7 0 1.9-.1 2.5-.2l.1.6c1.6.8 3.2 1.5 4.9 2.3l.1.6c.3 0 .9-.1 1.3-.2.9.7 1.8 1.3 2.8 1.9 1.9 1.2 3.9 2.3 5.9 3.4l-.1.5c.8.3 1.8.7 2.7 1.1v.5c1.1.8 2.2 1.5 3.3 2.3l-.1.7 1-.3-.1.8c.7.3 1.4.8 2.2 1.2.6.7 1.2 1.3 1.8 1.9l.1.3 1.1 1.1.3-.2 1.2 1.2-.2.7 1.1-.3-.2 1.1 1.2-.1c-.1.4-.3 1.3-.3 1.7l1-.3c1.3 1.3 1.8 3 1.8 4.9-1.3.6-2 1.8-3.2 2.4-.3.3-.8 1-1 1.3-.3.2-1 .4-1.3.6-.9.9-1.8 1.8-2.6 2.8-.3 0-.9.1-1.3.1v1.3c-1.1.5-2.1 1.1-2.9 1.9l-.4.1.1.8c-.5.1-1.6.3-2.1.4-.6.8-1.1 1.5-1.6 2.3-.3-.1-.9-.2-1.2-.3-.8.8-1.5 1.7-2.3 2.6h-1.3l-.1.6c-.8.6-1.4 1.2-2.1 1.8-.3.1-1.1.3-1.4.4-1.3 1.1-2.8 1.9-4.2 2.8-1 .5-2 1.1-2.9 1.7l-.1.2c-3.7 2.1-7.4 4.3-11.2 6l-.7-.1.2 1.1c-.7 0-1.9-.1-2.6-.2v1.1c-.4-.1-1.3-.3-1.7-.4l.2 1c-2 .8-4 1.4-6 2l.1.7c-1.7.5-3.4.8-5.1 1v.8c-.4-.1-1.3-.3-1.7-.4l.1 1.3c-.4-.1-1.3-.3-1.7-.5v1.1c-1.2 0-2.3-.1-3.4 0l.1 1.1c-.4-.1-1.3-.3-1.7-.4l.1.9c-2.6.1-5.1.8-7.6 1.2l.1.8c-.7-.1-2-.2-2.6-.2l.2.8c-2.8.3-5.7 1.1-8.5 1.1l.2.7h-4.4l.2.8c-2.2 0-4.4.1-6.4.7-3.3.3-6.5.3-9.7.2l.2.8c-7.9.2-15.7 0-23.5 0l.2-.8c-5.4 0-10.7-1.3-16.2-.9 0-.3 0-1.1.1-1.4-1.6-.1-3.2-.2-4.7-.2-2.3-.7-4.7-.9-7-.9v-1c-.4.2-1.3.4-1.7.5l.1-.9c-2.7-.1-5.3-.8-7.8-1.7l.3-.8c-2.1-.2-4.1-.5-6.1-1 0-.3.1-1.1.1-1.4-1.6-.1-3.1-.3-4.6-.3-.9-.3-1.8-.8-2.7-1.1v-.6l-.6-.2c-1.3-.3-2.5-.6-3.8-.8l.1-.8-.5-.1c-1.3-1.3-3-1.5-4.7-1.6l.2-.8-1.1.3.2-.8c-1.5-.3-2.9-.8-4.4-1.2 0-.3 0-.8.1-1.2-1.4-.3-2.8-.8-4.1-1.2l.1-.8-1.1.2.3-.8c-1.3-.4-2.4-.8-3.7-1.2.1-.3.2-.8.2-1.2-1.4-.4-2.8-.8-4.2-1.3 0-.4.1-1.2.1-1.5-.6 0-1.7-.1-2.3-.1-.8-.8-1.6-1.6-2.3-2.4-.3-.1-1-.2-1.3-.3-.7-.7-1.3-1.3-1.9-1.8-.4-.3-1.3-.7-1.7-.9-.9-.8-1.8-1.7-2.8-2.4-.7-.5-1.3-1-2-1.4l.2-.9c-.4.1-1.3.3-1.7.4l.2-1.2-.7.3c-.3-.3-1-.9-1.3-1.2l.3-.8c-.3 0-.8 0-1.2.1-1-1-2-1.9-2.9-2.8l-.1-.6-1.1.1c.1-.4.2-1.2.2-1.6-.3 0-1.1.1-1.4.1-1.2-1.3-2.3-2.8-3.4-4.2-.4-.1-1.3-.3-1.8-.3-.1-.6-.3-1.8-.3-2.3-.3 0-.9.2-1.3.2-.3-.3-.7-1-.8-1.3-.9-.9-1.8-1.8-2.8-2.6 0-.3.1-1 .1-1.3-.4 0-1.3.1-1.7.1-.1-.7-.2-1.8-.3-2.5-.4 0-1.2.1-1.5.2l.2-1.1-.7.1c-.8-1.1-1.4-2.1-2.1-3.1-.9-1.1-1.8-2.2-2.8-3.3-.8-1.1-1.7-2.3-2.5-3.3-.8-1.2-1.5-2.3-2.2-3.5-1-1.4-1.9-2.8-3-4-.1-.3-.3-1-.5-1.3-1.3-1.9-2.7-3.9-3.9-5.9-.5-1.3-.9-2.6-1.3-3.9h-1.3c.1-.4.2-1.3.2-1.8l-.9.1c-.1-1.2-.2-2.3-.2-3.3-.3 0-.9.1-1.3.1-.6-2-1.3-4-2.4-5.8-.6-1.4-1-2.8-1.4-4.4l-.8.1.4-1.1-.9.2c-.1-1.9-.3-3.9-.3-5.8h-1.5c-.6-1.8-1.1-3.8-1.7-5.6.1-.3.2-.9.2-1.3l-.8.2c-.3-.6-.8-1.7-1-2.2-.1-1.5-.2-3-.2-4.5l-.8.1c.1-.4.2-1.4.3-1.8l-.8.2c-.3-1.5-.8-3-1.1-4.5-.1-2.2-.2-4.3-.2-6.4l-.7.3c-.3-.6-.8-1.8-1-2.3.1-.3.3-1 .3-1.3h-.9c.4-5.1-1-10-1.1-15.1l-.7.1c.1-9.2-.5-18.5.3-27.7.7-2.5.5-5.2.6-7.7l.8.2c0-2.6.1-5.1.1-7.7h.8c-.1-1.2-.1-2.3-.1-3.5l.8.2c0-.6.1-1.7.1-2.2.5-2.3 1-4.4 1.6-6.6.1-.8.3-2.3.3-2.9l.8.1c0-.3-.1-.9-.1-1.2.8-2 .9-4.3.9-6.4l.5.1c.3-1.1.8-2.1 1.2-3.1.8-2.1 1.4-4.3 2.3-6.4.3-.9.7-1.8 1-2.6v-2.2l.8.1c.3-1.2.8-2.3 1.2-3.3l.2-.3c.5-1 1.1-1.9 1.8-2.9l1.5-3.9c.9-1.1 1.4-2.5 1.7-3.9h.7c-.1-.4-.3-1.3-.3-1.7l1.2.1-.3-1.1 1.2.1c-.1-.3-.3-1.1-.3-1.4.7-.8 1.3-1.5 2-2.2l-.3-.8.6.1c.7-1.4 1.3-2.8 2-4.3h.9c-.1-.4-.3-1.3-.3-1.7l1.1.1v-1.8h1.4c.1-.5.3-1.5.3-1.9.9-1 1.7-2.1 2.4-3.2.8-1.2 1.6-2.3 2.4-3.3.9-1.3 1.9-2.5 2.8-3.8 1.7-2.1 3.4-4.1 5.1-6.3.3 0 1 .1 1.3.1.1-.6.2-1.8.3-2.3.6-.1 1.7-.3 2.3-.3.1-.6.2-1.7.2-2.3.5-.1 1.4-.3 1.9-.3.4-1.3.9-2.6 2-3.5l.2-.4 1 .2-.2-1 1 .2v-.7c.3-.3.8-.8 1.1-1h.4c.3-.3.8-.8 1.1-1v-.8c.4 0 1.2.1 1.6.2 0-.4-.1-1.3-.1-1.7.6-.1 1.8-.2 2.3-.3.1-.5.3-1.6.3-2.2.6-.1 1.8-.2 2.4-.3 0-.3-.1-.9-.2-1.3.3-.3.9-1 1.3-1.3.3.1 1.1.3 1.4.3l-.2-.8 1.1-1.1.8.2v-.7c1.6-1.1 3.2-2.2 4.9-3.2l-.1-.3 1-1 .8.2v-.7l3.3-2.1v-.7h2.4v-1.8c.4.1 1.3.2 1.8.3V195c.4.1 1.3.3 1.8.4l-.2-1.2 1.1.3-.2-1.2c.4.1 1.3.3 1.7.3v-1.2c.4.1 1.3.3 1.7.3l-.2-1.1 1.1.2-.1-1.1c.4.1 1.3.3 1.7.4l.1-1.3c.4.1 1.3.3 1.7.4l-.2-1.2 1.1.3-.2-1.1c.7 0 1.9.1 2.5.2l.1-1.1c.4.1 1.3.3 1.7.4l-.2-1c1.1-.4 2.3-.8 3.4-1.1l.1-.8c.4.1 1.3.3 1.7.3l-.2-1.1.6-.1c1.2-.3 2.4-.7 3.7-.9 1.3-.6 2.4-1.3 3.7-1.8 1 0 2-.1 3-.1l-.1-.8c1.1-.4 2.3-.8 3.3-1.2l.1-.6h3.3l-.1-1.1c.4.1 1.3.3 1.8.4l-.1-.8c1.3-.3 2.5-.5 3.8-.8.8-.1 1.8-.3 2.7-.3.9-.3 1.8-.7 2.8-1l-.2-.4c2.6-.3 5.1-.9 7.7-1.2l-.2-.5c3.9-.3 7.8-1.4 11.7-1.1l-.6-1.3zM2283.5 171.9c4.9-1.1 9.8-1.7 14.8-1.6l-.1-.8c9.8-.2 19.6-.2 29.5 0l-.2.7c4.9-.2 9.5 1.3 14.4 1l-.3.6c3.8.1 7.2 2.2 11.1 1.9l-.1.8c.7-.1 1.9-.2 2.6-.2l-.2.9h4.3v.8c1.3 0 2.8.2 4.2.3-.1.3-.1 1-.2 1.3 1.3.2 2.6.3 3.9.4 1.3.8 2.8 1.5 4.2 2.2 1.5.1 3.1.2 4.7.3-.1.3-.3 1-.3 1.3l4.5 1.2-.3.7 1.2-.3-.3.8c1.3.4 2.7.8 4 1.2.3.2.8.6 1.2.8l-.1.9c.4-.1 1.3-.3 1.7-.4l.1.8c1.4.2 3.2.3 3.8 1.9.3-.1.9-.2 1.2-.2l.1 1h2.4v1.7h1.3c.9.4 1.8.8 2.8 1.2v1c1.2.3 2.3.8 3.5 1.2l-.2.7c.8.4 1.7.8 2.6 1.2v.8c.4 0 1.3-.2 1.6-.2 0 .3.1.9.1 1.3 1.3.7 2.7 1.5 3.9 2.4 2.6 2 5.2 3.9 7.8 5.9l-.1.7 1-.2.1.6c2.2 1.8 4.3 3.8 6.4 5.7l.5-.1c1 1.2 1.3 2.7 1.3 4.2-1 .9-1.9 1.9-2.8 2.9-1.6 2.1-3.4 3.9-5.5 5.6l-.1.6-1-.2.1.6c-1.4 1-2.8 2.1-4.2 3.1v.7c-.4 0-1.3-.1-1.7-.1 0 .3.1 1 .1 1.4-1.2.3-2.3.8-3.4 1.2l.2.8-1-.2-.1.5c-1.5.8-2.9 1.8-4.3 2.9-.6 0-1.7.1-2.3.1l-.1.6c-1 .6-1.9 1.3-2.8 1.9h-2.3l.2 1.1-1.1-.4.1.8c-.5.3-1.5.8-1.9 1.1-1.1 0-2.1 0-3.1.1l.3.9-1.3-.3.3.8c-1.1.3-2.1.7-3.1 1-.5 0-1.6 0-2.2.1l.2 1c-.4-.1-1.3-.3-1.8-.4v.9c-1.6.2-3.2.4-4.7.8-1.3.1-2.6.2-3.8.3l.2.8c-.7-.1-2-.2-2.6-.3l.1.9c-3.3.1-6.4.1-9.6.3-8 1.4-16.1.2-23.9-1.3l.2-.6-3.9-.3c-2.1-.7-4.3-.8-6.4-.8l.1-.8c-.7.1-1.9.2-2.6.3l.2-.9c-2.4 0-4.9-.1-7.2-.2-5.5-.9-11.2-.8-16.7 0-1.6.1-3.2.2-4.7.2l.2.8c-1.1 0-2.1 0-3.1.1-3.4 1.1-7 1.6-10.5 2.6l.1.4c-1.3.3-2.7.6-3.9 1-.3 0-.9-.1-1.2-.1v1.2c-.4-.1-1.3-.3-1.8-.4l.1 1.1h-3.3v.7c-1.6.8-3.3 1.7-5 2.2l-.1.3-4.2 2.1-.1.3c-1.9.9-3.8 2-5.5 3.2-.3.3-1 .8-1.3 1.1-1.3 1-2.6 2-3.9 2.9l-.2.2c-2.7 2.1-5 4.6-7.5 6.9-.3.3-.7.8-.9 1l-.5-.1c-.5.8-.9 1.7-1.3 2.5-.3 0-1-.1-1.3-.1l.2 1.2-1.1-.3c0 .3.1.9.1 1.3-1.6 1.7-3.1 3.5-4.5 5.4v.3c-.8.6-1.5 1.3-2 2-.1.3-.3 1.1-.3 1.4-.7.8-1.3 1.4-1.8 2.2h-.5c-.1.5-.2 1.4-.2 1.9-.7.8-1.3 1.4-1.9 2.2h-.5c0 .7 0 1.9.1 2.5l-.8-.1c-.7 1.6-1.4 3.2-1.9 4.9-.2.3-.5.9-.7 1.3l-.8-.3c0 .5-.1 1.5-.1 2.1-.3 1.3-.8 2.6-1.1 3.9l-.8-.1c.1.4.3 1.3.3 1.7l-1-.1-.3 3c-.4 1.3-.7 2.6-.9 3.9l-.3-.1c-.3 1-.7 2-1 3-.1 2.8-.1 5.6-.9 8.3 0 2.8-.2 5.5-.9 8.3-.4 6.1.4 12.1 1 18.2l.6-.1c0 1.8.1 3.7.2 5.5.8 2.2 1.5 4.4 2.3 6.6 0 .8.1 1.8.2 2.6.3.5.8 1.6 1 2.1l.6-.1c0 .5 0 1.6.1 2.2.3.9.8 1.8 1.1 2.7.5 1.1 1 2.2 1.6 3.3.4 1 .9 2 1.4 3l-.1.7h.6c1.2 3.2 3 6 4.9 8.8.7 1.3 1.5 2.4 2.3 3.7l.3.1c1.3 1.8 2.8 3.5 4.2 5.3 3.5 3.3 6.5 7.2 10.6 10 0 .3-.1.9-.1 1.3.6 0 1.8.1 2.4.1l-.1.7c.3.3.8.7 1.2.9.8.3 1.5.7 2.3 1.1l-.1.8 1.1-.1c-.1.3-.2 1.1-.2 1.4.8.1 1.8.3 2.8.4.8.9 1.8 1.5 3 1.9v.5c.3 0 .8 0 1.1.1.9.6 1.8 1.3 2.6 2 .6.2 1.8.4 2.3.6-.1.3-.1 1-.2 1.3.9 0 1.9.1 2.9.2.5.3 1.7.8 2.2 1 0 .3-.1.9-.2 1.3 1.3.1 2.7.2 4.2.3v.6c1.2.6 2.3 1.3 3.6 1.9h3.2l-.1.9c.7-.1 1.9-.2 2.6-.2l-.1.8c1.3.3 2.6.5 3.9.8 1.3.1 2.5.2 3.9.3l-.2.8c1.2-.1 2.3-.1 3.5-.2l-.2.8c7.3.1 14.7.3 22 .1l-.2-.8c1.8 0 3.4-.1 5.2 0l-.3-.8c4.6.3 9-1.2 13.5-2l-.1-.6c1.8 0 3.6-.1 5.4-.3 2.7-.9 5.6-.6 8.5-.8 1.8-.8 3.9-.8 5.7 0 4.9-.1 9.8 1.2 14.8 1l-.1.6c3.3.7 6.6 1.8 10.1 2l-.1.8c.4-.1 1.3-.2 1.7-.3l-.1.8c1 .2 2 .3 3 .5 1.3.5 2.6.9 3.9 1.4l-.2.8c.7 0 1.9-.1 2.5-.2l.1.6c1.6.8 3.3 1.6 4.9 2.3l.2.7c.4-.1 1.3-.3 1.7-.4l-.1.9c.4.3 1.3.7 1.8.9 1 .4 2 .8 3.1 1.3.1.3.3 1.1.3 1.4h2.4l-.3 1 1.1-.2-.1.8c.8.3 1.7.7 2.6 1l-.1.8 1-.2-.1.8c.8.3 1.7.8 2.6 1.1l-.2.8 1.1-.3-.2.8c.8.3 1.7.8 2.5 1.1l-.1.8 1-.1-.2 1 1.1-.3-.2.8 1.1 1.1h.3l1.1 1.1-.1.3 1.1 1.1.3.2c1.2 1.4 2.5 2.8 3.6 4.4-.5.9-1.2 1.8-1.8 2.7-3.5 2.8-6.9 5.9-10.3 9-.3.2-.8.5-1 .7s-.8.6-1.1.8l.1.8c-.3-.1-1-.2-1.3-.2-.3.3-.8.8-.9 1.1-.3.2-.7.6-.9.8-.3.3-1 .8-1.3 1-.9.7-1.8 1.3-2.8 1.8l-.3.1c-.7.7-1.3 1.3-2 2.1-.5 0-1.5.1-2 .1l.1.9-1.1-.2c0 .3.1 1.1.1 1.4-.9.1-1.8.3-2.7.4-1.3 1-2.8 1.9-4.3 2.8-1.4.8-2.8 1.6-4.3 2.5-1.8 1.1-3.7 1.8-5.7 2.3 0 .3.1.9.1 1.3-.5 0-1.7 0-2.2.1-.8.4-1.7.8-2.4 1.3-1.8 1-3.7 1.8-5.6 2.3l.1.8c-.4-.1-1.3-.3-1.6-.4 0 .3-.1.8-.1 1.1-1.4 0-2.8.1-4.2.1l.1 1c-.3-.1-1.2-.3-1.5-.3-.5.6-.9 1.1-1.3 1.7-1.3.1-2.6.1-3.9.2l.1.7c-3 .8-6.1 1.5-9.3 2v.8c-.7 0-1.9-.2-2.6-.2l.2.8c-4.1.3-8 1.6-12 1.9l.3.6c-2.2 0-4.3.1-6.4.3-4.1 1.3-8.5.3-12.6.9-5.1 1-10.3.3-15.5.5l.2-.8c-6.8.6-13.5-1-20.3-.9l.2-.8c-1.2 0-2.3 0-3.4.1l.1-.8c-3.4 0-6.8-.9-10.1-1.1l.1-.6c-2.5-.8-5.1-1.1-7.7-1.2.1-.3.2-1 .2-1.3-1.2 0-2.3-.1-3.4-.1v-.8c-1.5 0-2.9-.1-4.4-.1 0-.3.1-1.1.2-1.5h-2.6v-.8c-1.8-.1-3.4-.2-5-.3.1-.3.3-1 .3-1.3-1.8-.5-3.6-1-5.4-1.2 0-.4.1-.8.2-1.3-1.8-.5-3.4-1-5.2-1.3.1-.3.2-.8.2-1-1.1-.3-2.1-.7-3-1.1-.5-.1-1.6-.2-2.1-.3 0-.3.1-1 .1-1.3-1.5-.4-2.8-.9-4.3-1.3 0-.3.1-.8.1-1.1-1-.3-2-.8-3-1.1-.2 0-.6-.1-.8-.2-.6-1.3-1.8-1.7-3-1.8l-.2-.2c-.7-.7-1.4-1.3-2-1.8-.4-.1-1.3-.3-1.7-.3-.5-.8-1.1-1.5-1.5-2.3-.6 0-1.7-.1-2.2-.1l.2-.8c-.3-.3-.8-.8-1-1.1l-.5.2c-.3-.3-1.2-.9-1.5-1.3-2.1-1.7-4.1-3.3-6.2-4.9-1.2-.8-2.3-1.8-3.3-2.5l.1-.7-.8.2c-.3-.3-.7-.8-.9-1.1-4.1-3.7-8-7.6-11.7-11.6l-1-1 .2-.8-1.1.1c.1-.4.2-1.3.3-1.7-.4.1-1.3.1-1.7.2l.1-1.1-1.1.1c.1-.4.2-1.3.3-1.7l-1.1.3.2-1.1-1 .2.2-.8c-1.1-1.3-2.2-2.5-3.2-3.8-1-1.3-2-2.5-3-3.8-.9-1.3-1.8-2.6-2.6-3.9-1.2-1.7-2.3-3.3-3.4-5-.9-1.3-1.8-2.8-2.7-4.1-.3-1.3-.4-2.8-1.9-3.4l.2-.5-.9.1c-.1-1.1-.2-2.2-.2-3.3-.3 0-.9.1-1.3.1-.3-.6-.9-1.7-1.2-2.2.1-.3.2-1 .3-1.3h-1.2c.1-.4.3-1.3.3-1.7l-1.1.1c-.4-1.4-.8-2.8-1-4.2l-.8.1.3-1.1-1.1.2c0-.3.1-.9.2-1.2-.4-1-.8-2-1.1-3.1l-.7.1.3-1.1-.8.2c-.4-2-.9-3.9-1.3-5.9l-.5.1c-.6-1.6-1.2-3.1-1.8-4.6 0-.5-.1-1.6-.1-2.2l-1.1.1c.2-.4.4-1.3.5-1.7l-1.1.1c-.1-1.3-.2-2.5-.3-3.8-.3-1-.7-2.1-.9-3.1l-.8.1c.1-.7.2-1.9.2-2.6l-.8.2c-.1-4.4-1.6-8.7-2.4-13.1-.2-1.7-.3-3.4-.4-5.1-.7-2-.7-4.2-.7-6.3l-.8.1c.3-5.2-1-10.3-.8-15.5-.3-6.9 1.3-13.7.8-20.6l.8.2c0-1.7 0-3.3.1-5h.8c0-2.7-.1-5.4.6-8 .5-2.5 1.1-4.9 1.9-7.4 0-.5.1-1.4.1-1.9.3-1 .7-2 1-3.1l.8.2c0-.3-.1-.9-.1-1.3.6-2.7 1-5.4 1.4-8l1 .1c.3-2 .8-4 1.3-6 .3 0 1 0 1.3.1 0-.5 0-1.6.1-2.1.5-2.3 1.2-4.6 2.6-6.5 0-.5.1-1.6.1-2.1h.9c0-.3-.1-.9-.2-1.2 1.4-.6 1.7-2 1.9-3.3.2-.6.6-1.7.8-2.3.3 0 .8.1 1.1.1.3-1.8.7-3.4 1.2-5.1.3 0 1.1.1 1.5.1.1-1.1.1-2.3.3-3.3l.9.1.1-.4c1.7-2.4 2.9-5 4.3-7.5 1.5-2.2 2.9-4.4 4.5-6.4.6-1 1.3-2 2-3 .8-.8 1.5-1.7 2.3-2.4v-1l.7-.1 3-4.2.8.1-.3-1 .4-.2c1-.9 1.9-1.9 2.9-2.8v-1.1h1.1l-.1-1.1h1c1.2-2 2.7-3.7 4.4-5.4 1.6-1.6 3.3-3.1 5.3-4.4.1-.2.2-.5.3-.7 3.3-2.8 6.2-5.9 9.9-8.2l.1-.3c1.6-1.2 3.3-2.3 5-3.2 0-.2.1-.6.1-.8 1.4-.8 2.8-1.6 3.9-2.8.3 0 .8-.1 1.1-.1v-.9h2.4v-1.8c.4.1 1.3.2 1.8.3v-1.1c.4.1 1.3.3 1.7.3l-.2-1.2 1.1.3-.2-1.2c.4.1 1.3.3 1.7.3v-1.1c.3 0 .8.1 1.1.1 1.1-1.7 3-2.1 4.8-2.8l-.2-.7 1.1.3-.2-1c.7 0 1.9.1 2.5.2l.1-1.1c.4.1 1.3.3 1.7.4l-.2-1.2 1.1.3-.1-1.1c.7 0 1.9.1 2.5.2v-1.1c.4.1 1.3.3 1.7.3l-.1-1.2 1.1.3-.1-.8c1.4-.3 2.8-.7 4.3-1l-.2-.8c1.8-.3 3.4-.8 5.2-1.1l-.1-.4c1.3-.4 2.5-.8 3.9-1.3 4.7-2 9.6-3.1 14.6-4.2l-.1-.6c1.3-.1 2.4-.2 3.8-.3 1.3-.4 2.6-.7 4-.8l-.2-.6c1.2-.3 2.5-.3 3.7-.4zM2593.8 170.3c2 0 3.9-.1 6 0l-.1-.8c11 .1 22-.8 33 .8 1 0 2 .1 3 .1l.1.7c2.5 0 5 .1 7.5.3-1.1.3-2.2.5-3.2.8 3.4-.5 6.9.2 10.2 1.1 1.1.3 2.3.4 3.5.7.9.3 1.8.6 2.8.9l-.2.4c1.6.2 3.2.4 4.8.8.9.1 1.9.2 2.9.3l-.3.9 1.2-.3-.3.8c1.9.3 3.9.7 5.7 1.2.6.4 1.2.9 1.8 1.4 1.8.3 3.5.8 5.3 1.3.9.6 1.8 1.2 2.6 1.9 1 .2 2 .3 3 .4l-.3.8 1.2-.2-.2 1c.7 0 1.9-.1 2.6-.2l.1 1.1c.4-.1 1.3-.3 1.7-.4-.1.3-.1.9-.2 1.2h1.2c1 .3 2.1.7 3.2 1-.1.3-.1.8-.2 1 .9.3 1.8.5 2.8.8 1.7 1.4 3.6 2.5 5.7 3.3v.8c2.3 1 4.4 2.2 6.6 3.3v.3c.3.3.9.6 1.3.8 1.3 1 2.6 1.9 3.9 2.9v.8c.4-.1 1.3-.3 1.7-.4l-.3 1.2.8-.3.3.9.9.3-.2.4c.8.3 1.7.8 2.5 1.2l.1.4c2.3 1.7 4.3 3.7 6.3 5.7.3.2.9.5 1.3.7v.4c4.3 3.6 8.4 7.6 12 12h.6l-.2.8c2.2 2.2 4.3 4.4 6.3 6.7l.3.2c.5 1.2 1.6 2.1 2.2 3.3l.3.2c2.9 4.4 6.5 8.3 8.8 13.1.9 1.5 1.9 3 2.9 4.5.7 1.3 1.4 2.7 2.2 4l.3.1c.3 1.1.8 2.3 1.2 3.4l1-.2c-.1.4-.3 1.3-.4 1.7l1 .1c0 .7-.1 1.8-.1 2.5l1.1-.2-.3 1.2.8-.2c.4 1.7.9 3.3 1.3 5 .3 0 1-.1 1.3-.1 0 .6.1 1.6.2 2.2.3 1 .7 2 1 3l.8-.2c-.1.4-.3 1.3-.4 1.8l.8-.1c.3 1.3.5 2.6.9 3.9.1.5.3 1.6.3 2.2.3-.1 1.1-.2 1.4-.2 0 1.4 0 2.8.2 4.3h.6c.3.9.5 1.8.8 2.8.3.8.7 1.8 1 2.6 0 1.5.1 3.1.2 4.6l.8-.1c0 .7-.1 2-.1 2.7.3-.1 1.1-.2 1.5-.2.1 2.8.3 5.6.3 8.5l.6-.1c1.6 4.4 1.3 9.2 1.4 13.8-.2 16.3.4 32.7-.6 49-.3-.1-1.1-.3-1.5-.3-.1 1.5-.1 3-.1 4.6h-.8v2.3c-.6 1.3-1.2 2.6-1.7 3.9-.1 2.2-.3 4.4-.3 6.5-.3-.1-1.1-.2-1.5-.3v2.7h-.8l-.3 5.1c-.3-.1-1-.3-1.3-.3-.4 1.8-.9 3.6-1.2 5.4l-.8-.1c.1.4.3 1.3.4 1.8l-.8-.2c-.3 1-.7 2-.9 3-.1.3-.3 1.1-.3 1.5-1.7 1.8-2.3 4.1-2.7 6.4-.3 0-.8-.1-1.2-.2-.2 1-.3 2-.5 3-1.5 2.3-2.8 4.8-4 7.2h-.3c-.8 1.5-1.7 2.9-2.4 4.4-.9 1.3-1.8 2.8-2.6 4.2-1.8 2.9-3.9 5.6-5.9 8.4-.5.7-1 1.4-1.5 2.2l-.7.1c.1.4.2 1.2.3 1.6-.3.1-.9.2-1.3.2-1.4 2.8-3.9 4.9-5.9 7.3l-.6.1.2.7-1.1 1.1-.3.1c-3.9 4.5-8.2 8.8-12.8 12.7l-.1.3c-.3.3-.8.8-1.2 1.1l-.7-.2.1.7c-1.6 1.3-3.1 2.6-4.7 3.9-1.2.8-2.3 1.6-3.4 2.3-.3.3-.8.7-1.2.8l.1.5c-.9.3-1.8.8-2.6 1.1l.2.9-1.1-.3.1.7c-.7.4-1.3.9-2 1.4-1.6 1.1-3.2 2.2-4.9 2.9l.3.9h-2.6l-.1.5c-.8.7-1.4 1.3-2.1 1.9-.5 0-1.5.1-2 .1l.2.8c-.9.3-1.8.8-2.6 1.2l-.1.8c-.4-.1-1.3-.3-1.7-.3l.1 1.2-1.1-.3.3.8c-1.5.3-2.9.7-4.3 1.1l.1 1c-.4-.1-1.3-.3-1.7-.3l-.1 1c-.6 0-1.8-.1-2.5-.1v.8c-.3.3-.8.8-1.1 1-1.3.4-2.7.8-3.9 1.1l-.1.8c-.4-.1-1.3-.3-1.7-.4l.1 1.3c-.4-.1-1.3-.3-1.7-.3v1.1c-1.2 0-2.3-.1-3.4-.1l.1 1c-.4-.1-1.3-.3-1.8-.3v1.3c-.4-.2-1.3-.4-1.7-.5v1.1h-3.4l.1 1c-.4-.1-1.3-.3-1.8-.3l.1.8c-1.1.2-2.1.4-3.1.7-2.2.3-4.3.8-6.4 1.3l.2.5c-1.3.3-2.7.5-3.9.9-1.3.1-2.5.2-3.8.3l.1.8h-4.3l.1.8c-2.2 0-4.3.1-6.4.7-.7 0-2 .1-2.7.2-7.8 0-15.5 1.5-23.3 1.1-7-.2-14-1-20.9-2.1-.1 0-.3.1-.4.2-2.3.5-4.6-.5-6.9-.8l.2-.5-5.4-.3c-1.3-.3-2.6-.7-3.9-.8l.1-.5c-2.3-.7-4.5-1.2-6.8-1.2v-.8c-.7.1-1.9.2-2.6.2l.1-1.2c-.4.1-1.3.3-1.7.5v-1.1h-3.4v-1.1c-.4.1-1.3.3-1.7.4l.1-1.3c-.4.1-1.3.3-1.7.4v-1c-1.5-.1-2.9-.1-4.3-.1 0-.3.1-.9.1-1.3-3.1-.5-5.9-1.8-8.6-3.5l-3.9-1.5c.5-.1 1.6-.2 2.1-.3-2.3-.2-4.4-1-6.5-1.9l.2-1c-.4.1-1.3.3-1.7.4l-.1-1.2c-.4.1-1.3.3-1.7.3l.2-1.2-1.1.3.1-1.2c-.4.1-1.3.3-1.7.3v-1.1h-1.1c-.8-.8-1.8-1.5-2.8-2-1.5-.8-2.8-1.7-4.4-2.5-1.2-.8-2.3-1.7-3.4-2.4l-.2-.3c-1.5-1.2-3-2.3-4.4-3.6l-.6.1v-1.1c-.4.1-1.3.3-1.7.3l.2-1.2-1.1.2.3-1.1c-.3.1-1 .1-1.3.2-.6-.7-1.2-1.3-1.7-2-.3-.2-.8-.4-1-.6-.8-.7-1.5-1.3-2.2-2-2.8-2.8-5.7-5.5-8.5-8.2-2.6-2.8-5.2-5.4-7.7-8.2-.2-.3-.6-.7-.8-.9-1.3-1.5-2.7-3-3.9-4.6l-.6-.2c0-.4.1-1.3.2-1.7h-1.6c-.1-.5-.2-1.4-.3-1.9-.8-.8-1.6-1.5-2.3-2.3-1-1.5-2-3-3.1-4.4-1-1.5-1.8-3-2.4-4.7-.3 0-.7-.1-.9-.1-.4-1.1-.8-2.1-1.3-3.2-.7-1-1.3-2.1-2-3.1-.2-.5-.5-1.5-.8-2.1h-1.1c-.4-1-.8-2.1-1.1-3 0-.3.1-.9.1-1.3l-.8.2c-.7-1.8-1.3-3.4-1.9-5.2l-.8.1c0-.3 0-.9-.1-1.3-.4-1-.8-1.9-1-2.9-.3-.3-1.1-.9-1.4-1.2.1-.3.2-1.1.3-1.4h-1v-3.3h-1.1c.1-.4.3-1.3.5-1.7l-1 .1c-.4-1.8-.8-3.4-1.2-5.2l-.8.1c.1-.4.3-1.3.4-1.8l-.8.1c-.3-1-.7-2-1-3-.1-1-.2-2-.2-2.9l-.7.2c-.5-2.1-1.1-4.2-1.5-6.3-1.3-5.4-3.2-10.8-2.8-16.5l-.8.2c-.1-1.4 0-2.8 0-4.3l-.8.2c.1-3.5 0-7-.3-10.6-1.2-7-.3-14.2-.6-21.4l.7-.1c0-4.4.3-9 .2-13.4l.9.2c-.1-1.2-.1-2.3-.2-3.5l.9.2c-.1-1.3-.2-2.5-.2-3.7l.8.4v-6.1l.8.1c0-.7-.1-2-.1-2.7l.9.3c0-.6.1-1.7.1-2.2.4-1.8.8-3.7.9-5.5l.8.1c-.1-.5-.3-1.4-.3-1.8l1 .3c0-1 0-2.1.1-3.1.3-1.3.8-2.7 1.2-3.9.9-1.1 1.3-2.4 1.5-3.8.3-1.3.6-2.4.9-3.6.3 0 .9.1 1.3.1 0-1.3.1-2.6.2-3.9.3-.8.8-1.6 1.3-2.3 1.2-.9 1.3-2.5 1.5-3.9h.8c0-.3 0-.9-.1-1.2 1.7-.7 1.5-2.5 1.8-3.9l.8.1c0-.4-.1-1.3-.2-1.8h1.6c0-1.1.1-2.2.2-3.2.7-.8 1.3-1.5 2-2.2 1-2.1 2.1-4.2 3.3-6.3l.3.1c.7-1.3 1.3-2.6 2.2-3.9.9-.8 1.3-1.7 1.7-2.8.7-.8 1.4-1.6 2.3-2.3 0-.3 0-.8-.1-1.1h1.1l-.2-1 1 .1-.2-1 1.1.2c-.1-.3-.2-1.1-.2-1.4.7-.8 1.5-1.5 2.3-2.3 1.5-2.7 3.7-4.8 5.7-7.1l.6-.1-.1-.7c.3-.3.8-.7 1-.8.3-.3.7-.9.9-1.3.3 0 .9.1 1.2.2.1-.5.3-1.4.3-1.8 1.9-1.7 3.7-3.5 5.4-5.4.2-.1.5-.3.7-.3.9-.9 1.9-1.8 2.8-2.8l.1-.5 1 .2-.2-1 1 .3-.1-.7 1.1-1.1.7.1.1-.5c1-.9 1.9-1.8 2.9-2.8.5-.1 1.5-.3 1.9-.3 0-.3-.1-1.1-.2-1.5l1.1.2-.1-.7c1.1-.3 2.2-.8 2.9-1.8.9-.8 1.9-1.5 2.9-2.2l.1-.3c1.4-1 2.8-2 4.3-2.9v-.3c1.3-.8 2.8-1.4 4.1-2.2l.1-.4c1.2-.3 2.3-.9 2.9-2h.8c.5-.3 1.6-.8 2.1-1.1l-.2-.7 1.1.3-.2-1.2c.4.1 1.3.3 1.7.4l.1-1.2c.4.1 1.3.3 1.7.3l-.2-1.2.7.1c.8-.4 1.6-.8 2.4-1.1.5-.2 1.6-.5 2.1-.7l-.2-.8 1.2.3-.2-.8c1.4-.3 2.8-.7 4.3-1.1l-.2-1 1.2.3-.3-.8c1.8-.3 3.4-.7 5.1-1.2l-.1-.6c2.3-.6 4.5-1.3 6.8-2l-.2-.6c1.7-.4 3.4-.8 5.2-1.1l-.1-.8c.4.1 1.3.3 1.8.3l-.2-.9c.9-.1 1.9-.2 2.9-.3 1.5-.4 3.1-.7 4.8-.8l-.1-.9c.4.2 1.3.4 1.8.5l-.1-1c1.3-.1 2.5-.2 3.8-.3 1.8-.7 3.7-.8 5.6-.8l-.3-.8c1.2.1 2.3.1 3.5.2l-.2-.8c2.5 0 5.1-.2 7.7-.2l1.1-1.3m5.8 75.5l.2.7c-1.9 0-3.7.3-5.4.9-1.8.1-3.7.3-5.5.3l.2.7c-1.1.5-2.1 1-3.1 1.6-.4 0-1.3.1-1.8.1-.9.3-1.8.8-2.8 1.1-1.8 1.3-3.9 1.5-5.9 1.7 0 .4 0 1.1.1 1.5-.4 0-1.3-.1-1.8-.2l.2.9c-1.2 0-2.3.1-3.4.1 0 .3.1 1.1.1 1.5-1.4.5-2.8.9-4.3 1.3 0 .3.1.8.1 1.2-1.1.4-2.1.8-3.1 1.3-.8.8-1.6 1.5-2.3 2.3h-.8c-.8.8-1.7 1.5-2.5 2.1-1.1.8-2 1.5-3 2.3l-.1.6c-.3 0-1.2-.1-1.5-.1 0 .3-.1.9-.2 1.3-2.9 2.3-5.6 5-8 8-.2.1-.6.2-.8.2-1.1 1.6-2.2 3.3-3.3 4.9h-.7c.1.4.2 1.2.2 1.6-.6.1-1.7.3-2.2.3-.3.8-.4 1.7-.6 2.5-.8.8-1.5 1.8-1.8 2.8-.2.3-.5.7-.7.8-.8.9-1.4 2.1-1.8 3.3-.9 1.7-1.8 3.3-2.4 5.2-.5.7-.9 1.3-1.3 2.1-.1.3-.3.7-.3.9-.3 1-.6 2.1-.8 3.1l-.8-.1c.1.4.3 1.3.4 1.8l-.8-.1c-.3 1-.6 2-.9 2.9-.1.4-.2 1.3-.3 1.7-.4 1-.8 1.9-1 3l-.4-.2c-.3 2.6-1 5.1-1.1 7.7l-.7-.2c0 1.4-.1 2.8 0 4.3l-.8-.2c-.3 9-.3 17.9-.1 27l.8-.1c0 1.4-.1 2.8 0 4.3l.8-.2c.1 2.8.8 5.7 1.2 8.5l.5-.1c.3 1.6.9 3.1 1.3 4.7.3.9.5 1.9.8 2.9l.8-.1c-.1.4-.3 1.3-.4 1.8l1.1-.2v3.3h1c-.1.4-.2 1.3-.3 1.8.4 0 1.3-.1 1.7-.1 0 1.1.1 2.3.1 3.3h.7c.3.8.8 1.7 1.2 2.6l.3.1 2.1 4.2h.3c.8 1.6 1.7 3 2.7 4.4.8 1.1 1.7 2.1 2.6 3.2.5 1.2 1.6 2 2.2 3.3l.3.1c3.6 4.3 7.6 8.2 11.8 11.9 1.1.8 2.3 1.7 3.4 2.5s2.3 1.8 3.4 2.6v.6l1-.2-.2.9c1.3.1 2.6.3 3.9.3.1.6.2 1.7.2 2.2l3.3.3c0 .4 0 1.2-.1 1.6.4 0 1.3-.1 1.8-.1l-.1.9c1.1 0 2.3.1 3.4.1 0 .4-.1 1.2-.1 1.5 1.9.7 3.9.9 5.9 1.2-.1.3-.2.8-.2 1.2 1.2.3 2.6.6 3.9.9 1.1.3 2.3.8 3.3 1.1l.5-.2-.1.7 3.9.9c1.5.1 3 .2 4.6.3l-.2.8c1.2-.1 2.3-.1 3.5-.1l-.2.8c9.8.3 19.7.3 29.6-.1l-.2-.8c2 0 4 0 6.1.1-.8-.5-1.4-.9-2.1-1.3.9.2 2.6.5 3.5.7l.1-1h2.2c.9-.4 1.8-.8 2.8-1.1l-.1-.6c1.1 0 2.3 0 3.4.1v-1.1c.4.2 1.3.3 1.7.5v-1.3c.4.1 1.3.3 1.7.4v-.8c1.6-.3 3.9.2 4.6-1.8 1-.2 2.1-.3 3.3-.5 1.1-2.3 3.9-2.9 6-4.3l3.9-2.7c1.3-1 2.6-2.1 4-3l.2-.2c1.1-.5 2-1.3 2.8-2.2h1.2v-1.3c3.3-2.4 5.9-5.4 8.8-8.4 1.4-1.8 2.8-3.5 4.2-5.3h.6v-.5c1.7-2.3 3.3-4.5 4.5-7l.6.1-.2-1.1c.4 0 1.2.1 1.5.1 0-1.1.1-2.3.3-3.3l.9.1-.3-1 .8.1c.7-2 1.4-3.9 2.2-5.9h1.2c0-1.2.1-2.3.3-3.5.3 0 1.1.1 1.5.1 0-1.3.1-2.5.3-3.8.3-.8.6-1.8.9-2.6.3-.5.7-1.6.9-2.1l.6.3c0-1.6.1-3.1.3-4.7.4-1.5.8-3.1 1-4.6l.6.1c0-1.6.1-3.1.3-4.6 1.3-6.3.5-12.9.7-19.3.3-3.9-.8-7.6-.9-11.5l-.8.2c0-1.2 0-2.3.1-3.3l-.8.1c-.1-1.7-.1-3.3-.1-5.1l-.6.1c-.3-1.4-.9-2.8-1.2-4.3h-.8c0-1.2 0-2.3.1-3.4l-1.1.1c.1-.4.3-1.3.5-1.8l-.9.1c-.4-1.3-.9-2.6-1.3-3.9-.5-.9-1-1.8-1.4-2.7-.6-1.7-1-3.7-2.9-4.2-.3-1-.4-2-.6-3-.8-.8-1.4-1.6-1.8-2.5-.8-1.4-1.8-2.8-2.8-4.1-1.1-1.4-2.2-2.9-3.1-4.4-.8-.8-1.8-1.8-2.5-2.6-.8-.9-1.6-1.8-2.3-2.7-.2-.3-.5-.8-.7-1-1.1-.8-2.2-1.5-3.2-2.3 0-.3-.1-.8-.1-1.2h-1.7c0-.4.1-1.2.1-1.5l-1.1.1v-.8c-1.1-.8-2-1.6-3-2.3-1.3-.9-2.4-1.8-3.4-2.9h-1v-.8c-1.5-.8-2.9-1.6-4.4-2.3-1.3-1.1-2.7-2-4.2-2.4-1.1-1-2.3-1.8-3.6-2.4-2-.9-3.9-2.1-6.1-2.5l-.1-.7c-.4.1-1.3.3-1.7.4l.2-.8c-1.1-.3-2.1-.7-3.1-1-1-.1-2-.2-2.9-.2l.1-1c-.4.1-1.3.3-1.8.5l.1-1.2c-.7.1-1.9.2-2.6.3v-.8c-1.3-.1-2.6-.1-3.9-.1-1.3-.4-2.8-.8-4-1.3-3.6-.7-7.3-.4-10.9-.6-3.3-.9-6.8-.4-10.2-.5-.6 0-1.8 0-2.3.1-2.9.3-5.1.3-7.3.3zM862.8 175.3c2.4-.5 4.9-.8 7.4-.8 74.6.1 149.2 0 223.8 0 0 4.9.3 9.7-.8 14.5v2.2l-1.3-.3c-.3 2.7-.5 5.3-1 8-.3.4-.8 1.3-1.1 1.8.1.3.2 1 .3 1.3l-.8-.1c-.3 1.7.3 4.1-1.8 4.7.1.3.2.9.2 1.3h-.8c-.3 1.4-.3 2.9-1.5 3.9-.3.4-.7 1.3-.8 1.7-.8 1.3-1.5 2.5-2.3 3.8l-.3.1c-.6.9-1.2 1.8-1.6 2.9-.9 1-1.8 2.1-2.7 3.3-.3.3-.8 1-1 1.3-.3.3-.8.7-1.1.9l.1.7h-.7c-.8 1-1.5 1.9-2.3 2.9-1 .8-1.9 1.6-2.9 2.3v.7l-.7-.2c-.3.3-.7.8-.9 1.2-1.3 1-2.7 1.9-4 2.7-.5.7-1 1.3-1.4 1.9-.4 0-1.3.2-1.8.2-.7.7-1.3 1.4-1.9 2.2-1.3.3-2.4.8-3.6 1.2v1.2c-1.4.3-2.9.4-4.3 1.1-1.5 1.2-3.3 1.8-5.3 2.1-3.6 2.3-8.2 2.1-12.2 3.3l.2.6c-3 .1-6-.2-8.9.7-15.2.4-30.6.1-45.8.2.1.4.3 1.3.3 1.7l-.9-.1v3.5l.8-.1c0 84.1-.1 168.1 0 252.2l-1.1-.2c.1.4.3 1.3.4 1.7-24.9 0-49.7.1-74.6-.1-.3-86.2.1-172.4-.2-258.7H792c-.3-.5-.8-1.5-1.2-1.9 1.3-4.7.8-9.7 2.4-14.3l.3-3.9.9.2c-.1-.7-.2-1.9-.2-2.6l.8.2c.3-2 .8-4 1.2-6l.9.1c-.1-.4-.3-1.3-.4-1.8l.8.1c.3-1.3.8-2.6 1.3-3.9.7-1.2 1.3-2.3 1.9-3.6l.6-.2c-.1-.4-.3-1.2-.3-1.6l1.1.2-.3-1.1 1 .1c0-.5.1-1.5.2-2 .8-.8 1.4-1.5 2.2-2.3.3-1.2 1-2.1 1.8-2.8l-.1-.5 1.1.1c0-.3-.1-.9-.1-1.2 1.3-1.1 2.5-2.3 3.6-3.7l.2-.3c.8-.9 1.8-1.8 2.7-2.8l.1-.2 1.3-1.3.3.3c.3-.3.9-.9 1.3-1.2l-.2-.8c.4.1 1.3.2 1.7.3 0-.3.1-1 .1-1.3 2.7-1.5 5.3-3.4 7.7-5.4 1.1-.3 2.1-.8 3.2-1.1l-.2-.7c1.2-.4 2.3-.8 3.4-1.1v-.7c.4.1 1.3.3 1.7.3l-.1-1.3c.4.1 1.3.3 1.7.4v-1h3.3l-.1-1 1.1.3-.2-.8c7.3-1.3 14.6-4.1 22.3-3.6zM1483.4 173.6c11.2-.2 22.4.1 33.7.2l-.2.8c1.4 0 2.9-.1 4.4-.1l-.3.8c2.1 0 4.3.1 6.4.2 2.6.7 5.4.8 8 .8l-.3.9c.7-.1 2-.2 2.7-.3l-.2.8c1.5.1 3.1.2 4.6.3 1.3.3 2.6.6 3.9.8l-.2.8c.7-.1 2-.2 2.6-.3l-.2.9c1 0 2 0 3.1.1 1.3.6 2.4 1.3 3.8 1.8l-.1.7h3.4v1.1c.4-.1 1.3-.3 1.7-.4l-.1 1.3c.4-.1 1.3-.3 1.7-.3l-.1 1.1c.7 0 2-.1 2.6-.2v.9c.4 0 1.3-.1 1.8-.1 0 .4-.1 1.2-.1 1.6 1.1.1 2.3.1 3.3.2l-.2.9.5-.1c.8 1.4 2.3 1.6 3.7 1.9v.7l1.1-.3-.3 1.2c.4-.1 1.3-.3 1.6-.4l.2 1.2c.4-.1 1.3-.3 1.7-.3l-.1.8 3.3 2.1-.1.4c.3.2.9.6 1.3.8 2.1 1.7 4.1 3.3 6.1 5.1h1.2l-.2.7c.3.3.8.9 1.2 1.3l.3-.3 1.2 1.2-.2.7.7-.1c.3.3.8.8 1 1.2l-.1.7.7-.1c.3.3.9.8 1.2 1.2 0 .3-.1.8-.1 1 .8.4 1.8.8 2.7 1.3 0 .3-.1 1.1-.1 1.5.4 0 1.2-.1 1.6-.1.1.5.3 1.6.3 2.2.8.3 1.6.7 2.4 1.1l-.3 1.1h.7c1 1.4 2.1 2.8 3.1 4.2l.3.1c1 1.3 2 2.6 3.1 3.9 1.1 1.5 2.3 2.9 3.3 4.5l.7.1c0 .4-.2 1.2-.2 1.6l.8-.1c.3.3.8.9 1.1 1.3-.1.3-.1 1-.2 1.3l.7-.1c.5.8 1 1.5 1.5 2.3 1.1 1.7 2.3 3.4 3.3 5.2l.3.1c.3.3.8.8 1.1 1.2l-.2.8 1.2-.1c-.1.4-.3 1.3-.4 1.7l.7.1c.6.8 1.3 1.5 1.9 2.2.1.5.2 1.5.2 1.9l.9-.3-.3 1.1.9-.1c.4 1.3.8 2.7 1.2 4.1h1c.7 1.4 1.4 2.9 2.1 4.4h.7c.3 1.1.8 2.3 1.1 3.4l.8-.3-.3 1.1 1.1-.1c-.1.4-.3 1.3-.3 1.7l.8.1c.3.8.8 1.7 1.2 2.5l.5-.1c.3.5.7 1.6.9 2.1.8 1.5 1.4 2.9 2.1 4.5.3.3.8.9 1.1 1.3.3.4.8 1.3 1.2 1.8v2.2l.9-.3-.2 1.1.9-.1c.4 1.4.8 2.8 1.1 4.3.3 0 .9 0 1.2-.1.5 1.7 1 3.3 1.4 4.9h1.1c.3.6.8 1.7.9 2.3.1.4.3 1.2.3 1.5 1.1.7 1.5 1.8 1.8 3.1l.6-.1v2.5h1.6v2.6l.9-.1-.3.8c.6.7 1.3 1.3 1.9 2-.1.3-.3 1.1-.3 1.4l1.1.1c-.1.4-.3 1.3-.3 1.7l1-.2c.3 1.1.8 2.3 1.1 3.4h.4c.3.8.8 1.7 1.2 2.5l.8.1c0 .7-.1 1.8-.2 2.5l1-.3-.3 1.1 1.1-.1c-.1.4-.3 1.3-.3 1.7h1.1c0 .7-.1 1.9-.2 2.5l1-.3-.2 1.1 1.1-.1c-.1.4-.3 1.3-.3 1.7l.7.1c1.2 2.2 2.3 4.4 3.2 6.7l.6-.2-.3 1.1.8-.1c.3 1.4.8 2.8 1.3 4.2l.8-.3-.2 1.1.6-.1c.9 2.3 2 4.4 3.2 6.6l.6.2c-.1.4-.2 1.3-.3 1.7l1.1-.1-.3 1.1 1.1-.3c0 .7-.1 1.9-.2 2.6l1-.1c0 .3 0 .8-.1 1.2 1.4.8 1.7 2.3 1.8 3.9h.4c1.3 2.4 2.7 4.9 3.9 7.5l.6.1c0 .4-.1 1.3-.2 1.8.3 0 1 .1 1.3.1.6 1.5 1.2 3 1.9 4.5l.1.6.7-.2c.3 1 .8 2.1 1.2 3.1.7.9 1.3 1.8 1.9 2.8l.6.1c0 .3-.1.9-.2 1.3.8 1 1.7 2 2.5 3.1.7 1.3 1.4 2.6 2.2 3.9h.6l-.3.7 1.3 1.3.8-.2c-.1.4-.3 1.3-.3 1.7.5.1 1.4.2 1.9.3-.3-68.7.1-137.5-.2-206.2l1 .2-.3-1c24.6.1 49.3 0 73.9 0 .1 111.2.1 222.4 0 333.5-6.8 0-13.6-.2-20.3-.2l.2-.8c-5.4.4-10.7-.9-16.1-1l.3-.6c-2.7-.5-5.3-1.1-8-1.6-1.6-.3-3.2-.8-4.8-1.3l.1-.7c-1-.1-2-.1-2.9-.2-1-.4-2-.7-3-1l.1-.8c-.4.1-1.3.4-1.7.5v-.8c-1.8-.3-3.4-.8-5.1-1.3 0-.3.1-1 .1-1.3-1.4-.1-2.8-.2-4.3-.2l.2-.9-1.1.3.1-.8-2-.8c-1-.4-2-.8-3-1.3l.2-.7c-1.2-.4-2.3-.8-3.5-1.1l.2-.8-1.1.3.2-1.2c-.4.1-1.3.3-1.7.3l-.1-.8c-1.7-1-3.3-2.1-5-3v-.4c-1.2-.7-2.3-1.4-3.3-2.1v-.4c-1-.8-2-1.5-2.9-2.3-.7-.6-1.3-1.1-2-1.6v-.7l-.8.2-1.1-1.1.1-.8h-1.2c-2.2-2.4-4.5-4.7-6.8-7-.3-.3-1-1.1-1.3-1.4l.2-1.1c-.3.4-1.6 2.9-.8.5-.3-.3-.9-1-1.2-1.3-1.7-1.7-3.3-3.4-4.9-5.2l-.8-1.2h-.4l-3-3.9c-1.3-1.6-2.5-3.3-3.6-5-.2-.1-.5-.3-.8-.3-1.6-2.4-3.4-4.7-5-7.1l-.1-.4c-.7-.7-1.3-1.3-2-1.8v-.3c-.5-.7-.9-1.4-1.3-2.1-.8-1.3-1.6-2.6-2.3-3.9h-.7l.2-1.1-1.1.3c.1-.3.2-1 .3-1.3-1.1-1.3-2.1-2.8-3.1-4.1-.8-1.3-1.6-2.5-2.3-3.8l-.3.1c-.8-1.4-1.5-2.8-2.3-4.3h-.5l-.1-.6c-.7-1.2-1.3-2.4-1.9-3.6h-.6l.3-1.1-1.1.3c.1-.3.2-1 .3-1.3-.3-.4-1-1.3-1.3-1.7-.6-.9-1.1-1.8-1.6-2.8l-.6-.1c0-.3.1-.9.1-1.2-1-.7-1.6-1.6-1.9-2.7-.3-.3-.8-1.2-1-1.5-.8-1.4-1.6-2.8-2.3-4.3-.6-1.3-1.3-2.4-1.8-3.7h-.3c-.8-1.4-1.6-2.8-2.2-4.3h-.5v-1.2c-1.7-.7-1.6-2.4-1.8-3.9l-.7.1-.3-.4c-.7-1.3-1.2-2.6-1.7-3.9l-.6.1.3-1.1-.8.3c-.4-1-.8-1.9-1.1-2.9v-1.3l-1 .1.1-.5c-1.5-.8-1.5-2.5-1.7-3.9l-.8.2c0-.3-.1-.8-.1-1.1-1.3-.9-1.5-2.6-1.8-4-.3 0-.8.1-1.2.1-.3-1-.4-2-.6-3-.6-.9-1.1-1.8-1.6-2.8h-.3c-.3-1.1-.7-2.1-1.1-3.1-.3-.3-.8-1-1-1.3l-.7.2v-2.3c-.8-.8-1.5-1.6-2.2-2.3-.2-1-.3-1.9-.5-2.9l-.8.2.3-1.1c-.3 0-1.2.1-1.5.1-.1-1.2-.2-2.3-.2-3.3l-.9.1c0-.4.1-1.3.1-1.8h-1.5c-.1-1.2-.2-2.3-.2-3.3l-.9.2.3-1.1-1.2.2c.1-.3.2-1.1.3-1.4-1.6-2.2-3-4.4-3.8-7h-.9c-.3-1.3-.8-2.5-1.2-3.7-1.8-.5-1.7-2.3-1.9-3.8l-.5.1c-.4-.8-.8-1.7-1.2-2.6h-.8c.1-.4.3-1.2.3-1.6l-.6-.2c-.8-.7-1.4-1.4-2-2.2 0-.5-.1-1.4-.2-1.9l-.9.1.2-1-1.1.2c.1-.4.2-1.3.3-1.6h-1c0-.3 0-.9-.1-1.2-1.6-1.9-2.9-4.1-4.2-6.2-1.9-2.3-3.8-4.8-5.7-7.1l.1-.7-1 .1.2-1-1 .1c0-.3 0-.9-.1-1.2-2.8-2.1-4.7-5.7-8.5-5.9-.2 72.1 0 144.3-.1 216.4-25 .3-50.1 0-75.1.2.2-113.2.4-225.2.3-337.1z"/><path class="st1" d="M2007.6 298.5c4.7.3 9.2-1 13.9-.8 29.4-.1 58.8 0 88.1 0 .3.9.5 1.8.8 2.8-.9 2.7-.7 5.4-.7 8.2l-.8-.2c0 1.8-.1 3.4 0 5.2l-.8-.1c0 1.4-.1 2.8 0 4.3h-.5c-.3 2.1-1.1 4.2-1.8 6.2-.1 1-.2 2-.2 3h-.9c.1.4.3 1.3.3 1.7h-1.3c.1.4.3 1.3.5 1.7h-1.1c0 .6.1 1.8.1 2.4-.8.8-1.6 1.7-2.3 2.5-.1.6-.2 1.8-.3 2.3-1.2 1.3-2.1 2.8-2.8 4.4l-.6-.1.3 1.1-1.2-.3c.1.3.2 1.1.3 1.4-5.4 6.9-11.4 13.2-18.3 18.6-.8.2-1.5.3-2.3.5-.3 2.4-2.8 2.3-4.7 2.5 0 .3.1 1 .1 1.3-1.7.6-3.3.9-5.1 1.2v1.4c-.4-.1-1.3-.2-1.8-.2v.6c-1.3.3-2.4.7-3.7 1l-4.2 1.8h-3.1l.1 1c-.7-.1-1.9-.2-2.6-.3l.1.8c-1.9.1-3.9.2-5.6.7-5.4.6-11-.3-16.2 1.2l.1-.9c-4.5.1-9 .1-13.6 0v1.1c-.5-.3-1.4-.8-1.9-1.1-2.8.4-5.4 0-8.1-.1v1.2c-.5-.3-1.4-.8-1.9-1.1-3.3.1-6.5.1-9.8 0l.1.8h-1.8l.2-.8c-2.6.1-5.1.1-7.7 0v1.1c-.7-.3-2-.8-2.7-1-3.2.9-6.6-.4-9.9-.1l.1 1-1.3-.4c-1.4-.3-2.8-.7-4.3-.5-5.4.1-10.9.1-16.3 0l.2.8h-2.7l.1-1c-.4.1-1.3.3-1.8.3 0-2.4.1-4.9.2-7.3.8-2.8.6-5.9.7-8.9l.9.1c-.1-.7-.2-1.9-.3-2.6l.8.2c.2-1.6.4-3.2.8-4.7 0-1 .1-2 .2-3l1.1.2c-.2-.4-.4-1.3-.5-1.8l1.1.1c0-.5.1-1.6.1-2.1.3-1 .7-2 1-3l.5.1c.7-1.8 1.3-3.4 1.9-5.2l.8.1c-.1-.4-.2-1.3-.3-1.7h1.2c-.1-.4-.3-1.3-.3-1.7h.8c.7-1.3 1.4-2.8 2.2-4.1h.3c.7-1.2 1.4-2.3 2.1-3.4h.4c.7-1.2 1.3-2.3 2.1-3.4h.3c.3-.3.8-.8 1.2-1.1l-.1-.5 6-6 .8.2.1-.5c1-.9 1.9-1.9 2.9-2.8.3 0 .8.1 1.2.1v-.8c1-.7 2-1.4 3.1-2.1.5-.3 1.4-.8 1.9-.9v-1.3h2.3c.7-.7 1.3-1.3 2-1.9.3.1 1 .2 1.4.3l.1-.7c1.2-.3 2.3-.8 3.4-1.1l-.2-.8c.5 0 1.6-.1 2.1-.1 1-.3 2-.7 3.1-1l-.1-.8c.4.1 1.3.3 1.8.4l-.1-1.1h4.3v-.8c.7.1 1.9.2 2.5.2l-.1-1c1.2 0 2.3.1 3.5.1l.1-1z"/></g></g></svg>