<svg xmlns="http://www.w3.org/2000/svg" viewBox="0 0 2815.3 678"><style>.st0{fill:#888}.st1{fill:#686868}</style><g id="Слой_3"><path class="st0" d="M463.8 143.1c42.7 109.6-27.9 180.1-96.6 248.9-66.9 72.4-122.6 146.7-7.4 282.3-42.7-109.6 27.9-180.1 96.6-248.9 64.9-72.5 122.5-146.8 7.4-282.3"/><path class="st1" d="M359.8 3.8c42.7 109.6-26 180.1-96.6 248.9-65 72.4-122.6 146.7-7.4 280.4-44.6-107.7 26-178.3 96.6-248.9 64.9-72.4 122.5-146.7 7.4-280.4M2127.7 436.5v222.9h98.5v-81.8h107.7v-48.2h-107.7v-44.6h211.7v174.6h98.4V484.8h89.1v-48.3h-497.7M1917.9 611.1v-39H2046v-48.3h-128.1v-39h163.4v-48.3h-261.8v222.9h263.7v-48.3h-165.3"/><path class="st0" d="M887.2 436.5H616v48.3h87.3v174.6h96.6V484.8h87.3v-48.3M1080.3 436.5H1006v53.9l1.9-1.9 42.7 85.4H1006v46.4h68.7l20.4 39h107.7l-122.5-222.8m-76.1 0h-29.7L851.9 659.4H915l20.4-39h68.7V574h-44.6l44.6-83.6c.1 0 .1-53.9.1-53.9z"/><path class="st1" d="M1700.6 436.5v111.4l-157.9-111.4h-74.2v222.9h66.8V536.8L1695 659.4h72.5V436.5h-66.9"/><path class="st0" d="M1435 436.5h-265.5v48.3h87.2v174.6h96.6V484.8h81.7v-48.3"/></g></svg>