<svg id="Слой_1" xmlns="http://www.w3.org/2000/svg" viewBox="0 0 538.1 232.2"><style>.st0{fill:#686868}.st1{fill:#fff}</style><g id="_x23_152fa9ff"><path class="st0" d="M38 34.3C56.8 16.2 82 5 108.1 3c19.8-1.5 39.9 2.5 57.7 11.3 1.3.7 2.6 1.3 4 2 13.2 6.8 24.3 16.8 33.9 27.9 16.7 20.5 26.3 46.9 25.6 73.4 0 14.6-3.2 29.1-8.8 42.5-11.8 28.3-35.7 51.4-64.4 62.2-29 11.2-62.7 9.7-90.5-4.3-.5-.3-1.5-.8-2-1-2.4-1.2-4.7-2.7-7-4-5.5-3.3-10.5-7.3-15.4-11.3-4.5-4.9-9.9-9.1-13.6-14.6C10 165.1.8 136.5 2.9 108.5c1.9-28 14.8-54.9 35.1-74.2m19.1-6.8c-22.6 14.9-39.1 38.6-45 65-5.1 22.2-2.8 46 6.5 66.8C30 185 52 205.7 78.3 215.6c18.4 7.1 38.6 8.5 57.9 5.1 2.7-.7 5.5-1.3 8.2-1.9 4.3-1.4 8.7-2.6 12.9-4.5 2.3-.8 4.4-1.9 6.5-3 2.2-1.1 4.4-2.3 6.6-3.4.8-.5 1.6-1.1 2.4-1.6 2.4-1.3 4.4-3 6.7-4.3 1.7-1.3 3.1-3 5-4 6.6-5.8 12.8-12 18.1-19.1 4.4-6.5 8.7-13.1 11.4-20.4.7-.9.9-2 .8-3.2l1.2-.1c-.1-.5-.4-1.5-.5-2l1.1-.2c.1-2.5.9-5 2.1-7.2v-2.6l1-.1c.1-1.8-.3-3.8.9-5.3.2-1.6.3-3.3.5-4.9 1.7-2.8-.4-6.5 1.6-9.1.6-11.2-.9-22.3-3.2-33.3-4.4-15.5-11.5-30.2-21.9-42.4-17.2-20.8-42.6-34.6-69.4-37.6-24.7-3-50.4 3.1-71.1 17z"/><path class="st0" d="M95.3 16.7c22.8-4.6 47-1.1 67.5 9.9.1 1.6-.6 3-2.3 3.3-19.6 7.7-38.7 17-56.3 28.8-7.4 5.5-14.7 11.2-22.1 16.7-3.5 2.5-6 6.1-9 9.2-4.8 5.5-9.9 10.8-14.6 16.5-13 16.6-24 34.7-33.5 53.6-.4 1.7-2 1.2-3.2.8-2-5.9-4.3-11.8-5.4-18-1.5-5.2-1.4-10.7-2.2-16-.2-4.1-.8-8.5.5-12.4.5-2.7-.8-6 1-8.2.3-2-.3-4.3 1-6 .3-1.3-.3-3.1 1-4 .8-5.2 3-10.1 5-14.9 3.1-6.6 6.6-13.1 10.9-19.1 1-1.4 2-2.7 3-4 1.9-2.5 4.1-4.7 6.3-6.9v-.7h1l-.1-1 1.1.1v-.8c.3-.3.9-.9 1.3-1.2h.7l.1-.8c3.5-3 6.8-6.2 10.8-8.6.6-.5 1.3-1 1.9-1.5 1.7-1 3.4-2 5.1-3.1 1.5-.9 3-1.8 4.6-2.5.5-.3 1.5-.8 2-1 1.4-.7 2.8-1.3 4.2-1.9.9-.4 1.9-.7 2.8-1.1 5.4-2.5 11.1-4.1 16.9-5.2zM535.2 132.7c-1.9-3.7-4.3-7.2-6.2-11h-.2-.1c-.2.1-.5.1-.7.1l-.3.1s0-.1.1-.1h-.3c-.4.1-.9.2-1.3.3-5.3 6.1-14 8.9-22 8.4-7.9.5-15.8-3.3-20.6-9.5-6.3-8-8.5-18.5-8.4-28.5.2-11.1 3.5-22.6 11.2-30.8 4.7-5.2 11.7-8.2 18.8-8.2 7.4-.3 15.3 1.2 21.1 6.2 2.5-5 5-10 7.4-15.1-8.7-5.7-19.2-7.6-29.5-7.2-13.3-.5-26.5 5.8-34.8 16.2-9.5 11.3-13.8 26.3-13.2 40.9.1 15.4 4.7 31.9 16.5 42.4 9.5 8.6 23 11.1 35.5 10 10.3-.7 21.5-3.8 28.3-12 .1-.1.1-.3.2-.4-.7-.5-1.2-1.1-1.5-1.8zM179.1 38.7c1.3.2 2.4.8 3.3 1.7 18.5 16.7 30.7 40.3 33 65.2 2.6 24.2-4.1 49.1-18.3 68.8-.6 1.2-1.8 1.3-2.9 1.5-21.6-23.4-43.2-46.8-64.9-70.1 2.4-5.1 6.6-9 9.8-13.7 3.1-3.9 6.1-7.9 9.1-11.9 9.9-12.8 19.6-25.7 29.4-38.4.5-.9 1.1-1.9 1.5-3.1zM244.2 39.4h88c0 5.4.1 10.8.1 16.2-11.9.1-23.8-.1-35.7.1.1 30 0 59.9.1 89.9h-18.4v-90h-34c-.1-5.4-.1-10.8-.1-16.2zM359.3 39.4c3.2 0 6.4 0 9.6.1 7.4 23.9 15.4 47.5 22.8 71.4.8-.9 1.3-2.1 1.6-3.3 7-22.7 14.4-45.3 21.2-68.1 3.2-.2 6.5-.1 9.7-.1 7.8 35.3 14.4 70.9 22 106.2h-17.9c-3.1-16-6.2-32.1-9.3-48.1-.7-3.2-.8-6.5-2.3-9.4-7.1 19.6-14.1 39.2-21.5 58.7-2.4-.4-6.5 1.2-7.1-2.2-6.7-18.8-13.9-37.5-20.6-56.2-.2.3-.7.9-.9 1.3-3.7 18.7-7.4 37.4-11.3 56h-17.4c4.2-22.7 9.1-45.4 13.5-68.1 2.8-12.7 5-25.5 7.9-38.2zM95.5 134.9c1.3-1.1 2.6-2 4.3-2.3 20.9 22.9 42.2 45.6 63.2 68.4 1.1.9 1.2 2 .4 3.2-20.4 11.3-44.7 15-67.6 10.7-24.9-4.6-47.4-19.2-62.5-39.5.2-.5.7-1.4.9-1.9 5.9-3.4 11.4-7.3 17.3-10.7.8-.5 1.5-1.1 2.2-1.6 3.8-2.2 7.3-4.7 11.1-6.9 1-.6 2-1.3 2.9-1.9l3.9-2.4c1.6-1.1 3.3-2.1 5-3.1.7-.5 1.5-1.1 2.2-1.6 3.7-2.3 7.4-4.5 11-6.9 1.8-1.2 3.7-2.4 5.7-3.5zM388.6 162.9c3 6.6 6.3 13.1 9.1 19.8-.5 1.5-1 3-1.4 4.6-.1 0 0 .4-.1.5.2.4.1.2.4.6 1.4 0 2.6.3 3.6.1 4-8.4 7.5-17.1 11.3-25.6-1.7 0-3.3 0-5-.1-2.3 4.7-3.9 9.6-6.5 14.1-2.1-4.7-4.2-9.4-6.5-14.1-1.6.1-3.2.1-4.9.1zM278.5 162.9h12.6c0 1.3.1 2.7.1 4h-7.9c-.3 7.2-.1 14.5-.1 21.7h-4.8c.2-8.6.1-17.1.1-25.7zM332.3 162.9c4.5 0 9.1-.1 13.6.8 2.3 1.6 4.5 3.9 4.4 6.9.2 3.4-2 6.7-5.1 7.9-2.5.7-5.2.6-7.8.6-.2 3.2-.2 6.4-.2 9.5h-5c.1-8.6-.1-17.2.1-25.7m5 3.9c-.1 2.8-.2 5.5-.1 8.3 2.7-.1 8 .5 8-3.4 1.1-4.7-4.7-5.1-7.9-4.9zM452.2 162.9c6.5.1 13 0 19.5.1.1 8.5-.1 17 0 25.6-1.6.1-3.2.1-4.7.1-.1-7 .1-14-.1-20.9-2.9-1.5-6.9-.3-10.2-.5-.1 7.2 0 14.3 0 21.4h-4.6c0-8.7-.2-17.3.1-25.8zM514.5 162.9h19.7c.1 8.6 0 17.1 0 25.7h-5v-21.4c-3.3-.1-6.6-.1-9.8-.1-.3 7.2-.1 14.3-.2 21.5h-4.7v-25.7z"/></g><g id="_x23_ffffffff"><path class="st1" d="M80 6.2c22.5-7.9 47.6-8.2 70.3-.8 8.1 3 16.4 5.9 23.9 10.4 4.2 2 7.3 5.5 11.4 7.7 8.5 6.5 16 14.1 22.6 22.4 2.2 3.2 4.1 6.5 6.6 9.6 13.5 22.3 19.8 49.2 16.2 75.1-1.7 8.8-2.8 17.9-6.6 26.1-2 6.2-4.7 12.3-8.4 17.8-7.6 14.3-19.3 26.1-32.1 35.8-3.6 2.1-6.9 4.6-10.5 6.5-8.9 5.7-19.1 8.7-29 12.3-.6.1-1.9.2-2.5.3v.7l-2.2.1c-1.6 0-3.2 0-4.8-.1-.3.2-.7.6-1 .9-8.7 1.5-17.6 1.5-26.4 1.2-3.3 0-6.6-.8-9.8-1.5-8.7-.8-16.9-4-25.2-6.8-13-4.9-24.5-13-35-22.1-8.6-8.3-16.7-17.4-21.8-28.3-3.3-3.9-5-8.8-6.7-13.5-7.3-16.3-10.2-34.5-8.2-52.2C.4 99.4 2.4 91.3 5 83.6c1.6-6.3 4.2-12.2 7-17.9 6.5-14.5 17.2-26.8 28.8-37.5 7.2-6 14.7-12 23.6-15.2C68.9 9.4 74.5 7.7 80 6.2M38 34.3C17.7 53.6 4.9 80.5 3 108.4c-2.2 28 7.1 56.7 24.7 78.5 3.8 5.5 9.1 9.7 13.6 14.6 4.9 4 9.9 8 15.4 11.3 2.3 1.4 4.6 2.8 7 4 .5.3 1.5.8 2 1 27.8 14 61.4 15.6 90.5 4.3 28.7-10.8 52.6-33.8 64.4-62.2 5.6-13.4 8.8-27.9 8.8-42.5.6-26.5-8.9-52.9-25.6-73.4-9.6-11.1-20.8-21.1-33.9-27.9-1.3-.6-2.7-1.3-4-2C148 5.5 127.9 1.5 108.1 3 82 5 56.8 16.2 38 34.3z"/><path class="st1" d="M57.1 27.5c20.7-13.9 46.4-19.9 71.1-17 26.8 3 52.2 16.8 69.4 37.6C208 60.3 215.1 75 219.4 90.4c2.3 11 3.8 22.1 3.2 33.3-2 2.6.2 6.4-1.6 9.1-.2 1.6-.3 3.3-.5 4.9-1.1 1.5-.8 3.5-.9 5.3l-1 .1v2.6c-1.2 2.3-2 4.7-2.1 7.2l-1.1.2c.1.5.3 1.5.5 2l-1.2.1c.1 1.2-.2 2.3-.8 3.2-2.7 7.3-7.1 14-11.4 20.4-5.3 7-11.5 13.3-18.1 19.1-1.9 1-3.3 2.7-5 4-2.3 1.3-4.3 3.1-6.7 4.3-.8.5-1.6 1.1-2.4 1.6-2.2 1.1-4.4 2.3-6.6 3.4-2.1 1.1-4.3 2.1-6.5 3-4.2 1.9-8.6 3.1-12.9 4.5-2.7.6-5.5 1.2-8.2 1.9-19.3 3.4-39.6 2-57.9-5.1C52 205.7 30 185 18.6 159.3 9.3 138.5 7 114.7 12.1 92.5c5.9-26.4 22.4-50.2 45-65m38.2-10.8c-5.8 1.1-11.5 2.8-17 5.1-.9.4-1.9.7-2.8 1.1-1.4.6-2.8 1.3-4.2 1.9-.5.3-1.5.8-2 1-1.6.7-3.1 1.6-4.6 2.5-1.7 1.1-3.4 2.1-5.1 3.1-.6.5-1.3 1-1.9 1.5-4 2.4-7.3 5.6-10.8 8.6l-.1.8h-.7c-.3.3-.9.9-1.3 1.2v.8l-1.1-.1.1 1h-1v.7c-2.2 2.2-4.4 4.4-6.3 6.9-1 1.4-2 2.7-3 4-4.3 5.9-7.8 12.4-10.9 19.1-2 4.8-4.2 9.7-5 14.9-1.3.9-.7 2.7-1 4-1.3 1.7-.7 4-1 6-1.8 2.3-.5 5.6-1 8.2-1.3 4-.7 8.3-.5 12.4.8 5.3.7 10.7 2.2 16 1.1 6.2 3.4 12.1 5.4 18 1.2.4 2.9.9 3.2-.8 9.5-18.8 20.5-36.9 33.5-53.6 4.7-5.7 9.8-10.9 14.6-16.5 2.9-3.1 5.5-6.6 9-9.2 7.4-5.5 14.7-11.2 22.1-16.7 17.5-11.8 36.6-21.1 56.3-28.8 1.7-.3 2.4-1.7 2.3-3.3-20.4-10.9-44.7-14.4-67.4-9.8m83.8 22c-.4 1.1-1 2.2-1.7 3.2-9.8 12.8-19.5 25.7-29.4 38.4-3 4-6 8-9.1 11.9-3.1 4.7-7.4 8.6-9.8 13.7 21.8 23.2 43.3 46.7 64.9 70.1 1.1-.2 2.4-.3 2.9-1.5 14.2-19.7 20.9-44.7 18.3-68.8-2.3-24.9-14.4-48.5-33-65.2-.7-1-1.8-1.6-3.1-1.8m-83.6 96.2c-2 1.1-3.9 2.3-5.8 3.5-3.6 2.5-7.3 4.6-11 6.9-.7.5-1.5 1.1-2.2 1.6-1.7.9-3.4 2-5 3.1l-3.9 2.4c-1 .7-1.9 1.3-2.9 1.9-3.8 2.2-7.3 4.7-11.1 6.9-.7.5-1.5 1.1-2.2 1.6-5.9 3.4-11.4 7.4-17.3 10.7-.2.5-.7 1.4-.9 1.9 15 20.3 37.6 34.9 62.5 39.5 22.8 4.3 47.2.7 67.6-10.7.9-1.2.7-2.3-.4-3.2-21-22.9-42.3-45.5-63.2-68.4-1.6.2-3 1.2-4.2 2.3zM537.1 136c-.1.1-.1.2-.2.3-.3.6-1.2.1-.9-.5.1-.3.3-.5.4-.8-6.8 8.3-18 11.4-28.3 12-12.5 1.1-26-1.4-35.5-10-11.9-10.5-16.4-27-16.5-42.4-.5-14.6 3.7-29.7 13.2-40.9 8.3-10.4 21.5-16.7 34.8-16.2 10.2-.4 20.8 1.5 29.5 7.2-2.4 5.1-4.9 10.1-7.4 15.1-5.8-4.9-13.7-6.4-21.1-6.2-7 0-14 3-18.8 8.2-7.7 8.2-11 19.7-11.2 30.8-.1 10 2.1 20.5 8.4 28.5 4.8 6.2 12.7 10 20.6 9.5 8 .5 16.7-2.3 22-8.4h-.1c-.4.1-.7-.3-.6-.6 0-.2.1-.4.3-.5.4-.2.9-.2 1.4-.3.1 0 .1 0 .2-.1.3-.4.5-.8.8-1.1-3.8 0-6.1 3.1-8.6 5.4-6.7 3.2-14.2 3.9-21.5 2.6-7.4-1.8-13.2-7.6-16.6-14.3-5-12.6-5-27 .2-39.5 3-6.8 7.8-13.3 15-16 8.1-2.9 17.6-2.3 25.1 2l.9.4v.8c1.7 0 3.4.1 5.2.1l-.2-1.2c.5 0 1.5.1 2.1.2 0-.5-.1-1.5-.2-2h1.3c-.1-.5-.3-1.4-.3-1.9l1.3-.1c-.1-.5-.2-1.5-.3-2h1.3c-.1-.5-.3-1.5-.4-1.9l1.3-.1c-.1-.5-.3-1.5-.3-2h1.2c.3-2.7.3-5.4.1-8l-1.1.2c-.4-.4-1.2-1.1-1.6-1.4l-.6-.9c-.4 0-1.2.1-1.5.2l-.2-1.3c-.5.1-1.4.3-1.9.4v-1c-1.2 0-2.3-.3-3.3-.9-1.2-.1-2.2-.4-3.1-1-1.7-.2-3.5-.2-5-1-7.1-.5-14.2-.5-21.3 0-1.2.7-2.7.8-4 1-.9.5-1.9.9-3 1-1 .5-2.2.9-3.3.9v1c-.5-.1-1.4-.3-1.9-.3l-.2 1.3c-.5-.1-1.4-.2-1.8-.3v1.3c-.5 0-1.5-.1-1.9-.2l.1 1.3-1.2-.5.1 1.3c-.5 0-1.4-.1-1.9-.1l.1 1.3-1.1-.4-.1 1.2-1.2-.1.2.7c-2.2 1.2-4 3.1-5.3 5.2l-.7-.1.1 1.1h-1.2l.4 1.1-1.4-.1.2 1.6c-.3.1-.9.2-1.3.3l.3 1.2-1-.1c-.4 1-.8 2.1-1.3 3.1l-1-.1c.1.5.2 1.4.3 1.9l-1.1.1c-.3.6-.8 1.7-1 2.3l-1.2 2c.1.4.2 1.2.3 1.6h-1c.1 1.3-.3 2.5-1.1 3.4 0 .7-.1 2-.2 2.7h-.8c-.1 1.3-.1 2.6-.2 3.9h-.8c-.1 2.1 0 4.3-.9 6.3-.4 5.1-.2 10.2-.2 15.2-.2 3.9 1.4 7.6 1.1 11.6h.8l.3 3.6c1.1 1.8 1.3 4 2.1 6 .7 1 1.1 2.1 1 3.3h1c-.1.5-.3 1.5-.3 2h1.3c-.1.5-.2 1.5-.3 2l1.3-.1-.4 1.3h1.3c0 .5-.2 1.4-.2 1.9h1c.5 1.5 1.9 2.5 2.4 4.1l.8-.2v1.2l1.1.1-.3 1 1.3-.2-.2 1.2 1.2-.1-.1 1.2 1-.3.2 1.1h1.1l-.2.8c1.3.1 2.1.8 2.5 2.1h1.6l-.1 1.2c.5 0 1.4-.1 1.9-.1v1h1.1l.4.8c1.5.5 3.1 1 4.6 1.4v.8c.8 0 2.3.1 3 .1v1c.8 0 2.3-.1 3-.1v.9c2.6.1 5.2.3 7.8.4l.2.7h11l.1-.7c2.7 0 5.3-.2 8-.3l-.1-.8c1.4 0 2.7-.1 4.1-.1l-.1-.9c.8 0 2.3-.1 3.1-.1l-.1-.8c1.4.1 2.5-.3 3.3-1.3.4.1 1.3.2 1.7.2V144c.5.1 1.5.3 2 .3l-.1-1.4 1.3.5-.1-1.3c.5.1 1.5.2 1.9.3l-.2-1.3 1.2.4.1-1.2 1.2.1-.2-.8 1.2-.4c.1-1.3.1-2.3-.4-3.2zM358.6 37.1c3.6-.3 7.3-.3 10.9 0 .2 1.3 1 2 2.3 2.2-.1.4-.3 1.3-.3 1.7h1.2c0 .8 0 2.3.1 3.1l1-.1v3.1l1-.1v3.1l1-.1v3.1l1-.1v3.1h.9l.3 3.9h.7c.3 2.2 1 4.3 1.9 6.4.1 1.2.4 2.2 1.2 3 .1.7.1 2 .2 2.6l.9-.1V75l1-.1V78l.9-.1V81l1-.1V84l.8-.1c.1 3.5 2.2 6.4 2.5 9.9h.8c0 .8.1 2.3.1 3h.9c0 .8.1 2.3.1 3.1l1.2-.2-.3 1.7c.9-.6 1.3-1.4 1.1-2.6l.9.1v-3.1l.9.1c0-.8 0-2.3.1-3.1h.9c.1-.7.2-2 .2-2.7.7-.9 1-1.9 1.1-3 .8-1.3.8-2.8.9-4.3l.9.1v-3.1l.9.1c0-.8 0-2.3.1-3.1h.9v-3h.9c.1-.7.2-2 .2-2.6 1.1-1.2.8-2.9 1.1-4.3l.9.1v-3.1l.9.1v-3.1h.9v-3h.9c.1-.7.2-2 .3-2.7 1.1-1.2.8-2.8 1.1-4.3l.9.1v-3.1l.9.1v-3.1h.9c0-.8.1-2.3.1-3.1h1.1c-.1-.5-.3-1.4-.3-1.9l1.3-.2v-1.9c.5 0 1.4.1 1.9.2l-.1-1.1c3.4-.2 6.8-.1 10.2 0l-.2 1.2 1.3-.5-.2 1.3h1.4c-.1.5-.3 1.3-.4 1.8l1 .1c.1 1.5 0 3.1.9 4.4.1 1.2.2 2.5.2 3.7h.8c.1 1.8-.1 3.8.9 5.4.3 1.7.1 3.5 1.1 5 .1 1.2.1 2.4.2 3.7h.8c.1 2.1 0 4.3.9 6.3.2 1.7.4 3.4 1 5 .2 1.7.2 3.4 1 5 .3 1.7.2 3.5 1 5 .2 1.7.3 3.4.9 5 .5 2.9 1.4 5.8 1.5 8.7h.7l.3 4.5c1.3 1.7.4 4.1 1.6 5.9.1 1.2.1 2.4.2 3.6h.8c.1 4.9 1.8 9.7 2.5 14.5 1.3 3.8 1.1 8 2.6 11.7.4 2.9.4 5.9 0 8.8-.5-.1-1.4-.2-1.9-.3l.1 1.2c-5.7.1-11.5.1-17.2 0v-1.1c-.5 0-1.5.1-2 .2 0-.5 0-1.4.1-1.9l-1.3-.2c.1-.5.3-1.4.4-1.9h-1c-.2-1.8.1-3.8-.9-5.4-.5-3.6-1.1-7.3-2-10.9-.2-1.7-.4-3.5-1-5.1-.3-1.7-.1-3.5-1-5-.2-1.7-.2-3.5-1-5-.2-1.5-.3-3-.4-4.5-.2 0-.6-.1-.8-.2-.1-1.7-.1-3.3-.2-4.9h-.8c-.1-1.4-.3-2.8-.7-4.1-.1.6-.2 1.7-.3 2.3l-1-.2c0 .8-.1 2.3-.1 3l-.9-.1c0 .8-.1 2.3-.1 3l-.8-.1c-.2 1.6-.8 3.2-1.3 4.7-.7 1-1 2.1-.9 3.4l-.8-.1c0 .8-.1 2.3-.1 3l-1-.1c0 .8 0 2.3-.1 3l-1.1.1c.1.4.3 1.2.3 1.6-1.1.8-1.5 1.9-1.3 3.4l-.8-.1c0 .8-.1 2.3-.1 3l-.8-.1c-.3 1.6-.8 3.2-1.3 4.7-.7 1-1.1 2.1-1 3.4l-.8-.1c0 .8-.1 2.3-.1 3h-.8c-.4 1.7-.9 3.3-1.3 5l-1 .1c.1.5.3 1.4.4 1.9l-1.4.1c0 .5.1 1.5.1 2-.5 0-1.5-.2-2-.2l.1 1.2h-7.1l.1-1.2c-.5.1-1.5.1-2 .2 0-.5.1-1.5.1-1.9l-1.3-.1c.1-.5.3-1.4.4-1.9l-1-.1c.1-1.4-.3-2.6-1.3-3.4.1-.4.2-1.2.3-1.6h-1.1c0-.8-.1-2.3-.1-3h-.8c.1-1.3-.2-2.4-.9-3.3-.5-1.5-1-3.1-1.4-4.7h-.8c0-.7-.1-2.2-.1-3h-.8c.2-1.4-.3-2.6-1.3-3.4.1-.4.2-1.2.3-1.6l-1.1-.1c0-.7-.1-2.2-.1-3l-.9.1c0-.8-.1-2.3-.1-3h-.8c-.4-1.7-.9-3.3-1.3-5h-.7c.1-1.3-.2-2.4-1-3.4-.5-1.5-1-3.1-1.4-4.7l-.8.1c-.1-.6-.2-1.8-.2-2.3-1.3-.4-.6 1.5-.9 2.2-1 .9-1.3 2.2-1.1 3.8-1.1 1.4-.8 3.3-1 5-1 1.5-.7 3.3-1 5-1.1 1.6-.7 3.6-.9 5.4l-.7.1c-.1 1.5-.2 3-.4 4.6-1.1 1.6-.8 3.6-.9 5.4l-.7.1c-.1 1.5-.2 3.1-.4 4.6-.9 1.6-.9 3.5-.9 5.4h-.8c-.1 1.3-.1 2.7-.1 4l-1.1.1c.1.5.3 1.4.4 1.9l-1.2-.1c-.5.8-1.3 1.5-2.4 2.1-5.5.1-11.1.2-16.6-.1-.1-1.4-.8-2.1-2.1-2.1 0-1.8-.1-3.6 0-5.5 1.1-1.4.8-3.3 1.1-5 1-1.5.7-3.3 1-5 .9-2 .8-4.2.9-6.3l.8.1c.2-1.5-.3-3.3.8-4.6.2-1.4.4-2.7.5-4.1.8-1.5.7-3.3 1-5 .8-1.6.8-3.3 1-5 .9-1.5.7-3.3 1-5 .9-1.7.8-3.6.9-5.4h.8c.1-1.7.1-3.3.2-5h.8c.1-1.7.1-3.3.2-5h.8c.1-1.8 0-3.8.9-5.5.2-1.5.3-3 .4-4.5h.8c0-1.7.1-3.3.2-5h.8c0-1.7.1-3.3.2-5h.8c.1-1.7.1-3.3.2-5h.8c.1-1.7.1-3.3.2-5h.8c.1-1.7.1-3.4.2-5.1l.8.1c0-1.3.1-2.5.2-3.7 1.1-1.6.8-3.6 1-5.3h1.1l-.4-2 1.4.2-.3-1.4 1.4.5-.5-1.2m.7 2.3c-2.9 12.6-5.1 25.4-7.9 38.1-4.4 22.7-9.3 45.3-13.5 68.1h17.4c4-18.6 7.6-37.3 11.3-56 .2-.3.7-.9.9-1.3 6.8 18.8 13.9 37.4 20.6 56.2.6 3.4 4.7 1.7 7.1 2.2 7.5-19.5 14.4-39.1 21.5-58.7 1.5 2.9 1.6 6.3 2.3 9.4 3.1 16 6.2 32.1 9.3 48.1h17.9c-7.6-35.3-14.2-70.9-22-106.2-3.2 0-6.5 0-9.7.1-6.8 22.8-14.2 45.4-21.2 68.1-.3 1.2-.8 2.3-1.6 3.3-7.3-23.8-15.3-47.4-22.7-71.3-3.3-.1-6.5-.1-9.7-.1zM243.7 37.2c21.2-.6 42.4-.1 63.5-.3 8.4.1 16.9-.3 25.3.3.1 1.3.8 2 2.1 2.2.3 5.6.3 11.2 0 16.8l-1.3-.3.4 1.4c-.5-.1-1.5-.2-2-.3v1.2c-10.1.2-20.3 0-30.5.1-2-.4-1.7 2.1-1.8 3.4.1 27.5 0 55 .1 82.5l-1.2-.1c.1.5.4 1.5.6 2l-1.3-.3.1 1.4-1.4-.3.3 1.1c-6.1.2-12.1.2-18.2 0v-1.1c-.5 0-1.5.1-2 .2 0-.5.1-1.5.2-2h-1.1c-.2-28.7-.1-57.3-.1-86l-1 .1v-1.1c-10 0-20 .1-30-.1v-1.1c-.5.1-1.5.1-2 .2 0-.5.1-1.5.2-2h-1.1c-.1-5.1-.1-10.1 0-15.2h1.1c-.1-.5-.2-1.5-.3-2l1.4.4v-1.1m.5 2.2v16.2h34c.1 30 0 60 0 90h18.4c0-30 .1-60-.1-89.9 11.9-.2 23.8 0 35.7-.1 0-5.4-.1-10.8-.1-16.2h-87.9z"/><path class="st1" d="M537.5 135.1c.2.1.4.3.6.4-1.4-5.9-4.8-11.3-8.7-15.9-.2.3-.5.7-.7 1h.3c.5 0 .6.5.4.8 0 .2-.2.3-.4.3 1.8 3.8 4.2 7.2 6.2 11 .3.8.9 1.4 1.5 1.9 0-.1.1-.1.1-.2.2-.6 1.2-.3 1 .3-.2.1-.2.3-.3.4zM514.6 160.2c6.4-.1 12.8-.1 19.2 0l-.1 1.2c.5-.1 1.6-.2 2.1-.2 0 .5-.2 1.6-.2 2.1l1.2-.2c.3 8.4.2 16.8.1 25.3l-1.1-.1c0 .5.1 1.5.1 2h-2.1l.2 1h-4.3l.1-1.1c-.5 0-1.5.1-2 .1 0-.5.1-1.5.2-2l-1.1.1c-.2-6 0-12-.2-17.9-1.3-.2-2.7-.3-4-.4l.3 1.3h-1.1c.1 5.9.2 11.9-.2 17.8-1.3.1-2 .8-2.2 2.1-1.6.1-3.2.1-4.8.2l.2-1.2-1.4.5.4-1.2h-1.3l.3-1.3-1.1.3c-.1-8 0-16.1 0-24.1h1.1l-.4-2 1.4.3-.4-1.4 1.5.5-.4-1.7m-.1 2.7v25.7h4.7c.1-7.2-.2-14.4.2-21.5 3.3-.1 6.6-.1 9.8.1-.1 7.1 0 14.3 0 21.4h5c0-8.6.1-17.1 0-25.7h-19.7zM281 160.2c3.9-.3 8-.2 11.7 1.2.3 2.3.3 4.6.1 6.8l-1.4-.4.4 1.3c-1.3 0-2.7.1-4 .1l-.1.7c-.4.1-1.3.3-1.7.4-.4 5.9 0 11.9-.2 17.8h-1.1c0 .5.1 1.5.1 2-.5-.1-1.5-.2-2-.3v1.1h-4.2l.2-1.2c-.4.1-1.3.2-1.8.3-.1-1.3-.5-2.4-1.2-3.4-.1-7.2-.1-14.3 0-21.5.4-1 .8-2 .9-3l.9-.2.2-.9c1.1 0 2.2-.3 3.2-.8m-2.5 2.7v25.7h4.8c.1-7.2-.2-14.5.1-21.7h7.9c-.1-1.3-.1-2.7-.1-4h-12.7zM330.7 161.3c1.3-.1 2.4-.4 3.4-1.2 2.9-.1 5.8 0 8.7-.1v.8c1.3.1 2.7.1 4 .2v1.2c.5-.1 1.5-.3 1.9-.4l-.2 1.4 1.4-.4-.4 1.2h1.3l-.1 1.3.9-.3c0 1.3.4 2.4 1.2 3.3.1 1.9 0 3.8 0 5.7l-1.1.1c.1.5.2 1.4.3 1.9l-1.3.1c0 .4.1 1.2.1 1.6-1.3.3-2.1 1-2.4 2.3-.4-.1-1.3-.2-1.7-.3l.1 1.1c-1.5.1-3.1.2-4.6.3-3.3.8-2.3 4.4-2.4 6.9l-1.1-.1c0 .4.1 1.4.1 1.8-.6.3-1.8.8-2.4 1.1h-3.6c-1-.9-2-1.9-3-2.8-.3-8.4-.2-16.9 0-25.3l1.2.2c-.1-.2-.3-1.1-.3-1.6m1.6 1.6c-.2 8.6 0 17.1-.1 25.7h5c-.1-3.2-.1-6.4.2-9.5 2.6 0 5.3.1 7.8-.6 3.1-1.2 5.3-4.5 5.1-7.9.1-3-2.1-5.3-4.4-6.9-4.5-.9-9.1-.8-13.6-.8zM387.5 162.3c2-1.4 4.3-1.7 6.7-1.4h.2c.9 1 2.4 1.7 2.4 3.3h1.1l-.4 2 1.3.1c-.1.5-.2 1.5-.3 2l1.2-.1c.1.6.3 1.9.4 2.5.2-.6.5-1.9.6-2.5l1.1-.1c-.1-.5-.3-1.4-.3-1.9l1.3-.2c-.1-.5-.3-1.4-.3-1.9l1.3-.1c0-.5-.1-1.4-.2-1.9l1.4.3-.4-1.2c2.4-.2 4.8-.3 7.2-.2l-.3 1.3 1.3-.3c0 2-.1 4.1-.1 6.2h-1.1c.1.4.2 1.2.3 1.6-1 .8-1.5 1.9-1.3 3.3h-1c.1.4.2 1.3.3 1.7l-1 .6c0 .4-.1 1.3-.1 1.7l-.8.1c-.5 1.6-1.1 3.2-1.4 4.9h-1c.1.4.2 1.2.3 1.6l-1.6 2-.3.3c-1.1 1.3-1.7 2.9-2.5 4.4-1.9-.4-4-.2-5.8-1 .6-1.3 3.3-.4 4.6-.8 4.1-8.4 7.5-17.1 11.3-25.6-1.7 0-3.3 0-5-.1-2.3 4.7-3.9 9.6-6.5 14.1-2.1-4.7-4.2-9.4-6.5-14.1-1.6 0-3.3.1-4.9.1 3 6.6 6.3 13.1 9.1 19.8-.5 1.5-1 3-1.4 4.6-.5.2-1.4.6-1.9.8-.2-2.5.5-5.1-.3-7.6-2.5-6-7.1-11.5-6.7-18.3zM452.8 161.3l-.1-1.2c6-.1 12.1 0 18.1 0l-.1 1c.7 0 2.1.1 2.8.1.1 1.3.2 2.5.3 3.8h.8c-.6 8.2 1.1 16.7-1.3 24.8-1.1.1-2.1.5-3 1.2-.7 0-2.1.1-2.8.1l-.1-1.2-2 .4.5-1.4-1.3.2c-.4-6-.3-11.9-.2-17.9l-.9-.1.2-1.2c-1 0-3 .1-4.1.1-.2 5.7-.1 11.4-.1 17.1h-1.2c.1.5.4 1.5.6 2l-1.5-.2.3 1.4c-.5-.1-1.5-.2-2-.2l-.1 1h-3.1V190c-.4.1-1.3.1-1.7.2-.3-.6-.9-1.8-1.3-2.4-.4-8.3-.2-16.5-.1-24.8l1.1.1c0-.5-.1-1.5-.1-2.1.8.1 1.8.2 2.4.3m-.6 1.6c-.3 8.6-.1 17.2-.1 25.7h4.6c0-7.1-.1-14.3 0-21.4 3.3.2 7.3-.9 10.2.5.1 7 0 14 .1 20.9 1.6-.1 3.1-.1 4.7-.1-.1-8.5 0-17 0-25.6-6.5-.1-13 .1-19.5 0z"/><path class="st1" d="M337.3 166.8c3.2-.2 9 .2 7.9 4.9 0 4-5.3 3.3-8 3.4 0-2.8 0-5.5.1-8.3z"/></g></svg>