<svg id="Слой_1" xmlns="http://www.w3.org/2000/svg" viewBox="0 0 565.6 176.7"><style>.st0{fill:#686868}.st1{fill:#888}</style><g id="_x23_68757dff"><path class="st0" d="M244.1 2.6C249.6-.1 256-.2 262 .3c4.7.4 9.5 2.2 12.6 5.8 3.3 3.6 4.1 8.8 4 13.5v34c-4.1.1-8.1-.2-12.2-.1 0-2.5 0-4.9-.1-7.4-2.6 1.4-3.8 4.2-6.2 5.7-5.5 4.1-13.6 3.5-19.1-.3-8.8-5.9-9.1-21.2.2-26.7 7.2-4.9 16.2-3.8 24.4-4.6 0-3.4-1.1-7.3-4.4-8.9-5.3-3-12.6-.3-14.4 5.6-3.8-.9-7.6-1.8-11.5-2.4.4-5.1 4.1-9.8 8.8-11.9m7.2 28.4c-5.1 2.2-4.6 11 .7 12.7 4.6 1.8 9.5-.5 13.4-3 .2-3.8.1-7.6.1-11.3-4.7.2-9.7-.3-14.2 1.6zM381.4 14.7c.5-7.6 7.5-13.1 14.7-14.1 7.1-1.1 15-1.1 21.4 2.7 4.8 2.9 7.2 8.7 7.1 14.2v35.9c-4.1 0-8.2.4-12.3 0 .1-2.5.1-4.9-.2-7.4-2.1 1.4-3.3 3.8-5.4 5.3-7.6 6.3-20.6 3.2-24.7-5.8-3.1-6.8-1.9-16.1 4.7-20.3 7.3-5.3 16.6-4.2 25.1-4.9 0-3.6-1.3-7.8-5-9.2-5.2-2.5-12.1.1-13.7 5.8-4-.5-7.8-1.6-11.7-2.2m16 16.3c-5.1 2.2-4.7 11 .7 12.6 4.7 1.7 9.6-.5 13.5-3 .1-3.8.1-7.5.1-11.3-4.9.4-9.9-.3-14.3 1.7zM443.1 1.6c6.8-2.2 14.3-2 21.1-.1 6 1.7 10.7 6.8 11.6 13-3.9 1-7.8 1.9-11.8 2.5-1.9-6.9-11.8-8.9-16.5-3.8-2.9 3.1-1.9 7.6-2.1 11.5.2 4.7-.5 9.4.5 14 1.7 5.9 9.5 7.3 14.3 4.3 2-1.1 2.8-3.3 3.9-5.2 3.9.7 7.8 1.5 11.7 2.4-.9 7.9-8.3 13.3-15.8 14-6.9.5-14.5 1-20.6-2.9-4.9-3.1-7.1-9.1-7-14.7.1-7-.1-13.9.1-20.9.3-6.2 4.5-12.2 10.6-14.1zM184.7 1.4h44.6v10.9c-5.3.1-10.6 0-15.8 0-.3 13.7-.1 27.5-.1 41.2-4.4.1-8.8 0-13.2.1.1-10.3-.2-20.6.2-30.9.2-4.4 2.9-8.1 6.7-10.2-7.5-.5-14.9.1-22.4-.3.1-3.6 0-7.2 0-10.8zM288.6 1.4c12.5-.1 25 .1 37.6-.1.1 3.6 0 7.2.1 10.8-8.2.5-16.4 0-24.5.2.1 13.7 0 27.4 0 41.1-4.4.1-8.8.1-13.2.1.1-17.3 0-34.7 0-52.1zM333.8 1.4c8.8.3 17.6-.5 26.3.5 5.5.8 11.6 3 14.5 8.2 4 7.3 2.2 17.6-4.7 22.5-6.6 4.7-15.1 4.9-22.8 4.4 0 5.5-.1 11 0 16.5-4.5.2-8.9.1-13.4.1.2-17.4.1-34.8.1-52.2m13.4 10c-.1 5.2-.2 10.3 0 15.5 4.4.1 9.2.5 13.1-1.9 4.3-2.7 4.7-10.6-.5-12.4-4-1.4-8.4-1.2-12.6-1.2zM197.4 89.2c0-1.3.1-2.5.2-3.8 34.7.3 69.4.1 104.1.1v3.7H197.4z"/></g><g id="_x23_029ba5ff"><path class="st1" d="M206.9 128.5c4.3-4 11.6-3.6 15.6.7 4.4 4.7 5.9 11.3 6.6 17.5.5 8.3-.4 17.1-4.8 24.4-2.8 4.7-9.1 7.1-14.2 4.7-5.6-2.4-8-8.8-8.9-14.3-.5-2 2.4-1.8 3.4-2.8 1.1 3.7 1.6 8 4.4 10.9 3 3 8.7 2.9 11.2-.7 3.5-4.6 4.3-10.6 4.5-16.2h-11.9v-5c4 0 8 .1 12-.1-.7-5.1-1.2-10.8-5.1-14.6-2.7-3-7.9-3.3-10.8-.4-2.1 2.1-3 5.1-3.7 7.9l-3.9-1.5c1.1-3.9 2.5-7.9 5.6-10.5zM363.2 125.8c4.9-.9 9.8 2.2 12.4 6.3 4.3 6.6 5 14.8 4.6 22.5-.5 6.3-2.1 13-6.4 17.8-3 3.4-8 5.3-12.4 3.6-3.7-1.1-6.5-4.2-8.1-7.6-4.3-7.9-4.3-17.4-3-26 1.1-7 5.1-15.1 12.9-16.6m-1.8 5.5c-6.7 3.8-7.4 12.5-7.7 19.4 0 6.5.6 13.8 5.5 18.7 2.9 3.2 8.4 3.1 11.4-.1 4.5-4.6 5.3-11.5 5.3-17.7s-.5-13.2-4.8-18.1c-2.3-2.7-6.4-3.7-9.7-2.2zM388.7 132.3c2.8-4.8 9.1-8.2 14.5-5.8 5.5 2 7.8 8 9 13.2-1.3.6-2.7 1.2-4.1 1.7-.8-3.7-2-7.9-5.4-10-3.7-1.8-8.4-.2-10.5 3.3-3.8 6.2-3.8 13.9-3.5 21 .6 4.8 1.2 10.1 4.8 13.6 2.4 2.9 7.3 3.3 10.1.8 3.4-2.7 4.4-7.2 5-11.3 1.4.6 2.8 1.3 4.1 1.9-1.1 5.4-2.9 11.5-8 14.4-4.8 2.9-11.7 1.4-14.9-3.2-3.2-4.4-4.6-9.9-5.1-15.3-.6-8.2-.6-17.1 4-24.3zM547.3 126.9c4.3-2.4 9.9-1.2 13.1 2.4 2.7 2.8 3.8 6.7 4.7 10.3-1.3.6-2.6 1.2-4 1.9-1-3.8-2.1-8-5.6-10.2-3.7-1.8-8.4-.1-10.5 3.3-3.8 6.2-3.8 13.9-3.5 21 .6 4.8 1.2 10.1 4.8 13.7 2.4 2.9 7.2 3.3 10.1.9 3.4-2.7 4.5-7.2 5-11.3 1.4.6 2.7 1.2 4.1 1.9-1 5.7-3.1 12.3-8.8 14.9-5 2.6-11.7.6-14.6-4.2-5.3-8.1-5.3-18.3-4.6-27.6 1.2-6.6 3.8-13.8 9.8-17zM234.6 126.7h4v21h17v-21h4.1v48.9h-4.1v-23h-17v23c-1.3 0-2.7 0-4 .1v-49zM266.6 126.7h23.1v4.9h-19.2v17c6 0 12-.1 18 0v4.9c-6 .1-12 0-18 .1v17h19.9v5h-23.8v-48.9zM296.6 126.7c5.5.2 11.1-.5 16.5.5 5.8 1 7.8 7.5 7.9 12.6 0 4.7-.9 10.3-5.1 13.1-4.6 2.9-10.2 1.5-15.3 1.8v21h-4.1c.1-16.4.1-32.7.1-49m4.2 5v18c3.9-.2 7.9.5 11.8-.5 4.2-1.6 4.5-6.8 4.1-10.6-.3-2.7-1.4-6.3-4.5-6.7-3.8-.5-7.6-.1-11.4-.2zM326.6 126.7H346v4.9h-15.4v44h-4.1c.1-16.2.1-32.6.1-48.9zM417.6 126.7h23.1v5h-19.2v17c6 0 12-.1 18 .1v4.9h-18v17h19.9v5h-23.8v-49zM447.6 126.7c5.5.3 11.1-.5 16.6.5 5.7 1 7.8 7.5 7.9 12.5 0 4.7-.9 10.3-5 13.1-4.6 2.9-10.2 1.5-15.3 1.9v21h-4.1c-.1-16.4-.1-32.7-.1-49m4.2 5v18c3.9-.2 8 .5 11.8-.5 4.2-1.6 4.4-6.8 4.1-10.6-.3-2.7-1.4-6.3-4.5-6.8-3.8-.4-7.6 0-11.4-.1zM477.6 126.7c5.9.6 12.4-1.4 17.8 1.6 6.3 5.3 6.2 16.1.5 21.8 4.3 2.6 6.1 7.7 5.7 12.5 0 5.2-2.4 11.5-8.1 12.6-5.2.9-10.6.2-15.8.4-.1-16.3-.1-32.6-.1-48.9m4 5v16c4.6-.6 11.4 2 13.8-3.5.8-4 1.4-9.8-2.8-12.1-3.6-.8-7.3-.3-11-.4m0 21v18c4-.2 8.1.6 12-.5 4.6-2.8 4.5-9.5 2.7-14-2.8-5.5-9.8-3-14.7-3.5zM506.6 126.7h3.7c.1 12.9-.1 25.8.1 38.7 5.8-12.8 11.5-25.6 17-38.5 1.5-.1 3-.2 4.6-.2v49h-4.1c-.1-12.8.2-25.6-.1-38.4-5.6 12.8-11.4 25.6-17 38.4h-4.2c.1-16.4 0-32.7 0-49z"/></g><g id="_x23_009aa3ff"><path class="st1" d="M74.3 4.6c1.9-1.6 4.6-1.2 6.6 0L146 42.1c4.8 3.1 8 8.5 8.5 14.1.1 6.2 0 12.5 0 18.7l-29.1-16.8v29.8c-8-4.6-15.9-9.2-23.8-13.8-.1-9.9 0-19.9 0-29.8-9.6-5.6-19.2-11.1-28.9-16.6.1-5.8 0-11.5 0-17.3 0-1-.3-2 0-3.1.2-1 .8-1.9 1.6-2.7zM59.7 41c4.2-2.5 8.5-4.9 12.7-7.3v45.8c-.4 7.1 3.7 14.4 10 17.6 9.5 5.5 18.9 10.9 28.4 16.4-11.2 6.5-22.5 13-33.7 19.5-9.4-5.4-18.9-10.9-28.3-16.3-5.6-2.8-9.4-8.8-10-15-.1-6.3 0-12.6 0-18.9l12.9-7.5c.1-6.9 0-13.8.1-20.6.5-5.4 3.5-10.6 7.9-13.7z"/><path class="st1" d="M12.2 68.4c1.8-1 4.1-1.6 6-.5 1.8 1.1 2.4 3.3 2.5 5.2v20.1l12.9-7.5v16.2c-.4 6.4 2.9 12.9 8.2 16.5l30 17.4v.2c-11.1 6.4-22.3 12.8-33.4 19.3-9.5-5.5-19-10.9-28.4-16.4C4.4 136 .6 130 0 123.8V75.4c4.1-2.3 8.2-4.7 12.2-7zM82.4 136c11.2-6.5 22.5-13 33.7-19.5l.3.2c9.9 5.6 19.7 11.4 29.6 17 1.6.9 3.6 1.5 5.5.9-6.2 3.7-12.4 7.2-18.6 10.8-5.7 3.3-11.4 6.6-17.1 9.8-11.2-6.5-22.4-12.8-33.4-19.2zM43.6 158.3c11.2-6.5 22.4-12.9 33.6-19.3l33.3 19.2c-10 5.9-20.1 11.6-30.2 17.5-2 1.6-4.8 1.2-6.9-.1-9.9-5.8-19.9-11.6-29.8-17.3z"/></g><g id="_x23_e4002fff"><path class="st0" d="M73.3 5.1c.3-.2.6-.3.9-.5-.8.8-1.3 1.7-1.6 2.8-.3.9-.2 1.8-.2 2.7v17.7c-.5.2-1.1.5-1.5.8L46.6 42.7v29.8c-6.9 3.9-13.8 7.9-20.7 11.9V54.6c-8.6 5-17.2 9.9-25.8 14.9-.2-.6-.1-1.3-.1-1.8V51.5c0-1.6.4-3.3 1.4-4.6.6-.8 1.6-1.2 2.4-1.7C27 31.8 50.1 18.4 73.3 5.1zM72.4 33.6c4.6 2.6 9.2 5.3 13.8 8 5.6 2.8 9.4 8.8 10 15 .1 6.9 0 13.7 0 20.6 4.8 2.8 9.7 5.6 14.5 8.3.1 9.3 0 18.6.1 28-9.5-5.5-18.9-10.9-28.4-16.4-6.4-3.3-10.4-10.5-10-17.6.1-15.3.1-30.6 0-45.9zM133.1 71.6c1.9-1.1 4.3-.5 6.1.5 5.1 2.9 10.2 5.9 15.3 8.8v47.9c0 2.2-.9 4.8-3.1 5.6-1.8.7-3.8.1-5.5-.9-9.9-5.7-19.7-11.4-29.6-17-.1-.1-.2-.3-.3-.4V88.4c4.9 2.8 9.7 5.6 14.6 8.4V76.7c0-1.8.7-4 2.5-5.1z"/></g></svg>