<svg id="Слой_1" xmlns="http://www.w3.org/2000/svg" viewBox="0 0 1574 678"><style>.st0{fill:#888}.st1{fill:#686868}</style><g id="_x23_e31e24ff"><path class="st0" d="M194.6 1.8C252.7-5.1 313.5 13.7 357 53c5 4.7 5 13.4 0 18-43.1 43.2-86.3 86.4-129.5 129.5-4.7 5-13.4 5-18 0C166.3 157.4 123.2 114.2 80 71c-5.2-4.8-5-14 .5-18.5 31.6-28.1 72.1-46 114.1-50.7zM1425.5 23.8c51.9-4.7 105.4 12.8 144.3 47.4 4.9 4.6 4.9 13.1.1 17.8l-54 54c-2.8 3-7.1 4.5-11.2 3.8-4-.5-6.9-3.5-10-5.6-15.9-11.1-35.3-17-54.7-16.5-19 .4-37.8 6.8-53 18.2-14.5 10.8-25.8 26-31.8 43.1-7.1 19.8-7 42.1.1 61.8 6.5 18.2 18.8 34.2 34.8 45 15.2 10.5 33.6 16.1 52 16.1 19.6.1 39.2-6.3 54.9-18.1 3.1-2.6 6.9-4.7 11.1-4.1 3.9.3 7 2.8 9.6 5.5 16.2 16.2 32.3 32.4 48.5 48.6 2.5 2.5 5.4 4.9 6.7 8.3 1.8 4.8.4 10.7-3.6 14-22.9 20-50.6 34.5-80.2 41.8-39.9 9.9-82.9 6.9-120.9-8.9-33.2-13.7-62.3-36.8-83.3-66-20.3-28-32.8-61.6-35.7-96.1-3.3-36.4 4-73.7 20.8-106.1 17.2-33.4 44.4-61.5 77.1-79.9 24-13.5 50.9-21.8 78.4-24.1zM498.4 43c.1-6.6 6-12.4 12.6-12.2h299c6.7-.3 12.9 5.4 13 12.1.1 22 .1 44.1 0 66.1.1 6.8-6.2 12.8-13 12.5h-96.6V386c-.1 3.9.5 8.2-1.6 11.7-2.3 4.2-7.1 6.8-11.9 6.5h-81.1c-4.7.2-9.5-2.3-11.7-6.5-2.1-3.5-1.5-7.8-1.6-11.7V121.5h-94.6c-6.6.1-12.7-5.7-12.6-12.4 0-22 0-44.1.1-66.1zM885.2 43c0-6.7 6.2-12.4 12.8-12.2h298.9c6.7-.3 12.8 5.5 12.9 12.1.1 22 .1 44.1 0 66.1.1 6.7-6 12.7-12.8 12.4h-96.7v269.5c.2 4.8-2.4 9.5-6.6 11.7-2.9 1.8-6.5 1.6-9.8 1.6-26.3-.1-52.6 0-78.9 0-7 .2-13-6.3-12.6-13.2V121.5H898c-6.7.2-12.9-5.6-12.9-12.4.1-22 .1-44.1.1-66.1zM383.5 90.6c4.6-1.7 10.1 0 12.9 3.9 17.8 24.3 30.1 52.5 35.8 82 6.7 34.6 4.7 70.9-6.2 104.4-6.7 20.6-16.6 40.1-29.4 57.7-2.7 4-8 5.9-12.6 4.5-5.2-1.4-8.8-6.8-8.2-12.2.2-2.9 1.9-5.3 3.5-7.5 21-29.5 33-65.3 34-101.5 1.2-39.5-10.8-79.3-33.8-111.6-1.6-2.3-3.4-4.6-3.6-7.4-.8-5.1 2.5-10.6 7.6-12.3z"/></g><g id="_x23_393185ff"><path class="st1" d="M46.3 90.5c5.1-1.7 11.1.8 13.6 5.6 2.2 3.9 1.6 9-1.2 12.5-21.5 29.6-34 65.8-35 102.4-1.4 40.3 11.1 80.9 34.7 113.5 2.5 3.2 3.6 7.6 2.1 11.4-1.9 5.7-8.8 9.1-14.5 7-4.6-1.4-6.8-6-9.4-9.6C14.9 301.6 2.4 263.5 1.1 225c-2-46.5 12.2-93.7 40-131 1.4-1.7 3.2-2.9 5.2-3.5zM214.5 231.7c4.9-1.6 10.6 0 14 3.8 42.6 42.7 85.3 85.3 127.9 128 5.2 4.9 5.3 14.1.1 19.1-36.9 32.9-86.1 51.6-135.5 52.1-48.3.7-96.7-16-134.1-46.5-3.4-3-7.7-5.5-9.4-9.9-2-4.9-.8-11 3-14.7 41.6-41.7 83.3-83.3 124.9-125 2.7-2.8 5.4-5.8 9.1-6.9zM934.5 502.8c20.9-4.1 43.6 2.1 59.4 16.5 1.8 1.4 1.5 4.1-.1 5.4-5.5 5.5-10.9 11-16.5 16.4-1.4 1.5-3.7 1-5-.3-7.3-6-16.8-9.3-26.3-8.8-12 .4-23.5 6.8-30.2 16.7-6.7 9.5-8.7 22.1-5.3 33.2 4 13.9 16.3 24.9 30.6 27.2 11.1 2 22.9-1.3 31.5-8.5 2.1-2.2 4.8-.5 6.3 1.4 5 5.1 10.1 10 15 15.1 1.7 1.4 1.5 4.2-.2 5.4-10.9 9.8-25 15.9-39.5 17.2-14.2 1.4-28.7-1.8-41.1-8.9-14.5-8.3-25.8-22-31.1-37.9-5.8-16.9-4.7-35.9 3.1-52 9.1-19.5 28.1-34.2 49.4-38.1zM.9 505.1c.8-1.5 2.6-1.6 4.1-1.6h97.1c2.1-.3 4.4 1.2 4.2 3.5.1 6 .1 12 0 18 .2 2.3-2.1 3.7-4.2 3.4-11.5.1-22.9 0-34.4 0V634c.3 2-1.4 4.1-3.5 3.9-7.4.1-14.7.1-22.1 0-2.3.3-4.3-1.7-3.9-3.9-.1-35.2 0-70.4-.1-105.6h-33c-1.8.1-3.9-.4-4.4-2.4-.5-5-.1-10-.2-15.1-.1-1.9-.5-4 .4-5.8zM551.3 506.9c-.2-2.5 2.4-3.8 4.6-3.5H653c2.1-.3 4.3 1.3 4.1 3.5.1 6 .1 12 0 18 .2 2.2-2.1 3.8-4.1 3.4-11.5.1-23 0-34.5 0v105.6c.2 2-1.3 4-3.4 3.9-7.4.1-14.7.1-22.1 0-2.3.3-4.3-1.6-4-4-.2-35.2.2-70.5-.2-105.7-11.3.2-22.6.1-33.8.1-2 .2-3.8-1.5-3.6-3.4-.2-5.9-.2-11.9-.1-17.9zM125.1 539.3c12-3.4 24.5-4.5 36.9-4.3 12.9.3 26.4 5 34.7 15.4 9 11.3 10.8 26.5 10.5 40.5-.5 15.7-6.1 32.6-19.7 41.6-13.8 9.5-31.7 8-47.4 5 .2 11.8.1 23.7.1 35.5.4 2.4-1.8 4.6-4.2 4.4-6.7 0-13.3.1-20-.1-2.3 0-4-2.1-3.7-4.3V556c0-3.6-.3-7.6 1.9-10.6 2.4-3.7 7-4.8 10.9-6.1m15.1 21.8v52.5c9.5 2.1 20.9 4.3 29.3-2.2 7.7-5.9 8.5-16.5 8.5-25.4-.1-8.8-1.7-19.4-10-24.2-8.6-4.4-18.8-2.8-27.8-.7zM234.5 540.6c9.4-3.9 19.6-5.2 29.6-5.9 10.3-.6 21-.5 30.7 3.5 6.3 2.6 11.6 7.5 14.4 13.8 3.1 6.5 3.6 13.9 3.5 21.1v51c.1 4.3-2.7 8.5-6.7 10.1-7.9 3.2-16.4 4.5-24.8 5.3-13.3 1-27.2 1.4-39.8-3.7-7.3-2.8-13.8-8.4-16.2-16-3.4-10.8-2.3-23.7 4.9-32.8 5.5-7.1 14.2-11.1 22.9-12.5 10.6-1.6 21.4-.7 32.1-.8 0-4.1.4-8.7-2.4-12.1-3.1-3.5-8-4.5-12.5-4.6-10.1-.2-20.2 1.5-30 3.8-4.8 0-4-6.2-5.2-9.4-.4-3.6-3.6-8-.5-10.8m31.2 51.8c-4.6.2-9.5 2.1-11.9 6.3-3.2 5.8-2.2 15.3 4.9 17.7 8.4 2.9 17.7 1.6 26-.7.1-7.8 0-15.6 0-23.4-6.3 0-12.7-.2-19 .1zM500.2 535.3c15.3-2.6 31.7 1.9 43.4 12.2 1.9 1.5 1.4 4.3-.4 5.6-4.9 4.8-9.6 9.8-14.6 14.4-2.2 1.9-4.6-.5-6.5-1.6-9.4-6.1-22.8-4.5-30.6 3.5-5.7 5.5-8.5 13.8-7.2 21.7 1.1 7.8 6.2 14.8 13.1 18.5 7.9 4.3 18.3 3.8 25.7-1.4 1.6-1.1 3.9-2.8 5.7-1 5 4.7 9.8 9.7 14.7 14.5 1.8 1.4 1.9 4.3 0 5.6-10.7 9.4-25.3 14-39.5 12.5-13.8-1.3-26.9-8.3-35.6-19-8.3-9.9-12.6-23-12-35.9.5-12.2 5.4-24 13.6-33 7.8-8.7 18.6-14.7 30.2-16.6zM673.6 547.6c8.3-8.8 20.5-12.9 32.4-13 11.1-.2 22.9 1.6 31.9 8.5 8.6 6.5 13.1 17.3 14 27.8.4 5.9.9 12.1-1.4 17.7-2.1 4.8-7.7 6.8-12.6 6.7-16.4 0-32.8.1-49.3-.1-.2 7.9 3.6 16.6 11.5 19.4 10.8 3.6 22.5 1.4 32.8-2.7 1.7-.8 4.2-1.3 5.3.6 2.2 4 3.7 8.3 5.7 12.4.9 1.8 1.9 4.4-.2 5.8-5.4 3.9-11.9 6.1-18.4 7.5-12.2 2.5-25 2.5-37-.9-8.9-2.6-17-8.2-21.6-16.4-6-10.5-7.3-23.1-7.1-35 .3-13.7 4.2-28.2 14-38.3m28.1 11.1c-7.7 2.8-11.8 11-12.5 18.8h36.1c-.3-5.3-.8-11.1-4.6-15.1-4.7-5.1-12.7-5.7-19-3.7zM1019.1 553c7.1-10.6 19.3-17.1 32-18.1 12.2-1 25.4.3 35.7 7.4 8.9 6.2 13.8 16.8 15 27.3.6 6.1 1.1 12.5-1 18.3-1.7 4.9-7 7.3-11.8 7.3-16.8.2-33.6-.1-50.4.1.2 7.6 3.5 16.1 11.1 19.1 10.9 3.9 23 1.6 33.4-2.5 1.7-.8 4.2-1.2 5.3.7 2.2 4 3.7 8.3 5.7 12.4.9 1.8 1.8 4.4-.1 5.8-8.9 6.3-20.1 8.3-30.8 9.1-13.3.6-27.7-1.1-38.4-9.6-9.1-7.3-13.1-19-14.4-30.2-1.9-16-.7-33.4 8.7-47.1m32.8 5.6c-7.9 2.6-12.1 11-12.8 18.8h36.1c-.3-5.2-.8-11-4.5-15.1-4.7-5-12.5-5.6-18.8-3.7zM1151.9 536.3c10-1.3 20.2-2 30.3-.5 10.7 1.6 21.1 6.8 27.6 15.6 5 6.6 7.6 14.6 8.8 22.7 1.8 11.9 1.4 24.4-2.4 35.9-3.2 10-9.8 19.1-19.1 24.2-13.5 7.6-29.9 6.1-44.5 3.2-.1 12.2.1 24.3-.1 36.5.1 2.2-2.3 3.6-4.3 3.4h-19c-2.5.3-4.9-1.8-4.5-4.3V551.9c-.2-4.5 2.6-8.9 6.8-10.5 6.4-2.7 13.4-4.2 20.4-5.1m.5 24.8c.1 17.5 0 35 0 52.5 6 1.6 12.3 2.4 18.5 2 7.4-.5 14.5-5.5 17-12.6 2.8-8 2.8-16.8 1.8-25.1-.9-6.7-4.2-13.9-10.8-16.8-8.5-3.4-17.9-2.1-26.5 0zM1523.6 535.7c16-3.5 33.5 1 45.7 12 1.7 1.3 1.3 4-.3 5.2-4.8 4.8-9.6 9.7-14.5 14.4-1.8 2-4.3.4-6-.8-8.4-5.8-20.3-5.6-28.5.4-10.6 7.2-13.8 23-6.7 33.8 6.7 11.2 22.6 15.3 33.7 8.4 2.2-1.2 5.1-4.2 7.5-1.7 4.9 4.8 9.8 9.7 14.6 14.6 1.6 1.3 1.6 3.9 0 5.2-12.8 11.4-31.5 15.7-48 11.2-15.3-4-28.4-15.2-34.7-29.6-7.1-15.6-5.8-34.6 3.3-49.1 7.4-12.2 19.9-21.1 33.9-24zM342.3 540.9c-.2-2.1 1.5-4 3.6-3.8 7-.1 14-.2 21 0 2 0 3.3 1.9 3.1 3.8.1 10.9 0 21.8 0 32.6h35.9c.1-10.9 0-21.8.1-32.7-.2-2.1 1.6-4 3.8-3.8 6.7-.1 13.4-.1 20.1 0 2.2-.3 4.1 1.6 3.9 3.8.1 30.7 0 61.4 0 92.1.2 2-.5 4.8-2.9 4.9-7.1.3-14.1.1-21.2.1-2.2.2-4-1.7-3.7-3.9-.1-12.9 0-25.7 0-38.6h-36c0 12.8.1 25.7 0 38.5.3 2.3-1.8 4.2-4 3.9-7 0-14.1.2-21.1-.1-2.3-.3-2.9-2.9-2.7-4.8.1-30.6.1-61.3.1-92zM773.1 542.9c-1.7-1.9-.8-5.3 1.8-5.7 6.3-.3 12.7-.1 19.1-.1 4.1-.2 8.2 2.2 10.1 5.9 4 7.5 8.1 14.9 12.1 22.4 4.7-7.5 8.5-15.5 13-23.2 2-3.3 5.9-5.3 9.7-5.1 6 0 12.1-.1 18.1 0 2.8-.2 4.5 3.5 2.7 5.5-9.3 13.9-18.6 27.8-28 41.7 10.4 15.9 20.9 31.7 31.3 47.6 1 1.3 1.6 3.2.4 4.6-1.5 2-4.3 1.3-6.4 1.5-6-.2-12 .4-18-.3-4.5-.9-7-5-8.9-8.7-4.7-8.2-9.2-16.6-14.1-24.7-4.9 8.4-9.8 16.9-14.6 25.3-1.9 3.8-4.8 7.7-9.3 8.2-6.7.4-13.5.1-20.2.1-3 .3-4.8-3.6-2.8-5.7 10.5-15.8 21-31.7 31.5-47.5-9.1-13.9-18.3-27.8-27.5-41.8zM1244.3 547.9c-.1-5.7 4.9-10.8 10.6-10.8 15-.1 30.1 0 45.1 0 8.6.1 17.9 1.4 24.7 7.1 8.3 6.7 10.2 19.5 5.3 28.8-1.9 4-5.5 6.9-9.2 9.3 3.8 2.5 8.2 4.2 11 8 7.4 10.1 7 25-.9 34.7-7 9-18.8 12.9-29.9 13-15.4 0-30.7.1-46.1 0-5.8.1-10.9-5.2-10.7-11 .1-26.4 0-52.7.1-79.1m27.5 10.7v16.5c7.8 0 15.5.1 23.3 0 3.7 0 7.9-2.2 8.4-6.2 1.1-4.4-1.7-9.9-6.5-10.2-8.5-.3-16.9 0-25.2-.1m-.1 35v22.7c9.4-.3 19 .6 28.3-.5 8.3-1.7 10.8-13.3 5.2-19.1-2.4-2.5-6.1-3.1-9.4-3.1h-24.1zM1362.9 542c-.3-2 .6-4.7 3-4.8 7-.2 14.1-.1 21.2-.1 2.1-.2 3.9 1.7 3.7 3.8.1 19.5-.2 39 .1 58.5 4.5-5.5 7.5-12.2 11.4-18.1 7.7-12 15.2-24.1 22.6-36.3 2.1-3.3 4.7-7.2 9-7.6 4.7-.4 9.5-.3 14.2-.1 5.4.4 9.8 5.4 9.7 10.8.1 28.7 0 57.4 0 86.1.3 2.1-1.6 4.1-3.8 3.9-6.7.1-13.5.1-20.2 0-2.2.3-4.2-1.7-3.9-3.9-.2-19.1.2-38.3-.2-57.4-4.4 5.2-7.4 11.4-11.1 17.1-7.2 11.5-14.4 22.9-21.8 34.3-2.5 3.5-4.6 8.2-9.1 9.4-4.6.9-9.3.5-14 .5-5.9.2-11.2-5.1-10.9-10.9.1-28.5.2-56.9.1-85.2z"/></g></svg>