<svg width="178" height="58" viewBox="0 0 178 58" fill="none" xmlns="http://www.w3.org/2000/svg">
<path d="M11.4298 57.5776C10.9699 57.5776 10.5211 57.5717 10.0648 57.5615C9.1195 57.5492 8.17642 57.4672 7.24328 57.316C6.37318 57.1666 5.53028 56.8886 4.74239 56.4912C3.96173 56.0972 3.2497 55.5805 2.63359 54.9609C2.00856 54.3487 1.48819 53.6386 1.09311 52.8588C0.69367 52.0739 0.417236 51.2326 0.273435 50.3642C0.118142 49.4311 0.0341219 48.4876 0.0220995 47.5418C0.0125291 47.2243 0 46.1673 0 46.1673V11.3941C0 11.3941 0.0133442 10.3533 0.022175 10.0476C0.0336863 9.10326 0.117218 8.1612 0.272046 7.22954C0.416113 6.35875 0.692761 5.51503 1.09241 4.72758C1.48604 3.94831 2.00352 3.23768 2.62479 2.62325C3.24536 2.00298 3.95966 1.48363 4.74165 1.08413C5.52773 0.688062 6.36903 0.412049 7.23738 0.265339C8.17358 0.112651 9.11993 0.0301001 10.0685 0.0183797L11.4306 0H166.562L167.94 0.0191173C168.88 0.0302553 169.818 0.112069 170.746 0.263863C171.623 0.412414 172.473 0.690353 173.268 1.08854C174.835 1.89364 176.109 3.16739 176.913 4.73125C177.307 5.51327 177.579 6.35011 177.721 7.21337C177.878 8.15267 177.966 9.10214 177.984 10.0542C177.988 10.4805 177.988 10.9384 177.988 11.3941C178 11.9586 178 12.4959 178 13.0376V44.5414C178 45.0883 178 45.6219 177.988 46.1599C177.988 46.6495 177.988 47.0979 177.982 47.5594C177.965 48.4945 177.878 49.427 177.724 50.3495C177.583 51.2241 177.308 52.072 176.909 52.8633C176.511 53.6347 175.994 54.3386 175.376 54.9492C174.759 55.5721 174.046 56.0918 173.264 56.4884C172.471 56.8888 171.622 57.1678 170.746 57.316C169.813 57.468 168.869 57.55 167.924 57.5615C167.482 57.5717 167.019 57.5776 166.569 57.5776L164.933 57.5806L11.4298 57.5776Z" fill="#0177FD"/>
<path d="M36.4153 28.6222C36.4321 27.3157 36.7802 26.0346 37.4269 24.8983C38.0737 23.7619 38.9982 22.8071 40.1145 22.1228C39.4054 21.1129 38.4699 20.2818 37.3823 19.6955C36.2948 19.1092 35.0851 18.7838 33.8494 18.7453C31.2134 18.4693 28.6579 20.3182 27.3146 20.3182C25.9454 20.3182 23.8773 18.7727 21.6502 18.8183C20.2097 18.8648 18.8058 19.2825 17.5753 20.0308C16.3448 20.7791 15.3297 21.8326 14.6289 23.0884C11.593 28.3299 13.8575 36.0331 16.7656 40.2699C18.2206 42.3445 19.9211 44.6619 22.1461 44.5798C24.3235 44.4897 25.1366 43.1952 27.7649 43.1952C30.3687 43.1952 31.1316 44.5798 33.4018 44.5275C35.7382 44.4897 37.2102 42.4437 38.6142 40.3494C39.6596 38.8711 40.4641 37.2373 40.9977 35.5085C39.6404 34.936 38.482 33.9777 37.6671 32.7532C36.8522 31.5286 36.4168 30.0919 36.4153 28.6222Z" fill="white"/>
<path d="M32.127 15.9589C33.4009 14.4339 34.0285 12.4738 33.8766 10.4948C31.9303 10.6987 30.1326 11.6262 28.8415 13.0927C28.2102 13.8091 27.7267 14.6425 27.4187 15.5454C27.1106 16.4482 26.984 17.4028 27.0461 18.3544C28.0196 18.3644 28.9826 18.154 29.8627 17.7391C30.7428 17.3241 31.517 16.7154 32.127 15.9589Z" fill="white"/>
<path d="M62.5379 39.5361H55.3927L53.6768 44.5886H50.6504L57.4182 25.8958H60.5625L67.3303 44.5886H64.2523L62.5379 39.5361ZM56.1327 37.2047H61.7965L59.0044 29.0049H58.9262L56.1327 37.2047Z" fill="white"/>
<path d="M81.9462 37.7751C81.9462 42.0102 79.6731 44.7312 76.2428 44.7312C75.3738 44.7765 74.5096 44.5769 73.7491 44.1552C72.9886 43.7335 72.3626 43.1068 71.9427 42.3468H71.8778V49.0971H69.0725V30.9601H71.7879V33.2268H71.8395C72.2787 32.4705 72.9153 31.847 73.6816 31.4227C74.4478 30.9985 75.3151 30.7893 76.1911 30.8175C79.6598 30.8175 81.9462 33.5517 81.9462 37.7751ZM79.0628 37.7751C79.0628 35.0158 77.6329 33.2018 75.4512 33.2018C73.3078 33.2018 71.866 35.0541 71.866 37.7751C71.866 40.521 73.3078 42.36 75.4512 42.36C77.6329 42.36 79.0628 40.5593 79.0628 37.7751H79.0628Z" fill="white"/>
<path d="M96.9892 37.7751C96.9892 42.0102 94.7153 44.7312 91.285 44.7312C90.416 44.7765 89.5519 44.5769 88.7914 44.1552C88.0309 43.7335 87.4048 43.1068 86.9849 42.3468H86.92V49.0971H84.1147V30.9601H86.8301V33.2268H86.8817C87.3209 32.4705 87.9575 31.847 88.7238 31.4227C89.4901 30.9985 90.3574 30.7893 91.2334 30.8175C94.7021 30.8175 96.9892 33.5517 96.9892 37.7751ZM94.1051 37.7751C94.1051 35.0158 92.6751 33.2018 90.4934 33.2018C88.35 33.2018 86.9083 35.0541 86.9083 37.7751C86.9083 40.521 88.35 42.36 90.4934 42.36C92.6751 42.36 94.1051 40.5593 94.1051 37.7751Z" fill="white"/>
<path d="M106.929 39.3803C107.137 41.234 108.943 42.4511 111.411 42.4511C113.775 42.4511 115.476 41.2339 115.476 39.5625C115.476 38.1116 114.45 37.2428 112.021 36.6475L109.592 36.0639C106.15 35.2348 104.552 33.6295 104.552 31.0246C104.552 27.7994 107.37 25.5841 111.371 25.5841C115.333 25.5841 118.049 27.7994 118.14 31.0246H115.308C115.139 29.1592 113.592 28.0332 111.333 28.0332C109.073 28.0332 107.526 29.1724 107.526 30.8306C107.526 32.1522 108.514 32.9298 110.93 33.5251L112.995 34.0308C116.841 34.9378 118.438 36.4784 118.438 39.2126C118.438 42.7098 115.646 44.9001 111.203 44.9001C107.046 44.9001 104.239 42.7612 104.058 39.3802L106.929 39.3803Z" fill="white"/>
<path d="M124.495 27.7348V30.96H127.094V33.1753H124.495V40.6886C124.495 41.8558 125.016 42.3997 126.158 42.3997C126.467 42.3943 126.775 42.3727 127.081 42.335V44.537C126.567 44.6328 126.045 44.6761 125.523 44.6664C122.756 44.6664 121.677 43.63 121.677 40.987V33.1753H119.69V30.96H121.677V27.7348H124.495Z" fill="white"/>
<path d="M128.598 37.7751C128.598 33.487 131.13 30.7925 135.079 30.7925C139.042 30.7925 141.563 33.487 141.563 37.7751C141.563 42.0749 139.055 44.7576 135.079 44.7576C131.105 44.7576 128.598 42.0748 128.598 37.7751ZM138.704 37.7751C138.704 34.8336 137.353 33.0975 135.079 33.0975C132.806 33.0975 131.455 34.8468 131.455 37.7751C131.455 40.7283 132.806 42.4512 135.079 42.4512C137.353 42.4512 138.704 40.7283 138.704 37.7751H138.704Z" fill="white"/>
<path d="M143.876 30.96H146.551V33.2797H146.616C146.797 32.5552 147.223 31.9149 147.822 31.4665C148.42 31.0181 149.155 30.7889 149.904 30.8174C150.227 30.8163 150.549 30.8513 150.865 30.9218V33.5384C150.457 33.414 150.031 33.3569 149.604 33.3694C149.197 33.3529 148.79 33.4245 148.413 33.5794C148.036 33.7343 147.697 33.9687 147.419 34.2666C147.142 34.5645 146.932 34.9188 146.804 35.3051C146.677 35.6915 146.635 36.1008 146.681 36.5049V44.5885H143.876L143.876 30.96Z" fill="white"/>
<path d="M163.799 40.5857C163.422 43.0597 161.005 44.7576 157.914 44.7576C153.938 44.7576 151.471 42.1013 151.471 37.8397C151.471 33.5649 153.952 30.7924 157.796 30.7924C161.577 30.7924 163.955 33.3826 163.955 37.5148V38.4733H154.303V38.6423C154.258 39.1439 154.321 39.6492 154.487 40.1246C154.654 40.6 154.919 41.0347 155.267 41.3999C155.615 41.765 156.037 42.0521 156.504 42.2422C156.972 42.4324 157.474 42.5211 157.979 42.5026C158.642 42.5645 159.307 42.4114 159.876 42.066C160.445 41.7207 160.886 41.2015 161.135 40.5857L163.799 40.5857ZM154.316 36.5182H161.148C161.174 36.0672 161.105 35.6159 160.947 35.1926C160.789 34.7693 160.545 34.3831 160.23 34.0583C159.915 33.7335 159.537 33.4771 159.118 33.3052C158.699 33.1333 158.249 33.0495 157.796 33.0592C157.339 33.0565 156.887 33.144 156.464 33.3167C156.041 33.4895 155.657 33.744 155.333 34.0655C155.01 34.3871 154.753 34.7694 154.579 35.1904C154.404 35.6113 154.315 36.0626 154.316 36.5182V36.5182Z" fill="white"/>
<path d="M54.1394 15.6226H55.3438C55.5511 15.6483 55.7616 15.631 55.9618 15.5716C56.1621 15.5122 56.3479 15.4121 56.5074 15.2776C56.667 15.1431 56.7968 14.9771 56.8888 14.79C56.9809 14.603 57.033 14.399 57.042 14.1908C57.042 13.3625 56.417 12.8274 55.3571 12.8274C55.1447 12.7978 54.9285 12.8109 54.7212 12.866C54.514 12.9211 54.3199 13.0171 54.1505 13.1482C53.9811 13.2793 53.8397 13.443 53.7348 13.6295C53.6298 13.816 53.5634 14.0216 53.5395 14.2342H52.2171C52.2399 13.8484 52.342 13.4714 52.5172 13.1266C52.6924 12.7819 52.9369 12.4768 53.2355 12.2304C53.534 11.984 53.8803 11.8015 54.2526 11.6943C54.625 11.5871 55.0155 11.5574 55.3998 11.6073C57.1732 11.6073 58.4219 12.5973 58.4219 14.0225C58.426 14.4999 58.2658 14.9644 57.968 15.3382C57.6702 15.7121 57.2529 15.9728 56.7855 16.0768V16.1827C57.3395 16.2072 57.8613 16.4494 58.2367 16.8564C58.6121 17.2634 58.8106 17.8021 58.7889 18.3546C58.7479 18.7519 58.6278 19.1369 58.4356 19.4873C58.2435 19.8376 57.9831 20.1462 57.6698 20.3949C57.3565 20.6436 56.9965 20.8274 56.611 20.9356C56.2256 21.0438 55.8223 21.0742 55.4249 21.0249C55.0267 21.0791 54.6216 21.0527 54.2338 20.9474C53.846 20.8421 53.4835 20.66 53.1677 20.4119C52.852 20.1639 52.5896 19.8551 52.3962 19.5037C52.2027 19.1524 52.0822 18.7659 52.0417 18.3671H53.3847C53.4658 19.2264 54.2574 19.7806 55.4249 19.7806C56.5924 19.7806 57.3546 19.1581 57.3546 18.2805C57.3546 17.3904 56.6366 16.842 55.3822 16.842H54.1394V15.6226Z" fill="white"/>
<path d="M60.3147 18.8905C60.3147 17.6703 61.2272 16.9669 62.8428 16.867L64.6841 16.7611V16.1761C64.6841 15.4602 64.2108 15.0559 63.2925 15.0559C62.5436 15.0559 62.0262 15.3301 61.8758 15.8093H60.5771C60.7142 14.645 61.8139 13.8983 63.3559 13.8983C65.06 13.8983 66.0211 14.7443 66.0211 16.1761V20.8074H64.7283V19.8548H64.6221C64.4067 20.1965 64.1042 20.475 63.7455 20.662C63.3868 20.849 62.9848 20.9377 62.5805 20.919C62.2951 20.9486 62.0067 20.9183 61.7338 20.8299C61.461 20.7416 61.2097 20.5972 60.9962 20.406C60.7828 20.2149 60.6118 19.9813 60.4944 19.7203C60.3771 19.4592 60.3158 19.1765 60.3147 18.8905ZM64.6841 18.3113V17.7446L63.0241 17.8504C62.088 17.9129 61.6635 18.2304 61.6635 18.828C61.6635 19.438 62.1942 19.793 62.9239 19.793C63.1377 19.8146 63.3537 19.7931 63.559 19.7297C63.7644 19.6664 63.9548 19.5625 64.119 19.4242C64.2832 19.286 64.4179 19.1162 64.5149 18.925C64.612 18.7338 64.6695 18.5251 64.6841 18.3113Z" fill="white"/>
<path d="M69.5812 15.1551V20.8073H68.2397V14.0291H72.7153V15.155L69.5812 15.1551Z" fill="white"/>
<path d="M80.8452 17.4153C80.8452 19.5688 79.7529 20.9191 78.037 20.9191C77.6158 20.9477 77.1951 20.8558 76.8245 20.6541C76.4539 20.4524 76.1488 20.1493 75.9452 19.7805H75.839V23.0609H74.4976V14.0291H75.7889V15.1493H75.8892C76.0965 14.7676 76.4055 14.4505 76.7822 14.233C77.1589 14.0154 77.5886 13.906 78.0237 13.9167C79.7529 13.9166 80.8452 15.2609 80.8452 17.4153ZM79.4654 17.4153C79.4654 15.9835 78.7858 15.1184 77.6493 15.1184C76.5202 15.1184 75.814 16.0018 75.814 17.4212C75.814 18.8338 76.5201 19.7181 77.6434 19.7181C78.7858 19.718 79.4654 18.8529 79.4654 17.4153Z" fill="white"/>
<path d="M82.6319 23.2351V22.0833C82.777 22.1017 82.9233 22.1101 83.0696 22.1083C83.3554 22.1294 83.639 22.0445 83.8659 21.8699C84.0928 21.6954 84.247 21.4434 84.2991 21.1623L84.3993 20.8323L81.939 14.0291H83.3998L85.104 19.413H85.2101L86.9084 14.0291H88.3309L85.7969 21.0874C85.2161 22.7367 84.5733 23.2659 83.1876 23.2659C83.0756 23.2659 82.7572 23.2534 82.6319 23.2351Z" fill="white"/>
<path d="M89.376 18.8838H90.7116C90.8427 19.4814 91.4044 19.793 92.1901 19.793C93.0835 19.793 93.6318 19.4005 93.6318 18.7905C93.6318 18.1371 93.1395 17.8254 92.1901 17.8254H91.173V16.7861H92.1724C92.9832 16.7861 93.396 16.4752 93.396 15.9086C93.396 15.4109 92.9965 15.031 92.1724 15.031C91.4221 15.031 90.8737 15.3485 90.7867 15.8836H89.4939C89.5906 15.2687 89.9253 14.7163 90.4262 14.345C90.9271 13.9737 91.5542 13.8133 92.1724 13.8983C93.7881 13.8983 94.7124 14.6267 94.7124 15.7719C94.7199 16.0907 94.6175 16.4026 94.4221 16.6551C94.2268 16.9077 93.9504 17.0858 93.6392 17.1596V17.2654C94.0097 17.3131 94.3498 17.4947 94.5949 17.7758C94.84 18.057 94.9731 18.418 94.9689 18.7905C94.9689 20.0791 93.8692 20.9316 92.1901 20.9316C90.7057 20.9316 89.4998 20.2532 89.376 18.8838Z" fill="white"/>
<path d="M96.9006 20.8073V14.0291H98.2303V18.6913H98.3364L101.469 14.0291H102.799V20.8073H101.469V16.1202H101.369L98.2303 20.8074L96.9006 20.8073Z" fill="white"/>
<path d="M110.124 15.1551H107.983V20.8073H106.641V15.1551H104.5V14.0292H110.124V15.1551Z" fill="white"/>
<path d="M117.35 18.9772C117.167 19.5966 116.772 20.1324 116.233 20.4908C115.695 20.8492 115.047 21.0076 114.403 20.9382C113.955 20.9499 113.51 20.8644 113.099 20.6875C112.688 20.5106 112.32 20.2465 112.021 19.9136C111.722 19.5808 111.5 19.187 111.369 18.7598C111.238 18.3326 111.202 17.882 111.263 17.4395C111.204 16.9956 111.24 16.5441 111.371 16.1156C111.502 15.6871 111.723 15.2916 112.02 14.9558C112.317 14.62 112.683 14.3518 113.093 14.1693C113.504 13.9869 113.948 13.8944 114.397 13.8982C116.289 13.8982 117.431 15.1868 117.431 17.3153V17.7821H112.631V17.857C112.61 18.1058 112.641 18.3563 112.723 18.5924C112.805 18.8284 112.935 19.0449 113.105 19.2277C113.276 19.4106 113.483 19.5559 113.713 19.6543C113.943 19.7526 114.191 19.8019 114.442 19.7989C114.762 19.8371 115.087 19.7794 115.375 19.6331C115.662 19.4867 115.9 19.2584 116.057 18.9771L117.35 18.9772ZM112.631 16.7927H116.063C116.08 16.5653 116.049 16.3369 115.972 16.1222C115.896 15.9074 115.775 15.7111 115.617 15.5457C115.46 15.3804 115.269 15.2497 115.058 15.162C114.847 15.0744 114.62 15.0317 114.391 15.0368C114.159 15.0336 113.929 15.0769 113.714 15.1641C113.499 15.2512 113.304 15.3804 113.14 15.5441C112.976 15.7078 112.846 15.9027 112.759 16.1171C112.671 16.3316 112.628 16.5613 112.631 16.7927H112.631Z" fill="white"/>
<path d="M123.037 14.0291H126.102C127.432 14.0291 128.211 14.7009 128.211 15.7526C128.213 16.0864 128.1 16.4107 127.891 16.6713C127.682 16.932 127.39 17.1131 127.063 17.1844V17.2903C127.46 17.3153 127.832 17.4914 128.103 17.7822C128.373 18.073 128.521 18.4563 128.516 18.8529C128.516 20.0355 127.625 20.8073 126.133 20.8073H123.037V14.0291ZM124.367 15.0559V16.8111H125.696C126.507 16.8111 126.895 16.5002 126.895 15.9269C126.895 15.3984 126.557 15.0559 125.845 15.0559L124.367 15.0559ZM124.367 17.7945V19.7805H125.957C126.751 19.7805 127.175 19.4314 127.175 18.7905C127.175 18.1121 126.695 17.7946 125.789 17.7946L124.367 17.7945Z" fill="white"/>
</svg>
