<svg width="22" height="22" viewBox="0 0 21 21" fill="none" xmlns="http://www.w3.org/2000/svg">
<path d="M20.3695 6.28667C20.3227 5.22534 20.1511 4.49568 19.9052 3.86342C19.6516 3.1923 19.2614 2.59144 18.7501 2.09195C18.2506 1.58468 17.6458 1.19051 16.9825 0.940841C16.3466 0.694981 15.6207 0.523351 14.5594 0.476556C13.4901 0.425799 13.1507 0.414062 10.4387 0.414062C7.72681 0.414062 7.38736 0.425799 6.32206 0.472593C5.26073 0.519388 4.53108 0.69117 3.89898 0.936878C3.2277 1.19051 2.62684 1.58072 2.12735 2.09195C1.62008 2.59144 1.22606 3.19626 0.976241 3.85961C0.730381 4.49568 0.558751 5.22137 0.511957 6.2827C0.4612 7.35196 0.449463 7.69141 0.449463 10.4033C0.449463 13.1153 0.4612 13.4547 0.507994 14.52C0.554788 15.5813 0.72657 16.311 0.97243 16.9433C1.22606 17.6144 1.62008 18.2152 2.12735 18.7147C2.62684 19.222 3.23166 19.6162 3.89501 19.8658C4.53108 20.1117 5.25677 20.2833 6.31825 20.3301C7.38339 20.3771 7.723 20.3887 10.4349 20.3887C13.1469 20.3887 13.4863 20.3771 14.5516 20.3301C15.6129 20.2833 16.3426 20.1117 16.9747 19.8658C18.3171 19.3468 19.3784 18.2855 19.8974 16.9433C20.1431 16.3072 20.3149 15.5813 20.3617 14.52C20.4085 13.4547 20.4202 13.1153 20.4202 10.4033C20.4202 7.69141 20.4163 7.35196 20.3695 6.28667ZM18.5707 14.442C18.5277 15.4175 18.3639 15.9443 18.2273 16.2955C17.8917 17.1656 17.201 17.8563 16.3309 18.1919C15.9797 18.3285 15.4491 18.4923 14.4774 18.5352C13.4238 18.5821 13.1078 18.5937 10.4427 18.5937C7.77756 18.5937 7.45763 18.5821 6.40788 18.5352C5.43236 18.4923 4.90559 18.3285 4.5544 18.1919C4.12136 18.0319 3.72719 17.7782 3.40726 17.4466C3.07558 17.1227 2.82195 16.7325 2.6619 16.2994C2.52533 15.9482 2.36147 15.4175 2.31864 14.4459C2.27169 13.3924 2.26011 13.0763 2.26011 10.4111C2.26011 7.74598 2.27169 7.42604 2.31864 6.37644C2.36147 5.40093 2.52533 4.87415 2.6619 4.52296C2.82195 4.08977 3.07558 3.69576 3.41122 3.37567C3.73497 3.04399 4.12517 2.79036 4.55836 2.63046C4.90955 2.49389 5.44029 2.33004 6.41184 2.28705C7.4654 2.24026 7.78153 2.22852 10.4465 2.22852C13.1156 2.22852 13.4316 2.24026 14.4813 2.28705C15.4569 2.33004 15.9836 2.49389 16.3348 2.63046C16.7679 2.79036 17.162 3.04399 17.482 3.37567C17.8136 3.69957 18.0673 4.08977 18.2273 4.52296C18.3639 4.87415 18.5277 5.40474 18.5707 6.37644C18.6175 7.43 18.6293 7.74598 18.6293 10.4111C18.6293 13.0763 18.6175 13.3884 18.5707 14.442Z" fill="#303137"/>
<path d="M10.4387 5.27213C7.60593 5.27213 5.30752 7.57039 5.30752 10.4033C5.30752 13.2363 7.60593 15.5346 10.4387 15.5346C13.2717 15.5346 15.5699 13.2363 15.5699 10.4033C15.5699 7.57039 13.2717 5.27213 10.4387 5.27213ZM10.4387 13.7318C8.60096 13.7318 7.11025 12.2413 7.11025 10.4033C7.11025 8.56541 8.60096 7.07486 10.4387 7.07486C12.2767 7.07486 13.7672 8.56541 13.7672 10.4033C13.7672 12.2413 12.2767 13.7318 10.4387 13.7318Z" fill="#303137"/>
<path d="M16.9709 5.06921C16.9709 5.73073 16.4345 6.26712 15.7729 6.26712C15.1113 6.26712 14.575 5.73073 14.575 5.06921C14.575 4.40754 15.1113 3.87131 15.7729 3.87131C16.4345 3.87131 16.9709 4.40754 16.9709 5.06921Z" fill="#303137"/>
</svg>
