<svg id="Слой_1" xmlns="http://www.w3.org/2000/svg" viewBox="0 0 91.8 22.8"><style>.st0{fill:#63002f}</style><path class="st0" d="M37.1 9.3h-4.7v.4h4.7v.5c-2.3.5-4 2.6-4 5h10.4c0-2.4-1.7-4.5-4-5v-.5h8.4v.5c-2.3.5-4 2.6-4 5h10.4c0-2.4-1.7-4.5-4-5v-.5h8.4v.5c-2.3.5-4 2.6-4 5h10.4c0-2.4-1.7-4.5-4-5v-.5h8.4v.5c-2.3.5-4 2.6-4 5H76.2V9.3h.1v-.2H76v.2h.1v4.9c-.4-2-1.9-3.6-3.9-4.1V8.2h.1v-.1H72v.2h.1v1.1H70v-.5h.1v-.2h-.3v.2h.1v.5h-8.4V8.3h.1v-.2h-.3v.2h-.2v1.1H59v-.5h.1v-.2h-.3v.2h.1v.5h-8.4V8.3h.1v-.2h-.5v.2h.1v1.1h-2.1v-.5h.1v-.2h-.3v.2h.1v.5h-8.4V8.3h.1v-.2h-.3v.2h.1v1.1h-2.1v-.5h.1v-.2h-.3v.2h-.1v.4zm34.9.4v.4c-.1 0-.3 0-.4-.1v-.3h-1.2v.4c-.1 0-.3 0-.4.1v-.4l2-.1zm-10.9 0v.4c-.1 0-.3 0-.4-.1v-.3h-1.2v.4c-.1 0-.3 0-.4.1v-.4l2-.1zm-10.9 0v.4c-.1 0-.3 0-.4-.1v-.3h-1.2v.4c-.1 0-.3 0-.4.1v-.4l2-.1zm-10.8 0v.4c-.1 0-.3 0-.4-.1v-.3h-1.2v.4c-.1 0-.3 0-.4.1v-.4l2-.1zM21.4 0h.9v.9h-.9zM22.4.3h.2v.6h-.2zM21.1.3h.2v.6h-.2z"/><path class="st0" d="M89.1 20.9c0-.1-.1-.1 0 0-.2-.1-.2 0-.2 0 0 .9-.7 1.7-1.7 1.7-.8-.1-1.4-.8-1.4-1.6 0-.1-.1-.1-.1-.1l-.1.1c0 .6-.3 1.1-.7 1.4l.6-3.5 3.9-3.9h-9.5l-.8.7H15.8l-1.1 1.6H4.1v4.4c0 .2.1.5.2.6-.2.1-.5.2-.9.2-.8-.1-1.4-.8-1.4-1.6 0-.1-.1-.1-.1-.1-.1 0-.1.1-.1.1 0 .9-.7 1.7-1.7 1.7-.1 0-.1.1-.1.1 0 .1.1.1.1.1.6 0 1.2-.3 1.6-.8l.2-.3.2.3c.3.4.8.7 1.3.8h.1c.6 0 1.2-.3 1.6-.8l.2-.3.2.3c.3.4.8.7 1.3.8h.1c.6 0 1.2-.3 1.6-.8l.2-.3.2.3c.3.4.8.7 1.3.8h.1c.6 0 1.2-.3 1.6-.8l.2-.3.2.3c.3.4.8.7 1.3.8h.1c.6 0 1.2-.3 1.6-.8l.2-.3.2.3c.3.4.8.7 1.3.8h.1c.6 0 1.2-.3 1.6-.8l.2-.3.2.3c.3.4.8.7 1.3.8h.1c.6 0 1.2-.3 1.6-.8l.2-.3.2.3c.3.4.8.7 1.3.8h.1c.6 0 1.2-.3 1.6-.8l.2-.3.2.3c.3.4.8.7 1.3.8h.1c.6 0 1.2-.3 1.6-.8l.2-.3.2.3c.3.4.8.7 1.3.8h.1c.6 0 1.2-.3 1.6-.8l.2-.3.2.3c.3.4.8.7 1.3.8h.1c.6 0 1.2-.3 1.6-.8l.2-.3.2.3c.3.4.8.7 1.3.8h.1c.6 0 1.2-.3 1.6-.8l.2-.3.2.3c.3.4.8.7 1.3.8h.1c.6 0 1.2-.3 1.6-.8l.2-.3.2.3c.3.4.8.7 1.3.8h.1c.6 0 1.2-.3 1.6-.8l.2-.3.2.3c.3.4.8.7 1.3.8h.1c.6 0 1.2-.3 1.6-.8l.2-.3.2.3c.3.4.8.7 1.3.8h.1c.6 0 1.2-.3 1.6-.8l.2-.3.2.3c.3.4.8.7 1.3.8h.1c.6 0 1.2-.3 1.6-.8l.2-.3.2.3c.3.4.8.7 1.3.8h.1c.6 0 1.2-.3 1.6-.8l.2-.3.2.3c.3.4.8.7 1.3.8h.1c.6 0 1.2-.3 1.6-.8l.2-.3.2.3c.3.4.8.7 1.3.8h.1c.6 0 1.2-.3 1.6-.8l.2-.3.2.3c.3.4.8.7 1.3.8h.1c.6 0 1.2-.3 1.6-.8l.2-.3.2.3c.3.4.8.7 1.3.8h.1c.6 0 1.2-.3 1.6-.8l.2-.3.2.3c.3.4.8.7 1.3.8h.1c.6 0 1.2-.3 1.6-.8l.2-.3.2.3c.3.4.8.7 1.3.8h.1c.6 0 1.2-.3 1.6-.8l.2-.3.2.3c.3.4.8.7 1.3.8h.1c.6 0 1.2-.3 1.6-.8l.2-.3.2.3c.3.4.8.7 1.3.8h.1c.6 0 1.2-.3 1.6-.8l.2-.3.2.3c.3.4.8.7 1.3.8h.1c.6 0 1.2-.3 1.6-.8l.2-.3.2.3c.3.4.8.7 1.3.8v-.3c-2.1-.1-2.7-.7-2.7-1.6zm-6.7.4v-.4.4zm-3.3 0v-.4.4zm-3.4 0v-.4.4zm-3.3 0v-.4.4zm-3.4 0v-.4.4zm-3.3 0v-.4.4zm-3.4 0v-.4.4zm-3.3 0v-.4.4zm-3.4 0v-.4.4zm-3.3 0v-.4.4zm-3.4 0v-.4.4zm-3.3 0v-.4.4zm-3.4 0v-.4.4zm-3.3 0v-.4.4zm-3.4 0v-.4.4zm-3.3 0v-.4.4zm-3.4 0v-.4.4zm-3.3 0v-.4.4zm-3.4 0v-.4.4zm-3.3 0v-.4.4zm-3.4 0v-.4.4zm-3.3 0v-.4.4zm-3.4 0v-.4.4zm-3.3 0v-.4.4zM31.9 3.3h-.7L31 4.7h.9z"/><path class="st0" d="M27.4 5L27 3.1h-.6L26.3 5h-.7v1.8h-1.4V8h-1.4V1.2h-1.9V8h-3.8v7.3h14.8v-9h1.3V5h-5.8zm-.7 4.4c.3-.2.9-.4 1.4-.4h.6c.7 0 .9.1 1 .1.2 0 .5 0 .7-.1v2c-.2-.1-.4-.2-.5-.2-.2-.1-.4-.1-.7-.1-.3 0-.7.1-.8.1.8.3 1.4.7 2.1 1v.4c-.8-.4-1.5-.8-2.3-1.2-.7-.3-1.5-.7-2.3-.9.1-.2.4-.5.8-.7zm-2.6.2c.4.1.7.2 1.1.3.2.1.4.1.6.2-.1.1-.2.2-.2.3-.1 0-.2-.1-.3-.1-.4-.1-.7-.2-1.1-.3v-.4h-.1zm0 .8c.4.1.7.2 1.1.3 0 0 .1 0 .2.1.1-.1.1-.2.2-.3.9.3 1.7.7 2.6 1 .8.4 1.6.7 2.3 1.2v.3c-.8-.4-1.5-.8-2.3-1.2-.9-.4-1.8-.8-2.7-1.1-.1.1-.1.2-.1.4h-.1c-.4-.1-.7-.2-1.1-.3v-.4h-.1zm1.1 1.4c-.4-.1-.7-.2-1.1-.3v-.4c.4.1.7.2 1.1.3v-.1c0-.1 0-.2.1-.3 1 .3 1.9.7 2.8 1.1.8.4 1.6.7 2.3 1.2v.4c-.8-.4-1.5-.8-2.3-1.2-.9-.4-1.9-.8-2.9-1.1v.4zm5.2 2.6c-.2 0-.4-.1-.6-.1H29c-.3 0-.6 0-.9-.1-.5-.1-1-.2-1.4-.5-.8-.4-1.3-1-1.4-1.9 1 .3 2 .7 2.9 1.1.8.4 1.6.7 2.3 1.2v.3h-.1z"/></svg>