<svg id="Слой_1" xmlns="http://www.w3.org/2000/svg" viewBox="0 0 79.5 35.6"><style>.st0{fill:#002d33}</style><path class="st0" d="M79.5 25H79v-6.3c0-2.7-7-2.8-7.9-2.8-.7 0-3.7 1-5.4.1.1.4.2-.4.2 0 0 .2-.1.3-.2.4 0 0 0 .1-.1.1v.6c0 .9 0 1.8-.2 2.6 0 .1-.1.2-.2.3-.3 1.1-.4 2.3-.6 3.4-.3 1.5-.6 3-.7 4.5h.2v1.6c0 3.2 2.8 5.8 6 5.8s5.9-2.5 5.9-5.7c0-.6 0-1.1-.2-1.6h3.5l.2-3z"/><path class="st0" d="M77.8 17.4c0-.7-1.7-6.5-2.5-8.6-.8-2.2-1.9-1.6-11.6-2.1l-1.9-.3V3.2c0-.6 0-3.1-2.4-3.2v1c1.4-.1 1.2 2.4 1.2 5.3v17.1h-4.3s2.6-5.3 2.6-9.4-2.4-9.6-2.4-9.6H3S.5 7.8.4 13.2c0 5.4 3 10.1 3 10.1L0 23.2V28h3v2.4h3v-1h1v1h1v-1h3.6v.7c0 3.2 2.5 5.4 5.7 5.4s5.8-1.9 5.8-5.1c0-.6-.1-1-.1-1h.8v.8c0 3.2 2.5 5.3 5.7 5.3s5.8-1.7 5.8-4.9c0-.6.1-.9-.1-.9h1.4l.3 2.4 1.3-.6-.6-4.3H41v2h12.1v-2h3.6v2.9l14.5.2v-2.5l4 .1c0-1.5.3-2.8.6-4.3.3-1.4.4-2.9.8-4.3-.2-.9 1.1-1.9 1.2-1.9zm-55.9-2.3v.6c-1-.3-1.9-.6-2.9-.9v-1c1 .3 1.9.6 2.9.9v.4zm0-1.5c-1-.3-1.9-.6-2.9-.9v-1.1c1 .3 2 .6 2.9.9.1 0 .3.1.4.1.2-.3.3-.5.5-.8l-.9-.3c-1-.3-1.9-.6-2.9-.9V9.5c1 .3 2 .6 2.9 1 .5.1 1 .3 1.5.5.6-.7 1.5-1.4 2.4-1.9.9-.7 2.5-1.1 3.9-1.3.6-.1 1.1-.1 1.6-.1 1.7.1 2.3.3 2.8.3.6 0 1.3 0 1.9-.3v5.6c-.4-.4-1-.6-1.4-.7-.6-.2-1.2-.3-2-.2-.8 0-1.8.2-2.2.4 2.2.9 3.8 1.8 5.6 2.8v1.1c-2-1-4.1-2.1-6.3-3.1-2-1-4.1-1.8-6.3-2.6-.2.2-.4.4-.5.7 2.4.8 4.7 1.8 6.8 2.8 2.1.9 4.2 2 6.3 3.1v1.1c-2-1-4.1-2.1-6.3-3.1-2.3-1.1-4.8-2.1-7.4-3l-.3.9c2.7.9 5.2 2 7.7 3.1 2.1.9 4.2 2 6.3 3.1v1.1c-2-1-4.1-2.1-6.3-3.1-2.4-1.1-5.1-2.2-7.8-3.1v-.3-.7zm14.2 8.8c-.4-.1-1-.2-1.7-.2-.3 0-.6 0-1 .1-.5.1-.8.1-1.1.1-.9 0-1.7-.1-2.6-.2-1.3-.2-2.7-.6-3.9-1.2-2-1-3.6-2.8-3.8-5.2 2.7.9 5.3 2 7.8 3.1 2.1.9 4.2 2 6.3 3.1v.4zm29.1-6.6c-.1-.1-.2-7.1 0-7.3s7.6.2 8 .5 1.8 3.8 2.1 6.7c-.1.1-10 .2-10.1.1z"/></svg>