<svg id="Слой_1" xmlns="http://www.w3.org/2000/svg" viewBox="0 0 67.5 77.2"><style>.st0{fill:#e34b34}</style><path class="st0" d="M67.5 17.1c0-5.5-8.5-15.4-9.4-16.5-.3-.4-.8-.6-1.3-.6s-1 .2-1.3.6c-1 1.1-9.4 11-9.4 16.5 0 6 4.8 10.9 10.7 10.9 5.9 0 10.7-4.9 10.7-10.9zm-10.7 7.5c-4 0-7.3-3.4-7.3-7.5 0-2.8 4.1-8.8 7.3-12.8 3.2 4 7.3 9.9 7.3 12.8 0 4.2-3.2 7.5-7.3 7.5z"/><path class="st0" d="M54.8 18.8c-.7-.6-1.8-.5-2.4.3-.6.7-.5 1.8.3 2.4.8.7 2.4 1.5 4.2 1.5 1.3 0 2.7-.4 4-1.5.7-.6.8-1.6.3-2.4s-1.6-.8-2.4-.3c-1.9 1.6-3.8.2-4 0zM58.7 54c0-12.4-21-36.1-21.9-37.1-.3-.4-.8-.6-1.3-.6s-.9.2-1.3.6c-.4.4-3.9 4.5-8.1 10-3.9-6.8-9.8-13.7-10.1-14-.3-.4-.8-.6-1.3-.6s-1 .2-1.3.6C12.2 14.5.1 28.6 0 36.4 0 44 5.5 50.2 12.7 51.3c-.2 1-.3 1.9-.3 2.8 0 12.8 10.4 23.1 23.2 23.1S58.7 66.8 58.7 54zM3.4 36.4c0-4.9 7.3-14.8 11.4-19.8 2.1 2.6 6.5 8.2 9.2 13.2-4.1 5.7-8.3 12.4-10.3 18.1-5.8-.5-10.3-5.5-10.3-11.5zM15.8 54c0-8.6 13.3-25.8 19.8-33.4 6.5 7.6 19.8 24.8 19.8 33.4 0 10.9-8.9 19.8-19.8 19.8S15.8 64.9 15.8 54z"/><path class="st0" d="M36.9 69.5v-3.4H38c4.2 0 7.6-2.9 7.6-6.5v-.4c-.3-3.7-3.3-5.1-4.7-5.3l-.3-.1-2.2-.4-7.3-1.4c-1.4-.3-2.2-1.1-2.2-2.2v-.3c0-1.7 1.9-3.1 4.2-3.1h4.8c2.3 0 4.2 1.4 4.2 3.1h3.4c0-3.6-3.4-6.5-7.6-6.5h-1.1v-3.6h-3.4v3.7h-.2c-4.2 0-7.6 2.9-7.6 6.5v.3c0 2.7 1.8 4.8 4.8 5.5h.1l2 .4 7.4 1.5.4.1c.1 0 1.7.3 1.9 2.2v.2c0 1.7-1.9 3.1-4.2 3.1h-4.8c-2.3 0-4.2-1.4-4.2-3.1h-3.4c0 3.6 3.4 6.5 7.6 6.5h.3v3.4h3.4v-.2z"/></svg>