<svg id="Слой_1" xmlns="http://www.w3.org/2000/svg" viewBox="0 0 77.2 76"><style>.st0{fill:#e34b34}</style><path class="st0" d="M53.5 65c1.3 1 3.7 2.3 6.6 2.3 2 0 4.1-.6 6.2-2.3.7-.6.8-1.6.3-2.4-.6-.7-1.6-.8-2.4-.3-4.2 3.3-8.4.1-8.6 0-.7-.6-1.8-.5-2.4.3-.6.8-.4 1.9.3 2.4z"/><path class="st0" d="M15.2 63H43.2c2 7.5 8.7 13 16.7 13 9.5 0 17.3-7.9 17.3-17.6 0-9.2-15.3-30.5-15.9-31.5a1.75 1.75 0 0 0-2.8 0c-.3.4-3.6 5-7.2 10.8V13.4c0-.9-.8-1.7-1.7-1.7H38.8c-.9 0-1.7.8-1.7 1.7v46.3h-3V25.9c0-.9-.8-1.7-1.7-1.7H21.6c-.9 0-1.7.8-1.7 1.7v33.8h-3V38.4c0-.9-.8-1.7-1.7-1.7H4.4c-.9 0-1.7.8-1.7 1.7v21.3H0v3.4h4.4l10.8-.1zm44.7-32.1c4.9 7 13.9 21.4 13.9 27.5 0 7.9-6.2 14.2-13.9 14.2S46 66.2 46 58.4c-.1-6.1 9-20.4 13.9-27.5zM40.5 15.1H48v28.6c-3 5.5-5.4 11.1-5.4 14.8 0 .4 0 .8.1 1.2h-2.1l-.1-44.6zM23.3 27.6h7.5v32.1h-7.5V27.6zM6.1 40.1h7.5v19.6H6.1V40.1zM3.2 33.2L30.6 5.8v8.1H34V1.7c0-.9-.8-1.7-1.7-1.7H20.2v3.4h8L.8 30.8l2.4 2.4z"/></svg>