<svg id="Слой_1" xmlns="http://www.w3.org/2000/svg" viewBox="0 0 56.1 74.2"><style>.st0{fill:#e34b34}</style><path class="st0" d="M26.8 24.7C25.7 26 15.9 37.4 15.9 43.8c0 6.8 5.5 12.4 12.2 12.4s12.2-5.6 12.2-12.4c0-6.4-9.8-17.8-10.9-19.1-.3-.4-.8-.6-1.3-.6s-1 .2-1.3.6zm10.1 19.1c0 5-4 9-8.8 9-4.9 0-8.8-4.1-8.8-9 0-3.8 5.6-11.4 8.8-15.4 3.3 4 8.8 11.6 8.8 15.4z"/><path class="st0" d="M25.5 46c-.7-.6-1.8-.5-2.4.3-.6.7-.5 1.8.3 2.4.9.8 2.7 1.6 4.8 1.6 1.4 0 3-.4 4.5-1.6.7-.6.8-1.6.3-2.4-.6-.7-1.6-.8-2.4-.3-2.4 1.9-4.8.2-5.1 0zM1.7 74.2h52.7c.9 0 1.7-.8 1.7-1.7s-.8-1.7-1.7-1.7h-.9v-4.2c0-.9-.8-1.7-1.7-1.7s-1.7.8-1.7 1.7v4.2H6v-4.2c0-.9-.8-1.7-1.7-1.7s-1.7.8-1.7 1.7v4.2h-.9c-.9 0-1.7.8-1.7 1.7s.8 1.7 1.7 1.7zM1.7 18.7c-.9 0-1.7.8-1.7 1.7s.8 1.7 1.7 1.7h52.7c.9 0 1.7-.8 1.7-1.7s-.8-1.7-1.7-1.7h-.9V9.8h.9c.9 0 1.7-.8 1.7-1.7s-.8-1.7-1.7-1.7h-.9V1.7c0-.9-.8-1.7-1.7-1.7H40.5c-.9 0-1.7.8-1.7 1.7v4.7H1.7C.8 6.4 0 7.2 0 8.1s.8 1.7 1.7 1.7h.9v8.9h-.9zM42.2 3.4h8v3h-8v-3zM6 9.8h44.1v8.9H6V9.8z"/><path class="st0" d="M1.7 61.9h52.7c.9 0 1.7-.8 1.7-1.7s-.8-1.7-1.7-1.7h-.9V27c0-.9-.8-1.7-1.7-1.7s-1.7.8-1.7 1.7v31.5H6V27.1c0-.9-.8-1.7-1.7-1.7s-1.7.8-1.7 1.7v31.5h-.9c-.9 0-1.7.8-1.7 1.7s.8 1.6 1.7 1.6z"/></svg>