<svg id="Слой_1" xmlns="http://www.w3.org/2000/svg" viewBox="0 0 77.8 76.4"><style>.st0{fill:#e34b34}</style><path class="st0" d="M24.7 60.1V13.3c1.9-1.3 8.8-5.1 22.8-5.1h.1V38c1.2-2.2 2.2-4.5 3.4-6.7v-3.8h2.7c.6-1 1-2.3 1.7-3.4H51v-8.5h14.1c.9 0 1.7-.8 1.7-1.7s-.8-1.7-1.7-1.7h-.8V10c3.7 1.1 5.4 2.3 6.1 2.9v25.7c1.5 2.2 2.4 4.6 3.3 7.1V12.4c0-.4-.1-.7-.3-1-.3-.4-2.4-3-9.1-4.8V3c0-.9-.8-1.7-1.7-1.7-.9 0-1.7.8-1.7 1.7v2.8c-2.7-.5-6-.9-9.9-1V1.7c0-.9-.8-1.7-1.7-1.7s-1.7.8-1.7 1.7v3h-.1c-18.3 0-25.3 6.1-25.6 6.3-.4.3-.6.8-.6 1.3v11.4c-13.6.2-18.9 4.7-19.2 4.9-.4.3-.6.8-.6 1.3V60c-.9.1-1.5.8-1.5 1.7 0 .9.8 1.7 1.7 1.7h39.8l-.9-3.3H24.7zM51 8.3c4 .2 7.3.6 9.9 1.1v2.9H51v-4zM21.3 60.1H5V42.6c1.6-1 6.6-3.6 16.3-3.7v21.2zm0-24.5C13 35.7 7.8 37.4 5 38.8v-7.9c1.6-1 6.6-3.6 16.3-3.7v8.4z"/><path class="st0" d="M62.6 17.6c-.9 0-1.7.8-1.7 1.7V24h-.3c1 1 1.8 2.3 2.5 3.4h2c.9 0 1.7-.8 1.7-1.7 0-.9-.8-1.7-1.7-1.7h-.8v-4.7c0-.9-.8-1.7-1.7-1.7z"/><g><path class="st0" d="M59.5 20.4c-.2-.5-.7-.8-1.2-.8s-1.1.3-1.4.7c-.4.5-5.2 7.3-9.8 15.1l-3.3 6.2c-2.6 4.7-4.5 9.4-5 13 0 0-.3 3.3.1 6l.9 2.8c2.8 7.6 10 13 18.4 13 10.8 0 19.6-9 19.6-20 0-10.5-17.5-35-18.3-36zM58.3 73c-9 0-16.3-7.5-16.3-16.6 0-7.2 10.7-24.1 16.3-32.1 5.6 8 16.3 24.9 16.3 32.1-.1 9.1-7.5 16.6-16.3 16.6z"/><path class="st0" d="M56.8 42.8V45h-.4c-3.4 0-6.2 2.4-6.2 5.4V50.7c.3 3.1 2.7 4.2 3.9 4.4h.2l.8.2 6.4 1.3c1.2.3 1.3.9 1.3 1.3v.2c0 1.1-1.3 2-2.9 2h-3.7c-1.5 0-2.9-.9-2.9-2h-3.4c0 3 2.8 5.4 6.2 5.4h.4v2.4h3.4v-2.4c3.4-.1 6.1-2.4 6.1-5.4v-.2c0-1.8-1-3.9-4-4.6l-7.3-1.5-.3-.1c-.1 0-1-.2-1.1-1.3v-.1c0-1.1 1.3-2 2.9-2H60c1.6 0 2.9.9 2.9 2h3.4c0-2.9-2.7-5.3-6.1-5.4v-2.2l-3.4.1z"/></g></svg>