<svg id="Слой_1" xmlns="http://www.w3.org/2000/svg" viewBox="0 0 187.1 43.5"><style>.st0{fill:#686868}.st1{fill:#888}</style><path class="st0" d="M165 32v-5.6s4.7 1.2 4.7-3.3V8.5H187V32h-6.3V14H176v9c.1 0 1.4 11.7-11 9zM146.3 3.2l3.7-1.4s.1 2 2.7 2 2.7-2 2.7-2l3.7 1.4s-1 3.9-6.5 3.9c-5.4 0-6.3-3.9-6.3-3.9zm-4.2 28.7h6.3l8.7-14.1v14.1h6.1V8.4h-6.4l-8.6 14.2V8.4h-6.1v23.5zM95.7 31.9V8.4h6.4v9.9l6.5-9.9h7.5l-8.4 11.3 8.9 12.2h-8l-6.5-10v10zM77.2 31.9l3.3-6.6-8.4-16.9h7.5l4.2 9.9 3.5-9.9h7L84 31.9zM48.6 31.9v-5.6s4.7 1.2 4.7-3.3V8.4h17.3v23.5h-6.3v-18h-4.7v9s1.3 11.7-11 9z"/><path class="st0" d="M131.6 8.4c-4.1-4.3-4.4-6.8-4.4-6.8s-.5 3-4.2 6.8-9 8.3-9 12.9 3.4 12.3 13.2 12.3 13.2-7.8 13.2-12.3-4.8-8.7-8.8-12.9zM121.3 14c-.1.3-1 2.5-1.2 4.2s-.1 4.3-.1 4.6c0 .4-.1.6-.5.4-.4-.3-2.1-1.5-1.7-4.3s2.3-4.5 3.3-5.3l.2-.1c.1.1.1.2 0 .5z"/><path class="st1" d="M0 0v43.2h43.7V0H0zm13.7 7.1s.1-2.4 2.5-2.4 2.5 2.4 2.5 2.4V24s0 1.5 1.7 1.5S22 24 22 24V7.1s.2-2.4 2.5-2.4S27 7.1 27 7.1V24s-.1 6.2-6.6 6.5c-6.6-.2-6.7-6.5-6.7-6.5V7.1zM10.3 37s-5 0-5-4.9v-25s0-2.4 2.5-2.4 2.5 2.4 2.5 2.4v23.4s-.2 1.6 1.7 1.6h22.5l-5.4-13.2s-.9-2.3 0-3.9 4.5-7.9 4.5-7.9 1-2.4 2.9-2.4 3 2 2.2 3.5c-.8 1.4-4.3 7.5-4.3 7.5s-.9 1.3 0 3c1.5 3.6 7.5 18.3 7.5 18.3H10.3z"/><path class="st0" d="M49.4 38h4.4v-3.4h.9v8.5h-.9v-4.2h-4.4v4.2h-1v-8.5h1zM61.9 35.5h-3.5V38h3.4v.9h-3.4v3.3h3.5v.9h-4.4v-8.5h4.4zM67.9 41.9h-.2c-3.2 0-3.9-2-3.9-3.3 0-1.4.7-3.3 3.9-3.3h.2v-1h1v1h.1c3.2 0 3.9 2 3.9 3.3 0 1.4-.7 3.3-3.9 3.3h-.2v1.2h-1l.1-1.2zm0-5.8h-.3c-2.3 0-2.9 1.3-2.9 2.4 0 1.1.6 2.4 2.9 2.4h.3v-4.8zm.9 4.9h.3c2.3 0 2.9-1.3 2.9-2.4 0-1.1-.6-2.4-2.9-2.4h-.3V41zM77.3 35.5v7.6h-.9v-7.6h-2.1v-.9h5.1v.9zM83 39.3c-.4 0-1-.2-1.4-.5-.6-.5-.7-1.2-.7-1.7 0-.8.2-1.3.6-1.7.7-.7 1.6-.8 2.1-.8h2v8.6h-1v-3.7h-.5l-2.4 3.7h-1.2l2.5-3.9zm.7-3.8c-.4 0-1.1 0-1.5.4-.2.2-.4.6-.4 1.1 0 .6.2.9.5 1.2.4.3.9.4 1.3.4h1v-3.1h-.9zM89.2 38h4.4v-3.4h1v8.5h-1v-4.2h-4.4v4.2h-.9v-8.5h.9zM102 40.7h-3.6l-1 2.4h-1.1l3.9-9 3.8 9h-1l-1-2.4zm-.4-.9l-1.4-3.4-1.5 3.4h2.9zM107.6 39.3c-.4 0-1-.2-1.4-.5-.6-.5-.7-1.2-.7-1.7 0-.8.2-1.3.6-1.7.7-.7 1.6-.8 2.1-.8h2v8.6h-1v-3.7h-.5l-2.4 3.7h-1.2l2.5-3.9zm.7-3.8c-.4 0-1.1 0-1.5.4-.2.2-.4.6-.4 1.1 0 .6.2.9.5 1.2.4.3.9.4 1.3.4h1v-3.1h-.9zM117.3 38.2l3.7-3.6h1.2l-4 4 4.2 4.5h-1.3l-3.5-3.9-.3.2v3.7h-.9v-8.5h.9zM123.7 38.9c0-2.6 2-4.4 4.5-4.4s4.5 1.9 4.5 4.4-2 4.4-4.5 4.4-4.5-1.9-4.5-4.4zm1 0c0 2 1.6 3.5 3.5 3.5s3.5-1.6 3.5-3.5c0-2-1.6-3.5-3.5-3.5-2-.1-3.5 1.5-3.5 3.5zM134.6 43.1l1.4-9 3.3 7.2 3.4-7.2 1.3 9h-1l-.8-5.9-2.9 6.3-2.9-6.3-.8 5.9zM152.8 34.6v8.5h-1v-7.6h-4.4v7.6h-.9v-8.5zM160.2 40.7h-3.6l-1 2.4h-1.1l3.9-9 3.8 9h-1.1l-.9-2.4zm-.4-.9l-1.4-3.4-1.5 3.4h2.9zM164.9 38h4.4v-3.4h1v8.5h-1v-4.2h-4.4v4.2h-.9v-8.5h.9zM179 36.6l-6 6.9v-8.9h1v6.5l5.9-6.9v8.9h-.9zM184.4 39.3c-.4 0-1-.2-1.4-.5-.6-.5-.7-1.2-.7-1.7 0-.8.2-1.3.6-1.7.7-.7 1.6-.8 2.1-.8h2v8.6h-1v-3.7h-.5l-2.4 3.7h-1.2l2.5-3.9zm.7-3.8c-.4 0-1.1 0-1.5.4-.2.2-.4.6-.4 1.1 0 .6.2.9.5 1.2.4.3.9.4 1.3.4h1v-3.1h-.9z"/></svg>