<svg id="Слой_1" xmlns="http://www.w3.org/2000/svg" viewBox="0 0 110 57.5"><style>.st0{fill:#686868}.st1{fill:#888}</style><path class="st0" d="M93.5 54v-8.3h2.4v3.1h2.6v-3.1h2.4V54h-2.4v-3.7h-2.6V54zM85.3 51.6c0-1.1.6-2 1.7-2.4.5-.2 1-.3 1.4-.4.4-.1.9-.1 1.6-.2v-.3c0-1.2-.7-1.4-1.5-1.4s-1.6.3-2.3.6L86 46c1-.4 2-.5 3-.5.6 0 1.2.1 1.7.2.9.3 1.4 1 1.5 1.8v6c-2 .9-6.9 1.4-6.9-1.9m4.7 1.1v-3c-1 .1-2.5.3-2.5 1.8 0 1.8 1.9 1.4 2.5 1.2zM84.6 48c-.1-.7-.5-1.2-1.1-1.7-.8-.8-3.7-1.4-5.1.7 0-2.2.9-3.3 2.8-3.6s2.9-.5 2.9-.5l-.2-1.8s-1.9.3-3.5.6c-1.7.4-3.3 1.6-3.7 4.1-.3 1.6-.2 4.4.3 5.7.6 1.5 1.7 2.7 3.8 2.7 2.8 0 4.1-1.7 4.1-4.5-.1-.5-.1-1.1-.3-1.7m-2.9 4.4c-.2.3-.6.5-1 .5-1.4 0-1.7-2.3-1.7-3.3 0-.8.2-1.7.7-2.3.2-.3.6-.4 1-.4.5 0 1 .3 1.3 1s.4 1.4.4 2.1c-.1.8-.2 1.8-.7 2.4zM102.3 54v-8.3h2.4v3.8l2.7-3.8h2.3l-2.7 3.7 3 4.6h-2.7l-2.6-4.1V54zM64.3 54.2c-.8 0-1.6-.1-2.3-.3l.2-1.5c.6.3 1.1.5 1.8.5 1.2 0 1.9-.6 1.8-1.3 0-.4-.1-.7-.4-.9-.2-.2-.5-.3-.8-.3h-1.4v-1.3h.2c.9 0 2.3 0 2.3-1.2 0-.9-.9-1.1-1.4-1.1-.8 0-1.4.2-2 .5l-.1-1.4c.8-.3 1.8-.5 2.7-.5 1.9 0 3.1.8 3.1 2.1 0 1.1-.9 1.7-1.5 1.9.4.1.8.2 1.1.4.6.4.8 1 .8 1.6 0 1.1-.6 1.8-1.4 2.2-1 .5-2 .6-2.7.6M42.8 54.2c-2.7 0-4.3-1.7-4.3-4.4s1.6-4.3 4.3-4.3c.7 0 1.3.1 2 .3l-.3 1.5c-.4-.2-.8-.4-1.3-.4-1.6 0-2.3 1.3-2.3 2.8s.7 2.9 2.3 2.9c.5 0 .9-.1 1.4-.3l.2 1.5c-.7.3-1.3.4-2 .4M71.6 52.7s2.2.4 2.2-1.6c0-.4-.1-.7-.2-.9-.3-.4-.8-.5-1.4-.5H71.9h-.2l-.1 3zM69.2 54v-8.3h2.4v2.6h1c1.1 0 1.9.2 2.4.6.6.4 1 1.2 1 2.1-.1 2.7-2.8 3.2-4.3 3.2-1.6 0-2.5-.2-2.5-.2zM51.4 49.6c1-.3 1.5-.9 1.5-1.9 0-.4-.1-.8-.3-1-.2-.3-.5-.6-.9-.7-.8-.4-1.8-.4-2.7-.4-1.7 0-2.9.2-2.9.2v8.3s1.2.2 2.9.2 4.2-.4 4.3-2.5v-.1c0-1.1-.6-1.9-1.9-2.1m-2.4.8h.8c.3 0 .5.1.8.3.2.2.3.4.3.8 0 .9-.8 1.3-1.9 1.3h-.6v-2.4h.6zm-.6-1.3v-2.3h.8c1.1 0 1.4.7 1.4 1.1 0 .8-.5 1.2-1.7 1.2h-.5zM57.9 45.5c-1.7 0-3.9.3-3.9 2.5 0 1.2.6 1.9 1.7 2.2L53.5 54H56l1.8-3.3h.7V54h2.3v-8.3s-1.1-.2-2.9-.2m.6 3.8h-.6c-1.1 0-1.6-.4-1.6-1.3 0-1 .7-1.2 1.3-1.2s.9.1.9.1v2.4zM0 54V42.5h8.8V54H6.3v-9.9H2.6V54zM10.2 57.4V45.9c2.1-.4 7.8-1.6 7.8 3.5 0 1.3-.4 2.5-1.1 3.3-1.3 1.6-3.6 1.4-4.3 1.2v3.6l-2.4-.1c0 .1 0 0 0 0zm5.4-7.8c0-3.1-2.2-2.9-3-2.7v5.4c.4.1 3 1.1 3-2.7zM22.8 54.2c-2.7 0-3.9-1.8-3.9-4.3 0-2.7 1.4-4.4 4.2-4.4 1 0 1.8.2 2.4.7.6.4 1 1 1.2 1.7s.3 1.3.3 2c-.1 2.7-1.3 4.3-4.2 4.3m.1-1.3c.7 0 1.2-.6 1.4-1.3.2-.8.2-1.3.2-1.9 0-.8-.1-1.4-.3-2s-.7-.9-1.2-.9c-.7 0-1.2.5-1.4 1.2s-.3 1.3-.3 1.8c0 1 .2 3.1 1.6 3.1zM27.4 54l.8-8.3H31l1.7 5.6 1.8-5.6h2.7L38 54h-2.2l-.5-6-1.8 6h-1.9l-1.8-6-.5 6zM73.3 8.9c0-4.9-4-8.9-8.9-8.9H51.8c-4.1 0-7.5 2.7-8.6 6.5h15.2c5.9 0 8.3 2.7 8.3 9.1V30c3.8-1.1 6.5-4.5 6.5-8.6V8.9h.1z"/><path class="st1" d="M36.7 27.6c0 4.9 4 8.9 8.9 8.9h12.6c4.1 0 7.5-2.7 8.6-6.5H51.6c-5.9 0-8.3-2.7-8.3-9.1V6.5c-3.8 1.1-6.5 4.5-6.5 8.6l-.1 12.5z"/><path class="st0" d="M62.2 14c.7-.3 1.6-.9 1.6-2.4 0-1.7-1.4-2.5-3.4-2.5H57v4.2h-2c-2.7 0-3.2 1.9-3.2 2.9 0 1.5.8 2.1 2.4 2.9.9.5 2.1.8 2.1 1.8 0 .6-.5 1.2-1.6 1.2h-2.1c.3-.5.4-1.1.4-1.6 0-.7-.2-3.3-4-3.3h-3v10.2h2.1v-4.5l.8.8h5.7c2.6 0 3.9-1.4 3.9-3 0-.6-.1-1-.3-1.4h2.1c3.3 0 4-1.6 4-2.9 0-1.2-.8-2.2-2.1-2.4m-13.1 8.1h-1v-3.4h1c1.2 0 1.8.7 1.8 1.6-.1.9-.6 1.8-1.8 1.8zm8-6.4v2.5c-.5-.3-1.1-.5-1.7-.8-.7-.3-1.4-.7-1.4-1.5 0-.4.3-1 1.5-1h2.3l-.7.8zm2-5h.9c1.6 0 1.7 1 1.7 1.3 0 .4-.2 1.3-1.6 1.3h-1v-2.6zm1.2 7h-1.2v-2.9h1.2c1.4 0 1.8.7 1.8 1.4s-.5 1.5-1.8 1.5z"/></svg>