<svg id="Слой_1" xmlns="http://www.w3.org/2000/svg" viewBox="0 0 137.3 167.3"><style>.st0{fill:#686868}.st1{fill:#888}</style><path class="st0" d="M60.5 123.6H25.7l-3.2-25.8L1.3 82.4C.4 77.9 0 73.2 0 68.7 0 30.8 30.8 0 68.6 0c37.9 0 68.7 30.8 68.7 68.7 0 4.5-.5 9.2-1.4 13.7l-21.1 15.3-3.2 25.8H76.7l-2 1.4c-1.7 1.3-3.8 2-6.1 2-2.1 0-4.2-.7-6.1-2l-2-1.3zm1.1-12H36.3l-2.5-20.5L12.9 76c-.6-2.4-.9-4.8-.9-7.3 0-4.1.8-8.2 2.5-11.9l36.9 37.3-35.9-44.4c1.4-5.8 4.5-10.9 9-14.8l32.2 55.6-28.6-60.8c3.7-4.9 8.9-8.6 14.7-10.4l19.7 69-14.3-71.9c4.3-2.4 9.3-3.7 14.3-3.7 1 0 2.1 0 3.1.2l2.9 74.7 2.9-74.7c1.1-.2 2.1-.2 3.2-.2 5 0 9.9 1.3 14.3 3.7L74.7 88.3l19.7-69c6 1.8 11.1 5.4 14.7 10.4L80.5 90.5l32.2-55.6c4.4 3.9 7.6 9.1 9 14.8L85.8 94.1l37-37.3c1.6 3.7 2.5 7.8 2.5 11.9 0 2.4-.3 4.8-.9 7.3l-20.9 15.1-2.6 20.5H75.6l-3.7 2.7c-.9.7-2 1-3.2 1-1.1 0-2.3-.3-3.2-1l-3.9-2.7z"/><path class="st1" d="M61.6 111.6H36.3l-2.5-20.5L12.9 76c-.6-2.4-.9-4.8-.9-7.3 0-4.1.8-8.2 2.5-11.9l36.9 37.3-35.9-44.4c1.4-5.8 4.5-10.9 9-14.8l32.2 55.6-28.6-60.8c3.7-4.9 8.9-8.6 14.7-10.4l19.7 69-14.3-71.9c4.3-2.4 9.3-3.7 14.3-3.7 1 0 2.1 0 3.1.2l2.9 74.7 2.9-74.7c1.1-.2 2.1-.2 3.2-.2 5 0 9.9 1.3 14.3 3.7L74.7 88.3l19.7-69c6 1.8 11.1 5.4 14.7 10.4L80.5 90.5l32.2-55.6c4.4 3.9 7.6 9.1 9 14.8L85.8 94.1l37-37.3c1.6 3.7 2.5 7.8 2.5 11.9 0 2.4-.3 4.8-.9 7.3l-20.9 15.1-2.6 20.5H75.6l-3.7 2.7c-.9.7-2 1-3.2 1-1.1 0-2.3-.3-3.2-1l-3.9-2.7z"/><path class="st0" d="M127.9 166.5v-29.2h9.4v29.2zM110.2 166.5v-29.2h9.4v29.2zM104.4 157.1H82.6v.4c0 .3 0 .6.1.9 0 .3.1.6.2.9.1.3.3.7.6 1 .2.3.4.6.7.9.3.3.7.5 1.1.7s.8.4 1.3.6c.4.1.8.2 1.2.2.5.1.9.1 1.3.1h.1c.3 0 .7 0 1.1-.1.4 0 .8-.1 1.1-.2.4-.1.8-.2 1.1-.4.3-.1.6-.3.9-.5.1-.2.3-.4.5-.6.1-.2.3-.4.4-.7v-.1c0-.1.1-.1.1-.2h9.3c-.1.1-.1.3-.2.4 0 0 0 .1-.1.2-.1.3-.3.7-.5 1-.3.4-.6.7-.9 1.1-.4.5-.9.9-1.4 1.3-.5.4-1.1.7-1.6 1.1-.8.4-1.5.7-2.3 1-.9.3-1.8.5-2.7.7-.8.1-1.6.3-2.5.3-.8.1-1.6.1-2.4.1h-.2c-.9 0-1.9 0-2.8-.1-.8-.1-1.7-.3-2.5-.4-1.2-.3-2.3-.7-3.3-1.1-1-.5-2-1.1-2.9-1.7-.7-.6-1.3-1.2-1.9-1.9-.5-.6-1-1.4-1.3-2.2-.3-.6-.5-1.3-.7-2-.1-.7-.2-1.4-.2-2.2 0-.7.1-1.5.2-2.3.2-.7.4-1.4.7-2.1.4-.8.9-1.5 1.5-2.2.6-.8 1.3-1.4 2.1-2 .8-.6 1.6-1.1 2.4-1.5.9-.4 1.7-.7 2.7-1 .9-.2 1.8-.4 2.7-.5 1-.1 2-.2 2.9-.2h.4c1 0 2 .1 3 .2 1 .2 2 .4 2.9.6 1 .3 2.1.7 3 1.2s1.8 1 2.6 1.7c.7.6 1.4 1.3 2 2.2.5.8.9 1.6 1.2 2.6.2.6.4 1.2.5 1.9s.2 1.4.2 2.2v.2c.1.2.1.3.1.5zm-9-4.4H82.7v-.3c0-.1 0-.1.1-.2 0-.2.1-.4.1-.6.1-.3.2-.5.3-.7.2-.2.3-.5.5-.7.2-.3.5-.5.7-.7.3-.3.7-.5 1.1-.7.3-.2.7-.4 1.1-.5l1.2-.3h1.3c.5 0 1 0 1.4.1.5.1.9.2 1.3.4.4.1.7.2 1 .4.4.2.7.5.9.7.3.2.4.4.6.6.2.2.3.4.5.7.1.2.2.4.3.7.1.2.1.5.2.7v.1c.1.1.1.2.1.3zM48.1 137.3v9.8l.4-.4c.1 0 .1-.1.2-.1.4-.3.8-.6 1.2-.8.5-.3 1.1-.6 1.6-.8.7-.3 1.3-.5 1.9-.7.6-.2 1.2-.3 1.9-.4.5-.1 1.1-.2 1.7-.3h1.8c.6 0 1.3.1 1.9.2.6.1 1.2.3 1.8.5s1.3.5 1.8.9c.6.4 1.2.9 1.7 1.4.4.5.8 1.1 1.1 1.6.3.5.5 1.1.6 1.6s.2 1 .2 1.5c.1.6.1 1.3.1 1.9v13.2h-9.1v-12.1c0-.4-.1-.9-.1-1.3v-.7c0-.3-.1-.7-.3-1l-.6-.9c-.3-.3-.6-.5-.9-.7-.3-.2-.6-.4-1-.5-.3-.1-.7-.2-1-.2-.4-.1-.7-.1-1-.1h-.2c-.3 0-.7.1-1.1.1l-.9.3c-.4.1-.8.3-1.1.5-.4.3-.7.6-1.1.9l-.9 1.2c-.2.4-.4.8-.5 1.3-.1.3-.1.6-.1.8-.1.4-.1.8-.1 1.2v11.2h-9.4v-29.2l9.5.1zM32.3 146.1h-9.7v-.3-.2c0-.3 0-.6-.1-.8-.1-.3-.2-.5-.3-.8-.1-.2-.2-.4-.4-.7-.2-.2-.4-.4-.7-.6-.2-.2-.5-.4-.8-.5-.3-.2-.6-.3-.9-.4l-1.2-.3c-.4-.1-.8-.1-1.2-.1h-1.1c-.4 0-.7.1-1.1.2-.4 0-.7.1-1.1.3-.3.1-.6.3-1 .4-.2.2-.5.4-.7.6-.3.2-.5.4-.6.7-.2.2-.3.5-.4.7-.1.3-.2.6-.2.9 0 .2.1.5.2.8 0 .2.2.5.3.7l.7.7c.3.1.6.3.9.4.3.1.6.2.9.2.5.1.9.2 1.4.2.6.1 1.3.1 1.9.2.6 0 1.3.1 1.9.1 1 .1 2.1.1 3.1.2.5 0 .9.1 1.3.1.9.1 1.9.2 2.8.4.8.2 1.5.4 2.3.7s1.6.8 2.2 1.4c.7.5 1.2 1.2 1.6 1.9.3.5.5 1.1.6 1.6.1.6.2 1.2.2 1.9 0 .6-.1 1.3-.2 1.9-.1.6-.4 1.2-.6 1.7-.4.7-.8 1.4-1.3 1.9-.5.6-1 1-1.6 1.4-.9.6-1.8 1.1-2.8 1.5s-2.1.7-3.2 1c-1.1.2-2.2.3-3.3.5-1.2.1-2.4.1-3.6.2h-.4c-1 0-2-.1-3-.1-1.1-.1-2.2-.2-3.3-.4-1-.2-1.9-.4-2.9-.7-.9-.2-1.7-.6-2.5-1-.6-.3-1.1-.6-1.6-1-.5-.5-.9-1-1.3-1.5-.2-.4-.4-.7-.6-1.1-.2-.5-.3-.9-.4-1.4-.1-.3-.2-.6-.2-.9-.3-.3-.3-.6-.3-1v-.1-.3h9.7v.7c0 .2.1.5.1.8l.3.6c.2.3.4.5.6.8.2.2.5.4.7.6.4.2.7.4 1.1.6.4.1.9.3 1.3.4.4.1.9.2 1.4.3.4 0 .9.1 1.4.1.5 0 .9-.1 1.3-.1.5 0 .9-.1 1.4-.2.4-.1.8-.2 1.2-.4.3-.1.6-.2.9-.4.3-.1.6-.3.8-.5.2-.3.4-.5.6-.8.1-.3.2-.5.3-.8.1-.3.1-.6.1-.9 0-.2 0-.5-.1-.8 0-.2-.1-.4-.3-.6-.2-.3-.4-.5-.6-.7-.3-.2-.6-.3-1-.4-.3-.1-.7-.2-1.1-.3-.5 0-.9-.1-1.4-.1l-4.4-.3c-.8-.1-1.7-.1-2.6-.2-.8-.1-1.7-.2-2.6-.3-.9-.2-1.8-.4-2.6-.6-.6-.2-1.2-.4-1.8-.7-.5-.3-1-.6-1.4-1-.5-.5-.9-1.1-1.2-1.6-.4-.6-.6-1.2-.8-1.9-.1-.6-.2-1.3-.2-1.9 0-.8 0-1.5.2-2.3.2-.6.4-1.3.8-1.8.4-.8 1-1.5 1.7-2.2.7-.6 1.4-1.1 2.3-1.5.8-.4 1.7-.7 2.5-1 1-.3 2-.5 3-.6.9-.2 1.8-.3 2.7-.3.9-.1 1.7-.1 2.6-.1h.4c1 0 2 .1 3 .1.9.1 1.9.3 2.8.4.9.2 1.9.5 2.7.8.8.3 1.6.6 2.4 1.1.5.3 1 .6 1.4 1 .5.4.8.9 1.1 1.4.3.3.5.7.6 1.1.2.4.3.8.5 1.2 0 .3.1.5.1.8.1.3.1.5.2.8v.2c0 .1.2.2.2.3z"/></svg>