<svg id="Layer_1" xmlns="http://www.w3.org/2000/svg" viewBox="0 0 1023 438"><style>.st0{fill:#686868}.st1{fill:#888}</style><path class="st0" d="M629.2 0h14.5c5.7.5 11.3 1.5 16.8 3-2.8 5-6.1 9.7-9.2 14.5-7.1 10.8-13.8 22-21.3 32.5 6.5-12.2 14-23.8 20.1-36.2-17.4-1.7-35.9 1-50.6 10.8-7.7 4.9-12.7 12.8-17.8 20.2-14.8 22.8-27.8 46.7-42.2 69.6-9.4 14.7-19.1 29.3-31.1 42-5.7 5.8-12 11.5-19.8 14.1-7.9 2.1-16.1 2.5-24.2 1.9 8.6-.1 17.9.4 25.5-4.6 11.8-7.7 20.2-19.5 28.1-30.9 13.2-19.8 24.3-40.9 35.5-61.9 8.2-15.2 16-30.7 25.2-45.3-31-21.9-72.9-27.2-108.4-13.6-19.7 7.3-37.2 20.2-50.5 36.4-1.4 2.5-4.4 1.1-6.6 1.2-6.6-.5-13.1 1.3-19.3 3.3 14.8-22.7 37.3-40.3 62.9-49.3C481-1 508-1.9 532.8 5.1c16.9 4.6 32.6 13.1 46.2 24 2.9-4.4 5.8-8.8 9.7-12.4C599.9 6.8 614.5 1.3 629.2 0z"/><path class="st0" d="M383 75.8c4.1-6.8 11.2-11.5 19-12.8 9.4-1.6 19.1.4 27.8 4-3.7 1.1-6.9 3.3-9.3 6.4-6.7 9.1-10.5 20.3-10.2 31.5 0 9.1 2.9 18 6.2 26.4 8.9 22.1 24.9 41 44.1 55 20.1 14.6 43.8 24.3 68.5 27.5 22.9 3 46.7.3 67.8-9.4-9 11.4-20.3 21.1-32.9 28.5-16.9 10.1-36.1 16.8-55.9 18-29.4 2.1-59.5-6.3-83.3-23.7-15-11.6-27.8-26.2-36.8-42.9-18-32.9-20.2-74.1-5-108.5z"/><path class="st0" d="M605.9 87.6c16.2-7.5 34.8-5 52-2.8 0 .4-.1 1.1-.1 1.5-11 15.7-23.1 30.8-34.4 46.3-4.4 1.1-9.1 1.3-13.1 3.6-8.5 4.5-16.7 9.7-24.2 15.8-14.7 12.4-28.1 26.6-45 36-7.1 4.1-14.9 6.6-22.9 8.3-4.9.9-10-.3-14.8 1-9.4-3.7-18-9.3-26.3-15 12.6 2.1 25.9 2.3 38.1-2 9.1-3.4 16-10.6 22.3-17.7 12.6-14.5 25.2-28.9 37.2-43.9 9.2-11.4 18.6-23.3 31.2-31.1z"/><path class="st1" d="M610.2 136.2c4.1-2.2 8.7-2.5 13.1-3.6 13.8-1.3 27.7 2.5 39.7 9.1-13.7 14-27.4 28-41.7 41.4-6.5 5.8-12.6 12.3-20.3 16.5-9.5 5.4-20.3 7.9-31 9.4-22.8 1.7-46.1-2.4-67-11.9h.2c4.8-1.3 9.9-.1 14.8-1 8-1.6 15.8-4.2 22.9-8.3 17-9.3 30.4-23.6 45-36 7.6-5.9 15.7-11.1 24.3-15.6z"/><path class="st0" d="M0 308.1c-.5-3.7 3.7-6 7-5.8h97c3.8-.3 7.5 2.8 7.5 6.6.2 3 .2 6 0 9-.4 3.6-3.9 6.4-7.5 6.2-11.4.1-22.7-.1-34 .1-.1 27 0 54-.1 81 .4 3.8-2.9 7.6-6.8 7.6-5 .2-10.1.1-15.1 0-4 0-7.4-3.7-7.1-7.7v-80.9c-11.3-.1-22.6 0-33.9 0-2.8.1-6.1-1.3-6.9-4.1-.1-4.1 0-8.1-.1-12zM452.6 327.7c12.6-1.9 25.9-1.3 38.1 2.9 8.5 2.9 16.2 9.9 17.2 19.3.9 3.2.3 8-3.8 8.3-4.7.1-9.4.3-14.1-.1-4.4-.7-6.3-5.1-9.1-8-5-4.5-12.3-5.3-18.8-4.5-5.1.5-10.3 3.1-12.6 7.8-3.5 6.9-3.4 15-3 22.6.4 6.7 2.6 14.4 9.2 17.5 6.9 3 15.2 3 22.1.1 3.9-1.5 6-5.3 8.6-8.3 3.6-3.6 9.1-2.2 13.7-2.5 3.1-.1 7.6-.5 8.6 3.3.9 7.1-2.1 14.5-7.6 19-7.7 6.4-17.9 8.2-27.6 9.1-13.4.8-28.1-.1-39.4-8.1-9.1-6.3-13.8-17.2-14.9-28-1.2-12.3.2-25.8 7.8-36 6-8.2 15.7-12.8 25.6-14.4zM317.4 333.9c-.4-2.7 1.6-5.6 4.5-5.5 5.7-.1 11.4-.1 17.1 0 2.6-.3 5.1 1.9 5 4.6.2 9.3-.1 18.5.1 27.8 11.2-.1 22.4 0 33.6 0 .1-9.2 0-18.5.1-27.7-.1-2.7 2.4-4.9 5.1-4.6 5.7 0 11.5-.1 17.2 0 2.9-.1 4.8 2.9 4.5 5.5v73.1c.4 2.8-1.6 5.9-4.6 5.7-5.6.1-11.3 0-16.9 0-2.7.3-5.2-1.9-5.2-4.6-.1-9.6.1-19.2-.1-28.8h-33.6c-.1 9.6.1 19.2-.1 28.8.2 2.7-2.4 4.9-5 4.7-5.7 0-11.4.1-17.1 0-2.5.1-4.7-2.2-4.5-4.7-.1-24.9-.1-49.6-.1-74.3zM521.5 334c-.4-2.7 1.6-5.7 4.5-5.6 5.7-.1 11.4 0 17.1 0 2.6-.3 5.2 1.9 5.1 4.6.2 9.2-.1 18.5.1 27.7 11.2-.1 22.4-.1 33.6 0 .2-9.2-.1-18.5.1-27.7-.1-2.7 2.4-4.9 5-4.6 5.7 0 11.5-.1 17.2 0 2.5-.1 4.6 2.3 4.5 4.7.1 24.3 0 48.6.1 72.9 0 1.8.1 3.9-1.3 5.3-1.6 1.8-4.2 1.3-6.3 1.4-5-.1-10 .1-14.9-.1-2.4-.1-4.3-2.3-4.2-4.7-.2-9.6.1-19.2-.1-28.7-11.2.1-22.4 0-33.6 0-.1 9.5 0 19.1-.1 28.6.1 2.4-1.8 4.7-4.3 4.7-5 .2-9.9 0-14.9.1-2.1-.1-4.7.3-6.3-1.5-1.4-1.4-1.3-3.4-1.3-5.3 0-23.8-.1-47.8 0-71.8zM842.5 332.2c.3-2.7 3-4.1 5.5-3.8h75c2.5-.2 4.9 2 4.7 4.6 0 3.6.3 7.2-.2 10.7-.8 3.3-4.7 3.5-7.5 3.4-7.2-.2-14.4-.1-21.7.1.1 20.3.1 40.6 0 60.8.2 2.4-2 4.7-4.4 4.7-5.7.1-11.4.1-17 0-2.7.3-5.4-2-5.2-4.8 0-20.3-.1-40.5 0-60.8-8.5-.6-17 .4-25.5-.4-2-.1-3.7-1.9-3.8-3.9-.1-3.5-.2-7.1.1-10.6zM633.9 339c8.7-9.1 21.9-12.3 34.1-12.2 12.7 0 26.4 3.4 35 13.3 8.5 9.4 10.4 22.8 9.6 35-.3 2.2-2.4 3.8-4.6 3.7-19.3.2-38.7-.1-58.1.1.4 6.1 2.6 12.9 8.4 15.8 6.5 3 14.1 2.9 20.8.7 4.8-1.2 6.8-6.8 11.8-7.5 4.6-.5 9.3-.2 13.9-.2 2.2-.2 4.4 1.4 4.8 3.5.6 5.3-1.4 10.8-5.3 14.4-4 3.6-9.1 5.5-14.3 6.8-8.9 2.1-18.2 2.4-27.3 2-10.8-.8-22.1-4.3-29.6-12.5-8-8.4-10.7-20.5-10.5-31.8.3-11.3 3.3-23 11.3-31.1zm21.5 9.4c-3.9 3.5-5.4 8.9-5.4 13.9 11.9.1 23.7.1 35.6 0-.3-4.5-1.2-9.2-4.1-12.8-3-3.6-7.9-5.1-12.5-5.2-4.8-.2-10 .7-13.6 4.1zM134.5 335.1c8.7-5.6 19-9.1 29.5-8.3 9.6.5 19.3 4.3 25.8 11.6 8.2 9 10.8 21.7 10.5 33.5-.2 11.4-3.3 23.5-11.8 31.6-8 7.9-19.6 11-30.6 10.8-7.3.2-14.3-1.9-21.2-3.8-.1 7.8.1 15.7-.1 23.5 0 1.6-.8 3.9-2.8 3.9-6.9.1-13.9 0-20.8 0-1.7.3-2.7-1.6-3-3-.3-2.3-.2-4.7-.2-7v-94c-.3-2.6 1.3-5.5 4.1-5.6 5.3-.2 10.7-.2 16 0 3.6.2 4.9 3.9 4.6 6.8zm2.4 17.1c-.3 11.9 0 23.9-.1 35.8.2 1.5-.6 3.4.5 4.6 4.8 1.7 9.8 2.6 14.8 3 5.8.3 12.4-.8 16.1-5.7 3.8-5.1 4.4-11.8 4.6-17.9 0-6.8-.2-14-3.8-20-2.7-4.4-8-6.6-13-6.6-7-.2-13.2 3.5-19.1 6.8zM767.4 307.1c-.1-2.4 2-4.9 4.5-4.7 6-.1 12-.1 18 0 2.8.1 4.4 3.1 4.2 5.6v20.2c11.9.7 24.6 2.7 34 10.7 8.3 6.8 12.2 17.6 12.6 28 .7 11.8-1.8 24.6-10.4 33.2-9.4 9.5-23.2 12.1-36.1 12.7 0 7.1.1 14.1 0 21.2-.1 1.7-1 4.3-3.2 4-7.2-.1-14.5.2-21.7-.1-1.2-.9-1.9-2.3-1.8-3.8-.1-7.1 0-14.2-.1-21.3-12.3-.6-25.3-2.9-34.8-11.4-8.6-7.6-12-19.4-11.9-30.5-.2-11.2 2.8-23.2 11.3-30.9 9.5-8.8 22.8-11.3 35.3-11.8.2-7 0-14.1.1-21.1zm26.1 38.4c.3 16.8-.1 33.6.2 50.4 5.3-.2 10.9-1.5 14.6-5.5 4.7-5.2 5.5-12.6 5.8-19.4-.1-5.9-.5-12.2-3.6-17.5-3.2-5.8-10.5-8.8-17-8zm-41.6 6.6c-3.7 5.2-4.4 11.8-4.5 18 0 6.9.7 14.5 5.4 19.9 3.6 4.4 9.6 5.8 15 5.9.1-16.8-.1-33.6.1-50.5-6-.4-12.4 1.7-16 6.7zM938.8 334c-.3-2.7 1.5-5.6 4.4-5.6 5.9-.2 11.8-.1 17.7 0 2.6-.1 4.7 2.2 4.6 4.8.2 7.7-.1 15.4.1 23.1 8.8.1 17.6-.1 26.5.1 7.5.3 15.4 1.6 21.7 6 5.4 3.7 8.1 10 9.4 16.3v11.2c-.9 6.3-3.6 12.6-8.8 16.5-7.4 5.6-17.2 6.5-26.2 6.5-15-.1-29.9.1-44.9-.1-3 0-4.7-3-4.4-5.7-.1-24.4-.1-48.8-.1-73.1zm26.6 40.1c.1 6.9.1 13.8 0 20.8 7.5.6 15.1.3 22.6.2 10.2-.5 11.6-17.2 2.6-20.6-3.8-1.2-7.8-.6-11.6-.7-4.5.1-9.1-.3-13.6.3zM222.6 334.6c6.9-5.3 16-6.6 24.4-7.5 11.6-.9 23.9-.8 34.7 4.3 7.2 3.4 13 9.8 15.3 17.5 1.6 5.2 1.7 10.7 1.6 16.1v42.9c.1 2.4-1.8 4.8-4.4 4.8-4.4.2-8.8 0-13.1.1-1.9-.1-4.1.2-5.5-1.3-1.5-1.4-1.2-3.6-1.5-5.5-9 6.2-20.1 9.1-31 8.3-9.2-.5-18.9-2.9-25.9-9.4-7.9-7.3-9.5-20.1-4.5-29.5 3.8-7 11.1-11.2 18.6-13.2 13.3-3.4 27.1-1.2 40.7-2-.1-5.4-1.3-12-6.8-14.4-6-2.4-13-2-19.1.2-4.4 1.4-6.4 6.6-11.1 7.3-4.9.5-9.9.3-14.8.2-2.7-.1-4.6-3-4.3-5.5.2-5.2 2.5-10.2 6.7-13.4zm17 46c-3.8 3-4 9.2-.8 12.6 2.4 2.5 5.9 3.4 9.3 3.5 8.4.3 16.7-2.5 23.7-6.9V378c-6.9-.3-13.9-.1-20.8-.2-3.9.1-8.3.1-11.4 2.8z"/></svg>