<svg xmlns="http://www.w3.org/2000/svg" viewBox="0 0 2815.3 678"><style>.st0{fill:#686868}.st1{fill:#888}</style><g id="Слой_6"><path class="st0" d="M2484.1 498.3V414s70.8 18.1 70.8-49.7V144.5h260.5v353.8h-94.8v-271h-70.8v135.5c1.4 0 20.9 176.2-165.7 135.5zM2202.5 64.7l55.7-21.1s1.5 30.1 40.6 30.1 40.6-30.1 40.6-30.1l55.7 21.1s-15.1 58.7-97.9 58.7c-81.1 0-94.7-58.7-94.7-58.7zm-63.2 432.1h94.8l131-212.3v212.3h91.8V143h-96.4L2231 356.8V143h-91.8v353.8h.1zM1440.8 496.8V143h96.3v149.1L1635 143h112.9l-126.5 170.1 134 183.7H1635l-97.9-150.5v150.5zM1162.2 496.8l49.7-99.4L1085.5 143h112.9l63.2 149.1 52.7-149.1h105.4l-155.1 353.8zM731.7 496.8v-84.3s70.8 18.1 70.8-49.7V143H1063v353.8h-95v-271h-70.8v135.5c.1 0 19.6 176.2-165.5 135.5z"/><path class="st0" d="M1981.2 143C1919.5 78.3 1915 40.6 1915 40.6s-7.5 45.2-63.2 102.4-135.5 125-135.5 194.2 51.2 185.2 198.7 185.2 198.7-117.4 198.7-185.2-72.2-131-132.5-194.2zm-155 84.3c-1.5 4.5-15.1 37.6-18.1 63.2-3 25.6-1.5 64.7-1.5 69.3 0 6-1.5 9-7.5 6-6-4.5-31.6-22.6-25.6-64.7 6-42.2 34.6-67.7 49.7-79.8l3-1.5c1.5 1.5 1.5 3 0 7.5z"/><path class="st1" d="M0 16.6V667h657.9V16.6H0zm206.3 106.8s1.5-36.1 37.6-36.1 37.6 36.1 37.6 36.1v254.4s0 22.6 25.6 22.6 24.1-22.6 24.1-22.6V123.4s3-36.1 37.6-36.1 37.6 36.1 37.6 36.1v254.4s-1.5 93.3-99.4 97.9c-99.4-3-100.9-97.9-100.9-97.9V123.4h.2zm-51.2 450.2s-75.3 0-75.3-73.8V123.4s0-36.1 37.6-36.1 37.6 36.1 37.6 36.1v352.3s-3 24.1 25.6 24.1h338.7L438 301.1s-13.5-34.6 0-58.7 67.7-118.9 67.7-118.9 15.1-36.1 43.7-36.1 45.2 30.1 33.1 52.7c-12 21.1-64.7 112.9-64.7 112.9s-13.5 19.6 0 45.2c22.6 54.2 112.9 275.5 112.9 275.5l-475.6-.1z"/><path class="st0" d="M743.7 588.6H810v-51.1h13.5v127.9H810v-63.2h-66.3v63.2h-15V537.5h15zM931.9 551h-52.7v37.6h51.2v13.6h-51.2v49.7h52.7v13.5h-66.2V537.5h66.2zM1022.2 647.4h-3c-48.2 0-58.7-30.1-58.7-49.7 0-21.1 10.5-49.7 58.7-49.7h3v-15.1h15.1V548h1.5c48.2 0 58.7 30.1 58.7 49.7 0 21.1-10.5 49.7-58.7 49.7h-3v18.1h-15.1l1.5-18.1zm0-87.4h-4.5c-34.6 0-43.7 19.6-43.7 36.1 0 16.6 9 36.1 43.7 36.1h4.5V560zm13.6 73.8h4.5c34.6 0 43.7-19.6 43.7-36.1 0-16.6-9-36.1-43.7-36.1h-4.5v72.2zM1163.7 551v114.4h-13.5V551h-31.6v-13.5h76.8V551zM1249.6 608.2c-6 0-15.1-3-21.1-7.5-9-7.5-10.5-18.1-10.5-25.6 0-12 3-19.6 9-25.6 10.5-10.5 24.1-12 31.6-12h30.1V667h-15.1v-55.7h-7.5L1230 667h-18.1l37.7-58.8zm10.5-57.2c-6 0-16.6 0-22.6 6-3 3-6 9-6 16.6 0 9 3 13.5 7.5 18.1 6 4.5 13.5 6 19.6 6h15.1V551h-13.6zM1342.9 588.6h66.2v-51.1h15.1v127.9h-15.1v-63.2h-66.2v63.2h-13.5V537.5h13.5zM1535.6 629.3h-54.2l-15.1 36.1h-16.6l58.7-135.5 57.2 135.5h-15.1l-14.9-36.1zm-6-13.6l-21.1-51.2-22.6 51.2h43.7zM1619.9 608.2c-6 0-15.1-3-21.1-7.5-9-7.5-10.5-18.1-10.5-25.6 0-12 3-19.6 9-25.6 10.5-10.5 24.1-12 31.6-12h30.1V667h-15v-55.7h-7.5l-36.1 55.7h-18.1l37.6-58.8zm10.6-57.2c-6 0-16.6 0-22.6 6-3 3-6 9-6 16.6 0 9 3 13.5 7.5 18.1 6 4.5 13.5 6 19.6 6h15.1V551h-13.6zM1765.9 591.7l55.7-54.2h18.1l-60.2 60.2 63.2 67.7h-19.5l-52.7-58.7-4.6 3v55.7h-13.5V537.5h13.5zM1862.3 602.2c0-39.1 30.1-66.2 67.7-66.2s67.7 28.6 67.7 66.2-30.1 66.2-67.7 66.2-67.7-28.6-67.7-66.2zm15.1 0c0 30.1 24.1 52.7 52.7 52.7s52.7-24.1 52.7-52.7c0-30.1-24.1-52.7-52.7-52.7-30.2-1.5-52.7 22.6-52.7 52.7zM2026.4 665.4l21.1-135.5 49.7 108.4 51.1-108.4 19.6 135.5h-15l-12.1-88.8-43.6 94.8-43.7-94.8-12 88.8zM2300.4 537.5v127.9h-15.1V551h-66.2v114.4h-13.5V537.5zM2411.8 629.3h-54.2l-15.1 36.1H2326l58.7-135.5 57.2 135.5h-16.6l-13.5-36.1zm-6-13.6l-21.1-51.2-22.6 51.2h43.7zM2482.6 588.6h66.2v-51.1h15.1v127.9h-15.1v-63.2h-66.2v63.2H2469V537.5h13.6zM2694.8 567.6l-90.3 103.8V537.5h15.1v97.8l88.8-103.9v134h-13.6zM2776.1 608.2c-6 0-15.1-3-21.1-7.5-9-7.5-10.5-18.1-10.5-25.6 0-12 3-19.6 9-25.6 10.5-10.5 24.1-12 31.6-12h30.1V667h-15.1v-55.7h-7.5l-36.1 55.7h-18.1l37.7-58.8zm10.6-57.2c-6 0-16.6 0-22.6 6-3 3-6 9-6 16.6 0 9 3 13.5 7.5 18.1 6 4.5 13.5 6 19.6 6h15.1V551h-13.6z"/></g></svg>