<svg xmlns="http://www.w3.org/2000/svg" viewBox="0 0 2815.3 678"><style>.st0{fill:#888}.st1{fill:#686868}</style><g id="Слой_4"><g id="_x23_7e7d7bff"><path class="st0" d="M226.3 21.3C264.9 4.7 307.5 0 349.2 0c-20.5 26.8-38.6 55.2-50.5 86.7 15-8.7 30-16.6 44.1-26.8C359.4 40.2 372 16.5 394 3.1c46.5 7.1 93 21.3 131.7 49.7-18.1 2.4-36.3 3.2-53.6 4.7 13.4 7.9 26.8 15.8 41 22.9 25.2 10.2 59.1.8 78 23.7 71 72.5 106.4 179 90.7 279.9-15 31.5-41.8 57.6-67 81.2 17.3-44.9 33.1-92.2 26-141.1-3.9-48.1-25.2-93-56.8-128.5 0 16.6.8 33.1 0 49.7 30.7 54.4 37.8 122.2 12.6 179.7-22.9 53.6-70.2 104.1-131.7 110.4-53.6 7.9-111.9 8.7-160.8-16.6 96.2-1.6 186.1-67 216.8-158.5-22.9 11.8-46.5 23.7-59.1 46.5C403.5 490.4 275 514 192.2 453.3c-49.7-46.5-83.6-108.8-94.6-175.8 53.6 80.4 152.9 131.7 249.9 108.8-41-33.1-97-22.1-141.1-48.1-79.6-41.8-130.9-146.6-91.5-231.8 8.7-33.9 41.8-49.7 68.6-66.2-15 73.3 1.6 153.7 52.8 209.7-.8-21.3 3.2-43.4-6.3-63.1-24.2-50.4-32.1-115.1-3.7-165.5m160.8 59.9c-50.5 8.7-94.6 44.9-111.2 93-22.9 59.1 1.6 130.9 53.6 165.6 48.1 33.9 117.5 33.1 164.8-2.4 48.9-34.7 71-101.7 52-158.5-18.9-65.4-91.4-110.3-159.2-97.7zM1955.2 331.1c10.2-43.4 68.6-53.6 103.3-32.3 18.1 11.8 19.7 35.5 23.7 54.4-15 .8-30 .8-44.9.8-.8-6.3-2.4-18.1-3.2-24.4-11.8-4.7-26.8-7.1-33.9 7.1-3.2 30.7-2.4 62.3 0 93 0 18.1 20.5 12.6 32.3 12.6 2.4-10.2 3.9-20.5 6.3-30.7 14.2 0 29.2 0 43.4.8 0 22.1-3.9 47.3-24.4 59.9-33.1 21.3-91.5 12.6-101.7-30.7-6.5-35.6-7.2-73.4-.9-110.5zM2097.9 293.3h125.4c0 11.8 0 24.4-.8 36.3h-80.4v33.9c18.9 0 37.8 0 56 .8v37.1h-56V440c29.2.8 57.6 0 86.7-.8 0 12.6 0 26 .8 38.6-44.1.8-87.5 0-131.7 0-.8-60.8 0-123 0-184.5zM2243.7 293.3c31.5.8 63.1-3.2 93.8 3.2 47.3 11.8 49.7 89.9 5.5 108-17.3 7.1-37.1 5.5-55.2 7.1.8 22.1.8 44.1.8 66.2h-45.7c.8-61.5 0-123 .8-184.5m44.9 32.3v51.2c12.6-3.2 31.5.8 38.6-14.2 3.9-10.2 2.4-21.3-2.4-31.5-11.7-3.1-24.3-3.9-36.2-5.5zM2388.8 293.3c32.3.8 66.2-4.7 98.5 3.9 33.9 14.2 31.5 58.3 11 83.6 26.8 25.2 26 81.2-13.4 93.8-30.7 7.9-63.9 2.4-95.4 3.9-3.1-61.5-.7-123.7-.7-185.2m42.5 30.7c0 15 0 29.2.8 43.4 11.8-1.6 23.7-3.2 34.7-7.1 3.2-9.5 3.9-18.9.8-28.4-9.5-9.5-24.4-6.3-36.3-7.9m0 73.3v48.9c15.8-2.4 41.8 1.6 41-21.3 5.6-25.2-22.8-26-41-27.6zM2532.3 293.3c13.4 0 26.8-.8 41-.8.8 32.3.8 63.9 0 96.2 18.9-30.7 35.5-63.9 53.6-95.4 13.4 0 27.6-.8 41-.8.8 61.5.8 123.8 0 186.1h-41c0-37.8-1.6-75.7 2.4-113.5-18.1 39.4-39.4 76.5-60.7 113.5h-36.3c-.8-61.6-.8-123.8 0-185.3zM2689.9 331.1c10.2-44.9 73.3-55.2 106.4-29.2 16.6 12.6 16.6 33.9 18.9 52.8-14.2 0-28.4 0-42.6-.8-.8-19.7-18.9-37.8-37.1-21.3-6.3 36.3-3.2 74.1-.8 110.4h30c4.7-9.5 3.2-22.9 11.8-30 12.6-1.6 25.2-.8 37.8-.8 0 18.9.8 41-15 54.4-31.5 30-98.5 22.1-109.6-24.4-3.7-37-3.7-74 .2-111.1z"/></g><g id="_x23_5462a0ff"><path class="st1" d="M0 302.7c8.7-59.9 30.7-117.5 67.8-165.6-2.4 30-7.9 60.7-7.9 91.5-1.6 100.9 47.3 200.2 125.4 263.3 78.8 64.6 187.6 92.2 287 70.2 69.4-12.6 128.5-52.8 180.5-97.8C609.4 579.5 499 665.4 376.8 678h-89.1c-89.9-15.8-174.2-65.4-226.3-140.3C26 488.8 4.7 429.7 0 369.7v-67zM804.1 189.2c9.5 9.5 12.6 22.1 21.3 32.3 5.5-11.8 12.6-22.9 22.1-31.5-8.7 22.9-11 63.9-42.6 63.1 4.7-5.5 10.2-11 15-15.8-7.1-15.8-15-31.5-15.8-48.1zM904.3 193.9c14.2-.8 27.6-.8 41.8-.8 1.6 18.9 1.6 37.8 2.4 56h-11.8c.8-15.8 1.6-30.7 3.2-46.5-6.3 0-18.9-.8-25.2-.8 0 18.1-.8 36.3-3.2 54.4-13.5-18.1-6.4-41.8-7.2-62.3zM1010.7 191.6c12.6 2.4 31.5 1.6 33.9 17.3 1.6 14.2-12.6 18.9-22.9 21.3-3.2 8.7-5.5 17.3-7.9 26-4.7-21.3-3.9-43.3-3.1-64.6m7.9 12.6c-3.9 12.6 0 17.3 12.6 13.4 4.7-12.6 0-17.4-12.6-13.4zM1117.9 193.9c7.1-6.3 10.2 7.9 13.4 11 7.9 15.8 13.4 32.3 19.7 48.1-10.2-6.3-18.9-18.1-32.3-18.9-8.7 5.5-16.6 11.8-25.2 18.1 7.1-18.8 12.6-40.1 24.4-58.3m4 19c-10.2 6.3-10.2 11.8 0 16.6 9.4-6.4 9.4-11.9 0-16.6zM1305.5 193.9c11-.8 22.1-.8 33.1-1.6.8 21.3.8 42.6-2.4 63.9-9.5-16.6-4.7-36.3-5.5-53.6l-15-.8c-.8 19.7 4.7 47.3-20.5 53.6 8-19.7 11.1-40.2 10.3-61.5zM1504.2 255.4c-3.2-20.5-11.8-46.5 2.4-64.6.8 5.5 3.2 15.8 4.7 21.3 11-8.7 21.3-27.6 37.8-19.7 26.8 8.7 23.7 55.2-3.9 58.3-15 3.9-23.7-9.5-33.1-17.3-1.6 5.5-5.5 16.5-7.9 22m25.2-49.6c-12.6 14.2-2.4 41.8 18.1 35.5 19.8-11.9 6.4-52.9-18.1-35.5zM2148.3 194.7c36.3-18.9 56 48.1 18.9 56-33.1 11-47.3-42.6-18.9-56m4.7 9.5c-18.9 8.7-10.2 43.4 11.8 37.8 23.7-7.1 9.5-51.2-11.8-37.8zM2245.3 190.8c18.9 5.5 21.3 27.6 28.4 44.1 8.7-15.8 16.6-32.3 28.4-46.5 3.2 22.1 13.4 48.9-3.9 67-.8-8.7-2.4-26-3.2-34.7-7.1 11-14.2 22.9-21.3 33.9-6.3-11.8-11.8-22.9-18.1-34.7-1.6 9.5-4.7 27.6-6.3 37.1-9.5-20.5-4-44.1-4-66.2zM2369.8 193.9c13.4-1.6 26.8-.8 40.2-.8.8 20.5.8 41-.8 62.3-24.4-13.4 7.9-61.5-31.5-54.4v49.7c-2.4 0-7.9.8-10.2.8 0-19.7-1.6-38.6 2.3-57.6zM2476.3 213.6c5.5-7.9 11-15.8 17.3-22.9 13.4 18.9 20.5 41 28.4 63.1-10.2-6.3-18.9-18.1-31.5-18.9-8.7 5.5-16.6 12.6-24.4 18.9 3.2-11.8 5.5-23.7 7.9-35.5 9.5 9.5 20.5 11.8 31.5 3.2-8.7-4.7-19-7.1-29.2-7.9zM2683.6 231c8.7-15 18.9-30 32.3-41.8 2.4 22.1 2.4 43.4 1.6 65.4-15-5.5-9.5-23.7-12.6-35.5-9.5 12.6-18.9 26-30 37.1-2.4-22.1-2.4-44.1-.8-66.2 11.1 11 7.9 26.8 9.5 41zM1214.9 187.6c0 13.4-3.9 43.4 20.5 22.9l-18.1-4.7c5.5-3.9 11-8.7 17.3-12.6.8 18.1 15 40.2 0 56-9.5 2.4-18.9 3.9-28.4 3.9 0-22.1-7.1-47.3 8.7-65.5m0 40.2c-3.9 12.6.8 16.6 14.2 12.6 3.1-12.6-1.6-16.5-14.2-12.6zM1410.4 191.6c3.9 7.1 18.1 16.6.8 22.1 3.2 2.4 10.2 6.3 14.2 7.9 1.6-11 3.2-22.1 4.7-33.1 13.4 18.1 15 48.1 2.4 67-.8-7.1-3.2-22.9-3.9-30-8.7 9.5-16.6 20.5-24.4 30 5.4-21.4-3.3-43.4 6.2-63.9zM1625.6 194.7l10.2.8c0 15 0 30-.8 44.9 4.7.8 14.2 1.6 18.9 2.4.8-15.8 1.6-31.5 2.4-48.1l7.9.8V242c4.7 0 14.2-.8 18.9-1.6 0-15 0-30.7-.8-45.7l10.2-.8c-.8 22.1 1.6 44.9 8.7 66.2-23.7-11.8-50.5-10.2-75.7-10.2.1-18.1.1-36.3.1-55.2zM1749.4 253.1c7.9-22.1 15.8-43.4 26.8-64.6 15 18.9 23.7 41.8 30.7 64.6-8.7-6.3-16.6-12.6-24.4-18.1-14.2-.9-22.1 12.5-33.1 18.1m25.2-38.7c-12.6 23.7 26 2.4 0 0zM1864.5 193.2c5.5 3.9 11 8.7 17.3 12.6l-15.8 4.7c4.7 3.2 14.2 8.7 18.9 11.8-.8-11-1.6-22.1-3.2-33.1 27.6 10.2 12.6 44.1 14.2 66.2-10.2-6.3-10.2-18.9-12.6-29.2-8.7 9.5-15 21.3-24.4 29.2 2.4-9.5 4.7-18.1 7.1-26.8-3.9-11.8-5.4-23.6-1.5-35.4zM2045 256.2c-15.8-18.1-6.3-43.4-6.3-64.6 9.5 22.9 26.8 8.7 40.2.8-7.9 10.2-16.6 19.7-24.4 29.2 10.2 10.2 20.5 20.5 28.4 33.1-13.4-4.7-23.7-14.2-34.7-23.7l-3.2 25.2zM2571.7 250.7c.8-20.5-3.9-43.4 6.3-62.3 1.6 7.1 4.7 22.1 6.3 29.2 15.8 2.4 22.9-7.1 22.1-22.1l8.7-.8c0 19.7 0 40.2-2.4 60.7-8.7-7.1-8.7-18.1-10.2-28.4H2582v23.7h-10.3zM2785.3 228.6c-12.6-15.8-4.7-30 9.5-41 1.6 11-.8 20.5-7.1 30 4.7 0 13.4.8 18.1.8-.8-7.1-3.2-22.1-4.7-30 22.9 13.4 11 45.7 7.9 67.8-.8-7.9-3.2-22.9-4.7-30.7-8.7 10.2-16.6 22.1-28.4 30 3.1-9.5 6.3-18.2 9.4-26.9zM793.9 335.8c7.9-45.7 68.6-56 103.3-33.9 18.1 11 19.7 33.9 24.4 52.8l-42.6 2.4c-5.5-11.8-8.7-33.1-27.6-27.6-21.3 6.3-13.4 33.1-15.8 50.5 3.2 22.9-8.7 54.4 15 68.6 21.3 3.9 24.4-19.7 28.4-33.9 14.2 0 28.4.8 42.6.8-1.6 18.1-2.4 37.8-15 52-30.7 33.1-100.1 24.4-111.9-22.9-5.5-37-5.5-73.3-.8-108.8zM1034.3 293.3h40.2c.8 62.3.8 124.6 0 186.8-13.4 0-26.8 0-41-.8 0-33.9 0-68.6-.8-103.3-20.5 33.9-37.8 68.6-56.8 102.5-11.8 0-24.4.8-36.3.8-.8-61.5 0-123.8-.8-185.3 13.4-.8 26.8-.8 41-1.6 0 32.3 0 64.6-.8 97.8 19.9-30.7 35.6-64.6 55.3-96.9zM1097.4 331.9c10.2-41 62.3-48.9 96.2-34.7 22.9 10.2 27.6 37.1 29.2 59.1-7.9 0-24.4-.8-32.3-.8-15.8 3.2-13.4-17.3-18.9-26h-29.2c-2.4 37.1-6.3 74.1 1.6 111.2 8.7 9.5 20.5 4.7 31.5 2.4 1.6-9.5 2.4-19.7 3.9-29.2 14.2 0 28.4-.8 42.6-.8-.8 15 1.6 31.5-7.1 44.1-26 42.6-105.6 35.5-117.5-15.8-5.5-35.4-6.3-73.2 0-109.5zM1371.8 294.1h123.8c0 11.8 0 24.4.8 36.3-27.6 1.6-56 1.6-83.6 1.6v34.7c18.9 0 37.1 0 56-.8.8 11.8 1.6 23.7 1.6 35.5-18.9 1.6-38.6 1.6-58.3 2.4v37.8c30 .8 59.1 0 89.1 1.6-2.4 11 2.4 26.8-4.7 36.3-42.6 3.2-85.1 0-126.9.8 1.4-62.5-1-124.7 2.2-186.2zM1516.8 294.1c18.9-.8 37.8-.8 56.8-.8 11 37.1 21.3 73.3 31.5 110.4 9.5-37.1 19.7-73.3 30.7-110.4h57.6c.8 61.5.8 123.8 0 185.3-12.6.8-26 .8-38.6.8-1.6-42.6 1.6-85.1-1.6-127.7-12.6 41.8-21.3 85.1-32.3 127.7-11 0-21.3-.8-32.3-.8-10.2-42.6-20.5-85.1-32.3-126.9-3.2 42.6.8 85.9-1.6 128.5-12.6 0-26-.8-38.6-1.6.7-60.8.7-122.3.7-184.5zM1751 294.1h51.2c18.1 62.3 36.3 123.8 53.6 186.1-14.2 0-28.4.8-42.6.8-3.2-12.6-7.1-24.4-9.5-37.1h-51.2c-3.2 11.8-7.1 24.4-10.2 36.3-14.2 0-28.4.8-41.8.8 13.4-63.2 32.3-124.7 50.5-186.9m7.1 115.1c11.8 0 23.7 0 35.5.8-5.5-23.7-11-48.1-15.8-72.5-7.9 23.6-13.4 48-19.7 71.7zM1226.7 294.1c46.5-.8 92.2-.8 138.8.8-.8 11.8-1.6 23.7-2.4 35.5-15 .8-29.2 1.6-44.1 1.6.8 49.7.8 98.5 0 148.2h-45.7c-.8-49.7-.8-98.5 0-148.2-15-.8-30.7-1.6-45.7-1.6-.1-11.9-.1-23.7-.9-36.3zM1879.5 360.3c26-16.6 60.7 17.3 45.7 43.4-8.7 20.5-37.8 26.8-53.6 10.2-16.6-14.2-12.6-44.2 7.9-53.6z"/></g></g></svg>