<svg xmlns="http://www.w3.org/2000/svg" viewBox="0 0 2815.3 678"><style>.st0{fill:#fff}.st1{fill:#686868}</style><g id="Слой_8"><path class="st0" d="M775.8 75.3C837.3 34 913.7 16.2 987.2 24.8c79.7 8.9 155.2 49.9 206.3 111.8 30.9 36.3 52 80 64.8 125.7 6.8 32.7 11.3 65.7 9.5 99-5.9 7.7.6 19-4.8 27.1-.6 4.8-.9 9.8-1.5 14.6-3.3 4.5-2.4 10.4-2.7 15.8l-3 .3v7.7c-3.6 6.8-5.9 14-6.2 21.4l-3.3.6c.3 1.5.9 4.5 1.5 5.9l-3.6.3c.3 3.6-.6 6.8-2.4 9.5-8 21.7-21.1 41.6-33.9 60.6-15.8 20.8-34.2 39.5-53.8 56.8-5.6 3-9.8 8-14.9 11.9-6.8 3.9-12.8 9.2-19.9 12.8-2.4 1.5-4.8 3.3-7.1 4.8-6.5 3.3-13.1 6.8-19.6 10.1-6.2 3.3-12.8 6.2-19.3 8.9-12.5 5.6-25.6 9.2-38.3 13.4-8 1.8-16.3 3.6-24.4 5.6-57.4 10.1-117.7 5.9-172.1-15.2-77.9-29.1-143.3-90.7-177.2-167.1-27.6-61.8-34.5-132.6-19.3-198.6 17.6-78.5 66.6-149.2 133.8-193.2m113.6-32.1c-17.2 3.3-34.2 8.3-50.5 15.2-2.7 1.2-5.6 2.1-8.3 3.3-4.2 1.8-8.3 3.9-12.5 5.6-1.5.9-4.5 2.4-5.9 3-4.8 2.1-9.2 4.8-13.7 7.4-5.1 3.3-10.1 6.2-15.2 9.2-1.8 1.5-3.9 3-5.6 4.5-11.9 7.1-21.7 16.6-32.1 25.6l-.3 2.4h-2.1c-.9.9-2.7 2.7-3.9 3.6v2.4l-3.3-.3.3 3h-3v2.1c-6.5 6.5-13.1 13.1-18.7 20.5-3 4.2-5.9 8-8.9 11.9-12.8 17.5-23.2 36.9-32.4 56.8-5.9 14.3-12.5 28.8-14.9 44.3-3.9 2.7-2.1 8-3 11.9-3.9 5.1-2.1 11.9-3 17.8-5.4 6.8-1.5 16.6-3 24.4-3.9 11.9-2.1 24.7-1.5 36.9 2.4 15.8 2.1 31.8 6.5 47.6 3.3 18.4 10.1 36 16.1 53.5 3.6 1.2 8.6 2.7 9.5-2.4 28.2-55.9 60.9-109.7 99.6-159.3 14-16.9 29.1-32.4 43.4-49 8.6-9.2 16.3-19.6 26.8-27.3 22-16.3 43.7-33.3 65.7-49.6 52-35.1 108.8-62.7 167.4-85.6 5.1-.9 7.1-5.1 6.8-9.8-60.6-32.9-132.9-43.3-200.3-29.6m249.1 65.4c-1.2 3.3-3 6.5-5.1 9.5-29.1 38-58 76.4-87.4 114.1-8.9 11.9-17.8 23.8-27.1 35.4-9.2 14-22 25.6-29.1 40.7 64.8 69 128.7 138.8 192.9 208.4 3.3-.6 7.1-.9 8.6-4.5 42.2-58.6 62.1-132.9 54.4-204.5-6.8-74-42.8-144.2-98.1-193.8-2-2.9-5.3-4.7-9.1-5.3M890 394.6c-5.9 3.3-11.6 6.8-17.2 10.4-10.7 7.4-21.7 13.7-32.7 20.5-2.1 1.5-4.5 3.3-6.5 4.8-5.1 2.7-10.1 5.9-14.9 9.2-3.9 2.4-7.7 4.8-11.6 7.1-3 2.1-5.6 3.9-8.6 5.6-11.3 6.5-21.7 14-33 20.5-2.1 1.5-4.5 3.3-6.5 4.8-17.5 10.1-33.9 22-51.4 31.8-.6 1.5-2.1 4.2-2.7 5.6 44.6 60.3 111.8 103.7 185.8 117.4 67.8 12.8 140.3 2.1 200.9-31.8 2.7-3.6 2.1-6.8-1.2-9.5-62.4-68.1-125.7-135.3-187.9-203.3-4.8.6-9 3.6-12.5 6.9z" id="_x23_ffffffff"/><g id="_x23_152fa9ff"><path class="st1" d="M719 95.5c55.9-53.8 130.8-87.1 208.4-93C986.3-2 1046 9.9 1098.9 36.1c3.9 2.1 7.7 3.9 11.9 5.9 39.2 20.2 72.2 49.9 100.8 82.9 49.6 60.9 78.2 139.4 76.1 218.2 0 43.4-9.5 86.5-26.2 126.3-35.1 84.1-106.1 152.8-191.4 184.9-86.2 33.3-186.4 28.8-269-12.8-1.5-.9-4.5-2.4-5.9-3-7.1-3.6-14-8-20.8-11.9-16.3-9.8-31.2-21.7-45.8-33.6-13.4-14.6-29.4-27.1-40.4-43.4-52.3-65.4-79.7-150.4-73.4-233.6 5.5-83.1 43.9-163.1 104.2-220.5m56.8-20.2C708.6 119.6 659.6 190 642 268.5c-15.2 66-8.3 136.7 19.3 198.6 33.9 76.4 99.3 137.9 177.5 167.4 54.7 21.1 114.7 25.3 172.1 15.2 8-2.1 16.3-3.9 24.4-5.6 12.8-4.2 25.9-7.7 38.3-13.4 6.8-2.4 13.1-5.6 19.3-8.9 6.5-3.3 13.1-6.8 19.6-10.1 2.4-1.5 4.8-3.3 7.1-4.8 7.1-3.9 13.1-8.9 19.9-12.8 5.1-3.9 9.2-8.9 14.9-11.9 19.6-17.2 38-35.7 53.8-56.8 13.1-19.3 25.9-38.9 33.9-60.6 2.1-2.7 2.7-5.9 2.4-9.5l3.6-.3c-.3-1.5-1.2-4.5-1.5-5.9l3.3-.6c.3-7.4 2.7-14.9 6.2-21.4v-7.7l3-.3c.3-5.4-.9-11.3 2.7-15.8.6-4.8.9-9.8 1.5-14.6 5.1-8.3-1.2-19.3 4.8-27.1 1.8-33.3-2.7-66.3-9.5-99-13.1-46.1-34.2-89.8-65.1-126-51.1-61.8-126.6-102.9-206.3-111.8-73.5-8.9-149.9 9.2-211.4 50.5z"/><path class="st1" d="M889.4 43.2c67.8-13.7 139.7-3.3 200.7 29.4.3 4.8-1.8 8.9-6.8 9.8-58.3 22.9-115 50.5-167.4 85.6-22 16.3-43.7 33.3-65.7 49.6-10.4 7.4-17.8 18.1-26.8 27.3-14.3 16.3-29.4 32.1-43.4 49-38.6 49.3-71.3 103.1-99.6 159.3-1.2 5.1-5.9 3.6-9.5 2.4-5.9-17.5-12.8-35.1-16.1-53.5-4.5-15.5-4.2-31.8-6.5-47.6-.6-12.2-2.4-25.3 1.5-36.9 1.5-8-2.4-17.8 3-24.4.9-5.9-.9-12.8 3-17.8.9-3.9-.9-9.2 3-11.9 2.4-15.5 8.9-30 14.9-44.3 9.2-19.6 19.6-38.9 32.4-56.8 3-4.2 5.9-8 8.9-11.9 5.6-7.4 12.2-14 18.7-20.5v-2.1h3l-.3-3 3.3.3v-2.4c.9-.9 2.7-2.7 3.9-3.6h2.1l.3-2.4c10.4-8.9 20.2-18.4 32.1-25.6 1.8-1.5 3.9-3 5.6-4.5 5.1-3 10.1-5.9 15.2-9.2 4.5-2.7 8.9-5.4 13.7-7.4 1.5-.9 4.5-2.4 5.9-3 4.2-2.1 8.3-3.9 12.5-5.6 2.7-1.2 5.6-2.1 8.3-3.3 15.9-7 32.8-11.7 50.1-15zM2197 388c-5.6-11-12.8-21.4-18.4-32.7h-.6-.3c-.6.3-1.5.3-2.1.3l-.9.3s0-.3.3-.3h-.9c-1.2.3-2.7.6-3.9.9-15.8 18.1-41.6 26.5-65.4 25-23.5 1.5-47-9.8-61.2-28.2-18.7-23.8-25.3-55-25-84.7.6-33 10.4-67.2 33.3-91.6 14-15.5 34.8-24.4 55.9-24.4 22-.9 45.5 3.6 62.7 18.4 7.4-14.9 14.9-29.7 22-44.9-25.9-16.9-57.1-22.6-87.7-21.4-39.5-1.5-78.8 17.2-103.4 48.2-28.2 33.6-41 78.2-39.2 121.6.3 45.8 14 94.8 49 126 28.2 25.6 68.4 33 105.5 29.7 30.6-2.1 63.9-11.3 84.1-35.7.3-.3.3-.9.6-1.2-2-1.4-3.5-3.2-4.4-5.3zM1138.5 108.6c3.9.6 7.1 2.4 9.8 5.1 55 49.6 91.3 119.8 98.1 193.8 7.7 71.9-12.2 146-54.4 204.5-1.8 3.6-5.4 3.9-8.6 4.5-64.2-69.6-128.4-139.1-192.9-208.4 7.1-15.2 19.6-26.8 29.1-40.7 9.2-11.6 18.1-23.5 27.1-35.4 29.4-38 58.3-76.4 87.4-114.1 1.4-2.8 3.2-5.7 4.4-9.3zM1332 110.7h261.6c0 16.1.3 32.1.3 48.2-35.4.3-70.7-.3-106.1.3.3 89.2 0 178.1.3 267.2h-54.7V158.9h-101.1c-.3-16.1-.3-32.2-.3-48.2zM1674.1 110.7c9.5 0 19 0 28.5.3 22 71 45.8 141.2 67.8 212.2 2.4-2.7 3.9-6.2 4.8-9.8 20.8-67.5 42.8-134.7 63-202.4 9.5-.6 19.3-.3 28.8-.3 23.2 104.9 42.8 210.8 65.4 315.7h-53.2c-9.2-47.6-18.4-95.4-27.6-143-2.1-9.5-2.4-19.3-6.8-27.9-21.1 58.3-41.9 116.5-63.9 174.5-7.1-1.2-19.3 3.6-21.1-6.5-19.9-55.9-41.3-111.5-61.2-167.1-.6.9-2.1 2.7-2.7 3.9-11 55.6-22 111.2-33.6 166.5h-51.7c12.5-67.5 27.1-135 40.1-202.4 8.3-37.9 14.8-76 23.4-113.7zM890 394.6c3.9-3.3 7.7-5.9 12.8-6.8 62.1 68.1 125.4 135.6 187.9 203.3 3.3 2.7 3.6 5.9 1.2 9.5-60.6 33.6-132.9 44.6-200.9 31.8-74-13.7-140.9-57.1-185.8-117.4.6-1.5 2.1-4.2 2.7-5.6 17.5-10.1 33.9-21.7 51.4-31.8 2.4-1.5 4.5-3.3 6.5-4.8 11.3-6.5 21.7-14 33-20.5 3-1.8 5.9-3.9 8.6-5.6 3.9-2.4 7.7-4.8 11.6-7.1 4.8-3.3 9.8-6.2 14.9-9.2 2.1-1.5 4.5-3.3 6.5-4.8 11-6.8 22-13.4 32.7-20.5 5.3-3.7 10.9-7.3 16.9-10.5zM1761.2 477.8c8.9 19.6 18.7 38.9 27.1 58.9-1.5 4.5-3 8.9-4.2 13.7-.3 0 0 1.2-.3 1.5.6 1.2.3.6 1.2 1.8 4.2 0 7.7.9 10.7.3 11.9-25 22.3-50.8 33.6-76.1-5.1 0-9.8 0-14.9-.3-6.8 14-11.6 28.5-19.3 41.9-6.2-14-12.5-27.9-19.3-41.9-4.8.2-9.5.2-14.6.2zM1433.9 477.8h37.5c0 3.9.3 8 .3 11.9h-23.5c-.9 21.4-.3 43.1-.3 64.5h-14.3c.6-25.6.3-50.8.3-76.4zM1593.9 477.8c13.4 0 27.1-.3 40.4 2.4 6.8 4.8 13.4 11.6 13.1 20.5.6 10.1-5.9 19.9-15.2 23.5-7.4 2.1-15.5 1.8-23.2 1.8-.6 9.5-.6 19-.6 28.2h-14.9c.4-25.6-.2-51.1.4-76.4m14.8 11.6c-.3 8.3-.6 16.3-.3 24.7 8-.3 23.8 1.5 23.8-10.1 3.3-14-14-15.2-23.5-14.6zM1950.3 477.8c19.3.3 38.6 0 58 .3.3 25.3-.3 50.5 0 76.1-4.8.3-9.5.3-14 .3-.3-20.8.3-41.6-.3-62.1-8.6-4.5-20.5-.9-30.3-1.5-.3 21.4 0 42.5 0 63.6H1950c0-25.9-.6-51.4.3-76.7zM2135.5 477.8h58.6c.3 25.6 0 50.8 0 76.4h-14.9v-63.6c-9.8-.3-19.6-.3-29.1-.3-.9 21.4-.3 42.5-.6 63.9h-14v-76.4z"/></g></g></svg>