<svg id="Layer_1" xmlns="http://www.w3.org/2000/svg" viewBox="0 0 4365.4 818"><style>.st0{fill:#11886a}.st0,.st1{fill-rule:evenodd;clip-rule:evenodd}.st1,.st2{fill:#72bf44}.st3{fill:#fff}</style><path class="st0" d="M786.6 809.8h1270.1l513.4-620.6H1287.3z"/><path class="st1" d="M2868.6 145.3h297.3L3286 0h-300.2zM432.4 553.3h460.5l186.1-225H614zM74 818h230.3l93-112.5H164.8z"/><path class="st0" d="M0 601.9h230.2l93.1-112.5H90.8z"/><path class="st2" d="M2169.4 807.9l516.8-616.1h120.3l-516.8 616.1zM3022.3 556c1.5-6.3 2.6-12.2 3.1-17.7.4-5 .7-10 .7-14.8 0-9.9-1.2-19.5-3.7-28.5-2.7-10.1-7.1-19-13.3-26.6-6.3-7.8-14.4-14.1-24.1-18.5-9.5-4.4-20.7-6.6-33.4-6.6h-114.4c-1.1-2.5-1.7-6.2-1.7-10.6 0-6.7.9-12.9 2.8-18.9 2-6.3 4.5-11.9 7.4-16.7 2.6-4.2 5.4-7.3 8.2-9.5 1.1-.9 1.9-1.2 2.2-1.4h162.3c9.7 0 18.1-6.8 20-16.3l6.7-32.7c1.2-6-.3-12.3-4.2-17-3.9-4.8-9.7-7.5-15.9-7.5h-172.7c-31.8 0-57.8 10.2-77.2 30.2-18.2 18.8-30.8 45.1-37.6 78.3-.9 4.4-1.6 8.7-2.2 13.1-.6 4.8-1 9.7-1 14.5 0 10.1 1.2 19.8 3.7 28.9 2.6 9.7 6.8 18.6 12.5 26.4 6 8.3 13.6 14.9 22.5 19.6 9.1 4.9 19.7 7.3 31.5 7.3h119.6c.8 0 1.3.1 1.8.1 1.2 2.4 1.8 5.9 1.8 10.1 0 6.3-1 12.8-3 19.4-2.1 6.8-4.8 13-8.1 18.3-2.9 4.7-6.2 8.5-9.8 11.4-1.7 1.4-3.3 2.2-4.3 2.2h-173.9c-9.7 0-18.1 6.8-20 16.3l-6.7 32.7c-1.2 6 .3 12.3 4.2 17 3.9 4.8 9.7 7.5 15.8 7.5h195.6c14.4 0 27.7-3 39.5-8.8 11.5-5.7 21.9-13.9 30.6-24.3 8.2-9.7 15.3-21.3 21.1-34.6 5.7-12.7 10.3-27.2 13.6-42.3zM3391.5 388.5c0-27.3-8.2-47.4-24.3-59.6-14.5-11-34.8-16.3-61.9-16.3h-188.1c-9.7 0-18 6.8-20 16.2l-90.9 430.9c-1.3 6 .2 12.3 4.1 17.1 3.9 4.8 9.7 7.6 15.9 7.6h64.9c9.6 0 18-6.7 20-16.2l21.7-102.3h106.2c16.5 0 31.3-1.9 44-5.5 13.9-4 26.3-11 36.6-20.6 10-9.3 18.4-21.6 25.1-36.7 6.2-13.9 11.5-31.2 15.7-51.3l24.8-116.5c0-.2.1-.5.1-.7 1.6-9.1 3-17.3 4-24.6 1.5-8.2 2.1-15.2 2.1-21.5zm-199.4-2.4h50c26.3 0 36.2 3.2 39.3 4.5.8.3 2 .9 2 6.5 0 5.8-1 13.3-3.1 22.5l-26.7 127c-5.4 24.9-12 34.6-15.5 38.2-3.1 3.2-8.4 7.5-19.7 7.5H3148l44.1-206.2zM3734.9 434.6c1.6-9.1 3-17.5 4.1-25.1 1.2-8.3 1.8-16 1.8-23 0-27-8.3-46.7-24.5-58.5-14.4-10.4-34.3-15.5-60.9-15.5h-114.1c-16.6 0-31.4 1.9-43.9 5.5-13.8 4-26.1 11-36.4 20.6-10 9.3-18.4 21.7-25 36.8-6.1 13.8-11.2 31.1-15.4 51.1l-24.7 116.4c-4.3 19.7-6.4 35.9-6.4 49.6 0 27.1 8.3 46.7 24.7 58.3 14.3 10 34.3 14.9 61.2 14.9h114.3c16.1 0 30.5-1.8 42.8-5.3 13.7-3.9 26-10.8 36.3-20.5 10-9.3 18.5-21.6 25.2-36.7 6.2-13.8 11.6-31.2 16.1-51.7l24.8-116.5c-.1 0 0-.2 0-.4zm-177.5 157.8h-37c-7.8 0-10.9-2.9-13.2-5.9-4.3-6-6.5-14.3-6.5-24.8 0-2.6 0-5.4.2-8.5.1-1.5.4-3.1.9-4.8.2-.6.3-1.1.4-1.7l24-111.7c2.4-10.9 5-20.1 7.8-27.3 2.5-6.2 5.2-11 8.1-14.4 2.1-2.5 4.4-4.2 6.9-5.1 3.4-1.3 7.7-2 12.7-2h59.4c7.3 0 9.7 1.5 9.8 1.5.1.2 1.7 2.8 1.7 10.7 0 3.6-.3 7.8-.8 12.5-.6 4.8-1.5 10-2.7 15.4L3603.9 544c-2.6 12.3-5.5 22.2-8.5 29.3-2.4 5.7-5.1 9.9-8 12.6-2.5 2.3-5.3 3.7-8.9 4.5-5.5 1.3-12.6 2-21.1 2zM4029.1 316.3l-95.7-3c-2.3-.1-4.5-.1-6.7-.1-102.1 0-137.3 58.2-148.9 107.1l-51.2 216.8c-1.4 6-.1 12.3 3.7 17.2 3.8 4.9 9.5 7.8 15.7 8l66.1 1.6h.5c9.5 0 17.7-6.5 19.9-15.7l49.4-209.3c3.5-14.6 7-26.1 10.3-34.1 3.1-7.6 6.1-11.2 8.1-12.9 2.4-2 5.5-3.3 9.4-3.8 5.3-.8 12.1-1.1 20.1-1.1 2.2 0 4.5 0 6.7.1l83.7 2.8c9.9.2 18.4-6.3 20.6-15.9l7.5-32.5c1.4-6 0-12.2-3.7-17.1-3.7-5-9.4-7.9-15.5-8.1zM4360.7 320.1c-3.9-4.8-9.7-7.5-15.8-7.5h-82.6l12.1-56.8c1.3-6-.2-12.3-4.1-17.1-3.9-4.8-9.7-7.6-15.9-7.6h-65.3c-9.6 0-18 6.8-20 16.2l-13.9 65.3h-63.7c-9.7 0-18.1 6.8-20 16.3l-6.7 32.7c-1.2 6 .3 12.3 4.2 17 3.9 4.8 9.7 7.5 15.8 7.5h55l-38 177.7c-1.6 8-3 15.4-3.9 22-1.1 7.2-1.6 14-1.6 20.3 0 11 1.8 20.2 5.5 28 4.3 8.9 11.1 16.1 20.5 21.1 7.8 4.3 17.1 7.1 28.5 8.6 9.6 1.3 21.3 1.9 34.8 1.9h46.8c9.7 0 18.1-6.8 20-16.3l6.7-32.6c1.2-6-.3-12.3-4.2-17-3.9-4.8-9.7-7.5-15.8-7.5-9.6 0-17.6-.3-23.9-.9-5.3-.5-8-1.4-9.4-2-.1-.5-.2-1.4-.2-2.7 0-2.8.3-6.2.9-9.9.7-4.5 1.7-9.6 2.9-15.3l37.5-175.4h91.3c9.7 0 18.1-6.8 20-16.3l6.7-32.7c1.3-6-.3-12.2-4.2-17z"/><g><path class="st3" d="M1464.1 299.7h-117.8c-16.2 0-30.8 1.9-43.3 5.8-13.7 4.2-25.7 11.2-35.9 20.9-9.8 9.4-18.2 21.6-24.8 36.4-6.2 13.7-11.4 30.7-15.6 50.5l-24.4 114.5c-2.3 9.3-3.9 18.2-4.7 26.5-.9 8-1.3 15.4-1.3 22 0 26.7 8.1 46.2 23.9 57.9 14.2 10.5 34 15.7 60.6 15.7h169l14.9-72.7H1326c-13.6 0-19.7-1.8-21.8-2.7-.3-1-1-3.4-1-7.9 0-2.8.3-6.6.9-11.3.6-4.8 1.6-10.6 3-17.4l3.7-17.5h115.1c36.8 0 84.6-18.2 102.8-104.3 1.7-7.8 3-15.2 3.7-22.2.7-6.9 1.1-13.5 1.1-19.7-.1-47.4-25.3-74.5-69.4-74.5zm-48.5 146.2c-3.7 1.1-8.4 1.7-13.9 1.7h-75.4l5.7-26.7c2.4-10.9 5-20 7.8-27.1 2.4-6 5.1-10.7 8-14.1 2.3-2.6 4.7-4.4 7.2-5.4 3.2-1.3 7.4-1.9 12.3-1.9h58.9c6.7 0 10.2.8 11.5 1.3.3 1.1.7 3.3.7 7.1 0 2.6-.3 6-1 10.1-.7 4.9-1.7 10.5-2.9 16.6-2.1 9.8-4.4 17.9-6.9 23.9-2 4.8-4.3 8.7-6.6 11.1-1.4 1.6-3.2 2.7-5.4 3.4zM1665.5 576c-8.8-.8-13.6-2.2-16.2-3.3-1.9-.8-2.8-1.6-3.1-2.1-.2-.3-1.1-2.1-1.1-6.9 0-5.5 1-12.6 3.1-21.5l26.1-121.3c2.4-10.9 5-20.1 7.7-27.3 2.3-6 4.9-10.7 7.7-14 2.1-2.5 4.4-4.2 6.9-5.2 3.4-1.3 7.8-2 13-2h156.9l14.9-72.7h-193.2c-16.5 0-31.2 1.9-43.7 5.8-13.7 4.2-25.7 11.2-35.9 20.9-9.8 9.4-18.2 21.7-24.7 36.6-6 13.7-11.1 30.5-15.3 49.9L1544.1 528c-2.3 9.7-3.9 18.6-4.7 26.4-.9 7.8-1.3 15.1-1.3 21.5 0 26.6 7.9 46.1 23.5 58 14.1 10.8 34.1 16 61 16h185l14.9-72.7h-125c-12.6-.1-23.4-.5-32-1.2zM2179.2 315c-14.2-10.3-34-15.3-60.3-15.3h-113.2c-16.4 0-31.1 1.8-43.5 5.5-13.7 4-25.8 10.9-36 20.4-9.9 9.3-18.3 21.5-24.8 36.5-6 13.7-11.1 30.8-15.3 50.7l-24.6 115.4c-4.3 19.5-6.3 35.6-6.3 49.2 0 26.9 8.2 46.3 24.4 57.6 14.2 9.9 34 14.8 60.6 14.8h113.3c15.9 0 30.1-1.8 42.4-5.3 13.6-3.8 25.7-10.7 36-20.2 9.9-9.2 18.3-21.4 25-36.3 6.1-13.7 11.5-30.9 16-51.3l24.6-115.5.1-.7c1.6-9.1 2.9-17.4 4-24.9 1.2-8.2 1.8-15.9 1.8-22.7.1-26.8-8.1-46.3-24.2-57.9zm-157.4 262.1h-36.7c-7.8 0-10.9-2.8-13.2-5.9-4.3-5.9-6.5-14.2-6.5-24.6 0-2.6.1-5.4.2-8.4 0-1.5.3-3.1.9-4.8l24.2-112.4c2.3-10.8 5-19.9 7.8-27.1 2.4-6.1 5.1-10.9 8-14.3 2.1-2.5 4.3-4.2 6.9-5.1 3.4-1.3 7.7-2 12.7-2h58.9c6.6 0 9.5 1.3 9.8 1.5.5.6 1.7 3.8 1.7 10.7 0 3.6-.3 7.8-.8 12.4-.6 4.9-1.5 10-2.6 15.4l-25 116.7c-2.6 12.2-5.4 22-8.4 29.1-2.4 5.6-5.1 9.9-8 12.5-2.5 2.3-5.3 3.7-8.9 4.5-5.6 1.2-12.6 1.8-21 1.8z"/></g></svg>