<svg id="Слой_1" xmlns="http://www.w3.org/2000/svg" viewBox="0 0 1397 949.9"><style>.st0{fill:#008fd5}</style><g id="_x23_000000ff"><path d="M524.8 724.9c10.1-2 19.9-5.2 29.5-8.8 3.8 9.3 7.9 18.5 11.7 27.8-6.2 4.2-12.9 7.7-20 10-14.5 4.6-29.2 8-43.9 11.6-11.7 2.8-23.2 7.6-32.4 15.6-13.5 11.3-19.8 29.3-20 46.5l1.3.7c6.8-14.4 20.1-25.5 35.4-29.7 16.2-4.6 34.3-3.9 49.4 3.8 14.7 7.6 25.8 21.3 30.9 36.9 4.5 13.8 5.1 28.6 3.6 43-1.6 16-7.4 32-18.1 44.2-11.4 13.2-28.1 21.3-45.4 23-14.3 1.4-29.4-.1-42.3-6.7-13.2-6.5-23.2-18.3-29.8-31.3-8.5-17.1-11.1-36.4-11.5-55.3-.2-21.2 1.2-42.8 7.8-63.1 5.8-18 16.7-34.8 32.4-45.8 17.9-13.1 40.2-17.6 61.4-22.4m-26.7 99.4c-11.6.6-22.8 7.3-28.2 17.7-6.3 12-7 25.9-6.5 39.2.6 11.6 4 23.6 12.3 32.2 7.7 7.8 19.8 10.2 30.3 7.6 9.3-2.3 17-9.2 21.3-17.7 6.2-12 7.2-26 6.5-39.2-.7-11.4-3.7-23.4-12-31.6-6.1-6.4-15.2-8.9-23.7-8.2zM61.4 743.6c19-8.3 40.1-10.5 60.7-9.2 17.6 1.5 35 5.8 51.4 12.4-3.4 10.4-6.6 20.9-9.7 31.5-22.7-11.5-49.8-14.8-74.2-6.8-14.9 4.8-28.1 14.7-36.5 27.9-9.8 14.8-12.9 33.1-11.3 50.5 1.5 16.7 8.2 33.4 20.5 45.1 12.8 12.8 30.8 19.6 48.8 20 18.1.4 35.7-5.5 52.2-12.6 2.8 10.4 5.8 20.8 8.7 31.2-19.4 8-39.8 13.5-60.7 15.1-19.2 1.5-38.8-2-56-10.8-15.3-7.5-28.5-19.1-37.6-33.5-11-16.3-16.5-35.7-17.7-55.2v-15.4c.5-5 1-10 1.9-14.9 5.9-32.8 28.8-62.1 59.5-75.3zM1112.9 741.6c21.4-7.9 44.9-9.1 67.3-5.7 13.5 2.1 26.8 6 39.6 10.8l-9.6 31.5c-11.4-5.3-23.5-9.4-36.1-10.6-17.2-1.6-35.2.8-50.5 9.2-17.2 9.5-29.9 26.6-33.9 45.9-4 18.9-2.2 39.5 7.1 56.8 9.5 17.8 27.6 30.4 47.3 34.1 22.3 4.4 45.2-1.9 65.4-11.3 3 10.4 5.8 20.9 8.9 31.3-19.5 8.1-40.2 13.7-61.3 15.2-20.6 1.5-41.7-2.7-59.7-13-17.3-9.5-31.2-24.5-39.7-42.3-11.1-22.9-13.9-49.5-9.4-74.5 6.1-34.7 31.5-65.3 64.6-77.4zM208.4 738c58.5-.3 117.1 0 175.6-.1-.9 69.3-2.4 138.5-3.5 207.8h-40c1.2-58.1 2.1-116.2 3.1-174.2H248c-1.1 58.1-2 116.2-3.1 174.3-13.3-.1-26.5-.1-39.8 0 .7-69.3 2.6-138.6 3.3-207.8zM631.9 737.9h44.2C688 777 700 816 711.9 855.1c5.7 18.4 11.6 36.7 14.8 55.7 3.2-12.3 5.8-24.8 9.9-36.9 15-45.4 29.7-90.8 44.9-136.1 14.6.3 29.1-.1 43.7.2 1.6 5.9 2 12.2 3.2 18.3 10 62.4 19.9 124.9 29.9 187.3-12.6 1.8-25.1 3.9-37.7 5.4-5.7-47-11.9-93.9-17.6-140.8-1.3-11.5-2.5-23-3.3-34.6-3.1 12.2-5.7 24.5-9.1 36.6-14.7 45.2-29.5 90.3-44.1 135.5h-41.3c-11.1-37.1-22.3-74.1-33.4-111.2-6.2-19.9-12-40-15.5-60.5-1.1 8.3-1.7 16.8-3 25.1-7.8 50-15.1 100-22.7 150.1-12.4-1.8-24.8-3.7-37.2-5.5 12.7-68.7 25.8-137.2 38.5-205.8zM874.5 771.6c.6-11.3.2-22.5.9-33.8 50.6.2 101.3 0 151.9.1 0 11.3-.5 22.5-.5 33.8-18.9-.1-37.7 0-56.6 0-.9 50.8-1.7 101.6-2.7 152.5.1 7.2-.5 14.3-.2 21.5-13.2.1-26.4 0-39.6 0 1.1-58 2.1-116 3-174-18.7-.1-37.5 0-56.2-.1zM1251.1 945.7l3.6-207.8c43.2.1 86.4 0 129.6 0-.4 10.1-.4 20.3-.7 30.4-30.2.2-60.4.1-90.6.1-.3 18.2-1 36.5-1 54.7 8.3.1 16.6 0 24.9 0 13 .2 26.2-1 38.9 2.4 12.6 3.1 24.3 10.3 31.7 21.1 6 8.8 8.7 19.4 9.4 29.9v13c-1 12.6-5.1 25.3-13.8 34.8-12.8 14.4-32.6 20.3-51.4 21.2-26.8.2-53.7.1-80.6.2m40.7-94.5c-.2 22.1-.8 44.1-1.1 66.1h32.2c9.2-.1 18.9-2.8 25.5-9.5 6.2-5.8 9.7-14.3 9.5-22.8.3-9.2-2.3-19.2-9.5-25.5-6.8-6.3-16.5-8.3-25.5-8.4-10.3 0-20.7 0-31.1.1z"/></g><g id="XMLID_142_"><path id="XMLID_141_" class="st0" d="M503.6 426.8c18.6 26.8 42.5 49.6 70.2 66.9-37.1-3.3-71.2-16.7-99.7-37.4l29.5-29.5z"/><path id="XMLID_140_" class="st0" d="M461.7 301.3c.9 22 4.7 43.1 11.2 63.2l-28.2 28.2h-27.4c-15.5-27.2-24.8-58.2-26.1-91.4h70.5z"/><path id="XMLID_139_" class="st0" d="M483.6 191.6c-13 28-20.7 58.8-21.9 91.4h-70.4c1.7-33.2 11.5-64.3 27.4-91.4h64.9z"/><path id="XMLID_138_" class="st0" d="M567.5 93.8c-30.5 20.4-56.1 47.6-74.5 79.5h-62.3c32.1-42.9 81-72.7 136.8-79.5"/><path id="XMLID_137_" class="st0" d="M513.6 173.3c17.1-26.8 39.9-49.6 66.7-66.8v66.8h-66.7z"/><path id="XMLID_136_" class="st0" d="M479.3 283c1.3-32.8 9.8-63.8 23.9-91.4h77.2v68.6h-3.2L554.3 283h-75z"/><path id="XMLID_135_" class="st0" d="M580.3 350.1v42.6h-42.6z"/><path id="XMLID_134_" class="st0" d="M487 350.3c-4.3-15.7-7-32.1-7.7-49H536l-49 49z"/><path id="XMLID_133_" class="st0" d="M580.3 476.9a220.11 220.11 0 0 1-64-62.8l3.1-3.1h60.9v65.9z"/><path id="XMLID_132_" class="st0" d="M786.9 93.8c-11.6 7.7-22.5 16.4-32.5 26.1-5.2-4.8-10.5-9.4-16.1-13.8 15.3-6 31.7-10.2 48.6-12.3"/><path id="XMLID_131_" class="st0" d="M766.8 132.4c10.1-9.6 21.1-18.3 32.9-25.9v66.8h-2.5c-8.7-14.7-18.9-28.4-30.4-40.9"/><path id="XMLID_130_" class="st0" d="M756.2 465.3c11.4 10.6 23.8 20.2 37.1 28.4-19.2-1.7-37.7-6.2-55-12.9 6.2-4.9 12.2-10.1 17.9-15.5"/><path id="XMLID_129_" class="st0" d="M799.7 476.9c-11.1-7.2-21.6-15.3-31.2-24.3 11.5-12.7 21.6-26.7 30.1-41.6h1.1v65.9z"/><path id="XMLID_128_" class="st0" d="M905.3 411c-19.7 33.9-47.6 62.5-81 83.1 61.8-3.9 116.1-35.8 150.2-83.1h-69.2z"/><path id="XMLID_127_" class="st0" d="M937.2 301.3c-1.3 32.6-9.1 63.5-22.3 91.4h71.4c15.5-27.2 24.8-58.2 26-91.4h-75.1z"/><path id="XMLID_126_" class="st0" d="M927 222.1c5.9 19.4 9.4 39.8 10.2 60.9h75c-1.7-33.2-11.5-64.3-27.4-91.4h-27.4L927 222.1z"/><path id="XMLID_112_" class="st0" d="M830.4 93.2c26.3 17.4 48.9 39.8 66.5 65.9l30.1-30.2c-27.8-19.6-60.9-32.3-96.6-35.7"/><path id="XMLID_111_" class="st0" d="M884.2 171.8c-17.1-26.3-39.8-48.8-66.3-65.7v67.2h64.8l1.5-1.5z"/><path id="XMLID_110_" class="st0" d="M864.5 191.6H818v27.9c1.6 4.8 3 9.6 4.3 14.6l42.2-42.5z"/><path id="XMLID_109_" class="st0" d="M919.6 283c-.6-16-3-31.6-6.8-46.6L866.3 283h53.3z"/><path id="XMLID_108_" class="st0" d="M895.2 392.7c14.3-27.6 22.9-58.6 24.3-91.4H848l-16.2 16.2-3.8 3.9c-1.9 15.9-5.3 31.2-10.1 46v25.3h77.3z"/><path id="XMLID_107_" class="st0" d="M818 477.3c26.7-17.1 49.5-39.7 66.7-66.3H818v66.3z"/><path id="XMLID_106_" class="st0" d="M685.9 411c-19.7 33.9-47.6 62.5-81 83.1 35.5-2.2 68.4-13.7 96.5-32v-.3l.3.2c20.8-13.6 38.9-30.9 53.4-51h-69.2z"/><path id="XMLID_105_" class="st0" d="M715.5 326.1c-3.4 23.5-10.3 45.9-20 66.6h71.4c11.5-20.3 19.7-42.8 23.6-66.6h-75z"/><path id="XMLID_104_" class="st0" d="M695.9 191.6c9.9 21.3 16.8 44.4 20 68.6h74.5c-4.1-24.7-12.7-47.9-24.9-68.6h-69.6z"/><path id="XMLID_103_" class="st0" d="M698.2 260.3c-3.5-24.4-11-47.5-21.8-68.6h-77.7v68.6h99.5z"/><path id="XMLID_102_" class="st0" d="M675.9 392.7c10.6-20.5 18.1-43 21.8-66.6h-93.4l-5.8 5.8v60.9l77.4-.1z"/><path id="XMLID_101_" class="st0" d="M598.6 477.3c26.7-17.1 49.5-39.7 66.7-66.3h-66.7v66.3z"/><path id="XMLID_100_" class="st0" d="M665.8 173.3h-67.2v-67.2c27 17.3 50 40.3 67.2 67.2"/><path id="XMLID_99_" class="st0" d="M611 93.2c33.2 3.1 64 14.3 90.5 31.5v.3l.3-.2c19.9 13 37.4 29.4 51.6 48.5h-66.9c-18.6-32.2-44.5-59.7-75.5-80.1"/><path id="XMLID_98_" class="st0" d="M1037.9 110.9c39.6 49.9 63.2 113 63.2 181.6 0 161.5-131 292.5-292.5 292.5-38.8 0-75.8-7.6-109.7-21.3C665 577.4 628 585 589.2 585c-68.4 0-131.2-23.5-181-62.8l39.8-39.8c40 30.5 89.9 48.7 144.1 48.7 39.6 0 76.9-9.7 109.7-26.8 32.8 17.1 70.1 26.8 109.7 26.8 131.2 0 237.6-106.4 237.6-237.6 0-54.4-18.3-104.5-49-144.5l37.8-38.1z"/><path id="XMLID_97_" class="st0" d="M808.6 0c69.2 0 132.8 24.1 182.9 64.2l-38.3 38.4c-39.6-29.5-88.6-46.9-141.7-46.9-39.6 0-76.9 9.7-109.7 26.8-32.8-17.1-70.1-26.8-109.7-26.8-131.2 0-237.6 106.4-237.6 237.6 0 53.3 17.6 102.6 47.3 142.2l-40.3 40.3c-40.5-50.2-64.7-114-64.7-183.4C296.8 131 427.7 0 589.2 0 628 0 665 7.6 698.9 21.3 732.8 7.6 769.8 0 808.6 0"/></g></svg>