<svg id="Слой_1" xmlns="http://www.w3.org/2000/svg" viewBox="0 0 140.6 204" width="40" height="40"><style>.st0{fill:#fff;stroke:#63002f;stroke-width:3;stroke-miterlimit:10}.st1{fill:#63002f}.st2{fill:#620830}</style><path class="st0" d="M70.3 1.5C32.2 1.5 1.5 32.1 1.5 70.3s68.8 131.2 68.8 131.2 68.8-93.1 68.8-131.3S108.4 1.5 70.3 1.5z"/><path class="st1" d="M87.3 30.9H50.4c-2.9 0-5.5 2.5-5.5 5.5v75.3c0 2.9 2.5 5.5 5.5 5.5h36.9c2.9 0 5.5-2.5 5.5-5.5V36.4c-.1-3-2.6-5.5-5.5-5.5zm2.9 27.5c0 2.7-2.1 4.8-4.8 4.8H52.3c-2.7 0-4.8-2.1-4.8-4.8V38.9c0-2.7 2.1-4.8 4.8-4.8h33.1c2.7 0 4.8 2.1 4.8 4.8v19.5z"/><path class="st1" d="M81.2 57.1c0 1.9 1.5 3.4 3.4 3.4S88 59 88 57.1s-3.4-6.9-3.4-6.9-3.4 5.1-3.4 6.9zM113.5 97.4c-.6-1.7-1.5-3.6-2.3-5.7-2.7-6.1-6.3-14.5-6.7-25v-.2-.4l.4-16.4c0-1.5-.4-2.7-1.9-3.1l-10.3-3.4v4.2l6.9 2.1-2.3 5c0 11.7 0 13.2 3.6 13.2.8 10.5 4.4 18.9 6.9 25.2.8 2.1 1.7 4 2.3 5.5.8 2.5.2 4.2-.8 5.2-.6.6-1.5 1-2.3 1-.8.2-1.9 0-2.7-.4-1.7-.8-2.9-2.7-2.9-5.9v-5.9c0-1.5.2-3.1-.2-4.6-.4-1.5-1.3-2.5-2.5-3.4-1.5-1-3.8-1.5-5.5-1.5v3.6c1.3 0 2.7.4 3.6.8.4.2.6.6.8 1 .6 1 .4 2.7.4 3.8V98c0 4.8 2.3 7.8 5 9.2 1.5.6 3.1.8 4.8.6 1.7-.2 3.1-.8 4.4-2.1 1.5-.9 2.6-4.1 1.3-8.3zm-14-31.7c-.6-.6-.8-8.8-.8-8.8h1.7l.6 9c-.5.3-1.1.3-1.5-.2z"/><g><path class="st2" d="M53.1 47.7c1.3.4 2.7.8 4 1.3v-.8-.6c-1.3-.4-2.5-.8-4-1.3v1.4zm3.9-.2c3.8 1.3 7.3 2.7 10.9 4.4 2.9 1.3 5.9 2.9 8.8 4.4v-1.5c-2.9-1.5-5.7-2.9-8.8-4.4-3.4-1.5-6.9-2.9-10.7-4.2 0 .2-.2.6-.2 1v.3m-3.9-4.2v1.5c1.5.4 2.7.8 4 1.3h.2c.2-.4.2-.8.4-1.3-.2 0-.4-.2-.6-.2-1.3-.5-2.6-.9-4-1.3m0-2.9v1.5c1.3.4 2.7.8 4 1.3.4.2.8.2 1.3.4.2-.4.6-.8.8-1-.6-.4-1.5-.6-2.1-.8-1.3-.6-2.6-1-4-1.4m9.4 15.9c1.7.8 3.6 1.5 5.5 1.7 1.3.2 2.5.2 3.6.2.4 0 .8 0 1.5-.2.6 0 1-.2 1.5-.2 1 0 1.7 0 2.3.2v-.6c-2.9-1.5-5.7-2.9-8.8-4.4-3.5-1.5-7.1-3-11.1-4.2.5 3.7 2.6 6 5.5 7.5m5.4-7.3c2.9 1.3 5.9 2.9 8.8 4.4v-1.7c-2.9-1.5-5.7-2.9-8.8-4.4-3.1-1.3-6.3-2.5-9.6-3.8-.2.4-.4.8-.6 1.3 3.5 1.2 6.9 2.7 10.2 4.2m6.8-4.2c.6.2 1.3.4 2.1.8V38c-1 .4-1.9.4-2.7.4-.6 0-1.5-.2-4-.4H68c-2.1.2-4 .8-5.5 1.7-1.3.6-2.5 1.7-3.4 2.7 3.1 1 6.1 2.3 8.8 3.6 2.9 1.5 5.9 2.9 8.8 4.4v-1.7c-2.5-1.5-4.8-2.5-7.8-4 .6-.2 2.1-.4 3.1-.4 1 .1 1.8.3 2.7.5"/></g></svg>