<svg id="Layer_1" xmlns="http://www.w3.org/2000/svg" viewBox="0 0 113.4 96.6"><style>.st0{fill:#63002f}</style><path class="st0" d="M28.2 49.7h-.9v-1.3h.8c.5 0 .8.1.8.6 0 .4-.1.7-.7.7m.9.3c.6-.3.7-.7.7-.9 0-1.1-.9-1.2-1.4-1.2h-1.8V52h.8v-1.7h.6c.8 0 .8.4.8.7 0 .7 0 .8.1 1h.8c-.1-.3-.1-.4-.1-1 0-.4 0-.8-.5-1M28 53.5c-1.9 0-3.4-1.6-3.4-3.5 0-2 1.5-3.5 3.4-3.5s3.4 1.6 3.4 3.5-1.5 3.5-3.4 3.5m0-7.7c-2.3 0-4.2 1.9-4.2 4.1 0 2.3 1.9 4.2 4.2 4.2s4.2-1.9 4.2-4.2c0-2.2-1.8-4.1-4.2-4.1M20.5 26.1c3.6 1.1 7.1 2.2 10.6 3.3V29c-.1-.7-.1-1.3-.1-2 0-.5 0-1 .1-1.5-3.5-1.1-6.9-2.3-10.5-3.3v3.9h-.1zm10.6-.6c10 3.4 19.6 7.2 28.7 11.4 8 3.6 15.7 7.5 23.2 11.5v-3.9c-7.5-4.1-15.2-7.9-23.2-11.5-9-4.1-18.4-7.9-28.2-11.2-.3 1-.4 2.1-.5 3.1v.6M20.5 14.4v3.9c3.6 1.1 7.1 2.1 10.6 3.3.1.1.3.1.5.1.3-1.2.6-2.4 1.1-3.5-.5-.1-1.1-.3-1.5-.5-3.5-1.1-7.1-2.2-10.7-3.3m0-7.8v3.9c3.6 1 7.1 2.1 10.6 3.3 1.1.3 2.1.7 3.2 1.1.7-1.1 1.5-2.1 2.3-3.1-1.8-.7-3.7-1.3-5.5-1.9-3.4-1.1-7-2.2-10.6-3.3m24.9 42.2c4.4 2.3 9.5 3.7 14.4 4.5 3.2.5 6.4.7 9.4.7 1.1 0 2.3-.1 3.9-.3 1.5-.2 2.7-.3 3.7-.3 2.5 0 4.6.2 6.3.6v-1.6c-7.5-4.1-15.2-7.9-23.2-11.5-9.1-4.1-18.6-7.9-28.6-11.3.8 8.9 6.6 15.4 14.1 19.2m14.4-19.7c8 3.6 15.7 7.5 23.2 11.5v-3.9c-7.5-4.1-15.2-7.9-23.2-11.5-8.1-3.7-16.6-7.2-25.4-10.3-.7 1.1-1.2 2.2-1.7 3.3 9.4 3.3 18.4 6.9 27.1 10.9m17.9-11c1.5.4 3.5 1.1 5.3 2.4V.1c-2.6 1.1-5.2 1.1-7.1 1.1-1.8 0-3.9-.8-10.4-1.1-1.8-.1-3.7 0-5.7.2C54.5.9 49 2.6 45.5 4.9c-3.3 1.7-6.5 4.3-8.9 7 8 2.9 15.8 6 23.2 9.4 8 3.7 15.7 7.5 23.2 11.5v-4c-6.6-3.7-12.5-6.9-20.4-10.3 1.6-.8 5.3-1.3 8.1-1.3 2.6-.1 4.6.3 7 .9M7.7 88.9v1.3h2.2v6.3h1.6v-6.3h2.2v-1.3zM15.6 92.7c0 2.6 1.5 2.8 2.1 2.8s2.1-.2 2.1-2.8c0-2.6-1.5-2.8-2.1-2.8-.6 0-2.1.2-2.1 2.8m5.9 0c0 2.8-1.9 3.9-3.8 3.9s-3.8-1.1-3.8-3.9 1.9-3.9 3.8-3.9 3.8 1.1 3.8 3.9M24.3 95.3h.9c1 0 1.4-.5 1.4-1.1 0-.5-.3-1.1-1.4-1.1h-.9v2.2zm0-3.3h.7c1 0 1.2-.6 1.2-1 0-.2-.1-1-1.3-1h-.7l.1 2zm.9-3.1c1.5 0 2.5.6 2.5 1.9 0 1.1-.7 1.6-1.2 1.8 1 .2 1.6.9 1.6 1.8 0 1-.6 2.2-3 2.2h-2.4v-7.7h2.5zM32.4 90.4l1.1 3.1h-2.2l1.1-3.1zm-.8-1.5l-3.1 7.7h1.7l.6-1.7H34l.6 1.7h1.8l-3-7.7h-1.8zM39.6 92.4c.9 0 1.3-.6 1.3-1.2s-.4-1.1-1.3-1.1h-.7v2.4h.7v-.1zm0-3.5c2.8 0 2.9 1.9 2.9 2.4 0 1-.7 2.4-2.7 2.4h-1v2.9h-1.6v-7.7h2.4zM48.4 88.9v3h-3.1v-3h-1.5v7.6h1.5v-3.3h3.1v3.3H50v-7.6zM59.6 96.5H58v-7.7h1.6v7.7zm-6.5-1.2h1c.7 0 1.3-.4 1.3-1.2 0-.5-.2-1.2-1.4-1.2h-.9v2.4zm0-3.6h1.1c2.6 0 2.8 1.8 2.8 2.3 0 1.2-.7 2.5-2.9 2.5h-2.6v-7.7h1.6v2.9zM61.1 88.9v7.6h4.6v-1.3h-3v-2h2.7v-1.3h-2.7v-1.7h3v-1.3zM71.8 92.4c.9 0 1.3-.6 1.3-1.2s-.4-1.1-1.3-1.1h-.7v2.4h.7v-.1zm0-3.5c2.8 0 2.9 1.9 2.9 2.4 0 1-.7 2.4-2.7 2.4h-1v2.9h-1.6v-7.7h2.4zM84.1 96.5h-1.6v-7.7h1.6v7.7zm-6.6-1.2h1c.7 0 1.3-.4 1.3-1.2 0-.5-.2-1.2-1.4-1.2h-.9v2.4zm0-3.6h1.1c2.6 0 2.8 1.8 2.8 2.3 0 1.2-.7 2.5-2.9 2.5H76v-7.7h1.6l-.1 2.9zM90.2 88.9v3h-3.1v-3h-1.5v7.6h1.5v-3.3h3.1v3.3h1.6v-7.6zM97.7 88.9l-2.8 3.2v-3.2h-1.6v7.6h1.6v-3.8l2.9 3.8h1.9l-3.4-4.2 3.2-3.4zM105.3 88.9l-2.6 4.6-.6 1.2v-5.8h-1.5v7.6h1.8l2.7-4.6.6-1.2v5.8h1.5v-7.6z"/><g><path class="st0" d="M72.5 74l7.5-3.1v-.3c0-.4-.2-1.2-.7-1.4h8c-.4.2-.7 1-.7 1.4v8.2c0 .4.3 1.2.7 1.4h-8c.5-.2.7-1 .7-1.4V75l-7.5 3v.9c0 .4.2 1.2.7 1.4h-8c.4-.2.7-1 .7-1.4v-8.2c0-.4-.2-1.2-.7-1.4h8c-.4.2-.7 1-.7 1.4V74zM56.7 69.3h-7l-7.3 10.2c-.2.2-.6.5-1.2.8h7.3c-.1-.1-.2-.3-.2-.6 0-.1.1-.5.4-1l3-4.5h.1l3.1 4.5c0 .1.1.2.2.3.1.1.2.2.2.4.1.1.1.2.1.2 0 .2-.1.4-.3.5v.1H64c-.4-.2-.6-.4-.8-.6s-.4-.5-.7-.9l-5.8-8c-.2-.3-.3-.5-.3-.7-.1 0-.2-.6.3-.7M99 72.5h2.2l2.8 4.8h-7.3l2.3-4.8zm11.9 4.8l-4-6.2c-.1-.2-.3-.5-.3-.6 0-.2-.2-1 .2-1.2h-9.9l-4.7 8h-2.6v4.6c.6-.2 1.9-1.2 2.9-1.2h18.1c1 0 2.2 1 2.8 1.2v-4.6h-2.5zM34.6 76.2c-.4.4-1 .7-1.7 1-.7.2-1.5.4-2.3.4s-1.6-.1-2.3-.4c-.7-.2-1.3-.5-1.7-1-.4-.4-.6-.9-.6-1.4s.2-1 .6-1.4 1-.7 1.7-1 1.5-.3 2.3-.3 1.6.1 2.3.3c.7.2 1.3.5 1.7 1 .4.4.6.9.6 1.4 0 .5-.2 1-.6 1.4m6.1-3.8c-.6-.7-1.3-1.4-2.4-2-1-.6-2.2-1-3.5-1.3s-2.8-.5-4.4-.5c-1.5 0-3 .1-4.3.5-1.4.3-2.6.7-3.6 1.3-1 .6-1.8 1.2-2.4 2-.5.7-.8 1.5-.8 2.4 0 1.1.5 2.1 1.5 3.1s2.3 1.7 4 2.3c1.7.6 3.6.8 5.6.8 1.6 0 3-.1 4.4-.5 1.3-.3 2.5-.7 3.6-1.3 1-.6 1.8-1.2 2.3-2s.8-1.6.8-2.4c.1-.8-.2-1.6-.8-2.4M17 76.2V81c-.5-.1-1.2-.1-2-.1h-1.2c-.6.1-1 .1-1.3.1-2.3 0-4.4-.3-6.3-.8s-3.4-1.3-4.5-2.3C.6 77 0 75.9 0 74.8c0-.8.3-1.6.9-2.4.6-.7 1.5-1.4 2.7-2 1.1-.6 2.4-1 4-1.3 1.5-.3 3.2-.5 4.9-.5.3 0 .8 0 1.3.1H15c.8 0 1.5 0 2-.1v4.7c-.6-.3-1.3-.5-2.1-.7s-1.6-.2-2.5-.2-1.8.1-2.6.3c-.8.2-1.4.5-1.8.9-.4.4-.7.8-.7 1.2 0 .4.2.8.6 1.2.4.4 1 .6 1.8.9.8.2 1.6.3 2.6.3.9 0 1.7-.1 2.5-.2.9-.2 1.6-.5 2.2-.8"/></g></svg>