<svg xmlns="http://www.w3.org/2000/svg" width="40" height="40" viewBox="0 0 21000 29700" shape-rendering="geometricPrecision" text-rendering="geometricPrecision" image-rendering="optimizeQuality" fill-rule="evenodd" clip-rule="evenodd"><defs><style>.str0{stroke:#e60013;stroke-width:436.76}.fil1{fill:#e60013}.fil0{fill:#fff}</style></defs><g id="Слой_x0020_1"><path class="fil0 str0" d="M10500 218C4953 218 484 4673 484 10235c0 5561 10016 19101 10016 19101s10016-13554 10016-19116c0-5561-4469-10002-10016-10002z"/><g id="_608540096"><path class="fil1" d="M12975 4499H7603c-422 0-801 364-801 800v10963c0 422 364 801 801 801h5372c422 0 801-364 801-801V5299c-15-436-379-800-801-800zm422 4003c0 393-306 699-699 699H7879c-393 0-698-306-698-699V5663c0-393 305-698 698-698h4819c393 0 699 305 699 698v2839z"/><path class="fil1" d="M12087 8313c0 277 218 495 495 495s495-218 495-495-495-1004-495-1004-495 742-495 1004zM16789 14180c-87-247-218-524-334-830-394-888-918-2111-976-3639v-29-59l58-2387c0-219-58-393-276-452l-1500-495v612l1005 306-335 728c0 1703 0 1921 524 1921 116 1529 641 2752 1005 3669 116 306 247 582 334 801 117 364 30 611-116 757-87 87-218 146-335 146-116 29-277 0-393-59-247-116-422-393-422-859v-859c0-218 29-451-29-669-59-219-190-364-364-495-219-146-554-219-801-219v524c189 0 393 59 524 117 58 29 87 87 117 145 87 146 58 394 58 554v859c0 698 335 1135 728 1339 218 87 451 117 699 87 247-29 451-116 640-305 219-131 379-597 189-1209zm-2038-4615c-87-87-116-1281-116-1281h247l88 1310c-73 44-161 44-219-29z"/></g><path class="fil1" d="M7996 6945c189 58 393 116 582 189v-117-87c-189-58-364-116-582-189v204zm568-30c553 190 1062 394 1587 641 422 189 859 422 1281 641v-219c-422-218-830-422-1281-640-495-219-1005-423-1558-612 0 29-29 88-29 146v43zm-568-611v218c218 59 393 117 582 190h29c29-59 29-117 59-190-30 0-59-29-88-29-189-73-378-131-582-189zm0-422v218c189 58 393 117 582 189 58 30 117 30 189 59 30-59 88-117 117-146-87-58-218-87-306-116-189-88-378-146-582-204zm1368 2315c248 116 525 218 801 247 189 29 364 29 524 29 59 0 117 0 219-29 87 0 145-29 218-29 146 0 248 0 335 29v-87c-422-219-830-422-1281-641-510-218-1034-437-1616-611 72 538 378 873 800 1092zm787-1063c422 189 859 422 1281 640v-247c-422-218-830-422-1281-641-452-189-918-364-1398-553-29 58-58 117-87 189 509 175 1004 393 1485 612zm990-612c87 29 189 59 305 117V5532c-145 59-276 59-393 59-87 0-218-30-582-59h-306c-306 29-582 117-801 248-189 87-364 247-495 393 452 146 888 335 1282 524 422 218 859 422 1281 641v-248c-364-218-699-364-1136-582 88-29 306-58 451-58 146 14 263 43 394 72z" id="_608536704"/></g></svg>