<svg xmlns="http://www.w3.org/2000/svg" viewBox="0 0 100 125" fill="#002d33"><path d="M83.653 81.909a.945.945 0 0 0-.047-.292V50.65a1 1 0 0 0-1-1h-23.63c-2.096-9.638-3.291-15.518-3.293-16.292 0-3.189 2.296-5.013 4.727-6.942 2.535-2.013 5.155-4.093 5.155-7.792C65.565 11.521 57.186 9 50.011 9s-15.554 2.521-15.554 9.624c0 3.699 2.622 5.78 5.157 7.792 2.432 1.93 4.729 3.753 4.729 6.942-.002.793-1.169 6.546-3.291 16.292H17.396a1 1 0 0 0-1 1V81.6a.996.996 0 0 0-.049.31v7.729a1 1 0 0 0 1 1h16.664a1 1 0 0 0 1-1v-3.171h1.471c.896 0 1.65.83 2.524 1.791 1.11 1.22 2.492 2.741 4.673 2.741h12.643c2.182 0 3.563-1.52 4.673-2.741.874-.961 1.628-1.792 2.525-1.792h1.469v3.171a1 1 0 0 0 1 1h16.664a1 1 0 0 0 1-1v-7.729zM44.661 89l.606-2.636h9.47L55.342 89H44.661zm11.907-.023l-.769-3.348a.601.601 0 0 0-.585-.466H44.789a.6.6 0 0 0-.585.466l-.769 3.348c-1.163-.115-1.998-1.018-2.949-2.064-1.042-1.146-2.223-2.446-4.004-2.446h-1.408c.277-.51.492-1.102.651-1.797a4717.316 4717.316 0 0 0 6.011-26.801h16.551a4652.806 4652.806 0 0 0 6.011 26.801c.156.686.375 1.286.651 1.797h-1.43c-1.783 0-2.963 1.3-4.005 2.446-.95 1.046-1.784 1.948-2.946 2.064zm10.021-4.289v-.756l.261-.174a3.53 3.53 0 0 1-.261-.511v-.738h15.063v6.129H66.989v-3.171a.983.983 0 0 0-.4-.779zm-.549-3.379c-2.2-9.695-4.126-18.293-5.702-25.44h21.267v25.44H66.04zm15.565-26.641H60.074l-.662-3.018h22.193v3.018zm-23.582 0H42.001l.662-3.018h14.699c.215.988.435 1.995.661 3.018zm-18.072 0H18.396V51.65h22.218c-.213.973-.433 1.976-.663 3.018zm-.264 1.201a4586.488 4586.488 0 0 1-5.704 25.44H18.396v-25.44h21.291zm-6.676 29.598v3.171H18.347v-6.129H33.41v.781c-.08.174-.16.352-.255.491l.255.174v.733a.985.985 0 0 0-.399.779zm13.331-52.109c0-4.156-2.914-6.468-5.485-8.509-2.361-1.874-4.4-3.492-4.4-6.225 0-6.018 8.52-7.624 13.554-7.624 5.035 0 13.555 1.605 13.555 7.624 0 2.733-2.039 4.352-4.399 6.226-2.57 2.041-5.483 4.354-5.483 8.509 0 1.015 1.374 7.685 3.243 16.292H43.098c1.915-8.817 3.244-15.293 3.244-16.293z"/></svg>