<svg id="Слой_1" xmlns="http://www.w3.org/2000/svg" viewBox="0 0 122 72.2"><style>.st0{fill:#b7b7b7}</style><path class="st0" d="M15.4 0c-2.3 0-4.2 1.9-4.2 4.2v60c0 .3 0 .5.1.8H1.1c-.6 0-1.1.5-1.1 1.1v3.2c0 .2.1.4.2.6.2.2 2 2.3 7 2.3h107.3c5 0 7.1-2.1 7.2-2.1.2-.2.3-.4.3-.7v-2.6c0-.2 0-.3-.1-.5v-.2c0-.6-.5-1.1-1.1-1.1h-10.3c0-.3.1-.5.1-.8v-60c0-2.3-1.9-4.2-4.2-4.2h-91zm-.1 2h91c1.2 0 2.2 1 2.2 2.2v60c0 .3-.1.6-.2.8h-95c-.1-.2-.2-.5-.2-.8v-60c0-1.2 1-2.2 2.2-2.2zm2.2 3.6c-.3 0-.5.2-.5.5v55c0 .3.2.5.5.5h86.8c.3 0 .5-.3.5-.5v-55c0-.3-.2-.5-.5-.5H17.5zm.5 1h85.8v54H18v-54zM2 67h49.5c.4.9 1.7 1.3 2.7 1.3h13.1c.7 0 1.8-.4 2.2-1.3h50.4v.9c0 .2 0 .3.1.5v.5c-.7.5-2.4 1.4-5.5 1.4H7.2c-3.1 0-4.7-1-5.2-1.4V67zm50.9 0h15.3c-.3.2-.7.3-.9.3H54.2c-.4 0-.9-.1-1.3-.3z"/><path class="st0" d="M43.5 28.3c1-.9 2.2-1.6 3.4-2.3-.1-1.4 0-2.8.3-4.1.3-1.6 1-3.2 2.1-4.4.3-.3.6-.5.9-.8-2 1.2-3.7 2.8-5.2 4.6-2.8 3.4-4.4 7.8-4.5 12.2.2-2.1 1.5-3.9 3-5.2zM81.4 32.3c-.3-3.5-1.5-7-3.6-9.9-1.6-2.2-3.5-4.2-5.9-5.6l.9.9c.9 1 1.4 2.3 1.7 3.6.4 1.5.5 3.1.4 4.7 1.7.9 3.4 2 4.7 3.6 1 1.1 1.7 2.5 1.8 4 .1-.4.1-.9 0-1.3zM54.1 25.3c-1.5.3-3 .7-4.5 1.2-.4.1-.7.3-1.1.4.4 3.1 1.4 6.1 2.7 8.9 1.2 2.7 2.8 5.2 4.7 7.6 1.5 1.9 3.2 3.7 5.1 5.1.7-.6 1.5-1.2 2.1-1.8 1.8-1.7 3.3-3.6 4.7-5.6 1.6-2.3 2.9-4.8 3.9-7.4.8-2.2 1.4-4.4 1.8-6.7-3.2-1.3-6.6-2-10-2.2-3.1-.3-6.3-.1-9.4.5z"/><path class="st0" d="M78.9 30.3c-.2-.2-.5-.5-.8-.7-1-.8-2.1-1.5-3.2-2-.5 4.2-2.1 8.3-4.2 12-2.2 3.8-5 7.2-8.4 9.9 1.2.8 2.5 1.5 3.8 1.9 1.6.5 3.3.8 4.9.4l.9-.3c3-1.9 5.5-4.6 7.2-7.8 1.4-2.7 2.2-5.7 2.3-8.7-.1-.3-.2-.7-.3-1-.3-1.5-1.2-2.7-2.2-3.7zM55.6 51.4c1.4-.5 2.8-1.2 4.1-2-2.1-1.6-4-3.6-5.7-5.7-1.7-2.2-3.1-4.6-4.3-7.1-1.3-2.9-2.3-5.9-2.7-9-1.5.8-3 1.7-4.2 3-1.1 1.1-1.9 2.5-2.2 4 0 .2-.1.3-.1.4.1 3 .9 6 2.3 8.6 1.4 2.6 3.3 4.9 5.6 6.8.5.4 1.1.8 1.7 1.2.4 0 .7.2 1.1.3 1.4.2 3 0 4.4-.5z"/><path class="st0" d="M64.2 52c-1.2-.5-2.2-1-3.2-1.7-1 .7-2 1.2-3.1 1.7-1.5.6-3.2.9-4.9.7-.5-.1-.9-.2-1.3-.3h.1c5.8 3 13.1 3 18.8-.1-.4.1-.8.3-1.3.3-1.8.3-3.5 0-5.1-.6zM48.4 25.3c.8-.3 1.7-.7 2.5-.9 4.1-1.2 8.5-1.7 12.8-1.4 3.4.2 6.8.9 9.9 2.3.1-1.9 0-3.8-.6-5.6-.4-1.3-1.1-2.6-2.2-3.5-.1-.1-.2-.2-.2-.3-5.9-3.2-13.3-3.2-19.1 0-.2.3-.4.4-.6.6-1 1-1.6 2.3-2 3.7-.5 1.7-.6 3.4-.5 5.1z"/></svg>