<svg id="Слой_1" xmlns="http://www.w3.org/2000/svg" viewBox="0 0 45.4 86.5"><style>.st0{fill:#b7b7b7}</style><path class="st0" d="M5.5 86.5h34.4c3 0 5.5-2.5 5.5-5.5V5.5c0-3-2.5-5.5-5.5-5.5H5.5C2.5 0 0 2.5 0 5.5V81c0 3 2.5 5.5 5.5 5.5zm-3.9-81c0-2.2 1.8-3.9 3.9-3.9h34.4c2.2 0 3.9 1.8 3.9 3.9V81c0 2.2-1.8 3.9-3.9 3.9H5.5c-2.2 0-3.9-1.8-3.9-3.9V5.5z"/><path class="st0" d="M4.6 74.1h36.2c.4 0 .8-.4.8-.8V8.2c0-.4-.4-.8-.8-.8H4.6c-.4 0-.8.4-.8.8v65.1c0 .4.4.8.8.8zM5.4 9H40v63.5H5.4V9zM22.7 75.6c-2.2 0-3.9 1.8-3.9 3.9s1.8 3.9 3.9 3.9c2.2 0 3.9-1.8 3.9-3.9s-1.7-3.9-3.9-3.9zm0 6.4c-1.3 0-2.4-1.1-2.4-2.4s1.1-2.4 2.4-2.4 2.4 1.1 2.4 2.4S24 82 22.7 82z"/><g><path class="st0" d="M11.7 37.1c.7-.6 1.4-1 2.2-1.4 0-.9 0-1.7.2-2.6.2-1 .6-2 1.3-2.7.2-.2.4-.3.6-.5-1.2.7-2.3 1.7-3.2 2.9-1.7 2.2-2.8 4.9-2.8 7.7 0-1.5.7-2.6 1.7-3.4zM35.6 39.6c-.2-2.2-1-4.4-2.2-6.2-1-1.4-2.2-2.6-3.7-3.5l.6.6c.5.6.9 1.4 1.1 2.3.2 1 .3 2 .2 2.9 1.1.6 2.1 1.3 2.9 2.2.6.7 1 1.6 1.1 2.5v-.8zM18.4 35.2c-1 .2-1.9.4-2.8.8-.2.1-.5.2-.7.3.3 1.9.9 3.8 1.7 5.6.8 1.7 1.8 3.3 2.9 4.8 1 1.2 2 2.3 3.2 3.2.5-.4.9-.7 1.3-1.2 1.1-1.1 2.1-2.3 3-3.5 1-1.5 1.8-3 2.4-4.7.5-1.4.9-2.8 1.1-4.2-2-.8-4.1-1.2-6.3-1.4-1.9-.2-3.9-.1-5.8.3z"/><path class="st0" d="M33.9 38.4c-.2-.2-.3-.3-.5-.4-.6-.5-1.3-.9-2-1.3-.3 2.7-1.3 5.2-2.6 7.5-1.4 2.4-3.1 4.5-5.3 6.2.8.5 1.6.9 2.4 1.2 1 .3 2.1.5 3.1.2.2 0 .4-.1.6-.2 1.9-1.2 3.5-2.9 4.5-4.9.9-1.7 1.4-3.6 1.5-5.5-.1-.2-.1-.4-.2-.6-.3-.8-.8-1.6-1.5-2.2zM19.3 51.6c.9-.3 1.8-.7 2.6-1.2-1.3-1-2.5-2.3-3.6-3.6-1.1-1.4-2-2.9-2.7-4.5-.8-1.8-1.4-3.7-1.7-5.7-1 .5-1.9 1.1-2.6 1.9-.7.7-1.2 1.5-1.4 2.5 0 .1-.1.2-.1.3.1 1.9.6 3.7 1.4 5.4.9 1.7 2.1 3.1 3.5 4.3.3.3.7.5 1.1.7.2 0 .4.1.7.2.9.1 1.9 0 2.8-.3z"/><path class="st0" d="M24.7 52c-.7-.3-1.4-.6-2-1-.6.4-1.3.8-2 1-1 .4-2 .6-3.1.4-.3 0-.6-.1-.8-.2h.1c3.7 1.9 8.2 1.9 11.9-.1-.3.1-.5.2-.8.2-1.2.3-2.3.1-3.3-.3zM14.8 35.2c.5-.2 1-.4 1.6-.6 2.6-.8 5.4-1 8.1-.9 2.1.2 4.3.6 6.2 1.4.1-1.2 0-2.4-.4-3.5-.3-.8-.7-1.6-1.4-2.2l-.2-.2c-3.7-2-8.4-2-12 0-.1.2-.3.3-.4.4-.6.6-1 1.5-1.2 2.3-.3 1.2-.4 2.3-.3 3.3z"/></g></svg>