<svg id="Слой_1" xmlns="http://www.w3.org/2000/svg" viewBox="0 0 122 72.2"><style>.st0{fill:#b7b7b7}</style><path class="st0" d="M15.4 0c-2.3 0-4.2 1.9-4.2 4.2v60c0 .3 0 .5.1.8H1.1c-.6 0-1.1.5-1.1 1.1v3.2c0 .2.1.4.2.6.2.2 2 2.3 7 2.3h107.3c5 0 7.1-2.1 7.2-2.1.2-.2.3-.4.3-.7v-2.6c0-.2 0-.3-.1-.5v-.2c0-.6-.5-1.1-1.1-1.1h-10.3c0-.3.1-.5.1-.8v-60c0-2.3-1.9-4.2-4.2-4.2h-91zm-.1 2h91c1.2 0 2.2 1 2.2 2.2v60c0 .3-.1.6-.2.8h-95c-.1-.2-.2-.5-.2-.8v-60c0-1.2 1-2.2 2.2-2.2zm2.2 3.6c-.3 0-.5.2-.5.5v55c0 .3.2.5.5.5h86.8c.3 0 .5-.3.5-.5v-55c0-.3-.2-.5-.5-.5H17.5zm.5 1h85.8v54H18v-54zM2 67h49.5c.4.9 1.7 1.3 2.7 1.3h13.1c.7 0 1.8-.4 2.2-1.3h50.4v.9c0 .2 0 .3.1.5v.5c-.7.5-2.4 1.4-5.5 1.4H7.2c-3.1 0-4.7-1-5.2-1.4V67zm50.9 0h15.3c-.3.2-.7.3-.9.3H54.2c-.4 0-.9-.1-1.3-.3z"/><path class="st0" d="M51.7 23.4l-.3-1.2c-.2-1.3-.3-2.5 0-3.7.4-1.6 1.2-2.8 2.2-3.8.6-.7 1.3-1.2 2-1.6.6-.4 1.2-.8 2-1 .5-.2 1.1-.3 1.7-.4 1.9-.2 3.4.3 4.5.9 1.6.9 2.2 2 2.2 2s3.6.2 2.4 7.6c0 .4-.2.8-.3 1.2.7 0 1.6.3.8 3.2-.6 2.1-1.1 2.6-1.6 2.7-.4 2.4-2.4 5.6-5.4 6.7-1.3.5-2.7.5-3.9 0-3.1-1.1-5-4.2-5.4-6.7-.4 0-.9-.6-1.6-2.7-.9-2.8-.1-3.2.7-3.2zm23.2 17.1c.6-.1.7-.8.2-1.1-.3-.2-.7-.3-1.1-.5-4.4-1.1-8-3.6-8-3.6l-2.8 8.8-.5 1.6-.5 1.4-1.3-4.1c3.6-5-.8-5-1-5s-4.6 0-1 5l-1.5 4.1-.5-1.4-.5-1.6-2.8-8.8s-3.6 2.5-8 3.6c-3.3.8-3.4 4.6-3.3 6.5 0 0 .2 2.5.4 3.7 0 0 6.4 4.1 17.1 4.2 2.9 0 5.4-.3 7.6-.8-.2-.8-.3-1.7-.3-2.6 0-4.7 3.4-8.6 7.8-9.4zm-5.3 9.4c0-3.9 3.1-7.1 7.1-7.1 3.9 0 7.1 3.1 7.1 7.1S80.6 57 76.7 57c-3.9 0-7.1-3.2-7.1-7.1zm3.7 0c0 .5.4.9.9.9h1.5v1.6c0 .5.4.9.9.9s.9-.4.9-.9v-1.6h1.6c.5 0 .9-.4.9-.9s-.3-.9-.9-.9h-1.6v-1.6c0-.5-.4-.9-.9-.9s-.9.4-.9.9V49h-1.6c-.4 0-.8.4-.8.9z"/></svg>