<svg width="50pt" height="50pt" viewBox="0 0 50 50" xmlns="http://www.w3.org/2000/svg"><path fill="#002d33" d="M23.64 0h2.58C38.53.44 49.27 10.96 50 23.25v3.39C49.35 38.79 38.91 49.2 26.8 50h-3.4C11.27 49.33.81 38.98 0 26.85v-3.51C.69 11.06 11.35.53 23.64 0m.53 15.63c-1.06 1.07-2.13 2.13-3.22 3.18 2.6.01 5.2-.02 7.8-.02-5.01 4.99-10.03 9.97-14.99 15.01.87.76 1.71 1.58 2.51 2.42 4.89-4.92 9.83-9.81 14.71-14.74-.01 2.57.03 5.15.04 7.72 1.11-1.15 2.26-2.26 3.37-3.41-.05-3.56.24-7.12.22-10.68-3.47.33-6.96.31-10.44.52z"/><path fill="#fff" d="M24.17 15.63c3.48-.21 6.97-.19 10.44-.52.02 3.56-.27 7.12-.22 10.68-1.11 1.15-2.26 2.26-3.37 3.41-.01-2.57-.05-5.15-.04-7.72-4.88 4.93-9.82 9.82-14.71 14.74-.8-.84-1.64-1.66-2.51-2.42 4.96-5.04 9.98-10.02 14.99-15.01-2.6 0-5.2.03-7.8.02 1.09-1.05 2.16-2.11 3.22-3.18z"/></svg>