<svg id="Слой_1" xmlns="http://www.w3.org/2000/svg" viewBox="0 0 113.4 96.6"><style>.st0{fill:#63002f}.st2{font-size:11px}.st3{letter-spacing:4}</style><g id="Layer_1"><path class="st0" d="M28.2 49.7h-.9v-1.3h.8c.5 0 .8.1.8.6 0 .4-.1.7-.7.7m.9.3c.6-.3.7-.7.7-.9 0-1.1-.9-1.2-1.4-1.2h-1.8V52h.8v-1.7h.6c.8 0 .8.4.8.7 0 .7 0 .8.1 1h.8c-.1-.3-.1-.4-.1-1 0-.4 0-.8-.5-1M28 53.5c-1.9 0-3.4-1.6-3.4-3.5 0-2 1.5-3.5 3.4-3.5s3.4 1.6 3.4 3.5-1.5 3.5-3.4 3.5m0-7.7c-2.3 0-4.2 1.9-4.2 4.1 0 2.3 1.9 4.2 4.2 4.2s4.2-1.9 4.2-4.2c0-2.2-1.8-4.1-4.2-4.1M20.5 26.1c3.6 1.1 7.1 2.2 10.6 3.3V29c-.1-.7-.1-1.3-.1-2 0-.5 0-1 .1-1.5-3.5-1.1-6.9-2.3-10.5-3.3v3.9h-.1zm10.6-.6c10 3.4 19.6 7.2 28.7 11.4 8 3.6 15.7 7.5 23.2 11.5v-3.9c-7.5-4.1-15.2-7.9-23.2-11.5-9-4.1-18.4-7.9-28.2-11.2-.3 1-.4 2.1-.5 3.1v.6M20.5 14.4v3.9c3.6 1.1 7.1 2.1 10.6 3.3.1.1.3.1.5.1.3-1.2.6-2.4 1.1-3.5-.5-.1-1.1-.3-1.5-.5-3.5-1.1-7.1-2.2-10.7-3.3m0-7.8v3.9c3.6 1 7.1 2.1 10.6 3.3 1.1.3 2.1.7 3.2 1.1.7-1.1 1.5-2.1 2.3-3.1-1.8-.7-3.7-1.3-5.5-1.9-3.4-1.1-7-2.2-10.6-3.3m24.9 42.2c4.4 2.3 9.5 3.7 14.4 4.5 3.2.5 6.4.7 9.4.7 1.1 0 2.3-.1 3.9-.3 1.5-.2 2.7-.3 3.7-.3 2.5 0 4.6.2 6.3.6v-1.6c-7.5-4.1-15.2-7.9-23.2-11.5-9.1-4.1-18.6-7.9-28.6-11.3.8 8.9 6.6 15.4 14.1 19.2m14.4-19.7c8 3.6 15.7 7.5 23.2 11.5v-3.9c-7.5-4.1-15.2-7.9-23.2-11.5-8.1-3.7-16.6-7.2-25.4-10.3-.7 1.1-1.2 2.2-1.7 3.3 9.4 3.3 18.4 6.9 27.1 10.9m17.9-11c1.5.4 3.5 1.1 5.3 2.4V.1c-2.6 1.1-5.2 1.1-7.1 1.1-1.8 0-3.9-.8-10.4-1.1-1.8-.1-3.7 0-5.7.2C54.5.9 49 2.6 45.5 4.9c-3.3 1.7-6.5 4.3-8.9 7 8 2.9 15.8 6 23.2 9.4 8 3.7 15.7 7.5 23.2 11.5v-4c-6.6-3.7-12.5-6.9-20.4-10.3 1.6-.8 5.3-1.3 8.1-1.3 2.6-.1 4.6.3 7 .9"/><g><path class="st0" d="M72.5 74l7.5-3.1v-.3c0-.4-.2-1.2-.7-1.4h8c-.4.2-.7 1-.7 1.4v8.2c0 .4.3 1.2.7 1.4h-8c.5-.2.7-1 .7-1.4V75l-7.5 3v.9c0 .4.2 1.2.7 1.4h-8c.4-.2.7-1 .7-1.4v-8.2c0-.4-.2-1.2-.7-1.4h8c-.4.2-.7 1-.7 1.4V74zM56.7 69.3h-7l-7.3 10.2c-.2.2-.6.5-1.2.8h7.3c-.1-.1-.2-.3-.2-.6 0-.1.1-.5.4-1l3-4.5h.1l3.1 4.5c0 .1.1.2.2.3.1.1.2.2.2.4.1.1.1.2.1.2 0 .2-.1.4-.3.5v.1H64c-.4-.2-.6-.4-.8-.6s-.4-.5-.7-.9l-5.8-8c-.2-.3-.3-.5-.3-.7-.1 0-.2-.6.3-.7M99 72.5h2.2l2.8 4.8h-7.3l2.3-4.8zm11.9 4.8l-4-6.2c-.1-.2-.3-.5-.3-.6 0-.2-.2-1 .2-1.2h-9.9l-4.7 8h-2.6v4.6c.6-.2 1.9-1.2 2.9-1.2h18.1c1 0 2.2 1 2.8 1.2v-4.6h-2.5zM34.6 76.2c-.4.4-1 .7-1.7 1-.7.2-1.5.4-2.3.4s-1.6-.1-2.3-.4c-.7-.2-1.3-.5-1.7-1-.4-.4-.6-.9-.6-1.4s.2-1 .6-1.4 1-.7 1.7-1 1.5-.3 2.3-.3 1.6.1 2.3.3c.7.2 1.3.5 1.7 1 .4.4.6.9.6 1.4 0 .5-.2 1-.6 1.4m6.1-3.8c-.6-.7-1.3-1.4-2.4-2-1-.6-2.2-1-3.5-1.3s-2.8-.5-4.4-.5c-1.5 0-3 .1-4.3.5-1.4.3-2.6.7-3.6 1.3-1 .6-1.8 1.2-2.4 2-.5.7-.8 1.5-.8 2.4 0 1.1.5 2.1 1.5 3.1s2.3 1.7 4 2.3c1.7.6 3.6.8 5.6.8 1.6 0 3-.1 4.4-.5 1.3-.3 2.5-.7 3.6-1.3 1-.6 1.8-1.2 2.3-2s.8-1.6.8-2.4c.1-.8-.2-1.6-.8-2.4M17 76.2V81c-.5-.1-1.2-.1-2-.1h-1.2c-.6.1-1 .1-1.3.1-2.3 0-4.4-.3-6.3-.8s-3.4-1.3-4.5-2.3C.6 77 0 75.9 0 74.8c0-.8.3-1.6.9-2.4.6-.7 1.5-1.4 2.7-2 1.1-.6 2.4-1 4-1.3 1.5-.3 3.2-.5 4.9-.5.3 0 .8 0 1.3.1H15c.8 0 1.5 0 2-.1v4.7c-.6-.3-1.3-.5-2.1-.7s-1.6-.2-2.5-.2-1.8.1-2.6.3c-.8.2-1.4.5-1.8.9-.4.4-.7.8-.7 1.2 0 .4.2.8.6 1.2.4.4 1 .6 1.8.9.8.2 1.6.3 2.6.3.9 0 1.7-.1 2.5-.2.9-.2 1.6-.5 2.2-.8"/></g></g></svg>