<svg id="Layer_1" xmlns="http://www.w3.org/2000/svg" viewBox="0 0 1024 1024"><style>.st0{fill:#b7b7b7}</style><path class="st0" d="M53 986.9c-15.2-16.8-23.6-37.5-25.7-60.9-.3-3.8-.2-7.6-.2-11.4 0-268.3 0-536.6-.1-804.9 0-27.9 8-52.4 25.6-72.4 158.7 158.9 317.1 317.5 474.6 475.1L53 986.9zM99.1 1017.9C255.6 861.3 411.4 705.5 566 550.7l166.6 166.6c-68.2 36.5-137.4 73.5-206.6 110.6-113.1 60.6-226.3 121.2-339.4 181.9-27.8 14.9-56.5 18.8-87.5 8.1zM99.3 5.5c30.4-9.6 59.2-6.6 87.2 8.4 124.8 67 249.7 133.8 374.6 200.7 53.7 28.8 107.4 57.5 161.1 86.3 3.7 2 7.2 4.1 9.6 5.4-55.6 55.7-111.2 111.3-166 166.2C411.5 318 255.8 162.2 99.3 5.5zM603.4 512.6c60.1-60.1 119.2-119.1 178.8-178.7-.4 0 .4-.3 1 0 54.1 28.9 109 56.4 162 87.2 68.5 39.8 69.1 140.7.9 180.9-51.8 30.5-105.8 57.5-158.9 85.7-2.4 1.3-7.7.8-9.6-1.1-58.2-57.8-116.1-115.8-174.2-174z"/></svg>