<svg width="177" height="53" viewBox="0 0 177 53" fill="none" xmlns="http://www.w3.org/2000/svg">
<rect x="1" y="1" width="175" height="51.4706" rx="4" stroke="#10002B"/>
<path fill-rule="evenodd" clip-rule="evenodd" d="M31.7486 27.2831C31.7164 23.7432 34.6464 22.0215 34.7802 21.9405C33.1216 19.5201 30.548 19.1894 29.6447 19.1636C27.4842 18.9372 25.3894 20.4568 24.2879 20.4568C23.1659 20.4568 21.4712 19.1868 19.6453 19.2241C17.2956 19.2601 15.0953 20.6215 13.8896 22.7344C11.401 27.0425 13.2565 33.3747 15.6409 36.8579C16.8337 38.5629 18.2273 40.4686 20.0519 40.4004C21.8366 40.3271 22.5032 39.2629 24.6572 39.2629C26.792 39.2629 27.4173 40.4004 29.278 40.3579C31.1927 40.3271 32.3997 38.6453 33.5513 36.9236C34.9295 34.9677 35.4828 33.0427 35.5047 32.9436C35.4596 32.9282 31.7846 31.5269 31.7486 27.2831Z" fill="#10002B"/>
<path fill-rule="evenodd" clip-rule="evenodd" d="M28.2332 16.8734C29.1931 15.6729 29.8493 14.04 29.6679 12.3813C28.2782 12.4431 26.5411 13.3426 25.54 14.5174C24.6547 15.5519 23.8633 17.2492 24.0679 18.8422C25.6288 18.9593 27.2321 18.0547 28.2332 16.8734Z" fill="#10002B"/>
<path fill-rule="evenodd" clip-rule="evenodd" d="M48.8495 34.0901H53.6775L51.2969 27.0811H51.2313L48.8495 34.0901ZM54.3093 36.0833H48.219L46.756 40.4017H44.176L49.9459 24.4226H52.6262L58.3948 40.4017H55.7711L54.3093 36.0833Z" fill="#10002B"/>
<path fill-rule="evenodd" clip-rule="evenodd" d="M68.396 34.5778C68.396 32.2192 67.1775 30.6686 65.3168 30.6686C63.4896 30.6686 62.2607 32.2513 62.2607 34.5778C62.2607 36.9249 63.4896 38.4973 65.3168 38.4973C67.1775 38.4973 68.396 36.9583 68.396 34.5778ZM70.8538 34.5778C70.8538 38.1975 68.916 40.5239 65.9924 40.5239C64.3325 40.5239 63.0136 39.7815 62.3264 38.4857H62.2711V44.2556H59.8803V28.7526H62.1952V30.6905H62.2389C62.9029 29.4397 64.3209 28.6304 65.9487 28.6304C68.9057 28.6304 70.8538 30.9671 70.8538 34.5778Z" fill="#10002B"/>
<path fill-rule="evenodd" clip-rule="evenodd" d="M81.2185 34.5778C81.2185 32.2192 79.9999 30.6686 78.1393 30.6686C76.3121 30.6686 75.0832 32.2513 75.0832 34.5778C75.0832 36.9249 76.3121 38.4973 78.1393 38.4973C79.9999 38.4973 81.2185 36.9583 81.2185 34.5778ZM83.6763 34.5778C83.6763 38.1975 81.7384 40.5239 78.8149 40.5239C77.155 40.5239 75.836 39.7815 75.1489 38.4857H75.0936V44.2556H72.7028V28.7526H75.0176V30.6905H75.0614C75.7254 29.4397 77.1434 28.6304 78.7711 28.6304C81.7281 28.6304 83.6763 30.9671 83.6763 34.5778Z" fill="#10002B"/>
<path fill-rule="evenodd" clip-rule="evenodd" d="M92.1511 35.9499C92.3287 37.5339 93.8676 38.5749 95.9715 38.5749C97.9866 38.5749 99.4368 37.5339 99.4368 36.1056C99.4368 34.8652 98.5618 34.1227 96.4914 33.6145L94.421 33.1152C91.4858 32.4062 90.1244 31.0345 90.1244 28.8071C90.1244 26.0509 92.5268 24.1567 95.938 24.1567C99.3145 24.1567 101.629 26.0509 101.708 28.8071H99.2939C99.1485 27.2128 97.8309 26.2503 95.9046 26.2503C93.9783 26.2503 92.6607 27.2244 92.6607 28.6411C92.6607 29.7709 93.5022 30.4362 95.561 30.9444L97.3226 31.3768C100.6 32.1527 101.963 33.4691 101.963 35.8071C101.963 38.7963 99.5809 40.6685 95.7939 40.6685C92.2502 40.6685 89.8581 38.84 89.7037 35.9499H92.1511Z" fill="#10002B"/>
<path fill-rule="evenodd" clip-rule="evenodd" d="M107.123 25.9951V28.7527H109.339V30.6455H107.123V37.0677C107.123 38.0663 107.567 38.5308 108.541 38.5308C108.785 38.5308 109.173 38.4973 109.328 38.4754V40.358C109.063 40.4249 108.531 40.4686 108 40.4686C105.641 40.4686 104.721 39.5834 104.721 37.3238V30.6455H103.026V28.7527H104.721V25.9951H107.123Z" fill="#10002B"/>
<path fill-rule="evenodd" clip-rule="evenodd" d="M119.237 34.5777C119.237 32.0634 118.084 30.5797 116.148 30.5797C114.21 30.5797 113.058 32.0749 113.058 34.5777C113.058 37.1023 114.21 38.5744 116.148 38.5744C118.084 38.5744 119.237 37.1023 119.237 34.5777ZM110.622 34.5777C110.622 30.9117 112.78 28.6084 116.148 28.6084C119.525 28.6084 121.674 30.9117 121.674 34.5777C121.674 38.2527 119.536 40.547 116.148 40.547C112.76 40.547 110.622 38.2527 110.622 34.5777Z" fill="#10002B"/>
<path fill-rule="evenodd" clip-rule="evenodd" d="M123.645 28.7521H125.926V30.735H125.981C126.348 29.4174 127.41 28.6299 128.783 28.6299C129.127 28.6299 129.414 28.6749 129.603 28.72V30.9564C129.414 30.8779 128.993 30.8122 128.529 30.8122C126.99 30.8122 126.036 31.8532 126.036 33.4926V40.4025H123.645V28.7521Z" fill="#10002B"/>
<path fill-rule="evenodd" clip-rule="evenodd" d="M132.545 33.5035H138.369C138.313 31.72 137.173 30.5465 135.512 30.5465C133.861 30.5465 132.667 31.7432 132.545 33.5035ZM140.628 36.9803C140.306 39.0958 138.248 40.5472 135.612 40.5472C132.223 40.5472 130.119 38.2761 130.119 34.6333C130.119 30.9789 132.235 28.6086 135.512 28.6086C138.735 28.6086 140.762 30.8232 140.762 34.3553V35.175H132.533V35.3191C132.533 37.3123 133.785 38.6197 135.668 38.6197C136.996 38.6197 138.038 37.9879 138.358 36.9803H140.628Z" fill="#10002B"/>
<path fill-rule="evenodd" clip-rule="evenodd" d="M47.1501 15.6413H48.177C49.0288 15.6413 49.6246 15.1407 49.6246 14.4176C49.6246 13.7098 49.0918 13.2518 48.1885 13.2518C47.2929 13.2518 46.7075 13.7047 46.6393 14.4549H45.5121C45.5906 13.0703 46.6238 12.2095 48.2246 12.2095C49.7365 12.2095 50.8007 13.0549 50.8007 14.2734C50.8007 15.1201 50.2358 15.8381 49.4058 16.0299V16.12C50.4005 16.2216 51.1133 16.9075 51.1133 17.9768C51.1133 19.2905 49.869 20.2595 48.2464 20.2595C46.5762 20.2595 45.431 19.3549 45.3615 17.987H46.5067C46.5762 18.7218 47.2505 19.1953 48.2464 19.1953C49.2411 19.1953 49.8909 18.6639 49.8909 17.9137C49.8909 17.1519 49.2784 16.6836 48.2091 16.6836H47.1501V15.6413Z" fill="#10002B"/>
<path fill-rule="evenodd" clip-rule="evenodd" d="M56.1386 17.9398V17.456L54.7231 17.546C53.9254 17.5988 53.5638 17.8703 53.5638 18.3811C53.5638 18.9036 54.0167 19.206 54.6382 19.206C55.5004 19.206 56.1386 18.6578 56.1386 17.9398ZM52.4134 18.4352C52.4134 17.3916 53.1919 16.7907 54.5687 16.7058L56.1386 16.6144V16.1152C56.1386 15.5027 55.7358 15.1565 54.9522 15.1565C54.3139 15.1565 53.8726 15.392 53.7452 15.8012H52.6373C52.7544 14.8052 53.6924 14.167 55.0062 14.167C56.459 14.167 57.2786 14.8902 57.2786 16.1152V20.0732H56.1759V19.2587H56.0858C55.7397 19.8391 55.1066 20.1685 54.3448 20.1685C53.2279 20.1685 52.4134 19.4942 52.4134 18.4352Z" fill="#10002B"/>
<path fill-rule="evenodd" clip-rule="evenodd" d="M60.313 15.2418V20.0736H59.1691V14.2793H62.9843V15.2418H60.313Z" fill="#10002B"/>
<path fill-rule="evenodd" clip-rule="evenodd" d="M68.7385 17.1738C68.7385 15.9501 68.1594 15.2102 67.1905 15.2102C66.228 15.2102 65.6258 15.9655 65.6258 17.1789C65.6258 18.3859 66.228 19.1425 67.1853 19.1425C68.1594 19.1425 68.7385 18.4026 68.7385 17.1738ZM69.9147 17.1738C69.9147 19.0152 68.9831 20.1694 67.5213 20.1694C66.6952 20.1694 66.0402 19.8078 65.7379 19.1953H65.6478V21.9992H64.5038V14.2786H65.604V15.2372H65.6902C66.0402 14.5771 66.7222 14.1833 67.5097 14.1833C68.9831 14.1833 69.9147 15.3324 69.9147 17.1738Z" fill="#10002B"/>
<path fill-rule="evenodd" clip-rule="evenodd" d="M71.4378 22.1487V21.1643C71.5279 21.181 71.7042 21.1849 71.811 21.1849C72.354 21.1849 72.6615 20.9623 72.8584 20.3768L72.9446 20.095L70.8472 14.2788H72.0928L73.5455 18.8816H73.6356L75.0832 14.2788H76.2953L74.1361 20.3124C73.6407 21.7227 73.0926 22.1757 71.9113 22.1757C71.8161 22.1757 71.5446 22.1641 71.4378 22.1487Z" fill="#10002B"/>
<path fill-rule="evenodd" clip-rule="evenodd" d="M77.1868 18.429H78.3256C78.4375 18.9398 78.9162 19.2062 79.5853 19.2062C80.3471 19.2062 80.8142 18.8704 80.8142 18.3492C80.8142 17.7908 80.3947 17.5244 79.5853 17.5244H78.718V16.6353H79.5711C80.2621 16.6353 80.6134 16.3702 80.6134 15.8851C80.6134 15.4604 80.2724 15.1349 79.5711 15.1349C78.9303 15.1349 78.4632 15.4064 78.3899 15.8645H77.2871C77.4042 14.8325 78.2612 14.1672 79.5711 14.1672C80.948 14.1672 81.7355 14.79 81.7355 15.7693C81.7355 16.3483 81.3688 16.8218 80.8206 16.9544V17.0457C81.5708 17.222 81.9542 17.7058 81.9542 18.3492C81.9542 19.4507 81.0175 20.179 79.5853 20.179C78.3204 20.179 77.2923 19.6 77.1868 18.429Z" fill="#10002B"/>
<path fill-rule="evenodd" clip-rule="evenodd" d="M83.6011 20.0734V14.2791H84.7348V18.2642H84.8248L87.4949 14.2791H88.6285V20.0734H87.4949V16.0664H87.41L84.7348 20.0734H83.6011Z" fill="#10002B"/>
<path fill-rule="evenodd" clip-rule="evenodd" d="M94.8728 15.2418H93.0482V20.0736H91.9029V15.2418H90.0783V14.2793H94.8728V15.2418Z" fill="#10002B"/>
<path fill-rule="evenodd" clip-rule="evenodd" d="M97.0103 16.6417H99.9351C99.9094 15.7319 99.3561 15.14 98.5107 15.14C97.664 15.14 97.0734 15.7371 97.0103 16.6417ZM101.033 18.5088C100.772 19.5472 99.8451 20.1854 98.521 20.1854C96.8611 20.1854 95.8445 19.0466 95.8445 17.195C95.8445 15.3433 96.8817 14.1672 98.5159 14.1672C100.128 14.1672 101.102 15.2687 101.102 17.0882V17.4871H97.0104V17.5514C97.0464 18.568 97.637 19.2114 98.5532 19.2114C99.2442 19.2114 99.7177 18.9617 99.9313 18.5088H101.033Z" fill="#10002B"/>
<path fill-rule="evenodd" clip-rule="evenodd" d="M107.014 17.498V19.1952H108.37C109.046 19.1952 109.408 18.8967 109.408 18.3498C109.408 17.7695 108.998 17.498 108.226 17.498H107.014ZM107.014 15.1574V16.6577H108.148C108.839 16.6577 109.17 16.3914 109.17 15.9011C109.17 15.4495 108.881 15.1574 108.274 15.1574H107.014ZM105.881 14.2798H108.493C109.626 14.2798 110.292 14.8537 110.292 15.7531C110.292 16.3386 109.877 16.87 109.312 16.9768V17.0669C110.063 17.1518 110.552 17.7 110.552 18.4026C110.552 19.414 109.791 20.0728 108.52 20.0728H105.881V14.2798Z" fill="#10002B"/>
</svg>
