<svg width="177" height="53" viewBox="0 0 177 53" fill="none" xmlns="http://www.w3.org/2000/svg">
<rect x="1" y="1" width="175" height="51.4706" rx="4" stroke="#10002B"/>
<path fill-rule="evenodd" clip-rule="evenodd" d="M139.888 39.6028H142.289V23.5169H139.888V39.6028ZM161.515 29.3112L158.763 36.2855H158.68L155.824 29.3112H153.237L157.521 39.0585L155.08 44.4809H157.583L164.185 29.3112H161.515ZM147.898 37.7756C147.111 37.7756 146.015 37.3831 146.015 36.4103C146.015 35.1686 147.38 34.6925 148.56 34.6925C149.615 34.6925 150.112 34.9189 150.754 35.2303C150.567 36.7204 149.284 37.7756 147.898 37.7756ZM148.188 28.9599C146.45 28.9599 144.649 29.7256 143.904 31.4228L146.035 32.312C146.491 31.4228 147.339 31.1333 148.229 31.1333C149.471 31.1333 150.733 31.877 150.754 33.2024V33.3671C150.319 33.1201 149.388 32.7469 148.25 32.7469C145.953 32.7469 143.613 34.0092 143.613 36.3679C143.613 38.5206 145.497 39.9077 147.608 39.9077C149.222 39.9077 150.112 39.1833 150.671 38.334H150.754V39.577H153.072V33.4096C153.072 30.553 150.94 28.9599 148.188 28.9599ZM133.349 31.2697H129.934V25.7559H133.349C135.144 25.7559 136.163 27.2421 136.163 28.5121C136.163 29.759 135.144 31.2697 133.349 31.2697ZM133.287 23.5169H127.533V39.6028H129.934V33.5086H133.287C135.948 33.5086 138.564 31.5824 138.564 28.5121C138.564 25.4432 135.948 23.5169 133.287 23.5169ZM101.915 37.7794C100.256 37.7794 98.8675 36.3897 98.8675 34.4827C98.8675 32.5552 100.256 31.1449 101.915 31.1449C103.553 31.1449 104.837 32.5552 104.837 34.4827C104.837 36.3897 103.553 37.7794 101.915 37.7794ZM104.671 30.212H104.588C104.049 29.5699 103.013 28.9895 101.707 28.9895C98.9704 28.9895 96.4625 31.3945 96.4625 34.4827C96.4625 37.5504 98.9704 39.9348 101.707 39.9348C103.013 39.9348 104.049 39.3544 104.588 38.6917H104.671V39.478C104.671 41.5728 103.553 42.6923 101.749 42.6923C100.276 42.6923 99.3641 41.6346 98.991 40.7428L96.8974 41.614C97.4983 43.0655 99.0952 44.8476 101.749 44.8476C104.568 44.8476 106.952 43.189 106.952 39.1473V29.3202H104.671V30.212ZM108.61 39.6028H111.015V23.5169H108.61V39.6028ZM114.56 34.2962C114.498 32.182 116.198 31.1037 117.42 31.1037C118.375 31.1037 119.183 31.5811 119.452 32.2644L114.56 34.2962ZM122.023 32.4715C121.567 31.2491 120.178 28.9895 117.338 28.9895C114.518 28.9895 112.175 31.2079 112.175 34.4621C112.175 37.5298 114.498 39.9348 117.607 39.9348C120.116 39.9348 121.567 38.4009 122.167 37.5092L120.302 36.2649C119.68 37.1772 118.83 37.7794 117.607 37.7794C116.384 37.7794 115.513 37.2197 114.953 36.1208L122.271 33.0943L122.023 32.4715ZM63.7221 30.6688V32.9901H69.2771C69.1124 34.2961 68.6762 35.2496 68.0135 35.9123C67.2041 36.7217 65.9392 37.6134 63.7221 37.6134C60.3006 37.6134 57.6267 34.8559 57.6267 31.4344C57.6267 28.0142 60.3006 25.2579 63.7221 25.2579C65.5673 25.2579 66.9146 25.9836 67.9092 26.9166L69.5473 25.2785C68.1576 23.9518 66.3137 22.9353 63.7221 22.9353C59.0357 22.9353 55.0969 26.7506 55.0969 31.4344C55.0969 36.1208 59.0357 39.9348 63.7221 39.9348C66.2506 39.9348 68.1576 39.1048 69.6502 37.5504C71.1841 36.0166 71.6614 33.8612 71.6614 32.1189C71.6614 31.5811 71.6203 31.0831 71.5366 30.6688H63.7221ZM77.9768 37.7794C76.3195 37.7794 74.8886 36.4103 74.8886 34.4622C74.8886 32.4921 76.3195 31.1449 77.9768 31.1449C79.6355 31.1449 81.0664 32.4921 81.0664 34.4622C81.0664 36.4103 79.6355 37.7794 77.9768 37.7794ZM77.9768 28.9895C74.9503 28.9895 72.4836 31.2903 72.4836 34.4621C72.4836 37.6134 74.9503 39.9348 77.9768 39.9348C81.0046 39.9348 83.4713 37.6134 83.4713 34.4621C83.4713 31.2903 81.0046 28.9895 77.9768 28.9895ZM89.9617 37.7794C88.3031 37.7794 86.8722 36.4103 86.8722 34.4622C86.8722 32.4921 88.3031 31.1449 89.9617 31.1449C91.6204 31.1449 93.05 32.4921 93.05 34.4622C93.05 36.4103 91.6204 37.7794 89.9617 37.7794ZM89.9618 28.9895C86.9354 28.9895 84.4687 31.2903 84.4687 34.4621C84.4687 37.6134 86.9354 39.9348 89.9618 39.9348C92.9883 39.9348 95.455 37.6134 95.455 34.4621C95.455 31.2903 92.9883 28.9895 89.9618 28.9895Z" fill="#10002B"/>
<path fill-rule="evenodd" clip-rule="evenodd" d="M58.2565 13.8249C58.272 15.0461 58.0262 16.0317 57.5243 16.7793H61.4271V10.9554H58.2565V13.8249ZM56.4769 19.367H55.5286V16.7793H56.2839C56.9517 16.2041 57.2786 15.2185 57.2644 13.8249V10.0071H62.4192V16.7793H63.2813V19.367H62.333V17.7277H56.4769V19.367Z" fill="white"/>
<path fill-rule="evenodd" clip-rule="evenodd" d="M58.2565 13.8249C58.272 15.0461 58.0262 16.0317 57.5243 16.7793H61.4271V10.9554H58.2565V13.8249ZM56.4769 19.367H55.5286V16.7793H56.2839C56.9517 16.2041 57.2786 15.2185 57.2644 13.8249V10.0071H62.4192V16.7793H63.2813V19.367H62.333V17.7277H56.4769V19.367Z" fill="#10002B"/>
<path d="M58.2565 13.8249H58.1565L58.1565 13.8262L58.2565 13.8249ZM57.5243 16.7793L57.4413 16.7236L57.3368 16.8793H57.5243V16.7793ZM61.4271 16.7793V16.8793H61.5271V16.7793H61.4271ZM61.4271 10.9554H61.5271V10.8554H61.4271V10.9554ZM58.2565 10.9554V10.8554H58.1565V10.9554H58.2565ZM56.4769 19.367V19.467H56.5769V19.367H56.4769ZM55.5286 19.367H55.4286V19.467H55.5286V19.367ZM55.5286 16.7793V16.6793H55.4286V16.7793H55.5286ZM56.2839 16.7793V16.8793H56.321L56.3492 16.8551L56.2839 16.7793ZM57.2644 13.8249H57.1644L57.1644 13.8259L57.2644 13.8249ZM57.2644 10.0071V9.90708H57.1644V10.0071H57.2644ZM62.4192 10.0071H62.5192V9.90708H62.4192V10.0071ZM62.4192 16.7793H62.3192V16.8793H62.4192V16.7793ZM63.2813 16.7793H63.3813V16.6793H63.2813V16.7793ZM63.2813 19.367V19.467H63.3813V19.367H63.2813ZM62.333 19.367H62.233V19.467H62.333V19.367ZM62.333 17.7277H62.433V17.6277H62.333V17.7277ZM56.4769 17.7277V17.6277H56.3769V17.7277H56.4769ZM58.1565 13.8262C58.1718 15.0339 57.9285 15.9978 57.4413 16.7236L57.6074 16.8351C58.1238 16.0657 58.3721 15.0582 58.3565 13.8236L58.1565 13.8262ZM57.5243 16.8793H61.4271V16.6793H57.5243V16.8793ZM61.5271 16.7793V10.9554H61.3271V16.7793H61.5271ZM61.4271 10.8554H58.2565V11.0554H61.4271V10.8554ZM58.1565 10.9554V13.8249H58.3565V10.9554H58.1565ZM56.4769 19.267H55.5286V19.467H56.4769V19.267ZM55.6286 19.367V16.7793H55.4286V19.367H55.6286ZM55.5286 16.8793H56.2839V16.6793H55.5286V16.8793ZM56.3492 16.8551C57.0496 16.2518 57.3787 15.2299 57.3644 13.8239L57.1644 13.8259C57.1784 15.2071 56.8538 16.1565 56.2186 16.7036L56.3492 16.8551ZM57.3644 13.8249V10.0071H57.1644V13.8249H57.3644ZM57.2644 10.1071H62.4192V9.90708H57.2644V10.1071ZM62.3192 10.0071V16.7793H62.5192V10.0071H62.3192ZM62.4192 16.8793H63.2813V16.6793H62.4192V16.8793ZM63.1813 16.7793V19.367H63.3813V16.7793H63.1813ZM63.2813 19.267H62.333V19.467H63.2813V19.267ZM62.433 19.367V17.7277H62.233V19.367H62.433ZM62.333 17.6277H56.4769V17.8277H62.333V17.6277ZM56.3769 17.7277V19.367H56.5769V17.7277H56.3769Z" fill="#10002B"/>
<path fill-rule="evenodd" clip-rule="evenodd" d="M66.0901 16.0837C66.6615 16.6628 67.3602 16.951 68.1876 16.951C69.0137 16.951 69.7137 16.6628 70.285 16.0837C70.8563 15.5047 71.1433 14.7661 71.1433 13.8679C71.1433 12.9698 70.8563 12.2299 70.285 11.6521C69.7137 11.0731 69.0137 10.7836 68.1876 10.7836C67.3602 10.7836 66.6615 11.0731 66.0901 11.6521C65.5201 12.2299 65.2332 12.9698 65.2332 13.8679C65.2332 14.7661 65.5201 15.5047 66.0901 16.0837ZM71.0184 16.7297C70.2592 17.5108 69.316 17.9006 68.1876 17.9006C67.0591 17.9006 66.1159 17.5108 65.358 16.7297C64.5988 15.9499 64.2205 14.9964 64.2205 13.8679C64.2205 12.7394 64.5988 11.7847 65.358 11.0049C66.1159 10.2251 67.0591 9.83521 68.1876 9.83521C69.3096 9.83521 70.2502 10.2264 71.0133 11.01C71.7751 11.7937 72.1559 12.7459 72.1559 13.8679C72.1559 14.9964 71.7763 15.9499 71.0184 16.7297Z" fill="white"/>
<path fill-rule="evenodd" clip-rule="evenodd" d="M66.0901 16.0837C66.6615 16.6628 67.3602 16.951 68.1876 16.951C69.0137 16.951 69.7137 16.6628 70.285 16.0837C70.8563 15.5047 71.1433 14.7661 71.1433 13.8679C71.1433 12.9698 70.8563 12.2299 70.285 11.6521C69.7137 11.0731 69.0137 10.7836 68.1876 10.7836C67.3602 10.7836 66.6615 11.0731 66.0901 11.6521C65.5201 12.2299 65.2332 12.9698 65.2332 13.8679C65.2332 14.7661 65.5201 15.5047 66.0901 16.0837ZM71.0184 16.7297C70.2592 17.5108 69.316 17.9006 68.1876 17.9006C67.0591 17.9006 66.1159 17.5108 65.358 16.7297C64.5988 15.9499 64.2205 14.9964 64.2205 13.8679C64.2205 12.7394 64.5988 11.7847 65.358 11.0049C66.1159 10.2251 67.0591 9.83521 68.1876 9.83521C69.3096 9.83521 70.2502 10.2264 71.0133 11.01C71.7751 11.7937 72.1559 12.7459 72.1559 13.8679C72.1559 14.9964 71.7763 15.9499 71.0184 16.7297Z" fill="#10002B"/>
<path d="M66.0901 16.0837L66.0189 16.1539L66.019 16.154L66.0901 16.0837ZM70.285 11.6521L70.2138 11.7224L70.2139 11.7224L70.285 11.6521ZM66.0901 11.6521L66.019 11.5819L66.019 11.5819L66.0901 11.6521ZM71.0184 16.7297L71.0901 16.7994L71.0901 16.7994L71.0184 16.7297ZM65.358 16.7297L65.4297 16.6601L65.4296 16.6599L65.358 16.7297ZM65.358 11.0049L65.4296 11.0746L65.4297 11.0746L65.358 11.0049ZM71.0133 11.01L71.085 10.9403L71.0849 10.9403L71.0133 11.01ZM66.019 16.154C66.6095 16.7525 67.334 17.051 68.1876 17.051V16.851C67.3863 16.851 66.7134 16.5731 66.1613 16.0135L66.019 16.154ZM68.1876 17.051C69.0398 17.051 69.7656 16.7525 70.3562 16.154L70.2138 16.0135C69.6617 16.5731 68.9875 16.851 68.1876 16.851V17.051ZM70.3562 16.154C70.9479 15.5543 71.2433 14.7895 71.2433 13.8679H71.0433C71.0433 14.7427 70.7647 15.4551 70.2138 16.0135L70.3562 16.154ZM71.2433 13.8679C71.2433 12.9464 70.9479 12.1803 70.3561 11.5818L70.2139 11.7224C70.7647 12.2794 71.0433 12.9931 71.0433 13.8679H71.2433ZM70.3562 11.5819C69.7657 10.9834 69.0399 10.6836 68.1876 10.6836V10.8836C68.9874 10.8836 69.6616 11.1627 70.2138 11.7224L70.3562 11.5819ZM68.1876 10.6836C67.3339 10.6836 66.6094 10.9834 66.019 11.5819L66.1613 11.7224C66.7135 11.1627 67.3864 10.8836 68.1876 10.8836V10.6836ZM66.019 11.5819C65.4285 12.1804 65.1332 12.9464 65.1332 13.8679H65.3332C65.3332 12.9931 65.6117 12.2794 66.1613 11.7224L66.019 11.5819ZM65.1332 13.8679C65.1332 14.7895 65.4285 15.5542 66.0189 16.1539L66.1614 16.0136C65.6117 15.4552 65.3332 14.7427 65.3332 13.8679H65.1332ZM70.9467 16.66C70.2071 17.4209 69.2902 17.8006 68.1876 17.8006V18.0006C69.3419 18.0006 70.3114 17.6006 71.0901 16.7994L70.9467 16.66ZM68.1876 17.8006C67.0849 17.8006 66.168 17.4209 65.4297 16.6601L65.2862 16.7993C66.0637 17.6006 67.0332 18.0006 68.1876 18.0006V17.8006ZM65.4296 16.6599C64.6894 15.8996 64.3205 14.9715 64.3205 13.8679H64.1205C64.1205 15.0213 64.5082 16.0002 65.2863 16.7994L65.4296 16.6599ZM64.3205 13.8679C64.3205 12.7643 64.6894 11.8349 65.4296 11.0746L65.2863 10.9351C64.5081 11.7344 64.1205 12.7145 64.1205 13.8679H64.3205ZM65.4297 11.0746C66.168 10.315 67.0849 9.93521 68.1876 9.93521V9.73521C67.0332 9.73521 66.0638 10.1352 65.2862 10.9352L65.4297 11.0746ZM68.1876 9.93521C69.2834 9.93521 70.198 10.316 70.9416 11.0798L71.0849 10.9403C70.3025 10.1367 69.3358 9.73521 68.1876 9.73521V9.93521ZM70.9416 11.0797C71.6847 11.8442 72.0559 12.7711 72.0559 13.8679H72.2559C72.2559 12.7206 71.8654 11.7432 71.085 10.9403L70.9416 11.0797ZM72.0559 13.8679C72.0559 14.9714 71.6858 15.8996 70.9467 16.66L71.0901 16.7994C71.8669 16.0002 72.2559 15.0214 72.2559 13.8679H72.0559Z" fill="#10002B"/>
<path fill-rule="evenodd" clip-rule="evenodd" d="M77.1495 17.9002C76.0133 17.9002 75.0611 17.5154 74.2916 16.7472C73.5221 15.9777 73.1387 15.0178 73.1387 13.8674C73.1387 12.7184 73.5221 11.7584 74.2916 10.9889C75.0611 10.2195 76.0133 9.83472 77.1495 9.83472C78.3128 9.83472 79.2598 10.2555 79.9855 11.0957L79.2946 11.7649C78.7708 11.1112 78.0541 10.7843 77.1495 10.7843C76.308 10.7843 75.5977 11.0674 75.0199 11.6362C74.4409 12.2037 74.1514 12.9474 74.1514 13.8674C74.1514 14.7875 74.4409 15.5325 75.0199 16.1C75.5977 16.6674 76.308 16.9518 77.1495 16.9518C78.0773 16.9518 78.8673 16.5786 79.5223 15.831L80.212 16.5207C79.8582 16.9441 79.4181 17.2812 78.8854 17.5283C78.3539 17.7766 77.7736 17.9002 77.1495 17.9002Z" fill="white"/>
<path fill-rule="evenodd" clip-rule="evenodd" d="M77.1495 17.9002C76.0133 17.9002 75.0611 17.5154 74.2916 16.7472C73.5221 15.9777 73.1387 15.0178 73.1387 13.8674C73.1387 12.7184 73.5221 11.7584 74.2916 10.9889C75.0611 10.2195 76.0133 9.83472 77.1495 9.83472C78.3128 9.83472 79.2598 10.2555 79.9855 11.0957L79.2946 11.7649C78.7708 11.1112 78.0541 10.7843 77.1495 10.7843C76.308 10.7843 75.5977 11.0674 75.0199 11.6362C74.4409 12.2037 74.1514 12.9474 74.1514 13.8674C74.1514 14.7875 74.4409 15.5325 75.0199 16.1C75.5977 16.6674 76.308 16.9518 77.1495 16.9518C78.0773 16.9518 78.8673 16.5786 79.5223 15.831L80.212 16.5207C79.8582 16.9441 79.4181 17.2812 78.8854 17.5283C78.3539 17.7766 77.7736 17.9002 77.1495 17.9002Z" fill="#10002B" stroke="#10002B" stroke-width="0.2"/>
<path fill-rule="evenodd" clip-rule="evenodd" d="M84.2242 17.7279H83.2321V10.9557H81.0754V10.0073H86.3808V10.9557H84.2242V17.7279Z" fill="white"/>
<path fill-rule="evenodd" clip-rule="evenodd" d="M84.2242 17.7279H83.2321V10.9557H81.0754V10.0073H86.3808V10.9557H84.2242V17.7279Z" fill="#10002B" stroke="#10002B" stroke-width="0.2"/>
<path fill-rule="evenodd" clip-rule="evenodd" d="M93.192 10.0073L90.2697 16.5209C89.867 17.4397 89.2686 17.9003 88.4708 17.9003C88.2328 17.9003 87.978 17.8424 87.7039 17.7279L87.9626 16.8117C88.1286 16.9044 88.301 16.9507 88.4798 16.9507C88.7102 16.9507 88.889 16.907 89.0139 16.8169C89.14 16.7268 89.257 16.5634 89.3651 16.3266L89.6457 15.7116L87.0464 10.0073H88.2109L90.1192 14.4389H90.1629L92.0275 10.0073H93.192Z" fill="white"/>
<path fill-rule="evenodd" clip-rule="evenodd" d="M93.192 10.0073L90.2697 16.5209C89.867 17.4397 89.2686 17.9003 88.4708 17.9003C88.2328 17.9003 87.978 17.8424 87.7039 17.7279L87.9626 16.8117C88.1286 16.9044 88.301 16.9507 88.4798 16.9507C88.7102 16.9507 88.889 16.907 89.0139 16.8169C89.14 16.7268 89.257 16.5634 89.3651 16.3266L89.6457 15.7116L87.0464 10.0073H88.2109L90.1192 14.4389H90.1629L92.0275 10.0073H93.192Z" fill="#10002B" stroke="#10002B" stroke-width="0.2"/>
<path fill-rule="evenodd" clip-rule="evenodd" d="M94.3154 17.7279V10.0073H99.9013V17.7279H98.9079V10.9557H95.3075V17.7279H94.3154Z" fill="white"/>
<path fill-rule="evenodd" clip-rule="evenodd" d="M94.3154 17.7279V10.0073H99.9013V17.7279H98.9079V10.9557H95.3075V17.7279H94.3154Z" fill="#10002B" stroke="#10002B" stroke-width="0.2"/>
<path fill-rule="evenodd" clip-rule="evenodd" d="M101.669 17.7279V10.0073H102.661V13.3169H106.521V10.0073H107.514V17.7279H106.521V14.2446H102.661V17.7279H101.669Z" fill="white"/>
<path fill-rule="evenodd" clip-rule="evenodd" d="M101.669 17.7279V10.0073H102.661V13.3169H106.521V10.0073H107.514V17.7279H106.521V14.2446H102.661V17.7279H101.669Z" fill="#10002B" stroke="#10002B" stroke-width="0.2"/>
<path fill-rule="evenodd" clip-rule="evenodd" d="M110.668 16.0837C111.239 16.6628 111.938 16.951 112.765 16.951C113.591 16.951 114.291 16.6628 114.862 16.0837C115.434 15.5047 115.721 14.7661 115.721 13.8679C115.721 12.9698 115.434 12.2299 114.862 11.6521C114.291 11.0731 113.591 10.7836 112.765 10.7836C111.938 10.7836 111.239 11.0731 110.668 11.6521C110.098 12.2299 109.811 12.9698 109.811 13.8679C109.811 14.7661 110.098 15.5047 110.668 16.0837ZM115.596 16.7297C114.837 17.5108 113.894 17.9006 112.765 17.9006C111.637 17.9006 110.693 17.5108 109.935 16.7297C109.176 15.9499 108.798 14.9964 108.798 13.8679C108.798 12.7394 109.176 11.7847 109.935 11.0049C110.693 10.2251 111.637 9.83521 112.765 9.83521C113.887 9.83521 114.828 10.2264 115.591 11.01C116.353 11.7937 116.733 12.7459 116.733 13.8679C116.733 14.9964 116.354 15.9499 115.596 16.7297Z" fill="white"/>
<path fill-rule="evenodd" clip-rule="evenodd" d="M110.668 16.0837C111.239 16.6628 111.938 16.951 112.765 16.951C113.591 16.951 114.291 16.6628 114.862 16.0837C115.434 15.5047 115.721 14.7661 115.721 13.8679C115.721 12.9698 115.434 12.2299 114.862 11.6521C114.291 11.0731 113.591 10.7836 112.765 10.7836C111.938 10.7836 111.239 11.0731 110.668 11.6521C110.098 12.2299 109.811 12.9698 109.811 13.8679C109.811 14.7661 110.098 15.5047 110.668 16.0837ZM115.596 16.7297C114.837 17.5108 113.894 17.9006 112.765 17.9006C111.637 17.9006 110.693 17.5108 109.935 16.7297C109.176 15.9499 108.798 14.9964 108.798 13.8679C108.798 12.7394 109.176 11.7847 109.935 11.0049C110.693 10.2251 111.637 9.83521 112.765 9.83521C113.887 9.83521 114.828 10.2264 115.591 11.01C116.353 11.7937 116.733 12.7459 116.733 13.8679C116.733 14.9964 116.354 15.9499 115.596 16.7297Z" fill="#10002B"/>
<path d="M110.668 16.0837L110.596 16.1539L110.596 16.154L110.668 16.0837ZM114.862 11.6521L114.791 11.7224L114.791 11.7224L114.862 11.6521ZM110.668 11.6521L110.596 11.5819L110.596 11.5819L110.668 11.6521ZM115.596 16.7297L115.668 16.7994L115.668 16.7994L115.596 16.7297ZM109.935 16.7297L110.007 16.6601L110.007 16.6599L109.935 16.7297ZM109.935 11.0049L110.007 11.0746L110.007 11.0746L109.935 11.0049ZM115.591 11.01L115.663 10.9403L115.662 10.9403L115.591 11.01ZM110.596 16.154C111.187 16.7525 111.912 17.051 112.765 17.051V16.851C111.964 16.851 111.291 16.5731 110.739 16.0135L110.596 16.154ZM112.765 17.051C113.617 17.051 114.343 16.7525 114.934 16.154L114.791 16.0135C114.239 16.5731 113.565 16.851 112.765 16.851V17.051ZM114.934 16.154C115.525 15.5543 115.821 14.7895 115.821 13.8679H115.621C115.621 14.7427 115.342 15.4551 114.791 16.0135L114.934 16.154ZM115.821 13.8679C115.821 12.9464 115.525 12.1803 114.934 11.5818L114.791 11.7224C115.342 12.2794 115.621 12.9931 115.621 13.8679H115.821ZM114.934 11.5819C114.343 10.9834 113.617 10.6836 112.765 10.6836V10.8836C113.565 10.8836 114.239 11.1627 114.791 11.7224L114.934 11.5819ZM112.765 10.6836C111.911 10.6836 111.187 10.9834 110.596 11.5819L110.739 11.7224C111.291 11.1627 111.964 10.8836 112.765 10.8836V10.6836ZM110.596 11.5819C110.006 12.1804 109.711 12.9464 109.711 13.8679H109.911C109.911 12.9931 110.189 12.2794 110.739 11.7224L110.596 11.5819ZM109.711 13.8679C109.711 14.7895 110.006 15.5542 110.596 16.1539L110.739 16.0136C110.189 15.4552 109.911 14.7427 109.911 13.8679H109.711ZM115.524 16.66C114.785 17.4209 113.868 17.8006 112.765 17.8006V18.0006C113.919 18.0006 114.889 17.6006 115.668 16.7994L115.524 16.66ZM112.765 17.8006C111.662 17.8006 110.746 17.4209 110.007 16.6601L109.864 16.7993C110.641 17.6006 111.611 18.0006 112.765 18.0006V17.8006ZM110.007 16.6599C109.267 15.8996 108.898 14.9715 108.898 13.8679H108.698C108.698 15.0213 109.086 16.0002 109.864 16.7994L110.007 16.6599ZM108.898 13.8679C108.898 12.7643 109.267 11.8349 110.007 11.0746L109.864 10.9351C109.086 11.7344 108.698 12.7145 108.698 13.8679H108.898ZM110.007 11.0746C110.745 10.315 111.662 9.93521 112.765 9.93521V9.73521C111.611 9.73521 110.641 10.1352 109.864 10.9352L110.007 11.0746ZM112.765 9.93521C113.861 9.93521 114.775 10.316 115.519 11.0798L115.662 10.9403C114.88 10.1367 113.913 9.73521 112.765 9.73521V9.93521ZM115.519 11.0797C116.262 11.8442 116.633 12.7711 116.633 13.8679H116.833C116.833 12.7206 116.443 11.7432 115.663 10.9403L115.519 11.0797ZM116.633 13.8679C116.633 14.9714 116.263 15.8996 115.524 16.66L115.668 16.7994C116.444 16.0002 116.833 15.0214 116.833 13.8679H116.633Z" fill="#10002B"/>
<path fill-rule="evenodd" clip-rule="evenodd" d="M121.781 16.7793H123.777C124.158 16.7793 124.467 16.6455 124.703 16.3791C124.941 16.1141 125.06 15.8233 125.06 15.5067C125.06 15.1902 124.937 14.9019 124.693 14.6381C124.449 14.3769 124.128 14.2444 123.733 14.2444H121.781V16.7793ZM121.781 13.3179H123.581C123.956 13.3179 124.257 13.1944 124.483 12.9461C124.708 12.6977 124.822 12.4262 124.822 12.1315C124.822 11.8369 124.712 11.5666 124.492 11.3235C124.274 11.079 123.985 10.9567 123.626 10.9567H121.781V13.3179ZM120.789 17.7277V10.0071H123.581C124.186 10.0071 124.708 10.2078 125.151 10.6054C125.594 11.0056 125.815 11.5062 125.815 12.1097C125.815 12.4764 125.72 12.8006 125.528 13.0799C125.339 13.3617 125.084 13.5727 124.768 13.7168V13.7593C125.148 13.8892 125.461 14.1119 125.707 14.4284C125.95 14.7449 126.074 15.1117 126.074 15.5286C126.074 16.1617 125.841 16.6854 125.378 17.1023C124.914 17.5192 124.366 17.7277 123.733 17.7277H120.789Z" fill="white"/>
<path fill-rule="evenodd" clip-rule="evenodd" d="M121.781 16.7793H123.777C124.158 16.7793 124.467 16.6455 124.703 16.3791C124.941 16.1141 125.06 15.8233 125.06 15.5067C125.06 15.1902 124.937 14.9019 124.693 14.6381C124.449 14.3769 124.128 14.2444 123.733 14.2444H121.781V16.7793ZM121.781 13.3179H123.581C123.956 13.3179 124.257 13.1944 124.483 12.9461C124.708 12.6977 124.822 12.4262 124.822 12.1315C124.822 11.8369 124.712 11.5666 124.492 11.3235C124.274 11.079 123.985 10.9567 123.626 10.9567H121.781V13.3179ZM120.789 17.7277V10.0071H123.581C124.186 10.0071 124.708 10.2078 125.151 10.6054C125.594 11.0056 125.815 11.5062 125.815 12.1097C125.815 12.4764 125.72 12.8006 125.528 13.0799C125.339 13.3617 125.084 13.5727 124.768 13.7168V13.7593C125.148 13.8892 125.461 14.1119 125.707 14.4284C125.95 14.7449 126.074 15.1117 126.074 15.5286C126.074 16.1617 125.841 16.6854 125.378 17.1023C124.914 17.5192 124.366 17.7277 123.733 17.7277H120.789Z" fill="#10002B"/>
<path d="M121.781 16.7793H121.681V16.8793H121.781V16.7793ZM124.703 16.3791L124.629 16.3123L124.629 16.3127L124.703 16.3791ZM124.693 14.6381L124.766 14.5702L124.766 14.5698L124.693 14.6381ZM121.781 14.2444V14.1444H121.681V14.2444H121.781ZM121.781 13.3179H121.681V13.4179H121.781V13.3179ZM124.483 12.9461L124.557 13.0134L124.557 13.0132L124.483 12.9461ZM124.492 11.3235L124.418 11.3901L124.418 11.3905L124.492 11.3235ZM121.781 10.9567V10.8567H121.681V10.9567H121.781ZM120.789 17.7277H120.689V17.8277H120.789V17.7277ZM120.789 10.0071V9.90708H120.689V10.0071H120.789ZM125.151 10.6054L125.218 10.5312L125.218 10.531L125.151 10.6054ZM125.528 13.0799L125.446 13.0233L125.445 13.0241L125.528 13.0799ZM124.768 13.7168L124.726 13.6258L124.668 13.6525V13.7168H124.768ZM124.768 13.7593H124.668V13.8308L124.735 13.8539L124.768 13.7593ZM125.707 14.4284L125.786 14.3675L125.786 14.3671L125.707 14.4284ZM121.781 16.8793H123.777V16.6793H121.781V16.8793ZM123.777 16.8793C124.184 16.8793 124.521 16.7348 124.778 16.4456L124.629 16.3127C124.412 16.5562 124.131 16.6793 123.777 16.6793V16.8793ZM124.778 16.446C125.03 16.1649 125.16 15.8509 125.16 15.5067H124.96C124.96 15.7956 124.853 16.0632 124.629 16.3123L124.778 16.446ZM125.16 15.5067C125.16 15.1613 125.025 14.8496 124.766 14.5702L124.62 14.7061C124.85 14.9543 124.96 15.219 124.96 15.5067H125.16ZM124.766 14.5698C124.501 14.2864 124.153 14.1444 123.733 14.1444V14.3444C124.103 14.3444 124.396 14.4675 124.62 14.7065L124.766 14.5698ZM123.733 14.1444H121.781V14.3444H123.733V14.1444ZM121.681 14.2444V16.7793H121.881V14.2444H121.681ZM121.781 13.4179H123.581V13.2179H121.781V13.4179ZM123.581 13.4179C123.98 13.4179 124.309 13.2852 124.557 13.0134L124.409 12.8787C124.204 13.1036 123.931 13.2179 123.581 13.2179V13.4179ZM124.557 13.0132C124.797 12.7493 124.922 12.4546 124.922 12.1315H124.722C124.722 12.3978 124.62 12.6461 124.409 12.8789L124.557 13.0132ZM124.922 12.1315C124.922 11.8095 124.801 11.5159 124.566 11.2564L124.418 11.3905C124.623 11.6174 124.722 11.8643 124.722 12.1315H124.922ZM124.567 11.2568C124.327 10.989 124.011 10.8567 123.626 10.8567V11.0567C123.96 11.0567 124.22 11.1689 124.418 11.3901L124.567 11.2568ZM123.626 10.8567H121.781V11.0567H123.626V10.8567ZM121.681 10.9567V13.3179H121.881V10.9567H121.681ZM120.889 17.7277V10.0071H120.689V17.7277H120.889ZM120.789 10.1071H123.581V9.90708H120.789V10.1071ZM123.581 10.1071C124.161 10.1071 124.66 10.2988 125.084 10.6798L125.218 10.531C124.757 10.1168 124.211 9.90708 123.581 9.90708V10.1071ZM125.084 10.6796C125.505 11.0606 125.715 11.5341 125.715 12.1097H125.915C125.915 11.4782 125.682 10.9506 125.218 10.5312L125.084 10.6796ZM125.715 12.1097C125.715 12.4581 125.625 12.7623 125.446 13.0233L125.611 13.1365C125.815 12.839 125.915 12.4946 125.915 12.1097H125.715ZM125.445 13.0241C125.267 13.2897 125.027 13.4889 124.726 13.6258L124.809 13.8078C125.141 13.6565 125.411 13.4337 125.611 13.1356L125.445 13.0241ZM124.668 13.7168V13.7593H124.868V13.7168H124.668ZM124.735 13.8539C125.098 13.9776 125.394 14.1887 125.628 14.4897L125.786 14.3671C125.528 14.035 125.199 13.8009 124.8 13.6646L124.735 13.8539ZM125.628 14.4893C125.857 14.7878 125.974 15.133 125.974 15.5286H126.174C126.174 15.0904 126.043 14.7021 125.786 14.3675L125.628 14.4893ZM125.974 15.5286C125.974 16.1336 125.753 16.6302 125.311 17.028L125.444 17.1766C125.929 16.7406 126.174 16.1897 126.174 15.5286H125.974ZM125.311 17.028C124.866 17.4281 124.342 17.6277 123.733 17.6277V17.8277C124.39 17.8277 124.963 17.6104 125.444 17.1766L125.311 17.028ZM123.733 17.6277H120.789V17.8277H123.733V17.6277Z" fill="#10002B"/>
<path d="M14.568 10.5202C14.1525 11.0214 13.9421 11.6612 13.9792 12.3112V40.5257C13.9421 41.1756 14.1525 41.8155 14.568 42.3167L14.6661 42.4148L30.4662 26.6024V26.2344L14.6661 10.4343L14.568 10.5202Z" fill="url(#paint0_linear)"/>
<path d="M35.7288 31.865L30.4662 26.6024V26.2344L35.7288 20.9595L35.8392 21.0331L42.0832 24.5783C43.8619 25.5842 43.8619 27.2403 42.0832 28.2584L35.8392 31.8036L35.7288 31.865Z" fill="url(#paint1_linear)"/>
<path d="M35.8392 31.8035L30.4662 26.4182L14.5189 42.3655C15.2671 43.0302 16.3847 43.0612 17.1686 42.4391L35.7902 31.8648" fill="url(#paint2_linear)"/>
<path d="M35.8391 21.0576L17.2176 10.4465C16.4303 9.83433 15.3199 9.86517 14.5679 10.5201L30.5152 26.4674L35.8391 21.0576Z" fill="url(#paint3_linear)"/>
<defs>
<linearGradient id="paint0_linear" x1="23.5363" y1="-8.72718" x2="-1.76218" y2="-1.99618" gradientUnits="userSpaceOnUse">
<stop stop-color="#00A0FF"/>
<stop offset="0.01" stop-color="#00A1FF"/>
<stop offset="0.26" stop-color="#00BEFF"/>
<stop offset="0.51" stop-color="#00D2FF"/>
<stop offset="0.76" stop-color="#00DFFF"/>
<stop offset="1" stop-color="#00E3FF"/>
</linearGradient>
<linearGradient id="paint1_linear" x1="44.4017" y1="13.4289" x2="13.5498" y2="13.4289" gradientUnits="userSpaceOnUse">
<stop stop-color="#FFE000"/>
<stop offset="0.41" stop-color="#FFBD00"/>
<stop offset="0.78" stop-color="#FFA500"/>
<stop offset="1" stop-color="#FF9C00"/>
</linearGradient>
<linearGradient id="paint2_linear" x1="14.1389" y1="18.1412" x2="-6.25145" y2="52.3059" gradientUnits="userSpaceOnUse">
<stop stop-color="#FF3A44"/>
<stop offset="1" stop-color="#C31162"/>
</linearGradient>
<linearGradient id="paint3_linear" x1="2.19058" y1="6.14777" x2="11.3172" y2="21.4039" gradientUnits="userSpaceOnUse">
<stop stop-color="#32A071"/>
<stop offset="0.07" stop-color="#2DA771"/>
<stop offset="0.48" stop-color="#15CF74"/>
<stop offset="0.8" stop-color="#06E775"/>
<stop offset="1" stop-color="#00F076"/>
</linearGradient>
</defs>
</svg>
