<?xml version="1.0" encoding="utf-8"?>
<!-- Generator: Adobe Illustrator 21.1.0, SVG Export Plug-In . SVG Version: 6.00 Build 0)  -->
<svg version="1.1" id="Layer_1" xmlns="http://www.w3.org/2000/svg" xmlns:xlink="http://www.w3.org/1999/xlink" x="0px" y="0px"
	 viewBox="0 0 83 83" style="enable-background:new 0 0 83 83;" xml:space="preserve">
<style type="text/css">
	.st0{fill:none;}
	.st1{fill:#FFFFFF;fill-opacity:0;}
	.st2{fill:none;stroke:#ffffff;stroke-width:3;stroke-linecap:round;stroke-linejoin:round;stroke-miterlimit:10;}
</style>
<circle class="st0" cx="41.6" cy="40.7" r="23.9"/>
<g transform="translate(-555 534)">
	<rect x="555" y="-534" class="st1" width="83" height="83"/>
	<g transform="translate(3188.451 2260.098)">
		<path class="st2" d="M-2591.7-2766.5h10.6c2.2-3.9,6.5-6.1,11-5.5c7.8,0.9,9.5,5.4,10.3,7.3c0.7,1.9,6.4,20.7,6.4,20.7
			s1.1,9.5-7.3,10.8c-8.4,1.3-11.8-6.5-11.8-6.5l-3.5-5.9c0,0-0.8,4.2-6.4,4.4c-5.6,0.2-7.3-5-7.3-5h-4.3c-1.1,3.1-4.1,5.1-7.3,5
			c-5.6-0.1-6.4-4.4-6.4-4.4l-3.5,5.9c0,0-3.4,7.8-11.8,6.5s-7.3-10.8-7.3-10.8s5.6-18.8,6.4-20.7s2.6-6.4,10.3-7.3
			c4.4-0.6,8.8,1.6,11,5.5L-2591.7-2766.5L-2591.7-2766.5z"/>
		<line class="st2" x1="-2619.2" y1="-2758.4" x2="-2609.2" y2="-2758.4"/>
		<line class="st2" x1="-2614.3" y1="-2763.3" x2="-2614.3" y2="-2753.4"/>
		<circle class="st2" cx="-2601.7" cy="-2747.9" r="1.9"/>
		<circle class="st2" cx="-2582.6" cy="-2747.6" r="1.9"/>
		<circle class="st2" cx="-2574.6" cy="-2758.3" r="1.2"/>
		<circle class="st2" cx="-2569.9" cy="-2763.2" r="1.2"/>
		<circle class="st2" cx="-2564.7" cy="-2758.3" r="1.2"/>
		<circle class="st2" cx="-2569.9" cy="-2753.2" r="1.2"/>
		<path class="st2" d="M-2596.1-2757.5h-1.8c-0.4,0-0.7-0.3-0.7-0.7l0,0c0-0.4,0.3-0.7,0.7-0.7h1.8c0.4,0,0.7,0.3,0.7,0.7l0,0
			C-2595.4-2757.9-2595.7-2757.6-2596.1-2757.5z"/>
		<path class="st2" d="M-2586.5-2757.5h-1.8c-0.4,0-0.7-0.3-0.7-0.7l0,0c0-0.4,0.3-0.7,0.7-0.7h1.8c0.4,0,0.7,0.3,0.7,0.7l0,0
			C-2585.8-2757.9-2586.1-2757.6-2586.5-2757.5z"/>
	</g>
</g>
</svg>
