<svg xmlns="http://www.w3.org/2000/svg" width="151" height="100%" viewBox="0 0 151 30">
    <g fill="none" fill-rule="nonzero">
        <path fill="#009B3A" d="M116.4 10.114l-6.557 1.2c-1.072.215-1.8 1.243-1.629 2.315.215 1.071 1.243 1.8 2.315 1.628l6.557-1.2c1.543-.3 2.528.643 2.914 1.629.386.985.3 2.314-1.029 3.171l-9.642 6.257c-.9.6-1.972.6-2.915.129a2.836 2.836 0 0 1-1.5-2.529V7.33c0-2.572-1.328-4.8-3.6-6.043C99.086.043 96.43.17 94.286 1.543L70.029 17.27c-2.743 1.758-3.772 4.972-2.572 8.015 1.2 3.043 4.157 4.671 7.372 4.114L96 25.586c1.071-.215 1.8-1.243 1.629-2.315-.215-1.071-1.243-1.8-2.315-1.628l-21.171 3.814c-1.586.3-2.529-.643-2.914-1.628-.386-.986-.3-2.315 1.028-3.172L96.514 4.93c.9-.6 1.972-.6 2.915-.129a2.836 2.836 0 0 1 1.5 2.529v15.385c0 2.572 1.328 4.8 3.6 6.043a7.014 7.014 0 0 0 3.3.857c1.285 0 2.571-.385 3.728-1.114l9.643-6.257c2.743-1.757 3.771-4.972 2.571-8.014-1.2-3.043-4.157-4.672-7.371-4.115zm33.943 4.115c-1.2-3.043-4.157-4.672-7.372-4.115l-6.557 1.2c-1.071.215-1.8 1.243-1.628 2.315.214 1.071 1.243 1.8 2.314 1.628l6.557-1.2c1.543-.3 2.529.643 2.914 1.629.386.985.3 2.314-1.028 3.171l-9.643 6.257c-.9.6-1.971.6-2.914.129a2.836 2.836 0 0 1-1.5-2.529V2.443c0-1.114-.9-2.014-2.015-2.014-1.114 0-2.014.9-2.014 2.014v20.271c0 2.572 1.329 4.8 3.6 6.043a7.014 7.014 0 0 0 3.3.857c1.286 0 2.572-.385 3.729-1.114l9.643-6.257c2.785-1.8 3.814-5.014 2.614-8.014z"/>
        <path fill="#212121" d="M5.914 22.671H2.486v-3.6h5.743c.385 0 .642-.214.642-.6 0-.342-.257-.557-.642-.557H2.357c-.643 0-1.028.386-1.028 1.029v9.6c0 .686.385 1.028 1.028 1.028h3.6c2.186 0 3.472-1.285 3.472-3.514-.043-2.143-1.286-3.386-3.515-3.386zm-.128 5.786h-3.3v-4.671h3.3c1.714 0 2.443.857 2.443 2.314 0 1.5-.729 2.357-2.443 2.357zm53.1-19.543c-.386 0-.6.257-.772.515-.3.642-.943 1.114-1.843 1.114-1.242 0-1.971-.772-2.1-1.843-.042-.6-.042-1.286 0-1.886.086-1.114.858-1.885 2.1-1.885.9 0 1.543.471 1.843 1.114.172.257.386.514.772.514.514 0 .857-.3.857-.814 0-.257-.086-.514-.257-.814-.515-.943-1.629-1.715-3.215-1.715-2.142 0-3.6 1.372-3.814 3.3a21.623 21.623 0 0 0 0 2.357c.172 1.972 1.629 3.343 3.814 3.343 1.586 0 2.7-.771 3.258-1.714.171-.3.257-.557.257-.814-.043-.429-.386-.772-.9-.772zM25.67 12.086h3.515c2.271 0 3.643-1.329 3.643-3.686 0-2.229-1.329-3.471-3.643-3.471h-3.043V2.143h5.143c.557 0 .943-.343.943-.857 0-.515-.386-.857-.943-.857h-5.572c-.9 0-1.371.471-1.371 1.371v8.914c-.043.9.471 1.372 1.328 1.372zm.472-5.529h2.871c1.372 0 1.972.686 1.972 1.886 0 1.2-.6 1.928-1.972 1.928h-2.871V6.557zm20.828-3.3a7.13 7.13 0 0 0-3.257.814c-.385.258-.428.429-.428 1.115v8.957c0 .6.343.943.857.943.557 0 .9-.343.9-.943v-2.357c.514.257 1.328.471 2.1.471 2.014 0 3.428-1.371 3.6-3.3.043-.643.043-1.757 0-2.4-.172-1.971-1.586-3.3-3.772-3.3zM48.986 8.7c-.086 1.114-.815 1.886-2.057 1.886-.643 0-1.5-.215-1.886-.472V5.443c.428-.3 1.243-.514 1.886-.514 1.285 0 1.971.771 2.057 1.885a13.84 13.84 0 0 1 0 1.886zm-22.8 12.129c-.386 0-.6.214-.6.6V24.6h-4.843v-3.171c0-.386-.214-.6-.6-.6-.343 0-.6.214-.6.6v7.628c0 .386.214.6.6.6s.6-.214.6-.6v-3.386h4.843v3.386c0 .386.214.6.6.6.343 0 .557-.214.557-.6V21.43c.043-.386-.172-.6-.557-.6zm6 4.328l3.385-3.386c.172-.171.215-.3.215-.471 0-.257-.172-.471-.515-.471-.171 0-.3.042-.428.214l-3.3 3.3c-.172.171-.386.3-.643.3h-.686v-3.214c0-.386-.214-.6-.6-.6-.343 0-.6.214-.6.6v7.628c0 .386.215.6.6.6.386 0 .6-.214.6-.6v-3.386h.6c.257 0 .429.086.643.3l3.514 3.515c.172.171.3.214.472.214.343 0 .514-.214.514-.514 0-.172-.086-.343-.257-.515l-3.514-3.514zm5.485-21.9c-.985 0-1.885.257-2.442.472-.472.214-.686.471-.686.857 0 .428.343.771.728.771.215 0 .429-.086.643-.171.386-.129.986-.3 1.586-.3 1.371 0 1.886.514 1.886 1.543v.685a7.6 7.6 0 0 0-2.143-.3c-2.229 0-3.3 1.243-3.3 2.657 0 1.586 1.2 2.829 3.343 2.829 1.671 0 2.957-.557 3.471-.9.257-.171.343-.343.343-.643V6.43c.043-2.186-1.2-3.172-3.429-3.172zm1.758 7.072c-.515.257-1.243.471-1.929.471-1.114 0-1.843-.471-1.843-1.329 0-.771.6-1.371 1.843-1.371.643 0 1.2.086 1.929.3v1.929zM14.27 20.743c-1.028 0-2.014.257-2.528.514-.343.172-.514.343-.514.6 0 .3.257.514.514.514.128 0 .3-.042.471-.128.429-.172 1.2-.386 1.929-.386 1.5 0 2.186.6 2.186 1.972v.814c-.943-.257-1.629-.386-2.443-.386-2.186 0-3.3 1.243-3.3 2.7 0 1.672 1.243 2.786 3.257 2.786 1.671 0 2.914-.6 3.386-.9a.561.561 0 0 0 .257-.514v-4.543c0-2.057-1.2-3.043-3.215-3.043zm2.058 7.328c-.643.343-1.5.6-2.315.6-1.457 0-2.271-.6-2.271-1.671 0-.943.728-1.671 2.271-1.671.772 0 1.415.128 2.315.385v2.357zm3.042-17.4L16.33 7.63 19.2 4.757c.214-.214.343-.428.343-.686 0-.428-.3-.728-.729-.728-.257 0-.428.086-.685.343L15.214 6.6c-.171.171-.343.257-.557.257h-.6V4.286c0-.6-.343-.943-.9-.943-.514 0-.857.343-.857.943v6.985c0 .6.343.943.857.943.557 0 .9-.343.9-.943V8.486h.514c.215 0 .386.085.558.257l3.128 3.128c.257.258.472.343.729.343.471 0 .771-.343.771-.771-.043-.3-.128-.557-.386-.772zm-8.442.643c0-.171-.043-.3-.129-.557L7.543 1.886C7.157.814 6.6.343 5.657.343c-.9 0-1.5.471-1.886 1.543L.514 10.757c-.085.257-.128.429-.128.557a.86.86 0 0 0 .857.857c.428 0 .728-.214.9-.728l1.071-3h4.843l1.072 3c.171.514.471.728.9.728.557 0 .9-.385.9-.857zM3.857 6.857l1.629-4.586c.043-.171.128-.214.214-.214.129 0 .171.043.214.214l1.629 4.586H3.857z"/>
    </g>
</svg>
