<?xml version="1.0" encoding="utf-8"?>
<!-- Generator: Adobe Illustrator 24.2.0, SVG Export Plug-In . SVG Version: 6.00 Build 0)  -->
<svg version="1.1" id="artwork" xmlns="http://www.w3.org/2000/svg" xmlns:xlink="http://www.w3.org/1999/xlink" x="0px" y="0px"
	 viewBox="0 0 135 40" style="enable-background:new 0 0 135 40;" xml:space="preserve">
<style type="text/css">
	.st0{fill:#A6A6A6;}
	.st1{fill:#FFFFFF;}
	.st2{fill:url(#SVGID_1_);}
	.st3{fill:url(#SVGID_2_);}
	.st4{fill:url(#SVGID_3_);}
	.st5{fill:url(#SVGID_4_);}
	.st6{opacity:0.2;enable-background:new    ;}
	.st7{opacity:0.12;enable-background:new    ;}
	.st8{opacity:0.25;fill:#FFFFFF;enable-background:new    ;}
	.st9{fill:#FFFFFF;stroke:#FFFFFF;stroke-width:0.2;stroke-miterlimit:10;}
</style>
<g>
	<path d="M130,40H5c-2.75,0-5-2.25-5-5V5c0-2.75,2.25-5,5-5h125c2.75,0,5,2.25,5,5v30C135,37.75,132.75,40,130,40z"/>
</g>
<g>
	<g>
		<path class="st0" d="M130,0.8c2.32,0,4.2,1.88,4.2,4.2v30c0,2.32-1.88,4.2-4.2,4.2H5c-2.32,0-4.2-1.88-4.2-4.2V5
			c0-2.32,1.88-4.2,4.2-4.2H130 M130,0H5C2.25,0,0,2.25,0,5v30c0,2.75,2.25,5,5,5h125c2.75,0,5-2.25,5-5V5C135,2.25,132.75,0,130,0
			L130,0z"/>
	</g>
</g>
<path class="st1" d="M68.14,21.75c-2.35,0-4.27,1.79-4.27,4.25c0,2.45,1.92,4.25,4.27,4.25c2.35,0,4.27-1.8,4.27-4.25
	C72.41,23.54,70.49,21.75,68.14,21.75z M68.14,28.58c-1.29,0-2.4-1.06-2.4-2.58c0-1.53,1.11-2.58,2.4-2.58c1.29,0,2.4,1.05,2.4,2.58
	C70.54,27.52,69.42,28.58,68.14,28.58z M58.82,21.75c-2.35,0-4.27,1.79-4.27,4.25c0,2.45,1.92,4.25,4.27,4.25
	c2.35,0,4.27-1.8,4.27-4.25C63.09,23.54,61.17,21.75,58.82,21.75z M58.82,28.58c-1.29,0-2.4-1.06-2.4-2.58
	c0-1.53,1.11-2.58,2.4-2.58c1.29,0,2.4,1.05,2.4,2.58C61.22,27.52,60.11,28.58,58.82,28.58z M47.74,23.06v1.8h4.32
	c-0.13,1.01-0.47,1.76-0.98,2.27c-0.63,0.63-1.61,1.32-3.33,1.32c-2.66,0-4.74-2.14-4.74-4.8s2.08-4.8,4.74-4.8
	c1.43,0,2.48,0.56,3.25,1.29l1.27-1.27c-1.08-1.03-2.51-1.82-4.53-1.82c-3.64,0-6.7,2.96-6.7,6.61c0,3.64,3.06,6.61,6.7,6.61
	c1.97,0,3.45-0.64,4.61-1.85c1.19-1.19,1.56-2.87,1.56-4.22c0-0.42-0.03-0.81-0.1-1.13H47.74z M93.05,24.46
	c-0.35-0.95-1.43-2.71-3.64-2.71c-2.19,0-4.01,1.72-4.01,4.25c0,2.38,1.8,4.25,4.22,4.25c1.95,0,3.08-1.19,3.54-1.88l-1.45-0.97
	c-0.48,0.71-1.14,1.18-2.09,1.18c-0.95,0-1.63-0.43-2.06-1.29l5.69-2.35L93.05,24.46z M87.25,25.88c-0.05-1.64,1.27-2.48,2.22-2.48
	c0.74,0,1.37,0.37,1.58,0.9L87.25,25.88z M82.63,30h1.87V17.5h-1.87V30z M79.57,22.7H79.5c-0.42-0.5-1.22-0.95-2.24-0.95
	c-2.13,0-4.08,1.87-4.08,4.27c0,2.38,1.95,4.24,4.08,4.24c1.01,0,1.82-0.45,2.24-0.97h0.06v0.61c0,1.63-0.87,2.5-2.27,2.5
	c-1.14,0-1.85-0.82-2.14-1.51l-1.63,0.68c0.47,1.13,1.71,2.51,3.77,2.51c2.19,0,4.04-1.29,4.04-4.43v-7.64h-1.77V22.7z M77.42,28.58
	c-1.29,0-2.37-1.08-2.37-2.56c0-1.5,1.08-2.59,2.37-2.59c1.27,0,2.27,1.1,2.27,2.59C79.7,27.5,78.7,28.58,77.42,28.58z M101.81,17.5
	h-4.47V30h1.87v-4.74h2.61c2.07,0,4.1-1.5,4.1-3.88S103.87,17.5,101.81,17.5z M101.85,23.52H99.2v-4.29h2.65
	c1.4,0,2.19,1.16,2.19,2.14C104.04,22.35,103.25,23.52,101.85,23.52z M113.39,21.73c-1.35,0-2.75,0.6-3.33,1.91l1.66,0.69
	c0.35-0.69,1.01-0.92,1.7-0.92c0.96,0,1.95,0.58,1.96,1.61v0.13c-0.34-0.19-1.06-0.48-1.95-0.48c-1.79,0-3.6,0.98-3.6,2.81
	c0,1.67,1.46,2.75,3.1,2.75c1.25,0,1.95-0.56,2.38-1.22h0.06v0.97h1.8v-4.79C117.18,22.97,115.52,21.73,113.39,21.73z M113.16,28.58
	c-0.61,0-1.46-0.31-1.46-1.06c0-0.96,1.06-1.33,1.98-1.33c0.82,0,1.21,0.18,1.7,0.42C115.24,27.76,114.24,28.58,113.16,28.58z
	 M123.74,22l-2.14,5.42h-0.06L119.32,22h-2.01l3.33,7.58l-1.9,4.21h1.95L125.82,22H123.74z M106.94,30h1.87V17.5h-1.87V30z"/>
<g>
	
		<linearGradient id="SVGID_1_" gradientUnits="userSpaceOnUse" x1="21.7997" y1="173.2903" x2="5.0173" y2="156.5079" gradientTransform="matrix(1 0 0 -1 0 182)">
		<stop  offset="0" style="stop-color:#00A0FF"/>
		<stop  offset="6.574450e-03" style="stop-color:#00A1FF"/>
		<stop  offset="0.2601" style="stop-color:#00BEFF"/>
		<stop  offset="0.5122" style="stop-color:#00D2FF"/>
		<stop  offset="0.7604" style="stop-color:#00DFFF"/>
		<stop  offset="1" style="stop-color:#00E3FF"/>
	</linearGradient>
	<path class="st2" d="M10.44,7.54c-0.29,0.31-0.46,0.79-0.46,1.4v22.12c0,0.62,0.17,1.1,0.46,1.4l0.07,0.07L22.9,20.15V20v-0.15
		L10.51,7.47L10.44,7.54z"/>
	
		<linearGradient id="SVGID_2_" gradientUnits="userSpaceOnUse" x1="33.8344" y1="161.9986" x2="9.6375" y2="161.9986" gradientTransform="matrix(1 0 0 -1 0 182)">
		<stop  offset="0" style="stop-color:#FFE000"/>
		<stop  offset="0.4087" style="stop-color:#FFBD00"/>
		<stop  offset="0.7754" style="stop-color:#FFA500"/>
		<stop  offset="1" style="stop-color:#FF9C00"/>
	</linearGradient>
	<path class="st3" d="M27.03,24.28l-4.13-4.13V20v-0.15l4.13-4.13l0.09,0.05l4.89,2.78c1.4,0.79,1.4,2.09,0,2.89l-4.89,2.78
		L27.03,24.28z"/>
	
		<linearGradient id="SVGID_3_" gradientUnits="userSpaceOnUse" x1="24.827" y1="159.7039" x2="2.0687" y2="136.9456" gradientTransform="matrix(1 0 0 -1 0 182)">
		<stop  offset="0" style="stop-color:#FF3A44"/>
		<stop  offset="1" style="stop-color:#C31162"/>
	</linearGradient>
	<path class="st4" d="M27.12,24.22L22.9,20L10.44,32.46c0.46,0.49,1.22,0.55,2.08,0.06L27.12,24.22"/>
	
		<linearGradient id="SVGID_4_" gradientUnits="userSpaceOnUse" x1="7.2973" y1="181.8238" x2="17.4599" y2="171.6613" gradientTransform="matrix(1 0 0 -1 0 182)">
		<stop  offset="0" style="stop-color:#32A071"/>
		<stop  offset="0.0685" style="stop-color:#2DA771"/>
		<stop  offset="0.4762" style="stop-color:#15CF74"/>
		<stop  offset="0.8009" style="stop-color:#06E775"/>
		<stop  offset="1" style="stop-color:#00F076"/>
	</linearGradient>
	<path class="st5" d="M27.12,15.78l-14.61-8.3c-0.86-0.49-1.62-0.43-2.08,0.06L22.9,20L27.12,15.78z"/>
	<g>
		<path class="st6" d="M27.03,24.13l-14.52,8.25c-0.81,0.46-1.54,0.43-2,0.01l0,0l-0.07,0.07l0,0l0.07,0.07l0,0
			c0.47,0.42,1.19,0.45,2-0.01l14.61-8.3L27.03,24.13z"/>
		<path class="st7" d="M10.44,32.32c-0.29-0.31-0.46-0.79-0.46-1.4v0.15c0,0.62,0.17,1.1,0.46,1.4l0.07-0.07L10.44,32.32z"/>
	</g>
	<path class="st7" d="M32.01,21.3l-4.99,2.83l0.09,0.09l4.89-2.78c0.7-0.4,1.05-0.92,1.05-1.44l0,0C33,20.47,32.65,20.94,32.01,21.3
		z"/>
	<path class="st8" d="M12.51,7.62l19.5,11.08c0.63,0.36,0.99,0.82,1.05,1.3l0,0c0-0.52-0.35-1.05-1.05-1.44L12.51,7.48
		c-1.4-0.79-2.54-0.13-2.54,1.47v0.15C9.97,7.49,11.12,6.83,12.51,7.62z"/>
</g>
<g>
	<path class="st9" d="M42.11,14.27h-0.74v-2.01h0.59c0.52-0.45,0.77-1.21,0.76-2.3V7h4.01v5.26h0.67v2.01h-0.74V13h-4.55V14.27z
		 M43.5,9.97c0.01,0.95-0.18,1.71-0.57,2.3h3.03V7.74H43.5V9.97z"/>
	<path class="st9" d="M53.41,12.22c-0.59,0.61-1.32,0.91-2.2,0.91c-0.88,0-1.61-0.3-2.2-0.91c-0.59-0.61-0.88-1.35-0.88-2.22
		s0.29-1.62,0.88-2.22c0.59-0.61,1.32-0.91,2.2-0.91c0.87,0,1.6,0.3,2.2,0.91C54,8.39,54.3,9.13,54.3,10
		C54.3,10.88,54,11.62,53.41,12.22z M49.58,11.72c0.44,0.45,0.99,0.67,1.63,0.67c0.64,0,1.19-0.22,1.63-0.67
		c0.44-0.45,0.67-1.02,0.67-1.72s-0.22-1.27-0.67-1.72C52.4,7.83,51.86,7.6,51.21,7.6c-0.64,0-1.19,0.22-1.63,0.67
		C49.14,8.73,48.92,9.3,48.92,10S49.14,11.27,49.58,11.72z"/>
	<path class="st9" d="M58.18,13.13c-0.88,0-1.62-0.3-2.22-0.9c-0.6-0.6-0.9-1.34-0.9-2.24s0.3-1.64,0.9-2.24
		c0.6-0.6,1.34-0.9,2.22-0.9c0.9,0,1.64,0.33,2.2,0.98l-0.54,0.52c-0.41-0.51-0.96-0.76-1.67-0.76c-0.65,0-1.21,0.22-1.66,0.66
		c-0.45,0.44-0.67,1.02-0.67,1.73s0.22,1.29,0.67,1.73c0.45,0.44,1,0.66,1.66,0.66c0.72,0,1.33-0.29,1.84-0.87l0.54,0.54
		c-0.27,0.33-0.62,0.59-1.03,0.78C59.11,13.04,58.66,13.13,58.18,13.13z"/>
	<path class="st9" d="M63.68,13h-0.77V7.74h-1.68V7h4.12v0.74h-1.68V13z"/>
	<path class="st9" d="M70.65,7l-2.27,5.06c-0.31,0.71-0.78,1.07-1.4,1.07c-0.18,0-0.38-0.04-0.6-0.13l0.2-0.71
		c0.13,0.07,0.26,0.11,0.4,0.11c0.18,0,0.32-0.03,0.42-0.1c0.1-0.07,0.19-0.2,0.27-0.38l0.22-0.48L65.87,7h0.91l1.48,3.44h0.03
		L69.74,7H70.65z"/>
	<path class="st9" d="M71.52,13V7h4.34v6h-0.77V7.74h-2.8V13H71.52z"/>
	<path class="st9" d="M77.23,13V7H78v2.57h3V7h0.77v6H81v-2.71h-3V13H77.23z"/>
	<path class="st9" d="M88.06,12.22c-0.59,0.61-1.32,0.91-2.2,0.91c-0.88,0-1.61-0.3-2.2-0.91c-0.59-0.61-0.88-1.35-0.88-2.22
		s0.29-1.62,0.88-2.22c0.59-0.61,1.32-0.91,2.2-0.91c0.87,0,1.6,0.3,2.2,0.91c0.59,0.61,0.89,1.35,0.89,2.22
		C88.94,10.88,88.65,11.62,88.06,12.22z M84.23,11.72c0.44,0.45,0.99,0.67,1.63,0.67s1.19-0.22,1.63-0.67
		c0.44-0.45,0.67-1.02,0.67-1.72s-0.22-1.27-0.67-1.72C87.04,7.83,86.5,7.6,85.86,7.6s-1.19,0.22-1.63,0.67
		C83.78,8.73,83.56,9.3,83.56,10S83.78,11.27,84.23,11.72z"/>
	<path class="st9" d="M92.09,13V7h2.17c0.47,0,0.88,0.16,1.22,0.46C95.83,7.78,96,8.16,96,8.63c0,0.29-0.07,0.54-0.22,0.75
		c-0.15,0.22-0.34,0.38-0.59,0.49v0.03c0.3,0.1,0.54,0.27,0.73,0.52c0.19,0.25,0.29,0.53,0.29,0.85c0,0.49-0.18,0.9-0.54,1.22
		C95.3,12.84,94.87,13,94.38,13H92.09z M92.86,9.57h1.4c0.29,0,0.52-0.1,0.7-0.29c0.18-0.19,0.26-0.4,0.26-0.63
		s-0.08-0.44-0.26-0.63c-0.17-0.19-0.39-0.29-0.67-0.29h-1.43V9.57z M92.86,12.26h1.55c0.3,0,0.54-0.1,0.72-0.31
		c0.18-0.21,0.28-0.43,0.28-0.68c0-0.25-0.09-0.47-0.29-0.67c-0.19-0.2-0.44-0.31-0.75-0.31h-1.52V12.26z"/>
</g>
</svg>
