<?xml version="1.0" encoding="utf-8"?>
<!-- Generator: Adobe Illustrator 23.0.1, SVG Export Plug-In . SVG Version: 6.00 Build 0)  -->
<svg version="1.1"
	 id="svg825" xmlns:cc="http://creativecommons.org/ns#" xmlns:dc="http://purl.org/dc/elements/1.1/" xmlns:inkscape="http://www.inkscape.org/namespaces/inkscape" xmlns:rdf="http://www.w3.org/1999/02/22-rdf-syntax-ns#" xmlns:sodipodi="http://sodipodi.sourceforge.net/DTD/sodipodi-0.dtd" xmlns:svg="http://www.w3.org/2000/svg"
	 xmlns="http://www.w3.org/2000/svg" xmlns:xlink="http://www.w3.org/1999/xlink" x="0px" y="0px" viewBox="0 0 332.2 156.1"
	 style="enable-background:new 0 0 332.2 156.1;" xml:space="preserve">
<style type="text/css">
	.st0{fill:#212121;fill-opacity:0.9529;}
	.st1{fill:url(#path9322_1_);}
	.st2{fill:url(#path9322-7_1_);}
	.st3{fill:url(#path9322-7-1_1_);}
	.st4{fill:#09070A;fill-opacity:0;}
	.st5{fill:#555F8A;fill-opacity:0;}
	.st6{stroke:url(#path9453_1_);stroke-width:4;}
	.st7{stroke:url(#path9778_1_);stroke-width:6;}
	.st8{fill:#0D141A;stroke:url(#path1452_1_);stroke-width:4;stroke-linecap:square;}
	.st9{fill:#0A090C;fill-opacity:0.9698;stroke:url(#path2283_1_);stroke-width:4;stroke-linecap:square;}
	.st10{fill:url(#path2313_1_);}
	.st11{fill:#0A090C;stroke:#0C0E13;stroke-width:6;stroke-linecap:square;}
	.st12{fill:#09070A;fill-opacity:0.9296;stroke:#0B0B11;stroke-width:6;stroke-linecap:square;}
	.st13{fill:#282828;}
	.st14{clip-path:url(#SVGID_2_);}
	.st15{fill:#32383B;}
	.st16{fill:#0A0A0A;}
	.st17{fill:#0A0F18;stroke:url(#path8567_1_);stroke-width:4;stroke-linecap:square;}
	.st18{fill:#090000;stroke:url(#path8622_1_);stroke-width:2;stroke-linecap:square;}
	.st19{fill:#AD94BB;}
	.st20{fill:#004762;}
	.st21{fill:url(#path8605_1_);}
	.st22{fill:#0B0A0C;stroke:#0B0A0C;stroke-width:2;stroke-linecap:square;}
	.st23{fill:url(#path9778-7_1_);}
	.st24{fill:url(#path9778-7-8_1_);}
	.st25{fill:url(#path1112_1_);}
</style>
<sodipodi:namedview  bordercolor="#666666" borderopacity="1" fit-margin-bottom="0" fit-margin-left="0" fit-margin-right="0" fit-margin-top="0" gridtolerance="10" guidetolerance="10" id="namedview827" inkscape:current-layer="svg825" inkscape:cx="470.0241" inkscape:cy="592.65497" inkscape:pageopacity="0" inkscape:pageshadow="2" inkscape:window-height="705" inkscape:window-maximized="1" inkscape:window-width="1366" inkscape:window-x="-8" inkscape:window-y="-8" inkscape:zoom="0.5" objecttolerance="10" pagecolor="#ffffff" showgrid="true">
	</sodipodi:namedview>
<path id="path9453-3-3" inkscape:connector-curvature="0" sodipodi:nodetypes="ccccccccc" class="st0" d="M5.4,123.2
	c0,18.7,1.2,30.7,20,30.7h283.8c18.7,0,20-12,20-30.7V34.3c0-18.7-1.2-30.7-20-30.7H25.3c-18.7,0-20,12-20,30.7V123.2z"/>
<g id="g9618" transform="translate(0,-4.070124e-5)">
	
		<linearGradient id="path9322_1_" gradientUnits="userSpaceOnUse" x1="707.0758" y1="786.8892" x2="707.6282" y2="786.8892" gradientTransform="matrix(6.123234e-17 -1 -1 -6.123234e-17 861.9999 862.0001)">
		<stop  offset="0" style="stop-color:#E1E1E1"/>
		<stop  offset="1" style="stop-color:#000000"/>
	</linearGradient>
	<path id="path9322" inkscape:connector-curvature="0" class="st1" d="M52.1,153.8c0,0.6,0.5,1.1,1.1,1.1h43.9
		c0.6,0,1.1-0.5,1.1-1.1c0-0.6-0.5-1.1-1.1-1.1H53.2C52.5,152.7,52.1,153.2,52.1,153.8z"/>
	
		<linearGradient id="path9322-7_1_" gradientUnits="userSpaceOnUse" x1="707.0758" y1="961.8669" x2="707.6282" y2="961.8669" gradientTransform="matrix(6.123234e-17 -1 -1 -6.123234e-17 1090 862.0001)">
		<stop  offset="0" style="stop-color:#E1E1E1"/>
		<stop  offset="1" style="stop-color:#000000"/>
	</linearGradient>
	<path id="path9322-7" inkscape:connector-curvature="0" sodipodi:nodetypes="sssssss" class="st2" d="M115,153.8
		c0,0.6,0.5,1.1,1.1,1.1h24c0.6,0,1.1-0.5,1.1-1.1c0-0.6-0.5-1.1-1.1-1.1h-24C115.5,152.7,115,153.2,115,153.8z"/>
	
		<linearGradient id="path9322-7-1_1_" gradientUnits="userSpaceOnUse" x1="-365.5146" y1="617.7682" x2="-364.9623" y2="617.7682" gradientTransform="matrix(-6.123234e-17 1 1 6.123234e-17 -507.9995 368.0001)">
		<stop  offset="0" style="stop-color:#E1E1E1"/>
		<stop  offset="1" style="stop-color:#000000"/>
	</linearGradient>
	<path id="path9322-7-1" inkscape:connector-curvature="0" sodipodi:nodetypes="sssssss" class="st3" d="M123,3.6
		c0-0.6-0.5-1.1-1.1-1.1H97.6c-0.6,0-1.1,0.5-1.1,1.1s0.5,1.1,1.1,1.1h24.3C122.5,4.7,123,4.2,123,3.6z"/>
</g>
<circle id="path2378" class="st4" cx="16.2" cy="101.9" r="1.1"/>
<circle id="path8599" class="st5" cx="17.1" cy="49.6" r="1"/>
<circle id="path8603" class="st5" cx="16" cy="50.4" r="1.8"/>
<linearGradient id="path9453_1_" gradientUnits="userSpaceOnUse" x1="783.2953" y1="694.8055" x2="783.2953" y2="857.2618" gradientTransform="matrix(6.123234e-17 -1 -0.9999 -6.122894e-17 861.9631 862.0001)">
	<stop  offset="0" style="stop-color:#555555"/>
	<stop  offset="1" style="stop-color:#646464"/>
</linearGradient>
<path id="path9453" inkscape:connector-curvature="0" sodipodi:nodetypes="cssccsscc" class="st6" d="M6.8,122.8
	c0,18.6,0.4,30.4,19.1,30.4h282.8c18.6,0,19.1-11.9,19.1-30.4l0-88.2c0-18.6-0.4-30.4-19.1-30.4H25.8C7.2,4.1,6.7,16,6.8,34.6
	L6.8,122.8z"/>
<linearGradient id="path9778_1_" gradientUnits="userSpaceOnUse" x1="706.8374" y1="694.7907" x2="859.7531" y2="694.7907" gradientTransform="matrix(6.123234e-17 -1 -1 -6.123234e-17 861.9999 862.0001)">
	<stop  offset="0" style="stop-color:#000000"/>
	<stop  offset="0.5" style="stop-color:#3F3F44;stop-opacity:0.9246"/>
	<stop  offset="1" style="stop-color:#000000"/>
</linearGradient>
<path id="path9778" inkscape:connector-curvature="0" sodipodi:nodetypes="cssccsscc" class="st7" d="M8.4,130.1
	c0,13.8,3,22.1,17.7,22.1h282.2c14.6,0,17.7-9.7,17.7-22.1V27.3c0-12.4-3-22.1-17.7-22.1H26.1c-14.6,0-17.7,8.3-17.7,22.1V130.1z"/>
<g id="g9314" transform="translate(0,-6.9999171e-4)">
	
		<linearGradient id="path1452_1_" gradientUnits="userSpaceOnUse" x1="728.2731" y1="849.2297" x2="734.4823" y2="843.0204" gradientTransform="matrix(6.123234e-17 -1 -1 -6.123234e-17 861.9999 862.0007)">
		<stop  offset="0" style="stop-color:#0A0C13"/>
		<stop  offset="1" style="stop-color:#101820"/>
	</linearGradient>
	<circle id="path1452" class="st8" cx="15.9" cy="130.6" r="1.1"/>
	<g id="g8647">
		
			<linearGradient id="path2283_1_" gradientUnits="userSpaceOnUse" x1="741.3193" y1="850.6105" x2="741.3193" y2="841.0873" gradientTransform="matrix(6.123234e-17 -1 -1 -6.123234e-17 861.9999 862.0007)">
			<stop  offset="0" style="stop-color:#0C0C0F;stop-opacity:0.9799"/>
			<stop  offset="1" style="stop-color:#161D20;stop-opacity:0.9497"/>
		</linearGradient>
		<circle id="path2283" class="st9" cx="16.2" cy="120.7" r="2.8"/>
		
			<linearGradient id="path2313_1_" gradientUnits="userSpaceOnUse" x1="741.3193" y1="844.192" x2="741.3193" y2="845.2966" gradientTransform="matrix(6.123234e-17 -1 -1 -6.123234e-17 861.9999 862.0007)">
			<stop  offset="0" style="stop-color:#1A2021"/>
			<stop  offset="1" style="stop-color:#09090C"/>
		</linearGradient>
		<circle id="path2313" class="st10" cx="16.2" cy="120.7" r="1.9"/>
	</g>
	<circle id="path2342" class="st11" cx="16.3" cy="109.2" r="1.8"/>
	<circle id="path2380" class="st12" cx="16.2" cy="101.9" r="1.1"/>
	<g id="g8561">
		<path id="path2395" inkscape:connector-curvature="0" class="st13" d="M13.7,88.4c0,0.8,0.6,1.4,1.4,1.4s1.4-0.6,1.4-1.4V68.5
			c0-0.8-0.6-1.4-1.4-1.4s-1.4,0.6-1.4,1.4V88.4z"/>
		<g>
			<defs>
				<path id="SVGID_1_" d="M13.9,88.4c0,0.6,0.5,1.1,1.1,1.1s1.1-0.5,1.1-1.1V68.5c0-0.6-0.5-1.1-1.1-1.1s-1.1,0.5-1.1,1.1V88.4z"/>
			</defs>
			<clipPath id="SVGID_2_">
				<use xlink:href="#SVGID_1_"  style="overflow:visible;"/>
			</clipPath>
			<g id="g6733" class="st14">
				<rect id="rect2428" x="14.8" y="88.4" class="st15" width="0.6" height="0.6"/>
				<rect id="rect2430" x="14.8" y="88.9" class="st16" width="0.6" height="0.6"/>
				<rect id="rect2428-7" x="14.8" y="87.3" class="st15" width="0.6" height="0.6"/>
				<rect id="rect2430-2" x="14.8" y="87.8" class="st16" width="0.6" height="0.6"/>
				<rect id="rect2428-0" x="14.8" y="86.2" class="st15" width="0.6" height="0.6"/>
				<rect id="rect2430-3" x="14.8" y="86.7" class="st16" width="0.6" height="0.6"/>
				<rect id="rect2428-7-9" x="14.8" y="85.1" class="st15" width="0.6" height="0.6"/>
				<rect id="rect2430-2-6" x="14.8" y="85.6" class="st16" width="0.6" height="0.6"/>
				<rect id="rect2428-0-7" x="14.8" y="84" class="st15" width="0.6" height="0.6"/>
				<rect id="rect2430-3-2" x="14.8" y="84.5" class="st16" width="0.6" height="0.6"/>
				<rect id="rect2428-7-9-5" x="14.8" y="82.8" class="st15" width="0.6" height="0.6"/>
				<rect id="rect2430-2-6-0" x="14.8" y="83.4" class="st16" width="0.6" height="0.6"/>
				<rect id="rect2428-8" x="14.8" y="81.7" class="st15" width="0.6" height="0.6"/>
				<rect id="rect2430-24" x="14.8" y="82.3" class="st16" width="0.6" height="0.6"/>
				<rect id="rect2428-7-6" x="14.8" y="80.6" class="st15" width="0.6" height="0.6"/>
				<rect id="rect2430-2-5" x="14.8" y="81.2" class="st16" width="0.6" height="0.6"/>
				<rect id="rect2428-0-9" x="14.8" y="79.5" class="st15" width="0.6" height="0.6"/>
				<rect id="rect2430-3-9" x="14.8" y="80.1" class="st16" width="0.6" height="0.6"/>
				<rect id="rect2428-7-9-0" x="14.8" y="78.4" class="st15" width="0.6" height="0.6"/>
				<rect id="rect2430-2-6-3" x="14.8" y="79" class="st16" width="0.6" height="0.6"/>
				<rect id="rect2428-0-7-9" x="14.8" y="77.3" class="st15" width="0.6" height="0.6"/>
				<rect id="rect2430-3-2-6" x="14.8" y="77.9" class="st16" width="0.6" height="0.6"/>
				<rect id="rect2428-7-9-5-3" x="14.8" y="76.2" class="st15" width="0.6" height="0.6"/>
				<rect id="rect2430-2-6-0-1" x="14.8" y="76.8" class="st16" width="0.6" height="0.6"/>
				<rect id="rect2428-89" x="14.8" y="75.1" class="st15" width="0.6" height="0.6"/>
				<rect id="rect2430-8" x="14.8" y="75.7" class="st16" width="0.6" height="0.6"/>
				<rect id="rect2428-7-4" x="14.8" y="74" class="st15" width="0.6" height="0.6"/>
				<rect id="rect2430-2-65" x="14.8" y="74.6" class="st16" width="0.6" height="0.6"/>
				<rect id="rect2428-0-3" x="14.8" y="72.9" class="st15" width="0.6" height="0.6"/>
				<rect id="rect2430-3-92" x="14.8" y="73.5" class="st16" width="0.6" height="0.6"/>
				<rect id="rect2428-7-9-59" x="14.8" y="71.8" class="st15" width="0.6" height="0.6"/>
				<rect id="rect2430-2-6-01" x="14.8" y="72.4" class="st16" width="0.6" height="0.6"/>
				<rect id="rect2428-0-7-4" x="14.8" y="70.7" class="st15" width="0.6" height="0.6"/>
				<rect id="rect2430-3-2-5" x="14.8" y="71.2" class="st16" width="0.6" height="0.6"/>
				<rect id="rect2428-7-9-5-7" x="14.8" y="69.6" class="st15" width="0.6" height="0.6"/>
				<rect id="rect2430-2-6-0-15" x="14.8" y="70.1" class="st16" width="0.6" height="0.6"/>
				<rect id="rect2428-8-5" x="14.8" y="68.5" class="st15" width="0.6" height="0.6"/>
				<rect id="rect2430-24-8" x="14.8" y="69" class="st16" width="0.6" height="0.6"/>
				<rect id="rect2428-7-6-5" x="14.8" y="67.4" class="st15" width="0.6" height="0.6"/>
				<rect id="rect2430-2-5-5" x="14.8" y="67.9" class="st16" width="0.6" height="0.6"/>
				<rect id="rect2428-80" x="14.2" y="87.8" class="st15" width="0.6" height="0.6"/>
				<rect id="rect2430-7" x="14.2" y="88.4" class="st16" width="0.6" height="0.6"/>
				<rect id="rect2428-7-1" x="14.2" y="86.7" class="st15" width="0.6" height="0.6"/>
				<rect id="rect2430-2-650" x="14.2" y="87.3" class="st16" width="0.6" height="0.6"/>
				<rect id="rect2428-0-75" x="14.2" y="85.6" class="st15" width="0.6" height="0.6"/>
				<rect id="rect2430-3-28" x="14.2" y="86.2" class="st16" width="0.6" height="0.6"/>
				<rect id="rect2428-7-9-8" x="14.2" y="84.5" class="st15" width="0.6" height="0.6"/>
				<rect id="rect2430-2-6-2" x="14.2" y="85.1" class="st16" width="0.6" height="0.6"/>
				<rect id="rect2428-0-7-0" x="14.2" y="83.4" class="st15" width="0.6" height="0.6"/>
				<rect id="rect2430-3-2-9" x="14.2" y="84" class="st16" width="0.6" height="0.6"/>
				<rect id="rect2428-7-9-5-1" x="14.2" y="82.3" class="st15" width="0.6" height="0.6"/>
				<rect id="rect2430-2-6-0-4" x="14.2" y="82.8" class="st16" width="0.6" height="0.6"/>
				<rect id="rect2428-8-1" x="14.2" y="81.2" class="st15" width="0.6" height="0.6"/>
				<rect id="rect2430-24-88" x="14.2" y="81.7" class="st16" width="0.6" height="0.6"/>
				<rect id="rect2428-7-6-3" x="14.2" y="80.1" class="st15" width="0.6" height="0.6"/>
				<rect id="rect2430-2-5-6" x="14.2" y="80.6" class="st16" width="0.6" height="0.6"/>
				<rect id="rect2428-0-9-5" x="14.2" y="79" class="st15" width="0.6" height="0.6"/>
				<rect id="rect2430-3-9-0" x="14.2" y="79.5" class="st16" width="0.6" height="0.6"/>
				<rect id="rect2428-7-9-0-0" x="14.2" y="77.9" class="st15" width="0.6" height="0.6"/>
				<rect id="rect2430-2-6-3-8" x="14.2" y="78.4" class="st16" width="0.6" height="0.6"/>
				<rect id="rect2428-0-7-9-9" x="14.2" y="76.8" class="st15" width="0.6" height="0.6"/>
				<rect id="rect2430-3-2-6-6" x="14.2" y="77.3" class="st16" width="0.6" height="0.6"/>
				<rect id="rect2428-7-9-5-3-8" x="14.2" y="75.7" class="st15" width="0.6" height="0.6"/>
				<rect id="rect2430-2-6-0-1-3" x="14.2" y="76.2" class="st16" width="0.6" height="0.6"/>
				<rect id="rect2428-89-3" x="14.2" y="74.6" class="st15" width="0.6" height="0.6"/>
				<rect id="rect2430-8-0" x="14.2" y="75.1" class="st16" width="0.6" height="0.6"/>
				<rect id="rect2428-7-4-3" x="14.2" y="73.5" class="st15" width="0.6" height="0.6"/>
				<rect id="rect2430-2-65-1" x="14.2" y="74" class="st16" width="0.6" height="0.6"/>
				<rect id="rect2428-0-3-6" x="14.2" y="72.4" class="st15" width="0.6" height="0.6"/>
				<rect id="rect2430-3-92-6" x="14.2" y="72.9" class="st16" width="0.6" height="0.6"/>
				<rect id="rect2428-7-9-59-2" x="14.2" y="71.2" class="st15" width="0.6" height="0.6"/>
				<rect id="rect2430-2-6-01-4" x="14.2" y="71.8" class="st16" width="0.6" height="0.6"/>
				<rect id="rect2428-0-7-4-7" x="14.2" y="70.1" class="st15" width="0.6" height="0.6"/>
				<rect id="rect2430-3-2-5-2" x="14.2" y="70.7" class="st16" width="0.6" height="0.6"/>
				<rect id="rect2428-7-9-5-7-1" x="14.2" y="69" class="st15" width="0.6" height="0.6"/>
				<rect id="rect2430-2-6-0-15-3" x="14.2" y="69.6" class="st16" width="0.6" height="0.6"/>
				<rect id="rect2428-8-5-1" x="14.2" y="67.9" class="st15" width="0.6" height="0.6"/>
				<rect id="rect2430-24-8-3" x="14.2" y="68.5" class="st16" width="0.6" height="0.6"/>
				<rect id="rect2430-2-5-5-6" x="14.2" y="67.4" class="st16" width="0.6" height="0.6"/>
				<rect id="rect2428-80-5" x="15.3" y="87.8" class="st15" width="0.6" height="0.6"/>
				<rect id="rect2430-7-1" x="15.3" y="88.4" class="st16" width="0.6" height="0.6"/>
				<rect id="rect2428-7-1-6" x="15.3" y="86.7" class="st15" width="0.6" height="0.6"/>
				<rect id="rect2430-2-650-1" x="15.3" y="87.3" class="st16" width="0.6" height="0.6"/>
				<rect id="rect2428-0-75-3" x="15.3" y="85.6" class="st15" width="0.6" height="0.6"/>
				<rect id="rect2430-3-28-1" x="15.3" y="86.2" class="st16" width="0.6" height="0.6"/>
				<rect id="rect2428-7-9-8-6" x="15.3" y="84.5" class="st15" width="0.6" height="0.6"/>
				<rect id="rect2430-2-6-2-8" x="15.3" y="85.1" class="st16" width="0.6" height="0.6"/>
				<rect id="rect2428-0-7-0-2" x="15.3" y="83.4" class="st15" width="0.6" height="0.6"/>
				<rect id="rect2430-3-2-9-8" x="15.3" y="84" class="st16" width="0.6" height="0.6"/>
				<rect id="rect2428-7-9-5-1-7" x="15.3" y="82.3" class="st15" width="0.6" height="0.6"/>
				<rect id="rect2430-2-6-0-4-2" x="15.3" y="82.8" class="st16" width="0.6" height="0.6"/>
				<rect id="rect2428-8-1-4" x="15.3" y="81.2" class="st15" width="0.6" height="0.6"/>
				<rect id="rect2430-24-88-0" x="15.3" y="81.7" class="st16" width="0.6" height="0.6"/>
				<rect id="rect2428-7-6-3-7" x="15.3" y="80.1" class="st15" width="0.6" height="0.6"/>
				<rect id="rect2430-2-5-6-8" x="15.3" y="80.6" class="st16" width="0.6" height="0.6"/>
				<rect id="rect2428-0-9-5-3" x="15.3" y="79" class="st15" width="0.6" height="0.6"/>
				<rect id="rect2430-3-9-0-0" x="15.3" y="79.5" class="st16" width="0.6" height="0.6"/>
				<rect id="rect2428-7-9-0-0-9" x="15.3" y="77.9" class="st15" width="0.6" height="0.6"/>
				<rect id="rect2430-2-6-3-8-7" x="15.3" y="78.4" class="st16" width="0.6" height="0.6"/>
				<rect id="rect2428-0-7-9-9-7" x="15.3" y="76.8" class="st15" width="0.6" height="0.6"/>
				<rect id="rect2430-3-2-6-6-7" x="15.3" y="77.3" class="st16" width="0.6" height="0.6"/>
				<rect id="rect2428-7-9-5-3-8-4" x="15.3" y="75.7" class="st15" width="0.6" height="0.6"/>
				<rect id="rect2430-2-6-0-1-3-6" x="15.3" y="76.2" class="st16" width="0.6" height="0.6"/>
				<rect id="rect2428-89-3-7" x="15.3" y="74.6" class="st15" width="0.6" height="0.6"/>
				<rect id="rect2430-8-0-0" x="15.3" y="75.1" class="st16" width="0.6" height="0.6"/>
				<rect id="rect2428-7-4-3-3" x="15.3" y="73.5" class="st15" width="0.6" height="0.6"/>
				<rect id="rect2430-2-65-1-6" x="15.3" y="74" class="st16" width="0.6" height="0.6"/>
				<rect id="rect2428-0-3-6-5" x="15.3" y="72.4" class="st15" width="0.6" height="0.6"/>
				<rect id="rect2430-3-92-6-3" x="15.3" y="72.9" class="st16" width="0.6" height="0.6"/>
				<rect id="rect2428-7-9-59-2-5" x="15.3" y="71.2" class="st15" width="0.6" height="0.6"/>
				<rect id="rect2430-2-6-01-4-6" x="15.3" y="71.8" class="st16" width="0.6" height="0.6"/>
				<rect id="rect2428-0-7-4-7-7" x="15.3" y="70.1" class="st15" width="0.6" height="0.6"/>
				<rect id="rect2430-3-2-5-2-2" x="15.3" y="70.7" class="st16" width="0.6" height="0.6"/>
				<rect id="rect2428-7-9-5-7-1-9" x="15.3" y="69" class="st15" width="0.6" height="0.6"/>
				<rect id="rect2430-2-6-0-15-3-5" x="15.3" y="69.6" class="st16" width="0.6" height="0.6"/>
				<rect id="rect2428-8-5-1-1" x="15.3" y="67.9" class="st15" width="0.6" height="0.6"/>
				<rect id="rect2430-24-8-3-8" x="15.3" y="68.5" class="st16" width="0.6" height="0.6"/>
				<rect id="rect2430-2-5-5-6-6" x="15.3" y="67.4" class="st16" width="0.6" height="0.6"/>
				<rect id="rect2428-80-7" x="13.7" y="88.4" class="st15" width="0.6" height="0.6"/>
				<rect id="rect2430-7-4" x="13.7" y="88.9" class="st16" width="0.6" height="0.6"/>
				<rect id="rect2428-7-1-67" x="13.7" y="87.3" class="st15" width="0.6" height="0.6"/>
				<rect id="rect2430-2-650-9" x="13.7" y="87.8" class="st16" width="0.6" height="0.6"/>
				<rect id="rect2428-0-75-8" x="13.7" y="86.2" class="st15" width="0.6" height="0.6"/>
				<rect id="rect2430-3-28-8" x="13.7" y="86.7" class="st16" width="0.6" height="0.6"/>
				<rect id="rect2428-7-9-8-8" x="13.7" y="85.1" class="st15" width="0.6" height="0.6"/>
				<rect id="rect2430-2-6-2-0" x="13.7" y="85.6" class="st16" width="0.6" height="0.6"/>
				<rect id="rect2428-0-7-0-8" x="13.7" y="84" class="st15" width="0.6" height="0.6"/>
				<rect id="rect2430-3-2-9-5" x="13.7" y="84.5" class="st16" width="0.6" height="0.6"/>
				<rect id="rect2428-7-9-5-1-74" x="13.7" y="82.8" class="st15" width="0.6" height="0.6"/>
				<rect id="rect2430-2-6-0-4-6" x="13.7" y="83.4" class="st16" width="0.6" height="0.6"/>
				<rect id="rect2428-8-1-3" x="13.7" y="81.7" class="st15" width="0.6" height="0.6"/>
				<rect id="rect2430-24-88-1" x="13.7" y="82.3" class="st16" width="0.6" height="0.6"/>
				<rect id="rect2428-7-6-3-0" x="13.7" y="80.6" class="st15" width="0.6" height="0.6"/>
				<rect id="rect2430-2-5-6-0" x="13.7" y="81.2" class="st16" width="0.6" height="0.6"/>
				<rect id="rect2428-0-9-5-5" x="13.7" y="79.5" class="st15" width="0.6" height="0.6"/>
				<rect id="rect2430-3-9-0-6" x="13.7" y="80.1" class="st16" width="0.6" height="0.6"/>
				<rect id="rect2428-7-9-0-0-7" x="13.7" y="78.4" class="st15" width="0.6" height="0.6"/>
				<rect id="rect2430-2-6-3-8-1" x="13.7" y="79" class="st16" width="0.6" height="0.6"/>
				<rect id="rect2428-0-7-9-9-3" x="13.7" y="77.3" class="st15" width="0.6" height="0.6"/>
				<rect id="rect2430-3-2-6-6-4" x="13.7" y="77.9" class="st16" width="0.6" height="0.6"/>
				<rect id="rect2428-7-9-5-3-8-2" x="13.7" y="76.2" class="st15" width="0.6" height="0.6"/>
				<rect id="rect2430-2-6-0-1-3-3" x="13.7" y="76.8" class="st16" width="0.6" height="0.6"/>
				<rect id="rect2428-89-3-70" x="13.7" y="75.1" class="st15" width="0.6" height="0.6"/>
				<rect id="rect2430-8-0-4" x="13.7" y="75.7" class="st16" width="0.6" height="0.6"/>
				<rect id="rect2428-7-4-3-2" x="13.7" y="74" class="st15" width="0.6" height="0.6"/>
				<rect id="rect2430-2-65-1-0" x="13.7" y="74.6" class="st16" width="0.6" height="0.6"/>
				<rect id="rect2428-0-3-6-53" x="13.7" y="72.9" class="st15" width="0.6" height="0.6"/>
				<rect id="rect2430-3-92-6-2" x="13.7" y="73.5" class="st16" width="0.6" height="0.6"/>
				<rect id="rect2428-7-9-59-2-9" x="13.7" y="71.8" class="st15" width="0.6" height="0.6"/>
				<rect id="rect2430-2-6-01-4-5" x="13.7" y="72.4" class="st16" width="0.6" height="0.6"/>
				<rect id="rect2428-0-7-4-7-1" x="13.7" y="70.7" class="st15" width="0.6" height="0.6"/>
				<rect id="rect2430-3-2-5-2-4" x="13.7" y="71.2" class="st16" width="0.6" height="0.6"/>
				<rect id="rect2428-7-9-5-7-1-0" x="13.7" y="69.6" class="st15" width="0.6" height="0.6"/>
				<rect id="rect2430-2-6-0-15-3-0" x="13.7" y="70.1" class="st16" width="0.6" height="0.6"/>
				<rect id="rect2428-8-5-1-17" x="13.7" y="68.5" class="st15" width="0.6" height="0.6"/>
				<rect id="rect2430-24-8-3-0" x="13.7" y="69" class="st16" width="0.6" height="0.6"/>
				<rect id="rect2428-7-6-5-4-4" x="13.7" y="67.4" class="st15" width="0.6" height="0.6"/>
				<rect id="rect2430-2-5-5-6-5" x="13.7" y="67.9" class="st16" width="0.6" height="0.6"/>
				<rect id="rect2428-80-7-9" x="15.9" y="88.4" class="st15" width="0.6" height="0.6"/>
				<rect id="rect2430-7-4-6" x="15.9" y="88.9" class="st16" width="0.6" height="0.6"/>
				<rect id="rect2428-7-1-67-2" x="15.9" y="87.3" class="st15" width="0.6" height="0.6"/>
				<rect id="rect2430-2-650-9-5" x="15.9" y="87.8" class="st16" width="0.6" height="0.6"/>
				<rect id="rect2428-0-75-8-2" x="15.9" y="86.2" class="st15" width="0.6" height="0.6"/>
				<rect id="rect2430-3-28-8-5" x="15.9" y="86.7" class="st16" width="0.6" height="0.6"/>
				<rect id="rect2428-7-9-8-8-9" x="15.9" y="85.1" class="st15" width="0.6" height="0.6"/>
				<rect id="rect2430-2-6-2-0-2" x="15.9" y="85.6" class="st16" width="0.6" height="0.6"/>
				<rect id="rect2428-0-7-0-8-3" x="15.9" y="84" class="st15" width="0.6" height="0.6"/>
				<rect id="rect2430-3-2-9-5-3" x="15.9" y="84.5" class="st16" width="0.6" height="0.6"/>
				<rect id="rect2428-7-9-5-1-74-2" x="15.9" y="82.8" class="st15" width="0.6" height="0.6"/>
				<rect id="rect2430-2-6-0-4-6-6" x="15.9" y="83.4" class="st16" width="0.6" height="0.6"/>
				<rect id="rect2428-8-1-3-4" x="15.9" y="81.7" class="st15" width="0.6" height="0.6"/>
				<rect id="rect2430-24-88-1-6" x="15.9" y="82.3" class="st16" width="0.6" height="0.6"/>
				<rect id="rect2428-7-6-3-0-6" x="15.9" y="80.6" class="st15" width="0.6" height="0.6"/>
				<rect id="rect2430-2-5-6-0-3" x="15.9" y="81.2" class="st16" width="0.6" height="0.6"/>
				<rect id="rect2428-0-9-5-5-0" x="15.9" y="79.5" class="st15" width="0.6" height="0.6"/>
				<rect id="rect2430-3-9-0-6-0" x="15.9" y="80.1" class="st16" width="0.6" height="0.6"/>
				<rect id="rect2428-7-9-0-0-7-0" x="15.9" y="78.4" class="st15" width="0.6" height="0.6"/>
				<rect id="rect2430-2-6-3-8-1-8" x="15.9" y="79" class="st16" width="0.6" height="0.6"/>
				<rect id="rect2428-0-7-9-9-3-1" x="15.9" y="77.3" class="st15" width="0.6" height="0.6"/>
				<rect id="rect2430-3-2-6-6-4-0" x="15.9" y="77.9" class="st16" width="0.6" height="0.6"/>
				<rect id="rect2428-7-9-5-3-8-2-4" x="15.9" y="76.2" class="st15" width="0.6" height="0.6"/>
				<rect id="rect2430-2-6-0-1-3-3-9" x="15.9" y="76.8" class="st16" width="0.6" height="0.6"/>
				<rect id="rect2428-89-3-70-1" x="15.9" y="75.1" class="st15" width="0.6" height="0.6"/>
				<rect id="rect2430-8-0-4-5" x="15.9" y="75.7" class="st16" width="0.6" height="0.6"/>
				<rect id="rect2428-7-4-3-2-1" x="15.9" y="74" class="st15" width="0.6" height="0.6"/>
				<rect id="rect2430-2-65-1-0-6" x="15.9" y="74.6" class="st16" width="0.6" height="0.6"/>
				<rect id="rect2428-0-3-6-53-2" x="15.9" y="72.9" class="st15" width="0.6" height="0.6"/>
				<rect id="rect2430-3-92-6-2-8" x="15.9" y="73.5" class="st16" width="0.6" height="0.6"/>
				<rect id="rect2428-7-9-59-2-9-2" x="15.9" y="71.8" class="st15" width="0.6" height="0.6"/>
				<rect id="rect2430-2-6-01-4-5-6" x="15.9" y="72.4" class="st16" width="0.6" height="0.6"/>
				<rect id="rect2428-0-7-4-7-1-7" x="15.9" y="70.7" class="st15" width="0.6" height="0.6"/>
				<rect id="rect2430-3-2-5-2-4-1" x="15.9" y="71.2" class="st16" width="0.6" height="0.6"/>
				<rect id="rect2428-7-9-5-7-1-0-5" x="15.9" y="69.6" class="st15" width="0.6" height="0.6"/>
				<rect id="rect2430-2-6-0-15-3-0-0" x="15.9" y="70.1" class="st16" width="0.6" height="0.6"/>
				<rect id="rect2428-8-5-1-17-3" x="15.9" y="68.5" class="st15" width="0.6" height="0.6"/>
				<rect id="rect2430-24-8-3-0-3" x="15.9" y="69" class="st16" width="0.6" height="0.6"/>
				<rect id="rect2428-7-6-5-4-4-5" x="15.9" y="67.4" class="st15" width="0.6" height="0.6"/>
				<rect id="rect2430-2-5-5-6-5-3" x="15.9" y="67.9" class="st16" width="0.6" height="0.6"/>
				<rect id="rect2428-80-1" x="14.2" y="88.9" class="st15" width="0.6" height="0.6"/>
				<rect id="rect2428-03" x="15.3" y="88.9" class="st15" width="0.6" height="0.6"/>
			</g>
		</g>
	</g>
	<g id="g8662">
		
			<linearGradient id="path8567_1_" gradientUnits="userSpaceOnUse" x1="806.9778" y1="850.6105" x2="816.2249" y2="841.3635" gradientTransform="matrix(6.123234e-17 -1 -1 -6.123234e-17 861.9999 862.0007)">
			<stop  offset="0" style="stop-color:#090A11"/>
			<stop  offset="1" style="stop-color:#171920"/>
		</linearGradient>
		<circle id="path8567" class="st17" cx="16" cy="50.4" r="2.6"/>
		
			<linearGradient id="path8622_1_" gradientUnits="userSpaceOnUse" x1="814.3964" y1="843.192" x2="811.415" y2="846.1733" gradientTransform="matrix(6.123234e-17 -1 -1 -6.123234e-17 861.9999 862.0007)">
			<stop  offset="0" style="stop-color:#37394C"/>
			<stop  offset="1" style="stop-color:#000000"/>
		</linearGradient>
		<circle id="path8622" class="st18" cx="16" cy="50.4" r="1.8"/>
		<path id="path8577" inkscape:connector-curvature="0" class="st19" d="M14.2,50.4c0,1,0.8,1.8,1.8,1.8c0.2,0,0.4,0,0.6-0.1
			c-0.4-0.1-1-0.3-1.4-0.8c-0.5-0.5-0.8-1.1-0.9-1.6C14.3,50,14.2,50.2,14.2,50.4z"/>
		
			<ellipse id="path8579" transform="matrix(0.7071 -0.7071 0.7071 0.7071 -31.1429 26.1654)" class="st20" cx="16" cy="50.7" rx="0.3" ry="0.6"/>
		
			<linearGradient id="path8605_1_" gradientUnits="userSpaceOnUse" x1="811.3905" y1="844.5554" x2="813.0474" y2="845.9362" gradientTransform="matrix(6.123234e-17 -1 -1 -6.123234e-17 861.9999 862.0007)">
			<stop  offset="0" style="stop-color:#555F8A"/>
			<stop  offset="1" style="stop-color:#333274"/>
		</linearGradient>
		<path id="path8605" inkscape:connector-curvature="0" class="st21" d="M16.2,49.4c0,0.6,0.5,1.1,1.1,1.1c0.1,0,0.2,0,0.3,0
			c0-0.7-0.5-1.4-1.3-1.6C16.2,49.1,16.2,49.3,16.2,49.4z"/>
	</g>
	<circle id="path8655" class="st22" cx="16" cy="37.1" r="2.1"/>
</g>
<g id="g10128" transform="translate(0,-6.9999171e-4)">
	
		<linearGradient id="path9778-7_1_" gradientUnits="userSpaceOnUse" x1="709.8375" y1="694.7849" x2="721.9884" y2="694.7878" gradientTransform="matrix(6.123234e-17 -1 -1 -6.123234e-17 861.9999 862.0007)">
		<stop  offset="0" style="stop-color:#F1F1F5"/>
		<stop  offset="0.5702" style="stop-color:#2D2D32"/>
		<stop  offset="1" style="stop-color:#25242A"/>
	</linearGradient>
	<path id="path9778-7" inkscape:connector-curvature="0" sodipodi:nodetypes="csscssc" class="st23" d="M9.3,140
		c1.7,7.8,6.2,12.2,16.8,12.2h282.2c10.7,0,15.2-5.2,16.8-12.8c-2.4,3.9-7.2,5.9-16.6,5.9H25.8C16.5,145.3,11.7,143.7,9.3,140z"/>
	
		<linearGradient id="path9778-7-8_1_" gradientUnits="userSpaceOnUse" x1="856.7531" y1="694.7849" x2="844.6022" y2="694.7878" gradientTransform="matrix(6.123234e-17 -1 -1 -6.123234e-17 861.9999 862.0007)">
		<stop  offset="0" style="stop-color:#F1F1F5"/>
		<stop  offset="0.5702" style="stop-color:#2D2D32"/>
		<stop  offset="1" style="stop-color:#25242A"/>
	</linearGradient>
	<path id="path9778-7-8" inkscape:connector-curvature="0" sodipodi:nodetypes="csscssc" class="st24" d="M9.3,17.4
		c1.7-7.8,6.2-12.2,16.8-12.2h282.2c10.7,0,15.2,5.2,16.8,12.8c-2.4-3.9-7.2-5.9-16.6-5.9H25.8C16.5,12.2,11.7,13.7,9.3,17.4z"/>
</g>
<linearGradient id="path1112_1_" gradientUnits="userSpaceOnUse" x1="783.2952" y1="840.0007" x2="783.2952" y2="546.7551" gradientTransform="matrix(6.123234e-17 -1 -1.0001 -6.123932e-17 862.0469 862.0001)">
	<stop  offset="0" style="stop-color:#FFFFFF;stop-opacity:9.803922e-02"/>
	<stop  offset="1" style="stop-color:#FFFFFF;stop-opacity:5.098039e-02"/>
</linearGradient>
<path id="path1112" inkscape:connector-curvature="0" sodipodi:nodetypes="cscsccscscc" class="st25" d="M22,135.6
	c0,15.2,8.8,14.6,13,14.6H57h245.2c4.1,0,13,0.6,13-14.6V21.8c0-15.2-8.8-14.6-13-14.6H57H34.9c-4.1,0-13-0.6-13,14.6L22,135.6z"/>
</svg>
