<?xml version="1.0" encoding="utf-8"?>
<!-- Generator: Adobe Illustrator 16.0.0, SVG Export Plug-In . SVG Version: 6.00 Build 0)  -->
<!DOCTYPE svg PUBLIC "-//W3C//DTD SVG 1.1 Basic//EN" "http://www.w3.org/Graphics/SVG/1.1/DTD/svg11-basic.dtd">
<svg version="1.1" baseProfile="basic" id="Слой_1"
	 xmlns="http://www.w3.org/2000/svg" xmlns:xlink="http://www.w3.org/1999/xlink" x="0px" y="0px" width="20px" height="20px"
	 viewBox="0 0 20 20" xml:space="preserve">
<path fill="#4984CA" d="M10,0C4.477,0,0,4.477,0,10c0,5.522,4.477,10,10,10c5.523,0,10-4.478,10-10C20,4.477,15.523,0,10,0z
	 M11.088,2.93l-0.317,9.454H9.229L8.912,2.93H11.088z M10,16.322c-0.794,0-1.337-0.612-1.337-1.406c0-0.815,0.567-1.405,1.337-1.405
	c0.816,0,1.338,0.59,1.338,1.405C11.338,15.71,10.816,16.322,10,16.322z"/>
</svg>
