<?xml version="1.0" encoding="utf-8"?>
<!-- Generator: Adobe Illustrator 16.0.0, SVG Export Plug-In . SVG Version: 6.00 Build 0)  -->
<!DOCTYPE svg PUBLIC "-//W3C//DTD SVG 1.1 Basic//EN" "http://www.w3.org/Graphics/SVG/1.1/DTD/svg11-basic.dtd">
<svg version="1.1" baseProfile="basic" id="Слой_1"
	 xmlns="http://www.w3.org/2000/svg" xmlns:xlink="http://www.w3.org/1999/xlink" x="0px" y="0px" width="45px" height="38px"
	 viewBox="0 0 45 38" xml:space="preserve">
<g>
	<path fill="#4984CA" d="M43,3.717V36H2V3.717H43 M45,1.717H0V38h45V1.717L45,1.717z"/>
</g>
<g>
	<g>
		<path fill="#4984CA" d="M8.67,15.317v2h-2v-2H8.67 M9.67,14.317h-4v4h4V14.317L9.67,14.317z"/>
	</g>
	<g>
		<path fill="#4984CA" d="M16.085,15.317v2h-2v-2H16.085 M17.085,14.317h-4v4h4V14.317L17.085,14.317z"/>
	</g>
	<g>
		<path fill="#4984CA" d="M23.5,15.317v2h-2v-2H23.5 M24.5,14.317h-4v4h4V14.317L24.5,14.317z"/>
	</g>
	<g>
		<path fill="#4984CA" d="M30.916,15.317v2h-2v-2H30.916 M31.916,14.317h-4v4h4V14.317L31.916,14.317z"/>
	</g>
	<g>
		<path fill="#4984CA" d="M38.331,15.317v2h-2v-2H38.331 M39.331,14.317h-4v4h4V14.317L39.331,14.317z"/>
	</g>
</g>
<g>
	<path fill="#4984CA" d="M8.67,22.389v2h-2v-2H8.67 M9.67,21.389h-4v4h4V21.389L9.67,21.389z"/>
</g>
<g>
	<path fill="#4984CA" d="M18.085,20.389h-6v6h6V20.389L18.085,20.389z"/>
</g>
<g>
	<path fill="#4984CA" d="M23.5,22.389v2h-2v-2H23.5 M24.5,21.389h-4v4h4V21.389L24.5,21.389z"/>
</g>
<g>
	<path fill="#4984CA" d="M30.916,22.389v2h-2v-2H30.916 M31.916,21.389h-4v4h4V21.389L31.916,21.389z"/>
</g>
<g>
	<path fill="#4984CA" d="M38.331,22.389v2h-2v-2H38.331 M39.331,21.389h-4v4h4V21.389L39.331,21.389z"/>
</g>
<g>
	<g>
		<path fill="#4984CA" d="M8.67,29.46v2h-2v-2H8.67 M9.67,28.46h-4v4h4V28.46L9.67,28.46z"/>
	</g>
	<g>
		<path fill="#4984CA" d="M16.085,29.46v2h-2v-2H16.085 M17.085,28.46h-4v4h4V28.46L17.085,28.46z"/>
	</g>
	<g>
		<path fill="#4984CA" d="M23.5,29.46v2h-2v-2H23.5 M24.5,28.46h-4v4h4V28.46L24.5,28.46z"/>
	</g>
	<g>
		<path fill="#4984CA" d="M30.916,29.46v2h-2v-2H30.916 M31.916,28.46h-4v4h4V28.46L31.916,28.46z"/>
	</g>
	<g>
		<path fill="#4984CA" d="M38.331,29.46v2h-2v-2H38.331 M39.331,28.46h-4v4h4V28.46L39.331,28.46z"/>
	</g>
</g>
<g>
	<rect x="7.17" y="0.217" fill="#4984CA" width="1" height="5"/>
	<g>
		<path fill="#4984CA" d="M7.67,0.717v4V0.717 M8.67-0.283h-2v6h2V-0.283L8.67-0.283z"/>
	</g>
</g>
<g>
	<rect x="36.832" y="0.217" fill="#4984CA" width="1" height="5"/>
	<g>
		<path fill="#4984CA" d="M37.332,0.717v4V0.717 M38.332-0.283h-2v6h2V-0.283L38.332-0.283z"/>
	</g>
</g>
<g>
	<rect x="14.585" y="0.217" fill="#4984CA" width="1" height="5"/>
	<g>
		<path fill="#4984CA" d="M15.085,0.717v4V0.717 M16.085-0.283h-2v6h2V-0.283L16.085-0.283z"/>
	</g>
</g>
<g>
	<rect x="22" y="0.217" fill="#4984CA" width="1" height="5"/>
	<g>
		<path fill="#4984CA" d="M22.5,0.717v4V0.717 M23.5-0.283h-2v6h2V-0.283L23.5-0.283z"/>
	</g>
</g>
<g>
	<rect x="29.416" y="0.217" fill="#4984CA" width="1" height="5"/>
	<g>
		<path fill="#4984CA" d="M29.916,0.717v4V0.717 M30.916-0.283h-2v6h2V-0.283L30.916-0.283z"/>
	</g>
</g>
<line fill="none" stroke="#4984CA" stroke-miterlimit="10" x1="0" y1="8.016" x2="45" y2="8.016"/>
</svg>
