<?xml version="1.0" encoding="utf-8"?>
<!-- Generator: Adobe Illustrator 16.0.0, SVG Export Plug-In . SVG Version: 6.00 Build 0)  -->
<!DOCTYPE svg PUBLIC "-//W3C//DTD SVG 1.1 Basic//EN" "http://www.w3.org/Graphics/SVG/1.1/DTD/svg11-basic.dtd">
<svg version="1.1" baseProfile="basic" id="Слой_1"
	 xmlns="http://www.w3.org/2000/svg" xmlns:xlink="http://www.w3.org/1999/xlink" x="0px" y="0px" width="38px" height="47px"
	 viewBox="0 0 38 47" xml:space="preserve">
<g>
	<g>
		<g>
			<path fill="#4984CA" d="M32.48,46.904H14.496v-7.505H9.294c-2.71,0-4.915-2.204-4.915-4.914v-4.732H0.274l5.417-9.383
				c-0.004-0.134-0.007-0.269-0.007-0.405c0-5.498,2.953-10.637,7.707-13.412l1.009,1.728c-4.142,2.418-6.715,6.895-6.715,11.685
				c0,0.205,0.007,0.408,0.016,0.61l0.013,0.292l-3.975,6.886H6.38v6.732c0,1.606,1.308,2.914,2.915,2.914h7.201v7.505H30.48v-15.1
				l0.293-0.293c2.547-2.549,3.949-5.939,3.949-9.546c0-2.069-0.454-4.054-1.351-5.9l1.799-0.873
				c1.029,2.121,1.552,4.399,1.552,6.773c0,4.001-1.503,7.77-4.242,10.66V46.904z"/>
		</g>
	</g>
	<g>
		<g>
			<path fill="none" stroke="#4984CA" stroke-width="2" stroke-miterlimit="10" d="M7.953,28.94"/>
		</g>
		<g>
			<path fill="none" stroke="#4984CA" stroke-width="2" stroke-miterlimit="10" d="M12.503,24.021"/>
		</g>
		<g>
			<path fill="#4984CA" d="M11.1,21.527c-0.753-0.287-2.262-0.577-4.249-0.816l0.12-0.993c1.461,0.176,3.425,0.471,4.485,0.875
				L11.1,21.527z"/>
		</g>
	</g>
	<g>
		<g>
			<path fill="#4984CA" d="M26.54,28.016v5.334h-5.438v-5.334H26.54 M28.54,26.016h-2h-5.438h-2v2v5.334v2h2h5.438h2v-2v-5.334
				V26.016L28.54,26.016z"/>
		</g>
		<g>
			<path fill="#4984CA" d="M23.799,2.02c7.473,0,9.896,4.648,9.896,7.668c0,7.589-6.555,6.556-7.233,11.362v1.51h-5.359v-1.79
				c0.555-6.873,6.476-6.234,6.355-10.531c0-2.419-1.273-3.571-3.378-3.571c-2.858,0-4.091,0.926-4.091,3.746h-5.843
				C14.265,4.734,17.961,2.02,23.799,2.02 M23.799,0.02c-7.16,0-11.516,3.87-11.653,10.352l-0.043,2.042h2.043h5.843h2v-2
				c0-1.746,0.401-1.746,2.091-1.746c0.972,0,1.378,0.218,1.378,1.571v0.028l0.001,0.028c0.023,0.849-0.329,1.222-1.73,2.329
				c-1.792,1.416-4.246,3.354-4.62,7.985l-0.006,0.081v0.081v1.79v2h2h5.359h2v-2v-1.353c0.196-1.084,0.905-1.635,2.312-2.642
				c2.077-1.487,4.922-3.524,4.922-8.877c0-2.32-0.995-4.646-2.731-6.381C31.463,1.807,28.655,0.02,23.799,0.02L23.799,0.02z"/>
		</g>
	</g>
</g>
</svg>
