<?xml version="1.0" encoding="utf-8"?>
<!-- Generator: Adobe Illustrator 16.0.0, SVG Export Plug-In . SVG Version: 6.00 Build 0)  -->
<!DOCTYPE svg PUBLIC "-//W3C//DTD SVG 1.1//EN" "http://www.w3.org/Graphics/SVG/1.1/DTD/svg11.dtd">
<svg version="1.1" id="Слой_1" xmlns="http://www.w3.org/2000/svg" xmlns:xlink="http://www.w3.org/1999/xlink" x="0px" y="0px"
	 width="45px" height="38px" viewBox="0 0 45 38" enable-background="new 0 0 45 38" xml:space="preserve">
<g>
	<g>
		<g>
			<polygon fill="#4984CA" points="44.874,21.584 28.328,21.584 28.328,19.584 42.874,19.584 42.874,1.85 17.086,1.85 
				17.086,10.717 15.086,10.717 15.086,-0.15 44.874,-0.15 			"/>
		</g>
		<g>
			<g>
				<rect x="21.12" y="6.406" fill="#4984CA" width="17.721" height="1.5"/>
			</g>
			<g>
				<rect x="31.4" y="10.28" fill="#4984CA" width="7.44" height="1.5"/>
			</g>
			<g>
				<rect x="31.4" y="14.153" fill="#4984CA" width="7.44" height="1.5"/>
			</g>
		</g>
	</g>
</g>
<g>
	<g>
		<g>
			<path fill="#4984CA" d="M24.726,37.838l-6.649-6.648H0.126V10.021h29.788v21.169h-5.188V37.838z M2.126,29.189h16.778l3.821,3.82
				v-3.82h5.188V12.021H2.126V29.189z"/>
		</g>
		<g>
			<g>
				<rect x="6.16" y="16.577" fill="#4984CA" width="17.721" height="1.5"/>
			</g>
			<g>
				<rect x="6.16" y="20.452" fill="#4984CA" width="17.721" height="1.5"/>
			</g>
			<g>
				<rect x="6.16" y="24.325" fill="#4984CA" width="17.721" height="1.5"/>
			</g>
		</g>
	</g>
</g>
</svg>
