<?xml version="1.0" encoding="utf-8"?>
<!-- Generator: Adobe Illustrator 16.0.0, SVG Export Plug-In . SVG Version: 6.00 Build 0)  -->
<!DOCTYPE svg PUBLIC "-//W3C//DTD SVG 1.1//EN" "http://www.w3.org/Graphics/SVG/1.1/DTD/svg11.dtd">
<svg version="1.1" id="Слой_1" xmlns="http://www.w3.org/2000/svg" xmlns:xlink="http://www.w3.org/1999/xlink" x="0px" y="0px"
	 width="45px" height="38px" viewBox="0 0 45 38" enable-background="new 0 0 45 38" xml:space="preserve">
<g>
	<path fill="#4984CA" d="M41.778,17.579h-2v-6.706l-4.073-0.05v-2h4.023c1.13,0,2.05,0.919,2.05,2.05V17.579z"/>
</g>
<g>
	<path fill="#4984CA" d="M4.699,19.926h-2v-9.053c0-1.13,0.919-2.05,2.05-2.05h7.006v2H4.749L4.699,19.926z"/>
</g>
<g>
	<g>
		<polygon fill="#4984CA" points="8.614,20.031 6.614,20.031 6.614,14.542 11.614,14.542 11.614,16.542 8.614,16.542 		"/>
	</g>
</g>
<g>
	<polygon fill="#4984CA" points="12.711,20.031 10.711,20.031 10.711,0.025 29.757,0.025 36.646,7.225 36.646,17.294 34.646,17.294 
		34.646,8.028 28.903,2.025 12.711,2.025 	"/>
</g>
<g>
	<g>
		<polygon fill="#4984CA" points="29.33,1.309 29.33,7.626 35.646,7.626 29.33,1.309 		"/>
	</g>
</g>
<g>
	<rect x="14.53" y="6.731" fill="#4984CA" width="4.299" height="2"/>
</g>
<g>
	<rect x="14.53" y="9.891" fill="#4984CA" width="18.2" height="2"/>
</g>
<g>
	<rect x="14.53" y="13.049" fill="#4984CA" width="18.2" height="2"/>
</g>
<g>
	<path fill="none" stroke="#4984CA" stroke-width="2" stroke-miterlimit="10" d="M35.705,15.085"/>
</g>
<g>
	<path fill="none" stroke="#4984CA" stroke-width="2" stroke-miterlimit="10" d="M17.506,15.085"/>
</g>
<g>
	<path fill="none" stroke="#4984CA" stroke-width="2" stroke-miterlimit="10" d="M24.724,17.536"/>
</g>
<g>
	<path fill="none" stroke="#4984CA" stroke-width="2" stroke-miterlimit="10" d="M17.506,17.536"/>
</g>
<g>
	<path fill="#4984CA" d="M39.729,37.935H4.749c-1.098,0-1.996-0.866-2.047-1.95L0.175,21.017c0-1.129,0.919-2.048,2.05-2.048h20.319
		l1.51-2.45h18.724c1.129,0,2.048,0.919,2.048,2.049l-0.015,0.173l-3.036,17.247C41.723,37.07,40.824,37.935,39.729,37.935z
		 M2.182,20.971l2.518,14.916l35.029,0.048c0.029,0,0.05-0.025,0.05-0.048l0.015-0.173l3.018-17.146l-17.64-0.047l-1.51,2.448
		L2.182,20.971z"/>
</g>
</svg>
