<?xml version="1.0" encoding="utf-8"?>
<!-- Generator: Adobe Illustrator 16.0.0, SVG Export Plug-In . SVG Version: 6.00 Build 0)  -->
<!DOCTYPE svg PUBLIC "-//W3C//DTD SVG 1.1 Basic//EN" "http://www.w3.org/Graphics/SVG/1.1/DTD/svg11-basic.dtd">
<svg version="1.1" baseProfile="basic" id="Слой_1"
	 xmlns="http://www.w3.org/2000/svg" xmlns:xlink="http://www.w3.org/1999/xlink" x="0px" y="0px" width="140px" height="140px"
	 viewBox="0 0 140 140" xml:space="preserve">
<g>
	<polygon fill="#FA6B3A" points="106.956,65.775 55.918,65.775 55.918,63.09 104.27,63.09 104.27,38.914 55.918,38.914 
		55.918,36.229 106.956,36.229 	"/>
	<path fill="#FA6B3A" d="M42.487,41.602c-4.444,0-8.06-3.615-8.06-8.061c0-4.443,3.615-8.057,8.06-8.057s8.058,3.613,8.058,8.057
		C50.545,37.986,46.932,41.602,42.487,41.602z M42.487,28.17c-2.962,0-5.373,2.41-5.373,5.371c0,2.963,2.411,5.373,5.373,5.373
		s5.372-2.41,5.372-5.373C47.859,30.58,45.449,28.17,42.487,28.17z"/>
	<path fill="#009EE0" d="M112.328,76.521H50.545V52.346h21.49v-5.373H37.114c-4.442,0-8.058,3.615-8.058,8.061v18.803h5.371V63.09
		h2.687v13.432H26.37V55.033c0-5.926,4.82-10.746,10.744-10.746h37.607v10.746h-21.49v18.803h56.41V33.541h-56.41v-2.686h59.097
		V76.521z"/>
	<rect x="55.918" y="68.463" fill="#FA6B3A" width="51.038" height="2.686"/>
	<path fill="#009EE0" d="M108.299,111.441H30.399c-2.185,0-4.029-2.459-4.029-5.371v-3.465l10.078-5.76l1.333,2.33l-8.725,4.988
		v1.906c0,1.643,0.943,2.686,1.343,2.686h77.899c0.398,0,1.343-1.043,1.343-2.686v-1.906l-8.725-4.988l1.332-2.33l10.079,5.76v3.465
		C112.328,108.982,110.482,111.441,108.299,111.441z"/>
	<polygon fill="#009EE0" points="84.166,104.906 72.777,99.211 73.979,96.809 84.081,101.861 92.858,96.846 94.191,99.176 	"/>
	<polygon fill="#009EE0" points="54.533,104.906 44.507,99.176 45.84,96.846 54.616,101.861 64.719,96.809 65.921,99.211 	"/>
	<path fill="#009EE0" d="M41.145,100.697c-4.594,0-8.06-4.332-8.06-10.072c0-4.066,0.916-8.73,8.06-8.73
		c7.143,0,8.059,4.664,8.059,8.73C49.203,96.365,45.738,100.697,41.145,100.697z M41.145,84.58c-4.066,0-5.373,1.469-5.373,6.045
		c0,3.58,1.884,7.385,5.373,7.385c3.488,0,5.372-3.805,5.372-7.385C46.517,86.049,45.21,84.58,41.145,84.58z"/>
	<path fill="#009EE0" d="M69.349,100.697c-4.593,0-8.058-4.332-8.058-10.072c0-4.066,0.915-8.73,8.058-8.73
		c7.144,0,8.06,4.664,8.06,8.73C77.408,96.365,73.942,100.697,69.349,100.697z M69.349,84.58c-4.065,0-5.372,1.469-5.372,6.045
		c0,3.58,1.883,7.385,5.372,7.385s5.373-3.805,5.373-7.385C74.722,86.049,73.415,84.58,69.349,84.58z"/>
	<path fill="#009EE0" d="M97.554,100.697c-4.593,0-8.058-4.332-8.058-10.072c0-4.066,0.914-8.73,8.058-8.73s8.06,4.664,8.06,8.73
		C105.613,96.365,102.147,100.697,97.554,100.697z M97.554,84.58c-4.065,0-5.372,1.469-5.372,6.045c0,3.58,1.884,7.385,5.372,7.385
		c3.489,0,5.373-3.805,5.373-7.385C102.927,86.049,101.62,84.58,97.554,84.58z"/>
	<rect x="53.231" y="103.383" fill="#009EE0" width="2.687" height="4.029"/>
	<rect x="82.779" y="103.383" fill="#009EE0" width="2.687" height="4.029"/>
	<rect x="41.145" y="49.66" fill="#FA6B3A" width="2.686" height="2.686"/>
	<rect x="41.145" y="55.033" fill="#FA6B3A" width="2.686" height="2.686"/>
</g>
</svg>
