<?xml version="1.0" encoding="utf-8"?>
<!-- Generator: Adobe Illustrator 16.0.0, SVG Export Plug-In . SVG Version: 6.00 Build 0)  -->
<!DOCTYPE svg PUBLIC "-//W3C//DTD SVG 1.1//EN" "http://www.w3.org/Graphics/SVG/1.1/DTD/svg11.dtd">
<svg version="1.1" id="Слой_1" xmlns="http://www.w3.org/2000/svg" xmlns:xlink="http://www.w3.org/1999/xlink" x="0px" y="0px"
	 width="45px" height="38px" viewBox="0 0 45 38" enable-background="new 0 0 45 38" xml:space="preserve">
<g>
	<polyline fill="none" stroke="#4984CA" stroke-width="2" stroke-miterlimit="10" points="43.776,13.417 22.368,28.146 
		0.958,13.416 	"/>
	<polygon fill="#4984CA" points="31.735,11.639 31.735,13.639 43,13.639 43,36 2,36 2,13.639 13.006,13.639 13.006,11.639 0,11.639 
		0,38 45,38 45,11.639 	"/>
</g>
<g>
	<path fill="none" stroke="#4984CA" stroke-width="2" stroke-miterlimit="10" d="M24.209,4.807c4.398,0,7.965,3.566,7.965,7.965
		s-3.566,7.964-7.965,7.964"/>
	<polyline fill="none" stroke="#4984CA" stroke-width="2" stroke-miterlimit="10" points="26.004,7.997 22.927,4.919 26.004,1.842 	
		"/>
	<path fill="none" stroke="#4984CA" stroke-width="2" stroke-miterlimit="10" d="M20.973,20.606c-4.4,0-7.967-3.565-7.967-7.964
		s3.567-7.965,7.967-7.965"/>
	<polyline fill="none" stroke="#4984CA" stroke-width="2" stroke-miterlimit="10" points="19.177,17.417 22.255,20.494 
		19.177,23.57 	"/>
</g>
</svg>
