<?xml version="1.0" encoding="utf-8"?>
<!-- Generator: Adobe Illustrator 16.0.0, SVG Export Plug-In . SVG Version: 6.00 Build 0)  -->
<!DOCTYPE svg PUBLIC "-//W3C//DTD SVG 1.1//EN" "http://www.w3.org/Graphics/SVG/1.1/DTD/svg11.dtd">
<svg version="1.1" id="Слой_1" xmlns="http://www.w3.org/2000/svg" xmlns:xlink="http://www.w3.org/1999/xlink" x="0px" y="0px"
	 width="45px" height="38px" viewBox="0 0 45 38" enable-background="new 0 0 45 38" xml:space="preserve">
<g>
	<path fill="#4984CA" d="M20.153,2.142c5.522,0,7.527,5.955,7.527,9.958c0,2.281-0.975,5.301-2.482,7.694
		c-1.555,2.467-3.393,3.881-5.045,3.881c-3.634,0-7.526-6.793-7.526-11.575C12.627,8.097,14.631,2.142,20.153,2.142 M20.153,0.142
		c-6.7,0-9.526,6.696-9.526,11.958c0,5.262,4.263,13.575,9.526,13.575c5.262,0,9.527-8.313,9.527-13.575
		C29.681,6.838,26.853,0.142,20.153,0.142L20.153,0.142z"/>
</g>
<path fill="none" stroke="#4984CA" stroke-width="2" stroke-linejoin="round" stroke-miterlimit="10" d="M14.063,20.249L4.364,23.96
	c-1.778,0.682-3.23,2.793-3.23,4.696v4.753c0,1.901,1.556,3.457,3.458,3.457h31.124c1.9,0,3.457-1.556,3.457-3.457v-4.753
	c0-1.903-1.451-4.023-3.221-4.717l-9.656-3.769"/>
<line fill="none" stroke="#4984CA" stroke-width="2" stroke-linejoin="round" stroke-miterlimit="10" x1="38.454" y1="-0.142" x2="38.454" y2="13.231"/>
<line fill="none" stroke="#4984CA" stroke-width="2" stroke-linejoin="round" stroke-miterlimit="10" x1="45" y1="6.544" x2="31.627" y2="6.544"/>
</svg>
