<?xml version="1.0" encoding="utf-8"?>
<!-- Generator: Adobe Illustrator 16.0.0, SVG Export Plug-In . SVG Version: 6.00 Build 0)  -->
<!DOCTYPE svg PUBLIC "-//W3C//DTD SVG 1.1 Basic//EN" "http://www.w3.org/Graphics/SVG/1.1/DTD/svg11-basic.dtd">
<svg version="1.1" baseProfile="basic" id="Слой_1"
	 xmlns="http://www.w3.org/2000/svg" xmlns:xlink="http://www.w3.org/1999/xlink" x="0px" y="0px" width="140px" height="140px"
	 viewBox="0 0 140 140" xml:space="preserve">
<g>
	<g>
		<rect x="76.204" y="52.123" fill="#FA6B3A" width="2.687" height="5.373"/>
	</g>
	<g>
		<rect x="61.499" y="52.123" fill="#FA6B3A" width="2.687" height="5.373"/>
	</g>
	<path fill="#FA6B3A" d="M48.635,66.898h-2.687V52.123c0-6.664,5.423-12.086,12.088-12.086v2.686c-5.184,0-9.401,4.217-9.401,9.4
		V66.898z"/>
	<path fill="#FA6B3A" d="M94.3,66.898h-2.687V52.123c0-5.184-4.218-9.4-9.401-9.4v-2.686c6.666,0,12.088,5.422,12.088,12.086V66.898
		z"/>
	<polygon fill="#FA6B3A" points="113.104,107.191 97.054,107.191 98.329,104.506 110.417,104.506 110.417,83.016 92.957,83.016 
		92.957,80.33 113.104,80.33 	"/>
	<polygon fill="#FA6B3A" points="43.196,107.191 27.146,107.191 27.146,80.33 47.292,80.33 47.292,83.016 29.831,83.016 
		29.831,104.506 41.92,104.506 	"/>
	<g>
		<path fill="#009EE0" d="M92.957,107.191H47.292c-0.743,0-1.344-0.602-1.344-1.344V77.643c0-2.961,2.409-5.371,5.373-5.371h37.606
			c2.963,0,5.372,2.41,5.372,5.371v28.205C94.3,106.59,93.699,107.191,92.957,107.191z M48.635,104.506h42.979V77.643
			c0-1.482-1.205-2.686-2.686-2.686H51.321c-1.481,0-2.687,1.203-2.687,2.686V104.506z"/>
	</g>
	<g>
		<path fill="#009EE0" d="M94.158,106.449l-2.402-1.201l3.888-7.775v-6.4h-2.687v-2.686h4.029c0.742,0,1.343,0.602,1.343,1.344
			v8.059c0,0.209-0.048,0.416-0.142,0.602L94.158,106.449z"/>
	</g>
	<g>
		<path fill="#009EE0" d="M46.09,106.449l-4.029-8.059c-0.093-0.186-0.141-0.393-0.141-0.602V89.73c0-0.742,0.601-1.344,1.342-1.344
			h4.03v2.686h-2.687v6.4l3.888,7.775L46.09,106.449z"/>
	</g>
	<path fill="#FA6B3A" d="M70.125,95.104c-2.964,0-5.373-2.41-5.373-5.373c0-2.961,2.409-5.373,5.373-5.373
		c2.962,0,5.371,2.412,5.371,5.373C75.496,92.693,73.087,95.104,70.125,95.104z M70.125,87.045c-1.481,0-2.687,1.205-2.687,2.686
		c0,1.482,1.205,2.688,2.687,2.688c1.48,0,2.686-1.205,2.686-2.688C72.811,88.25,71.605,87.045,70.125,87.045z"/>
	<g>
		<path fill="#ED4F3E" d="M79.526,61.525"/>
	</g>
	<g>
		<path fill="#FA6B3A" d="M41.92,81.672h-2.687v-2.686c0-10.758,5.97-13.027,12.292-15.43c2.34-0.889,4.761-1.811,7.188-3.197
			l1.333,2.334c-2.609,1.49-5.242,2.49-7.565,3.373c-6.359,2.416-10.561,4.014-10.561,12.92V81.672z"/>
	</g>
	<g>
		<path fill="#FA6B3A" d="M101.016,81.672h-2.687v-4.029c0-8.463-3.667-9.625-9.742-11.553c-2.564-0.811-5.47-1.734-8.384-3.396
			l1.332-2.334c2.666,1.523,5.308,2.359,7.863,3.172c5.975,1.893,11.617,3.684,11.617,14.111V81.672z"/>
	</g>
	<g>
		<path fill="#FA6B3A" d="M75.762,68.533l-5.637-2.82l-5.638,2.82l-6.836-6.836l3.777-5.668l8.696,1.449l8.694-1.449l3.778,5.668
			L75.762,68.533z M70.125,62.709l5.106,2.555l3.909-3.908l-1.594-2.391l-7.422,1.236l-7.423-1.236l-1.594,2.391l3.908,3.908
			L70.125,62.709z"/>
	</g>
	<g>
		<g>
			<path fill="#FA6B3A" d="M70.125,54.811c-0.178,0-4.38-0.018-7.317-1.486l-0.144-0.082c-0.185-0.125-4.545-3.133-5.958-13.016
				l-0.013-0.189v-5.373h2.687v5.275c1.156,7.949,4.298,10.693,4.726,11.031c2.368,1.135,5.983,1.152,6.021,1.152
				c0.033,0,3.648-0.018,6.015-1.152c0.419-0.336,3.573-3.094,4.729-11.031v-5.275h2.687l-0.014,5.562
				c-1.412,9.883-5.772,12.891-5.957,13.016l-0.145,0.082C74.504,54.793,70.302,54.811,70.125,54.811z"/>
		</g>
		<g>
			<path fill="#FA6B3A" d="M83.556,34.664h-2.687c0-7.432-3.314-10.746-10.744-10.746c-7.431,0-10.745,3.314-10.745,10.746h-2.687
				c0-8.912,4.519-13.43,13.432-13.43C79.036,21.234,83.556,25.752,83.556,34.664z"/>
		</g>
		<g>
			<polygon fill="#FA6B3A" points="76.901,38.82 63.471,33.449 58.638,35.865 57.437,33.463 63.348,30.506 76.778,35.879 
				81.611,33.463 82.812,35.865 			"/>
		</g>
	</g>
</g>
</svg>
