<?xml version="1.0" encoding="utf-8"?>
<!-- Generator: Adobe Illustrator 16.0.0, SVG Export Plug-In . SVG Version: 6.00 Build 0)  -->
<!DOCTYPE svg PUBLIC "-//W3C//DTD SVG 1.1//EN" "http://www.w3.org/Graphics/SVG/1.1/DTD/svg11.dtd">
<svg version="1.1" id="Слой_1" xmlns="http://www.w3.org/2000/svg" xmlns:xlink="http://www.w3.org/1999/xlink" x="0px" y="0px"
	 width="45px" height="38px" viewBox="0 0 45 38" enable-background="new 0 0 45 38" xml:space="preserve">
<g>
	<path fill="none" stroke="#4984CA" stroke-width="2" stroke-miterlimit="10" d="M20.47,11.101c4.398,0,7.965,3.566,7.965,7.965
		s-3.566,7.964-7.965,7.964"/>
	<polyline fill="none" stroke="#4984CA" stroke-width="2" stroke-miterlimit="10" points="22.265,14.291 19.188,11.213 
		22.265,8.136 	"/>
	<path fill="none" stroke="#4984CA" stroke-width="2" stroke-miterlimit="10" d="M17.234,26.899c-4.4,0-7.967-3.564-7.967-7.963
		s3.567-7.965,7.967-7.965"/>
	<polyline fill="none" stroke="#4984CA" stroke-width="2" stroke-miterlimit="10" points="15.438,23.711 18.516,26.788 
		15.438,29.864 	"/>
</g>
<g>
	<path fill="none" stroke="#4984CA" stroke-width="2" stroke-miterlimit="10" d="M0.775,16.353l0,4.944l2.307,0.496
		c0.141,0.836,0.349,1.65,0.617,2.438l-1.637,1.477l2.473,4.281l2.052-0.662c0.577,0.684,1.21,1.318,1.896,1.896l-0.628,1.941
		l4.282,2.473l1.4-1.551c0.849,0.293,1.731,0.518,2.639,0.662l0.424,1.977h4.946l0.458-2.131c0.861-0.186,1.696-0.441,2.502-0.76"/>
	<path fill="none" stroke="#4984CA" stroke-width="2" stroke-miterlimit="10" d="M21.149,0.566h-4.946l-0.494,2.307
		c-0.836,0.143-1.65,0.35-2.438,0.618l-1.478-1.637L7.512,4.327l0.663,2.051C7.491,6.955,6.857,7.589,6.28,8.273L4.337,7.646
		l-2.472,4.281l1.549,1.4c-0.292,0.849-0.515,1.73-0.66,2.639l-1.979,0.386l0,4.944"/>
	<path fill="none" stroke="#4984CA" stroke-width="2" stroke-miterlimit="10" d="M36.879,20.941v-4.946l-2.306-0.495
		c-0.141-0.837-0.35-1.649-0.618-2.436l1.638-1.479l-2.474-4.282l-2.051,0.663c-0.577-0.683-1.212-1.316-1.896-1.893L29.8,4.129
		l-4.281-2.472l-1.4,1.55c-0.849-0.292-1.73-0.515-2.639-0.661l-0.422-1.979l-4.949,0L15.652,2.7
		c-0.863,0.185-1.698,0.441-2.502,0.759"/>
	<path fill="none" stroke="#4984CA" stroke-width="2" stroke-miterlimit="10" d="M16.504,36.725h4.946l0.494-2.303
		c0.838-0.145,1.651-0.354,2.438-0.619l1.479,1.639l4.281-2.475l-0.663-2.051c0.685-0.578,1.317-1.211,1.895-1.896l1.943,0.629
		l2.473-4.285l-1.549-1.398c0.291-0.848,0.515-1.729,0.659-2.639l1.979-0.385v-4.946"/>
</g>
</svg>
