<?xml version="1.0" encoding="utf-8"?>
<!-- Generator: Adobe Illustrator 16.0.0, SVG Export Plug-In . SVG Version: 6.00 Build 0)  -->
<!DOCTYPE svg PUBLIC "-//W3C//DTD SVG 1.1//EN" "http://www.w3.org/Graphics/SVG/1.1/DTD/svg11.dtd">
<svg version="1.1" id="Слой_1" xmlns="http://www.w3.org/2000/svg" xmlns:xlink="http://www.w3.org/1999/xlink" x="0px" y="0px"
	 width="45px" height="38px" viewBox="0 0 45 38" enable-background="new 0 0 45 38" xml:space="preserve">
<g>
	<g>
		<path fill="#4984CA" d="M25.103,37.984L25.103,37.984l-4.964-0.001c-0.472,0-0.879-0.329-0.978-0.79l-0.285-1.332
			c-0.505-0.103-1.008-0.229-1.503-0.377L16.4,36.56c-0.316,0.352-0.833,0.432-1.242,0.196l-4.299-2.481
			c-0.408-0.236-0.597-0.725-0.452-1.174l0.429-1.326c-0.372-0.34-0.728-0.696-1.067-1.066l-1.435,0.464
			c-0.448,0.146-0.938-0.042-1.174-0.451l-2.482-4.299c-0.235-0.408-0.154-0.926,0.196-1.242l1.166-1.053
			c-0.127-0.428-0.237-0.86-0.33-1.297l-1.667-0.357c-0.461-0.099-0.791-0.506-0.791-0.978l0-4.965h2l0,4.157l1.525,0.327
			c0.4,0.086,0.708,0.406,0.776,0.811c0.132,0.776,0.327,1.546,0.581,2.289c0.129,0.378,0.021,0.797-0.276,1.065l-1.044,0.943
			l1.674,2.898l1.291-0.417c0.385-0.126,0.811-0.005,1.072,0.307c0.539,0.639,1.139,1.238,1.783,1.781
			c0.311,0.262,0.433,0.686,0.308,1.072l-0.382,1.183l2.898,1.673l0.863-0.955c0.27-0.298,0.689-0.407,1.068-0.275
			c0.809,0.278,1.643,0.487,2.481,0.621c0.408,0.064,0.733,0.374,0.82,0.777l0.256,1.196l3.348,0.001l0.29-1.352
			c0.082-0.385,0.383-0.686,0.768-0.768c0.788-0.169,1.58-0.41,2.354-0.715l0.734,1.859c-0.668,0.265-1.35,0.485-2.033,0.661
			l-0.327,1.523C25.981,37.655,25.574,37.984,25.103,37.984z"/>
	</g>
	<g>
		<path fill="#4984CA" d="M5.252,21.495h-2l0-4.965c0-0.479,0.339-0.89,0.808-0.981l1.317-0.257
			c0.102-0.499,0.227-0.997,0.375-1.489l-1.076-0.973c-0.35-0.316-0.431-0.833-0.196-1.242l2.481-4.298
			C7.199,6.88,7.687,6.693,8.136,6.837l1.326,0.428c0.34-0.372,0.696-0.729,1.066-1.067l-0.464-1.435
			c-0.145-0.449,0.043-0.938,0.452-1.173l4.299-2.483c0.408-0.237,0.926-0.155,1.242,0.195l1.053,1.166
			c0.428-0.127,0.862-0.237,1.298-0.33l0.357-1.667c0.099-0.461,0.506-0.791,0.978-0.791h4.964v2h-4.155l-0.327,1.524
			c-0.086,0.4-0.407,0.708-0.811,0.776c-0.775,0.131-1.546,0.327-2.292,0.581c-0.377,0.128-0.797,0.02-1.064-0.276l-0.942-1.043
			l-2.898,1.674l0.417,1.29c0.125,0.386,0.004,0.81-0.306,1.071c-0.639,0.54-1.239,1.141-1.783,1.785
			c-0.262,0.311-0.684,0.432-1.071,0.307L8.291,8.989l-1.673,2.898l0.955,0.863c0.297,0.268,0.405,0.688,0.275,1.066
			c-0.279,0.814-0.488,1.648-0.62,2.481c-0.066,0.415-0.384,0.744-0.796,0.824l-1.179,0.23L5.252,21.495z"/>
	</g>
	<g>
		<path fill="#4984CA" d="M41.497,21.136h-2v-4.156l-1.524-0.327c-0.4-0.085-0.707-0.407-0.776-0.81
			c-0.131-0.773-0.326-1.544-0.581-2.291c-0.129-0.378-0.021-0.797,0.276-1.065l1.044-0.943l-1.674-2.898l-1.291,0.417
			c-0.388,0.127-0.81,0.003-1.071-0.306c-0.538-0.637-1.139-1.237-1.784-1.784c-0.31-0.262-0.431-0.684-0.307-1.07L32.19,4.72
			l-2.899-1.673l-0.862,0.955c-0.269,0.296-0.687,0.407-1.067,0.275c-0.808-0.278-1.644-0.487-2.483-0.621
			c-0.407-0.065-0.733-0.375-0.819-0.779l-0.256-1.195l-3.347,0l-0.289,1.351c-0.083,0.385-0.384,0.686-0.769,0.769
			c-0.791,0.169-1.583,0.409-2.353,0.714l-0.735-1.86c0.667-0.264,1.349-0.485,2.034-0.66l0.326-1.522
			c0.099-0.461,0.506-0.791,0.978-0.791l0,0l4.965,0c0.472,0,0.88,0.33,0.978,0.792l0.284,1.331
			c0.506,0.103,1.008,0.229,1.503,0.377l0.972-1.076c0.317-0.35,0.835-0.431,1.242-0.196l4.299,2.481
			c0.408,0.236,0.597,0.724,0.452,1.173l-0.428,1.328c0.371,0.34,0.728,0.697,1.065,1.065l1.437-0.464
			c0.447-0.145,0.938,0.043,1.174,0.452l2.482,4.299c0.235,0.408,0.154,0.926-0.196,1.242l-1.166,1.053
			c0.127,0.428,0.237,0.861,0.33,1.297l1.667,0.358c0.461,0.099,0.79,0.506,0.79,0.978V21.136z"/>
	</g>
	<g>
		<path fill="#4984CA" d="M25.007,37.984h-4.963v-2h4.155l0.328-1.525c0.086-0.4,0.407-0.707,0.81-0.776
			c0.777-0.132,1.548-0.327,2.29-0.58c0.38-0.128,0.799-0.021,1.065,0.276l0.942,1.044l2.899-1.676l-0.417-1.29
			c-0.124-0.386-0.003-0.809,0.307-1.07c0.638-0.539,1.237-1.14,1.782-1.785c0.262-0.31,0.685-0.432,1.071-0.306l1.182,0.381
			l1.674-2.899l-0.955-0.864c-0.296-0.268-0.404-0.687-0.275-1.064c0.281-0.824,0.49-1.659,0.621-2.48
			c0.065-0.415,0.383-0.744,0.795-0.825l1.179-0.23v-4.141h2v4.964c0,0.479-0.339,0.89-0.808,0.981l-1.316,0.258
			c-0.102,0.496-0.227,0.993-0.375,1.488l1.076,0.974c0.35,0.315,0.431,0.833,0.195,1.241l-2.482,4.299
			c-0.236,0.409-0.726,0.597-1.174,0.451L35.287,30.4c-0.34,0.371-0.695,0.728-1.064,1.066l0.463,1.436
			c0.145,0.448-0.044,0.937-0.452,1.173l-4.299,2.484c-0.406,0.233-0.925,0.154-1.242-0.196l-1.053-1.166
			c-0.427,0.127-0.859,0.236-1.297,0.329l-0.358,1.668C25.886,37.655,25.479,37.984,25.007,37.984z"/>
	</g>
</g>
<g>
	<path fill="#4984CA" d="M22.375,27.856c-4.976,0-9.024-4.048-9.024-9.024c0-4.976,4.048-9.023,9.024-9.023
		c4.977,0,9.024,4.048,9.024,9.023C31.399,23.809,27.352,27.856,22.375,27.856z M22.375,11.809c-3.873,0-7.024,3.151-7.024,7.023
		s3.151,7.024,7.024,7.024s7.024-3.151,7.024-7.024S26.248,11.809,22.375,11.809z"/>
</g>
</svg>
