<?xml version="1.0" encoding="utf-8"?>
<!-- Generator: Adobe Illustrator 16.0.0, SVG Export Plug-In . SVG Version: 6.00 Build 0)  -->
<!DOCTYPE svg PUBLIC "-//W3C//DTD SVG 1.1 Basic//EN" "http://www.w3.org/Graphics/SVG/1.1/DTD/svg11-basic.dtd">
<svg version="1.1" baseProfile="basic" id="Слой_1"
	 xmlns="http://www.w3.org/2000/svg" xmlns:xlink="http://www.w3.org/1999/xlink" x="0px" y="0px" width="22px" height="22px"
	 viewBox="0 0 22 22" xml:space="preserve">
<path fill="#4984CA" d="M11,1.858c2.879,0,3.51,3.548,3.51,4.916c0,2.461-2.034,5.851-3.51,5.851c-1.476,0-3.51-3.39-3.51-5.851
	C7.49,5.407,8.121,1.858,11,1.858 M11-0.142c-3.875,0-5.51,3.873-5.51,6.916c0,3.043,2.466,7.851,5.51,7.851
	c3.043,0,5.51-4.808,5.51-7.851C16.51,3.731,14.875-0.142,11-0.142L11-0.142z"/>
<g>
	<path fill="#4984CA" d="M122.5-12.25v28h-41v-28H122.5 M124.5-14.25h-45v32h45V-14.25L124.5-14.25z"/>
</g>
<path fill="#4984CA" d="M20.137,14.523l-5.584-2.179c-0.45,0.621-0.962,1.156-1.518,1.554l6.373,2.487
	C19.668,16.487,20,16.973,20,17.251V20H2v-2.749c0-0.274,0.327-0.749,0.583-0.847l6.443-2.466c-0.566-0.392-1.089-0.924-1.548-1.549
	l-5.61,2.146C0.84,14.93,0,16.151,0,17.251V20c0,1.1,0.9,2,2,2h18c1.1,0,2-0.9,2-2v-2.749C22,16.151,21.161,14.924,20.137,14.523z"
	/>
</svg>
