<svg id="Слой_1" xmlns="http://www.w3.org/2000/svg" viewBox="0 0 510.4 510.4"><style>.st0{fill:#e34b34}</style><path class="st0" d="M86 115.6c44.1-62 114.6-105.3 190.6-113.3 1.4 7.4 1.6 15 1.6 22.5.4 49.2 1.6 98.5 2.3 147.7-.2 17.9 1 35.9 0 53.8-64.9-35.9-129.6-72.1-194.5-108v-2.7zM290.3 179.1c1.6-43.9 1.4-88 3.1-131.9 73.4 8 142 48.6 186.1 107.6 1.9 2.7 3.7 5.6 5.4 8.5-61.4 34.4-123.4 67.8-184.8 101.8-3.5 1.9-7.4 3.5-11.3 4.7-.2-30 1.2-60.4 1.5-90.7zM42 114.8c2.9.4 5.8 1.4 8.4 2.7 64.1 32.1 128 64.1 192.2 96.2-3.5 5.6-9.9 8.2-15.2 11.9-47.6 31.3-95.2 62.8-142.8 94.2-9.7 5.8-18.7 13.2-28.8 18.3-17.1-34-28-71.1-30.1-109.2-.8-22.7-.6-45.5 3.9-67.8 2.9-15.8 8.2-30.9 12.4-46.3zM29.2 378.9c59.6-43.5 119.3-87.2 179.1-130.6 6 45.9 9.9 92.1 15.3 138.1 2.5 28.2 6.6 56.3 8.7 84.7-76.4 1.2-152.7-32.1-203.6-89 .1-.9.3-2.5.5-3.2zM220.4 286.8c69.8 26.6 138.7 54.6 208.3 81.6-16.1 33.6-41.2 62.4-69.4 86.3-30.9 25.3-67.2 44.5-106.3 53.4-10.1-66.4-20-133.1-30.1-199.5-1.1-7.3-2.1-14.4-2.5-21.8z"/></svg>