<svg id="Слой_1" xmlns="http://www.w3.org/2000/svg" viewBox="0 0 510.4 510.4"><style>.st0{fill:#008fd5}</style><g id="XMLID_142_"><path id="XMLID_141_" class="st0" d="M131.3 340.4c11.8 17.1 27 31.4 44.6 42.4-23.5-2.1-45.1-10.6-63.2-23.8l18.6-18.6z"/><path id="XMLID_140_" class="st0" d="M104.6 260.9c.5 14 3 27.4 7.1 40.1l-17.8 17.8H76.4c-9.8-17.2-15.8-37-16.6-58.1h44.7c.1.1.1.2.1.2z"/><path id="XMLID_139_" class="st0" d="M118.6 191.2c-8.3 17.7-13.2 37.4-13.8 58.1H60c1-21.1 7.2-40.9 17.3-58.1h41.3z"/><path id="XMLID_138_" class="st0" d="M171.9 129.1c-19.4 12.9-35.6 30.3-47.2 50.4H85.1c20.3-27.1 51.3-46 86.8-50.4"/><path id="XMLID_137_" class="st0" d="M137.6 179.7c10.9-16.9 25.3-31.4 42.3-42.4v42.4h-42.3z"/><path id="XMLID_136_" class="st0" d="M115.9 249.3c.8-20.8 6.2-40.5 15.1-58.1h49v43.6h-2.1l-14.5 14.5h-47.5z"/><path id="XMLID_135_" class="st0" d="M179.9 291.8v27h-27.1z"/><path id="XMLID_134_" class="st0" d="M120.8 291.9c-2.7-10-4.4-20.4-4.9-31.2h35.9l-31 31.2z"/><path id="XMLID_133_" class="st0" d="M179.9 372.2c-16.2-10.3-30-23.9-40.6-39.8l1.9-1.9h38.7v41.7z"/><path id="XMLID_132_" class="st0" d="M311 129.1c-7.4 4.9-14.2 10.5-20.7 16.6-3.2-3.1-6.7-5.9-10.2-8.8 9.8-3.8 20.2-6.4 30.9-7.8"/><path id="XMLID_131_" class="st0" d="M298.2 153.7c6.5-6.1 13.4-11.6 20.8-16.4v42.4h-1.6c-5.4-9.5-11.8-18.1-19.2-26"/><path id="XMLID_130_" class="st0" d="M291.5 364.9c7.2 6.7 15.1 12.8 23.5 18-12.2-1.2-23.9-3.9-34.9-8.1 4-3.2 7.8-6.5 11.4-9.9"/><path id="XMLID_129_" class="st0" d="M319.1 372.2c-7.1-4.5-13.7-9.7-19.8-15.4 7.2-8 13.7-16.9 19.1-26.4h.6v41.8z"/><path id="XMLID_128_" class="st0" d="M386.1 330.5c-12.5 21.5-30.3 39.7-51.3 52.8 39.2-2.5 73.7-22.8 95.3-52.8h-44z"/><path id="XMLID_127_" class="st0" d="M406.4 260.9c-.8 20.7-5.8 40.2-14.1 58.1h45.3c9.8-17.2 15.8-37 16.6-58.1h-47.8z"/><path id="XMLID_126_" class="st0" d="M400 210.6c3.8 12.3 5.9 25.2 6.5 38.7H454c-1-21.1-7.2-40.9-17.3-58.1h-17.5L400 210.6z"/><path id="XMLID_112_" class="st0" d="M338.7 128.9c16.7 11 31 25.2 42.2 41.8l19.1-19.1c-17.7-12.7-38.7-20.7-61.3-22.7"/><path id="XMLID_111_" class="st0" d="M372.8 178.6c-10.9-16.7-25.2-30.9-42-41.6v42.7h41.1l.9-1.1z"/><path id="XMLID_110_" class="st0" d="M360.3 191.2h-29.5v17.7c1 3 1.9 6.1 2.7 9.2l26.8-26.9z"/><path id="XMLID_109_" class="st0" d="M395.2 249.3c-.4-10.2-1.9-20-4.4-29.6l-29.5 29.6h33.9z"/><path id="XMLID_108_" class="st0" d="M379.8 318.8c9.1-17.5 14.5-37.1 15.4-58.1h-45.4L339.6 271l-2.5 2.5c-1.2 10.1-3.4 19.8-6.5 29.2v16h49.1v.1z"/><path id="XMLID_107_" class="st0" d="M330.8 372.5c16.9-10.9 31.4-25.2 42.3-42h-42.3v42z"/><path id="XMLID_106_" class="st0" d="M247 330.5c-12.5 21.5-30.3 39.7-51.3 52.8 22.5-1.4 43.4-8.7 61.3-20.3v-.3l.1.1c13.2-8.7 24.7-19.5 33.9-32.3h-44z"/><path id="XMLID_105_" class="st0" d="M265.7 276.5c-2.2 14.9-6.5 29.1-12.7 42.3h45.3c7.4-12.8 12.4-27.2 15-42.3h-47.6z"/><path id="XMLID_104_" class="st0" d="M253.3 191.2c6.3 13.6 10.6 28.2 12.7 43.6h47.3c-2.6-15.6-8-30.4-15.8-43.6h-44.2z"/><path id="XMLID_103_" class="st0" d="M254.7 234.8c-2.2-15.5-7-30.1-13.8-43.6h-49.3v43.6h63.1z"/><path id="XMLID_102_" class="st0" d="M240.5 318.8c6.7-13.1 11.5-27.3 13.8-42.3h-59.2l-3.6 3.6v38.7h49z"/><path id="XMLID_101_" class="st0" d="M191.5 372.5c16.9-10.9 31.4-25.2 42.3-42h-42.3v42z"/><path id="XMLID_100_" class="st0" d="M234.2 179.7h-42.7V137c17.2 11 31.7 25.5 42.7 42.7"/><path id="XMLID_99_" class="st0" d="M199.4 128.7c21.1 1.9 40.6 9.1 57.4 20v.3l.1-.1c12.7 8.3 23.7 18.6 32.7 30.8h-42.4c-11.7-20.6-28.1-37.9-47.8-51"/><path id="XMLID_98_" class="st0" d="M470.3 140c25.1 31.7 40.1 71.6 40.1 115.2 0 102.5-83.1 185.6-185.6 185.6-24.6 0-48.1-4.8-69.6-13.6-21.5 8.7-45 13.6-69.6 13.6-43.3 0-83.3-14.9-114.8-39.8L96 375.8c25.3 19.4 57 30.9 91.4 30.9 25.1 0 48.8-6.1 69.6-16.9 20.8 10.9 44.5 16.9 69.6 16.9 83.3 0 150.8-67.5 150.8-150.8 0-34.5-11.6-66.3-31.2-91.7l24.1-24.2z"/><path id="XMLID_97_" class="st0" d="M324.8 69.6c44 0 84.3 15.3 116 40.7l-24.3 24.4c-25.1-18.8-56.3-29.7-89.9-29.7-25.1 0-48.8 6.2-69.6 16.9-20.8-10.9-44.5-16.9-69.6-16.9-83.4 0-150.9 67.5-150.9 150.8 0 33.9 11.1 65 30 90.3L41 371.7C15.4 339.8 0 299.3 0 255.2 0 152.8 83.1 69.6 185.6 69.6c24.6 0 48.1 4.8 69.6 13.6 21.5-8.8 44.9-13.6 69.6-13.6"/></g></svg>