<svg id="Слой_1" xmlns="http://www.w3.org/2000/svg" viewBox="0 0 510.4 510.4"><style>.st0{fill:#002d33}</style><path class="st0" d="M14.7 372.2h481v5.8h-481zM63.3 353.1c3.2 9 11.5 16 21.7 16 3.8 0 7-.6 10.2-2.6-3.2-3.8-5.1-8.3-5.8-13.4H63.3zM115.1 369.7c10.2 0 18.5-7 20.5-16.6H94.7c1.2 9.6 10.2 16.6 20.4 16.6zM484.2 311.5v-35.8c0-1.9-1.3-3.2-3.2-3.2h-23v6.4h19.8v32H32.6v-32h19.8v-6.4h-23c-1.9 0-3.2 1.3-3.2 3.2V323h-14v15.4h17.3c2.6 5.8 8.3 9.6 17.9 9.6h415.7c9.6 0 15.4-3.8 17.9-9.6h17.3V323h-14.7c.6-3.2.6-7 .6-11.5zM447.1 353.1h-26.2c-.6 5.1-2.6 9.6-5.8 13.4 3.2 1.3 6.4 2.6 10.2 2.6 10.3-.1 18.6-7.1 21.8-16zM395.3 369.7c10.2 0 18.5-7 20.5-16.6h-40.9c1.8 9.6 10.1 16.6 20.4 16.6zM503.4 319.8h7v22.4h-7zM0 319.8h7v22.4H0z"/><path class="st0" d="M394.6 156.1h-101v-12.2H277v-3.2h-21.1v-5.1h9.6c1.3 0 1.9-.6 1.9-1.9 0-1.3-.6-1.3-1.9-1.3H245c-.6 0-1.9.6-1.9 1.9 0 1.3.6 1.9 1.9 1.9h9.6v5.1h-19.2v3.2h-16.6v12.2H117.7c-31.3 0-56.9 33.3-56.9 74.2s25.6 74.2 56.9 74.2h276.9c31.3 0 56.9-33.3 56.9-74.2.1-41.6-25.5-74.8-56.9-74.8zm-154.8 32.6c6.4-4.5 16.6-7 26.2-8.3 3.8-.6 7-.6 10.2-.6 11.5.6 15.4 1.9 18.5 1.9s8.3 0 12.8-1.9v37.1c-3.2-2.6-7-3.8-9.6-4.5-4.5-1.3-7.7-1.9-12.8-1.9-5.1 0-11.5.6-14.7 2.6 14.1 6.4 24.9 12.2 37.1 18.5v7c-13.4-7-27.5-14.1-42.2-21.1-13.4-6.4-27.5-11.5-42.2-17.3 5.2-3.8 11-9 16.7-11.5zm-45.4 2.5c6.4 1.9 12.8 3.8 19.2 5.8 3.2 1.3 6.4 1.9 10.2 3.2-1.3 1.9-3.2 3.8-4.5 5.8-1.9-.6-3.8-1.3-5.8-1.9-6.4-1.9-12.8-4.5-19.2-5.8.1 0 .1-7.1.1-7.1zm0 14.8c6.4 1.9 12.8 3.8 19.2 5.8.6.6 1.9.6 2.6.6.6-1.9 1.9-3.8 3.2-5.8 16 5.8 31.3 12.2 46.1 18.5 14.7 6.4 28.8 13.4 42.2 21.1v7c-13.4-7-27.5-14.1-42.2-21.1-16-7-32-14.1-49.2-19.8-.6 1.9-1.3 4.5-1.9 6.4h-.6c-6.4-1.9-12.8-3.8-19.2-5.8-.2.1-.2-6.9-.2-6.9zm-83.1 76.7l-16-16 16-16 16 16-16 16zm102.3-50.5v.6c-6.4-1.9-12.8-3.8-19.2-5.8v-7c6.4 1.9 12.8 3.8 19.2 5.8v-1.3c0-1.9.6-3.8.6-5.8 17.9 5.8 34.5 12.8 51.2 20.5 14.7 6.4 28.8 13.4 42.2 21.1v7c-13.4-7-27.5-14.1-42.2-21.1-16.6-7.7-33.9-14.7-51.8-20.5v6.5zm94.7 45.4c-3.2-.6-7-1.3-11.5-1.3-1.9 0-3.8 0-6.4.6-3.2.6-5.1.6-7 .6-5.8 0-11.5-.6-17.3-1.3-9-1.3-17.9-3.8-26.2-8.3-13.4-7-24.3-18.5-25.6-34.5 17.9 6.4 35.2 12.8 51.8 20.5 14.7 6.4 28.8 13.4 42.2 21.1v2.6z"/></svg>