<svg id="Слой_1" xmlns="http://www.w3.org/2000/svg" viewBox="0 0 1763 1842"><style>.st0{fill:#686868}</style><g id="_x23_0f7dbfff"><path class="st0" d="M616.3 3.4c5.5-1.2 11-3 16.7-2.5 5.7-.2 11.5.7 17.1-.8 1.8.4 3.5 1.2 5.4 1.5 21.9 3.2 42.8 11.1 63.7 18 18.6 2.1 37.1 4.4 55.8 4.7 17 .5 34.3-2.1 49.7-9.6 3.3-1.5 6.3-3.4 9.5-5 .1 1.8 0 3.6-.4 5.4-2.1 11-4 22-6.1 33 3.4 4.3 8.9 6.1 14.2 6.1 7.7.5 15.4-.7 22.9-2.1.3 6.8-1.8 14.3-7.2 18.8-3.8 3.6-9 4.9-14 5.7 2.5 1.6 5.5 1.6 8.3 2.3 6.1 1.4 12.3 2.4 18.3 4-3.2 7.1-6.8 14.3-12.3 19.9-9.8 10.4-24.2 14-36.8 19.8 2.7 8.1 6.9 15.6 12 22.4 11.6 14.4 27.4 25 44 32.8 1.2.5 2.3 1.4 3.2 2.3-10.4 2.7-21.1 4.3-31.6 6.9 7.8 8.2 16 16.4 21.7 26.4 5.5 10.4 8.5 22 10.9 33.5 2.7-10.2 4.7-20.7 9.5-30.2 5.4-11.6 14.6-20.7 23.5-29.7-10-2.4-20.2-4.4-30.2-6.4-.3-.3-1-.9-1.3-1.2 16.9-8 33.4-17.9 45.4-32.5 5.8-7.3 11.2-15.5 13.4-24.7-3.7-1.1-7.1-2.8-10.7-4.2-7.4-3.1-15-6-21.4-11-7.7-6.4-12.8-15.2-16.9-24.2 9.1-2.5 18.5-3.5 27.5-6.3-5.5-.6-11.3-2.1-15.3-6.2-5-4.7-6.9-11.8-6.7-18.4 9.1 1.9 18.5 3.1 27.7 1.7 3.5-.9 7.4-2.4 9.2-5.7-1.6-12.8-5.2-25.4-6.3-38.2 14.3 8.6 30.7 13.7 47.4 14.4 22.1 1.1 44.1-2 66.1-4.3 19.4-6.2 38.7-13.1 58.8-17.1 4-.9 8.3-.9 12-2.7 8.1 2.4 16.9-.2 25.2 1.5 21.4 3.4 40 15.5 56.4 29 4.7 3.6 8.8 8 13.5 11.6 11.6-.1 23.2-1.5 34.8-1.1 12.9.6 26.3 1.9 38 7.9 12.6 6.2 21.8 17.4 28.5 29.4 4.4 7.7 7.8 16 11.1 24.2-13.2-.7-26.3-2.6-39.5-1.7-9.8.3-19.3 2.9-28.3 6.6 6.1 4.6 11.9 9.5 18.6 13.2 17.8 10.2 39.7 14.8 59.6 8.3 11.5-3.4 21.4-10.4 30.2-18.5.3 10.5-1.4 21.5-7.2 30.6-6.4 9.5-17.5 15-28.8 16-19.7 1.8-39.1-3.4-57.6-9.5-14.1-5-28-10.8-41.4-17.4 8.1 11.5 15.7 23.4 23.5 35.1-23.4-3.7-47.3-6.6-69.5-15.5-7.3-2.7-14.3-6.2-21.1-9.8-12.1 4.2-23.4 10.6-33.3 18.8-8.9 7-16 15.9-24.6 23.3-9.2 8.8-19.7 16.4-31.6 21.3-1.7.6-1.7 2.5-2.2 3.9-3.2 13.8-5.9 28.6-2 42.5 2.1 7.8 7.8 14.3 14.9 18-2.1 1.5-4.8 1.7-7.3 2.4-6.1 1.6-12.2 3.1-18.2 4.9-1 7.8-.5 15.7-1.5 23.4-.5 11.5-1.2 23-1.8 34.5-1 4.2 1.2 8.1 2.5 12 8.5 23.5 17.1 47 29.1 68.9 8.6 15.6 19 31.2 34.5 40.5 11 6.9 24.8 8.8 37.4 6.4 20.3-3.7 38.5-14.1 55.9-24.7 14.6-9.1 28.4-19.3 42.2-29.5-7.2-22.6-13.9-45.4-18.4-68.6-4.2-22.7-6.7-46.1-3.1-69.1 3-19 10.9-37.7 24.8-51.1 13.5-13.7 31.2-22.4 49.5-27.8 21.1-6.2 43.1-8.6 65-9.3 28.2-1.1 56.1 4.3 83.3 11.1 7.9 2.1 15.8 4 23.6 6.5 21.1 9.5 42.3 18.9 63.3 28.5 1.1.3 2.2 1.4 3.4 1.1 2.9-2.6 5.2-6.2 9.2-7.2 5.8-1.8 11.1 2.6 15.1 6.3.1 12.4-.1 24.7.1 37.1 12.6 16 26.1 31.5 37.4 48.5 9.2 13.7 16.6 28.7 21.7 44.4 5.3 16 8.9 32.5 11.9 49 8.8-2.2 18 .9 25.4 5.7 2.4 1.7 5.2 3 6.8 5.5-5.4 1.5-11.8 1.2-16.2 5.2-1.4 3.9 2.5 6.5 3.6 9.9 7.1 18.1 12.9 36.8 17 55.8 6.1 28.7 8.3 58 9.6 87.2.9 9 .4 18 1.5 27 5.5-1.7 11.8-2.6 17.2-.1 5.2 2.5 8.4 7.8 10 13.2-5.6-.5-11.2-2.9-16.9-1.5-4.2.8-7.8 4.9-7.1 9.3 1.1 16 .9 32 1.9 48-.1 11 .8 22 1.1 33-.1 11.7 1.2 23.4 1 35.1.3 10 1.1 20 1 30 .3 9.9 1.1 19.9 1 29.8 5.3-.1 10.7 1.8 14.3 5.7 4.3 4.4 8.4 9 12.2 13.8-8.4-2.4-18.6-4.9-26.2 1-1.1 35.9 3.2 71.7 2.3 107.5 1.8 22.6 3.6 45.2 7.9 67.4 3.8 19 11.1 37.2 21.7 53.4 9.8 15.8 21.6 30.2 33.2 44.6-20.5-1.8-41.3-5.6-59.6-15.4-7.5-3.9-14.9-8.1-21.9-12.8-10.8-1-21.9 1.6-32.8.2-4.8-.5-9.4-2.3-13.2-5.2-14-11.8-26.8-24.9-41.3-36.2-6.8 1.7-13.7 3.1-20.6 3.8-6.5.7-13.3-1.4-17.8-6.1-5.8-5.7-11.5-11.6-16.7-17.9-10.1 1.4-20.8 2.7-30.5-1-9-3.2-15.8-10.1-22.8-16.3-6.3-6-12.7-11.7-18.9-17.7-5.4-10.3-11.1-20.5-14.7-31.5-4.9-14.8-4.2-30.6-3.6-46-8.1-7.7-15.2-16.4-23.2-24.2-4.1-3.9-7.7-8.2-11.7-12.2-9.7-.5-19.5-2.3-28-7.2-14.2-8-24.2-21.4-32.6-35.1-6.8-11.1-12.6-22.8-19.3-34-11.9-.1-22.7-6.8-30.1-15.8-13.9-17.2-21-38.4-31.8-57.5-4.5 26-7.7 52.3-12 78.3-9.5 1-19.4 1.1-28.3-2.9-13.7-5.9-23.3-18.6-28.7-32.1-.5 19.5-.1 39.1-.2 58.6-7.5-1.9-14.8-4.6-22-7.3-9.7-3.6-18.8-9.6-24.6-18.3-6.5-9.8-8.6-21.8-8.6-33.4-7.1 17.7-14.1 35.5-21 53.3 15.6 11.4 31.5 22.5 45.1 36.2 12.9 12.8 23.6 27.7 32.4 43.5.8.8 1.1 3.1 2.7 2.4 15.6-3.2 33.4.4 44.7 12.3 4.4 4.5 7.5 10.3 7.8 16.7-6.8-3.8-13.9-7-21.6-8.6-4.5-.8-9.4-.3-13 2.7-1.9 1.8-3.4 4-5 6 .8 12.8 2.5 25.6 3.5 38.5.8 4.8.5 9.8 1.8 14.6 1.4 2.1 3.6 3.5 5.4 5.3 28.5 27.2 57.2 54.2 85.8 81.4 1.4 1.4 2.8 2.8 4.2 4.3 9.7-2.5 19.9-6.4 25.7-15 4.4-5.6 6.8-12.3 9.9-18.6 4.1-9 9.1-17.8 15.5-25.4 5.3-5.8 11.9-10.7 19.6-12.6 13.6-3.8 28.4.6 39.7 8.6 5 4.1 10.2 8.7 12.3 15 8-2.6 16.3-4.5 24.7-4.9 10.4-.2 21.4 2.7 28.9 10.2 12.1 11.5 16.8 28.4 20.2 44.2-4.9-5.3-10.1-10.8-17-13.5-3.1-1.4-6.9-1.7-9.8.3 6.7 8.2 13.7 16.3 19.8 24.9 4.4 6.2 8.2 13.3 8.1 21.1.2 13.8-4.5 27-7.5 40.3-3.3-6.8-5.3-14.2-9.4-20.6-4.1-7.1-10.9-12.8-18.8-15.1-5.6-1.8-11.5-2-17.3-2.3-4.5 9.4-10.1 18.6-18.4 25-8.2 7.1-19 10.4-29.6 11.5-27.7 2-55-5.8-82.6-5.8-3.1 9.5-6.7 18.8-9.9 28.3-3.4 9.2-6.7 19.1-14.2 26-4.8 4.7-11 7.7-17.3 9.9-8.9 3-18.2 4.8-27.4 6.6 1.4 14.7 3.4 29.3 4.8 43.9-4-2.1-6.8-5.9-10.1-8.8-9.5-8.5-18.5-17.6-26.2-27.9-4.1-5.5-6.7-12.2-7-19.1.2-8.1 4-15.6 9-21.8 10.1-13.9 25.9-22.4 35.5-36.7 5.4-8 9.3-17.8 7.4-27.5-1.2-8.4-6.1-15.8-12-21.8-7.9-8.6-18.3-14.1-27.5-21-22.1-14.8-43.8-30.2-65.8-45.1-16.1.8-32.7 8.6-48.7 2.8-6.7-2.6-12.4-7.1-17.8-11.6-10.7.3-21.7 1.9-32.2-.9-7.3-1.9-12.4-8-17.2-13.4-3.4-4.3-6.8-8.5-10.1-12.9-1.8-2.6-5.2-1.9-7.8-2.3-8.3-1.1-16.6-1.5-24.8-2.9 33.5 75.7 63.3 153.1 100.7 227 13.2 26.6 27.8 52.6 43.3 78 11.2 19 18.8 40.2 22.2 62 2 13.5 2.5 27.4-.2 40.8-1.8 9.6-5.4 19-11.5 26.7-5 5.9-11.3 11-18.6 13.6-10.8 4.2-22.7 4.2-34 2.2-13.9-2.3-27.1-7.6-39.8-13.5-8 16.5-17.2 33-31.4 45-7.7 7.1-17.5 12.3-28.1 13.6-6.8 1.1-13.8-.1-20.3-2.2-9.8-3.6-18.9-9.2-26.6-16.3-9.6-8.8-18.1-18.9-25.7-29.5-4.6 11.2-8.7 22.7-14.8 33.3-4.1 7.3-10.1 13.2-16.8 18.2-9.9 6.9-20.7 12.2-31.4 17.5-9.3-4.8-18.7-9.3-27.5-15.1-8.4-5.4-15.7-12.6-20.6-21.3-5.8-10.4-10-21.7-14.5-32.7-11 15.8-24.2 30.6-40.7 40.7-7.3 4.1-15.4 7.2-23.9 7.8-12 .9-23.6-3.9-33-11.1-15.3-12.7-26.2-29.8-34.4-47.7-18.1 8.4-37.6 15.7-57.8 14.8-11.3-.7-22.8-4.6-30.7-12.8-9.1-9-13.9-21.3-15.9-33.7-3.4-21 0-42.5 6.1-62.8 4-12.8 9.4-25.2 16.2-36.8 51.4-83.1 88-174.1 126.3-263.7 6-14 11.8-28 18.3-41.8-10.1 1.8-20.4 2.2-30.6 3.5-3.6 2.3-5.5 6.4-8.3 9.6-5.5 6.7-11 14.2-19.3 17.7-11 3.6-22.9 2-34.3 1.4-6.9 6.3-15 11.8-24.4 13.4-14.2 2-28-3.9-42.1-4.5-6.6 4-12.5 9-19.1 13-17.4 11.9-34.7 23.9-52.1 35.9-7.8 5.4-15.9 10.5-22.3 17.5-8.2 8-13.8 19.8-11.8 31.4.8 6.2 3.8 11.8 7.1 17.1 5.9 8.9 14.3 15.8 22.3 22.7 6.2 6.2 12.8 12.2 17.4 19.8 4.2 6.9 6.5 15.5 4.2 23.5-2.7 8.9-8.6 16.4-14.8 23.1-8.9 8.9-18.1 17.5-27.2 26.1.7-14.8 3.3-29.5 4.6-44.2-12.5-2.7-25.3-4.7-36.8-10.6-8.9-4.6-14.8-13.3-18.4-22.4-4.5-11.1-8.1-22.5-12.3-33.8-.8-1.4-.7-4.3-2.9-4.1-26.1.4-51.9 7.2-78.1 6.1-11.2-.5-22.6-3.8-31.6-10.6-8.8-6.7-14.6-16.4-19.6-26-9.7 0-20.1 1.4-27.9 7.7-9.3 7.7-12.6 19.7-17.5 30.2-2.9-13.7-8-27.2-7.5-41.3.2-8.5 4.9-15.9 9.8-22.5 5.8-7.6 11.6-15.1 18.1-22.1-2.5-2.4-6.2-1.9-9.2-1-7.2 2.7-12.3 8.6-17.7 13.9 2.6-13.1 6.5-26.3 14.1-37.4 5.7-8 14.3-14 23.9-16 12-2.6 24.3.2 35.8 3.8 4-9.8 13.2-16.5 22.6-20.7 11.8-5.3 26.4-6.1 37.9.7 10.5 5.8 17.1 16.2 22.6 26.5 5.1 9.1 8.2 19.3 14.4 27.6 6.2 7.8 15.8 11.9 25.3 14 6.8-7 13.9-13.7 21.1-20.3 24.6-23.7 49.7-46.9 74.3-70.5 1.6-8.5 1.7-17.1 2.8-25.7.7-9.2 2-18.3 2.4-27.4-2.7-4.4-6.5-8.5-12-8.9-9.9-.6-19 4.3-27.4 8.8.1-9.6 7.1-17.7 14.9-22.5 11.2-7.6 25.5-9 38.5-6.4 7.8-13.5 16.2-26.8 26.6-38.4 8.9-9.5 18.5-18.3 28.8-26.2 7.5-6.3 16-11.3 23.4-17.7-1.9-7.6-5.7-14.7-8.3-22.2-4.3-10.3-7.9-20.8-12.3-31 0 14-3.1 29.1-13.4 39.3-11.2 11.3-27.2 14.9-41.8 19.6-.1-19.4.1-38.9-.1-58.3-5.2 11.5-12.5 22.7-23.6 29-9.9 6.4-22.2 7-33.6 5.6-4.2-26-7.5-52.2-11.9-78.2-8 13.7-13.6 28.7-21.7 42.3-5.8 10.7-13.7 20.8-24.4 26.8-5 2.8-10.7 3.5-16.3 4.3-3.9 8-8.6 15.6-12.8 23.4-7.6 13.6-15.8 27.3-27.7 37.5-7 6.5-15.7 11-24.9 13.3-4.6 1.2-9.4 1.2-14 1.9-11.8 12-23.1 24.5-35.1 36.3.5 11 .8 22.1-.6 33.1-2.2 16-10.1 30.4-17.7 44.4-5.1 5.2-10.8 9.8-16 14.9-8.5 8-17.1 16.9-28.7 20-8.8 2.6-18.1 1.3-27.1.2-6.9 6.6-12.7 14.6-20.5 20.4-5.6 4-12.8 4.2-19.3 2.8-5.4-.8-10.7-1.9-16-3.2-10.2 8.8-20.7 17.4-30.4 26.8-6.3 5.5-12.3 12.2-20.7 14.1-11.6 2.1-23.4-.1-35.2-.1-9.7 6-19.6 11.9-30 16.8-16.5 7.2-34.4 10.3-52.2 11.8 7.3-9.3 14.8-18.4 21.7-28 9.8-12.5 18-26.3 24.3-40.9 11.3-27.1 13-56.7 15.9-85.6 0-4 .9-7.9.9-11.8-.3-13.7.1-27.4.3-41.1 1-8.6.7-17.3 1.1-26 1.2-13.1.5-26.4.6-39.5-7.5-6-17.8-3.4-26.2-1.1 3.9-5.1 8.1-10 12.7-14.3 3.6-3.5 8.6-5 13.5-5.3.1-4.6.1-9.2.2-13.8 1.1-10.3.7-20.7 1-31 1.1-10.3.6-20.7 1-31 1-10 .5-20.1 1-30.1 1.1-10.6.2-21.3 1.3-31.9.4-11 .2-22.1 1.1-33.1 0-4.3 1.2-9.6-2.8-12.6-6-4.2-13.6-1.4-20 0-.9-4 2.2-7.5 4.7-10.3 5.7-5.5 14.4-5.3 21.5-3.3 2-35.7 2.6-71.7 9.5-107 4.2-21.8 10.6-43.3 19-63.9 1.3-2.8 4.8-5.7 2.8-9-4.1-4.4-11.1-2.7-15.8-5.7 9.2-6.8 20.3-13.1 32.2-10.8 5.2-29.3 12.5-58.8 28.1-84.5 12.3-20.4 27.9-38.6 42.9-57-.1-12.5-.2-25 0-37.5 4.2-3.3 9.1-7.1 14.7-6.3 4.5.7 7.3 4.6 10.3 7.7 22.3-9.9 44.5-20 66.7-29.9 32.2-9.4 65.2-17.4 98.9-17.7 20.2.2 40.5 1.8 60.2 6.1 18.5 4 36.8 10.8 52.1 22.1 12.2 9.2 22.1 21.5 28.1 35.7 5.5 12.8 7.8 26.7 8.6 40.5 1.2 41.7-10.8 82.3-23.1 121.6 17.3 12.8 34.7 25.5 53.3 36.2 15.8 8.9 32.6 17 50.9 18.8 15 1.6 30.1-4.3 41.2-14.4 11.9-11 20.3-25 27.8-39.2 11.6-22.8 20.5-46.8 28.6-71-.5-12.4-1.4-24.8-1.9-37.2-1-8.2-.5-16.6-1.6-24.8-8-2.4-16.1-4.2-24.1-6.5-.3-.2-1-.7-1.3-.9 8.3-4.1 14-12.3 15.7-21.4 2.5-13.4.1-27.2-3.1-40.3-.2-2.8-3.3-3.1-5.3-4.1-16.3-7.3-29.1-20.1-41.4-32.6-12.4-13-27.8-23.3-44.7-29.3-9.3 5-19.1 9.4-29.2 12.8-19.9 6.4-40.8 9.3-61.4 12.4 7.6-11.6 15.4-23.1 23-34.7-22.4 11-45.9 21-70.8 25.6-13.3 2.2-27.5 3.3-40.3-1.8-9.6-3.6-16.7-12.1-19.9-21.7-2.4-6.9-3.2-14.3-3-21.6 10.5 10 23.5 17.8 37.9 20.4 16.6 3.2 33.9-.7 48.6-8.4 7.8-4.2 15-9.4 21.8-15.1-13.3-5.6-27.9-7.7-42.3-6.6-8.6.1-17.1 1.5-25.6 1.6 6.5-16.3 13.8-33.1 27.2-44.9 11.3-10.3 26.6-15 41.6-15.9 14.6-1.6 29.2.1 43.8.5 18.1-16 37.6-32.2 61.4-38.7M614 11c-18.4 6-34.3 17.7-49.1 29.8-2.9 2.6-5.6 5.3-8.7 7.5 4.2 22.6 11 46.2 27.7 62.9 19.2 18.4 44.3 28.4 67.6 40.3 11.9 7.2 23.2 15.2 35 22.5 2.4-8.5 5.1-17 7.7-25.4 4.6.5 9.2 1.6 13.8 1.6 8.4.5 17.7-.1 24.3-5.9-3.5-5-5.2-11.8-2.7-17.6 1.6-4 5-6.9 8.3-9.5 5.9 1 11.9 1.1 17.9 1.6 24.3 1 47.7-7.3 70.1-15.9-7-1.1-14.1-.7-21.1-1.6-6.1-.7-12.5.1-18.3-1.8 10-3.8 20.7-6.8 29-13.8 4.8-3.8 7.9-9.5 8-15.7-15.1 4.7-32.3 8.1-47.1.6 3.6-7.5 9.6-13.7 12.3-21.7 1.9-5.5.8-11.5-1.2-16.8-12.6-.2-25.1-1.3-37.7-1.4-9.4-1-19-.4-28.4-1.4-19.4-7.7-38.9-15.8-59.4-20-15.7-3.3-32.5-3.5-48 1.7m471.1 2.3c-13.4 4.1-26.5 9.1-39.5 14.4-2.4 1.1-4.9 2.1-7.6 2.1-20.9.6-41.8 1.8-62.6 2.4-2.2 5.5-3.1 11.8-1 17.5 2.8 7.6 8.5 13.8 12.2 21-14.9 7.5-32.1 4.1-47.2-.6.4 4.6 1.6 9.4 5 12.8 8.4 9.2 21 12.4 32.2 16.8-2.4.9-5 .8-7.4 1.1-10.5.6-21 1.3-31.4 2v.8c12.6 4.1 25 9.1 38 12.1 16.1 3.9 32.9 4.2 49.2 1.6 3 2.3 6.1 4.8 7.9 8.3 3.2 6 1.9 13.5-2 18.8 3 2.8 6.9 4.4 10.8 5.2 9 1.8 18.3.5 27.3-.8 2.5 8.5 5.4 16.9 7.7 25.5 7.7-4.9 15.3-9.9 22.9-14.9 7.6-5.4 15.6-10.1 24.3-13.7 18.9-9.3 38.4-18.5 54.1-32.9 9.3-8.9 16.2-20.3 20.7-32.3 4.1-10.3 6.2-21.2 8.5-32-5.5-4.1-10.2-9.3-15.9-13.2-18.1-14.4-39.3-26.9-62.9-28.1-14.9-.9-29.4 2-43.3 6.1M482.6 60.4c-9.1 6.7-14.4 17.1-18 27.6 7.3.1 14.6-.4 21.8.8 24.8 3.1 47.4 14.5 71 22.1-3.4-11.2-7-22.4-8.5-34-1.3-7.7-1.2-15.6-1.2-23.4-14.3-.3-28.5-1-42.8-.4-7.8.8-15.8 2.7-22.3 7.3m732.7-6.9c.1 7.8.1 15.7-1.2 23.4-1.5 11.6-5.1 22.8-8.5 33.9 21.5-6.9 42-16.9 64.3-21.1 9.4-1.9 19-2.1 28.6-1.7-3.4-9.8-8.3-19.5-16.3-26.3-6.8-5.6-15.6-7.7-24.1-8.6-14.3-.6-28.6.2-42.8.4m-675 98.6c6.7-.4 13.3-2.2 19.8-3.9 9.3-2.6 17.9-7.2 26.9-10.5-6.7-4.9-13.3-10.2-19.5-15.7-9.7 9.5-18.8 19.5-27.2 30.1m655.2-30.1c-6.2 5.6-12.8 10.7-19.4 15.7 4.9 1.7 9.5 4 14.2 5.9 10.3 4.3 21.2 7.6 32.4 8.5-8.4-10.6-17.5-20.7-27.2-30.1m-447.3 24.1c-1.9 10 3.9 19.4 10.7 26.1 9.2 8.4 21.2 15 34.1 14.3 2.4-.3 5.1-.1 7.1-1.5-1.2-11.7-8.7-21.3-16.3-29.7-4.5-4.7-10.3-8.2-14.1-13.5 9.3 4.8 17.9 10.9 25.9 17.8 6.2 5.2 11.3 11.7 16.4 18 8.6-.1 17.2-.1 25.8 0-7.7-10.4-14.5-21.4-22.6-31.5-4.1-5.2-9.5-9.3-15.8-11.5-11-3.8-22.9-2.5-34.3-2.4-7.4 1.7-14.9 6.2-16.9 13.9m210.6-9.3c-6.3 3.1-10.7 8.7-14.8 14.3-6.4 8.7-12.3 17.8-18.7 26.6 8.6-.1 17.2-.1 25.8 0 11-15 25.7-27.3 42.3-35.7-2.5 3.6-6.2 6.1-9.4 9.1-5.7 4.6-10.3 10.5-14.4 16.5-3.7 5.3-5.8 11.5-6.8 17.8 15.6 4.5 31.9-3.6 42.7-14.6 5.9-6.3 10.8-14.8 9.5-23.8-1.2-6.7-7.1-11.3-13.2-13.6-4-2-8.5-1.1-12.8-1.4-10.2-.3-21-.3-30.2 4.8M711 168.1c-5.1.2-10.2-1.5-15.3-.5 3.7 13.9 5.9 28.3 8.9 42.3.9 3.7 1 7.6 2.7 11 2.8-5.3 5.7-10.5 8.9-15.6 1.8-2.9 4.9-6.1 8.7-4.9 6.2 1.6 11.5 5.3 17.1 8.3 6.7-7.8 13.1-15.8 19.6-23.7-3.4-4.1-7.6-7.5-11.1-11.5-4.3-5-9.9-8.9-13.9-14.2-6.7 6.3-16.3 9.3-25.6 8.8m301.4 5.3c-3.5 4.1-7.8 7.4-11.2 11.6 6.5 7.9 12.9 15.9 19.7 23.6 5.6-3 10.9-6.8 17.2-8.3 3.8-1.1 6.8 2.2 8.6 5 3.2 5.1 6.1 10.4 9 15.7 4.7-17.6 6.8-35.9 11.6-53.5-5.1-1-10.1.7-15.2.5-9.3.5-18.9-2.4-25.7-8.9-4.1 5.4-9.6 9.3-14 14.3M818.6 189c-2.6 11.7-6.5 24-3.3 36 1.8 7.1 6.8 13 12.8 17.1 9.3 6.4 20 10.5 30.6 14.2 4.3-12.4 8.4-26.3 3.5-39.1-5.3-13-18.8-19.4-31-24.5 4.8 8 11.2 15 15.3 23.4 3.7 7.4 3.2 16.2 1.2 24-6.8-3.4-12.3-9.1-16.5-15.4-5.8-9.7-7.9-21-11-31.7-.3-1.5-.9-2.8-1.6-4m123.6 6c-2.8 10.1-4.9 20.6-10.4 29.7-4.2 6.3-9.7 11.9-16.5 15.3-1.9-7-2.4-14.7.2-21.7 3.9-9.5 11.1-17 16.3-25.7-12.2 5.1-25.7 11.5-31 24.5-4.9 12.8-.7 26.7 3.5 39.1 6.5-2.2 12.9-4.7 19.2-7.6 9.7-4.7 20-10.9 23.6-21.7 4.1-12.5 0-25.5-2.7-37.8-1.2 1.7-1.7 3.8-2.2 5.9m-646.9 19.3c-25.6 10.1-49.2 24.6-72 39.9 14.5 3.2 29.9 6 44.4 1.3 12.9-4.4 24.5-11.8 36.7-17.6-2 3-5.7 3.9-8.4 5.9-10.6 7.1-19.6 17.3-23.6 29.5-1.9 5.4-1.8 11.9 2.1 16.4 5.1 5.1 12.7 5.9 19.6 6 8.1-.3 16.1-1.5 23.9-3.6 4.6-1.1 8.4-4.3 11.5-7.7 5.7-7.3 10.9-15 17.3-21.8 4.4-3.9 8.2-8.7 13.9-10.7.4.5 1.1 1.5 1.4 2-.2 3.5-2 6.7-3.3 9.8-3.9 7.8-8.1 15.6-13.4 22.6-4.1 6.2-8.3 12.6-10.2 20-.6 3.6-.6 8.4 3.2 10.2 5.1 2.6 11.3 1.4 16.6.2 7.4-2.2 15.3-4.3 21.2-9.6 6.4-5.6 12.1-11.9 17.7-18.3 3.4-3.9 7-7.7 11.3-10.6 1.6-1.3 3.2.3 4.4 1.2-1.1 3.3-2.6 6.6-4.5 9.5-6 9.6-12.4 19-16.9 29.4-2.7 6.4-5.6 13.3-4.2 20.4 1.2 5 7.5 5.7 11.7 4.8 14.8-2.9 27.4-11.8 39.1-20.9 3.9-2.8 7.6-6.2 12.2-7.8 3.1.5 1.4 3.8.4 5.5-6 10.6-13.8 20-21.4 29.5-5.1 6.4-5.4 15.1-4.5 22.9.4 3 .5 6.7 3.5 8.3 5.8 2.3 12.6 1.9 17.9-1.2 8.3-4.7 11-15.3 19.3-19.9 1.5 2.8 1 5.9.3 8.8-4.5 19.4-12.1 38-16.2 57.5-.8 9.1-2.6 18.8 1 27.5 1.5-.1 3.3.4 4.6-.7 6.1-4.7 10.5-11.1 15.8-16.7 3.7-4.3 7.7-8.7 13.2-10.6 2.2 1.2 4.7 3.2 4.1 6.1-.7 6.4-5.8 10.7-9.4 15.5-3.2 4.4-6.1 9.2-7.3 14.6-1.5 7.2-.4 14.8 1.6 21.8 1.8 5.5 4.5 11.7 10.2 14.1 4.3 2.1 9.5-.2 12.5-3.5 4.5-4.6 5.5-11.3 9.6-16.1 2.9-4.1 7.4-7.7 12.7-7.3 5.2.5 9.6 6.3 7.3 11.4-2.1 4.2-4.9 8-6.4 12.5-2.8 7-4.6 15.3-1.4 22.4 1.5 3.9 5.5 6.2 9.4 7.4 9.7 1.8 19.5-1.5 28.1-5.9 4.6-5.3 7.6-12.3 14.2-15.7 2.1-1.2 4 1.4 4 3.3.3 7.3-3.1 14.1-6.2 20.5 1.1 4 3.2 7.6 4.4 11.6 8 3.3 16.1 8.6 25.1 7.2 10.1-2.4 15-12.6 22.4-18.8 5.4-5.5 11.7-9.9 18.3-13.8 9-5.9 12.9-16.4 16.3-26.1 2.9-9 6.1-18 8.8-27.1-20.4 7.7-42.4 13.6-64.4 10.4-11.1-1.6-21.7-5.5-31.5-10.7-24.3-13.4-45.2-31.8-67.8-47.6 7-35.2 20.7-69.6 19.4-106-.9-34-19.8-66.3-47.6-85.5-21.8-14.5-48.3-20.5-74.3-21.4-33.1-.6-66.6 3.6-97.7 15.3m1055.9-13.7c-22.4 3-44.8 10.8-62.5 25.2-15.6 12.6-27.6 29.5-34.6 48.3-7.9 21.4-7.4 44.8-3.4 66.9 4.2 24 11.9 47.2 16.7 71.1-15.3 11-30.2 22.7-45.5 33.7-15.3 10.3-31.4 20.6-49.9 23.9-23.2 4.7-46.8-1.5-68.4-9.7 3.1 10.4 6.7 20.8 10.2 31.1 3.2 8.9 7.7 18 16.2 23 9.8 5.4 18.1 13.2 25.4 21.7 4.1 4.4 8.5 9.2 14.7 10.1 8.8 1.1 16.6-4 24.5-7.3 1.2-3.9 3.2-7.6 4.4-11.5-3-6.4-6.5-13.2-6.2-20.5-.1-2 2-4.7 4.1-3.3 5.1 3 8.7 8 11.8 13 1.8 3.6 6 4.4 9.4 5.8 7 2.8 14.8 4.3 22.2 2.3 5.8-1.8 9.6-7.4 9.7-13.3.7-7.8-2.2-15.4-5.8-22.1-1.6-3.2-4.4-6.2-4.3-10 .6-5.3 6.5-9.3 11.6-7.5 5.7 1.5 9.3 6.9 12.2 11.6 2.5 5.7 5.2 12.3 11.4 14.8 5 2.5 10.9-.6 13.7-5 4.9-7.3 6.4-16.3 6.6-24.9 0-9.3-5.3-17.5-11.1-24.4-3.1-3.6-6.3-7.7-6.3-12.7-.1-2.5 2.3-3.9 4.1-5.1 1.8.8 3.7 1.5 5.3 2.8 8.7 7 14.4 17 23.1 24.1 1.4 1.4 3.4 1.2 5.3 1.1 3-6.9 2.2-14.6 1.6-21.9-.4-8.3-3.2-16.1-5.4-24-3.9-13.7-8.9-27.1-11.8-41-.6-2.3-.4-4.8.7-6.9 8.3 4.7 11.1 15.2 19.3 19.9 5.4 3.2 12.2 3.5 17.9 1.2 2.3-1.2 3-3.9 3.3-6.3 1.1-7.9 1.2-16.8-3.5-23.7-5.1-6.9-11-13.2-15.6-20.4-3-4.6-6.8-8.9-8.1-14.3 1.3-2.9 4.2-.5 6 .5 9.5 6.4 18.1 14.3 28.4 19.7 6.2 3.2 12.7 6.2 19.7 7.2 3.2.4 7 .2 9.4-2.3 2.5-3.2 1.8-7.7 1.3-11.4-3-11.7-9.2-22.3-15.5-32.4-3.6-5.9-8-11.5-10-18.2 1.5-1.2 3.5-2.4 5.1-.7 12.2 9.6 20.3 23.9 33.6 32.2 9 4.2 18.8 7.9 28.9 6.9 3.4-.4 7.2-3 7.1-6.8.5-4.8-1.6-9.2-3.6-13.4-4.2-8.6-10.7-15.7-15.1-24.1-3-5.7-6.3-11.3-8.1-17.5-.8-1.6.1-3 1.1-4.1 5.2 1.9 8.9 6.2 12.9 9.8 7.7 7.4 12.9 17 20.2 24.7 5.6 6.2 14.3 6.7 22.1 8.2 9.4 1.3 19.8 2.2 28.3-2.8 3.9-2.1 5.7-6.6 6-10.8.1-6.6-2.9-12.8-6.3-18.4-5.4-8.2-12.4-15.4-20.9-20.3-2.1-1.3-4.6-2.2-6-4.4 15 7.1 29.2 17.3 46 19.7 11.8 1.3 23.6-.9 35-3.4-15.2-10.5-31-20-47.3-28.7-21.4-11.3-44.6-19-68.5-22.8-24.1-3.8-48.6-5.4-72.8-2.2m-586.6-.6c-2 12.9-4.6 26.2-2.1 39.3 1.8 9 7.1 17.3 14.7 22.5 9.2 7.1 20.1 11.5 30.6 16.1 3.9-14.6 7.4-30.7 1.7-45.3-5.4-14.2-19.3-22.6-32.5-28.4 5.9 9.9 13.6 18.9 17.9 29.8 3.2 8 2.9 17 1.3 25.4-4.4-3-8.5-6.5-11.9-10.6-8.9-10.5-12.3-24.2-15.9-37.1-1.2-4-1.8-8.1-3.8-11.7m229.6 13.1c-3.7 13.1-7.3 27-16.9 37.1-3 3.5-6.8 6.1-10.2 9.1-2.1-6.2-1.7-13-.8-19.4 3-13.6 12.8-24.1 19.7-35.8-4.3 1.8-8.5 3.9-12.4 6.4-10.2 5.8-18.8 15-21.7 26.6-3.3 13.5-.5 27.6 3.4 40.7 6.5-3 13.3-5.5 19.5-9.1 10.4-5.4 20.7-13.1 24.4-24.7 4.6-14.3 1.6-29.5-.8-43.9-2.3 4.1-2.8 8.7-4.2 13M721.1 234c-5.8 8.3-10 18.5-7.7 28.7 3.5 13.4 13.6 23.6 22.8 33.4 9.3-9.3 19.4-19.6 21.8-33.1 2.4-14-6-26.9-15.1-36.7.6 10.8 3.6 21.6 1.7 32.4-1.4 7.1-5.9 12.9-10.3 18.4-2.1-4.7-5-9.1-5.9-14.3-3.3-15.2 2.9-30.1 5.6-44.9-4.8 5-9 10.5-12.9 16.1m307.8-16c2.4 13.9 8.1 27.7 6.1 42-.6 6.2-3.6 11.8-6.5 17.2-4.1-5.6-8.7-11.2-10.1-18.2-2-10.9 1-21.8 1.7-32.6-4.6 4.5-8.1 10-11.2 15.6-4.7 8.5-5.7 19.1-1.9 28.1 4.2 10.3 12.2 18.2 19.7 26.1 8.2-8.2 16.3-16.9 21-27.7 3.7-8 3.3-17.7-.6-25.6-4.6-9.3-11.2-17.4-18.2-24.9m-214 49c-1.1 2.8-1 6 .2 8.8 2.9 7.6 9.8 12.4 15.5 17.9 5.1-5.2 11.4-10.9 11.7-18.8.1-7.5-5.2-13.8-10.6-18.4.5 5.2 2.8 10.1 2.5 15.4 0 4.5-2.5 8.5-5.8 11.4-2.4-3-4.4-6.4-5.2-10.1-1.3-7.2 1-14.2 1.8-21.2-3.9 4.5-8.2 9.1-10.1 15m123-15.2c.5 5.1 2 10.1 2.2 15.2.6 5.9-1.6 11.8-5.5 16.2-3.3-2.8-5.8-6.9-5.8-11.3-.3-5.3 1.9-10.2 2.5-15.4-5.5 4.6-10.7 10.9-10.6 18.4.3 7.8 6.5 13.5 11.7 18.7 6.6-6.2 15.2-12.1 16.5-21.8-.2-8-6.1-14.2-11-20m-31.7 10.9c-2.3 12.4-1.9 25.2-5.8 37.3-2.9 9.4-8.7 17.5-15.5 24.5-1.5-2.2-2.5-4.8-3.2-7.4-1 2.4-2 4.8-3.1 7.1-9.9-8.1-15.7-20.6-18.1-33.1-2-9.3-1.5-19-3.9-28.2-4.7 9.8-10.3 19.8-10 31 .3 11.7 7.5 22 15.8 29.8 5.9 6.3 12.7 11.6 19.3 17 5.5-4.9 11.6-9.1 16.7-14.5 7.6-7.4 15-15.8 17.5-26.4 2.7-13.1-3.7-25.8-9.7-37.1m-702 12.4c-15.8 19.8-32 39.4-44.6 61.4-6.4 11.7-11.7 24.1-15.1 37.1-3.3 13.2-5.3 26.7-5.5 40.3 31.5-21.6 55.4-52.1 76.5-83.4 10.9-16 21.2-32.3 31.7-48.5 1-2.9.6-8.3-3.2-8.9-4.9-.3-8.9 2.8-11.3 6.8-22.4 28.9-44.8 57.8-67.1 86.7-1.1 1.5-2.4 2.7-3.8 3.8 2.2-8.8 6.6-16.8 10.4-25 12.5-26.1 29.2-49.7 46.4-72.8 2.3-2.3.2-5.5-1.4-7.5-5.5 1.3-9.8 5.5-13 10m1339.6-2.9c10.3 14.1 20.7 28.3 30 43.2 10.7 17.5 20.1 35.8 27.5 55-1.4-1-2.7-2.2-3.7-3.6-23.3-30.3-46.7-60.5-70.2-90.7-2.8-2.6-7.6-4.2-11.2-2-.8 2.6-2.1 5.8-.4 8.4 10.1 15.5 20 31.3 30.5 46.6 21.3 32.2 45.8 63.1 77.8 85.3 0-10.2-1.4-20.3-3.1-30.3-3.9-20.7-12.4-40.4-23.8-58-11.5-17.9-25-34.3-38.2-50.9-2.8-4-6.3-7.7-10.9-9.5-3.7-2.1-6.7 4.1-4.3 6.5m-781.3 16.7c-2 5.9-.5 12.5 3.3 17.3 4.4 6.5 10.6 11.4 16.5 16.4 6.4-6.7 14.3-13.6 14.6-23.6-.3-9.6-7.3-17.1-14-23.3 1.5 7.4 4.3 14.7 3.3 22.3-.5 4.8-3.9 8.4-6.6 12.1-2.6-3.8-5.4-7.6-6.3-12.2-2.2-9.2 1.2-18.4 2-27.6-5.1 5.7-10.2 11.5-12.8 18.6m225.2-18.5c.9 9.4 4.3 18.9 1.9 28.3-1 4.3-3.8 7.8-6 11.5-2.9-3.6-6.2-7.3-6.8-12-1-7.6 1.8-15 3.3-22.4-6.8 6.2-14 14-14 23.8.6 9.8 8.4 16.5 14.6 23.1 4.1-3.5 8.4-6.8 12-10.8 4.7-5.1 9.5-11.4 8.7-18.8-1.2-9.1-7.9-16.1-13.7-22.7m-118.8 1.3c4.5 9.7 9.3 19.3 12.8 29.4 2.6-10.2 8.2-19.4 12.2-29.1-4.6 3-8.5 7.1-12.4 10.9-4-4-8.2-7.8-12.6-11.2M796.1 320c-3.5 10-2.6 21.3 2.1 30.7 6 11.8 14.8 21.9 24.1 31.1 8.6-10.9 17.3-22.6 20.3-36.4 2.5-11.7-.7-24-7.1-34-3.5-5.3-6.9-10.7-11.6-15 1.1 4.7 1.7 9.5 2.5 14.3 1.6 10.1 3.8 20.6.9 30.7-2 5.9-4.3 12.1-8.6 16.7-3.9-6.2-6.9-13-8.1-20.3-2.9-16.9 2.2-33.7 3.6-50.5-7.2 10.1-14.2 20.8-18.1 32.7m152.6-32.8c.7 9.3 2.7 18.4 3.7 27.6 2.1 14.8.5 30.7-8.2 43.3-7-8.3-10.6-19.4-10.1-30.2 1-10.6 2.9-21 4.9-31.5-4.7 4.3-8.1 9.8-11.7 15.1-6 9.6-9.4 21.2-7.3 32.5 2.6 14.5 11.7 26.5 20.5 37.8 8.9-8.7 17.2-18.2 23.1-29.2 4.3-7.8 6.2-17 4.8-25.8-2.6-14.7-11.1-27.5-19.7-39.6M728 326c-2.3 6.4-2.3 13.5.2 19.8 4.2 11.7 13.3 20.6 21.4 29.6 3.7-2.9 6.6-6.6 9.7-10 6-6.9 11.3-15.1 12.6-24.3 1.5-13.6-6.4-26-15.5-35.3.9 8.1 2.1 16.1 2.6 24.2.4 9.9-4.5 19-10.9 26.2-5.6-8.2-8.1-18.5-6.8-28.3 1.3-10.6 4.3-20.8 6.6-31.2-7.6 8.9-15.8 18-19.9 29.3m286.9-29.5c2.4 10.4 5.3 20.7 6.7 31.3 1.3 9.9-1.2 20.1-6.8 28.3-3.9-4.6-7.4-9.8-9.4-15.6-3.4-11.5.3-23.4 1.1-34.9-5.9 6.2-11.2 13.2-13.9 21.4-2.8 7.7-2.3 16.4 1.3 23.8 4.5 9.4 11.7 17.3 19.2 24.4 5.6-5.3 10.5-11.2 15.2-17.4 5.8-8.3 10.4-18.8 7.5-29-3.4-12.5-12.6-22.4-20.9-32.3m-764.3 14.1c-4.5 6.2-9.6 11.8-14.1 18-18.7 23.4-36.8 48.5-45.1 77.7-3.9 14.4-6.5 29.3-6.3 44.2 13-9.3 24.9-19.9 35.9-31.4 28.6-30.4 49.8-66.7 72.7-101.4.1-2.6-.3-5.1-1.2-7.5-3.6-2-8.2-.3-11 2.3-11.4 14.6-22.8 29.4-34.2 44-13.3 16.9-26 34.2-39.5 50.9.2-1.4.6-2.8 1-4.2 13.3-34.3 33.9-65.1 55.9-94.3 2.2-2.3.3-5.6-1.5-7.5-5.4.9-9.5 5-12.6 9.2m1247.5-1.6c19.7 26.4 38.4 53.8 51.5 84.1 1.9 4.7 4.5 9.3 5.5 14.3-1.4-1.5-2.6-3.1-3.9-4.7-23.1-30.1-46.4-60.2-69.8-90.1-2.8-2.7-7.5-4.4-11.2-2.4-.9 2.8-2.4 6.3-.3 8.9 10.9 17 21.9 34 33.1 50.8 20.7 30.5 44.4 59.6 74.8 80.8.1-14.1-2.2-28.1-5.6-41.7-4.9-18.9-14.2-36.2-24.9-52.3-10.5-15.3-22.2-29.7-33.7-44.3-3.5-4.6-7.6-10-13.7-10.7-2.5 1.1-4.1 5.1-1.8 7.3M298.8 345.7c-22 27.9-45.7 55.9-56.8 90.3-5.9 17.1-8.1 35.1-9 53.1 8.4-5.3 15.8-12 23.5-18.4 8.5-8.3 17.2-16.4 24.7-25.6 26.1-30.1 46.4-64.4 68.3-97.6.9-2.8-.6-5.8-1.6-8.5-4.6-1.3-10.6.3-13.1 4.6-25.1 32.5-50.5 64.9-75.5 97.5-.4.3-1.1.9-1.5 1.2 5-14.7 12.3-28.6 19.5-42.3 12.2-21.9 26.7-42.3 41.6-62.4 2.4-2.4-.4-5.5-1.9-7.6-8.6 1.3-13 9.8-18.2 15.7m1145.4-7.8c24.3 32.3 47.1 66.3 61.1 104.5-2.8-2-4.4-5.2-6.5-7.9-23.5-30.3-47.1-60.6-70.5-90.9-2.6-4.3-8.5-5.8-13.2-4.6-1 2.7-2.5 5.6-1.7 8.5 14.5 21.8 28.1 44.2 43.4 65.5 20.3 28.9 43.9 56.2 73.3 76.2-.9-16.6-2.6-33.4-7.8-49.3-5.6-19-15.2-36.6-26.5-52.8-9.8-14.4-20.8-27.8-31.6-41.4-5.3-6-9.6-14.3-18.2-15.7-1.6 2.1-4.5 5.5-1.8 7.9m-595.8 14.6c-2.6 8.5-1.2 17.9 3.4 25.5 7.5 12.1 18.9 20.9 29.6 29.9 7.1-6.1 14.7-11.5 20.8-18.6 7.4-7.2 13.3-16.7 13.6-27.2-.1-10.4-5-19.9-9.6-28.9-1.3 2.5-1.2 5.3-1.5 8-1.1 9.2-1.6 18.6-4.5 27.4-2.9 9.1-8.6 16.8-15.1 23.7-1.5-4.1-3.5-8.1-3.9-12.5-.2 4.5-2.2 8.5-3.8 12.5-5.3-5.8-10.4-12-13.4-19.3-5.6-12.6-4.8-26.6-7.3-39.9-3.4 6-6.4 12.5-8.3 19.4m20.2-11.1c2.7 5.1 4.8 10.4 7.3 15.6 2.5 5.5 4.9 11.1 5.5 17.1 1.8-11.7 8.3-21.8 12.7-32.6-4.5 3.6-9 7.2-12.8 11.5-3.8-4.2-7.9-8.3-12.7-11.6m-505.4 16.8c-5.9 3.7-9.8 9.6-14 15-19.8 26.5-39.5 54.1-49.4 86-5.9 18.3-6.9 38.6-.6 57 12.8-4.7 24.2-12.6 33.4-22.5 18.6-20.9 30.3-46.8 42.3-71.8 8.2-16.2 15.8-32.9 26.2-47.9 0-3.1-.2-7-3.1-8.8-4.4-.6-9.7.9-11.6 5.2-11.2 17.6-22.6 35.2-34.6 52.3-9.3 13-18.6 26-29.7 37.5-1.7 1.4-3.3 3.3-5.5 3.7-2.9-1.7-.6-5-.1-7.4 7.2-17.6 17.3-33.7 26.9-50 9-14.6 18.4-29.1 27.7-43.5.1-2.1-.7-4.3-2.3-5.8-1.9-.8-4-.1-5.6 1m1031.1-1.2c-1.6 1.5-2.5 3.7-2.3 5.9 16.8 26.1 33.9 52.1 48.3 79.7 2.9 5.9 6.1 11.8 7.6 18.3.7 1.7-1.5 3.8-3 2.3-7.4-5.4-12.6-13.2-18.5-20.1-18.4-23.9-34.8-49.3-50.9-74.7-2.5-3.1-6.9-3.6-10.6-3.6-2.4 2.3-3.1 5.7-2.9 8.9 23.6 34.9 35.5 76.5 60.8 110.4 10.3 14.2 24.4 25.8 41 31.8 1.4-5 3-10 3.6-15.2 2.7-19.6-2.2-39.4-9.9-57.3-9.1-21.1-21.8-40.4-35.2-58.9-6-7.7-11.2-15.9-18-22.9-2.8-2.2-6-5.5-10-4.6m-616.8 4.8c-12.6 14-22.4 30.9-26.8 49.3-3.4 13.9-3.3 28.9 1.8 42.3 4.2 10.2 10.7 19.6 19.7 26.1 12.3-6.4 23.8-15.2 31.2-27.1 8.5-12.5 12.4-28.5 9.6-43.4-3.1-20.3-17.3-38.1-35.5-47.2m171.9 51.3c-1.9 17.7 5.3 35.5 17.2 48.4 6.7 7.6 15.3 13.3 24.2 18.1 13.4-10 22.1-26 23.5-42.7 1.6-14.6-2-29.2-7.5-42.6-5.5-11.7-12.4-23-21.2-32.5-19.6 9.6-34.3 29.4-36.2 51.3m-248.1-23.6c-4 6.6-5.8 14.7-4 22.4 2.9 11.2 10.5 20.1 17.4 29 4.5-3.1 8.3-7.1 12.1-10.9 7.8-7.8 15.2-17.4 15.8-28.9.3-10.6-4.8-20.7-11.5-28.7-.3 9 .1 18-1.4 26.8-1.8 8.9-7.3 16.8-14 22.7-2.6-5.6-4.4-11.6-4.1-17.8.4-14.3 7.8-27 11.7-40.4-7.9 8-16.2 16-22 25.8m338.4-25.8c3.3 11.2 8.8 21.7 11 33.2 1.6 8.3.7 17.8-3.6 24.9-4-3.9-7.9-8.3-10.4-13.4-5.9-11.1-4-24.1-4.7-36.2-6.7 8-11.8 18.1-11.5 28.8.5 11 7.4 20.3 14.8 27.9 4.2 4.2 8.3 8.6 13.1 12 5.1-6.8 11-13.2 14.5-21.1 4.5-8.3 4.9-18.7.6-27.1-5.8-11.4-15.1-20.2-23.8-29M407 386.8c-4.7 2.4-6.8 7.5-10.2 11.2-11.7 15.8-22.1 32.6-30.7 50.3-9.7 20.2-17.5 41.5-20.6 63.8-1.8 14.8-1.9 30.3 2.9 44.5.6.4 2 1.1 2.6 1.5 5.6-1.5 10.5-4.7 15.4-7.7 11.5-7.9 21.4-18.2 29.1-29.9 23.5-34.1 35.2-74.3 49.2-112.8.3-3.4-.1-9.4-4.8-9-2.8.3-6.3.7-8.2 3-18.9 30.4-36.7 61.6-56.5 91.4-2.1-.7-.1-3 .2-4.4 12.1-26.1 25.1-51.9 35.3-78.9 2.2-7.1 5.1-14.2 5.2-21.7.1-1.8-1.4-3-2.6-4-2.2.7-4.3 1.4-6.3 2.7m940.1 2.2c.5 7.9 3.5 15.4 6 22.9 10.1 26.1 22.6 51.2 34.4 76.5.2 1.5 2.4 3.8.3 4.6-19.8-29.8-37.5-61-56.4-91.4-2.6-2.8-7.3-3.6-10.9-2.6-2.3 2.9-2.9 7.4-1.3 10.8 13.9 38.2 25.6 78 49.2 111.6 4.7 7.2 10.6 13.5 16.7 19.5 8.1 6.8 16.7 13.8 27.1 16.9.6-.4 1.9-1.1 2.5-1.5 7.2-22.3 3.9-46.4-2.2-68.5-10.5-35.4-29-68-51.6-97.1-2.6-3.7-7-5.5-11.1-7-1.7 1.5-3.2 3.1-2.7 5.3m-506.8-3.1c-14.8 19-23.5 43.7-19.9 67.9 1.7 10 5.8 19.6 11.9 27.6 2.8 3.9 6.6 6.9 10 10.2 11.1-6.3 20.8-15.5 26.2-27.1 6.6-13.7 7.2-30.2 1.5-44.4-5-14.7-16.4-26.4-29.7-34.2m52.3 35c-5.3 13.7-4.7 29.5 1.5 42.9 5.5 11.9 15.2 21.5 26.6 27.8 5.9-5.2 11.5-10.9 15-18 9.5-16.8 9.5-37.6 3.8-55.6-3.4-11.7-9.6-22.3-16.8-32-13.6 7.8-25.1 19.9-30.1 34.9m-772.7 18c-7.4 15.8-15.2 31.5-21.1 48-6 16.3-9.4 33.6-9.5 51.1.2 15.7 2.5 31.2 6.1 46.4l.6.5c11.3-9.8 20.1-22.3 27.9-35 18.9-32 28.8-68.1 40.9-103 1.7-3.3-.5-6.7-2.2-9.5-2.6-3-7.5-1.6-10 .9-6.2 13.2-12.2 26.6-18.3 39.8-8.5 19.4-17.7 38.4-26.1 57.8-.5 1.2-1.3 2.3-2.1 3.3-.2-1.4-.4-2.8-.4-4.3 3-32.8 13.1-64.5 26.1-94.7 1.2-2.9 3.1-6.2 1.7-9.4-1-1.9-3-4.2-5.4-3-4 2.6-6.6 6.8-8.2 11.1m1507.9-5.1c11.8 26.6 21.9 54.2 26.5 83 1.2 7.5 2.6 15 2.7 22.7-2.6-3.5-3.8-7.9-5.7-11.7-13.4-29.3-26.6-58.7-40.1-88-1.3-3.4-5.9-4.3-9.1-3.6-3.2 1.3-3.9 5.2-5.3 8 11.1 32 20.3 64.9 35.9 95.2 8.9 17.2 20.2 33.4 34.4 46.6 6.4-25.6 9.1-52.8 3-78.8-4.9-21.5-14.5-41.5-23.9-61.4-3.4-6.1-4.9-14-11.4-17.7-3.9-1.7-5.8 2.8-7 5.7m-922.4 21.7c-10.6 13.4-17 30.2-30.5 41.2 2.1-12 2.8-24.5 8.3-35.5 3-6.3 7.8-11.5 12.1-17-7.9 1.1-15.9 3.5-21.8 9.1-8.9 8.6-13 20.9-15.5 32.8-4.7 22-3.9 44.6-7.5 66.7 4.6-2.7 9.3-5.2 13.6-8.4 17.2-12.7 29.8-30.5 40.6-48.7 9.8-17.4 18.3-35.5 26.8-53.6-9.9 1.6-19.6 5.7-26.1 13.4m326.2-13.5c12.3 25.8 23.8 52.4 41.1 75.4 10.5 14.5 23.8 27.1 39.8 35.4-3.7-23.2-2.8-47-8.2-69.9-2.8-11.1-7-22.7-15.8-30.4-5.8-5.1-13.4-7.1-20.8-8.2 4.3 5.4 9 10.6 12.1 16.9 5.5 11.1 6.2 23.6 8.4 35.6-13.8-11.1-20-28.2-30.9-41.6-6.6-7.6-16.1-11.5-25.7-13.2m-311 44.6c-8.9 16.4-13.8 35.5-11.1 54.3 2.2 15.3 10.7 29.5 22.9 39.1 17.7-8.7 32.9-23.8 39-42.9 4.6-14.4 3.4-30.6-3.1-44.2-6.3-13.2-17.4-23.5-29.8-31-7.5 7.1-13 15.8-17.9 24.7m281.1-4.9c-8.5 10.7-13.3 24.5-12.8 38.2-.2 15.1 6.5 29.6 16.3 40.8 7 8 15.8 14.4 25.3 19.1 15.1-11.2 24.1-30.1 23.7-48.9.4-13-3.3-25.8-8.4-37.7-5.5-11.4-12.2-22.3-21.1-31.3-8.7 5.2-16.9 11.6-23 19.8M431 478c-6.6 8.6-11.5 18.4-15.6 28.4-7 17.2-11.7 35.3-15.1 53.6-.7 7 .1 14.1 1 21.1.6 4.1 1.7 8.2 4.3 11.5 1.3.8 2.8 1.7 4.3 1.1 4.1-1.4 7.4-4.4 10-7.7 6.3-6.9 11.1-14.9 16.5-22.5 7-9.3 10.4-20.6 14.1-31.5 3.5-10.9 6.5-21.9 8-33.2.4-3.3 1-7-1.2-9.8-6 3.3-9.6 9.4-13.2 15-8.2 13.4-11.6 29.1-19.4 42.7-.9.6-1.9 1.2-2.8 1.8-1.6-.6-3.6-1.7-3.2-3.8 1.3-19.1 8-37.3 17.2-54 2.5-4.8 5.7-9.4 7-14.8.5-2-.2-5.6-3-5-3.9.8-6.4 4.3-8.9 7.1m355.8 21.8c-8.2 17-12.2 36.7-7.6 55.2 3.5 13 10.9 25.3 22 33.2 14.5-7 27-18.3 34.6-32.5 6.9-13.3 9.1-29.2 5-43.7-4.6-18.1-18.1-33-34.3-41.8-7.5 9.3-14.8 18.7-19.7 29.6M921 518c-2.9 16.5 2 33.8 12.1 47 7.6 9.8 17.5 17.9 28.7 23.2 14.9-10.7 23.4-29 23.9-47.1.2-14.2-3.3-28.4-9.5-41.1-4.8-10.9-12.2-20.4-19.7-29.6-18 9.6-32.4 27-35.5 47.6m399.2-41.2c2.1 6.4 6.1 12 8.9 18 8.2 15.5 13.8 32.4 15.1 49.9.3 2-1.6 3.1-3.2 3.8-.9-.6-1.9-1.3-2.8-1.8-7.8-13.6-11.2-29.3-19.4-42.8-3.6-5.5-7.2-11.7-13.2-14.9-2.6 3.5-1.4 8-.9 12 2.7 16.5 7.7 32.6 13.9 48.1 3.8 9.9 10.8 18 16.5 26.8 5 6.3 9.4 13.8 17 17.4 1.8 1.2 3.7.1 5.5-.6 4.5-7 4.6-15.7 5.3-23.7.8-8.8-1.9-17.4-3.8-25.9-5.3-21.7-12.3-43.4-24.9-62.1-3.1-3.9-6.1-8.9-11.2-10.1-3.2-.4-3.4 3.8-2.8 5.9m-440.7-5.4c-13.9 18-24 39.1-27.7 61.6-2.9 16.4-1.8 33.6 3.8 49.4 5 14.3 14.5 26.7 25.9 36.5 7.4-6.5 14.4-13.8 19.2-22.5 8.2-13.3 11.8-29 12.1-44.5 0-29.2-11.4-57.6-29.3-80.4-.5.3-1.5 1-2 1.4-.7-.5-1.4-1-2-1.5m686.6 12.4c3.2 8.1 6.9 16 9.9 24.1 8.7 22.1 14.2 45.5 15.4 69.2-2.4-2.3-3.1-5.8-4.8-8.6-12.3-26.4-24.8-52.7-37.2-79-1.1-3.1-4.6-4-7.4-4.3-4.9.3-8.7 6.4-6.4 10.8 11.5 33.2 21 67.8 41.3 97 6.5 9.5 14.6 17.8 22.9 25.7.6-3 1.6-5.9 2.4-8.9 5.3-18.7 7.8-38.6 4.1-57.8-3.8-21.6-14.1-41.1-23.7-60.6-2.5-4.7-4.2-10.4-9.2-13-3.4-1.7-7 2.4-7.3 5.4m-1383.7 3.7C171.5 509.7 159.2 532 156 557c-3.1 20.8 1.2 41.9 7.3 61.8 2.7-3.2 6.1-5.7 8.8-8.8 13.1-13.5 23-29.9 30.8-47 9.4-20.8 15.9-42.6 23.4-64.1 1-3.1 2.5-6.7.3-9.7-2.2-5.5-10.9-4.8-13.1.4-13.9 29.2-27.5 58.5-41.4 87.7-1-1.6-.5-3.5-.6-5.2.9-10.1 2.3-20.2 4.6-30.1 4.2-19.5 11.8-37.9 19.7-56.1 2.1-3.3-1.4-7.6-4.9-7.8-4.2 1.4-6.8 5.4-8.5 9.4m57.9 30c-5.1 10.3-10.2 20.5-14.9 31-7 16.3-12.6 33.7-12.4 51.6-.5 16.4 3.1 32.7 8.1 48.3 4.1-2.5 7.1-6.3 10.6-9.6 7-7.8 13.5-16.2 18.8-25.3 16.3-27.3 24.7-58.2 35.2-88 1.5-3.5-1.4-7-3.9-9.2-3.5-1.3-8.6-.2-10.2 3.5-13.4 28.3-26.8 56.6-40 84.9-.4 1.1-1.2 2-2.1 2.8.6-14.3 3.1-28.5 6.6-42.3 4.5-17.7 11.8-34.5 18.8-51.2-.8-2.5-3-5.2-5.8-5.4-4.3.9-7.2 4.9-8.8 8.9m1271.1-8.3c-1.4 1.3-3.1 2.7-3.4 4.7 3.5 7.9 6.8 15.9 9.9 24 8.8 22.1 14.1 45.6 15.6 69.4-1-.8-1.7-1.7-2.2-2.8-13.4-28.5-26.8-57-40.3-85.5-2-3.4-6.6-3.7-10.1-3-2.1 2.6-5.4 5.8-3.7 9.4 8.9 25.4 16.3 51.5 28.5 75.6 8.8 17.9 20.7 34.5 36 47.6 7.6-22.9 11.2-47.8 5.6-71.6-4.8-20.6-14.7-39.4-24.1-58.2-1.3-2.7-2.3-5.6-4.6-7.6-1.7-1.8-4.7-4.1-7.2-2M477.7 524.3c-12.6 18.4-18.9 40.2-23.5 61.8-2 7.5-.7 15.2.2 22.7.9 3.3 1.3 7.5 4.8 9.2 3.2.5 5.8-1.9 8-3.8 7.3-7.9 13-17.2 19-26.1 4.6-8.1 7.2-17.2 9.9-26.1 2.5-9.5 5.8-19.1 4.8-29-3.1-.4-4.8 2.5-6.6 4.5-8.8 10.7-12.6 24.4-18.1 36.9-1.2 2.4-2.3 5.1-4.7 6.6-1.7.7-2.4-1.5-3.5-2.3 1.2-9.5 2.9-19 6.5-28 3.2-8.9 8.1-17 12.4-25.4 1.2-2.2 1.2-4.7 1-7.1-4.5-1.4-7.7 3.1-10.2 6.1m797.4-6.3c-.2 2.3-.4 4.8.8 6.9 4.2 8.5 9.3 16.6 12.5 25.6 3.6 9 5.3 18.6 6.5 28.2-1.1.9-1.8 2.9-3.4 2.4-2.4-1.5-3.5-4.3-4.8-6.7-5.4-12.5-9.2-26.1-18-36.8-1.8-2-3.5-4.9-6.6-4.5-.8 8 1.3 15.8 3.3 23.5 2.1 8.3 4.9 16.4 7.9 24.3 2.9 7.8 8.5 14.2 12.8 21.3 4.5 5.6 8.2 12.6 15 15.7 2.1 1.1 4.4-.4 5.4-2.3 2.6-5.4 2.7-11.5 3.2-17.4.8-7.4-1.7-14.6-3.1-21.8-4.6-18.3-10.6-36.7-21.6-52.2-2.4-3.2-5.5-7.3-9.9-6.2m-731.3 36c-1.5 15.7-5.9 31.4-14.8 44.5-1.9.3-3.8-.5-4.2-2.5-.6-4.5 1-8.9 2-13.2 2.3-8.8 4.6-17.8 5.1-26.9 0-4.5 0-9.3-2.2-13.3-.6.2-1.7.6-2.3.8-4.7 5.6-7.4 12.5-10 19.2-3.1 8.2-6 16.6-7.7 25.2-1.1 5.3-.5 10.8-.7 16.2.1 8.5-.6 17.3 2.5 25.4 1.1 1.9 3 4.2 5.5 3.4 5.9-1.5 10-6.5 14.1-10.7 2.9-2.8 4.5-6.5 6.3-10.1 8.1-17.4 14.6-35.9 15.6-55.2.2-4.7-.5-9.4-2.1-13.8-.5-.5-1.5-1.4-1.9-1.9-5.1 2.3-4.4 8.5-5.2 12.9m668.3-10.9c-3.2 8.7-2 18-.5 26.9 2.2 12.4 6.3 24.4 11.3 35.9 2.8 6 5.1 12.6 10 17.3 3.8 3.8 7.6 8.3 13.1 9.6 2.5.7 4.4-1.5 5.5-3.5 3.3-8.4 2.4-17.6 2.5-26.4-.1-5.1.4-10.2-.7-15.2-1.5-7.9-4.1-15.6-6.9-23.2-2.9-7.4-5.7-15.2-10.9-21.3-.6-.2-1.7-.6-2.2-.7-2.1 3.8-2.2 8.2-2.2 12.4.2 12.7 4.9 24.6 7.1 36.9.8 2.9-.3 7.5-4.2 6.6-4.4-6.8-8-14.2-10.4-22-2.8-8.8-3.8-17.9-4.9-27-.5-2.6-.6-5.8-3-7.5-1.3-1.2-2.6.6-3.6 1.2m-916.4 10.6c-11.1 22.4-23.6 45.1-26.3 70.5-2 18.2 1.9 36.3 7.3 53.6 5.1-3.5 9.2-8.2 13.1-13 9.1-10.8 16.7-22.8 22.4-35.7 10-21.6 16.5-44.5 24.2-67-1.1-2.4-2.1-5.3-4.7-6.5-2.8-1.5-5.8.4-8.3 1.6-11.9 25.5-23.8 51.1-35.8 76.6-1.1 2.2-1.7 4.7-3.5 6.5.6-8.9 1.6-17.8 3.3-26.5 3.8-21 11.6-41.1 20.2-60.5-1.4-1.9-2.6-4.8-5.4-4.8-3 .4-5.1 2.7-6.5 5.2m1159.7-.4c2.8 6.3 5.5 12.7 8 19.1 8.8 21.6 14.2 44.7 15.5 68-.3-.5-1-1.4-1.4-1.8-12.7-27.1-25.3-54.2-38-81.3-2.5-1.3-5.5-3.1-8.3-1.6-2.6 1.2-3.5 4-4.6 6.4 7.8 22.9 14.5 46.3 24.8 68.3 6.8 15 16.3 28.7 27.4 40.8 2.4 2.2 4.5 5.1 7.7 6.3 1-5.1 2.8-10 4-15.1 3.4-14.4 4.7-29.4 2.3-44-3.6-21.9-14.2-41.7-23.7-61.4-1.8-3.5-3.8-7.8-8.2-8.4-2.8-.1-4 2.9-5.5 4.7m-782.6 26.4c-3.6 6.3-7.2 12.6-9.6 19.5-6 15.7-8.4 33.4-3.1 49.7 3.3 11.1 10.5 20.8 19.3 28.1 7.1-3.8 14-7.9 20-13.3 9.5-8.6 17.2-19.4 20.9-31.7 4.4-13.7 3.4-28.9-2.4-42-5.7-13.4-16.8-23.9-29.3-31-5.5 6.7-11.3 13.2-15.8 20.7m373.2 8.2c-6.6 13.4-8 29.2-3.6 43.5 3.1 10.4 8.9 20 16.4 27.8 6.9 7.6 15.8 13 24.7 17.9 9.7-8 17.3-18.9 20.2-31.2 5.3-20.9-.7-43.1-11-61.5-4.8-9.4-11.8-17.3-18.5-25.3-11.7 6.7-22.3 16.3-28.2 28.8m-452.2-16.8c0 16.1-1.3 32.9-9.5 47.2-1.5 2.4-4.8-.1-5.2-2.2-.7-6.7 1.3-13.3 1.9-20 1.4-9.3 1.7-18.9-.5-28.1-.4-1.9-1.5-3.5-2.5-5.1-3.6 2-4.8 6.2-6.4 9.7-4.4 12.4-7.5 25.3-8.4 38.4 1 11.4 1.5 22.9 4.7 34 1.2 3.5 2.7 8.4 7.2 8.7 6.3-1.1 10.4-6.8 14.2-11.5 2.8-3.1 3.8-7.3 5.2-11.1 6.3-18.2 10.4-37.6 8.2-57-1-4.2-1.4-9.9-5.7-12-4 1.2-2.9 5.9-3.2 9m572.4-9.3c-4.3 2.9-5 8.4-5.9 13.1-2.2 21.8 3.2 43.6 11.2 63.8 3.1 4.9 6.9 9.6 11.6 13 2.2 1.7 5.2 2.4 7.8 1.3 2.8-3.1 4.2-7 5.1-11 2.4-10.2 2.9-20.6 3.9-31-1-13.3-4.1-26.5-8.7-39.1-1.5-3.3-2.7-7.2-6.2-9-2 2.6-2.8 5.8-3.2 9-2.3 12.7.5 25.4 2.1 38-.1 2.8 1 6.4-1.6 8.4-.9.9-3 1.5-3.6 0-3.4-5.8-5.6-12.3-7.1-18.9-2.7-11-2-22.4-2.7-33.6.2-1.8-1.5-2.9-2.7-4M643 564c-.5 7.7 1.4 15.3 1.1 22.9.4 11.1-1.5 22.3-6.2 32.3-2.1.1-4.6-1-5-3.3-1.5-5.6-.4-11.3-.2-17 .7-10.3.2-20.9-3.1-30.8-.7-2.1-1.8-4-3.5-5.4-1.6 1.9-3.1 4-3.9 6.4-2.8 8-4 16.4-5 24.8-.4 6.6-1.6 13.4-.2 20 2 10.3 3.5 20.9 7.3 30.8 1.6 3.6 3.4 8.1 7.8 8.9 4-.1 7-3.2 9.4-6 2.2-2.8 4.5-5.7 6.1-9 5.6-18.3 8.3-37.7 6.2-56.8-1-6-2-12.2-5.3-17.4-.7-1.4-2.3-1.9-3.5-2.6-.6.5-1.5 1.7-2 2.2m468.6 6.9c-3.7 12-3.3 24.8-2.4 37.1 1.2 10.5 3.2 20.9 6.5 31 2.5 4.5 5.5 8.8 9.3 12.2 2.4 2.2 6.3 3.4 9.1 1 4.3-4.2 5.7-10.4 7.4-16 2.2-9 4.2-18.1 5.2-27.3 0-9.7-1.2-19.5-3-29-1.4-6-2.4-12.5-6.7-17.2-3.9 3.3-4.5 8.7-5.6 13.3-2.4 11.2-.9 22.6-.5 33.9.1 3.8-.5 9.7-5.7 9.3-7.1-14.6-7.2-31.4-5.3-47.2 0-3.5 1.2-7.6-1.6-10.3-4 1.4-5.5 5.6-6.7 9.2m-378.9 45c-4.8 14.5-6.6 30.4-1.9 45.2 3.3 11.4 10.5 21.4 19.7 28.8 5.4-3.1 11-6.1 15.9-10 15.5-11.8 26.7-30 27.7-49.8.9-16.7-5.9-33.5-17.5-45.4-4.8-5.1-10.8-9-16.7-12.8-12.2 12.5-21.6 27.6-27.2 44m246.7-22.4c-9.2 13.4-12.7 30.6-9 46.5 2.6 11 7.9 21.6 15.8 29.8 7 8.7 16.7 14.8 26.4 20.1 6.7-5.6 12.5-12.2 16.3-20.1 5.9-12.3 7.4-26.4 5-39.7-3.8-22-15.3-42.2-30.6-58.2-9.2 5.6-18.2 12.3-23.9 21.6m-628.8-5.9c-5.8 12.6-12.4 24.8-17.3 37.7-5.1 12.9-8.6 26.7-8.3 40.7-.3 14.9 3 29.7 7.6 43.8l.4.3c16-13.7 27.7-31.9 36.2-51.1 9.2-20.2 15.2-41.7 22.5-62.6 1.5-3.4-1.9-6.1-3.8-8.5-3.2-.4-7.4-.2-9 3-12.5 26.5-24.7 53.1-37.2 79.5-.4.5-1.2 1.4-1.6 1.9.8-11.6 2.4-23.1 4.9-34.5 4.1-16.9 10.1-33.2 17.2-49 .4-1.4 1.7-3.1.6-4.5-1.4-1.7-3-4.2-5.6-3.5-2.8 1.7-5.2 4-6.6 6.8m1053.6-6.6c-2 .8-3.7 2.7-4.3 4.8 1.6 5.2 4.3 10.1 6.2 15.3 9.4 22.7 15.6 46.8 17 71.4-1.8-1.5-2.4-3.8-3.4-5.8-11.9-25.1-23.5-50.4-35.4-75.5-1.7-3.3-5.8-3.4-9-3.1-1.9 2.3-5.2 5-3.8 8.4 8.5 24.5 15.3 49.7 27.3 72.8 7.8 15.6 18.5 29.8 31.5 41.4 6.6-19.7 10.1-41 6.3-61.6-3.9-21.8-14.9-41.4-24.2-61.3-1.7-3.3-4.3-7-8.2-6.8m-576.8 9.2c-13.5 17.5-22.4 38.7-24 60.8-1.9 24 7.5 49.7 27.3 64.2 21.9-11.6 38-35.1 37.4-60.2.7-27.3-16.7-52.5-40-65.6l-.7.8m103.3 1.7c-21.5 13.6-36.8 38.2-35.9 64-.2 24.8 15.8 47.9 37.4 59.3 17.4-12.6 26.8-34.1 27.5-55.3.6-25.6-9.3-50.8-25-70.8-1.2 1-2.6 1.9-4 2.8M99.9 604.7c-3 2.9-4.6 6.9-5.4 11-7.7 31.6-17 63.5-15.8 96.3.3 21.5 5.2 42.7 12 63.1 1.4 4.1 2.6 8.3 4.7 12.1 1.6-2.7 3.3-5.4 4.9-8.1 11.1-18.1 18.1-38.5 23.3-59C132 686.6 135 652 140.3 618c-1.6-3.2-2.8-7.4-6.4-8.7-3.1-1-5.8 1.1-7.8 3.1-9.2 39.4-18.5 78.8-27.6 118.2-.3 1.1-.7 2.1-1.3 3-1.7-14.4-2.1-29-.9-43.5.8-26.3 5.6-52.4 11.1-78.1.9-2.8-1.5-5.1-3.3-7-1.1-1.2-3.1-1.5-4.2-.3M1655 610c2.4 13.4 5.5 26.6 7.4 40.1 4.3 27.5 5.9 55.6 3.4 83.4-.6-.8-1-1.6-1.2-2.5-9.2-39.6-18.5-79.1-27.8-118.7-2.3-2.7-6.7-4.9-9.8-2.2-2.7 2.8-5.3 6.8-4.2 10.9 6.8 46.2 10.4 93.7 28.8 137.1 4.2 10.3 10 19.8 15.8 29.3 4.2-9.4 6.9-19.4 9.8-29.3 7.4-26.6 8.9-54.8 4.6-82-3.4-21.8-9.2-43.1-14.5-64.4-1.6-3-3.1-8.2-7.4-7.7-2.2 1.3-4 3.5-4.9 6m-1250 2c-5.9 19.7-13 39.3-13.7 60-.4 20.1 6.5 39.7 16.7 56.7 5.6-7.2 11.2-14.4 15.1-22.7 15.2-29 18.4-62.2 23.8-94 .8-3.5-3.1-6-5.9-7-2.8.2-6.2 1.4-7.6 4-7.9 27.8-15.9 55.5-23.9 83.3-.9-1.2-1.1-2.8-1.2-4.3-1-13.3-1.1-26.8.6-40 1.4-13.8 5.3-27.2 8.2-40.7-1.7-1-3.2-2.6-5.2-2.8-3.8.2-5.6 4.5-6.9 7.5m940.9-4.6c1.9 9.5 4.7 18.9 6.3 28.5 2.9 15.2 3.8 30.7 2.8 46.2-.3 3.4.2 7.2-1.5 10.4-8.1-27.7-16-55.5-24-83.2-1.3-2.7-4.8-3.9-7.6-4.1-2.8 1-6.7 3.5-5.9 7 3.8 21.7 6.3 43.8 12.5 65 5.1 18.8 13.8 36.8 26.4 51.7 11.4-19 18.8-41.4 16.1-63.8-1.4-16.1-6.7-31.6-11.3-47-1.4-4.6-2.5-9.6-6.2-12.8-2.8-1.6-5.4.5-7.6 2.1M461 634.1c-6.1 15.4-12.8 30.7-15.6 47.1-1.4 9.9-1.1 20.1 1.5 29.8 2.3 9.6 7 18.2 11.6 26.9 11.7-11.8 20.9-25.9 27-41.3 8.5-20.9 12.8-43.1 17.8-65-1.8-1.9-3.7-4.1-6.5-4.2-3.1.4-6.8 1.6-7.7 5-8.2 21.6-16.2 43.2-24.4 64.8-1.2 2.8-1.7 6-3.8 8.3-.3-6.5-.4-12.9-.2-19.4.7-19.3 6.3-38 12.6-56.1-1.2-1.1-2.4-2.1-3.6-3.1-4.1-.5-7.3 3.4-8.7 7.2m828.4-4.1c4.3 12.8 8.6 25.6 10.8 38.9 2.2 12 2.2 24.4 1.7 36.6-.3-.5-1-1.4-1.3-1.9-9-23.8-17.8-47.6-26.9-71.3-.9-3.3-4.6-4.5-7.7-4.9-2.8.1-4.7 2.3-6.5 4.2 4.7 20.4 8.8 41 16.1 60.6 6.2 17 15.9 32.9 28.8 45.7 3.9-7.4 8-14.9 10.5-22.9 4.6-13.9 4.5-29.2.6-43.3-3.3-11.9-7.9-23.3-12.4-34.7-1.4-3.9-3.2-8.1-7.2-9.8-2.7-1-4.8 1-6.5 2.8m-1119.6 9.8c-3.9 3.7-4.9 9.2-6.2 14.1-7.6 27.5-15.7 55.3-16.5 84-.5 25.5 4.8 50.8 13.1 74.8 19.2-27.1 28.5-59.6 35-91.8 4.6-22.5 7.8-45.3 11.6-67.9-.2-4.1-2.7-8.6-6.8-9.9-2.5 1.3-6 2.2-6.6 5.5-9.3 35.8-18.6 71.6-27.8 107.4-.6 1.8-.6 4-2.1 5.4-1.1-11.8-.2-23.6.2-35.3 1.5-26.4 6.6-52.5 12.8-78.2.6-2.3.6-4.9-1.1-6.7-1.2-1.8-4-3.4-5.6-1.4m1416.6 8c9.2 37.1 15 75.3 13.2 113.5-.3-.4-.9-1-1.2-1.4-9.6-37.1-19.3-74.2-28.9-111.3-.5-3.3-4-4.2-6.5-5.4-4.1 1-5.8 5.2-7 8.8 5.3 32.8 9.9 65.9 18.6 98.1 6.1 22.1 14.9 43.7 28 62.7 11-30 16.3-62.7 11.7-94.5-3.2-23.9-10.2-46.9-16.4-70.1-1.2-3.4-2.6-7.2-5.9-9.1-4.2-.6-7.3 5-5.6 8.7m-1042.2 9.5c-6 25.2-11.8 50.5-17.7 75.7-.3.8-.7 1.7-1.1 2.5-2.1-10-3.6-20.1-3.4-30.4-.4-15.4 2.7-30.7 5.5-45.8-1.5-.8-3-1.5-4.5-2.3-5.4.7-7.2 6.4-8.2 11-5 20.5-11.8 41.8-6.9 63 2.3 10.4 7.4 19.8 13.3 28.5 2 2.6 3.6 5.6 6.1 7.8 12.4-16.6 20.4-36.2 24-56.5 3.4-17.5 4.3-35.3 6.3-53-.7-1.9-3-2.9-4.7-3.7-3.4-.9-6.2 1.4-8.7 3.2m661.2-.1c1.8 18.6 3 37.4 6.7 55.8 3.9 19.5 11.5 38.6 23.9 54.4 7.9-10.3 15.2-21.4 18.5-34.1 2-7.9 2.8-16.1 2-24.3-1.2-15.1-5.5-29.6-9.1-44.2-1-3.5-3.2-7.7-7.4-7.7-1.6.5-3 1.3-4.4 2.2 2.6 14.8 5.7 29.6 5.4 44.7.3 10.5-1.3 21.1-3.4 31.4-1.6-2.9-1.8-6.3-2.7-9.4-5.5-22.9-10.7-45.8-16.1-68.7-2.1-1.3-4.1-3.3-6.8-3.3-2.6-.3-4.9 1.5-6.6 3.2m-636.6 16.6c-1 21.4-3.2 42.9-.8 64.3 1.6 16.2 6.8 32 15.3 46 .6-1 1.3-2 2-2.8 11.9-12.8 22.2-27.9 25.5-45.2 3.7-17.6.7-35.5-1-53.1-.1-3.2-1.3-6.5-3.6-8.7-2.7-1.1-5.3.3-7.6 1.6.4 7 .4 14.1.5 21.1.2 17.9-2.7 35.8-8.8 52.6-.3.5-.9 1.4-1.3 1.9-2.3-25.1-4.5-50.2-6.6-75.3.1-3.5-3.7-5.2-6.6-5.8-2.6-.1-4.9 1.8-7 3.4m614.7-2.3c-3.8 1.5-3.2 6.1-3.5 9.4-2.1 23.5-4 47-6.2 70.5-.8-1.1-1.5-2.2-1.8-3.4-4-11.6-6.6-23.7-7.7-36-.9-12-.3-24.1-.1-36.1-1.9-1.8-4.9-2.7-7.4-1.8-2.3 2.2-3.6 5.5-3.7 8.7-1.6 17.3-4.6 34.8-1.2 52.1 2.3 12.8 8.4 24.7 16.3 35 3.5 5 8 9.2 11.5 14.1 5.8-9.8 10.5-20.4 12.9-31.6 5.9-25.8 2.8-52.5 1.6-78.7-2.9-2.4-7.1-4.9-10.7-2.2m-953.1 1.8c-4.8 3.3-5.7 9.6-7.4 14.8-7.8 26.2-16.6 52.5-17.5 80-.9 21.8 3.4 43.5 10.3 64 1.1 3.6 2.7 7.1 3.5 10.8 7.9-9.8 14.5-20.6 19.6-32.1 17.7-38.4 23-80.8 30.9-121.9 1.3-4-1.1-8.1-4-10.7-3.2-2.6-7 0-9.7 2-10.4 36.3-20.8 72.5-31.1 108.8-.3 1.3-1 2.4-1.9 3.4-.7-21.2.3-42.5 3.8-63.4 2.6-16.9 6.9-33.5 11-50 0-3.2-3.9-7.9-7.5-5.7M1525 679c3.7 15 7.6 29.9 10.2 45.1 4.1 22.5 5.4 45.5 4.7 68.4-2.1-2.2-2.2-5.3-3.1-8-9.8-34.2-19.5-68.4-29.4-102.5-.8-3.2-4.5-4.4-7.4-4.9-3.9.8-5.9 4.7-7.1 8.1 0 2.7.7 5.3 1.2 7.9 5.8 31.6 10.6 63.5 20.8 94.1 6.5 20 15.7 39.3 28.9 55.8.7-3.8 2.4-7.3 3.5-10.9 7.6-22.8 12.1-47 9.8-71-1.9-24.8-9.7-48.5-16.8-72.2-1.9-5.4-2.6-12-7.7-15.6-3.6-2.2-7.4 2.4-7.6 5.7m-742.6-1.5c-19.5 25-32 56.5-30.5 88.5.5 25.9 13.3 51 33.6 67 7.7-5 15.5-10 21.9-16.7 11.4-11.3 19.5-25.8 22.8-41.5 5.5-25.1-2.2-52.1-18-72.1-7.9-10.4-18.5-18.5-29.8-25.2m173.9 18.8c-16.3 17.3-26.2 40.9-25.3 64.8.6 20.5 9.6 40.3 24 54.8 6.5 6.9 14.5 12.1 22.5 17.2 10.5-8.2 18.8-19 24.8-30.8 9.8-20.4 10.9-44.1 6.3-66-4.5-21.4-14.5-41.5-28-58.7-8.9 5.1-17.2 11.3-24.3 18.7m-232.8-17c-6 1.2-9.5 7-10.5 12.7-2.6 14.1 1 28.3 2.7 42.3-1.8 8.9-4.2 17.7-7.6 26-.9 2.3-2.6 4.1-4.1 6.1-.9-.5-1.9-.9-2.8-1.4-2.8-6.6-2.7-13.8-3.1-20.9-.5-12.4 2.2-24.7 1.9-37.1 0-6.2 1.7-12.5-.3-18.6-1.6-2.6-5.3-1.4-7.5-.4-7.1 4.1-14 8.7-20.9 13.2.1 13.2-.6 26.5.6 39.7.4 13.2 3.6 26.4 9.9 38 5.5 10.3 13.8 18.7 22.7 26.2 4.9-5 9.4-10.3 13.9-15.7 9-11.3 15.7-24.9 17.3-39.4 1.8-18.2-1.6-36.3-4.6-54.2-1-4.8-1.8-9.7-3.6-14.2-.7-1.4-2.3-2.8-4-2.3m314.7-.1c-2.6.9-3 4.1-3.8 6.3-2.9 11-4.3 22.3-6 33.4-1.8 14.9-2.8 30.4 2.1 44.8 5.2 16.2 16.5 29.3 28.1 41.4 4.9-4 9.5-8.4 13.7-13.1 12.2-14 18.4-32.6 18.9-51 1.2-13.2.4-26.5.6-39.7-6.8-4.6-13.7-9.1-20.8-13.2-2.3-1.1-6-2.3-7.6.3-2.3 7 .1 14.4-.3 21.6-.4 6.1 1 12.1 1.2 18.2 1 10.2.9 20.6-.7 30.8-.7 2.9-1.3 6.5-4.6 7.4-6.7-7.9-8.2-18.6-11-28.2-1.6-4.4.2-8.9.6-13.3 1.5-11.5 3.9-23.5.8-35-1.3-5.3-5.5-10.5-11.2-10.7m-389 6.7c-1.7 18-2.5 36.1-4 54.2-.4 4.4.3 9.2-1.6 13.3-3.4-11.5-5.5-23.4-6.5-35.3-.4-10.3-.1-20.5 0-30.8-1.1-.7-2.3-1.4-3.4-2.1-3.2 1.4-3.7 5-4 8-1.2 12.6-2.3 25.2-1.7 37.9.7 18.4 9.1 35.6 20.2 50 3.5-7 6.2-14.5 7.9-22.1 4.6-20.3 3.2-41.2 2.6-61.8-.4-3.9-.1-7.9-.8-11.7-1.8-3.8-7.5-3.6-8.7.4m455.7 0c-1 11-.8 22-1.3 33.1-.4 21 1.5 42.9 11.3 61.9 11.1-14.3 19.5-31.6 20.2-50 .6-13-.5-26-1.8-38.9-.2-2.8-1.1-5.7-3.8-7-1.2.7-2.3 1.4-3.4 2.1.1 10.6.4 21.3-.1 31.9-1 11.6-3 23.2-6.4 34.3-.8-1.3-1-2.9-1.1-4.3-1.1-19-2.7-38-3.9-57-.6-2.8.5-6.5-2.2-8.4-2.6-2.3-6.4-.4-7.5 2.3m-251.2 45.8c-8.3 24.5-9.1 52.9 3.3 76.3 5.2 10.1 12.6 19.1 21.6 26.1 1-.6 2-1.3 3-1.9 1 .6 2 1.3 2.9 1.9 3.4-3.1 7.2-5.8 9.9-9.6 17.8-18.7 23.7-46.2 19.9-71.3-3.1-22.7-13.2-43.9-27-61.9-2 1.2-4 2.4-5.9 3.8-1.9-1.3-3.8-2.6-5.9-3.6-9.1 12.2-17 25.6-21.8 40.2m-569.5-31.3c-2 5.7-3 11.7-4.8 17.5-9.3 35-19.4 70.5-18.5 107 .1 11.1 2.1 22.1 4.3 33 3.1-3.5 6.5-6.7 9.7-10 8.3-8.5 15.6-17.9 22.2-27.7 9.2-14.5 16.2-30.5 20-47.2 4.7-18.7 6.8-38 9.6-57 .4-3.5.3-7.3-1.5-10.5-2.5-3.1-6.7-.3-9 1.5-4 21-8 42.1-14.9 62.3-4.9 14.2-10.7 28.1-17.7 41.4-.4.4-1.2 1.3-1.6 1.7 5.4-35.2 10.8-70.3 16.2-105.5.2-1.8.8-3.7.6-5.5-1.5-2.9-4.3-6.1-8-5.3-2.3.9-4.9 2.2-6.6 4.3m1180.1 4.1c5.6 36 11.1 72 16.7 107.9-2.4-1.9-3.1-5-4.5-7.5-4.5-8.6-8-17.7-11.6-26.7-8.7-22.6-13.5-46.4-17.9-70.1-.1-2-2.5-2.4-3.9-3.3-1.8-1-4.2-1.1-5.4.7-2.1 3.8-1.9 8.3-1.2 12.4 3.2 22.2 5.6 44.7 12.4 66.3 6.1 19.1 16 36.8 28.9 52.1 6 7.8 13.3 14.5 19.9 21.7 1.5-8 3.3-15.9 3.8-24 2.1-24.1-1.6-48.3-6.8-71.8-4.7-20.8-10.5-41.2-15.8-61.8-2.6-2.1-5.5-4.6-9-4.3-3.4.9-6.8 4.6-5.6 8.4m-1117.9 29c-8.8 23-18.4 45.8-25.2 69.6-5.7 20.9-8.8 43.2-4.2 64.6 20.2-15.6 39.2-33.9 50.9-56.9 10.7-20.6 15.3-43.6 20.9-65.9.3-3.3 1.2-8.4-2.9-9.7-3 .4-7.3 1.2-7.9 4.7-2.1 7.7-4.6 15.3-7.2 22.9-7.9 23.7-19.2 46.3-33.9 66.5 2.4-11.2 5.9-22.2 8.5-33.4 5.5-20.9 10.8-41.9 16.6-62.7-1.5-2.4-3.7-5.4-6.9-4.9-3.3.8-7 2.1-8.7 5.2m1055.3 2.4c8.2 31.1 16.6 62.2 24.3 93.5-6-8-11.2-16.6-15.9-25.4-11.5-20.3-18.9-42.6-25.5-64.9-1.1-2.9-5-3.5-7.6-3.8-4 1.3-3.1 6.4-2.8 9.7 5.2 20.6 9.5 41.8 18.6 61.2 7.9 17.3 20.1 32.3 33.9 45.3 5.9 5.9 12.8 10.7 18.9 16.3.7-1.5 1.2-3 1.3-4.7 3.4-22.9-.7-46.2-7.6-68.1-6.5-20.3-14.6-40.1-22.2-60-1.2-4.3-6.1-6.1-10.1-6.6-3.3.4-7.1 4.1-5.3 7.5m-1004.6 7.3c-3.4 23.8-10.8 46.7-18.5 69.4-2.5 7.8-4.8 16-3.9 24.3 12.8-8.6 24.2-19.5 32.5-32.6 9.5-15.1 14.3-32.5 18.5-49.7.6-2.6 1-5.5-.1-8-1.8-1.6-4.4.2-6.3.8-4.9 18.8-11 37.4-20.7 54.3-2.6 4.8-5 9.8-8.8 13.8 5.4-23.6 11.6-47 17.2-70.5.4-1.3-.8-2.5-1.2-3.6-.7-.2-2.1-.7-2.8-1-2.1.6-4.1 1.5-5.9 2.8m960-1.6c-2.3 2.5-.3 6 .3 8.9 5.2 21.7 11 43.2 15.8 64.9-3.8-4-6.1-9-8.8-13.8-9.7-16.9-15.8-35.6-20.8-54.4-1.6-.6-3.1-1.4-4.7-1.5-1.9-.2-2.1 1.9-2.2 3.2-.4 3.3.8 6.4 1.5 9.6 3.1 12.3 6.5 24.6 12.2 36 8.2 17.4 22 31.6 37.8 42.3 1.1-10.7-2.9-20.9-6-30.9-7.1-20.4-13.1-41.3-16.3-62.7-2.4-1.9-6-4-8.8-1.6m-650 96.3c-2.2 11.6.9 23.8 7.3 33.6 11.3 17.4 28.2 30.1 44.3 42.8.9.6 1.7 1.8 2.9 1.7 4.9-6.3 9.3-13.1 13.4-20 4.8-9.2 8.6-19.5 8.1-30.1-.1-11.1-5.3-21.5-11.4-30.4-7.9-10.8-17.9-19.8-28.1-28.2 1.7 6.3 4.5 12.3 6.7 18.5 4.2 11.3 9.4 22.9 8.9 35.2-.1 9-4 17.5-8.4 25.2-2.4-3.2-5.2-6.1-7.6-9.2-9.6-12.2-13.9-27.7-15-42.9-.6-13.3-.8-26.6-1.1-40-8.4 13.7-17.4 27.8-20 43.8m329-43.7c-.4 12.3-.6 24.5-1 36.8-.6 13.7-3.6 27.6-10.7 39.5-3.2 5.8-8.1 10.4-11.9 15.7-4.8-7.6-8.5-16.2-8.6-25.2-.5-9.4 2.6-18.5 5.9-27.2 3.1-8.9 7.1-17.4 9.8-26.5-10.3 8.4-20.3 17.4-28.1 28.2-6.4 9.2-11.7 20-11.4 31.5-.3 10.2 3.4 20.1 8.1 29.1 4.1 6.9 8.5 13.6 13.4 20h.6c8.7-6.5 17.2-13.4 25.4-20.6 11.3-10.6 22.9-22.3 27.4-37.5 4.2-13.5.4-27.9-5.6-40.3-4.2-8.1-8.4-16-13.3-23.5m-222.9 38.1c-4.9 8.1-9.5 17-9.3 26.7-.6 12.2 6.2 23.2 13.4 32.4 6.5 7.3 12.9 14.7 20.4 21 4.8-5.7 10.6-10.5 15.1-16.6 7-8.8 13.6-18.6 15.4-30 1.2-6.4.3-13.1-1.7-19.3-4-11.6-11.9-21.4-20.5-29.9.8 13.6 4.8 27 3.3 40.7-.9 9.4-6 17.7-11.5 25.2-1 1-1.7 2.6-3 3.2-6.9-10.2-10.6-22.6-9.6-34.9 1.3-15.4 6.3-30.2 9-45.3-7.6 8.6-15.1 17.1-21 26.8m115.7-26.7c2.8 15.8 8.3 31.2 9.1 47.3.5 11.8-3.4 23.4-9.8 33.1-7.6-8.7-14.1-19.2-14.7-31-.8-12.9 2.8-25.5 3.5-38.4-11 11-21.3 24.3-22.7 40.4-.9 12.2 4.6 24 11.9 33.6 4.8 6.8 10.4 13 16.4 18.8.8 1.1 1.7 2.1 2.6 3.1 3.5-2.8 6.5-6.1 9.7-9.3 6.3-6.8 13-13.5 17.5-21.7 3.7-6.5 6.9-13.8 6.5-21.5.4-10.3-4.5-19.8-9.8-28.4-5.6-9.4-12.9-17.7-20.2-26M91.2 815c-6.6 50.3-8.4 101-16.4 151.1-5.2 33.7-14 67-27.6 98.3 8.3-4.5 16.2-9.8 23.7-15.6 24.5-18.2 43.1-44.1 52.9-73 9.2-26.3 12.3-54.2 14.1-81.8 1.4-24.1 2.1-48.3 3-72.4-2.4-1.3-5-3-7.8-2.4-3.3.9-5.9 3.6-7.4 6.6-3.9 7.2-5.6 15.4-7.4 23.3-3.9 20.1-5.7 40.5-7.8 60.9-1.9 16.9-3.1 34-7 50.6-.9 3-1.2 6.4-3.5 8.8-.2-17.1 1.2-34.3 1.8-51.4 2.1-34.3 4.5-68.6 9.8-102.5-4.7-3.8-10.1-8.5-16.7-7.4-2.7 1-3.3 4.3-3.7 6.9m1560.1.4c5.7 40 8.6 80.3 10.6 120.6.1 11.1 1.4 22.3 1 33.4-2-2-2.4-4.9-3.2-7.5-2.6-10.4-4-21.1-5.2-31.8-2.8-23.3-4.4-46.7-8-69.9-1.6-10.1-3.5-20.2-7.1-29.7-1.8-4.3-4-9.1-8.6-10.9-3.1-1.3-6.3.5-9 2.2 1.4 28.4 1.8 56.9 4.1 85.3 2.1 24.8 5.9 49.6 14.6 73 6.2 16.3 14.9 31.8 26.3 45 13.5 16.3 30.7 29.1 48.9 39.6-15-33.9-23.8-70.2-29-106.8-7-47.4-8.9-95.4-15.1-142.9-.5-2.6-1-5.9-3.8-6.9-6.3-1.1-11.7 3.6-16.5 7.3m-991.7 3c-13.9 4.3-25.5 13.6-36.6 22.7-18.6 16.3-34.8 35.2-49.1 55.3 2.2 2.1 4.4 4.3 6.5 6.5 3.8-1.8 8-2.7 11.7-4.6 3.5-2.2 6.1-5.4 9.2-8 7.5-6.2 14.2-13.2 21.6-19.4 3.2-2.6 6.8-5.2 11-5.7 2.9-.1 5.5 1.5 7.4 3.6 7.3 7.4 14.8 14.7 23.1 20.9 4.9 3.4 10.4 6.7 16.6 7 4.6.1 8.5-2.7 13-3.3 3.9-.1 7.6 2 10 5.1.9 5.5-4.2 9.8-4.1 15.3 7.8 5.8 16.3 10.7 25.4 14.1 7.7 2.7 17.1 3.4 23.7-2.2-3.9-3.9-7.2-8.4-10.8-12.6-14.1-16.7-28-33.7-42-50.4-.8-9.6-1.8-19.3-5.2-28.4-2.2-5.6-5.4-11.3-10.8-14.4-6.2-3.9-13.9-3.5-20.6-1.5m429.4-1c-5.7 1.3-10.7 5-13.6 10.1-6.3 10.6-7.3 23.2-8.4 35.2-17.6 21-34.9 42.3-52.9 62.9 7.3 6.1 17.6 4.7 25.8 1.4 8.2-3.5 16.1-8 23.2-13.3 0-5.3-4.5-9.4-4.2-14.7 1.6-3.4 5.5-5.3 9.1-5.7 4.9.2 9.1 3.5 14 3.3 6.4-.3 12-3.8 17.1-7.4 8.2-6 15.4-13.2 22.5-20.5 2.3-2.5 5.8-4.4 9.3-3.2 6.2 1.9 10.8 6.9 15.6 11.1 7 6.7 14.4 13 21.5 19.7 4 3.7 9.7 4.4 14.5 6.7 2.1-2.2 4.2-4.4 6.5-6.3-15.5-22-33.3-42.5-54.1-59.5-7.6-6-15.3-11.9-24.2-15.8-6.7-3.3-14.3-5.5-21.7-4m-933 22.5c-4.8 33.3-6.5 66.8-10.8 100.2-4.5 35.7-12.1 71.5-28.6 103.8 22.7-11.1 43.9-27 57.7-48.5 11.6-17.1 17.9-37.3 21.4-57.5 5.3-31.5 4.8-63.5 6.8-95.3-2.3-1.2-4.9-2.3-7.6-1.7-3.6.5-5.6 4-7.3 6.9-4.2 8.3-5.8 17.6-7.5 26.7-2.6 16.2-4.1 32.4-5.8 48.7-1.3 11.7-2.5 23.4-5.3 34.9-.9 2.9-1.2 6.3-3.8 8.4 1.4-43.1 3.4-86.3 9.7-129.1-4-3.1-8.8-6.1-14-6.2-4 .5-4.5 5.3-4.9 8.7m1431.9-2.6c6.3 42.7 8.3 85.9 9.7 129.1-2.1-1.5-2.6-4.1-3.3-6.4-2.4-8.8-3.6-18-4.7-27.1-2.8-23-4.2-46.3-9-69-1.9-7.5-3.7-15.6-9.2-21.3-3.1-2.9-7.8-1.9-11.1.1 2.3 36.1 1.2 72.8 9.5 108.3 4.7 20.1 13.4 39.5 26.8 55.4 13.3 16.2 30.9 28.3 49.6 37.6-10-19.9-17-41.2-21.7-62.9-10.2-46.4-11-94.1-17.7-141-.2-2.8-1-5.4-2.2-7.8-5.8-2.9-12 1.6-16.7 5M218.3 852.9c-.7 1-1.7 1.8-2.1 3-3.1 22-3.8 44.1-5.8 66.1-2.5 31.6-7.8 63.8-22.7 92.2 21.1-9 40.7-23.3 52.1-43.6 8-14 11.9-30 13.6-45.9 2.5-19.9 1.3-39.9 2.1-59.9-.1-1.4.5-3.7-1.3-4.3-3.1-1.6-7.1-.7-9.3 2.1-3.9 5.1-5.2 11.6-6.5 17.7-4.1 21.6-3.9 43.8-7.5 65.5-.9 3.9-1.3 8.2-4 11.3-.2-33.4.6-67 5.2-100.1-4.2-2.2-8.8-4.5-13.8-4.1m1312.6 4.4c4.7 33.1 5.4 66.7 5.2 100.1-2.5-2.8-2.9-6.7-3.8-10.2-3-16.9-3.4-34.2-5.4-51.2-1.2-9.7-2.3-19.6-6.1-28.7-1.5-3.6-4.6-7.8-9-7.2-1.8.1-4.6.7-4.2 3 .7 21-.5 42 2.2 62.9 2.1 19.8 8 39.8 20.6 55.5 11.5 15 27.9 25.5 45 33-14.4-27.2-19.8-58.1-22.5-88.5-2.2-23-2.9-46-6-68.9 0-1.7-1.4-2.8-2.3-4-4.9-.6-9.5 1.7-13.7 4.2M279 865c-1.9.9-2 3.2-2.4 5-4.6 24.9-6.5 50.2-12.1 74.9-3.6 16.3-9 32.4-17.7 46.7 17.1-7 32.8-18.5 42.4-34.5 9.6-15.6 13.2-34.1 14.9-52.1 1.3-11.3 1.6-22.6 3-33.9-2.4-.4-5.3-1.3-7.2.6-3.5 3.4-5 8.3-6.4 12.8-4.9 18.2-5.9 37.1-10.2 55.4-.9 2.9-1.3 6.3-3.8 8.3 1.8-26.8 4.2-53.7 9.7-80-3.2-1.5-6.5-3.7-10.2-3.2m1194.9 3.3c5.4 26.3 7.9 53.2 9.6 80-2.5-2.4-3-6-3.9-9.1-3.9-17.2-5.1-35-9.4-52.2-1.4-5.2-2.9-10.6-6.4-14.7-1.9-2.5-5.2-1.8-7.8-1.2 1 6.5.9 13.2 1.8 19.8 1.6 22.2 3.8 45.4 15.4 65 9.5 16.6 25.7 28.6 43.2 35.8-9.7-16.1-15.3-34.2-19-52.5-4.8-23.2-6.7-46.8-11.1-70-.3-1.5-.7-3.4-2.3-4.1-3.7-.6-7 1.6-10.1 3.2m-844.2 8.4c-3.5 4.5-5.3 9.9-7.1 15.2-2.1 6.8-3.6 14-2.6 21.1.1 1.9 1.2 3.4 2.2 4.9 10.1-3.7 21.4-2.8 31.2-7.6 4.8-2.6 7.6-7.5 9.2-12.5-9.9-2.7-16.8-10.8-23.4-18.1-2.3-2.4-6.3-6-9.5-3m494.1 3.1c-6.6 7.3-13.4 15.4-23.3 18.1 1.6 5.2 4.7 10.4 9.8 12.8 9.6 4.5 20.6 3.7 30.5 7.3 3.7-4.6 2.5-11 2-16.5-1.8-8.7-4.2-17.6-9.5-24.8-3.3-3-7.2.6-9.5 3.1m-258.7 22.5c-9.4 18.1-15.5 38.2-15.8 58.7.3 10.7 2 21.7 7.5 31.1 4.2 7.6 10.6 13.9 18.2 18.2-.1-41.2 0-82.4 0-123.6-3.9 4.8-7.1 10.1-9.9 15.6m22.9-15.7v123.6c10.5-5.8 18.5-15.8 22.2-27.2 4.6-13.8 4-28.9 1.2-43-4-19.1-11.7-37.7-23.4-53.4m-80.9 15.6c-6.3 2.5-8.9 9.4-12.5 14.6 2.2 6.9 4.8 13.7 7.1 20.6 2.1 6.7 5.3 13.1 6.6 20.1-7.1-9.2-12.1-19.7-18.4-29.5-2.2-3.2-5.3-7.7-9.8-6-6 2.5-11.4 7.6-12.5 14.2-1 4.3.3 8.7 1.7 12.7 4 10 10.8 18.5 16 27.8 1.7 2.8 5.1 3.6 7.7 5.4 12.1 7.4 24.3 14.4 36.4 21.7-.9-23.3-1.9-46.6-5.6-69.7-1.7-9-3.3-18.2-7.6-26.4-1.7-3.3-4.9-6.9-9.1-5.5m143.9.6c-3.6 2.4-5.3 6.6-6.8 10.5-3.8 10.9-5.5 22.3-6.9 33.7-2.1 18.9-3.1 37.8-3.7 56.8 14-8.3 28-16.7 42-24.9 1.5-.9 2.2-2.5 3.1-4 3-5.6 7-10.6 10-16.1 3.6-6.3 7.3-13.2 7-20.6-.5-7.2-5.9-13-12.2-15.9-1.7-.8-3.6-.7-5.3 0-3.1 2.2-5.2 5.6-7.2 8.8-5.2 9-10.1 18.2-16.4 26.4.3-3.2 1.6-6.1 2.6-9.1 3.8-10.5 7.5-21 11-31.6-2.5-4.1-5-8.3-8.2-11.9-2.1-2.4-5.9-4-9-2.1m-352.4 1.7c-6.7 2.7-12 7.9-17.6 12.4-7.1 7.2-16.7 10.8-25.2 16.1.5 6.3-.7 13.3 2.8 18.9 2.2 1.9 5.5 2 8.3 2 5.8-.2 11.7-.6 17.5-.9 8.4-8.4 17.9-15.7 26.2-24.2.4-7.2 0-14.8-2.7-21.6-1.2-3.9-6.1-4-9.3-2.7m556.7 1.9c-2.8 5.7-3.1 12.3-3.3 18.6.1 1.6-.4 3.7 1.1 4.7 8.2 8 17.2 15.2 25.4 23.3 5.2.3 10.4.5 15.6.8 3.4.1 7.1.2 10-1.7 3.8-5.6 2.6-12.8 3.1-19.2-8.5-5.2-18.1-8.9-25.2-16.1-5.6-4.5-10.9-9.7-17.6-12.4-3-1.1-7.3-1.2-9.1 2m-489.7 15.7c-.3 7.2 4.2 13.3 6.9 19.8 11.7 1.6 24.4 2.4 35.3-2.9-6.4-14.9-22.4-21.7-31.8-34.2-4.2 5.3-9.3 10.5-10.4 17.3m403.9-.6c-5.9 4.8-11.3 10.5-14.3 17.6 11 5.1 23.6 4.4 35.3 2.8 2.7-6.4 7.2-12.6 6.9-19.8-1-6.8-6.2-11.9-10.2-17.2-5.3 6.2-11.5 11.4-17.7 16.6m-439.1 6.7c-2.5 1.8-5.1 3.6-7.5 5.7-2.1 3-3.2 6.6-5.1 9.8-1.7 3.6-4 7.2-4 11.3-.3 6.1 4.3 10.8 8.2 14.9 1.9.2 3.9.1 5.9 0 13.1-1.5 26.4-2.5 39.1-6-.3-5.3.4-10.9-1.7-15.8-3.5-3.3-8.8-3.1-13.2-4.1-.8-4.6-1.7-10.5-6.7-12.3-4.8-1.9-10.1-2-15-3.5m486.6 3.6c-4.6 2-5.4 7.7-6.2 12.1-4.4 1-9.7.8-13.1 4.1-2.1 5-1.5 10.6-1.7 15.9 14.7 3.7 29.9 5.4 45 6.2 3.1-3.7 6.8-7.2 8-12 1.2-5.4-1.8-10.3-4.1-14.9-1.7-3-2.8-6.4-4.8-9.3-2.3-2.1-4.9-3.8-7.4-5.6-5.2 1.5-10.7 1.5-15.7 3.5M694.2 954c-9.7 4.6-17.1 12.7-26 18.6-.2 5.7-.9 11.3-1.2 17 10.4.6 21.2-1.8 29.8-7.8 8.1-5.4 13.5-14.3 15.4-23.8.2-1.8 1.1-3.7.4-5.5-6.1-1.8-12.7-1.1-18.4 1.5m356.2-1.5c-.6 1.4 0 2.9.2 4.4 1.6 9.2 6.5 18 13.9 23.7 8.9 6.9 20.4 9.7 31.5 9-.3-5.7-.9-11.4-1.2-17.1-7.9-5.1-14.5-12-22.7-16.8-6.4-4-14.4-5.3-21.7-3.2m-466.3 13.6c-.9 7-2.5 14.9 1.3 21.3 1.4 2.6 4.4 3.7 7.2 4.2 8.3 1.2 16.5-.5 24.7-1-3.3-9.8-7.9-19.1-13.6-27.7-6.5.8-13.1 1.8-19.6 3.2m575.2-3.2c-5.7 8.6-10.3 17.9-13.6 27.7 6.4.3 12.8 1.7 19.3 1.4 4.6 0 10.7-.5 13-5.2 3.4-6.4 1.8-13.9 1-20.7-6.6-1.4-13.2-2.4-19.7-3.2m-706.9 107.5c-3.2 3.3-6.2 6.8-9.8 9.6-6.1 1.3-12.4.7-18.6 1.6-21.2 1.1-43.5 3-63.6-5.3-14.3-5.4-27.8-12.9-42.5-17.2-7-2.1-15.2-3.9-22-.3-5.2 2.5-8.2 7.8-10.5 12.8 6.8 1.8 13.8 3 20.5 5.2 3.6 8.5 6.9 17.7 13.9 24.2 8.2 8 20.1 10.8 31.3 10.9 24.6.6 49.2-3.3 73.8-2.1 5.2 2.4 9.8 5.7 14.8 8.5 6.3 14.2 11.8 29.1 21.9 41.1 4.4 5.7 10.7 9.6 16.8 13.2 10.7 5.6 22.5 8.6 34.1 11.4 1.2-7.8 2.7-16.3-1.3-23.6-4.7-8.1-13.3-12.7-19.7-19.3-7.2-6.6-14.5-13.7-17.8-23.1-3.2-10.5-2.6-22.2 2.1-32.2 5.6-12.3 15.6-21.8 26-30 24.2-19.3 52.3-33.2 75.4-54-2.3-3.6-4.7-7.1-7.4-10.4-.2-6.5 0-13-.1-19.4-6.6-.7-13.2-1-19.7-1.8-32.4 33.6-64.9 67-97.6 100.2m740.7-98.2c-.1 6.5.1 12.9-.1 19.4-2.6 3.3-5 6.8-7.4 10.3 21.2 19 46.6 32.5 69.4 49.3 11.8 9 23.8 18.7 30.8 32.2 5.8 10.8 7 23.9 3.1 35.5-3.4 9.1-10.5 15.9-17.5 22.4-6.4 6.6-15 11.1-19.7 19.3-4 7.3-2.5 15.8-1.3 23.5 16.5-4 33.7-8.6 46.7-20 11.3-10.7 17.4-25.4 23.6-39.4 1.3-2.6 1.6-6.2 4.7-7.5 4.3-2.4 8.4-5.3 12.9-7.3 18.6-.7 37.3.8 55.8 2 11 0 22.2 1.1 33-1.8 9.6-2.3 18-8.7 22.9-17.2 3.3-4.9 4.8-10.6 7.3-15.8 6.7-2.2 13.7-3.5 20.5-5.3-2.4-5-5.3-10.3-10.6-12.9-4-2.3-8.7-2.2-13.1-1.8-20.7 3.6-38.5 15.4-58.3 21.6-10.5 3.3-21.7 3.8-32.7 3.9-14.2-.4-28.4-1.2-42.6-2.4-10.8-10.4-21-21.5-31.7-32.1-25.2-26-50.7-51.8-75.9-77.8-6.6.8-13.3 1.1-19.8 1.9m-558.9 6c-3.4 5.7-4.1 12.4-5.3 18.8 2.6 4.5 8.3 7.6 13.5 5.6 5.2-2.8 8.8-8 10.5-13.5 1.6-4.8 2.6-10.8-.9-15-5.9 1.2-12.3 1.1-17.8 4.1M1111 974c-2.7 3-2.6 7.3-2 11.1 1.4 7.2 5.3 14.5 12.3 17.7 5.1 1.6 9.6-1.7 12.8-5.3-1-6.6-1.8-13.5-5.3-19.4-5.5-2.8-11.9-2.8-17.8-4.1m-350.8 19.3c-4.7 2.2-7.4 7.1-9.3 11.7-8.6 21-17.1 42.1-25.7 63.2-7.3 17.3-13.6 35.1-22.2 51.8-22.6 46.5-44.9 93.1-67.5 139.7-11.3 19.7-23 39.1-34 58.9-7.1 16.3-10.3 35.1-5.5 52.4 3.3 12.1 11.9 22.6 23.5 27.6 15.3 6.9 32.9 4.8 48.3-.3 9.3-3 18.6-7.6 24.5-15.7 5.8-7.8 8.1-17.3 10.5-26.5 2.9-12.6 6.1-25.2 9.7-37.6 23.9-86.9 48.1-173.7 72-260.6 2-7.3 4.2-14.6 5.9-22 .9-4.2.5-8.5-.8-12.5-1.6-5-3.2-10.1-6-14.6-.6-1.1-2.5-1.9-3.3-.6-4 4-6 9.4-9.4 13.9-3 3.4-3.3 8.1-4.8 12.2-19.3 64.3-38.8 128.7-64.4 190.8-16.2 39.7-35 78.4-56 115.8-.8 1.4-1.7 2.7-3 3.6 4.5-11.9 9.7-23.6 14.1-35.5 30.8-77.2 58.2-155.7 85.8-234.1 6.9-20.6 14.2-41 21.7-61.4 2.2-4.8 3.5-10.2 2.6-15.5-.3-3.1-3.5-6.2-6.7-4.7m236 3.7c-.9 4.3-.5 8.8 1 12.9 11.4 30 21.4 60.5 32.1 90.8 14.8 42.2 29.7 84.4 45.3 126.4 14.3 39.4 29.9 78.3 45.5 117.3-2.8-2.2-4-5.8-5.8-8.8-12.2-22.4-24.1-45-34.6-68.3-34.9-74.9-59.3-154.1-82.9-233.2-1.5-4.1-1.8-8.7-4.8-12.1-2.8-3.9-4.9-8.2-7.7-12-1.1-1.5-2.9-3.6-4.7-1.8-3.4 5.1-5.1 11.1-6.9 16.9-2.4 8.1 1.3 16.1 3.1 23.9 26.5 95.6 52.9 191.3 79.3 287 2.9 11 5 22.2 8.5 33.1 2.7 7.9 6.9 15.6 13.8 20.6 8.3 6.3 18.5 9.4 28.5 11.7 11.4 2.5 23.6 2.6 34.6-1.5 7.7-2.9 14.8-7.9 19.6-14.7 5.9-8.4 8.9-18.8 8.9-29 .5-12.8-2.5-25.7-7.7-37.4-10-17.9-20.4-35.5-30.7-53.2-4.2-6.8-7.3-14.2-10.8-21.4-19.9-41.4-39.9-82.7-59.9-124.1-8.1-15.5-13.9-32-20.7-48-9.2-22.3-18.1-44.6-27.3-66.9-1.9-4.6-4.5-9.6-9.3-11.7-2.7-1.5-5.5.9-6.4 3.5m-641.3 1.6c-5.1 2.2-9.3 5.9-13.4 9.5 4.5 4.6 9.5 8.7 13.8 13.4 5 5.4 10.7 10 16 15.1 11.6 10.4 25.8 18.5 41.5 20.4-7.5-11-15.8-21.4-23.3-32.5-2.2-3.1-5.1-5.7-7.5-8.6-4.8-5.3-9-11.1-14.5-15.7-3.5-2.8-8.5-3.3-12.6-1.6m1040 2.2c-6.5 5.8-11.6 13-17.6 19.3-4.1 4.2-6.9 9.4-10.4 14-5.6 7.5-11.1 15.2-16.6 22.8 15.3-1.4 29-9.4 40.5-19.2 5.9-5.8 12.4-11 18-17.1 4.1-4.3 8.7-8.1 12.9-12.4-4.3-3.7-8.7-7.6-14-9.7-4.5-1.7-9.5-.8-12.8 2.3m-586.8 20.3c-6.1 19-10.7 38.5-15.3 58-2.7 11.1-4.7 22.4-8.5 33.2-10.5 32.9-21.2 65.8-31.6 98.8-9.7 44.6-19.4 89.2-29 133.9-3.6 10.7-7.2 21.3-10.9 32-3.3 10-5.7 20.5-5.6 31.1.3 10.2 3 21 10.5 28.3 6.6 6.8 16.1 9.8 25.3 10.6 28.6 1.3 57.5-16.8 67.5-43.8 3.9-9.2 1.8-19.4 3-29.1 4.4-83.5 15.8-166.5 21.5-250 1.4-25.2 2.9-50.6.6-75.9-1.2-9.7-2.2-19.9-7.2-28.5-1.5 9.7-4.1 19.3-5.9 28.9-10.5 50.9-19.3 102.2-28.3 153.4-1.7 10.3-3.9 20.6-5.1 31-4.6 33.9-9.2 67.9-15.4 101.6-2.1 10.9-4.1 21.9-7.8 32.4-.5 1.6-1.8 2.6-2.9 3.7-.8-1.4-1.8-2.8-1.8-4.4-.8-8.7-.2-17.5 0-26.2 3.3-47.7 10.5-95.1 20-142 5.2-24.7 11.6-49.2 16.1-74.1 4.9-25.6 9.3-51.2 12.6-77 1.3-11.2 3.1-22.5 2.1-33.9-1.7 2.5-3 5.1-3.9 8m143-8c-1.1 11.5.9 23 2.1 34.4 4.8 36.5 11.4 72.8 19.2 108.8 5 21.4 10.1 42.8 13.8 64.4 4.2 22.6 7.7 45.4 10.6 68.2 2.7 23.2 5.5 46.5 5.3 70-.3 3.9.4 8.3-2.2 11.6-3.6-2.7-3.9-7.5-5.3-11.4-4.7-18.1-7.6-36.6-10.6-55.1-3.8-24-7.1-48.1-10.3-72.2-1.2-10.6-3.4-20.9-5.2-31.4-8.9-50.7-17.6-101.5-28-151.9-1.9-9.6-4.4-19.1-6-28.8-3.1 4.8-4.3 10.6-5.5 16.1-4 23.2-3 46.8-2.1 70.2 2.5 46.4 7.4 92.7 11.9 139 4.8 49.9 9.9 99.8 11.4 149.9.4 3.6 1.8 7.1 3.1 10.5 10.8 25.8 38.9 42.8 66.6 41.5 9-.8 18.2-3.7 24.8-10.2 7.9-7.3 10.7-18.4 11-28.8 0-10.9-2.5-21.6-5.9-31.9-3.6-10.4-7.1-20.8-10.6-31.2-9.7-44.6-19.3-89.2-29-133.8-9.6-30.4-19.4-60.8-29.2-91.2-2.1-7.2-4.9-14.2-6.4-21.5-5.3-23.1-10.6-46.1-17.2-68.9-1.8-5.4-2.9-11.4-6.3-16.3m-661.9 8.2c-4.3.9-6.8 5-8.9 8.5 5.7.8 11.3 1.9 16.9 3.1-3-4.6 1.5-9 4.8-11.8-4.3 0-8.6-.4-12.8.2m1171.8-.2c3.3 2.8 7.7 7.2 4.8 11.8 5.6-1.2 11.2-2.4 16.8-3.1-1.9-3.4-4.3-7.1-8.2-8.4-4.4-.9-8.9-.2-13.4-.3m-1139.8 4.5c-7.6 1.7-12.8 8-17.2 14 3.1 5.1 8.4 8.4 14.2 9.6 15.4 3.4 30.1 9.6 45 14.7 8.8 3.2 17.9 5.1 27 7.1-13.5-12.8-25.8-27.2-41.2-37.8-8.2-5.2-17.9-10-27.8-7.6m1107.9.4c-8.5 2.6-16.3 7.4-23 13.2-12.1 9.6-22.1 21.3-33.3 31.8 3-.9 6.1-1.2 9.1-2 21.2-4.7 40.7-14.8 61.9-19.6 6.1-1.1 11.9-4.4 15.2-9.8-2.5-3.2-4.9-6.6-8.1-9.2-5.8-5.4-14.5-6.7-21.8-4.4m-577.9 7c1.2 5.2 1.9 10.6 1.9 16 .6 16.7-.6 33.4-2.1 50-4.3 44.5-10.5 88.8-15.5 133.2-4.9 44.1-9.2 88.5-8.4 133 1 22.8 2.4 45.9 10.2 67.6 3.6 9.7 8.7 19.4 17.2 25.6 7.7 6.1 17.9 8 27.5 7.4 10.9.8 22.5-2.5 30.3-10.5 9.4-9.9 14.3-23.1 17.5-36.2 5.6-24.6 6.4-49.9 6.2-75.1-1-44.5-5.7-88.8-11-133-5.3-45.6-12-91.1-15-137-.2-13.7-1.2-27.5 1.6-41-6.2 1-12.5.8-18.6 1.7V1350c-.3 11.4 3.3 22.7 1.8 34.2-.6 3.6-2.6 7-5.7 9.1-7 4-18.4 1.6-20.4-7.1-2.5-11.3 1.2-22.8 1.3-34.2v-317.3c-6.2-.9-12.6-.6-18.8-1.7z"/><path class="st0" d="M577.6 48.1c13 0 26.1-1.9 39 .4 23.3 4.4 45.7 12.3 68.4 18.8 21.6 6.2 43.7 11.5 66.2 13.1-.3.3-.8 1-1.1 1.3-17.3 4.6-35.4 7.3-53.3 4.9-17.8-2.4-35-8-52.3-12.9.2 6.9.1 14.6-4.7 20.1-3.1 4.2-9 5-13.7 3.8-7.2-2.1-13.6-6.5-18.5-12.2-7.5-7.5-12.6-17.1-15.7-27.2-2.8-5.6-9.8-6.5-14.3-10.1zM1126 53.2c10.8-2.7 21.7-5.7 33-5.8 8.8 0 17.6.7 26.5.7-4.7 3.8-12.5 4.6-14.7 11-3.8 12.8-11.7 24.3-22.2 32.6-5.6 3.9-12.5 7.7-19.5 5.9-4.3-.9-7.2-4.9-8.8-8.7-1.9-4.8-1.8-10.1-1.7-15.2-14.1 4.1-28.2 8.3-42.6 11.3-19.5 4.1-39.8 2.6-59-2.3-1.7-.7-4.5-.2-5.1-2.3 13.4-1.1 26.8-3 39.9-6.2 25-6.2 49.4-14.2 74.2-21zM343 232.1c1.8-.7 4.6-2.3 5.9-.1.8 1.3-.2 2.9-.7 4.1-2.8 4.8-6.7 8.9-10.5 12.9-7.8 7.8-16.2 15.2-25.6 21-3.3 2-6.7 4.1-10.6 4.6-.8-.9-2.4-1.9-1.5-3.3 2.2-5.2 6.3-9.3 9.9-13.4 9.9-9.9 20.5-19.5 33.1-25.8zM1414 234.1c-1.1-2.6 2-4 4-2.8 8.7 3.6 16 9.7 23.3 15.5 8.1 7.7 17.3 15 22.1 25.4-.8 3.3-4.5 2.2-6.6 1.1-11.8-5.9-21.9-14.8-31.3-24-4.3-4.8-9.1-9.3-11.5-15.2zM375.2 272.2c8.8-7.9 17.9-15.9 28.8-20.6 2-1.5 5 .2 4.2 2.7-3.4 7.7-10 13.4-15.8 19.3-8.4 7.7-17.1 15.3-27.5 20.1-2 1.3-4.3.8-6-.7 2.7-8.7 10.2-14.5 16.3-20.8zM1354.4 253.7c.5-.9.8-2 1.6-2.6 2.1-.1 4.1.9 5.9 1.8 9.1 4.8 17 11.5 24.7 18.3 5.5 5.5 11.6 10.7 15.6 17.4 1.1 1.8 1.4 3.8 1.5 5.9-6.7.3-12-4.5-17.4-7.8-9.2-6.7-17.5-14.5-25.2-22.8-2.6-3.1-4.9-6.5-6.7-10.2zM421.3 295.4c8.6-7 17.1-14.8 27.8-18.4.5.3 1.6.9 2.1 1.1-.5 7.2-6.9 11.9-11.3 17-10.5 10.1-21.3 20.9-35.4 25.7l-2.7-1.8c3.7-9.8 12.2-16.5 19.5-23.6zM1312.7 282.3c-1.4-1.8-1.3-4.5 1-5.5 10.7 3.8 19.4 11.5 28.1 18.6 7.2 7.2 15.8 13.8 19.4 23.6-.9.6-1.8 1.2-2.7 1.7-10.3-3.3-18.8-10.5-26.9-17.5-6.5-6.7-14.2-12.6-18.9-20.9zM466 322.2c1.4-1.3 3.3-1.3 5.1-1.4-.1 1.6.1 3.3-.5 4.7-3.6 7.9-9.3 14.5-14.9 21.1-4.8 5.2-9.9 10.4-16 14-1.7 1.4-4.5-.5-3.4-2.5 2.1-6.7 7-12 11-17.7 5.7-6.6 11.7-13 18.7-18.2zM1291.9 320.8c1.8 0 3.7.1 5.1 1.4 7 5.2 13 11.5 18.6 18.1 4 5.6 8.9 11 11 17.7 1.1 2-1.6 3.9-3.3 2.6-6.1-3.6-11.2-8.8-16-14-5.6-6.5-11.3-13.2-14.9-21-.7-1.5-.5-3.2-.5-4.8zM780.3 374.7c4.1 4.4 6.3 10.3 7.3 16.1 2.2 11.9 2.1 24.4-.5 36.2-1.5 6-3.7 12.2-8.6 16.2-4.4-6.9-5.3-15.3-5.6-23.3-.4-12.3.6-24.7 3.8-36.5.8-3 2.1-5.9 3.6-8.7zM974.8 394.9c1-7.2 2.8-14.7 7.9-20.1 3.3 5.9 4.7 12.5 5.8 19.1 1.7 10.3 1.9 20.8 1.3 31.3-.8 6.4-1.5 13.2-5.7 18.3-7.5-7.8-9.3-19-10.1-29.4-.1-6.5-.4-12.9.8-19.2zM841.5 391.8c3.3 2.9 5.1 7.1 6.4 11.3 2.2 7.1 3.4 14.5 4.1 22 .3 9.5.8 19.5-2.5 28.6-.7 2.2-2.2 4-3.8 5.6-6-9.5-6.3-21.2-7.4-32.1-.5-11.9-.9-24.1 3.2-35.4zM915.6 401.6c1.3-3.6 3-7.2 5.9-9.8 4.1 11.3 3.6 23.5 3.3 35.3-1.2 10.5-1.4 21.7-6.9 31-.5 1.5-2 .2-2.3-.6-3-4.2-3.8-9.4-4.5-14.4-1-14 .1-28.2 4.5-41.5zM739.6 476.9c3.9 2.6 5.4 7.4 6.8 11.6 3.2 11.9 3.5 24.5 1.4 36.6-1.2 6.9-3.7 13.8-8.8 18.8-4.4-6.4-5.3-14.3-6-21.8-.4-15.3-.1-31.2 6.6-45.2zM1017.8 484.9c1.2-3 2.7-6.2 5.5-7.9 6.7 13.9 7 29.9 6.6 45.1-.7 7.5-1.5 15.5-6 21.9-7.1-7-9-17.3-9.9-26.8-.4-10.9 0-22.1 3.8-32.3zM807.6 480.9c3.8 3.4 5.7 8.4 7 13.2 1.4 5.9 2.4 11.9 2.6 18 .4 10.8.1 21.9-4 32-1.2 3.1-3.3 5.8-5.6 8.1-2.7-4.1-4.2-8.8-4.9-13.6-1.5-9.8-2.1-19.8-1.1-29.6.6-9.6 1.8-19.4 6-28.1zM947.9 496.1c1.2-5.6 3.3-11.1 7.2-15.3 3 5.2 4.2 11.2 5.2 17.1 2.2 14.6 2.5 29.7-.6 44.3-.7 3.6-2.3 6.9-4.3 10-6.4-5.9-8.1-14.8-9.3-23-.8-11.1-.7-22.3 1.8-33.1zM880.6 533.5c.2-1 .6-2 1.1-2.9 2.5 9.7 3.2 19.9.8 29.7-.3.5-.9 1.6-1.2 2.2-3.2-9.4-2.7-19.5-.7-29zM690.3 571.7c2.2 2.3 4 5 4.9 8.1 3.5 10.6 3.5 22.1 2.7 33.2-1.1 10-3.4 20.7-10.9 28-6.2-10.5-5.1-23.2-5-35 1.4-11.6 2.3-23.9 8.3-34.3zM1067.8 579.8c.9-3.1 2.8-5.7 4.9-8.1 6 10.3 6.9 22.6 8.2 34.2.1 11.7 1.3 24.5-5 35-7.4-6.9-9.6-17.2-10.8-26.8-.8-11.5-.9-23.3 2.7-34.3zM757.1 593.9c1.1-3.2 1.8-6.7 4.4-9.1 1.8 2.5 3.7 5.1 4.6 8.1 3.4 10.4 3.4 21.5 2.8 32.3-1.1 10.2-3.2 21.1-10.8 28.7-1.4-2.1-2.7-4.3-3.3-6.7-2.6-9.5-2.1-19.4-1.8-29.1.7-8.2 1.8-16.4 4.1-24.2zM1001.5 584.8c2.7 2.7 3.5 6.7 4.7 10.2 3.7 13.7 4.5 28 3.7 42.1-.6 5.8-1.6 11.8-4.9 16.7-7.7-7-9.6-17.8-10.9-27.6-.7-10.9-.8-22.1 2.5-32.7 1-3.3 2.9-6.1 4.9-8.7zM832.3 603.7c4.2 3.2 6.1 8.4 7.6 13.3 3.3 12.1 3.9 24.7 3 37.1-1.1 8-2.4 16.7-8.4 22.5-3.2-4.5-4.7-9.8-5.7-15.2-2.5-14.7-2.4-29.8-.1-44.6.7-4.5 1.8-8.9 3.6-13.1zM924.1 614c1.3-3.9 3.3-7.8 6.6-10.3 5.2 13.4 5.5 28.2 5.2 42.4-1 10.4-1.3 21.6-7.4 30.5-6-5.9-7.3-14.6-8.4-22.5-.9-13.5-.3-27.3 4-40.1zM783.9 713c.9-3.8 1.9-7.6 4-10.9 7.2 7.4 9.7 17.8 11.5 27.6 2.3 14 2.4 28.5-1.5 42.2-1.4 4.9-3.9 9.4-7.5 12.9-6.9-9.4-7.8-21.5-9-32.7-1-13.1-.2-26.3 2.5-39.1zM974.3 703c.3-.2.8-.4 1.1-.6 2.3 4.1 3.4 8.8 4.3 13.5 2.8 16.2 3.2 32.8.4 49-1.3 7-3 14.2-7.4 19.9-6.9-6.7-9-16.6-10-25.8-1.5-11.1-.4-22.3 1.7-33.2 1.8-8 4.1-16.5 9.9-22.8zM875.7 758.2c.7-7.4 2.7-14.8 5.9-21.5 7 16.2 9.2 35.9 0 51.7-5.7-8.9-7.2-19.9-5.9-30.2zM1567.2 1289.8c5.6 4.6 11.5 8.8 17 13.5-4.2 5.6-9 12.3-7.1 19.7 1.8 4.8 6.6 7.4 10.3 10.7 22.8 17.9 45.7 35.7 68.5 53.5 3.9 2.6 8.2 5.8 13.2 4.8 6.3-1.3 10.7-6.5 14.4-11.4 5.6 4.4 11.5 8.6 16.8 13.4-1.3 3.4-4.4 5.9-6.4 9-15.8 20.3-31.8 40.5-47.4 60.9-5.9-4.4-11.9-8.7-17.3-13.8 4.2-5 7.9-11.3 6.7-18-1.8-5-6.4-8.1-10.4-11.4-15.9-12.3-31.5-24.9-47.6-37 6.7 31.1 13.9 62.2 20.5 93.3 8.2 1.1 14.2-5.9 19.1-11.5 4.9 4.1 10.1 7.9 15.1 12 1 .6 1.7 1.9.7 3-17.7 22.8-35.6 45.5-53.4 68.3-5.4-5-11.9-8.8-17.1-14.1 4.1-4.3 7.1-9.8 7.8-15.8.2-5.3-4.3-8.8-7.9-12-21-16.3-41.8-32.7-62.7-49-5-3.7-9.5-8-15.1-10.7-4.4-2.2-9.7-.6-13.4 2.3-3.6 2.5-7.3 6.6-6.1 11.3 1.5 4.8 4.9 8.8 8.3 12.4 18.4 21.2 36.9 42.4 55.3 63.7 3.1 3.9 7 7.8 12.1 8.8 6.9.1 12.7-4.3 17.8-8.6 4.2 5.7 9.2 10.7 13.8 16.1 0 1.5-1.5 2.1-2.4 3-21.5 18.3-42.6 37.2-64.2 55.3-4.5-5.6-9.5-10.8-14.1-16.3 5-4.4 10.8-10.1 9.9-17.4-1.1-5.4-5.3-9.2-8.6-13.3-13.1-14.8-25.8-29.9-39-44.6 1 14.7.5 29.4 1.2 44.1.9 17.3.4 34.7 1.5 52 7.8 2 14.8-3.3 20.5-7.9 4.7 5.4 9.2 11 14.2 16.1-12.8 11.4-25.9 22.4-38.8 33.7-9.1 8.1-18.7 15.7-27.4 24.1-5.4-4.8-9.7-10.7-14.4-16.1 4.3-4.1 8.7-8.6 10.4-14.5 1.3-4.4-1.7-8.5-4.1-11.9-18.3-21.1-36.7-42.1-55-63.2-4.8-5-8.6-11.6-15.5-13.7-5.6-1-11.1 2.1-15.3 5.6 9.1 7.9 18 16.2 27.3 23.8-2.2 3.4-5.4 5.9-8 9.1-2 2.4-4.1 4.8-6.3 7-15.7-9.8-32.6-21.2-51.9-20.1-9 0-17.6 3.9-24.8 9-8.9 7.2-13.3 18.7-13.6 29.9-.2 15.7 5.7 30.7 13.2 44.3 4.7 8.8 10.5 17.2 17.8 24.1 7.3 6.2 15.9 11.4 25.5 12.6 17.7 2.8 35.9-7.1 45.2-22.1 8-12.7 11.1-28 11-42.9 7.6-.1 15.2-.1 22.9 0 1 .9.4 2.6.7 3.9 0 17.9-3.6 36.2-13.1 51.5-8.6 14.2-21.8 25.2-36.6 32.5-18.6 9.6-40.8 13.4-61.2 7.9-16.8-3.9-31.9-13.8-43.1-26.9-11.5-13.8-19.8-30.4-23.5-48-4-20.4-.8-42.5 10.7-60.1 9.8-15.6 25.6-26.5 42.3-33.8 10-4.1 20.8-6.4 31.6-6.3 0-2-.1-4-.2-6 4.5-2.6 9.1-4.9 13.7-7.4l3.6 3c22-18.7 43.6-37.9 65.5-56.8 4.9 5.3 9.6 10.8 14.3 16.3-4 4.3-10 8.5-9.7 15-.3 6.6 5.1 11.3 9 16 13 14.8 25.8 29.9 38.9 44.6.1-13.2-1.2-26.4-1-39.6.1-12.3-1.2-24.6-1-37-.1-6.3 0-12.6-.6-18.9-1.5-1.6-4.2-1.6-6.3-1-5.7 1.2-10.3 5-14.9 8.2-4.6-5.5-9.3-10.9-14-16.2 20.9-18.8 42.5-36.8 63.4-55.5 14.2-18 28.2-36.1 42.3-54.1 5.3 4.8 11.3 8.8 16.7 13.5-2.5 4.8-7.1 9.1-6.7 15-.3 5.3 4 9.2 7.7 12.2 17.1 13.3 34.1 26.7 51.2 40-7.4-31.3-13.7-62.9-21.2-94.1-8.3-.6-14.2 6.2-19.1 11.9-5.6-4.5-11.2-9-17-13.2 18.3-23.3 36.8-46.4 54.9-69.7zM181.7 1304.4c5.2-5.1 11.3-9 16.9-13.7 23 29.6 46.1 59 69.2 88.5 6 8 12.7 15.6 18.3 23.8-9.3 16-18.9 31.9-28.4 47.8-5.6-3.3-11.3-6.5-16.8-9.8-1.2-.7-.2-2.2 0-3.1 3.5-9.6 6.6-19.6 6.7-29.9-.5-13.4-8.1-25.1-16.1-35.3-2.9-3.4-5.1-7.8-9.4-9.8-4.4-1.2-8.4 1.7-11.6 4.3-7.6 5.8-15 11.7-22.5 17.6 11.9 15.4 24.8 30.4 33 48.3 6.3 12.8 9.7 27.9 6 42-3.8 14.2-15.3 24.9-28.1 31.3-4.7 2.1-9.6 4-14.8 4.1 6.9 5.6 16.5 7 24.9 4.4 7.7-2.3 15.1-5.4 22.4-8.6 37.1-16 74.1-31.9 111.2-47.9 9.5 9 18.6 18.3 28.1 27.3-15.3 38.5-31.1 76.8-46.7 115.3-2.9 7.2-6 14.4-8.4 21.8-2 6.3-.7 13.9 4.3 18.4 5 2.6 11.6 4.3 16.9 1.5 3.8-3 6.4-7.1 8.7-11.3 12.2-21.2 24.4-42.3 36.6-63.5 3.6-6.9 8.8-13.3 10.4-21 1-5.1-3-9.1-6.6-12-2.2-2.2-5.5-3-7.2-5.6 3.9-5.8 7.1-12.1 10.7-18.1 25.8 14.5 51.2 29.5 76.9 44.2-3.1 6.4-7 12.3-10.5 18.6-4.9-1.5-9.2-5.1-14.6-4.6-6.8-.6-10.9 5.8-13.8 11-4.1 7.4-8.9 14.5-12.4 22.2 17 9.6 33.9 19.5 50.8 29.3 4.6-9.2 10.4-17.8 15.1-27 1.5-3.6 3.2-7.9 1.1-11.6-2.4-5.3-8.1-7.9-12.6-11.1 3.8-6.1 7-12.6 11-18.6 18.5 10.9 37.3 21.5 55.9 32.3 6.1 3.3 11.8 7.5 18.4 9.6 20.5 7.1 41.2 14 61.7 21.3 1.9.4.5 2.5.3 3.6-2.1 5.8-4.1 11.7-6.1 17.6-6.1-1.4-12.7-4.1-18.8-1.5-5.5 2.5-7.1 9-9.1 14.2-2.4 7.7-5.7 15.1-7.5 22.9 8.7 2.3 16.9 6.6 26 7.5 5.7.8 10.9-2.7 14.2-7.1 7.5-9.1 11.4-20.6 19.2-29.5 5.2-6.2 12.1-11.3 20.1-13 10-2.2 20.5.2 29.6 4.5 8.2 4 15.5 10.8 18.5 19.6 2.9 7.9 1.1 16.8-2.9 24-2.8 4.2-6.6 8.1-11.6 9.3-9.7 2.6-21-1.3-26.1-10.1-1.7-4.9 1.1-9.5.8-14.4-2.8-1.3-6.7-2.1-9 .4-5.4 5-8 12-11.7 18.2-3.1 5.1-6.4 10.2-11.3 13.7-4 2.8-9 4.4-13.8 3.5 9.1 4.9 16.3 13.6 18.8 23.6 1.7 6.2.6 12.7.9 19.1.2 8.3-.1 16.7.8 25 .2 5.2 5.3 9.2 10.4 8.4 5.8-1.1 9.1-6.6 11.4-11.6 5.3 3.2 10.7 6.2 16 9.5-3.7 8.6-9.2 16.5-16.6 22.2-6.5 4.9-14.6 7.6-22.7 7.7-10.6-.5-20.8-4.2-30-9.4-9.3-5.4-16.7-14.9-17.5-25.8-.8-11.7 2.5-23.3 6.2-34.3 2.1-6.6 4.2-13.8 2.1-20.7-.9-3-2.9-5.7-5.6-7.3-7.4-5-16.2-7.2-24.5-10.3-4.2 12.2-8.5 24.4-12.6 36.7-1.4 4.8-2.8 10.8.8 15 3.9 4.1 9.3 6.3 14.5 8.2-2 7-4.8 13.7-6.9 20.7-28.1-9.4-56-19.2-84-28.8-.1-.3-.4-.7-.6-1 2.5-6.6 4.6-13.4 7.1-20.1 6.5 2.2 14.2 4.4 20.6.6 4-3.6 5.6-8.9 7.4-13.8l28.2-81.9c1.6-5 2.8-11.5-1.6-15.5-3.1-2.8-7.1-5.9-11.5-5.1-5 1.3-7.9 6-10.4 10.2-14.9 25.8-29.8 51.5-44.7 77.3-2.3 4.5-5.6 9.9-2.8 15 2.4 5.7 8.1 8.5 12.8 11.9-3.3 6.1-6.9 12.1-10.4 18.1-7.7-3.5-14.7-8.4-22.2-12.4-18.2-10.6-36.6-20.9-54.8-31.7 3.6-6.2 7-12.5 10.8-18.5 5.4 3.4 11.9 6.1 18.3 4.3 4.6-1.4 6.9-6 9.4-9.7 6.4-11 12.8-22.1 19.1-33.1-10.6-6-21.2-12.2-31.8-18.3-6.5-3.5-12.7-7.8-19.5-10.7-6 10.6-12.2 21.2-18.3 31.8-2.3 4.4-5.5 9.2-4.4 14.4 1.9 6.3 7.7 10.1 13 13.4-3.4 6.3-7.1 12.4-10.7 18.6-23.6-13.6-47.3-27.2-70.8-40.8-.9-.4-1.9-.7-2.8-.8-7.1-6.6-13.9-13.6-20.9-20.3-6.5-6.5-13.5-12.4-19.9-19-7.8-7.9-15.8-15.4-23.9-22.9 4.2-5.9 10.1-10.5 14.9-15.9 5.2 4.6 10.9 11.2 18.6 9.9 3.7-3.4 5.4-8.2 7.6-12.6 2.3-5.1 4.7-10.3 6.9-15.4-6-6-12.2-11.8-18.2-17.9-6.5-6.6-13.6-12.5-20.1-19.2-5.4 2.1-10.4 5.1-15.7 7.3-4.2 1.7-8.7 3.9-10.9 8.2-1.2 3.5-.2 7.4 2.1 10.3 2.7 3.2 5.2 6.7 8.5 9.3-5 5.3-10.5 10.1-15.1 15.7-7.9-7.9-15.9-15.7-23.8-23.5-10.9-10-21.6-20.3-31.8-31 4.4-4 8.4-8.3 12.6-12.6-10.4.1-20.1-5-28.1-11.3-11.7-9.6-21.1-21.7-30.4-33.6-14-18-28-35.9-42.1-53.8-4.3-5.7-9.1-11-12.9-17 5.6-4.4 11.5-8.5 16.7-13.4 3.5 5 8.2 9.4 14 11.4 5 1.2 9.7-1.5 13.5-4.4 22.1-17.2 44.2-34.5 66.2-51.7 4.7-3.9 10.4-7.1 13-12.9 1.6-7.4-2.7-14.3-7.2-19.6M138 1423.7c-3.1 2.5-7.3 4.8-7.4 9.3.2 5.3 3.6 9.7 6.5 14 5.4 7.8 12.7 15 22 17.8 12.4 3.4 25.3-4.9 31.1-15.6 4-7.8 1-17-3.2-24-5.1-9.2-12.3-16.8-18.4-25.3-10.3 7.8-20.4 15.9-30.6 23.8m138.9 91.9c8.4 8 16.5 16.2 24.8 24.3 6.8-15.3 13.8-30.6 20.4-46-15.1 7.5-30.3 14.2-45.2 21.7z"/><path class="st0" d="M1158.2 1623.3c4.8-1.5 9.5-3.1 14.2-4.9 13 15.1 25.4 30.7 38.3 45.9.8 1.1 3.1 2.3 1.4 3.7-5.1 4.2-10.3 8.2-15.3 12.5-11.8-9.8-23.5-20.8-38.4-25.9-11.1-3.9-23.7-3-34.2 2.3-7.5 3.8-13.5 10.4-16.8 18.3-5.8 13.6-4.4 29-.8 43.1 3.7 13.9 8.9 27.7 17.7 39.2 8.1 10.4 20.4 18 33.8 18.5 14.7.4 29.7-6.4 38.8-18.1 9.2-11.1 14.3-25.1 16.4-39.2 7.6 1 15.2 2.5 22.9 3.5-1.8 18.8-8.5 37.6-20.9 52-12.6 15.4-31 25.3-50.2 29.5-19.4 4.9-40.5 2.7-58.3-6.5-20.4-10-35-29.3-42.4-50.4.5 12.5.1 25.3-4.5 37.2-5 14.4-14.6 26.9-26.4 36.5-17.8 14.2-40.8 21.4-63.5 20.6-7.6-.1-15.2.6-22.6-1.4-15.6-3.2-30.2-11.3-41.2-22.8-15.4-14.4-23.4-35.2-25.2-55.9-8.3 7.5-19.5 10.5-30.4 12.1-16.5 1.7-33 0-49.4-1.7-1.2 8.9-1.6 17.9-2.6 26.8-.5 5-1 10.8 2.3 15.1 4.6 5 11.9 5.6 18.2 6.6-.9 7-1.2 14.1-2.1 21.1-29.7-2.6-59.4-5-89-7.9.9-7 1-14.1 2.1-21.1 6.1 0 12.8.7 18.2-2.8 4.3-3.3 4.9-9.2 5.4-14.2 2.4-28.6 5-57.3 7.4-85.9.4-5.2 1.2-10.8-1.4-15.6-4.4-5.8-12.3-6-18.8-7.3.6-7.1 1-14.3 2-21.3 21.1 1.7 42.2 3.7 63.3 5.4 13.4 1.4 26.8 2 40.1 4.1 9.3 1.6 18.8 3.7 27.2 8.3 9.1 4.8 16.6 12.8 20.3 22.5 2.7-3 4.5-6.5 7.1-9.5 7-8.1 15.4-15 24.8-20.2 17.6-9.1 37.8-12.7 57.5-11.6 20.8 1.1 41.2 10.4 55.3 25.7 8.7 8.4 15.1 18.9 19.6 30.1-.2-10-.1-20.1 2.7-29.8 5.4-21.4 20.5-40.1 40.3-49.8 16.9-9.1 36.7-13.5 55.8-10.4.4-2.2.8-4.3 1.3-6.4m-192.5 65.6c-8.3.7-16.8 4-22.4 10.4-6.9 6.6-10.8 15.7-12.9 24.9-3.2 14.8-1.8 30.1 1 44.7 3.3 15.4 9.2 31.7 22.6 41.1 13.2 9.5 32.3 8.8 45.2-.9 9.6-7.6 14.8-19.5 16.4-31.4 1.7-13.6.4-27.4-2.5-40.8-3.3-15-9.4-30.6-22.1-40.2-7-5.5-16.2-8.6-25.3-7.8m-156.1 9.4c-2.2 3.1-2.8 7-3.2 10.7-1 12.6-2.3 25.2-3.3 37.8 9.9 1.3 20.2 2 29.8-1 6.2-1.8 10.9-7 12.8-13.1 1.9-6 2.8-12.7 1.1-18.9-1.7-7.5-7.9-13.4-15-15.8-3-1.1-6.2-.7-9.2-1.6-4.3-.1-9.5-1.1-13 1.9z"/></g></svg>