<svg id="svg2041" xmlns="http://www.w3.org/2000/svg" viewBox="0 0 680.2 327"><style>.st0{fill:#686868}.st1{fill:#888}</style><g id="layer1" transform="translate(-8.48 -404.626)"><g id="g2058" transform="translate(7.081 7.088)"><path id="path26" class="st0" d="M211.5 611.3h43.2v14.1h-20.5v99.1h-22.6l-.1-113.2"/><path id="path28" class="st0" d="M280.2 682l3.9-56.6h1.3l3.9 56.6h-9.1zm-25 42.5h22.2l2.1-30.1h10.7l2.1 30.1h22.2l-11.8-113.2H267l-11.8 113.2"/><path id="path30" class="st0" d="M346.8 684.9v21.3c0 2.9 2.2 3.7 3.5 3.7 2.1 0 3.6-1.8 3.6-3.7v-26.4c0-3.5-.6-7.4-9.1-7.4h-9.2V660h9.6c6.4 0 8.7-1.5 8.7-8.4v-22.5c0-1.9-1.5-3.7-3.6-3.7-1.3 0-3.5.7-3.5 3.7v18.5h-22.6v-16.1c0-7.9.9-20.2 16.8-20.2h18.7c15.9 0 16.9 12.3 16.9 20.2v18.1c0 12.3-8.6 15.7-15.4 15.4v1.1c15.2-.4 15.4 11.3 15.4 15.3v22.8c0 8-1 20.2-16.9 20.2H341c-15.9 0-16.8-12.2-16.8-20.2v-19.4h22.6"/><path id="path32" class="st0" d="M391.4 611.3h52.4v113.2h-22.6v-99.1h-7.1v99.1h-22.6l-.1-113.2"/><path id="path34" class="st0" d="M481.3 673.6v-48.2h3c2.4 0 4.2 2 4.2 5.7v36.8c0 3.6-1.8 5.7-4.2 5.7h-3zm-22.6 50.9h22.6V686h13c15.8 0 16.8-12.2 16.8-20.2v-34.2c0-7.9-1-20.2-16.8-20.2h-35.6v113.1"/><path id="path36" class="st0" d="M555.8 706.3c0 1.9-1.5 3.7-3.6 3.7-1.3 0-3.5-.8-3.5-3.7v-77.1c0-3 2.2-3.7 3.5-3.7 2.1 0 3.6 1.8 3.6 3.7v77.1zm-29.8-2c0 8 1 20.2 16.8 20.2h18.8c15.8 0 16.8-12.2 16.8-20.2v-72.8c0-7.9-1-20.2-16.8-20.2h-18.8c-15.8 0-16.8 12.3-16.8 20.2v72.8"/><path id="path38" class="st0" d="M652.1 611.3h29.5v113.2H659v-71h-.8l-11.7 71h-18.1l-11.6-71h-.8v71h-22.6V611.3h29.4l14.8 79.6 14.5-79.6"/><path id="path40" class="st1" d="M182.1 456.6c-6.9-30.3-24.3-55-26.7-59-3.8 5.7-17.6 27.5-24.7 51.6-7.7 27-8.8 50.9-6.2 74.4 2.6 23.6 12.6 47.8 12.6 47.8 5.3 12.6 13.2 26.3 18.4 32.9 7.6-9.8 24.9-39.2 30.4-77.4 3-21.3 3.2-40-3.8-70.3zm-26.7 140.1c-3.4-6.4-8.7-18.6-9.2-37.5-.1-18.2 7.2-33.9 9.3-37.1 1.9 3.2 8.2 16.9 8.9 35.5.6 18.2-5.4 32.6-9 39.1zm24.7-88.6c-.3 11.6-1.6 23.8-3.4 31.2.6-12.6-.9-30.3-3.8-44.3-2.9-13.8-11.1-37-17.6-47.7-6 10.2-13.5 30.3-17.4 47.6-3.9 17.4-4 38.4-4 44.7-1-5.3-3.6-24.3-2.9-43.3.6-15.7 4.3-31.9 6.3-39.3 7.7-24.8 16.4-40.6 18-43.1 1.6 2.5 12.6 22.1 18.3 42.6 5.6 20.4 6.8 40 6.5 51.6"/><path id="path42" class="st0" d="M167.2 611.3h-52.7v35.4l.1-.1c12.4-12.4 32.6-12.4 45 0 12.4 12.3 12.4 32.5 0 44.9l-.2.2c-.1 0-.1.1-.2.2-12.4 12.2-28.6 18.4-44.8 18.4-16.3 0-32.5-6.1-44.9-18.6-21.9-21.8-24.5-55.7-7.8-80.4 2.2-3.3 4.8-6.5 7.8-9.5 12.4-12.4 28.7-18.6 44.9-18.6v-85c-62.5 0-113.1 50.6-113.1 113S52 724.5 114.5 724.5c32.6 0 61.9-13.8 82.6-35.8v-77.3h-29.9"/></g></g></svg>