<svg id="Слой_1" xmlns="http://www.w3.org/2000/svg" viewBox="0 0 1024 846"><style>.st0{fill:#888}.st1{fill:#686868}</style><g id="_x23_b69768ff"><path class="st0" d="M486.4 0h52.1C624.7 2.9 711.1 17.4 792 47.9c33.2 12.6 65.4 27.8 95.5 46.6 29.2 18.2 56.6 39.7 79.7 65.3 19.1 21.3 35.2 45.6 45.3 72.4 6.3 16.5 10 33.9 11.4 51.4v23c-1.7 21-6.8 41.8-15.4 61-11.8 26.7-29.2 50.6-49.5 71.4-18.3 18.9-39.1 35.4-61.1 49.9-57.1 37.5-121.8 62.2-187.9 78.4-95 22.8-193.9 28.2-290.9 18.1-82.1-8.9-163.5-29.1-237.9-65.3-35.8-17.6-69.9-39-99.7-65.6-25.4-22.8-47.7-49.5-62.6-80.4C6.3 348-.6 319 .3 290c.9-36.8 14.5-72.4 35.1-102.6 18.3-26.8 41.7-49.8 67.4-69.5 42.6-32.6 91.3-56.5 141.7-74.5C322.1 16 404.3 2.7 486.4 0m-6.2 6.3c-71.9 2.5-143.7 13.9-212.4 35.5-49.5 15.8-97.6 37.1-140.9 66-32.8 22.1-63 48.9-85.7 81.5-20.9 30-34.6 65.8-35 102.7-.8 32.2 8.6 64.2 24.6 92 16.8 29.6 40.4 54.8 66.7 76.3 45 36.6 97.7 62.6 152.2 81.8 80 27.8 164.8 40.7 249.4 42.2 84.6 1.1 169.8-9.3 250.8-34 38-11.7 75-26.5 110-45.4 26.6-14.5 52-31.3 74.9-51.1 22.8-19.7 43.2-42.6 58.3-68.7 15.8-27.2 25.3-58.5 25.3-90.1 0-30.1-8.5-59.8-23-86.1-15.4-28-36.9-52.4-61.1-73.2-24.5-21-51.8-38.7-80.3-53.7-37.8-19.8-77.8-35-118.7-46.6C686.6 21.6 636.5 13 586.1 8.7c-35.2-2.9-70.6-3.9-105.9-2.4z"/><path class="st0" d="M117.9 155.7c73.3-.2 146.6-.3 219.9-.4 0 21.4-.2 42.9-.3 64.3-41.6 0-83.2-.4-124.8-.3-10.4 18.5-22 37.1-24.9 58.6-2.1 18.8 0 38.3 7 55.9 4.1 10.6 10 20.5 16.6 29.7 36.5.2 73 .2 109.5.3 5.6.2 11.2.5 16.8.4.7 20.2.5 40.4.1 60.6-12 0-23.9.1-35.9 0-28.3.7-56.7.4-85 .5-35 .1-70 .2-105 .4-1.5-.1-3.4.2-4.5-1.2C90.6 407.4 76 388 65.6 366.4 53.5 341.2 47.8 313 48.8 285c1.1-20 6.5-39.6 14.4-57.9 11.5-26.1 27.8-50.6 49.9-69 1.4-1.1 2.9-2.5 4.8-2.4zM365.7 160c.3-1.1-.6-3.8 1.4-3.5 29-.1 57.9 0 86.9-.1 1.1.2 3.6-.5 3.3 1.4.2 31.9 0 63.9.1 95.8 37.3-.1 74.7.1 112-.1v-97.1c29.7.1 59.5-.1 89.2.1-.1 82.5 0 165 0 247.4-.2 7.3.3 14.7-.2 22-29.6.5-59.3.1-89 .1 0-6.7 0-13.4-.5-20-.3-29.6-.5-59.2-1.1-88.8-36.8-.2-73.6 0-110.4 0-.5 36.2-.7 72.4-.8 108.7-15.5.8-31 .2-46.5.3-14.8.1-29.5 0-44.3-.1-.1-88.7 0-177.4-.1-266.1zM688.5 156.5c73.6-.1 147.3-.1 220.9 0 19.4 18.4 37.4 39.3 48.5 63.9-45.2.1-90.4 0-135.6 0-.1 58.2 0 116.4 0 174.6-.2 10.5.4 21-.3 31.5-44.6 0-89.2 1-133.9.9.4-90.3.1-180.6.4-270.9zM138.7 452.5c54.1-.4 108.2 0 162.3-.2h349.1c79.1.1 158.2-.1 237.3.1-21.3 16.1-44.5 29.6-68.3 41.6-79.2 39.5-167.2 59.2-255.1 65.2-51.3 3.1-103 1.9-154-4.6-46-5.7-91.5-15.6-135.5-30.4-35.4-12-69.8-27.4-101.5-47.2-11.9-7.4-23.5-15.5-34.3-24.5z"/></g><g id="_x23_0055a0ff"><path class="st1" d="M262.2 69.4c67.4-26 139.8-37.3 211.7-39.9 17.3-.3 34.7-1.4 52.1-.4 43.3.6 86.5 5.1 129.1 12.8 47.8 8.8 95 22 139.6 41.3 19.5 8.6 38.6 18.2 56.6 29.7 8.2 5.4 16.8 10.5 24.1 17.2-24.8.2-49.7.2-74.5-.2-217.2-.2-434.5 0-651.7-.3 35.1-24.6 73.1-44.9 113-60.2zM69.4 660.5c5.3-1.6 9.9 2.7 12.3 6.9 4 7.9 3.7 17 3.6 25.6-.5 7.1-.7 15.1-5.6 20.7-2.5 2.9-6.6 5.6-10.5 3.9-5.5-2.2-8.9-7.9-9.9-13.5-1.6-9-1.5-18.2-.5-27.3.8-6.6 4-13.8 10.6-16.3m.2 4.1c-2.9 2.5-3.4 6.8-3.9 10.4-.5 8-.4 16-.2 24 .2 4.6.5 9.5 3 13.5 1.5 2.4 5.3 2.2 6.9-.1 2-3.1 2-6.9 2.3-10.4.6-10.9.9-21.9-.9-32.7-.3-3.5-3.7-6.5-7.2-4.7zM134.4 663.3c1.4-3.3 5.8-3.9 8.7-2.5 3.4 2.3 3.9 7 3.1 10.7-.4 2.1-2.5 3.8-4.6 2.8-2.8-2.2-2-6-1.2-8.9-.4-.3-1.1-.8-1.4-1-3.5 7 .4 16-5.1 22.4 3.3 1.6 5.7 4.6 6.4 8.2 1.9 5.6.3 11.7 2.4 17.2 1 .2 2.1.4 3.1.6-.1 1.5-.1 2.9-.2 4.4-1.2.4-2.5.8-3.7 1.2-2.4-.8-5.1-1.9-6-4.5-2.4-6.7-1-14-2.9-20.8-.8-2.5-3.3-3.5-5.7-4-.2 7.9 0 15.8-.1 23.7h3.4c0 1.3 0 2.7.1 4.1h-13.5v-4.1h3.5c0-15.7.1-31.5-.1-47.2-.9 0-2.6.1-3.4.1v-4.3h13.5v4.3c-.8 0-2.5-.1-3.3-.2-.1 6.6-.1 13.2 0 19.8 1.5-.6 3.4-1 4-2.7 2.1-6.3.1-13.3 3-19.3zM261.4 660.5c6-1.9 11.2 3.5 13.4 8.5 3.1 8.2 2.9 17.2 2.7 25.9-.5 6.7-1.1 14.3-6.1 19.4-2.5 2.6-6.5 4.8-10.1 3.2-5.5-2.3-8.7-8-9.7-13.6-1.6-8.8-1.5-18-.5-26.9.7-6.6 3.8-13.7 10.3-16.5m.9 3.9c-1.8.9-2.6 3-3.2 4.9-2 6.7-1.3 13.8-1.5 20.8.2 7.2-.6 14.9 2.6 21.7 1.1 3 5.5 3.3 7.3.8 2.3-3.3 2.1-7.6 2.5-11.5.5-10.3.7-20.8-.8-31.1-.3-3.4-3.2-7.1-6.9-5.6zM349.4 660.3h6.2c3.6 17.5 7 34.9 10.5 52.4.9 0 2.6 0 3.4.1v4h-14.1c.1-1.3.2-2.6.5-3.8l3.2-.4c-.5-3.1-1.2-6.3-1.7-9.4-3.7-.3-7.4-.8-11.1 0-.9 3.1-1.3 6.4-1.9 9.6h3.4c0 1.3.1 2.7.1 4h-11.4v-3.7c1-.2 2-.4 2.9-.5 3.2-17.5 6.6-34.9 10-52.3m-2.4 38.1h9.4c-1.6-8.6-3.3-17.2-4.7-25.8-1.9 8.5-3.2 17.1-4.7 25.8zM389.2 663.2c1.4-3.1 5.5-3.6 8.4-2.5 4 2.5 4.8 8.5 2.7 12.5-.8 1.7-2.9 1.2-4.4 1.3-1.6-3.1-1.4-6.6-1-10-.9.7-2.2 1.2-2.2 2.5-1.6 6.5 1.1 14.5-4.3 19.7 3.8 1.5 6.2 4.9 6.9 8.8 1.3 4.7.9 9.6 1.4 14.4.1 2 2.4 2.4 3.8 3.2v4c-1.2.4-2.3.8-3.5 1.3-2.4-.7-5.1-1.6-6.2-4.2-2.7-6.7-1.2-14.2-3-21.1-.7-2.5-3.3-3.6-5.6-4.2-.6 7.9-.2 15.8-.3 23.7h3.5c0 1 .1 3 .1 4-4.6.1-9.2.1-13.8 0v-4c1.2 0 2.5-.1 3.7-.1v-47c-1.2 0-2.5-.1-3.7-.1 0-1-.1-3.1-.1-4.1 4.6-.2 9.1-.1 13.7-.1v4.2h-3.6c.1 6.6-.2 13.1.2 19.7 1.3-.7 3.2-.8 3.8-2.4 2.7-6.1.4-13.4 3.5-19.5zM480.3 662.3c3.3-3 8.8-2.6 11.8.6 5.7 4.7 6.7 12.4 7.2 19.2.3 8.5.6 17.3-2 25.5-1.7 5.3-6 9.5-11.3 10.8-5.8-1.1-10.2-5.9-11.8-11.4-2.4-8.1-2.1-16.7-1.8-25.1.5-7.1 1.9-15.1 7.9-19.6m4 2.1c-2.2 1-2.9 3.6-3.5 5.6-1.7 6.5-1.1 13.3-1.3 19.9.2 7-.4 14.4 2.3 21.1.7 2.1 3 3.8 5.2 3 3.4-.9 4-5 4.4-8 1.2-11.8 1.2-23.8-.2-35.5-.2-3.4-2.9-7.7-6.9-6.1zM638.6 660.8c3.3-1.4 7.2-.4 9.6 2.1 6.1 5.1 6.8 13.7 7.2 21.1.1 8.5.4 17.5-2.9 25.6-2.2 4.8-7.1 9.5-12.8 8.1-5.3-1.7-8.7-7-10-12.2-2-8.7-1.8-17.8-1.1-26.6.7-7 3.3-14.7 10-18.1m1.1 3.8c-2.1 1.8-2.8 4.7-3.4 7.3-1.1 6.3-.8 12.7-.8 19 .2 6.7-.3 13.8 2.3 20.1.6 1.9 2.6 2.7 4.2 3.6 2.8-1 4.8-3.4 5.1-6.4 1.4-9.7 1.3-19.5.9-29.2-.6-4.5 0-9.5-2.7-13.3-1.2-1.8-3.8-1.8-5.6-1.1zM725.4 660.7c2.5-1 5.6-.7 7.8 1 4.4 2.9 6.9 8 7.7 13.1 1.6 10.3 1.7 21-.6 31.2-1.4 5.8-6 11.9-12.4 12.1-6-1-10.2-6.7-11.6-12.3-2.2-9.7-2.1-19.9-.8-29.7 1-6.2 4-12.6 9.9-15.4m1 3.9c-2.3 1.8-2.9 4.8-3.5 7.5-1 6.2-.5 12.6-.7 18.9.2 6.8-.6 14 2.4 20.4.8 2 3.3 3.6 5.5 2.5 3.1-1.2 3.6-5 4-7.9 1-10 .9-20 .4-30-.4-3.4-.3-7.1-2.3-10-1.2-2-3.9-2.3-5.8-1.4zM859.5 660.7c3.4-1.4 7.1-.1 9.8 2.2 1.5-.5 3-.9 4.5-1.3.1 5.9 0 11.8.1 17.8h-4c-.5-4.4-.6-9.2-3-13.1-1.7-2.5-5.8-2-7 .7-2.8 5.3-2.3 11.4-2.4 17.1.1 8.3-.4 16.9 2.4 24.8.7 2.5 3.4 5.1 6 3.4 4.1-3.3 4.6-9 4.9-14 1.5-.2 3.1-.4 4.6-.6-.2 4.8-.3 9.9-2.5 14.3-2.4 4.2-7.8 7.6-12.6 5.5-5.8-2.3-7.9-8.9-9-14.5-1.6-9.6-2.1-19.6-.3-29.2 1.1-5.1 3.2-11 8.5-13.1zM943.9 662.8c2.5-2.6 6.7-3.5 10-1.7 4 2.3 6.9 6.3 8.1 10.8 2.1 7.8 1.9 16.1 1.6 24.1-.5 6.5-1.3 13.6-6.1 18.4-1.9 2.2-4.7 3.2-7.5 4-6-1.3-10.4-6.6-11.8-12.4-2-7.8-1.8-16-1.5-24.1.4-6.8 1.6-14.4 7.2-19.1m4.5 1.6c-2.4 1.2-3 4.1-3.7 6.4-1.5 7.3-1 14.8-1.1 22.2.2 6.3-.1 12.9 2.6 18.6 1.1 2.7 4.7 3.4 6.8 1.4 2.7-2.9 2.4-7.3 3-11 .6-10.7.8-21.5-.8-32.1-.2-3.3-3-7-6.8-5.5zM88.3 661.3h26.1v18.2h-4c-.3-3.7-.4-7.4-1.2-11-.5-2.2-2.7-3.1-4.7-3.5-.2 15.9 0 31.8-.1 47.6 1.1 0 2.3 0 3.4.1v4.1H94.7v-4c1.2-.1 2.4-.1 3.6-.1-.1-15.8 0-31.6 0-47.5-1.8.3-3.9.6-4.5 2.6-1.1 3.8-1.2 7.8-1.5 11.7-1.3 0-2.7 0-4 .1v-18.3zM149.2 661.3c5.9.2 12-.5 17.9.7 5.1 1.1 7.9 6.3 8.4 11.1.5 5.7.6 12.3-3.4 16.9-3.2 3.6-8.4 3.5-12.9 3.4v19.3c.8 0 2.5-.1 3.4-.1.1 1.4.1 2.8.1 4.2h-13.6v-4.1h3.5v-47.2c-.9 0-2.6.1-3.4.1v-4.3m10 3.8c-.1 8-.1 16.1 0 24.1 2.4 0 5.5.5 7-2 2.3-4.3 2.2-9.4 1.9-14.1-.4-2.6-.8-5.7-3.1-7.3-1.7-.9-3.8-.5-5.8-.7zM178.4 661.3H192c0 1.4-.1 2.8-.1 4.3-.9 0-2.6 0-3.4-.1v18.7c4.6-.1 10.1 0 13 4.3 3.8 5.7 3.4 13.2 2.3 19.7-.7 4.8-5.1 8.1-9.8 8.5-5.2.3-10.4.1-15.6 0 0-1 .1-3 .2-4h3.6c.2-15.7 0-31.4.1-47.1-1.2 0-2.5 0-3.7-.1-.2-1.4-.2-2.8-.2-4.2m10.1 28c0 7.9-.1 15.8.1 23.6 2.6-.2 6.2 0 7.4-2.9 1.8-4.4 1.6-9.4 1-14-.4-2.3-.9-5.2-3.3-6.3-1.8-.7-3.5-.4-5.2-.4z"/><path class="st1" d="M205 661.3c4.5-.1 9.1 0 13.6 0v4.3h-3.4c-.7 7.5.2 15-.2 22.4.3 8.3-.3 16.5.2 24.8.8 0 2.5-.1 3.4-.1 0 1.4.1 2.8.1 4.1h-13.9c.2-1.4.3-2.8.5-4.2.8 0 2.4.1 3.2.1v-47.1c-1.3-.1-2.5-.1-3.8-.1l.3-4.2zM221.4 661.3h26.1v18.2h-4.1c-.3-3.9-.3-7.9-1.4-11.6-.7-2-2.8-2.4-4.5-2.9-.2 15.9 0 31.8-.1 47.7.8 0 2.4-.1 3.2-.1-.1 1.3 1 3 0 4.1-4.3.4-8.7.1-13 .1.1-1.4.3-2.8.4-4.2.8 0 2.5.1 3.3.1 0-15.9.1-31.7 0-47.6-1.8.3-4 .7-4.6 2.7-1.1 3.8-1.1 7.8-1.4 11.7h-4c.1-6 .1-12.1.1-18.2zM280.6 661.3c8.2 0 16.4-.1 24.6.1 0 5.8-.1 11.6 0 17.3-1.5 0-3 .1-4.4.1 0-4.1-.4-8.3-1.4-12.3-2.7-1.4-5.7-1.3-8.7-1.3v19.6h3.4v-5.7h4.4v16.3c-1.4 0-2.7 0-4.1-.1-.3-2-.4-4-.6-6-1 .1-2.1.1-3.1.2v23.1c3.1-.3 7.6 1.1 9.5-2.3 1.6-4 .9-8.5 1.3-12.7h4.3c.2 6.4.4 12.8 0 19.2-8.4-.1-16.9.1-25.3-.1 0-1 .1-3 .2-4 1.2-.1 2.4-.1 3.6-.2-.1-15.7 0-31.3 0-47-1.2 0-2.4-.1-3.6-.1 0-.9-.1-3-.1-4.1zM403.8 661.3c4.5 0 9 0 13.5.1 0 1-.1 3-.1 4-1.2 0-2.4.1-3.5.2.1 15.7 0 31.5 0 47.2h10.2v-47.3h-3.5v-4.2h13.4v4.2c-.9 0-2.5-.1-3.4-.2-.2 15.8 0 31.6-.1 47.4h5.2c.1 6.5 0 13.1 0 19.6h-4c-.4-4.5-.3-9.3-2-13.6-.6-1.9-2.9-1.6-4.4-1.9-7.1-.2-14.2 0-21.3-.1v-4.1c.9 0 2.6 0 3.5.1.1-15.8 0-31.5 0-47.3-1.2 0-2.4-.1-3.6-.1.1-1.3.1-2.6.1-4zM438.3 661.3h13.4v4.3c-.9 0-2.5-.1-3.4-.1-.1 10.3-.2 20.6.1 31 3.5-10.3 8.6-20.1 11.1-30.8-1.3-.1-2.7-.1-4-.2v-4.2h13.7v4.2c-1.2 0-2.4 0-3.6.1v47c1.2 0 2.4.1 3.6.1v4.1h-13.6v-4.1h3.7c0-10.7.1-21.4-.1-32.1-3.6 8.1-6.6 16.5-9.9 24.7-1.1 2.3-1 5-1 7.5.9 0 2.6-.1 3.4-.1.1 1.4.1 2.8.2 4.2h-13.6c.1-1.4.1-2.8.2-4.2.8 0 2.5.1 3.4.2 0-15.8.1-31.5 0-47.3-.9 0-2.6.1-3.5.1-.1-1.5-.1-3-.1-4.4zM502.6 661.3h13.8v4.1c-1.2 0-2.4.1-3.6.1v19.1h10.7c.1-6.4 0-12.8 0-19.2H520v-4.3h13.7v4.2h-3.3c-.5 9.5.2 19-.3 28.5 0 6.2-.4 12.5.3 18.7.8 0 2.5-.1 3.3-.1v4.1h-13.6v-4.1c1.2 0 2.4-.1 3.6-.1v-23.2h-10.8c.1 7.8 0 15.5.1 23.3h3.5v4.1h-13.7c0-1.4-.1-2.7-.1-4.1 1.2-.1 2.5-.1 3.7-.2-.1-15.7 0-31.3 0-47h-3.7c-.1-1.1-.1-2.5-.1-3.9zM536.6 661.3h24.5c0 6 .2 12-.2 18-1.2-.1-2.5-.3-3.7-.5-1-3.9-.2-8.2-2-12-2.1-2.4-5.7-1.4-8.5-1.6v19.5c.8 0 2.3.1 3.1.1 0-1.9.1-3.8.1-5.7h4.5v16.2c-1.4 0-2.8 0-4.2.1-.2-2-.3-4-.4-6h-3.1v23.2c3.2-.3 7.8 1.1 9.5-2.4 1.5-4 1-8.4 1.3-12.6 1.4 0 2.9 0 4.4.1v19.1h-25.3v-3.9c.8-.1 2.5-.3 3.3-.4.6-1.4.2-3.1.4-4.6-.1-14.1 0-28.2 0-42.4h-3.7v-4.2zM594.3 661.3h13.5v4.3h-3.4v19.2h10.7c0-6.4.3-12.8-.2-19.2-.8 0-2.5.1-3.3.1v-4.2c4.6-.1 9.1-.1 13.7 0v4.2c-1.2 0-2.4 0-3.6.1v47c1.2 0 2.4.1 3.6.1v4h-13.7c0-1.4 0-2.7.1-4.1 1.2 0 2.4-.1 3.6-.1v-23.2c-3.6-.1-7.2-.1-10.8 0v23.3h3.4c0 1.4 0 2.7.1 4.1h-13.6c0-1.4.1-2.8.2-4.2.8 0 2.5.1 3.4.1v-47.2h-3.5c-.2-1.5-.2-2.9-.2-4.3zM658.6 661.3c8.2-.1 16.3-.1 24.5 0 .1 5.8.1 11.7 0 17.5h-4.3c-.3-4 0-8.2-1.7-11.9-2.1-2.5-5.7-1.4-8.5-1.7v19.5c1 0 2.1.1 3.1.1.1-2 .3-4.1.4-6.1 1.4.1 2.8.3 4.2.5-.1 5.4 0 10.8 0 16.1h-4.5v-6c-1.1 0-2.1.1-3.2.1v23.1c3.2-.3 7.8 1.1 9.6-2.4 1.3-4 1-8.3 1.3-12.5h4.3v19.2h-25.2v-4.1c.9 0 2.7.1 3.6.1.1-15.7 0-31.4.1-47.1-1.2 0-2.5-.1-3.7-.1v-4.3zM745.2 661.3c7.7 0 15.4-.1 23.1.1v16.1c-1 0-2.9 0-3.9.1-.7-3.6-.3-7.6-2.1-11-1.7-2-4.7-.9-7-1.3v19c5 .1 11.2.3 14 5.2 2.6 5.1 2.4 11.1 1.9 16.6-.4 4.8-3.7 9.4-8.5 10.4-5.8.4-11.7 0-17.5.1 0-1.4.1-2.8.2-4.2.8 0 2.5.1 3.4.1v-47.2c-.8 0-2.6.1-3.4.1-.1-1.2-.1-2.7-.2-4.1m10.1 27.5c0 8-.1 15.9 0 23.9 2.7 0 6.4.4 7.6-2.8 2-5.7 1.9-12.2.1-18-1-3.2-4.9-2.9-7.7-3.1zM774.5 661.3c4.4-.1 8.7-.1 13.1 0 0 1-.1 3.1-.1 4.1h-3.3v47.2h8.3v-47.2h-3.3v-4.1h13.3c0 1 0 3.1-.1 4.1h-3.3v47.2h8.3v-47.1h-3.3v-4.1h12.7v4.1h-3.3v47.3h5.1v19.7c-1 0-3 0-4-.1-.3-5-.7-10-2.4-14.8-4.7-1.2-9.6-.8-14.4-.8h-23.4c0-1.3 0-2.7-.1-4 .9 0 2.7 0 3.6-.1v-47.3c-1.2 0-2.4 0-3.6-.1.2-.9.2-2.9.2-4zM821.5 661.3h24.4c0 6 .1 12-.1 17.9h-3.9c-.3-3.9-.2-8-1.5-11.8-1.7-3.1-5.8-1.8-8.7-2.2v19.6h3.2v-5.6h4.6v16.2H835v-5.9h-3.2v23.2c3.2-.3 7.8 1.1 9.5-2.5 1.4-4 1-8.3 1.2-12.4 1.1 0 3.2-.1 4.3-.1.2 6.4 0 12.8.1 19.2h-25.3c0-1.4 0-2.8.1-4.1h3.6c.1-15.7 0-31.3.1-47-1.3-.1-2.5-.1-3.7-.2-.2-1.2-.2-3.2-.2-4.3zM877.7 661.4c8.7-.2 17.4 0 26.1-.1.4 6.1-.1 12.2 0 18.3-1.4 0-2.7-.1-4.1-.1-.3-3.8-.1-7.6-1.2-11.3-.5-2-2.7-2.5-4.2-3.5-1.2 11.4 0 22.8-.4 34.3-.3 4.6.1 9.2.2 13.8.8 0 2.5 0 3.3-.1v4.2h-13.1c0-1.4.1-2.8.1-4.2.8 0 2.5.1 3.4.1-.1-16 .3-32-.2-48-6.8 1.5-4.7 9.7-5.7 14.7h-4.1c0-6 0-12.1-.1-18.1zM906.8 661.3c5 .1 10.1-.1 15.2.1 5.4.2 9.7 5.3 9.9 10.5.2 3.5.3 7.3-1.6 10.4-1.2 1.9-3.2 3.1-5 4.4 3.1 1.8 6.3 4.1 7.3 7.7 1.4 5.1 1.1 10.6-.4 15.6-1.3 4.2-5.8 6.9-10.1 6.8-5.1.1-10.2 0-15.3 0v-4.1c1.2 0 2.4-.1 3.7-.1-.1-15.7 0-31.3 0-47-1.2 0-2.5-.1-3.7-.1-.1-1.4-.1-2.8 0-4.2m10.1 4.5c-.2 6.4-.3 12.8.2 19.1 1.7-.1 3.5 0 5.2-.5 2.3-1.7 2.5-4.9 2.9-7.6.3-3.8.4-8.5-2.9-11.1-1.6-.8-4.2-1.8-5.4.1m.3 23.2c-.8 7.8-.2 15.7-.4 23.6 2.8.1 6.5.2 7.8-2.9 2-5.1 1.4-10.8.6-16.1-.7-3.7-4.8-4.6-8-4.6zM564.8 661.4c6.1.1 12.2-.5 18.2.7 5 1.2 7.7 6.3 8.2 11.1.5 5.7.5 12.2-3.3 16.8-3.2 3.7-8.5 3.5-13 3.5-.1 6.4-.1 12.8 0 19.3h3.5c0 1.4 0 2.7.1 4.1h-13.9c.1-1.4.3-2.8.4-4.1.8 0 2.5.1 3.4.1v-47.1c-1.2 0-2.5-.1-3.7-.1.1-1.2.1-3.3.1-4.3m10.1 3.7c.1 8-.5 16 .3 23.9 2.8.9 6.7 0 7.5-3.2 1.7-5.9 2.1-12.6-.3-18.3-1.4-2.9-4.9-2.3-7.5-2.4zM583.1 733.6h24.6v7.9h-6.5v9.4c6.2-.9 12.9 0 17.7 4.3 7.8 6.5 9.6 17.2 10.3 26.8.6 12.4-.3 26-7.9 36.4-4.4 6.3-13.1 8.6-20.2 5.7v11.7c2.1 0 4.3 0 6.4-.1 0 2.6.1 5.2.1 7.8H583v-7.8h6.5v-11.6c-5.1 1.4-10.8 1.7-15.4-1.3-6.9-4.6-10.5-12.7-12.1-20.6-2.1-10.9-1.8-22.4 1-33.2 2-7.7 7.5-14.8 15.2-17.4 3.6-1.4 7.5-1 11.3-.7v-9.4H583c.1-2.7.1-5.3.1-7.9m18.1 25.1c0 19.5-.1 39 0 58.5 1.6.4 3.3.7 4.9 1.1 2.6-.8 5.1-2.3 6-5.1 2.3-6.1 2.9-12.8 3.3-19.3.3-7.3.4-14.6-.3-21.8-.6-4.6-1.6-9.9-5.8-12.7-2.2-1.8-5.4-1-8.1-.7m-24.6 9.1c-3 11.5-2.1 23.5-.7 35.1 1 4.8 1.4 10.4 5 14.1 2.4 2.4 5.9 1 8.7.3 0-19.6 0-39.3-.1-58.9-5.8 0-11.6 3.7-12.9 9.4zM114.9 743.9c4.2-6.3 12.6-10.1 20-7.6 3.5 1.1 6.2 3.7 8.9 6.1l1.8-3.6c1.9 0 3.8 0 5.6.1v33.3h-7.6c-.6-6.6-1.4-13.3-3.2-19.8-.9-3-2.4-6.1-5.3-7.6-3.1-1.4-7.3-.8-9.4 2-3.5 4.6-4.5 10.6-5.1 16.2-.8 10.3-.5 20.6-.5 31 .2 10.7.5 21.6 3.6 31.9 1.3 3.8 3.2 8.1 7.2 9.6 3.4 1.1 6.5-1.4 8.3-4 4.9-6.9 5.9-15.7 6.1-23.9h8.7c-.5 9.7-.6 20.2-6.1 28.5-3.1 3.9-7.1 7.8-12.2 8.8-4.4 0-9.4 1-13.3-1.5-4.6-2.6-7.7-7.1-9.9-11.8-3.4-7.4-4.9-15.5-5.9-23.5-1.3-11.3-1.6-22.7-.9-34.1 1-10.5 3.2-21.2 9.2-30.1zM815.8 736.2c4-.1 7.9-.1 11.9-.1 6.6 33.2 13.2 66.4 19.9 99.6h6.3v7.7h-26.2v-7.7h6.9c-1.4-6.2-2.2-12.5-3.9-18.6-7-.5-14-.5-21 .1-1 6.2-2.2 12.4-3.3 18.5h6.6c.1 2.6.1 5.1 0 7.7-7.2-.1-14.4 0-21.6 0 0-2.6 0-5.2.1-7.8 1.7 0 3.5 0 5.2.1 6.5-33.1 12.8-66.3 19.1-99.5m-4.4 72.1h17.7c-2.6-16.5-5.9-32.9-9-49.3-3.1 16.4-5.8 32.9-8.7 49.3zM868.7 741.8c5.6-7 17-8.3 23.8-2.3 9.6 8 10.7 22.5 6.5 33.6-2 5.8-6.6 10.4-12.1 13 8 3.3 14.3 10.2 16.2 18.7 2.4 10.8 1.5 23.1-4.8 32.5-2.7 4.3-7.5 6.2-11.7 8.7-5.7-1.8-12.2.5-17.3-3.1-6.2-4.1-9.5-11.5-10.3-18.7-.5-4.9-.3-10.4 2.8-14.5 1.9-2.7 6.3-3.1 8.5-.5 3.6 3.8 3.8 9.7 2.3 14.5-.8 2.8-3.5 5.8-1.7 8.8 1.9 3.2 5.4 6.4 9.4 5.5 5.4-1.7 9.1-7 9.6-12.5 1-9.5 1.4-19.9-3.5-28.5-3-5.3-9.3-6.9-15-6.7v-7.6c5.1-.4 11.4-.9 14.2-5.9 3.6-7.1 3.2-15.5 2.2-23.1-.6-4-2.9-9.1-7.6-9.1-3.8-.5-6.7 2.6-8 5.8-2.6 6-2.8 12.7-3.3 19.1-2.5 0-4.9-.1-7.4-.1 0-10.4-.1-20.9.1-31.3h6c.2 1 .7 2.3 1.1 3.7zM158.2 737.8h25.5v8.3c-2.1 0-4.2 0-6.2.1 5.2 16.4 9.9 32.9 15.2 49.3 3.5-16.5 7.5-32.8 11.2-49.3-2.2-.1-4.4-.1-6.5-.1 0-2.8 0-5.5.1-8.3h21.1c.1 2.8.1 5.6.1 8.3-1.7 0-3.4 0-5 .1l-17.1 68.7c-2.1 8.3-4.3 16.6-8.5 24.1-1.9 3.1-5 6.4-9 6-2.6-.1-5.5.5-7.7-1.2-6-4.2-8.3-11.8-8.6-18.8-.1-4.4.6-9.3 3.9-12.5 2.2-2.4 6.4-1.8 8.1.9 3.5 4.7 3.5 11.6.8 16.7-1.3 2.2-1.8 5.4.4 7.3 3.5 1.6 5.4-2.7 6.6-5.2 1.8-4.8 4.1-9.9 4.1-15.1-7.4-23.6-15.1-47.2-22.5-70.8-1.9-.1-3.8-.1-5.7-.1-.4-2.9-.4-5.6-.3-8.4zM221.6 738c10.8-.1 21.8-.8 32.5.8 8.8 1.1 15.1 9.3 16.8 17.5 1.6 7.8 1.6 16 .1 23.8-1.3 6.5-4.7 13-10.8 16.1-6 3.2-12.9 2.5-19.4 2.5v36.8c2.3 0 4.5 0 6.8.1v7.9h-25.9v-7.9h6.9V746c-2.3 0-4.6 0-6.9-.1-.1-2.7-.1-5.3-.1-7.9m19.1 7.3c-.1 15.1 0 30.1 0 45.2 4.4.5 10 1.4 13.1-2.7 3.9-6.1 4-13.7 4.1-20.8-.1-6.4-.2-13.4-4-18.9-3.2-3.9-8.7-3.4-13.2-2.8zM277.3 745.8c0-2.7.1-5.4.2-8.1 14.7.1 29.3 0 44 0 .2 11.3 0 22.7.1 34h-7.3c-.8-6.2-.9-12.5-1.8-18.7-.4-2.3-1.2-5.1-3.6-5.9-4-1.5-8.3-1-12.4-.9v89.3h6.8v7.8c-8.6.1-17.3 0-25.9 0v-7.9h6.9V746c-2.4 0-4.7-.1-7-.2zM325.4 737.8c8.4 0 16.9.1 25.3-.1.4 2.8.5 5.6.2 8.4h-6.1c4.9 16.4 9.8 32.8 15 49 3.8-16.3 7.6-32.7 11.2-49h-6.5v-8.4h21.3c.1 2.8.1 5.6.1 8.4h-5.1c-5.6 22.6-11.3 45.2-16.9 67.8-2.1 8.7-4.4 17.4-8.9 25.2-1.8 2.8-4.5 5.9-8.1 5.8-2.9-.1-6.2.7-8.7-1.3-6.4-4.7-8.6-13.1-8.3-20.7 0-4.3 1.3-9.2 5.3-11.5 2.9-1.2 5.9.5 7.3 3 2.9 5.1 2.4 11.6-.4 16.7-1.4 2.1-.3 4.4.4 6.5 4.9 1.2 6.6-4.6 8.1-8.1 1.2-4.3 3.7-8.8 2.7-13.4-7.4-23.3-14.9-46.6-22.3-69.9h-5.7c.1-2.9.1-5.6.1-8.4zM388.5 772.5c0-11.6-.1-23.2.1-34.7 16.4 0 32.8.1 49.2 0 1 11.5.1 23.1.5 34.7-2.6.1-5.2.1-7.9.1-.8-6.8-.6-13.7-2-20.4-.9-4-4.6-7.4-8.8-6.7-.8 11.2-.1 22.4-.3 33.6v56.5c2.1 0 4.3 0 6.5.1 0 2.6 0 5.3-.1 7.9-8.3-.1-16.6 0-24.9 0v-7.9h6.8c0-30.1.1-60.1 0-90.2-4.4-.6-8.6 2.3-9.3 6.7-1.2 6.7-1.9 13.5-2 20.4-2.7-.1-5.2-.1-7.8-.1zM443.3 745.8c0-2.7 0-5.4.1-8.1 8.6.1 17.3 0 25.9 0v8.1h-6.7v36.5h20.2v-36.6h-6.6v-8.1h25.6c.1 2.7.2 5.4.2 8.1-2.3 0-4.5.1-6.8.2v89.5h6.8c0 2.6-.1 5.3-.1 7.9-8.6-.1-17.1 0-25.7 0v-7.9h6.6V791h-20.3v44.4h6.8v7.9h-26v-7.9h6.8c.2-29.8 0-59.7.1-89.5-2.3.1-4.6 0-6.9-.1zM507.8 737.8h40.3c2.1 0 4.2.2 6.2.5-.1 11.1-.1 22.2 0 33.3-2.6.1-5.2.1-7.8.1-.6-6.9-.6-13.8-2.3-20.6-.5-2.9-3.3-5-6.1-5.4-3.7-.5-7.5-.2-11.2-.2 0 12.4-.1 24.9.1 37.3h6.4v-11.1h8.3v31h-8.3v-11.3h-6.3c-.4 14.7-.1 29.4-.2 44.1 4.4-.1 9 .5 13.4-.5 4-1 5.7-5.3 6.2-9 .6-6.3.9-12.6 1-19h8.3c.1 12.2 0 24.4.1 36.5-16 .1-32 0-48 0v-7.9h6.9V746c-2.3-.1-4.6-.1-6.9-.1-.2-2.7-.1-5.4-.1-8.1zM634.8 737.8c16.5.1 32.9-.1 49.4.1.6 11.5.1 23.1.2 34.6h-7.8c-.5-6.8-.6-13.6-1.9-20.3-.8-4.3-4.8-7.4-9.2-6.8-.1 30.1 0 60.1 0 90.2h6.7c0 2.6-.1 5.3-.3 7.9h-24.7v-7.9h6.6c0-30 .1-60.1 0-90.2-4.1-.6-8.2 1.9-9.1 6-1.4 6.9-2 14-2.2 21H635c-.3-11.5-.1-23-.2-34.6zM689.7 737.8h46.2c.2 11.3.4 22.6.1 33.8h-7.6c-.6-6.9-.6-13.8-2.3-20.6-.7-3.2-3.9-5.4-7-5.5-3.4-.3-6.8-.1-10.2-.1v37.3h6.3v-11.2h8.3v31h-8.4c0-3.8 0-7.6-.1-11.3-2.1 0-4.1.1-6.2.1.1 14.7 0 29.3 0 44 4.7-.2 9.5.6 14-.8 3.9-1.4 5.2-5.9 5.6-9.5.4-6.1.7-12.1 1-18.2h8.3v36.6h-47.9v-7.9h6.9v-89.6h-6.9c-.1-2.7-.1-5.4-.1-8.1zM743.3 745.8c0-2.7 0-5.4.2-8.1 14.7.1 29.4 0 44 0 .1 11.3 0 22.7 0 34h-7.3c-.9-6.2-1-12.6-1.8-18.8-.4-2.3-1.2-5-3.6-5.8-4-1.5-8.3-1.1-12.4-.9v89.3h6.8v7.8c-8.6.2-17.3 0-25.9.1v-7.9h6.9v-89.4l-6.9-.3zM74 777.8h9.2c-3.6 9.5-8.6 18.4-12.6 27.7-.5 1.1.5 2.1.8 3.2 4.1 8.5 8 17.1 12.1 25.6h-9.6c-4.4-9.4-8.9-18.8-13.3-28.2 4.5-9.5 8.9-18.9 13.4-28.3z"/><path class="st1" d="M91.8 777.8c2.4 0 4.8-.1 7.2 0 1.7-.3.9 1.8.5 2.6-3.9 8.5-7.8 17.1-11.7 25.6 4.4 9.4 8.6 18.8 12.9 28.2h-8.8c-4.4-8.9-8.7-17.9-13-26.8-1-1.3 0-2.8.6-4 4-8.5 8.1-17.1 12.3-25.6zM909.2 777.8h8.8c4.6 9.4 9.1 18.8 13.6 28.3-4.5 9.4-9 18.8-13.6 28.2h-8.8c4-9.5 8.8-18.7 12.6-28.2-3.8-9.6-8.6-18.8-12.6-28.3z"/><path class="st1" d="M926.2 777.8h9.2c4.7 9.3 9.1 18.8 13.6 28.3-4.4 9.5-8.9 18.9-13.5 28.3h-9.3c4.3-9.5 8.8-18.8 13.3-28.2-4.5-9.6-9-18.9-13.3-28.4z"/></g></svg>