<svg id="logo" xmlns="http://www.w3.org/2000/svg" viewBox="0 0 346.3 222.4"><style>.st0{fill:#686868}.st1{fill:#fff}.st2{fill:#888}</style><path class="st0" d="M21.1 204.7c2.6 0 4.2-.4 5-1.2.7-.8 1.1-1.4 1.1-1.9s-.4-1.1-1.1-1.9c-.8-.8-2.4-1.2-5-1.2H9.7v6.1l11.4.1M9.7 222.2H.1l-.1-8.8v-13l.1-8.8h25.6c4.3 0 7.3.8 8.9 2.3s2.4 3.7 2.4 6.5v2.5c0 2.8-.8 5-2.4 6.5-1.6 1.5-4.6 2.2-8.9 2.2h-16v10.6zM69.7 203.4c0-1.7-.4-2.9-1.1-3.7s-2.4-1.2-4.9-1.2h-5.5c-2.3 0-3.9.5-4.7 1.3s-1.2 2-1.2 3.6v7c0 1.5.4 2.7 1.2 3.5.8.9 2.4 1.3 4.7 1.3h5.5c2.5 0 4.2-.4 4.9-1.2.6-.7 1.1-2 1.2-3.6l-.1-7M77 220c-1.6 1.5-4.6 2.2-8.8 2.2H54c-4.3 0-7.3-.7-8.9-2.2-1.7-1.4-2.5-3.7-2.5-6.6v-13c0-2.9.8-5.2 2.5-6.6 1.6-1.4 4.6-2.2 8.9-2.2h14.2c4.3 0 7.3.8 8.8 2.3 1.6 1.5 2.4 3.7 2.4 6.5v13c.1 2.9-.8 5-2.4 6.6M119.5 220c-1.6 1.5-4.5 2.2-8.8 2.2H96.5c-4.3 0-7.3-.7-9-2.2-1.7-1.4-2.5-3.7-2.5-6.6v-13c0-2.9.8-5.2 2.5-6.6 1.7-1.4 4.7-2.2 9-2.2h14.2c4.3 0 7.2.8 8.8 2.3 1.6 1.5 2.4 3.7 2.4 6.5v3h-9.7c0-1.7-.4-2.9-1.1-3.7-.8-.8-2.4-1.2-4.9-1.2h-5.5c-2.4 0-3.9.5-4.8 1.3-.8.8-1.2 2-1.2 3.6v7c0 1.5.4 2.7 1.2 3.5.8.9 2.4 1.3 4.8 1.3h5.5c2.5 0 4.2-.4 4.9-1.2.7-.7 1.1-2 1.1-3.6h9.7v3c.1 2.9-.7 5-2.4 6.6M137.3 222.2h-9.6l-.1-8.8v-13l.1-8.8h9.6v11.7h17.4v-11.7h9.8v30.6h-9.8v-11.9h-17.4zM182.6 210.3h-2.8c.1 1.6.4 2.8 1.3 3.7.8.9 2.4 1.3 4.8 1.3H207v7h-25.4c-4.3 0-7.3-.7-9-2.2-1.6-1.4-2.5-3.7-2.5-6.6v-13c0-2.9.8-5.2 2.5-6.6 1.7-1.4 4.7-2.2 9-2.2H207v7h-21.2c-2.4 0-4 .5-4.8 1.3s-1.2 1.9-1.3 3.5H207v7h-24.4M281.6 198.5h-13.3v-6.9h36.8v6.9h-13.8v23.7h-9.7zM319.2 209.1v6.1h11.4c2.6 0 4.2-.4 4.9-1.1.7-.8 1.1-1.4 1.1-1.9s-.4-1.2-1.1-1.9c-.7-.8-2.4-1.2-4.9-1.2h-11.4m0-7h15.9c4.3 0 7.3.8 8.8 2.3 1.6 1.5 2.4 3.7 2.4 6.5v2.4c0 2.8-.8 5-2.4 6.5s-4.6 2.3-8.8 2.3h-25.6l-.1-8.8v-13l.1-8.8h9.7v10.6zM222 206.1c0-3.8 3.4-3.4 3.4-3.4h9.8v6.5h-9.9s-3.3.1-3.3-3.1m32.6 3.1h-9.9v-6.5h9.8s3.4-.4 3.4 3.4c0 3.2-3.3 3.1-3.3 3.1m5.2-13h-15v-4.8h-9.5v4.8h-15.4s-8.8.3-8.8 9.6c0 9.4 9 9.5 9 9.5h15.1v7.2h9.5v-7.2h14.8s9-.1 9-9.5c0-9.3-8.7-9.6-8.7-9.6"/><path class="st1" d="M154.6 0v14.2h-15.8v14.2h-15.9V43H107v48.4s28.1 24.3 32 27.8v51.5h69v-51.2c4-3.5 31.9-28 31.9-28V43H224V28.5h-16.1V14.2h-16V0h-37.3"/><path class="st2" d="M150.5 95.6H164v63.7h-13.5zM166.5 82.4H180v76.9h-13.5zM182.5 95.6H196v63.7h-13.5z"/><path class="st0" d="M132 98.1l-13.6-11.4V54.1H132zM148 112.3l-13.5-12.6V39.6H148zM150.5 25.4H164v68.2h-13.5zM166.5 11.2H180v68.4h-13.5zM214.6 98.1l13.5-11.4V54.1h-13.5zM198.5 112.3L212 99.7V39.6h-13.5zM182.5 25.4H196v68.2h-13.5z"/></svg>