<svg id="Слой_1" xmlns="http://www.w3.org/2000/svg" xmlns:xlink="http://www.w3.org/1999/xlink" viewBox="0 0 777.3 151.3"><style>.st0{fill:#686868}.st1{clip-path:url(#SVGID_3_)}</style><g id="Layer_1_1_"><path class="st0" d="M191.2 129.8v-4.2h586v7.9h-586zM724.5 101.1c-.5-.5-.7-1.1-.9-1.9-.1-.9-.2-2-.2-3.3V34.5c0-1.4.1-2.5.2-3.3.1-.8.4-1.5.9-1.9.5-.5 1.1-.8 2-1 .8-.2 1.2-.4 1.5-.5v-2.6h-26.1v2.6l1.5.5c.8.2 1.5.6 2 1 .5.5.8 1.1.9 1.9.1.8.2 2 .2 3.3v61.3c0 1.4-.1 2.5-.2 3.3-.1.8-.4 1.5-.9 1.9-.5.5-1.1.8-2 1-.8.2-1.2.4-1.5.5v2.6H728v-2.6l-1.5-.5c-.9-.1-1.5-.5-2-.9m44.6-4.5c-2.7-2.9-4.9-5.3-6.6-7.3-2.5-2.8-4.8-5.4-6.9-7.8-2.1-2.4-4.2-4.9-6.1-7.3-1.9-2.4-3.7-4.8-5.5-7.2-1.7-2.4-3.4-5-5.1-7.8l1.3-1.6c1.9-2.5 4.2-5.3 6.8-8.5s5.3-6.3 8.1-9.4 5.5-6 8.3-8.6 5.3-4.7 7.5-6V25H752c-.6 1.6-1.5 3.6-2.8 5.9s-2.7 4.9-4.4 7.5c-1.7 2.7-3.5 5.5-5.3 8.4s-3.7 5.6-5.5 8.2c-1.8 2.6-3.6 5-5.1 7.3-1.6 2.2-2.9 4-4 5.4 1.9 2.6 3.7 5 5.2 7.1 1.6 2.2 3.1 4.2 4.5 6.2s2.8 3.9 4.1 5.8 2.7 3.9 4.2 5.9c1.5 2.1 2.9 4.3 4.1 6.3 1.2 2.1 2.3 4.1 3.3 6.1l27 .2c-2.8-2.9-5.6-5.8-8.2-8.7M561.5 70.8l11.1-32.3 10.8 32.3h-21.9zm45 16.4l-18.3-52.5c-.8-2.4-1.4-4.3-1.7-5.8s-.5-2.8-.6-3.8H563v2.6l1.5.5c.8.2 1.5.6 2 1 .5.5.8 1.1.9 1.9.1.5.1 1.1.1 1.8-.1 1.8-.4 3.7-1 5.2l-12.8 31.6c-2.4 5.9-4.4 10.9-6.1 14.8-1.7 4-3.1 7.3-4.3 10s-2.2 4.8-3.1 6.5c-.9 1.6-1.7 3-2.4 4.1h14.5c.2-1.9.8-5.2 1.8-9.8 1-4.6 2.9-11 5.6-19.2h25.4l3.4 10.2c1.5 4.6 2.8 8.5 3.7 11.6s1.5 5.5 1.6 7.1h20.4c-.8-1.6-1.9-3.8-3.2-6.5-1.2-2.6-2.8-6.4-4.5-11.3m81.2-62.1h-21.6v2.6l1.5.5c.8.2 1.5.6 2 1 .5.5.7 1.1.9 1.9.1.8.2 2 .2 3.3V60h-31V34.4c0-1.4.1-2.5.2-3.3.1-.8.4-1.5.9-1.9.5-.5 1.1-.8 2-1 .8-.2 1.2-.4 1.5-.5v-2.6H618v2.6l1.5.5c.8.2 1.5.6 2 1 .5.5.8 1.1.9 1.9.1.8.2 1.9.2 3.2v61.6c0 1.3-.1 2.4-.2 3.2-.1.8-.4 1.5-.9 1.9-.5.5-1.1.8-2 1-.8.2-1.2.4-1.5.5v2.6h26.1v-2.6l-1.5-.5c-.8-.2-1.5-.6-2-1-.5-.5-.7-1.1-.9-1.9-.1-.9-.2-2-.2-3.3V65.3h31v30.5c0 1.4-.1 2.5-.2 3.3-.1.8-.4 1.5-.9 1.9-.5.5-1.1.8-2 1-.8.2-1.2.4-1.5.5v2.6H692v-2.6l-1.5-.5c-.8-.2-1.5-.6-2-1-.5-.5-.7-1.1-.9-1.9-.1-.9-.2-2-.2-3.3v-16l-.1.4v-30l.1.3v-16c0-1.4.1-2.5.2-3.3.1-.8.4-1.5.9-1.9.5-.5 1.1-.8 2-1 .8-.2 1.2-.4 1.5-.5v-2.6h-4.3v-.1zM517.9 90.4c-.9 2.8-2.1 4.9-3.5 6.3-1.5 1.4-3.1 2.4-5 2.8s-3.8.6-5.8.6c-1.9 0-3.4-.1-4.5-.4s-1.9-.7-2.5-1.3c-.6-.6-.9-1.4-1.1-2.4s-.2-2.3-.2-3.8V58.8h6.9c6.2 0 10.6 1.6 13.2 4.8 2.6 3.2 3.9 8.4 3.9 15.6 0 4.7-.5 8.4-1.4 11.2m11.4-31c-2.8-2-6.4-3.4-10.9-4.3-4.5-.9-10-1.3-16.4-1.3h-6.7V34.7c0-2.1.4-3.4 1.3-3.9.8-.5 2.6-.8 5.3-.8h9.7c3 0 5.4.1 7.3.3 1.9.2 3.4.8 4.7 1.6 1.2.8 2.2 2.1 3 3.8s1.5 3.9 2.3 6.8h4.3V25.1h-59.4v2.6l1.5.5c.8.2 1.5.6 2 1 .5.5.8 1.1.9 1.9s.2 2 .2 3.3v61.4c0 1.4-.1 2.5-.2 3.3s-.4 1.5-.9 1.9c-.5.5-1.1.8-2 1-.8.2-1.2.4-1.5.5v2.6h30.1c4.1 0 8.2-.2 12.3-.7 4-.4 7.6-1.6 10.8-3.4 3.1-1.8 5.7-4.5 7.6-8 1.9-3.6 2.9-8.5 2.9-14.7 0-4.5-.6-8.2-1.9-11.3-1.4-3.1-3.5-5.7-6.3-7.6M445 63c-2 3.6-5.4 5.5-10.3 5.5h-8.1V34.4c0-.8.1-1.4.2-2 .1-.6.4-1 .8-1.4.4-.3 1.1-.6 2-.8.9-.2 2.1-.2 3.6-.2 2.1 0 4 .3 5.8.8s3.4 1.5 4.7 2.8c1.3 1.3 2.4 3.1 3.1 5.4.7 2.2 1.1 5 1.1 8.4 0 6.7-.9 11.9-2.9 15.6m11.9-34.3c-2.7-1.6-5.9-2.6-9.4-3s-7.2-.6-10.9-.6h-31.7v2.6l1.5.5c.8.2 1.5.6 2 1 .5.5.7 1.1.9 1.9.1.8.2 2 .2 3.3v61.3c0 1.4-.1 2.5-.2 3.3s-.4 1.5-.9 1.9c-.5.5-1.1.8-2 1-.8.2-1.2.4-1.5.5v2.6h26.2v-2.6l-1.5-.5c-.9-.2-1.5-.6-2-1-.5-.5-.8-1.1-.9-1.9-.1-.9-.2-2-.2-3.3V73.4h7.9c4.1 0 8.1-.3 11.9-.9 3.7-.6 7.1-1.8 9.9-3.6 2.9-1.8 5.2-4.4 6.8-7.7 1.7-3.3 2.5-7.7 2.5-13.1 0-5.2-.8-9.4-2.4-12.4-1.4-3.1-3.5-5.4-6.2-7M387.4 94c-.6 1.8-1.4 3.2-2.5 4.1s-2.6 1.5-4.6 1.7c-1.9.2-4.7.3-8.1.3-3.2 0-5.7-.1-7.5-.3-1.8-.2-3.2-.7-4.1-1.3-.9-.6-1.5-1.5-1.7-2.7s-.3-2.7-.3-4.6V66.1h10.8c.9 0 2 .1 3.3.1l3.9.3c1.3.2 2.6.4 3.9.8 1.2.3 2.3.8 3.1 1.3V58.4c-.8.5-1.9 1-3.1 1.3s-2.5.6-3.9.8c-1.3.2-2.6.3-3.9.3s-2.4.1-3.3.1h-10.8V34.3c0-1.8.3-2.9.7-3.5.5-.5 1.6-.8 3.2-.8h8.6c3 0 5.4.1 7.3.3 1.9.2 3.4.8 4.6 1.6s2.2 2.1 3 3.8 1.5 3.9 2.3 6.8h4.3V25.1H337v2.6l1.5.5c.8.2 1.5.6 2 1 .5.5.8 1.1.9 1.9s.2 2 .2 3.3v61.3c0 1.4-.1 2.5-.2 3.3s-.4 1.5-.9 1.9c-.5.5-1.1.8-2 1-.8.2-1.2.4-1.5.5v2.6h57.4V86.5h-5.3c-.6 3.1-1.2 5.6-1.7 7.5m-79.1-3.6c-.9 2.8-2.1 4.9-3.5 6.3-1.5 1.4-3.1 2.4-5 2.8s-3.8.6-5.8.6c-1.9 0-3.4-.1-4.5-.4s-1.9-.7-2.5-1.3c-.6-.6-.9-1.4-1.1-2.4-.1-1-.2-2.3-.2-3.8V58.8h6.9c6.2 0 10.6 1.6 13.2 4.8s3.8 8.4 3.8 15.6c0 4.7-.4 8.4-1.3 11.2m11.4-31c-2.8-2-6.5-3.4-10.9-4.3-4.5-.9-10-1.3-16.4-1.3h-6.7V34.7c0-2.1.4-3.4 1.3-3.9.8-.5 2.6-.8 5.3-.8h9.7c3 0 5.4.1 7.3.3 1.9.2 3.4.8 4.7 1.6 1.2.8 2.2 2.1 3 3.8s1.5 3.9 2.3 6.8h4.3V25.1h-59.4v2.6l1.5.5c.8.2 1.5.6 2 1 .5.5.7 1.1.9 1.9.1.8.2 1.9.2 3.2v61.6c0 1.3-.1 2.4-.2 3.2-.1.8-.4 1.5-.9 1.9-.5.5-1.1.8-2 1-.8.2-1.2.4-1.5.5v2.6h30.1c4.1 0 8.2-.2 12.2-.7 4-.4 7.6-1.6 10.8-3.4 3.2-1.8 5.7-4.5 7.6-8 1.9-3.6 2.9-8.5 2.9-14.7 0-4.5-.6-8.2-1.9-11.3-1.4-3.1-3.4-5.7-6.2-7.6m-69.8 37c-1.3.6-2.7 1.1-4.2 1.5-1.5.5-3.2.8-5.1 1.1-1.9.3-4.1.4-6.7.4-4.9 0-8.9-.9-12-2.8-3.1-1.8-5.5-4.4-7.3-7.6s-3-7-3.6-11.4-1-9.1-1-14.3c0-4 .2-8 .6-12.1.4-4.1 1.3-7.8 2.8-11 1.5-3.3 3.6-5.9 6.5-8 2.8-2.1 6.7-3.1 11.6-3.1 4.5 0 8.3 1.2 11.6 3.6s5.3 6.1 6 11h5.1v-16c-1.5-.7-3.2-1.3-5.1-1.8-2-.5-4-.9-6.2-1.1-2.1-.3-4.3-.5-6.3-.6-2.1-.1-3.9-.2-5.6-.2-7.1 0-13.1 1-18.1 2.9s-9.1 4.7-12.3 8.3c-3.2 3.6-5.5 8.1-7 13.3-1.5 5.3-2.2 11.2-2.2 17.9 0 6.3.7 11.9 2.2 16.9s3.8 9.2 6.9 12.7c3.1 3.5 7 6.2 11.8 8s10.4 2.8 17 2.8c3.3 0 6.3-.2 9.1-.7s5.3-1.1 7.5-1.8c2.3-.7 4.3-1.5 6-2.4 1.8-.8 3.3-1.6 4.6-2.4l-2.5-4.9c-1.4.7-2.8 1.3-4.1 1.8"/><path id="SVGID_1_" class="st0" d="M46 97L.2 70.7C.1 72 0 73.3 0 74.6c-.1 4.9.4 9.9 1.3 14.8 1.6 8.8 4.7 17 9 24.4 5.4 9.4 12.8 17.3 21.5 23.5 5.8 4.2 12.3 7.5 19.1 9.8 3 1 6 1.9 9.1 2.6 4.4.9 8.9 1.5 13.5 1.6h4.2c2.5-.1 5-.3 7.5-.6 10.6-1.3 20.8-4.9 29.9-10.5 8.8-5.4 16.3-12.4 22.2-20.7 6.2-8.7 10.5-18.6 12.6-29.2.3-1.4.5-2.7.7-4.1.5-3.4.7-6.9.7-10.5v-2c-.1-3.1-.4-6.3-.9-9.4-1.2-8-3.7-15.9-7.4-23.1L46 97zm0-19L3.3 53.5c-.6 1.9-1.1 3.8-1.5 5.7-.2.9-.4 1.7-.5 2.6L46 87.5l92.8-53.4c-.9-1.4-1.9-2.7-2.9-4-.4-.6-.9-1.1-1.3-1.7-.2-.3-.5-.6-.7-.9L46 78zm0-19L10 38.3c-1.4 2.4-2.6 4.9-3.7 7.4L46 68.5l82.1-47.2c-2.1-2-4.3-3.9-6.6-5.7L46 59zm0-19.1L19.7 24.8c-1.9 2.1-3.6 4.2-5.3 6.5L46 49.4l67.8-39C111 8.7 108 7.3 105 6L46 39.9z"/><defs><path id="SVGID_2_" d="M46 97L.2 70.7C.1 72 0 73.3 0 74.6c-.1 4.9.4 9.9 1.3 14.8 1.6 8.8 4.7 17 9 24.4 5.4 9.4 12.8 17.3 21.5 23.5 5.8 4.2 12.3 7.5 19.1 9.8 3 1 6 1.9 9.1 2.6 4.4.9 8.9 1.5 13.5 1.6h4.2c2.5-.1 5-.3 7.5-.6 10.6-1.3 20.8-4.9 29.9-10.5 8.8-5.4 16.3-12.4 22.2-20.7 6.2-8.7 10.5-18.6 12.6-29.2.3-1.4.5-2.7.7-4.1.5-3.4.7-6.9.7-10.5v-2c-.1-3.1-.4-6.3-.9-9.4-1.2-8-3.7-15.9-7.4-23.1L46 97zm0-19L3.3 53.5c-.6 1.9-1.1 3.8-1.5 5.7-.2.9-.4 1.7-.5 2.6L46 87.5l92.8-53.4c-.9-1.4-1.9-2.7-2.9-4-.4-.6-.9-1.1-1.3-1.7-.2-.3-.5-.6-.7-.9L46 78zm0-19L10 38.3c-1.4 2.4-2.6 4.9-3.7 7.4L46 68.5l82.1-47.2c-2.1-2-4.3-3.9-6.6-5.7L46 59zm0-19.1L19.7 24.8c-1.9 2.1-3.6 4.2-5.3 6.5L46 49.4l67.8-39C111 8.7 108 7.3 105 6L46 39.9z"/></defs><clipPath id="SVGID_3_"><use xlink:href="#SVGID_2_" overflow="visible"/></clipPath><image width="153" height="153" xlink:href="986AFF21.png" transform="translate(-.907 -.963)" overflow="visible" class="st1"/></g></svg>