<svg id="Layer_1" xmlns="http://www.w3.org/2000/svg" viewBox="0 0 131.2 36.1"><style>.st0{fill:#888}.st1{fill:#686868}</style><path class="st0" d="M14.8 7.5c2.3 5.9-1.5 9.7-5.2 13.4C6 24.8 3 28.8 9.2 36.1c-2.3-5.9 1.5-9.7 5.2-13.4 3.5-3.9 6.6-7.9.4-15.2"/><path class="st1" d="M9.2 0C11.5 5.9 7.8 9.7 4 13.4c-3.5 3.9-6.6 7.9-.4 15.1-2.4-5.8 1.4-9.6 5.2-13.4 3.5-3.9 6.6-7.9.4-15.1M104.4 23.3v12h5.3v-4.4h5.8v-2.6h-5.8v-2.4h11.4v9.4h5.3v-9.4h4.8v-2.6h-26.8M93.1 32.7v-2.1h6.9V28h-6.9v-2.1h8.8v-2.6H87.8v12H102v-2.6h-8.9"/><path class="st0" d="M37.6 23.3H23v2.6h4.7v9.4h5.2v-9.4h4.7v-2.6M48 23.3h-4v2.9l.1-.1 2.3 4.6H44v2.5h3.7l1.1 2.1h5.8l-6.6-12m-4.1 0h-1.6l-6.6 12h3.4l1.1-2.1h3.7v-2.5h-2.4l2.4-4.5v-2.9z"/><path class="st1" d="M81.4 23.3v6l-8.5-6h-4v12h3.6v-6.6l8.6 6.6H85v-12h-3.6"/><path class="st0" d="M67.1 23.3H52.8v2.6h4.7v9.4h5.2v-9.4h4.4v-2.6"/></svg>