<svg id="Layer_1" xmlns="http://www.w3.org/2000/svg" viewBox="0 0 595.3 841.9"><style>.st0{fill:#686868}.st1{fill:#888}</style><path class="st0" d="M220.6 404.5h-1.1v69.6h28c13.1 0 21.5-7.8 21.5-19.9 0-6.1-1.9-10.4-6.3-14-1.6-1.3-3.4-2.3-5.2-3 1.4-.7 2.8-1.5 4-2.6 3.2-3 4.9-7.2 4.9-12.1 0-5.1-1.9-9.3-5.8-12.8-4.7-4.3-10.1-5.1-17.4-5.1h-22.6v-.1zm21.2 13.7c1.2 0 3.4 0 5.2.8 2 .8 3.2 3.1 3.2 5.8 0 1.9-.6 3.7-1.6 4.8-1.6 1.7-3.4 1.9-5.5 1.9h-8v-13.2c1.6-.1 6.7-.1 6.7-.1zm1.9 26.6c2 0 4.1.2 5.7 1.7 1.3 1.3 2.2 3.6 2.2 6 0 2-.6 4-1.6 5.5-1.7 2.4-3.6 2.8-6.3 2.8h-8.5v-16.1c1.8.1 8.5.1 8.5.1zM325.2 404.5h-55.3v13.4h19.5v56.4h15.7v-56.4h17.1l4.5-13.4h-1.5zM376.1 404.5h-45.6v69.7h26.1c5.9 0 11.4-1.5 15.2-4.1 3.8-2.6 8.4-7.9 8.4-17.8 0-9.3-4.5-14.3-7.1-16.5-2.8-2.3-8.1-5-17.1-5h-9.8v-12.9h26.4l4.6-13.4h-1.1zm-22 39.6c2.2 0 4.3.5 5.6 1.5 2 1.4 3 3.6 3 6.8 0 3.3-1 4.9-1.7 5.8-1.4 1.8-3.5 2.6-6.4 2.6h-8.3v-16.6c1.6-.1 7.8-.1 7.8-.1z"/><path class="st1" d="M390.4 407.5s-.3.1-.5.3v14.9c.8-.4 1.9-.9 1.9-.9 1.4-.8 8.8-5.1 15.5-5.4 2.8-.1 5.3.7 7 2.3 1.4 1.3 2.2 3.2 2.2 5.1 0 6.4-4.4 9.6-9.8 12.9-13.1 7.9-21.3 16.1-21.3 32.7v4.8h43.7v-13.4H402l.2-.6c1.1-4.4 3.9-7.8 9.4-11.3l6.8-4.2c8-4.9 13.1-13 13.2-21.1v-.5c0-5.4-1.8-10.1-5.2-13.6-4-4.1-9.9-6.3-16.9-6.3-6.2-.2-13.7 1.6-19.1 4.3zM460.8 404.4c-.3.5-27.9 43.7-28 43.9v12.3h31.1v13.6h13v-13.6h8.6l4.5-13.4h-13.1v-13.8h-13v13.8h-15.4c1.1-1.9 23.4-37 27.1-42.8h-14.8z"/><path class="st0" d="M172.1 404.5h-53s1.6 5.1 3.4 7.7h47.1s9 7 13.3 19.4h-49.5c-8.5-7-14.9-16.4-18.3-27.1.4-1.3.9-2.6 1.4-3.9H172c4.3-3 8.6-7.7 8.6-7.7h-60.2c.8-1.3 1.6-2.6 2.6-3.9h60.8c1.6-1.9 4.8-7.7 4.8-7.7h-59c1.4-1.4 2.9-2.7 4.5-3.9h56.3c1.5-3.7 2.6-7.7 2.6-7.7h-61c-11.7 8.3-20.5 20.5-24.5 34.8 3.9 14.2 12.7 26.4 24.5 34.8h61s-1.1-18.5-20.9-34.8z"/></svg>