<svg id="Слой_1" xmlns="http://www.w3.org/2000/svg" viewBox="0 0 510.4 510.4"><style>.st0{fill:#a62123}.st1{fill:#30a952}.st2{fill:#d89130}.st3{fill:#2f2f30}</style><path class="st0" d="M120.5 38.5c5-3.4 10.3-6.3 15.7-9-2 3.2-5.3 5.2-7.8 7.9-12.2 12.6-20.1 28.8-24.6 45.7-5.6 20.5-6.9 42-5.4 63.1.3 6.5 1.2 13 1.8 19.4 5.2 38.5 17.2 75.9 33.4 111.1 15.5 33.5 34.9 65.2 57.9 94.1 18.8 23.6 39.9 45.4 64 63.6 5.2 3.8 10.4 7.5 15.7 11.1 14.9 9.7 30.8 18.1 47.7 23.8 19.5 6.7 40.8 9.6 61.1 4.6 3.9-.8 7.6-2.8 11.6-3.2-5.7 3.7-11.5 7.3-17.6 10.2-5.3 1.3-10.4 3.3-15.8 4.2-21.4 4-43.4-.2-63.5-7.8-13.9-5.4-27.1-12.5-39.6-20.7-5.4-3.5-10.7-7.2-15.8-11.1-26.6-20.3-49.9-44.7-70.3-71.2-21-27.5-38.9-57.3-53.5-88.7-16.4-35.5-28.3-73.2-33.3-112.1-.6-6.5-1.5-12.9-1.6-19.4-.9-17.3 0-34.6 3.2-51.6 4.2-19.7 12-39.3 25.9-54.2 3.2-3.4 7.1-6.5 10.8-9.8z" id="_x23_a62123ff"/><g id="_x23_30a952ff"><path class="st1" d="M374.1 29.4c6.2 3.2 12.4 6.6 18.1 10.6 3.7 4 7.9 7.4 11.4 11.6 10.8 12.8 17.5 28.5 21.5 44.6 4.6 18.9 5.8 38.6 4.7 58-.4 6.6-1 13.1-1.7 19.6-6.7 52.7-26.1 103-52.1 149.1-27 46.8-61.8 89.7-104.8 122.7-5.3-3.6-10.5-7.3-15.7-11.1 8.9-7.5 18.1-14.7 26.3-22.8 22.2-20.9 41.5-44.8 58.5-70 19.4-28.9 35.7-59.8 48.2-92.3 10.4-26.9 18-55 21.9-83.5.9-6.5 1.5-13.1 1.9-19.6 1.2-23.3-.2-47.1-7.5-69.4-5.4-16.4-14.3-32.2-27.5-43.5-1.3-1.3-2.3-2.7-3.2-4zM188.6 470.4c17.9-5.8 34.9-14.4 50.7-24.7 5.1 3.9 10.4 7.6 15.8 11.1-12.1 8.4-25.3 15.3-39.1 20.6-19.2 7.2-40.1 11.6-60.7 8.5-5.7-.7-11.1-2.7-16.7-3.8-6.6-3.1-13-6.7-19-10.8 4.6.3 8.8 2.3 13.2 3.2 18.5 4 37.9 1.7 55.8-4.1z"/></g><g id="_x23_d89130ff"><path class="st2" d="M129.6 134.8c51.6-15.5 106-20.6 159.6-16.9 42.1 3.1 84.1 11.8 123.1 28.2-.4 6.5-1 13.1-1.9 19.6-39.4-16.2-81.8-24.5-124.2-27.3-39-2.8-78.4-.7-116.9 6.7-18.8 3.7-37.5 8.4-55.5 15.1-4.5 1.8-9.2 3.4-13.6 5.4-.6-6.5-1.4-12.9-1.8-19.4 10.2-4.3 20.6-8.2 31.2-11.4zM428 173.8c.8-6.5 1.4-13.1 1.7-19.6 21.6 11.4 42.3 25.4 58.2 44.2 11.9 14.1 20.6 31.5 22.2 50.1.7 5.6 0 11.2 0 16.8-1.8-4-2-8.4-3.4-12.6-5.3-17.3-16-32.6-29.1-44.9-3.1-3-6.4-5.8-9.6-8.6-12.3-10.1-25.9-18.3-40-25.4zM37.6 182.9c12.9-11.3 27.6-20.5 42.8-28.5.2 6.5 1 12.9 1.6 19.4-19.1 9.7-37.4 21.6-52.4 37-13.3 13.6-24 30.5-27.7 49.3-.4 1.9-1.1 3.7-1.8 5.5-.2-6.4-.5-12.7 0-19 3.1-25.5 18.8-47.3 37.5-63.7z"/></g><path class="st3" d="M37.6 182.9c13-11.3 27.7-20.5 42.8-28.5-.9-17.3 0-34.6 3.2-51.6 4.2-19.7 12-39.3 25.9-54.2 3.3-3.7 7.2-6.8 10.9-10C96 53.4 74.3 72.9 56.3 95.2 21.9 137.8 1.6 191.7.3 246.5c2.9-25.4 18.6-47.2 37.3-63.6zM509.4 233.3c-3.6-44-19-86.9-44.2-123.2-19.4-27.9-44.1-52.2-73-70.1 3.7 4 7.9 7.4 11.4 11.6 10.8 12.8 17.5 28.5 21.5 44.6 4.6 18.9 5.8 38.6 4.7 58 21.6 11.4 42.3 25.4 58.2 44.2 11.9 14.1 20.6 31.5 22.2 50.1.2-5.1-.4-10.2-.8-15.2zM169.3 145.1c-18.8 3.7-37.5 8.4-55.5 15.1-4.5 1.8-9.2 3.4-13.6 5.4 5.2 38.5 17.2 75.9 33.4 111.1 15.5 33.5 34.9 65.2 57.9 94.1 18.8 23.6 40 45.4 64 63.6 8.9-7.5 18.1-14.7 26.3-22.8 22.2-20.9 41.5-44.8 58.5-70 19.4-28.9 35.7-59.8 48.2-92.3 10.4-26.9 18-55 21.9-83.5-39.4-16.2-81.8-24.5-124.2-27.3-39-2.8-78.4-.7-116.9 6.6z"/><path class="st3" d="M477.5 207.8c-3.1-3-6.4-5.8-9.6-8.6-12.2-10.1-25.8-18.3-39.9-25.4-6.7 52.7-26.1 103-52.1 149.1-27 46.8-61.8 89.7-104.8 122.7 14.9 9.7 30.8 18.1 47.7 23.8 19.5 6.7 40.8 9.6 61.1 4.6 3.9-.8 7.6-2.8 11.6-3.2h.3c37.5-23.7 68.6-57.4 89.3-96.7 17.6-33.5 27.8-71 29-108.8-1.8-4-2-8.4-3.4-12.6-5.4-17.3-16-32.6-29.2-44.9zM188.6 470.4c17.9-5.8 34.9-14.4 50.7-24.7-26.6-20.3-49.9-44.7-70.3-71.2-21-27.5-38.9-57.3-53.5-88.7-16.4-35.5-28.3-73.2-33.3-112.1-19.1 9.7-37.4 21.6-52.4 37-13.3 13.6-24 30.5-27.7 49.3-.4 1.9-1.1 3.7-1.8 5.5 1.2 37.2 11.1 74.1 28.3 107.1 16.9 32.7 41.1 61.5 70.1 84.1 6.8 5.1 13.6 10.4 21 14.5 4.6.3 8.8 2.3 13.2 3.2 18.4 4.1 37.8 1.8 55.7-4z"/><path class="st3" d="M294.6 477.4c-13.9-5.4-27.1-12.5-39.6-20.7-12.1 8.4-25.3 15.3-39.1 20.6-19.2 7.2-40.1 11.6-60.7 8.5-5.7-.7-11.1-2.7-16.7-3.8l1 .6c72.2 37.4 162.8 37 234.4-1.7-5.3 1.3-10.4 3.3-15.8 4.2-21.4 4.1-43.4-.1-63.5-7.7zM98.4 146.2c10.2-4.3 20.6-8.2 31.2-11.4 51.6-15.5 106-20.6 159.6-16.9 42.1 3.1 84.1 11.8 123.1 28.3 1.2-23.3-.2-47.1-7.5-69.4-5.4-16.5-14.3-32.2-27.5-43.5-1.2-1.1-2.2-2.4-3.1-3.7-72.8-39.4-165.3-39.4-238-.1-2 3.2-5.3 5.2-7.8 7.9-12.2 12.6-20.2 28.8-24.6 45.7-5.6 20.5-6.8 42-5.4 63.1z"/></svg>