<svg id="Слой_1" xmlns="http://www.w3.org/2000/svg" viewBox="0 0 510.4 510.4"><style>.st0{fill:#08a231}.st1{fill:#e70013}</style><path class="st0" d="M111 142.1H14.3c-7.7 0-14.3 6.6-14.3 14.3v197.2c0 7.7 6.6 14.3 14.3 14.3H111c7.7 0 14.3-6.6 14.3-14.3V156.3c0-7.7-6.6-14.2-14.3-14.2zm7.7 71.9c0 7.1-5.5 12.6-12.6 12.6H19.2c-7.1 0-12.6-5.5-12.6-12.6v-51.1c0-7.1 5.5-12.6 12.6-12.6H106c7.1 0 12.6 5.5 12.6 12.6l.1 51.1z"/><path class="st0" d="M95 210.7c0 4.9 3.8 8.8 8.8 8.8 4.9 0 8.8-3.8 8.8-8.8s-8.8-18.1-8.8-18.1-8.8 13.2-8.8 18.1zM179.7 316.2c-1.6-4.4-3.8-9.3-6-14.8-7.1-15.9-16.5-37.9-17.6-65.4v-.5-1.1l1.1-42.9c0-3.8-1.1-7.1-4.9-8.2l-26.9-8.8v11l18.1 5.5-6 13.2c0 30.8 0 34.6 9.3 34.6 2.2 27.5 11.5 49.4 18.1 65.9 2.2 5.5 4.4 10.4 6 14.3 2.2 6.6.5 11-2.2 13.7-1.6 1.6-3.8 2.7-6 2.7-2.2.5-4.9 0-7.1-1.1-4.4-2.2-7.7-7.1-7.7-15.4v-15.4c0-3.8.5-8.2-.5-12.1-1.1-3.8-3.3-6.6-6.6-8.8-3.8-2.7-9.9-3.8-14.3-3.8v9.3c3.3 0 7.1 1.1 9.3 2.2 1.1.5 1.6 1.6 2.2 2.7 1.6 2.7 1.1 7.1 1.1 9.9v15.4c0 12.6 6 20.3 13.2 24.2 3.8 1.6 8.2 2.2 12.6 1.6 4.4-.5 8.2-2.2 11.5-5.5 3.8-3.2 6.6-11.4 3.3-22.4zm-36.9-82.9c-1.6-1.6-2.2-23.1-2.2-23.1h4.4l1.6 23.6c-1 .6-2.7.6-3.8-.5zM501.6 186.6l-24.7 14.3v10.4l-32.4 37.4c-2.7 3.3-2.2 8.2.5 11 3.3 2.7 8.2 2.2 11-.5l20.3-23.6-.5 34.6c0 3.8 2.7 7.7 6.6 8.2V353l-10.4 2.2c-4.4 0-8.2 3.8-8.2 8.2s3.8 3.8 8.2 3.8H490.7c4.4 0 8.2-3.8 8.2-8.2v-79.7-1.1c4.4-.5 7.1-4.4 7.1-8.8l4.4-74.7c0-4.3-3.8-8.1-8.8-8.1z"/><circle class="st0" cx="490.6" cy="166.8" r="17"/><g><path class="st1" d="M344.5 344.8h-58.2c-1.1 0-2.2 1.1-2.2 2.2v11.5c0 1.1 1.1 2.2 2.2 2.2h58.2c1.1 0 2.2-1.1 2.2-2.2V347c0-1.1-1.1-2.2-2.2-2.2z"/><path class="st1" d="M448.9 294.8c.5-6.6 2.2-15.9 0-22-.5-2.2-2.7-4.9-4.4-7.7-4.4-6.6-9.3-17-14.8-22-.5-.5-2.7-2.2-2.2-3.3 1.1-1.6 3.8.5 6 1.1 7.7 2.2 20.3-7.7 19.8-14.8-1.1-11.5-27.5-4.4-28.6 6.6-3.3-9.3-6.6-17.6-11-25.8-3.8-7.7-7.7-17-13.7-23.1-8.8-8.8-24.2-9.9-39-11.5-22-2.2-47.8-2.7-71.4-1.6-7.7.5-14.8 1.1-22 2.2-14.8 1.1-28.6 2.7-36.8 11-2.7 2.7-4.9 7.1-7.7 11-5.5 9.3-10.4 20.3-14.8 31.3-.5 2.2-1.1 4.9-2.7 6.6-1.1-11.5-26.9-17.6-28-7.1-.5 8.2 11 17.6 18.7 15.9 2.7-.5 4.9-3.3 7.1-1.1-3.3 4.4-7.7 13.7-11.5 18.1-3.3 3.8-8.2 9.9-9.9 14.8-1.1 2.7-.5 7.1-.5 11.5.5 11.5 2.2 16.5 2.7 26.9 0 2.7.5 5.5 1.1 8.2 0 3.8.5 8.2.5 12.1s.5 7.7.5 12.1c.5 5.5-.5 22 3.8 23.6 2.7 1.1 9.3 0 12.6 0 3.3 0 9.9 1.1 12.6 0s2.7-8.2 3.3-12.1c0-1.1 0-2.2.5-3.8 5.5 1.1 11 1.1 17 1.6 14.3 1.1 29.1 1.6 45.1 2.2.5-2.7-1.6-10.4 1.1-12.1 1.1-.5 5.5-.5 8.2-.5h42.9c4.4 0 14.8-1.1 16.5.5 2.2 2.2 0 8.8 1.1 12.1 15.4-.5 30.8-1.1 45.1-2.2 6-.5 11.5-.5 17-1.6 0 6.6 0 13.2 3.8 15.9 3.8.5 7.7 0 12.1 0 4.4 0 9.3 1.1 12.1 0s3.3-8.2 3.3-12.1c.5-12.1 1.1-25.3 2.2-36.8m-212-15.3c-11 0-33-11.5-33-22.5s22-10.4 33-10.4 26.4 6 26.4 17c0 10.9-15.4 15.9-26.4 15.9zm97.2-.6c0 .5-.5 1.1-1.1 1.1h-31.9c-.5 0-1.1-.5-1.1-1.1v-1.1c0-.5.5-1.1 1.1-1.1h31.9c.5 0 1.1.5 1.1 1.1v1.1zm-117-64.8c6-18.7 15.9-37.4 26.4-51.6 49.4-4.4 100-4.9 149.4 0 9.9 14.3 20.3 33 25.8 51.1-66.4 1-134.6 1-201.6.5zm154.4 48.9c0-11 15.4-17 26.4-17s33-.5 33 10.4-22 22.5-33 22.5-26.4-4.9-26.4-15.9z"/></g><g><path class="st1" d="M18.7 186c3.3 1.1 7.1 2.2 10.4 3.3v-2.2-1.6c-3.3-1.1-6.6-2.2-10.4-3.3v3.8zm10.4-.5c9.9 3.3 19.2 7.1 28.6 11.5 7.7 3.3 15.4 7.7 23.1 11.5v-3.8c-7.7-3.8-14.8-7.7-23.1-11.5-8.8-3.8-18.1-7.7-28-11 0 .5-.6 1.6-.6 3.3m-10.4-11v3.8c3.8 1.1 7.1 2.2 10.4 3.3h.5c.5-1.1.5-2.2 1.1-3.3-.5 0-1.1-.5-1.6-.5-3.3-1.1-6.6-2.2-10.4-3.3m0-7.7v3.8c3.3 1.1 7.1 2.2 10.4 3.3 1.1.5 2.2.5 3.3 1.1.5-1.1 1.6-2.2 2.2-2.7-1.6-1.1-3.8-1.6-5.5-2.2-3.3-1.1-6.6-2.2-10.4-3.3m24.7 41.7c4.4 2.2 9.3 3.8 14.3 4.4 3.3.5 6.6.5 9.3.5 1.1 0 2.2 0 3.8-.5 1.6 0 2.7-.5 3.8-.5 2.7 0 4.4 0 6 .5v-1.6c-7.7-3.8-14.8-7.7-23.1-11.5-8.8-3.8-18.1-7.7-28.6-11 1.3 9.8 6.8 15.9 14.5 19.7m14.3-19.2c7.7 3.3 15.4 7.7 23.1 11.5v-4.4c-7.7-3.8-14.8-7.7-23.1-11.5-8.2-3.3-16.5-6.6-25.3-9.9-.5 1.1-1.1 2.2-1.6 3.3 9.3 3.3 18.1 7.2 26.9 11m17.6-11c1.6.5 3.3 1.1 5.5 2.2v-19.8c-2.7 1.1-4.9 1.1-7.1 1.1-1.6 0-3.8-.5-10.4-1.1h-5.5c-5.5.5-10.4 2.2-14.3 4.4-3.3 1.6-6.6 4.4-8.8 7.1 8.2 2.7 15.9 6 23.1 9.3 7.7 3.8 15.4 7.7 23.1 11.5v-4.4c-6.6-3.8-12.6-6.6-20.3-10.4 1.6-.5 5.5-1.1 8.2-1.1 2.1.1 4.3.7 6.5 1.2"/></g></svg>