<svg id="Слой_1" xmlns="http://www.w3.org/2000/svg" viewBox="0 0 510.4 510.4"><style>.st0{stroke:#002d33;stroke-width:.5;stroke-miterlimit:10}.st0,.st1{fill:#002d33}</style><path class="st0" d="M195.8 465.7l-2.8.6c.6 0 1.1-.6 1.7-.6 2.8-1.1 6.1-2.2 8.8-3.9 2.8-1.7 5.5-3.3 7.7-5l.6-.6c0-.6-.6-.6-.6-.6h-7.7c-1.1 0-2.2 0-3.9.6h-3.9c-3.9.6-7.7 1.1-11.6 1.1l3.3-6.6c1.7-5 3.3-9.4 4.4-14.9.6-2.8.6-5 .6-7.7 0-2.8 0-5.5-2.8-7.7-1.1-1.1-3.3-1.1-5-.6s-2.8 1.7-3.3 2.8c-1.7 2.2-3.3 4.4-4.4 6.6-2.8 4.4-4.4 9.4-6.6 13.8l-2.8 7.2c-.6 1.1-.6 2.2-1.7 3.3l-1.7 3.3c-.6.6-.6 1.1-1.1 1.7h-2.8c1.1-.6 1.7-1.7 2.2-2.2 1.1-1.1 1.7-2.2 2.2-3.3v-.6c0-.6 0-1.1-.6-1.1s-1.7-.6-2.2-.6h-1.7s0-.6-.6-.6c-.6-.6-1.1-.6-1.7 0l-1.1 1.1c-.6 0-1.1.6-1.7.6-2.8 1.1-5.5 2.2-8.3 3.3-2.8 1.1-5.5 2.2-8.3 3.3-1.1.6-2.8 1.1-3.9 2.2l-3.9 2.8-.6.6v1.1c0 .6.6.6.6 1.1h6.1c-4.4 1.1-8.3 2.2-12.7 3.3-4.4.6-9.4 1.1-13.8 1.1 0-.6.6-1.7 1.1-2.2.6-1.1 1.1-2.2 1.7-2.8 1.7-1.7 3.3-3.3 5-4.4 3.9-2.8 7.7-4.4 12.2-6.6 4.4-1.7 8.3-3.3 12.7-5 4.4-1.7 8.8-3.3 12.7-5.5-3.9 2.2-8.3 3.9-12.7 5.5-4.4 1.7-8.8 3.3-12.7 5-4.4 1.7-8.3 3.9-12.2 6.1-2.2 1.1-3.9 2.8-5.5 4.4-1.1 1.1-1.7 1.7-2.2 2.8-.6 1.1-1.1 2.2-1.1 3.3 0 .6 0 .6.6.6 9.9.6 20.4-1.1 29.8-4.4 1.7-.6 3.3-1.1 5-1.7 1.7-.6 3.9-1.1 5.5-1.1-.6 1.1-1.1 2.8-1.7 3.9-.6 1.7-.6 2.8-1.1 4.4 0 1.7 0 2.8-.6 4.4l.6 4.4c0 .6 0 .6.6.6.6.6 1.1 0 1.7 0l8.8-12.2c1.7-2.2 2.8-4.4 4.4-6.6.6-.6.6-1.1 1.1-2.2l4.4-1.1 6.1-.6 3.9.6-1.1 2.2v1.1c.6.6 1.1.6 1.7 0 1.7-1.7 2.8-2.8 3.9-4.4 4.4-.6 8.3-1.1 12.7-1.7l3.9-.6c1.1 0 2.2-.6 3.9-.6h5c-1.7 1.1-3.9 2.8-6.1 3.9-2.8 1.7-5.5 2.8-8.3 3.9-5.5 2.2-11.6 4.4-17.7 6.1 0 0-.6.6 0 .6 0 0 .6.6.6 0 3.9-1.1 7.7-2.2 12.2-3.9l6.8-1.1 9.9-1.1 9.9-.6-9.9.6-9.9 1.1zM159.9 453H163.3l-1.7 1.7-2.8 2.8c-.6.6-1.1.6-1.7 1.1H156c1.7-2.3 2.8-4 3.9-5.6zm-5 4.4l-.6.6h-.6l1.2-.6zm-7.1 6.6c-1.1 0-2.2.6-3.3 1.1-2.2.6-3.9.6-6.1 1.1h-5l2.8-2.2c1.1-1.1 2.8-1.7 3.9-2.2 2.8-1.7 5.5-2.2 8.3-3.3 1.7-.6 3.3-1.7 5-2.2l-2.8 2.2-.6.5c0 .6.6 1.1 1.1 1.1h2.2c-.6.6-.6 1.1-.6 1.7-1.6.5-3.3 1.1-4.9 2.2zm13.2-1.1c-1.1 2.2-2.8 4.4-3.9 6.1l-7.2 9.9v-1.1c0-1.1 0-2.8.6-3.9s.6-2.8 1.1-3.9c.6-1.1 1.1-2.8 1.7-3.9 0-.6.6-1.1.6-1.7 1.1-.6 2.2-.6 3.3-1.1l3.8-.4zm1.7-2.8l-6.1 1.7c-.6 0-1.1 0-1.1.6 1.1-.6 2.2-1.7 3.3-2.2h3.9v-.1zm19.3-3.8c0 .6-.6.6-.6 1.1h-.6c-2.8 0-5 .6-7.2.6h-7.2v-.6l1.7-3.3c.6-1.1 1.1-2.8 1.7-3.9l2.8-7.2c1.7-4.4 3.9-9.4 6.1-13.3 1.1-2.2 2.8-4.4 3.9-6.1.6-1.1 1.7-1.7 2.8-2.2.6-.6 1.7 0 2.2.6 1.1 1.1 1.7 3.3 1.7 6.1 0 2.2 0 5-.6 7.2-1.1 5-2.2 9.4-4.4 14.4-.1 2.1-1.2 4.9-2.3 6.6zM111.9 213.8h240.3c1.1 0 2.2-1.1 2.2-2.2s-1.1-2.2-2.2-2.2H111.9c-1.1 0-2.2 1.1-2.2 2.2s1.1 2.2 2.2 2.2zM163.8 146.9h135.9c1.1 0 2.2-1.1 2.2-2.2s-1.1-2.2-2.2-2.2H163.8c-1.1 0-2.2 1.1-2.2 2.2s1.1 2.2 2.2 2.2zM195.8 122.6h72.4c1.1 0 2.2-1.1 2.2-2.2s-1.1-2.2-2.2-2.2h-72.4c-1.1 0-2.2 1.1-2.2 2.2s.6 2.2 2.2 2.2zM111.9 239.7h240.3c1.1 0 2.2-1.1 2.2-2.2s-1.1-2.2-2.2-2.2H111.9c-1.1 0-2.2 1.1-2.2 2.2s1.1 2.2 2.2 2.2zM111.9 265.1h240.3c1.1 0 2.2-1.1 2.2-2.2s-1.1-2.2-2.2-2.2H111.9c-1.1 0-2.2 1.1-2.2 2.2-.1 1.1 1.1 2.2 2.2 2.2zM111.9 291.1h240.3c1.1 0 2.2-1.1 2.2-2.2s-1.1-2.2-2.2-2.2H111.9c-1.1 0-2.2 1.1-2.2 2.2s1.1 2.2 2.2 2.2zM111.9 316.5h240.3c1.1 0 2.2-1.1 2.2-2.2s-1.1-2.2-2.2-2.2H111.9c-1.1 0-2.2 1.1-2.2 2.2s1.1 2.2 2.2 2.2zM111.9 341.9h240.3c1.1 0 2.2-1.1 2.2-2.2s-1.1-2.2-2.2-2.2H111.9c-1.1 0-2.2 1.1-2.2 2.2s1.1 2.2 2.2 2.2zM111.9 367.9h240.3c1.1 0 2.2-1.1 2.2-2.2s-1.1-2.2-2.2-2.2H111.9c-1.1 0-2.2 1.1-2.2 2.2-.1 1.1 1.1 2.2 2.2 2.2zM111.9 393.3h240.3c1.1 0 2.2-1.1 2.2-2.2s-1.1-2.2-2.2-2.2H111.9c-1.1 0-2.2 1.1-2.2 2.2-.1 1.1 1.1 2.2 2.2 2.2zM360.4 461.2l-1.7.6h-3.4c-1.1 0-2.8-.6-3.9-.6-2.2-.6-5-1.7-7.2-2.2-2.2-.6-5-1.7-7.7-1.7v-1.7-.6c0-.6-.6-.6-1.1-.6l-3.9 1.7c-.6-.6-1.1-.6-1.7-.6-1.1.6-2.8 1.7-3.9 2.2l-4.4 1.7c-2.8.6-5.5 1.7-7.7 2.2 0-.6 0-.6-.6-1.1 0-.6-.6-1.1-1.1-1.1l1.7-1.7c0-.6.6-1.1.6-1.7v-2.3c-.6-.6-1.1-.6-1.7-.6l-1.7 1.1-1.7 1.7c-.6.6-.6 1.1-1.1 2.2h-1.7v-.6c0-.6 0-1.1.6-1.1v-.6-.6c0-.6-.6-1.1-1.7-1.1-2.2.6-4.4 1.1-6.1 1.7l-4.4 1.1h-.6s0-.6.6-.6l.6-1.1.6-.6c.6-.6.6-1.1 0-1.7-.6-.6-1.1-.6-1.7-.6l-5 2.8-1.7 1.1v-1.1l1.7-3.9v-1.1c-.6-.6-1.1-.6-1.7 0l-5.5 3.9-3.9 1.7c.6-1.1 1.1-1.7 1.7-2.8.6-.6 1.7-1.1 2.2-2.2l2.8-3.3v-.6h-.6l-2.8 2.2-2.2 2.8c-.6 1.1-1.7 2.2-2.2 3.3-1.7 1.7-3.3 2.8-5.5 3.9 1.7-1.1 3.3-2.2 5-3.3-.6.6-.6 1.1-1.1 1.7v.6c0 .6.6.6 1.1.6l6.6-2.8 2.8-1.7v.6l-1.1 4.4v1.1c.6.6 1.1.6 1.7 0l3.9-2.8v.6c0 .6.6 1.1 1.1 1.1h3.3c1.1 0 2.2-.6 3.3-.6l2.8-1.1h1.1v1.7c0 .6.6 1.7 1.1 1.7h3.3c0 .6.6.6.6.6h3.3c0 .6.6 1.1.6 1.7s.6.6 1.1.6c3.3-.6 6.1-1.7 9.4-2.2l3.3-1.1v1.1c.6.6 1.1.6 1.7 0l4.4-3.3 3.3-1.7V459.8c0 .6.6 1.1.6 1.1.6 0 1.1-.6 1.1-.6l.6-2.2c2.2.6 4.4.6 6.6 1.7 2.2.6 5 1.1 7.7 1.7 1.1 0 2.8.6 3.9.6H358.7l1.7-.9c.6 0 1.1 0 1.7-.6l3.3-1.7-3.3 1.7c0 .6-.6.6-1.7.6z"/><path class="st0" d="M445.5 0H110.8v14.4H96.4v14.9H81.5v18.2H64.9v462.9h334.2v-18.2h17.1v-14.9h14.9v-14.9h14.4V0zm-51.9 504.9H69.9V53H393l.6 451.9zm17.1-18.8h-11.6V47.5H86.4h.6V34.2h323.1V486h.6zm14.9-14.9h-9.4V28.7H101.9v-9.4H425c.6 0 .6 451.9.6 451.9zm14.4-14.4h-8.8v-443H116.3V5.5h323.1l.6 451.3z"/><g><path class="st1" d="M304.6 103.3c3.9 1.1 8.3 2.8 12.2 3.9v-.6-2.2-1.7c-3.9-1.1-7.7-2.8-12.2-3.9v4.5zm11.6-.6c11.6 3.9 22.1 8.3 32.6 12.7 8.8 3.9 17.7 8.3 26.5 13.3v-4.4c-8.3-4.4-17.1-8.8-26.5-13.3-9.9-4.4-21-8.8-32-12.7-.6 1.1-.6 2.2-.6 3.3v1.1M304.6 90v4.4c3.9 1.1 8.3 2.2 12.2 3.9h.6c.6-1.1.6-2.8 1.1-3.9-.6 0-1.1-.6-1.7-.6-3.9-1-8.3-2.1-12.2-3.8m0-8.8v4.4c3.9 1.1 8.3 2.2 12.2 3.9 1.1.6 2.2.6 3.9 1.1.6-1.1 1.7-2.2 2.8-3.3-2.2-.6-4.4-1.7-6.1-2.2-4.5-1.1-8.9-2.2-12.8-3.9m28.2 48.1c5 2.8 10.5 4.4 16.6 5 3.9.6 7.2.6 10.5.6 1.1 0 2.8 0 4.4-.6 1.7 0 3.3-.6 4.4-.6 2.8 0 5 0 7.2.6v-1.7c-8.3-4.4-17.1-8.8-26.5-13.3-10.5-4.4-21-8.8-32.6-12.7 1.1 11.1 7.2 18.2 16 22.7m16-22.7c8.8 3.9 17.7 8.3 26.5 13.3v-4.4c-8.3-4.4-17.1-8.8-26.5-13.3s-18.8-8.3-28.7-11.6c-.6 1.1-1.1 2.8-1.7 3.9 10.5 3.8 20.5 7.7 30.4 12.1m20.5-12.1c1.7.6 3.9 1.1 6.1 2.8V74c-2.8 1.1-6.1 1.1-8.3 1.1s-4.4-1.1-11.6-1.1h-6.6c-6.1.6-12.2 2.8-16 5-3.9 1.7-7.2 5-9.9 7.7 8.8 3.3 17.7 6.6 26.5 10.5 8.8 4.4 17.7 8.3 26.5 13.3v-4.4c-7.7-4.4-14.4-7.7-23.2-11.6 1.7-1.1 6.1-1.7 9.4-1.7 2.1.6 4.3 1.1 7.1 1.7"/></g></svg>