<?xml version="1.0" encoding="utf-8"?>
<!-- Generator: Adobe Illustrator 18.1.1, SVG Export Plug-In . SVG Version: 6.00 Build 0)  -->
<svg version="1.1" id="Слой_1" xmlns="http://www.w3.org/2000/svg" xmlns:xlink="http://www.w3.org/1999/xlink" x="0px" y="0px"
	 viewBox="0 0 205 223.5" enable-background="new 0 0 205 223.5" xml:space="preserve">
<line fill="none" x1="135.1" y1="-854" x2="135.1" y2="612.2"/>
<line fill="none" x1="89.1" y1="841.4" x2="89.1" y2="-1251.1"/>
<polygon fill="#1B86C4" points="22.2,70.1 9.7,61.3 15,75.8 3.8,84.7 18.3,84.5 23.5,98.7 27.4,84.3 42.3,84.1 29.9,75.5 34,60.8 
	"/>
<polygon fill="#F2B800" points="54.4,134.4 69.2,134.2 56.8,125.5 60.9,110.9 49.2,120.1 36.7,111.4 42,125.8 30.7,134.8 
	45.2,134.5 50.5,148.7 "/>
<polygon fill="#06823C" points="163.6,136.2 178.3,135.9 166,127.3 170,112.6 158.3,121.9 145.8,113.1 151.2,127.6 139.8,136.6 
	154.4,136.3 159.6,150.5 "/>
<polyline fill="#D0141C" points="201.6,82.9 189.2,74.2 193.3,59.6 181.5,68.8 169,60.1 174.4,74.5 163.1,83.5 177.7,83.3 
	182.9,97.4 186.8,83.1 201.6,82.9 "/>
<polygon fill="#181B21" points="110.4,156.2 122.7,147.3 107.7,147.2 103.4,132.5 98.6,147.2 84.2,147.1 95.7,156 90.9,170.3 
	102.9,161.6 114.6,170.7 "/>
<path fill="#181B21" d="M148.7,65.5c-0.2,25.2-20.4,45.6-45.8,45.6c-25.4,0-45.8-20.4-46-45.7V7.5H81v53.4v4.5
	c0,12,9.7,21.7,21.7,21.7c12,0,21.9-9.7,21.9-21.7l0-57.9h24.1V65.5z M151.6,4.6h-29.8v61c-0.1,10.3-8.6,18.6-19,18.6
	c-10.4,0-18.7-8.4-18.8-18.7V4.6H54v60.8c0,26.7,21.8,48.5,48.8,48.5c26.9,0,48.9-21.7,48.9-48.5L151.6,4.6L151.6,4.6z"/>
<polygon fill="#181B21" points="57.3,213.9 61,213.9 61,201.2 75.8,201.2 75.8,197.5 61.1,197.5 61.1,188.5 78.2,188.5 78.2,185.3 
	57.3,185.3 "/>
<rect x="84.2" y="185.4" fill="#181B21" width="4" height="28.5"/>
<path fill="#181B21" d="M116.7,201.3c-2.1-2.2-5.9-2.9-8.9-3.6c-3.1-0.6-8.3-1.6-8.3-4.9s3.9-4.3,6.9-4.2c3,0,7.1,0.8,7.3,5h3.9
	c0,0,0.3-8.5-11.3-8.5c-11.6,0-11,7.3-11,7.9c0,0.6,0.4,5.5,6.5,7c6.1,1.5,12.5,2.7,12.5,6.3s-3.2,4.8-7.4,4.8
	c-4.2,0-8.8-1.3-8.8-6.4h-4.2c0,0,0,9.9,12.9,9.9c12.9,0,11.9-8.4,11.9-8.4S118.8,203.5,116.7,201.3"/>
<path fill="#181B21" d="M148.8,185.5h-3.9v18.6c0,0,0.3,6.9-8.2,6.9c-8.5,0-7.9-7-7.9-7v-18.4h-4v18.4c0,0-1,10.7,12.1,10.7
	c13.1,0,12-9.8,12-9.8L148.8,185.5L148.8,185.5z"/>
</svg>
