<svg id="Слой_1" xmlns="http://www.w3.org/2000/svg" viewBox="0 0 79.8 38.4"><style>.st0{fill:#002d33}</style><path class="st0" d="M2.3 37.5h75.2v.9H2.3zM9.9 34.5c.5 1.4 1.8 2.5 3.4 2.5.6 0 1.1-.1 1.6-.4-.5-.6-.8-1.3-.9-2.1H9.9zM18 37.1c1.6 0 2.9-1.1 3.2-2.6h-6.4c.2 1.5 1.6 2.6 3.2 2.6zM75.7 28v-5.6c0-.3-.2-.5-.5-.5h-3.6v1h3.1v5H5.1v-5h3.1v-1H4.6c-.3 0-.5.2-.5.5V29.8H1.9v2.4h2.7c.4.9 1.3 1.5 2.8 1.5h65c1.5 0 2.4-.6 2.8-1.5h2.7v-2.4h-2.3c.1-.5.1-1.1.1-1.8zM69.9 34.5h-4.1c-.1.8-.4 1.5-.9 2.1.5.2 1 .4 1.6.4 1.6 0 2.9-1.1 3.4-2.5zM61.8 37.1c1.6 0 2.9-1.1 3.2-2.6h-6.4c.3 1.5 1.6 2.6 3.2 2.6zM78.7 29.3h1.1v3.5h-1.1zM0 29.3h1.1v3.5H0z"/><path class="st0" d="M61.7 3.7H45.9V1.8h-2.6v-.5H40V.5h1.5c.2 0 .3-.1.3-.3s-.1-.2-.3-.2h-3.2c-.1 0-.3.1-.3.3s.1.3.3.3h1.5v.8h-3v.5h-2.6v1.9H18.4c-4.9 0-8.9 5.2-8.9 11.6s4 11.6 8.9 11.6h43.3c4.9 0 8.9-5.2 8.9-11.6 0-6.5-4-11.7-8.9-11.7zM37.5 8.8c1-.7 2.6-1.1 4.1-1.3.6-.1 1.1-.1 1.6-.1 1.8.1 2.4.3 2.9.3s1.3 0 2-.3v5.8c-.5-.4-1.1-.6-1.5-.7-.7-.2-1.2-.3-2-.3s-1.8.1-2.3.4c2.2 1 3.9 1.9 5.8 2.9v1.1c-2.1-1.1-4.3-2.2-6.6-3.3-2.1-1-4.3-1.8-6.6-2.7.8-.6 1.7-1.4 2.6-1.8zm-7.1.4l3 .9c.5.2 1 .3 1.6.5-.2.3-.5.6-.7.9l-.9-.3c-1-.3-2-.7-3-.9V9.2zm0 2.3l3 .9c.1.1.3.1.4.1.1-.3.3-.6.5-.9 2.5.9 4.9 1.9 7.2 2.9s4.5 2.1 6.6 3.3v1.1c-2.1-1.1-4.3-2.2-6.6-3.3-2.5-1.1-5-2.2-7.7-3.1-.1.3-.2.7-.3 1h-.1l-3-.9v-1.1zm-13 12L14.9 21l2.5-2.5 2.5 2.5-2.5 2.5zm16-7.9v.1l-3-.9v-1.1l3 .9v-.2c0-.3.1-.6.1-.9 2.8.9 5.4 2 8 3.2 2.3 1 4.5 2.1 6.6 3.3v1.1c-2.1-1.1-4.3-2.2-6.6-3.3-2.6-1.2-5.3-2.3-8.1-3.2v1zm14.8 7.1c-.5-.1-1.1-.2-1.8-.2-.3 0-.6 0-1 .1-.5.1-.8.1-1.1.1-.9 0-1.8-.1-2.7-.2-1.4-.2-2.8-.6-4.1-1.3-2.1-1.1-3.8-2.9-4-5.4 2.8 1 5.5 2 8.1 3.2 2.3 1 4.5 2.1 6.6 3.3v.4z"/></svg>