<svg id="Слой_1" xmlns="http://www.w3.org/2000/svg" viewBox="0 0 236.4 260.3"><style>.st0{fill:#002d33}</style><g id="_x23_e34b34ff"><path class="st0" d="M31.1 58.3C53.8 26.4 90.1 4.1 129.2 0c.7 3.8.8 7.7.8 11.6.2 25.3.8 50.7 1.2 76-.1 9.2.5 18.5 0 27.7C97.8 96.8 64.5 78.2 31.1 59.7v-1.4zM136.3 91c.8-22.6.7-45.3 1.6-67.9 37.8 4.1 73.1 25 95.8 55.4 1 1.4 1.9 2.9 2.8 4.4-31.6 17.7-63.5 34.9-95.1 52.4-1.8 1-3.8 1.8-5.8 2.4-.2-15.5.5-31.1.7-46.7zM8.5 57.9c1.5.2 3 .7 4.3 1.4 33 16.5 65.9 33 98.9 49.5-1.8 2.9-5.1 4.2-7.8 6.1-24.5 16.1-49 32.3-73.5 48.5-5 3-9.6 6.8-14.8 9.4C6.8 155.3 1.2 136.2.1 116.6c-.4-11.7-.3-23.4 2-34.9 1.5-8.1 4.2-15.9 6.4-23.8zM1.9 193.8c30.7-22.4 61.4-44.9 92.2-67.2 3.1 23.6 5.1 47.4 7.9 71.1 1.3 14.5 3.4 29 4.5 43.6-39.3.6-78.6-16.5-104.8-45.8 0-.5.1-1.3.2-1.7zM100.3 146.4c35.9 13.7 71.4 28.1 107.2 42-8.3 17.3-21.2 32.1-35.7 44.4-15.9 13-34.6 22.9-54.7 27.5-5.2-34.2-10.3-68.5-15.5-102.7-.6-3.7-1.1-7.4-1.3-11.2z"/></g></svg>