<?xml version="1.0" encoding="utf-8"?>
<!-- Generator: Adobe Illustrator 19.1.0, SVG Export Plug-In . SVG Version: 6.00 Build 0)  -->
<svg version="1.1" id="Слой_1" xmlns="http://www.w3.org/2000/svg" xmlns:xlink="http://www.w3.org/1999/xlink" x="0px" y="0px"
	 viewBox="0 0 39.4 38.4" style="enable-background:new 0 0 39.4 38.4;" xml:space="preserve">
<style type="text/css">
	.st0{clip-path:url(#SVGID_2_);}
	.st1{opacity:0.5;clip-path:url(#SVGID_4_);}
	.st2{clip-path:url(#SVGID_6_);fill:none;stroke:#015E27;stroke-width:0.998;}
	.st3{clip-path:url(#SVGID_4_);fill:none;stroke:#015E27;stroke-width:0.998;}
	.st4{clip-path:url(#SVGID_2_);fill:none;stroke:#015E27;stroke-width:0.998;}
	.st5{clip-path:url(#SVGID_8_);fill:none;stroke:#015E27;stroke-width:0.998;}
</style>
<g>
	<defs>
		<rect id="SVGID_1_" width="39.4" height="38.4"/>
	</defs>
	<clipPath id="SVGID_2_">
		<use xlink:href="#SVGID_1_"  style="overflow:visible;"/>
	</clipPath>
	<g class="st0">
		<defs>
			<rect id="SVGID_3_" y="0" width="39.4" height="38.4"/>
		</defs>
		<clipPath id="SVGID_4_">
			<use xlink:href="#SVGID_3_"  style="overflow:visible;"/>
		</clipPath>
		<g class="st1">
			<g>
				<defs>
					<rect id="SVGID_5_" x="-8.8" y="-1" width="56.9" height="37.4"/>
				</defs>
				<clipPath id="SVGID_6_">
					<use xlink:href="#SVGID_5_"  style="overflow:visible;"/>
				</clipPath>
				<rect x="0.7" y="6.5" class="st2" width="37.9" height="28.4"/>
			</g>
		</g>
		<rect x="0.5" y="6.5" class="st3" width="19.4" height="28.7"/>
		<rect x="19.5" y="6.5" class="st3" width="19.4" height="28.7"/>
	</g>
	<line class="st4" x1="5.6" y1="13.7" x2="14.9" y2="13.7"/>
	<line class="st4" x1="24.5" y1="13.7" x2="33.8" y2="13.7"/>
	<line class="st4" x1="5.6" y1="20.9" x2="14.9" y2="20.9"/>
	<line class="st4" x1="24.5" y1="20.9" x2="33.8" y2="20.9"/>
	<line class="st4" x1="5.6" y1="28" x2="14.9" y2="28"/>
	<line class="st4" x1="24.5" y1="28" x2="33.8" y2="28"/>
	<g class="st0">
		<defs>
			<rect id="SVGID_7_" y="0" width="39.4" height="38.4"/>
		</defs>
		<clipPath id="SVGID_8_">
			<use xlink:href="#SVGID_7_"  style="overflow:visible;"/>
		</clipPath>
		<path class="st5" d="M33.7,6.7V5c0,0,0-4.5-4.5-4.5h-1c0,0-4.5,0-4.5,4.5v1.7"/>
		<path class="st5" d="M15.7,6.7V5c0,0,0-4.5-4.5-4.5h-1c0,0-4.5,0-4.5,4.5v1.7"/>
		<path class="st5" d="M33.9,37.9v-1.7c0,0,0-4.5-4.5-4.5H10c0,0-4.5,0-4.5,4.5v1.7H33.9z"/>
	</g>
</g>
</svg>
