<?xml version="1.0" encoding="utf-8"?>
<!-- Generator: Adobe Illustrator 19.1.0, SVG Export Plug-In . SVG Version: 6.00 Build 0)  -->
<svg version="1.1" id="Слой_1" xmlns="http://www.w3.org/2000/svg" xmlns:xlink="http://www.w3.org/1999/xlink" x="0px" y="0px"
	 viewBox="0 0 39.5 29.7" style="enable-background:new 0 0 39.5 29.7;" xml:space="preserve">
<style type="text/css">
	.st0{clip-path:url(#SVGID_2_);fill:none;stroke:#015E27;stroke-width:0.998;}
	.st1{fill:none;stroke:#015E27;stroke-width:0.998;}
	.st2{clip-path:url(#SVGID_4_);fill:none;stroke:#015E27;stroke-width:0.998;}
</style>
<g>
	<defs>
		<rect id="SVGID_1_" y="0" width="39.5" height="29.7"/>
	</defs>
	<clipPath id="SVGID_2_">
		<use xlink:href="#SVGID_1_"  style="overflow:visible;"/>
	</clipPath>
	<rect x="0.5" y="0.5" class="st0" width="19.4" height="28.7"/>
	<rect x="19.5" y="0.5" class="st0" width="19.4" height="28.7"/>
</g>
<line class="st1" x1="5.6" y1="7.7" x2="14.9" y2="7.7"/>
<line class="st1" x1="5.6" y1="14.8" x2="14.9" y2="14.8"/>
<line class="st1" x1="5.6" y1="22" x2="14.9" y2="22"/>
<g>
	<defs>
		<rect id="SVGID_3_" y="0" width="39.5" height="29.7"/>
	</defs>
	<clipPath id="SVGID_4_">
		<use xlink:href="#SVGID_3_"  style="overflow:visible;"/>
	</clipPath>
	<path class="st2" d="M39.5,29.1h-8.7c0.3-0.9,0.4-1.7,0.8-2.5c1-1.9,1.1-4,1.5-6.2c-1.7,0.7-2.7,2.5-4.8,1.7
		c0.6-0.3,0.6-1.3,1.1-1.5c0,0-0.7-0.1-0.7-0.1c-1,0.2-1.2,0.4-2.2,0.5c-1.6,0.2-2.8-0.5-3.5-1.9c-1.6-2.9-1.5-5.9,0.4-8.6
		c1.3-2,3.1-2.5,5.4-1.7c0.3,0.1,0.5,0.5,0.8,0.7c-0.4,0.4-0.8,0.8-1.2,1.2c0,0-0.2,0-0.3,0c-2.2-0.4-2.8,0-3.2,2
		c-0.2,1.2-0.1,2.5-0.1,3.8c0,0.7,0.4,1,1.2,1.1c2.3,0.2,3.3-0.6,3.8-2.8c0.2-1.1,0.5-2.1,0.7-3.2c0.3-1,1.1-1.5,2.1-1.6
		c0.5-0.1,1-0.1,1.4-0.3c0.4-0.2,0.9-0.5,1-0.8c0.2-1.1,1-1.6,2-2c0.9-0.3,1.6-0.5,2.3-0.6 M35.6,28.7c0.1,0,0.9,0,1,0
		c0.1-2,2-4.1,1.5-6.3h-2.1C35.9,24.4,35.7,26.8,35.6,28.7z"/>
</g>
</svg>
