<?xml version="1.0" encoding="utf-8"?>
<!-- Generator: Adobe Illustrator 19.1.0, SVG Export Plug-In . SVG Version: 6.00 Build 0)  -->
<svg version="1.1" id="Слой_1" xmlns="http://www.w3.org/2000/svg" xmlns:xlink="http://www.w3.org/1999/xlink" x="0px" y="0px"
	 viewBox="0 0 50 33.9" style="enable-background:new 0 0 50 33.9;" xml:space="preserve">
<style type="text/css">
	.st0{fill:none;stroke:#015E27;stroke-width:0.998;}
	.st1{clip-path:url(#SVGID_2_);fill:none;stroke:#015E27;stroke-width:0.878;}
	.st2{clip-path:url(#SVGID_2_);fill:none;stroke:#015E27;stroke-width:0.998;}
</style>
<rect x="5.5" y="2.6" class="st0" width="19.4" height="28.7"/>
<rect x="24.5" y="2.6" class="st0" width="19.4" height="28.7"/>
<line class="st0" x1="10.5" y1="9.8" x2="19.8" y2="9.8"/>
<line class="st0" x1="29.5" y1="9.8" x2="38.8" y2="9.8"/>
<line class="st0" x1="10.5" y1="16.9" x2="19.8" y2="16.9"/>
<line class="st0" x1="29.5" y1="16.9" x2="38.8" y2="16.9"/>
<line class="st0" x1="10.5" y1="24.1" x2="19.8" y2="24.1"/>
<line class="st0" x1="29.5" y1="24.1" x2="38.8" y2="24.1"/>
<g>
	<defs>
		<rect id="SVGID_1_" y="0" width="50" height="33.9"/>
	</defs>
	<clipPath id="SVGID_2_">
		<use xlink:href="#SVGID_1_"  style="overflow:visible;"/>
	</clipPath>
	<path class="st1" d="M2.4,0.4c0,0-2,0-2,2v29c0,0,0,2,2,2h45.1c0,0,2,0,2-2v-29c0,0,0-2-2-2H2.4z"/>
	<circle class="st2" cx="46.7" cy="16.9" r="1.2"/>
</g>
</svg>
