<?xml version="1.0" encoding="utf-8"?>
<!-- Generator: Adobe Illustrator 19.1.0, SVG Export Plug-In . SVG Version: 6.00 Build 0)  -->
<svg version="1.1" id="Слой_1" xmlns="http://www.w3.org/2000/svg" xmlns:xlink="http://www.w3.org/1999/xlink" x="0px" y="0px"
	 viewBox="-112 228.9 370 384" style="enable-background:new -112 228.9 370 384;" xml:space="preserve">
<style type="text/css">
	.st0{display:none;}
	.st1{fill:#C1C2C4;}
	.st2{fill:none;stroke:#C1C2C4;stroke-width:30;stroke-linecap:round;stroke-miterlimit:10;}
</style>
<g class="st0">
	<title>Layer 1</title>
	
		<image style="display:inline;overflow:visible;enable-background:new    ;" width="651" height="672" id="svg_3" xlink:href="45E4A601.png"  transform="matrix(0.5612 0 0 0.5776 -109.0653 224.2843)">
	</image>
</g>
<g>
	<title>Layer 1</title>
	<path class="st1" d="M39.8,355.1c0,13-1.6,19.4-23.6,19.4c-0.7,0-71.3-0.3-113.7-0.3c-6.4,0-11.6,3.4-13.6,8.9
		c-2.3,6.4-0.8,12.9,4,17.1c1.6,1.4,3.8,1.9,5.6,3.1c58.4,0,81,0,139.3,0c14.3,0,30.1-8.9,30.1-25.2c0-51.3,0-85.7,0-136.9
		c-0.8-0.7-0.8-1.8-1.2-2.8c-3.3-8.7-12.4-12.1-20-7.3c-5.1,3.2-6.8,8.5-6.8,14.2C40.1,250.2,39.8,342.1,39.8,355.1z"/>
</g>
<g>
	<title>Layer 1</title>
	<path class="st1" d="M106.2,486.7c0-13,1.6-19.4,23.6-19.4c0.7,0,71.3,0.3,113.7,0.3c6.4,0,11.6-3.4,13.6-8.9
		c2.3-6.4,0.8-12.9-4-17.1c-1.6-1.4-3.8-1.9-5.6-3.1c-58.4,0-81,0-139.3,0c-14.3,0-30.1,8.9-30.1,25.2c0,51.3,0,85.7,0,136.9
		c0.8,0.7,0.8,1.8,1.2,2.8c3.3,8.7,12.4,12.1,20,7.3c5.1-3.2,6.8-8.5,6.8-14.2C105.9,591.6,106.2,499.7,106.2,486.7z"/>
</g>
<line class="st2" x1="-93" y1="245.8" x2="35.1" y2="371.8"/>
<line class="st2" x1="103.9" y1="467.7" x2="232" y2="593.7"/>
</svg>
