<?xml version="1.0" encoding="utf-8"?>
<!-- Generator: Adobe Illustrator 18.1.1, SVG Export Plug-In . SVG Version: 6.00 Build 0)  -->
<svg version="1.1" id="Слой_1" xmlns="http://www.w3.org/2000/svg" xmlns:xlink="http://www.w3.org/1999/xlink" x="0px" y="0px"
	 viewBox="0 304.2 612 183.6" enable-background="new 0 304.2 612 183.6" xml:space="preserve">
<image display="none" overflow="visible" width="1920" height="1080" xlink:href="854FD0DF.jpg"  transform="matrix(1 0 0 1 27 277.1879)">
</image>
<path fill="#FFFFFF" d="M167.3,316.5L72,331l-24,4.5l25.5,8.5l34.3,8l16.3,8l5,7.5l-5,5.5l-37,9.5l7,5.5l23.5,8l10.5,5.5l3.5,6l-6,7
	l-29,8.5l11.3,4l22.8,4.1l6.5,8.4l1,7.5l154-87l8.7-8.5V344c0,0-78.5-3.5-81-1.7c-0.9,0.6-13.6-0.1-15.5-4.5
	c-2-4.7,15.3-6.3,13.7-10.8c-1.4-3.8-10.8-13.5-10.8-13.5L167.3,316.5z"/>
<path fill="#FFFFFF" d="M167.3,335.5L101,350l35.7,17.7L124,379l5,7.5l-5,5.5l1,8.7l12.3,9.7l-19.8,4.7l-17.8,8l18,4.3l7.8,6.2
	l11.5,6l-3.7,17.8l-1.3,16l168.7-100.8c0,0-67.7,0.8-93,0.8c-1.1,0-1.7-12-3.6-16.4c-2-4.7,15.3-6.3,13.7-10.8
	c-1.4-3.8-18-9.9-18-9.9L167.3,335.5z"/>
<g display="none">
	<path display="inline" fill="#015E27" d="M35.5,387.1c27.3-5.3,54.4-10.6,81.7-15.9c2.7-0.5,6.5-0.5,6.8-3.9
		c0.2-3.1-3.1-4.3-5.6-5.6c-21-10.1-43.7-14.3-66.4-17.9c-8.5-1.2-16.9-2.2-25.4-2.9c-3.4-0.2-11.6-1-18.1-2.2
		c-3.9-0.7-7.2-1.2-8.5-2.4c41.1-5.6,82.1-10.9,123.2-16.7c12.1-1.7,16.2-1.7,13.8-15.5c55.6,0,107,0,162.6,0
		c0,13.8,2.7,56.3-0.2,43c-0.2-1.4-1.2-1.7-1.9-1.7c-0.5,0-1.2,0-1.7,0c-29.5,0-58.7,0.2-88.2,0.2c-5.6-1-8.5-4.1-7.7-9.7
		c1-7.7,7.5-6,12.8-6c-1.9-10.9-5.8-13.3-17.4-11.8c-32.4,4.1-64.8,8.2-97.1,12.6c-12.6,1.7-25.1,3.4-37.7,5.3
		c5.3,2.2,10.6,2.9,15.7,3.9c17.9,3.4,35.5,7,50.7,17.9c4.3,3.1,8.2,7,6.8,13.3c-1.4,6-6.5,7-11.4,8c-8.2,1.7-16.7,3.4-24.9,5.1
		c11.1,3.6,22.2,5.6,30.9,13c3.9,3.4,7.5,7,6,12.8c-1.2,5.3-5.8,7-10.4,8.2c-4.8,1.4-10.1,1.7-14.5,5.1c12.3,3.6,26.8,1.9,32.4,17.9
		c50.7-29,101.2-58,152.7-87.5c1.2-0.7,2.7-1.4,3.9-2.2c0.5-0.2,1.2-0.7,1.2-2.9v139.2h-165c-2.9-10.9,0-17.9,10.6-23.9
		c46.6-27.1,92.3-54.8,138.2-82.4c2.7-1.4,5.3-3.1,8.2-4.8c-11.4-2.9-17.2-2.4-25.6,2.7c-43.5,24.9-87,50-130,74.9
		c-1.9-0.5-2.2-1.7-1.9-2.9c1.4-10.1-4.1-15-12.8-17.4c-14-3.9-28.3-5.3-42.5-5.6c-4.1,0-8,0-15,0c10.6-5.3,19.8-6.5,28.3-9.2
		c8.9-2.9,17.9-5.1,26.8-7.7c2.7-0.7,6.3-0.2,6.5-4.1c0.2-3.4-2.9-4.6-5.3-5.8c-14.3-7-29.7-9.2-45.2-10.9
		C73,390.2,55.6,389.7,35.5,387.1"/>
</g>
<rect x="318.9" y="320.1" fill="none" width="272.3" height="129.7"/>
<text transform="matrix(1 0 0 1 318.9266 348.9869)" fill="#FFFFFF" font-family="'Exo 2', sans-serif" font-size="41.0738">ЦЕНТР </text>
<text transform="matrix(1 0 0 1 318.9266 390.0605)" fill="#FFFFFF" font-family="'Exo 2', sans-serif" font-size="41.0738">ТАТАРСКОЙ </text>
<text transform="matrix(1 0 0 1 318.9266 431.1352)" fill="#FFFFFF" font-family="'Exo 2', sans-serif" font-size="41.0738">ЛИТЕРАТУРЫ</text>
<path fill="#015E27" d="M304.6,338c-9.3,0-67.1,0-79,0c-13,0-19.4,0.2-16.7-2.7c1.2-1.2,12.3-0.2,12.3-0.2s-1.7-12.8-3.7-16.5
	c-2-3.7-6.3-10.3-19.7-8.7c-13.3,1.7-73,9.4-73,9.4c-0.6,0.1-1.2,0.2-1.8,0.2C82.1,325.4,41.1,330.8,0,336.3
	c1.2,1.2,4.6,1.7,8.5,2.4c6.5,1.2,14.7,1.9,18.1,2.2c8.5,0.7,16.9,1.7,25.4,2.9c22.7,3.6,45.4,7.7,66.4,17.9
	c2.4,1.2,5.8,2.4,5.6,5.6c-0.2,3.4-4.1,3.4-6.8,3.9c-27.3,5.3-54.4,10.6-81.7,15.9c20.1,2.7,37.4,3.1,39.4,3.6
	c15.5,1.7,30.9,3.9,45.2,10.9c2.4,1.2,5.6,2.4,5.3,5.8c-0.2,3.9-3.9,3.4-6.5,4.1c-8.9,2.7-17.9,4.8-26.8,7.7
	c-8.5,2.7-17.6,3.9-28.3,9.2c7,0,10.9,0,15,0c14.3,0.2,28.5,1.7,42.5,5.6c8.7,2.4,14.3,7.2,12.8,17.4c-0.2,1.2,0,2.4,1.9,2.9
	c37.6-21.7,75.5-43.6,113.5-65.4l0,0l11.4-6.5c1.7-1,3.4-1.9,5.1-2.9c0.6-0.4,1.2-0.7,1.8-1l31.6-18.1l0,0c0,0,5.4-3.5,6.6-4.3
	c1.5-1,4.5-4.2,4.5-8.3C310.5,335.9,304.6,338.9,304.6,338z M294.5,353.7c-51.5,29.5-102,58.5-152.7,87.5
	c-5.6-15.9-20.1-14.3-32.4-17.9c4.3-3.4,9.7-3.6,14.5-5.1c4.6-1.2,9.2-2.9,10.4-8.2c1.4-5.8-2.2-9.4-6-12.8
	c-8.7-7.5-19.8-9.4-30.9-13c8.2-1.7,16.7-3.4,24.9-5.1c4.8-1,9.9-1.9,11.4-8c1.4-6.3-2.4-10.1-6.8-13.3
	C111.6,347,94,343.3,76.1,339.9c-5.1-1-10.4-1.7-15.7-3.9c12.6-1.9,25.1-3.6,37.7-5.3c32.4-4.3,64.8-8.5,97.1-12.6
	c11.6-1.4,15.5,1,17.4,11.8c-5.3,0-11.8-1.7-12.8,6c-0.7,5.6,2.2,8.7,7.7,9.7c29.5,0,58.7-0.2,88.2-0.2c0.5,0,1.2,0,1.7,0
	c0.7,0,1.7,0.2,1.9,1.7c0.1,0.3,0.1,0.5,0.2,0.7l0,2c-0.2,1.1-0.7,1.4-1.1,1.6C297.2,352.3,295.7,353,294.5,353.7z"/>
</svg>
