<?xml version="1.0" encoding="utf-8"?>
<!-- Generator: Adobe Illustrator 19.1.0, SVG Export Plug-In . SVG Version: 6.00 Build 0)  -->
<svg version="1.1" id="Слой_1" xmlns="http://www.w3.org/2000/svg" xmlns:xlink="http://www.w3.org/1999/xlink" x="0px" y="0px"
	 viewBox="-79 401.1 31 42.1" style="enable-background:new -79 401.1 31 42.1;" xml:space="preserve">
<style type="text/css">
	.st0{fill:#015E27;}
</style>
<path class="st0" d="M-62.8,403.9L-62.8,403.9c-0.1,0-0.2,0-0.3,0c0,0,0,0,0,0s0,0,0,0c-0.1,0-0.2,0-0.3,0v0
	c-7.4,0.2-13.3,6.2-13.3,13.6c0,6.1,2.6,11.9,6.1,16.2c3.2,4,7.3,6.9,7.6,7.1c0.4-0.2,4.3-3.1,7.6-7.1c3.4-4.3,6.1-10.1,6.1-16.2
	C-49.5,410.1-55.5,404.1-62.8,403.9z M-63.1,421.7c-3,0-5.4-2.4-5.4-5.4c0-3,2.4-5.4,5.4-5.4s5.4,2.4,5.4,5.4
	C-57.8,419.3-60.2,421.7-63.1,421.7z"/>
</svg>
