<?xml version="1.0" encoding="UTF-8" standalone="no"?>
<!-- Generator: Adobe Illustrator 19.1.0, SVG Export Plug-In . SVG Version: 6.00 Build 0)  -->

<svg
   xmlns:dc="http://purl.org/dc/elements/1.1/"
   xmlns:cc="http://creativecommons.org/ns#"
   xmlns:rdf="http://www.w3.org/1999/02/22-rdf-syntax-ns#"
   xmlns:svg="http://www.w3.org/2000/svg"
   xmlns="http://www.w3.org/2000/svg"
   xmlns:sodipodi="http://sodipodi.sourceforge.net/DTD/sodipodi-0.dtd"
   xmlns:inkscape="http://www.inkscape.org/namespaces/inkscape"
   version="1.1"
   id="Слой_1"
   x="0px"
   y="0px"
   viewBox="0 0 253.3 76"
   style="enable-background:new 0 0 253.3 76;"
   xml:space="preserve"
   inkscape:version="0.91 r13725"
   sodipodi:docname="VectorLogo_1.svg"><metadata
     id="metadata3544"><rdf:RDF><cc:Work
         rdf:about=""><dc:format>image/svg+xml</dc:format><dc:type
           rdf:resource="http://purl.org/dc/dcmitype/StillImage" /><dc:title></dc:title></cc:Work></rdf:RDF></metadata><defs
     id="defs3542" /><sodipodi:namedview
     pagecolor="#ffffff"
     bordercolor="#666666"
     borderopacity="1"
     objecttolerance="10"
     gridtolerance="10"
     guidetolerance="10"
     inkscape:pageopacity="0"
     inkscape:pageshadow="2"
     inkscape:window-width="1280"
     inkscape:window-height="672"
     id="namedview3540"
     showgrid="false"
     inkscape:snap-center="false"
     inkscape:zoom="4.5084879"
     inkscape:cx="147.53426"
     inkscape:cy="52.187068"
     inkscape:window-x="0"
     inkscape:window-y="1"
     inkscape:window-maximized="1"
     inkscape:current-layer="Слой_1" /><style
     type="text/css"
     id="style3522">
	.st0{fill:#015E27;}
	.st1{fill:none;}
	.st2{fill:#FFFFFF;}
	.st3{font-family:'Exo2-Medium';}
	.st4{font-size:17px;}
</style><path
     style="fill:#015e27"
     inkscape:connector-curvature="0"
     id="path3528"
     d="m 17.596014,34.648391 c 11.3,-2.2 22.499999,-4.4 33.799999,-6.6 1.1,-0.2 2.7,-0.2 2.8,-1.6 0.1,-1.3 -1.3,-1.8 -2.3,-2.3 -8.7,-4.2 -18.099999,-5.9 -27.499999,-7.4 -3.5,-0.5 -7,-0.9 -10.5,-1.2 -1.4,-0.1 -4.8,-0.4 -7.4999993,-0.9 -1.5999999,-0.3 -2.9999999,-0.5 -3.4999999,-1 C 19.896014,11.348391 35.343386,9.3701943 52.343386,6.9701943 57.3652,6.2665586 97.048163,1.3232049 88.080041,3.7162427 90.452118,0.32826685 100.09496,11.12861 89.73691,13.801527 c 11.98483,-0.134763 23.11942,-0.217904 34.5309,-0.212904 5.39967,0.01088 8.01679,0.669334 8.71142,2.003654 0.68858,1.322686 0.0699,2.65158 -1.32774,3.772861 -1.32519,1.063132 -2.05149,1.980787 -3.57072,1.806803 -2.29522,-0.262848 -0.51806,-1.549869 1.7472,-4.312375 -12.73473,0.511619 -28.86465,0.470822 -39.47933,0.467028 -2.3,-0.4 -5.052627,-1.478196 -4.752627,-3.778196 0.4,-3.2 2.846827,-2.626587 5.046827,-2.626587 1.914597,-6.1966234 -3.697687,-5.3745179 -8.499454,-4.7734136 -13.4,1.7 -25.247373,3.4 -38.647373,5.2000006 -5.2,0.7 -10.399999,1.4 -15.599999,2.2 2.2,0.9 4.4,1.2 6.5,1.6 7.399999,1.4 14.699999,2.9 20.999999,7.4 1.8,1.3 3.4,2.9 2.8,5.5 -0.6,2.5 -2.7,2.9 -4.7,3.3 -3.4,0.7 -6.9,1.4 -10.3,2.1 4.6,1.5 9.2,2.3 12.8,5.4 1.6,1.4 3.1,2.9 2.5,5.3 -0.5,2.2 -2.4,2.9 -4.3,3.4 -2,0.6 -4.2,0.7 -6,2.1 5.1,1.5 11.1,0.8 13.4,7.4 21,-12 45.221507,-26.164311 66.521497,-38.364311 0.34423,-0.571243 15.77627,-5.452333 -11.44209,10.849674 -9.22068,5.308093 -52.370361,30.243498 -57.479407,32.91463 -0.8,-0.2 -0.9,-0.7 -0.8,-1.2 0.6,-4.2 -1.7,-6.2 -5.3,-7.2 -5.8,-1.6 -11.7,-2.2 -17.6,-2.3 l -6.199999,0 c 4.4,-2.2 8.199999,-2.7 11.699999,-3.8 3.7,-1.2 7.4,-2.1 11.1,-3.2 1.1,-0.3 2.6,-0.1 2.7,-1.7 0.1,-1.4 -1.2,-1.9 -2.2,-2.4 -5.9,-2.9 -12.3,-3.8 -18.699999,-4.5 -0.8,-0.2 -8,-0.4 -16.3,-1.5"
     class="st0"
     sodipodi:nodetypes="ccccccccccccssscccccccccccccccccccccccccccccc" /><rect
     x="132"
     y="6.6"
     class="st1"
     width="112.7"
     height="53.7"
     id="rect3530" /><text
     id="text3532"
     x="133.33083"
     y="18.763304"><tspan
       x="133.33083"
       y="18.763304"
       class="st2 st3 st4"
       id="tspan3534"
       style="font-size:17px;font-family:Exo2-Medium;fill:#ffffff">ЦЕНТР </tspan><tspan
       x="133.33083"
       y="35.763306"
       class="st2 st3 st4"
       id="tspan3536"
       style="font-size:17px;font-family:Exo2-Medium;fill:#ffffff">ТАТАРСКОЙ </tspan><tspan
       x="133.33083"
       y="52.763306"
       class="st2 st3 st4"
       id="tspan3538"
       style="font-size:17px;font-family:Exo2-Medium;fill:#ffffff">ЛИТЕРАТУРЫ</tspan></text>
</svg>