<?xml version="1.0" encoding="utf-8"?>
<!-- Generator: Adobe Illustrator 19.1.0, SVG Export Plug-In . SVG Version: 6.00 Build 0)  -->
<svg version="1.1" id="Слой_1" xmlns="http://www.w3.org/2000/svg" xmlns:xlink="http://www.w3.org/1999/xlink" x="0px" y="0px"
	 viewBox="178 -682.8 2839 851.7" style="enable-background:new 178 -682.8 2839 851.7;" xml:space="preserve">
<style type="text/css">
	.st0{fill:#FFFFFF;}
	.st1{display:none;}
	.st2{display:inline;fill:#015E27;}
	.st3{fill:none;}
	.st4{enable-background:new    ;}
	.st5{fill:#10243E;}
</style>
<path class="st0" d="M961-570.6l-446,67.9l-112.3,21.1L522-441.9l160.5,37.4l76.3,37.4l23.4,35.1l-23.4,25.7l-173.2,44.5l32.8,25.7
	l110,37.4l49.1,25.7l16.4,28.1l-28.1,32.8L630.1-72.2L683-53.4l106.7,19.2l30.4,39.3l4.7,35.1L1545.5-367l40.7-39.8v-35.1
	c0,0-367.4-16.4-379.1-8c-4.2,2.8-63.6-0.5-72.5-21.1c-9.4-22,71.6-29.5,64.1-50.5c-6.6-17.8-50.5-63.2-50.5-63.2L961-570.6z"/>
<path class="st0" d="M961-481.7l-310.3,67.9L817.8-331l-59.4,52.9l23.4,35.1l-23.4,25.7l4.7,40.7l57.6,45.4l-92.7,22l-83.3,37.4
	l84.2,20.1l36.5,29l53.8,28.1l-17.3,83.3l-6.1,74.9L1585.3-308c0,0-316.8,3.7-435.2,3.7c-5.1,0-8-56.2-16.8-76.8
	c-9.4-22,71.6-29.5,64.1-50.5c-6.6-17.8-84.2-46.3-84.2-46.3L961-481.7z"/>
<g class="st1">
	<path class="st2" d="M213.5,372.4c27.3-5.3,54.4-10.6,81.7-15.9c2.7-0.5,6.5-0.5,6.8-3.9c0.2-3.1-3.1-4.3-5.6-5.6
		c-21-10.1-43.7-14.3-66.4-17.9c-8.5-1.2-16.9-2.2-25.4-2.9c-3.4-0.2-11.6-1-18.1-2.2c-3.9-0.7-7.2-1.2-8.5-2.4
		c41.1-5.6,82.1-10.9,123.2-16.7c12.1-1.7,16.2-1.7,13.8-15.5c55.6,0,107,0,162.6,0c0,13.8,2.7,56.3-0.2,43
		c-0.2-1.4-1.2-1.7-1.9-1.7c-0.5,0-1.2,0-1.7,0c-29.5,0-58.7,0.2-88.2,0.2c-5.6-1-8.5-4.1-7.7-9.7c1-7.7,7.5-6,12.8-6
		c-1.9-10.9-5.8-13.3-17.4-11.8c-32.4,4.1-64.8,8.2-97.1,12.6c-12.6,1.7-25.1,3.4-37.7,5.3c5.3,2.2,10.6,2.9,15.7,3.9
		c17.9,3.4,35.5,7,50.7,17.9c4.3,3.1,8.2,7,6.8,13.3c-1.4,6-6.5,7-11.4,8c-8.2,1.7-16.7,3.4-24.9,5.1c11.1,3.6,22.2,5.6,30.9,13
		c3.9,3.4,7.5,7,6,12.8c-1.2,5.3-5.8,7-10.4,8.2c-4.8,1.4-10.1,1.7-14.5,5.1c12.3,3.6,26.8,1.9,32.4,17.9
		c50.7-29,101.2-58,152.7-87.5c1.2-0.7,2.7-1.4,3.9-2.2c0.5-0.2,1.2-0.7,1.2-2.9v139.2h-165c-2.9-10.9,0-17.9,10.6-23.9
		c46.6-27.1,92.3-54.8,138.2-82.4c2.7-1.4,5.3-3.1,8.2-4.8c-11.4-2.9-17.2-2.4-25.6,2.7c-43.5,24.9-87,50-130,74.9
		c-1.9-0.5-2.2-1.7-1.9-2.9c1.4-10.1-4.1-15-12.8-17.4c-14-3.9-28.3-5.3-42.5-5.6c-4.1,0-8,0-15,0c10.6-5.3,19.8-6.5,28.3-9.2
		c8.9-2.9,17.9-5.1,26.8-7.7c2.7-0.7,6.3-0.2,6.5-4.1c0.2-3.4-2.9-4.6-5.3-5.8c-14.3-7-29.7-9.2-45.2-10.9
		C251,375.5,233.6,375,213.5,372.4"/>
</g>
<rect x="496.9" y="10.4" class="st3" width="272.3" height="129.7"/>
<g class="st4">
	<path class="st0" d="M1798-434.1v44.6H1785l-1.7-29h-96.5v-132.6h19.2v117.1h56.5v-117.1h19.4v117.1H1798z"/>
	<path class="st0" d="M1901.8-434.5l0.8,14.8c-11.7,1-30.6,1.5-56.9,1.5c-8.2,0-14.7-2.1-19.4-6.4c-4.7-4.3-7.1-10.1-7.1-17.4v-85.7
		c0-7.3,2.4-13.1,7.1-17.4c4.7-4.3,11.2-6.4,19.4-6.4c26.3,0,45.2,0.5,56.9,1.5l-0.8,15H1849c-3.8,0-6.6,0.9-8.2,2.8
		c-1.6,1.9-2.4,5-2.4,9.5v26.5h55.9v15.6h-55.9v33.8c0,4.5,0.8,7.7,2.4,9.5c1.6,1.9,4.3,2.8,8.2,2.8H1901.8z"/>
	<path class="st0" d="M2024.7-551.2v132.6h-19.4V-481h-57.9v62.5h-19.2v-132.6h19.2v53.6h57.9v-53.6H2024.7z"/>
	<path class="st0" d="M2148.7-534.1h-42.1v115.5h-19.4v-115.5h-41.7v-17.1h103.2V-534.1z"/>
	<path class="st0" d="M2169.2-418.5v-132.6c10.9-1.2,26.3-1.7,46.3-1.7c16.4,0,27.7,3,33.9,8.8c6.2,5.9,9.3,16.9,9.3,33.1
		c0,16.3-3,27.4-8.9,33.3s-16.7,8.8-32.2,8.8c-9.6,0-19.3-0.6-29-1.7v52.1H2169.2z M2188.6-485.4h26.3c9.4-0.1,15.8-1.9,19.2-5.4
		s5.2-10.2,5.2-20.2s-1.7-16.7-5.2-20.2c-3.5-3.5-9.9-5.2-19.2-5.2c-12.8,0-21.6,0.1-26.3,0.2V-485.4z"/>
</g>
<g class="st4">
	<path class="st0" d="M1778.4-341.9h-42.1v115.5h-19.4v-115.5h-41.7V-359h103.2V-341.9z"/>
	<path class="st0" d="M1858.2-266.3h-52.9l-12.3,40h-19.6l41.5-127.4c1-3.5,3.4-5.2,7.1-5.2h19.6c3.8,0,6.2,1.7,6.9,5.2l41.7,127.4
		h-19.8L1858.2-266.3z M1853.2-283l-15.6-50.4c-0.4-1.2-0.9-2.9-1.6-5.4c-0.7-2.4-1.2-4.2-1.6-5.4h-5.2l-3.1,10.8l-15.6,50.4H1853.2
		z"/>
	<path class="st0" d="M1988.7-341.9h-42.1v115.5h-19.4v-115.5h-41.7V-359h103.2V-341.9z"/>
	<path class="st0" d="M2068.5-266.3h-52.9l-12.3,40h-19.6l41.5-127.4c1-3.5,3.4-5.2,7.1-5.2h19.6c3.8,0,6.2,1.7,6.9,5.2l41.7,127.4
		h-19.8L2068.5-266.3z M2063.5-283l-15.6-50.4c-0.4-1.2-0.9-2.9-1.6-5.4c-0.7-2.4-1.2-4.2-1.6-5.4h-5.2l-3.1,10.8l-15.6,50.4H2063.5
		z"/>
	<path class="st0" d="M2118.5-226.3V-359c10.9-1.2,26.3-1.7,46.3-1.7c16.4,0,27.7,3,33.9,8.8c6.2,5.9,9.3,16.9,9.3,33.1
		c0,16.3-3,27.4-8.9,33.3s-16.7,8.8-32.2,8.8c-9.6,0-19.3-0.6-29-1.7v52.1H2118.5z M2137.9-293.2h26.3c9.4-0.1,15.8-1.9,19.2-5.4
		s5.2-10.2,5.2-20.2s-1.7-16.7-5.2-20.2s-9.9-5.2-19.2-5.2c-12.8,0-21.6,0.1-26.3,0.2V-293.2z"/>
	<path class="st0" d="M2317.4-243.2l1.9,14.6c-10.6,3.1-23.8,4.6-39.4,4.6c-19.4,0-32.9-5.1-40.8-15.4c-7.8-10.3-11.7-28-11.7-53.2
		c0-25.2,3.9-43,11.7-53.2c7.8-10.3,21.4-15.4,40.8-15.4c13.8,0,26.1,1.3,36.7,3.8l-1.9,14.8c-10.3-1-21.9-1.5-34.8-1.5
		c-12.2,0-20.6,3.7-25.3,11.2c-4.7,7.4-7,20.9-7,40.4c0,19.5,2.3,32.9,7,40.4c4.7,7.4,13.1,11.1,25.3,11.1
		C2296.2-241.1,2308.7-241.8,2317.4-243.2z"/>
	<path class="st0" d="M2390.5-295.9v0.8c2.6,0.3,4.9,0.8,7.1,1.5c2.2,0.8,4.1,1.5,5.9,2.3s3.5,2.1,5.3,4c1.8,1.9,3.3,3.5,4.4,4.8
		c1.2,1.3,2.5,3.5,4.1,6.5c1.6,3.1,2.9,5.5,3.7,7.2c0.9,1.7,2.1,4.7,3.8,9c1.6,4.3,2.8,7.5,3.6,9.7c0.8,2.2,2.1,6,4,11.3
		c1.9,5.4,3.4,9.5,4.4,12.3h-20.2c-7.8-22.2-12.9-35.7-15.2-40.6c-5.3-10.6-11.5-17.1-18.6-19.4c-2.8-0.9-6-1.3-9.4-1.3h-13.3
		c0.9,5.4,1.3,9.9,1.3,13.6v47.7h-19.2V-359h19.2v40.8c0,4.4-0.5,9.4-1.3,15h13.3c4.2,0,8-0.9,11.4-2.6c3.4-1.7,6.3-4.1,8.8-7.1
		c2.5-3,4.9-6.8,7.1-11.4c2.2-4.6,4.3-9.5,6.2-14.8c1.9-5.3,4-11.2,6.3-17.9c0.3-0.9,0.4-1.5,0.6-1.9h19.4
		c-7.3,21.4-12.4,35-15.4,40.8c-6,12-13.6,19.2-22.9,21.5C2393.7-296.3,2392.1-296,2390.5-295.9z"/>
	<path class="st0" d="M2504.9-361.5c19.7,0,33.5,5,41.3,15c7.8,10,11.7,27.9,11.7,53.8c0,25.9-3.9,43.8-11.7,53.8
		c-7.8,10-21.6,15-41.3,15c-19.6,0-33.3-5-41.1-15c-7.8-10-11.7-27.9-11.7-53.8c0-25.9,3.9-43.8,11.7-53.8
		C2471.5-356.5,2485.2-361.5,2504.9-361.5z M2530.6-333.2c-4.7-7.4-13.3-11.2-25.8-11.2c-12.4,0-21,3.7-25.7,11.2
		c-4.7,7.4-7,21-7,40.6c0,19.6,2.3,33.1,7,40.6c4.7,7.4,13.2,11.1,25.7,11.1c12.4,0,21-3.7,25.8-11.1c4.7-7.4,7.1-21,7.1-40.6
		C2537.7-312.2,2535.3-325.8,2530.6-333.2z"/>
	<path class="st0" d="M2686.5-226.3h-18.6v-93.6c0-6.4,0.4-11.7,1.2-15.8h-1.2c-1.8,4.7-4.1,9.7-6.9,15l-55.7,94.4h-19.8V-359h18.5
		v92.7c0,5.4-0.4,10.8-1.2,16.3h1c2.2-5.3,4.7-10.3,7.5-15l55.4-94h20V-226.3z M2651.7-396.3h13.8c0.6,7.7-1.7,14.1-7,19.2
		c-5.3,5.1-12.7,7.7-22,7.7c-9.5,0-17-2.6-22.4-7.7c-5.4-5.1-7.9-11.5-7.2-19.2h14c0,5.5,1.3,9.7,4,12.6c2.7,2.9,6.5,4.3,11.5,4.3
		C2646.6-379.3,2651.7-385,2651.7-396.3z"/>
</g>
<g class="st4">
	<path class="st0" d="M1780.4-166.7v132.6h-19.4v-117.1h-24.4c-8.3,0-12.9,4.4-13.6,13.1c-2.2,24.7-4,42-5.6,51.8
		c-1.5,9.8-4.1,18.7-7.7,26.6c-7.7,17.7-19.5,26.3-35.6,26l-1.5-15c9-2.4,15.3-7.8,19-16.1c3.3-7.9,5.8-16.8,7.3-26.7
		c1.5-9.9,3.3-26.5,5.2-50c1.5-16.8,10.7-25.2,27.5-25.2H1780.4z"/>
	<path class="st0" d="M1913.8-34.1h-18.6v-93.6c0-6.4,0.4-11.7,1.2-15.8h-1.2c-1.8,4.7-4.1,9.7-6.9,15l-55.7,94.4h-19.8v-132.6h18.5
		v92.7c0,5.4-0.4,10.8-1.2,16.3h1c2.2-5.3,4.7-10.3,7.5-15l55.4-94h20V-34.1z"/>
	<path class="st0" d="M2037.7-149.6h-42.1v115.5h-19.4v-115.5h-41.7v-17.1h103.2V-149.6z"/>
	<path class="st0" d="M2139.8-50l0.8,14.8c-11.7,1-30.6,1.5-56.9,1.5c-8.2,0-14.7-2.1-19.4-6.4c-4.7-4.3-7.1-10.1-7.1-17.4v-85.7
		c0-7.3,2.4-13.1,7.1-17.4c4.7-4.3,11.2-6.4,19.4-6.4c26.3,0,45.2,0.5,56.9,1.5l-0.8,15h-52.9c-3.8,0-6.6,0.9-8.2,2.8
		c-1.6,1.9-2.4,5-2.4,9.5v26.5h55.9v15.6h-55.9v33.8c0,4.5,0.8,7.7,2.4,9.5c1.6,1.9,4.3,2.8,8.2,2.8H2139.8z"/>
	<path class="st0" d="M2166.1-34.1v-132.6c10.9-1.2,26.3-1.7,46.3-1.7c16.4,0,27.7,3,33.9,8.8c6.2,5.9,9.3,16.9,9.3,33.1
		c0,16.3-3,27.4-8.9,33.3c-6,5.9-16.7,8.8-32.2,8.8c-9.6,0-19.3-0.6-29-1.7v52.1H2166.1z M2185.6-101h26.3
		c9.4-0.1,15.8-1.9,19.2-5.4c3.5-3.5,5.2-10.2,5.2-20.2s-1.7-16.7-5.2-20.2c-3.5-3.5-9.9-5.2-19.2-5.2c-12.8,0-21.6,0.1-26.3,0.2
		V-101z"/>
	<path class="st0" d="M2343.6-74.1h-52.9l-12.3,40h-19.6l41.5-127.4c1-3.5,3.4-5.2,7.1-5.2h19.6c3.8,0,6.2,1.7,6.9,5.2l41.7,127.4
		h-19.8L2343.6-74.1z M2338.6-90.8l-15.6-50.4c-0.4-1.2-0.9-2.9-1.6-5.4c-0.7-2.4-1.2-4.2-1.6-5.4h-5.2l-3.1,10.8l-15.6,50.4H2338.6
		z"/>
	<path class="st0" d="M2474.1-149.6H2432v115.5h-19.4v-115.5h-41.7v-17.1h103.2V-149.6z"/>
	<path class="st0" d="M2585.8-166.7L2550.6-67c-4,10.8-8.2,19-12.7,24.7c-4.5,5.7-10.5,8.9-18.1,9.5c-7.9,0.6-16.3-0.3-25-2.9
		l2.1-14c4.1,0.3,7.3,0.4,9.6,0.5c2.3,0.1,4.6,0.1,6.9,0.1s4.1-0.3,5.4-1c1.3-0.6,2.5-1.2,3.7-1.8c1.2-0.6,2.2-1.7,3.1-3.4
		c0.9-1.7,1.7-3.3,2.5-4.8c0.8-1.5,1.7-3.8,2.9-6.9l2.3-5.6h-7.1c-3.8,0-6.8-0.7-8.9-2.2c-2.1-1.5-3.8-3.9-5.1-7.4l-30-84.6h19.6
		l25.8,75.2c0.9,1.9,2.2,2.9,4,2.9h7.3l27.3-78H2585.8z"/>
	<path class="st0" d="M2603.6-34.1v-132.6c10.9-1.2,26.3-1.7,46.3-1.7c16.4,0,27.7,3,33.9,8.8c6.2,5.9,9.3,16.9,9.3,33.1
		c0,16.3-3,27.4-8.9,33.3c-6,5.9-16.7,8.8-32.2,8.8c-9.6,0-19.3-0.6-29-1.7v52.1H2603.6z M2623.1-101h26.3
		c9.4-0.1,15.8-1.9,19.2-5.4c3.5-3.5,5.2-10.2,5.2-20.2s-1.7-16.7-5.2-20.2c-3.5-3.5-9.9-5.2-19.2-5.2c-12.8,0-21.6,0.1-26.3,0.2
		V-101z"/>
	<path class="st0" d="M2736.7-114.2h26.1c16.7,0,28.2,3,34.7,9c6.5,6,9.7,16.8,9.7,32.3c0,15.5-3.1,26.1-9.2,31.8
		c-6.2,5.7-16.9,8.6-32.1,8.6c-20.6,0-36.7-0.5-48.1-1.5h-0.4v-132.6h19.2V-114.2z M2736.7-49.5l26.1,0.2c10.1,0,16.8-1.6,20.1-4.8
		c3.3-3.2,4.9-9.6,4.9-19.2c0-9.5-1.6-16-4.9-19.6s-10-5.4-20.1-5.4h-26.1V-49.5z M2849.3-166.7v132.6h-19.2v-132.6H2849.3z"/>
</g>
<path class="st5" d="M1603.5-470c-43.5,0-314,0-369.7,0c-60.8,0-90.8,0.9-78.2-12.6c5.6-5.6,57.6-0.9,57.6-0.9s-8-59.9-17.3-77.2
	c-9.4-17.3-29.5-48.2-92.2-40.7c-62.2,8-341.6,44-341.6,44c-2.8,0.5-5.6,0.9-8.4,0.9c-191.4,27.6-383.3,52.9-575.6,78.6
	c5.6,5.6,21.5,8,39.8,11.2c30.4,5.6,68.8,8.9,84.7,10.3c39.8,3.3,79.1,8,118.9,13.6c106.2,16.8,212.5,36,310.8,83.8
	c11.2,5.6,27.1,11.2,26.2,26.2c-0.9,15.9-19.2,15.9-31.8,18.3c-127.8,24.8-254.6,49.6-382.4,74.4c94.1,12.6,175,14.5,184.4,16.8
	c72.5,8,144.6,18.3,211.5,51c11.2,5.6,26.2,11.2,24.8,27.1c-0.9,18.3-18.3,15.9-30.4,19.2c-41.7,12.6-83.8,22.5-125.4,36
	c-39.8,12.6-82.4,18.3-132.4,43.1c32.8,0,51,0,70.2,0c66.9,0.9,133.4,8,198.9,26.2c40.7,11.2,66.9,33.7,59.9,81.4
	c-0.9,5.6,0,11.2,8.9,13.6c176-101.6,353.3-204,531.2-306.1l0,0l53.4-30.4c8-4.7,15.9-8.9,23.9-13.6c2.8-1.9,5.6-3.3,8.4-4.7
	l147.9-84.7l0,0c0,0,25.3-16.4,30.9-20.1c7-4.7,21.1-19.7,21.1-38.8C1631.2-479.8,1603.5-465.8,1603.5-470z M1556.3-396.5
	c-241,138.1-477.4,273.8-714.6,409.5C815.4-61.4,747.6-53.9,690-70.8c20.1-15.9,45.4-16.8,67.9-23.9c21.5-5.6,43.1-13.6,48.7-38.4
	c6.6-27.1-10.3-44-28.1-59.9c-40.7-35.1-92.7-44-144.6-60.8c38.4-8,78.2-15.9,116.5-23.9c22.5-4.7,46.3-8.9,53.4-37.4
	c6.6-29.5-11.2-47.3-31.8-62.2c-71.6-50.5-154-67.9-237.7-83.8c-23.9-4.7-48.7-8-73.5-18.3c59-8.9,117.5-16.8,176.4-24.8
	c151.6-20.1,303.3-39.8,454.4-59c54.3-6.6,72.5,4.7,81.4,55.2c-24.8,0-55.2-8-59.9,28.1c-3.3,26.2,10.3,40.7,36,45.4
	c138.1,0,274.7-0.9,412.8-0.9c2.3,0,5.6,0,8,0c3.3,0,8,0.9,8.9,8c0.5,1.4,0.5,2.3,0.9,3.3v9.4c-0.9,5.1-3.3,6.6-5.1,7.5
	C1568.9-403,1561.9-399.8,1556.3-396.5z"/>
</svg>
