<svg id="Слой_1" data-name="Слой 1" xmlns="http://www.w3.org/2000/svg" xmlns:xlink="http://www.w3.org/1999/xlink" width="130.9mm" height="79.36mm" viewBox="0 0 371.04 224.96">
  <defs>
    <clipPath id="clip-path" transform="translate(-219.96 -195.13)">
      <rect x="219.96" y="195.13" width="371.04" height="224.96" style="fill: #fff"/>
    </clipPath>
    <clipPath id="clip-path-2" transform="translate(-219.96 -195.13)">
      <path d="M486.87,231.32c3.38,7.31,7,13.58,11.39,17.93,8.39,8.4,23.9,14.23,40.32,20.39,24.81,9.33,50.47,19,50.47,38s-25.66,28.64-50.48,38c-16.41,6.17-31.91,12-40.31,20.39-4.36,4.35-8,10.62-11.39,17.94a2.46,2.46,0,0,0,2.85-1.46c3-6.14,6.21-11.37,9.92-15.09,8.09-8.09,23.41-13.85,39.61-19.94C564.69,337.85,591,328,591,307.6s-26.3-30.24-51.74-39.79c-16.21-6.1-31.52-11.84-39.61-19.95-3.79-3.78-7.06-9.15-10.09-15.44a2,2,0,0,0-1.83-1.27,2.33,2.33,0,0,0-.85.16" style="fill: #fff"/>
    </clipPath>
    <clipPath id="clip-path-3" transform="translate(-219.96 -195.13)">
      <path d="M522.25,229.72c-8.1,1.11-16.47,2.25-23.49,2.25-5,0-8.95-.6-11.9-1.8v2.11a35.8,35.8,0,0,0,11.9,1.65c7.15,0,15.59-1.15,23.75-2.27s16.55-2.26,23.62-2.26c9.59,0,15.25,2.08,17.84,6.53,5.07,8.77-6,23.06-16.62,36.89C538,285,528.3,297.55,528.3,307.6s9.69,22.63,19.07,34.78C558,356.21,569.05,370.5,564,379.27c-2.58,4.45-8.25,6.52-17.83,6.53-7.07,0-15.49-1.15-23.62-2.25s-16.6-2.27-23.76-2.27a35.75,35.75,0,0,0-11.9,1.65V385c3-1.2,6.86-1.8,11.9-1.8,7,0,15.39,1.14,23.49,2.25s16.68,2.28,23.89,2.28c10.36,0,16.56-2.39,19.53-7.51,5.73-9.91-5.19-24.07-16.75-39.07-9.18-11.89-18.66-24.19-18.66-33.58s9.48-21.68,18.66-33.58c11.55-15,22.48-29.16,16.75-39.06-3-5.13-9.17-7.51-19.54-7.51-7.2,0-15.68,1.16-23.88,2.27" style="fill: #fff"/>
    </clipPath>
    <clipPath id="clip-path-4" transform="translate(-219.96 -195.13)">
      <path d="M503,211c-3.41.22-6.94,0.45-10.24,0.45a49.19,49.19,0,0,1-5.93-.33v2a53.73,53.73,0,0,0,5.93.3c3.36,0,6.92-.23,10.36-0.45s6.92-.44,10.2-0.44c8.24,0,13.42,1.49,16.76,4.84,5.76,5.76,5.06,16.54,4.39,27-0.53,8.35-1.09,17,1.58,23.42,2.53,6.1,8.58,11.36,15,16.94,8.07,7,16.41,14.27,16.41,22.9s-8.34,15.88-16.41,22.91c-6.41,5.57-12.46,10.83-15,16.93-2.67,6.44-2.12,15.07-1.57,23.42,0.67,10.43,1.36,21.2-4.39,27-3.34,3.34-8.52,4.84-16.76,4.84-3.28,0-6.8-.23-10.2-0.44s-7-.45-10.35-0.45a52.76,52.76,0,0,0-5.94.3v2a48.35,48.35,0,0,1,5.94-.33c3.3,0,6.82.23,10.23,0.45s7,0.45,10.32.45c5.93,0,13.35-.62,18.15-5.41,6.38-6.39,5.66-17.62,5-28.47-0.52-8.13-1.07-16.53,1.42-22.55,2.35-5.67,8.24-10.78,14.47-16.2,8.4-7.31,17.09-14.87,17.09-24.39s-8.69-17.07-17.09-24.38c-6.23-5.42-12.11-10.54-14.47-16.21-2.49-6-1.95-14.42-1.43-22.54,0.71-10.86,1.43-22.09-5-28.47-4.8-4.8-12.22-5.41-18.15-5.41-3.35,0-6.89.23-10.32,0.45" style="fill: #fff"/>
    </clipPath>
    <clipPath id="clip-path-5" transform="translate(-219.96 -195.13)">
      <path d="M516,195.13c-5.82.11-13.7,4.8-22,9.76-2.36,1.4-4.74,2.82-7.07,4.12v2.24c2.65-1.46,5.38-3.07,8.07-4.67,7.84-4.66,16-9.49,21.25-9.49a5.47,5.47,0,0,1,3.34,1c4.67,3.4,2,15-.51,26.25s-4.92,21.68-1.23,26.75,14.3,6,25.6,7c11.56,1,23.53,2.12,25.35,7.73,1.72,5.28-7.05,13-15.55,20.42-8.76,7.68-17,14.93-17,21.44s8.27,13.77,17,21.44c8.5,7.45,17.27,15.13,15.55,20.41-1.81,5.61-13.78,6.69-25.35,7.73-11.3,1-22,2-25.6,7s-1.3,15.6,1.23,26.74,5.19,22.86.51,26.26a5.52,5.52,0,0,1-3.34,1c-5.3,0-13.4-4.82-21.25-9.49-2.69-1.61-5.42-3.22-8.07-4.67v2.24c2.33,1.3,4.71,2.71,7.07,4.12,8.44,5,16.42,9.76,22.25,9.76a7.44,7.44,0,0,0,4.49-1.33c5.72-4.16,3.07-15.87.25-28.27-2.32-10.23-4.72-20.81-1.56-25.16s13.83-5.24,24.19-6.18c12.76-1.15,24.82-2.24,27-9.08,2.12-6.5-6.74-14.27-16.12-22.49-8-7.05-16.37-14.34-16.37-20s8.32-12.92,16.37-20c9.38-8.22,18.25-16,16.12-22.5-2.22-6.83-14.28-7.92-27-9.07-10.37-.93-21.08-1.9-24.19-6.18s-0.76-14.93,1.56-25.16c2.82-12.4,5.47-24.11-.25-28.28a7.38,7.38,0,0,0-4.28-1.33H516Z" style="fill: #fff"/>
    </clipPath>
  </defs>
  <title>logo-etton-white</title>
  <g>
    <g>
      <g style="clip-path: url(#clip-path)">
        <path d="M235,316.42c0,8.61,5.32,13.94,15.08,13.94a22,22,0,0,0,18.25-9c0.25-.38,7.6.89,7.6,6.72,0,3.29-1,5.07-3.42,7.6-4.69,4.56-12,7.35-22.69,7.35-20.27,0-29.9-11.15-29.9-26.23,0-22.56,17.23-38.65,38.9-38.65,15.71,0,24.46,7.35,24.46,18.13,0,12.67-8.11,20.27-35.61,20.27-3.8,0-8-.25-12.67-0.51v0.38Zm11-10.9c17.36,0,22.18-3.93,22.18-8.75,0-3.3-3.42-6.59-10.14-6.59-9.38,0-17,6.46-20.66,15,3.17,0.25,6.08.38,8.62,0.38" transform="translate(-219.96 -195.13)" style="fill: #fff"/>
        <path d="M283.59,319.72l5.45-26.1L292,279.67l0.76-3.55c1.77-9.12,5.45-12.92,13.3-12.92,3.81,0,6.72,1.65,6.59,2.15l-3,14.32H320c4.31,0,6.71,1.91,6.71,4.69,0,1.77-.89,5.7-2.66,7.48-1.14,1.14-2.66,1.77-6.08,1.77H306.4L300.95,319c-1.65,7.48.89,10.64,5.83,10.64a11.7,11.7,0,0,0,7.61-3.17c0.5-.38,2.91,1.65,2.91,5.45a9.51,9.51,0,0,1-3,7c-2.79,2.79-7.22,4.3-13.18,4.3-14.19,0-20.65-8.49-17.49-23.44" transform="translate(-219.96 -195.13)" style="fill: #fff"/>
        <path d="M328.1,319.72l5.45-26.1,2.91-13.94,0.76-3.55c1.78-9.12,5.45-12.92,13.3-12.92,3.8,0,6.72,1.65,6.59,2.15l-3,14.32h10.39c4.31,0,6.72,1.91,6.72,4.69,0,1.77-.89,5.7-2.66,7.48-1.14,1.14-2.66,1.77-6.08,1.77H350.91L345.46,319c-1.65,7.48.89,10.64,5.83,10.64a11.69,11.69,0,0,0,7.6-3.17c0.51-.38,2.92,1.65,2.92,5.45a9.52,9.52,0,0,1-3,7c-2.79,2.79-7.22,4.3-13.18,4.3-14.19,0-20.66-8.49-17.49-23.44" transform="translate(-219.96 -195.13)" style="fill: #fff"/>
        <path d="M366.5,314.65c0-18.88,13.31-36.49,35-36.49,18.49,0,29.65,12.42,29.65,28.38,0,18.88-13.31,36.49-35,36.49-18.5,0-29.65-12.29-29.65-28.38m49-7.35c0-9-6.21-15.59-14.57-15.59-11,0-18.88,10.64-18.88,22.3,0,8.86,6.21,15.46,14.57,15.46,11,0,18.88-10.64,18.88-22.18" transform="translate(-219.96 -195.13)" style="fill: #fff"/>
        <path d="M476.86,278.15c12.67,0,20,8.24,20,20,0,4.43-1.52,10.51-3.67,18.12-1.65,6.2-2.92,11.15-2.92,13.68,0,3.55,1.65,4.95,5.07,5.46,0.25,0-1,7.35-10.77,7.35-8.36,0-12.29-4.31-12.29-10.9,0-3.68,1.14-8.36,3-15.33,1.65-5.83,2.79-10.65,2.79-13.31,0-6.34-3.55-10.13-10-10.13-6.21,0-10.27,2.92-14.19,9l-6.59,31.43c-1.39,6.34-3.68,8.49-8.24,8.49h-1.9c-4.81,0-9.12-1.9-7.73-8.49l11.27-53.22c0.13-.38,2.15-1.14,4.95-1.14,5.07,0,10,2.66,9.88,11,4.94-7.48,12.16-12,21.29-12" transform="translate(-219.96 -195.13)" style="fill: #fff"/>
      </g>
    </g>
    <g>
      <path d="M486.87,231.32c3.38,7.31,7,13.58,11.39,17.93,8.39,8.4,23.9,14.23,40.32,20.39,24.81,9.33,50.47,19,50.47,38s-25.66,28.64-50.48,38c-16.41,6.17-31.91,12-40.31,20.39-4.36,4.35-8,10.62-11.39,17.94a2.46,2.46,0,0,0,2.85-1.46c3-6.14,6.21-11.37,9.92-15.09,8.09-8.09,23.41-13.85,39.61-19.94C564.69,337.85,591,328,591,307.6s-26.3-30.24-51.74-39.79c-16.21-6.1-31.52-11.84-39.61-19.95-3.79-3.78-7.06-9.15-10.09-15.44a2,2,0,0,0-1.83-1.27,2.33,2.33,0,0,0-.85.16" transform="translate(-219.96 -195.13)" style="fill: #fff"/>
      <g style="clip-path: url(#clip-path-2)">
        <rect x="266.91" y="36.03" width="104.13" height="153.28" style="fill: #fff"/>
      </g>
    </g>
    <g>
      <path d="M522.25,229.72c-8.1,1.11-16.47,2.25-23.49,2.25-5,0-8.95-.6-11.9-1.8v2.11a35.8,35.8,0,0,0,11.9,1.65c7.15,0,15.59-1.15,23.75-2.27s16.55-2.26,23.62-2.26c9.59,0,15.25,2.08,17.84,6.53,5.07,8.77-6,23.06-16.62,36.89C538,285,528.3,297.55,528.3,307.6s9.69,22.63,19.07,34.78C558,356.21,569.05,370.5,564,379.27c-2.58,4.45-8.25,6.52-17.83,6.53-7.07,0-15.49-1.15-23.62-2.25s-16.6-2.27-23.76-2.27a35.75,35.75,0,0,0-11.9,1.65V385c3-1.2,6.86-1.8,11.9-1.8,7,0,15.39,1.14,23.49,2.25s16.68,2.28,23.89,2.28c10.36,0,16.56-2.39,19.53-7.51,5.73-9.91-5.19-24.07-16.75-39.07-9.18-11.89-18.66-24.19-18.66-33.58s9.48-21.68,18.66-33.58c11.55-15,22.48-29.16,16.75-39.06-3-5.13-9.17-7.51-19.54-7.51-7.2,0-15.68,1.16-23.88,2.27" transform="translate(-219.96 -195.13)" style="fill: #fff"/>
      <g style="clip-path: url(#clip-path-3)">
        <rect x="266.91" y="32.33" width="84.54" height="160.31" style="fill: #fff"/>
      </g>
    </g>
    <g>
      <path d="M503,211c-3.41.22-6.94,0.45-10.24,0.45a49.19,49.19,0,0,1-5.93-.33v2a53.73,53.73,0,0,0,5.93.3c3.36,0,6.92-.23,10.36-0.45s6.92-.44,10.2-0.44c8.24,0,13.42,1.49,16.76,4.84,5.76,5.76,5.06,16.54,4.39,27-0.53,8.35-1.09,17,1.58,23.42,2.53,6.1,8.58,11.36,15,16.94,8.07,7,16.41,14.27,16.41,22.9s-8.34,15.88-16.41,22.91c-6.41,5.57-12.46,10.83-15,16.93-2.67,6.44-2.12,15.07-1.57,23.42,0.67,10.43,1.36,21.2-4.39,27-3.34,3.34-8.52,4.84-16.76,4.84-3.28,0-6.8-.23-10.2-0.44s-7-.45-10.35-0.45a52.76,52.76,0,0,0-5.94.3v2a48.35,48.35,0,0,1,5.94-.33c3.3,0,6.82.23,10.23,0.45s7,0.45,10.32.45c5.93,0,13.35-.62,18.15-5.41,6.38-6.39,5.66-17.62,5-28.47-0.52-8.13-1.07-16.53,1.42-22.55,2.35-5.67,8.24-10.78,14.47-16.2,8.4-7.31,17.09-14.87,17.09-24.39s-8.69-17.07-17.09-24.38c-6.23-5.42-12.11-10.54-14.47-16.21-2.49-6-1.95-14.42-1.43-22.54,0.71-10.86,1.43-22.09-5-28.47-4.8-4.8-12.22-5.41-18.15-5.41-3.35,0-6.89.23-10.32,0.45" transform="translate(-219.96 -195.13)" style="fill: #fff"/>
      <g style="clip-path: url(#clip-path-4)">
        <rect x="266.91" y="15.46" width="82.58" height="194.03" style="fill: #fff"/>
      </g>
    </g>
    <g>
      <path d="M516,195.13c-5.82.11-13.7,4.8-22,9.76-2.36,1.4-4.74,2.82-7.07,4.12v2.24c2.65-1.46,5.38-3.07,8.07-4.67,7.84-4.66,16-9.49,21.25-9.49a5.47,5.47,0,0,1,3.34,1c4.67,3.4,2,15-.51,26.25s-4.92,21.68-1.23,26.75,14.3,6,25.6,7c11.56,1,23.53,2.12,25.35,7.73,1.72,5.28-7.05,13-15.55,20.42-8.76,7.68-17,14.93-17,21.44s8.27,13.77,17,21.44c8.5,7.45,17.27,15.13,15.55,20.41-1.81,5.61-13.78,6.69-25.35,7.73-11.3,1-22,2-25.6,7s-1.3,15.6,1.23,26.74,5.19,22.86.51,26.26a5.52,5.52,0,0,1-3.34,1c-5.3,0-13.4-4.82-21.25-9.49-2.69-1.61-5.42-3.22-8.07-4.67v2.24c2.33,1.3,4.71,2.71,7.07,4.12,8.44,5,16.42,9.76,22.25,9.76a7.44,7.44,0,0,0,4.49-1.33c5.72-4.16,3.07-15.87.25-28.27-2.32-10.23-4.72-20.81-1.56-25.16s13.83-5.24,24.19-6.18c12.76-1.15,24.82-2.24,27-9.08,2.12-6.5-6.74-14.27-16.12-22.49-8-7.05-16.37-14.34-16.37-20s8.32-12.92,16.37-20c9.38-8.22,18.25-16,16.12-22.5-2.22-6.83-14.28-7.92-27-9.07-10.37-.93-21.08-1.9-24.19-6.18s-0.76-14.93,1.56-25.16c2.82-12.4,5.47-24.11-.25-28.28a7.38,7.38,0,0,0-4.28-1.33H516Z" transform="translate(-219.96 -195.13)" style="fill: #fff"/>
      <g style="clip-path: url(#clip-path-5)">
        <rect x="266.91" width="85.85" height="224.95" style="fill: #fff"/>
      </g>
    </g>
  </g>
</svg>
