<?xml version="1.0" encoding="UTF-8" standalone="no"?>
<svg
   xmlns:dc="http://purl.org/dc/elements/1.1/"
   xmlns:cc="http://creativecommons.org/ns#"
   xmlns:rdf="http://www.w3.org/1999/02/22-rdf-syntax-ns#"
   xmlns:svg="http://www.w3.org/2000/svg"
   xmlns="http://www.w3.org/2000/svg"
   xmlns:sodipodi="http://sodipodi.sourceforge.net/DTD/sodipodi-0.dtd"
   xmlns:inkscape="http://www.inkscape.org/namespaces/inkscape"
   version="1.1"
   x="0px"
   y="0px"
   viewBox="0 0 192.893 82.809"
   id="svg2"
   inkscape:version="0.91 r13725"
   sodipodi:docname="logotype_gor.svg"
   width="192.89301"
   height="82.808998">
  <metadata
     id="metadata123">
    <rdf:RDF>
      <cc:Work
         rdf:about="">
        <dc:format>image/svg+xml</dc:format>
        <dc:type
           rdf:resource="http://purl.org/dc/dcmitype/StillImage" />
        <dc:title></dc:title>
      </cc:Work>
    </rdf:RDF>
  </metadata>
  <defs
     id="defs121" />
  <sodipodi:namedview
     pagecolor="#ffffff"
     bordercolor="#666666"
     borderopacity="1"
     objecttolerance="10"
     gridtolerance="10"
     guidetolerance="10"
     inkscape:pageopacity="0"
     inkscape:pageshadow="2"
     inkscape:window-width="1536"
     inkscape:window-height="801"
     id="namedview119"
     showgrid="false"
     inkscape:zoom="1.9216833"
     inkscape:cx="-56.965268"
     inkscape:cy="38.857238"
     inkscape:window-x="-8"
     inkscape:window-y="-8"
     inkscape:window-maximized="1"
     inkscape:current-layer="svg2" />
  <g
     id="g4"
     transform="translate(0,-39.999919)">
    <path
       d="m 128.235,77.042 0.002,-14.268 4.787,0 c 0,0 0,6.156 0,6.645 0,0.485 -0.104,1.037 -0.104,1.037 l 0.207,0 5.213,-7.681 4.58,0.001 0,14.268 -4.787,0 c 0,0 0,-6.059 0,-6.705 0,-0.479 0.104,-0.935 0.104,-0.935 l -0.209,0 -5.211,7.64 -4.582,-0.002 z"
       id="path6"
       inkscape:connector-curvature="0"
       style="fill:#663a2a" />
    <path
       d="m 118.307,62.395 c 4.553,0 7.949,3.22 7.949,7.536 0,4.272 -3.396,7.494 -7.949,7.494 -4.508,0 -7.904,-3.222 -7.904,-7.494 0,-4.317 3.397,-7.536 7.904,-7.536 z m 0,10.584 c 1.74,0 2.898,-1.353 2.898,-3.049 0,-1.738 -1.158,-3.092 -2.898,-3.092 -1.695,0 -2.898,1.354 -2.898,3.092 0,1.697 1.203,3.049 2.898,3.049 z"
       id="path8"
       inkscape:connector-curvature="0"
       style="fill:#663a2a" />
    <path
       d="m 23.43,79.514 c 4.473,0 7.637,3.218 7.637,7.556 0,4.281 -3.164,7.473 -7.637,7.473 -4.42,0 -7.613,-3.191 -7.613,-7.473 0,-4.339 3.194,-7.556 7.613,-7.556 z m 0,12.411 c 2.879,0 4.842,-2.1 4.842,-4.855 0,-2.809 -1.963,-4.938 -4.842,-4.938 -2.826,0 -4.791,2.129 -4.791,4.938 0,2.755 1.965,4.855 4.791,4.855 z"
       id="path10"
       inkscape:connector-curvature="0"
       style="fill:#663a2a" />
    <path
       d="m 94.538,87.959 c 0.029,-0.292 0.047,-0.587 0.047,-0.89 0,-4.338 -2.242,-7.556 -6.941,-7.556 -4.018,0 -6.92,3.218 -6.92,7.556 0,0.303 0.02,0.598 0.047,0.89 l -0.004,0 c 0.324,3.725 2.707,6.589 7.693,6.589 2.408,0 4.457,-0.738 5.934,-1.941 l -1.121,-2.05 c -1.096,0.82 -2.762,1.585 -4.729,1.585 -3.117,0 -4.621,-1.693 -4.895,-4.183 l 0.01,0 10.879,0 z m -6.754,-6.074 c 2.568,0 3.91,1.671 4.137,3.86 l -8.229,0 c 0.41,-2.264 1.973,-3.86 4.092,-3.86 z"
       id="path12"
       inkscape:connector-curvature="0"
       style="fill:#663a2a" />
    <polygon
       points="107.026,79.896 107.026,85.744 99.389,85.744 99.389,79.896 96.548,79.896 96.548,94.165 99.389,94.165 99.389,87.954 107.026,87.954 107.026,94.165 109.866,94.165 109.866,79.896 "
       id="polygon14"
       style="fill:#663a2a" />
    <polygon
       points="124.831,79.896 111.829,79.896 111.829,82.427 116.909,82.427 116.909,94.165 119.751,94.165 119.751,82.427 124.831,82.427 "
       id="polygon16"
       style="fill:#663a2a" />
    <rect
       x="140.08099"
       y="79.896004"
       width="2.8399999"
       height="14.269"
       id="rect18"
       style="fill:#663a2a" />
    <path
       d="m 39.259,86.659 0,-0.126 c 0,0 0.262,-0.086 0.5,-0.357 0.238,-0.269 5.441,-6.279 5.441,-6.279 l -3.188,0 -5.01,5.848 -1.132,0 0,-5.848 -2.84,0 0,14.269 2.84,0 0,-6.211 1.287,0 5.408,6.211 3.537,0 c 0,0 -6.064,-6.84 -6.322,-7.135 -0.25,-0.284 -0.521,-0.372 -0.521,-0.372 z"
       id="path20"
       inkscape:connector-curvature="0"
       style="fill:#663a2a" />
    <path
       d="m 131.829,84.259 c -1.33,0 -2.195,0.168 -2.195,0.168 l 0,-4.53 -2.84,0 0,14.272 c 0,0 2.334,0.229 4.748,0.229 4.463,0 5.93,-2.721 5.93,-5.224 -0.001,-2.538 -1.311,-4.915 -5.643,-4.915 z m -0.508,7.76 c -0.883,0 -1.688,-0.068 -1.688,-0.068 l 0,-5.146 c 0,0 0.621,-0.168 1.719,-0.168 2.379,0 3.426,0.92 3.426,2.632 0,1.679 -0.945,2.75 -3.457,2.75 z"
       id="path22"
       inkscape:connector-curvature="0"
       style="fill:#663a2a" />
    <path
       d="m 11.132,79.896 -0.074,1.8 -0.184,0 C 9.97,80.352 8.159,79.513 6.741,79.513 c -4.16,0 -6.637,3.218 -6.738,7.556 -0.096,4.281 2.408,7.473 6.568,7.473 1.908,0 3.098,-0.539 4.262,-1.922 l 0.182,0 0,1.277 c 0,2.763 -1.914,3.857 -4.074,3.857 -1.988,0 -3.535,-0.751 -4.482,-1.318 L 1.53,98.792 c 0.9,0.465 2.596,1.477 5.41,1.477 3.992,0 6.916,-2.378 6.916,-6.944 l 0,-13.429 -2.724,0 z M 7.077,91.925 c -2.865,0 -4.381,-2.1 -4.318,-4.855 0.065,-2.809 1.678,-4.938 4.543,-4.938 1.58,0 3.713,1.447 3.713,4.063 l 0,3.937 c -0.889,1.102 -2.268,1.793 -3.938,1.793 z"
       id="path24"
       inkscape:connector-curvature="0"
       style="fill:#663a2a" />
    <path
       d="m 57.362,79.896 0,10.342 c -0.832,1.041 -2.109,1.687 -3.725,1.687 -2.609,0 -3.803,-2.1 -3.74,-4.855 l 0,-7.177 -2.754,0 0,7.177 c -0.098,4.281 1.615,7.473 5.777,7.473 1.904,0 3.197,-0.564 4.262,-1.922 l 0.18,0 0,1.277 c 0,2.763 -1.914,3.857 -4.074,3.857 -1.988,0 -3.535,-0.751 -4.482,-1.318 l -0.926,2.355 c 0.898,0.465 2.594,1.477 5.408,1.477 3.992,0 6.916,-2.378 6.916,-6.944 l 0,-13.429 -2.842,0 z"
       id="path26"
       inkscape:connector-curvature="0"
       style="fill:#663a2a" />
    <path
       d="m 76.071,79.896 c 0,0 -4.697,6.605 -4.834,6.8 -0.137,0.195 -0.184,0.383 -0.184,0.383 l -0.102,0 c 0,0 -0.059,-0.186 -0.209,-0.383 -0.15,-0.197 -5.193,-6.8 -5.193,-6.8 l -2.68,0 0,14.269 2.84,0 c 0,0 0,-8.467 0,-9.1 0,-0.633 -0.133,-0.99 -0.133,-0.99 l 0.133,0 5.227,7.021 0.121,0 4.848,-7.021 0.133,0 c 0,0 -0.133,0.372 -0.133,0.982 0,0.61 0,9.107 0,9.107 l 2.84,0 0,-14.268 -2.674,0 z"
       id="path28"
       inkscape:connector-curvature="0"
       style="fill:#663a2a" />
    <path
       d="m 104.663,62.774 c 0,0 -4,5.197 -4.16,5.395 -0.197,0.244 -0.215,0.375 -0.215,0.375 l -0.207,0 c 0,0 -0.039,-0.142 -0.227,-0.375 -0.281,-0.35 -4.426,-5.395 -4.426,-5.395 l -3.775,0 0,14.268 4.615,0 c 0,0 0,-5.345 0,-5.99 0,-0.644 -0.104,-1.037 -0.104,-1.037 l 0.207,0 3.709,4.261 0.199,0 3.439,-4.261 0.209,0 c 0,0 -0.105,0.387 -0.105,1.037 0,0.652 0,5.99 0,5.99 l 4.617,0 0,-14.268 -3.776,0 z"
       id="path30"
       inkscape:connector-curvature="0"
       style="fill:#663a2a" />
    <linearGradient
       id="SVGID_1_"
       gradientUnits="userSpaceOnUse"
       x1="122.946"
       y1="37.0937"
       x2="142.9207"
       y2="37.0937"
       gradientTransform="translate(28.586739,42.997689)">
      <stop
         offset="0"
         style="stop-color:#D4A16F"
         id="stop33" />
      <stop
         offset="0.4997"
         style="stop-color:#D09A63"
         id="stop35" />
      <stop
         offset="1"
         style="stop-color:#CF975F"
         id="stop37" />
    </linearGradient>
    <path
       d="m 162.94673,77.449689 0,-14.478 -11.414,0 0,14.471 c 0,5.098 2.721,9.809 7.135,12.357 l 12.84,7.412 0,-13.172 -7.133,-4.119 c -0.885,-0.51 -1.428,-1.451 -1.428,-2.471 z"
       id="path39"
       style="fill:url(#SVGID_1_)"
       inkscape:connector-curvature="0" />
    <path
       d="m 171.50773,91.506689 12.84,-7.413 c 4.414,-2.549 7.133,-7.26 7.133,-12.358 l 0,-28.738 -19.973,0 0,11.413 8.561,0 0,17.332 c 0,1.02 -0.545,1.961 -1.428,2.471 l -7.133,4.119 0,13.174 z"
       id="path41"
       inkscape:connector-curvature="0"
       style="fill:#e84b37" />
    <polygon
       points="142.921,0 122.946,19.974 142.921,19.974 "
       id="polygon43"
       transform="translate(28.586739,42.997689)"
       style="fill:#663a2a" />
    <g
       id="g45">
      <path
         d="m 36.616,116.372 0.072,-0.918 -0.048,0 -0.422,1.014 -2.041,3.382 -0.568,0 0,-6.038 0.87,0 0,3.586 -0.072,0.883 0.048,0 0.398,-0.991 2.065,-3.478 0.568,0 0,6.038 -0.87,0 0,-3.478 z"
         id="path47"
         inkscape:connector-curvature="0"
         style="fill:#e84b37" />
      <path
         d="m 45.963,116.263 0.084,-1.147 -0.048,0 -0.362,1.026 -1.123,2.319 -0.314,0 -1.171,-2.319 -0.326,-1.026 -0.061,0 0.097,1.136 0,3.599 -0.785,0 0,-6.038 0.87,0 1.316,2.62 0.266,0.785 0.024,0 0.29,-0.81 1.22,-2.596 0.894,0 0,6.038 -0.87,0 0,-3.587 z"
         id="path49"
         inkscape:connector-curvature="0"
         style="fill:#e84b37" />
      <path
         d="m 49.997,117.712 0.254,1.172 0.06,0 0.181,-1.172 0.918,-3.9 0.882,0 -1.438,5.422 c -0.113,0.436 -0.226,0.842 -0.338,1.221 -0.113,0.378 -0.236,0.706 -0.369,0.983 -0.133,0.278 -0.282,0.495 -0.447,0.652 -0.165,0.157 -0.36,0.235 -0.585,0.235 -0.226,0 -0.423,-0.036 -0.592,-0.108 l 0.145,-0.821 c 0.112,0.04 0.225,0.049 0.338,0.023 0.113,-0.023 0.219,-0.092 0.32,-0.205 0.1,-0.112 0.193,-0.279 0.277,-0.501 0.085,-0.222 0.159,-0.509 0.224,-0.863 l -1.957,-6.038 0.99,0 1.137,3.9 z"
         id="path51"
         inkscape:connector-curvature="0"
         style="fill:#e84b37" />
      <path
         d="m 56.24,117.156 -2.089,0 0,2.693 -0.87,0 0,-6.038 0.87,0 0,2.561 2.089,0 0,-2.561 0.87,0 0,6.038 -0.87,0 0,-2.693 z"
         id="path53"
         inkscape:connector-curvature="0"
         style="fill:#e84b37" />
      <path
         d="m 61.771,116.372 0.072,-0.918 -0.048,0 -0.422,1.014 -2.041,3.382 -0.568,0 0,-6.038 0.87,0 0,3.586 -0.072,0.883 0.048,0 0.398,-0.991 2.065,-3.478 0.568,0 0,6.038 -0.87,0 0,-3.478 z"
         id="path55"
         inkscape:connector-curvature="0"
         style="fill:#e84b37" />
      <path
         d="m 68.74,121.384 -0.604,0 -0.145,-1.534 -3.684,0 0,-6.038 0.87,0 0,5.253 1.993,0 0,-5.253 0.87,0 0,5.253 0.7,0 0,2.319 z"
         id="path57"
         inkscape:connector-curvature="0"
         style="fill:#e84b37" />
      <path
         d="m 72.894,116.372 0.072,-0.918 -0.048,0 -0.422,1.014 -2.041,3.382 -0.568,0 0,-6.038 0.87,0 0,3.586 -0.072,0.883 0.048,0 0.398,-0.991 2.065,-3.478 0.568,0 0,6.038 -0.87,0 0,-3.478 z"
         id="path59"
         inkscape:connector-curvature="0"
         style="fill:#e84b37" />
      <path
         d="m 78.328,114.597 -2.028,0 0,5.253 -0.87,0 0,-6.038 3.768,0 0,6.038 -0.87,0 0,-5.253 z"
         id="path61"
         inkscape:connector-curvature="0"
         style="fill:#e84b37" />
      <path
         d="m 80.804,114.173 c 0.233,-0.145 0.517,-0.257 0.851,-0.338 0.333,-0.08 0.687,-0.121 1.056,-0.121 0.339,0 0.611,0.051 0.816,0.151 0.205,0.1 0.365,0.237 0.482,0.411 0.117,0.173 0.193,0.37 0.229,0.592 0.036,0.221 0.055,0.453 0.055,0.694 0,0.483 -0.011,0.954 -0.031,1.413 -0.02,0.459 -0.031,0.894 -0.031,1.305 0,0.305 0.011,0.59 0.031,0.851 0.021,0.262 0.06,0.509 0.116,0.743 l -0.682,0 -0.211,-0.713 -0.048,0 c -0.12,0.209 -0.296,0.391 -0.527,0.543 -0.231,0.153 -0.544,0.23 -0.935,0.23 -0.432,0 -0.786,-0.151 -1.062,-0.453 -0.276,-0.303 -0.414,-0.719 -0.414,-1.25 0,-0.346 0.058,-0.637 0.174,-0.869 0.116,-0.234 0.279,-0.424 0.491,-0.568 0.211,-0.145 0.463,-0.248 0.754,-0.308 0.292,-0.061 0.617,-0.091 0.976,-0.091 0.08,0 0.16,0 0.24,0 0.08,0 0.164,0.004 0.252,0.012 0.023,-0.249 0.035,-0.471 0.035,-0.664 0,-0.459 -0.067,-0.781 -0.203,-0.966 -0.136,-0.185 -0.383,-0.278 -0.742,-0.278 -0.223,0 -0.467,0.035 -0.729,0.104 -0.264,0.068 -0.483,0.154 -0.658,0.26 l -0.285,-0.69 z m 2.597,2.924 c -0.08,-0.009 -0.16,-0.015 -0.239,-0.019 -0.079,-0.004 -0.159,-0.007 -0.238,-0.007 -0.19,0 -0.378,0.017 -0.562,0.049 -0.183,0.032 -0.346,0.089 -0.489,0.169 -0.143,0.081 -0.256,0.189 -0.34,0.326 -0.083,0.138 -0.125,0.31 -0.125,0.52 0,0.322 0.078,0.571 0.233,0.749 0.155,0.177 0.356,0.266 0.602,0.266 0.334,0 0.593,-0.08 0.775,-0.242 0.184,-0.16 0.311,-0.338 0.383,-0.531 l 0,-1.28 z"
         id="path63"
         inkscape:connector-curvature="0"
         style="fill:#e84b37" />
      <path
         d="m 88.557,114.597 -1.316,0 c -0.023,0.684 -0.057,1.346 -0.096,1.986 -0.041,0.64 -0.111,1.205 -0.212,1.697 -0.101,0.49 -0.243,0.883 -0.429,1.177 -0.186,0.294 -0.432,0.44 -0.736,0.44 -0.138,0 -0.254,-0.008 -0.351,-0.023 -0.097,-0.015 -0.186,-0.043 -0.266,-0.083 l 0.133,-0.751 c 0.169,0.049 0.319,0.039 0.452,-0.029 0.133,-0.069 0.248,-0.279 0.345,-0.63 0.097,-0.351 0.175,-0.888 0.235,-1.61 0.06,-0.722 0.104,-1.709 0.127,-2.959 l 2.982,0 0,6.038 -0.869,0 0,-5.253 z"
         id="path65"
         inkscape:connector-curvature="0"
         style="fill:#e84b37" />
      <path
         d="m 91.964,116.118 c 0.16,-0.032 0.313,-0.055 0.459,-0.066 0.145,-0.012 0.281,-0.019 0.41,-0.019 0.338,0 0.624,0.046 0.857,0.14 0.233,0.092 0.423,0.219 0.567,0.38 0.146,0.161 0.249,0.353 0.313,0.573 0.064,0.222 0.098,0.457 0.098,0.707 0,0.732 -0.178,1.264 -0.531,1.594 -0.355,0.33 -0.91,0.495 -1.667,0.495 -0.476,0 -0.935,-0.024 -1.377,-0.072 l 0,-6.038 0.87,0 0,2.306 z m 0,2.946 c 0.241,0.048 0.463,0.073 0.664,0.073 0.756,0 1.135,-0.398 1.135,-1.196 0,-0.362 -0.088,-0.646 -0.266,-0.852 -0.178,-0.205 -0.459,-0.308 -0.846,-0.308 -0.104,0 -0.217,0.006 -0.338,0.018 -0.121,0.012 -0.237,0.035 -0.35,0.066 l 0,2.199 z"
         id="path67"
         inkscape:connector-curvature="0"
         style="fill:#e84b37" />
      <path
         d="m 98.846,117.156 -2.089,0 0,2.693 -0.87,0 0,-6.038 0.87,0 0,2.561 2.089,0 0,-2.561 0.87,0 0,6.038 -0.87,0 0,-2.693 z"
         id="path69"
         inkscape:connector-curvature="0"
         style="fill:#e84b37" />
      <path
         d="m 102.24,116.118 c 0.161,-0.032 0.313,-0.055 0.459,-0.066 0.146,-0.011 0.282,-0.019 0.411,-0.019 0.33,0 0.607,0.046 0.832,0.14 0.227,0.092 0.405,0.219 0.538,0.38 0.133,0.161 0.228,0.353 0.284,0.573 0.057,0.222 0.084,0.457 0.084,0.707 0,0.732 -0.162,1.264 -0.488,1.594 -0.326,0.33 -0.868,0.495 -1.625,0.495 -0.467,0 -0.922,-0.024 -1.365,-0.072 l 0,-6.038 0.87,0 0,2.306 z m 0,2.946 c 0.241,0.048 0.463,0.073 0.664,0.073 0.387,0 0.656,-0.104 0.81,-0.309 0.152,-0.205 0.229,-0.501 0.229,-0.888 0,-0.362 -0.074,-0.646 -0.223,-0.852 -0.148,-0.205 -0.412,-0.308 -0.791,-0.308 -0.105,0 -0.217,0.006 -0.338,0.018 -0.121,0.012 -0.238,0.035 -0.351,0.066 l 0,2.2 z m 3.333,-5.252 0.869,0 0,6.038 -0.869,0 0,-6.038 z"
         id="path71"
         inkscape:connector-curvature="0"
         style="fill:#e84b37" />
      <path
         d="m 111.72,119.438 c -0.193,0.178 -0.438,0.314 -0.737,0.411 -0.297,0.097 -0.611,0.146 -0.941,0.146 -0.379,0 -0.707,-0.075 -0.984,-0.225 -0.277,-0.148 -0.508,-0.361 -0.688,-0.64 -0.18,-0.279 -0.313,-0.61 -0.398,-0.996 -0.085,-0.387 -0.127,-0.821 -0.127,-1.304 0,-1.031 0.188,-1.816 0.567,-2.355 0.379,-0.539 0.914,-0.81 1.606,-0.81 0.226,0 0.448,0.028 0.671,0.085 0.221,0.057 0.42,0.169 0.598,0.338 0.177,0.169 0.32,0.406 0.428,0.713 0.109,0.306 0.164,0.704 0.164,1.195 0,0.137 -0.006,0.283 -0.019,0.441 -0.013,0.156 -0.026,0.319 -0.042,0.488 l -3.068,0 c 0,0.347 0.029,0.66 0.085,0.942 0.056,0.282 0.146,0.521 0.266,0.718 0.121,0.198 0.276,0.352 0.466,0.459 0.188,0.109 0.424,0.164 0.706,0.164 0.218,0 0.433,-0.041 0.646,-0.121 0.213,-0.08 0.377,-0.178 0.489,-0.29 l 0.312,0.641 z m -0.676,-3.236 c 0.016,-0.604 -0.068,-1.047 -0.254,-1.328 -0.185,-0.281 -0.438,-0.423 -0.76,-0.423 -0.371,0 -0.664,0.142 -0.883,0.423 -0.217,0.281 -0.346,0.725 -0.386,1.328 l 2.283,0 z"
         id="path73"
         inkscape:connector-curvature="0"
         style="fill:#e84b37" />
      <path
         d="m 117.577,117.712 0.254,1.172 0.061,0 0.182,-1.172 0.918,-3.9 0.881,0 -1.438,5.422 c -0.112,0.436 -0.225,0.842 -0.338,1.221 -0.112,0.378 -0.235,0.706 -0.368,0.983 -0.133,0.278 -0.282,0.495 -0.446,0.652 -0.166,0.157 -0.361,0.235 -0.586,0.235 -0.226,0 -0.423,-0.036 -0.592,-0.108 l 0.145,-0.821 c 0.113,0.04 0.226,0.049 0.338,0.023 0.113,-0.023 0.22,-0.092 0.32,-0.205 0.101,-0.112 0.193,-0.279 0.277,-0.501 0.086,-0.222 0.16,-0.509 0.225,-0.863 l -1.957,-6.038 0.99,0 1.134,3.9 z"
         id="path75"
         inkscape:connector-curvature="0"
         style="fill:#e84b37" />
      <path
         d="m 124.136,119.548 c -0.201,0.152 -0.432,0.266 -0.688,0.338 -0.258,0.072 -0.527,0.109 -0.81,0.109 -0.387,0 -0.713,-0.075 -0.979,-0.225 -0.266,-0.148 -0.48,-0.361 -0.646,-0.64 -0.166,-0.279 -0.286,-0.612 -0.362,-1.003 -0.076,-0.39 -0.115,-0.822 -0.115,-1.297 0,-1.031 0.184,-1.816 0.551,-2.355 0.365,-0.539 0.891,-0.81 1.575,-0.81 0.313,0 0.584,0.028 0.81,0.085 0.225,0.057 0.418,0.129 0.58,0.217 l -0.242,0.762 c -0.322,-0.186 -0.672,-0.278 -1.051,-0.278 -0.435,0 -0.763,0.191 -0.984,0.573 -0.221,0.383 -0.332,0.984 -0.332,1.807 0,0.33 0.024,0.639 0.072,0.93 0.049,0.289 0.129,0.541 0.242,0.754 0.112,0.214 0.258,0.383 0.435,0.508 0.177,0.125 0.398,0.188 0.664,0.188 0.21,0 0.405,-0.037 0.586,-0.109 0.181,-0.072 0.327,-0.156 0.44,-0.254 l 0.254,0.7 z"
         id="path77"
         inkscape:connector-curvature="0"
         style="fill:#e84b37" />
      <path
         d="m 127.891,114.597 -1.316,0 c -0.024,0.684 -0.057,1.346 -0.097,1.986 -0.04,0.64 -0.11,1.205 -0.212,1.697 -0.101,0.49 -0.243,0.883 -0.428,1.177 -0.186,0.294 -0.432,0.44 -0.737,0.44 -0.138,0 -0.253,-0.008 -0.351,-0.023 -0.096,-0.016 -0.186,-0.043 -0.266,-0.083 l 0.133,-0.751 c 0.17,0.049 0.32,0.039 0.453,-0.029 0.133,-0.069 0.248,-0.279 0.344,-0.63 0.098,-0.351 0.176,-0.888 0.236,-1.61 0.06,-0.722 0.103,-1.709 0.127,-2.959 l 2.982,0 0,6.038 -0.869,0 0,-5.253 z"
         id="path79"
         inkscape:connector-curvature="0"
         style="fill:#e84b37" />
      <path
         d="m 131.925,117.712 0.254,1.172 0.061,0 0.181,-1.172 0.918,-3.9 0.882,0 -1.438,5.422 c -0.113,0.436 -0.226,0.842 -0.338,1.221 -0.113,0.378 -0.236,0.706 -0.369,0.983 -0.133,0.278 -0.281,0.495 -0.446,0.652 -0.165,0.157 -0.36,0.235 -0.585,0.235 -0.227,0 -0.424,-0.036 -0.592,-0.108 l 0.145,-0.821 c 0.112,0.04 0.225,0.049 0.338,0.023 0.113,-0.023 0.219,-0.092 0.32,-0.205 0.1,-0.112 0.193,-0.279 0.277,-0.501 0.085,-0.222 0.159,-0.509 0.224,-0.863 l -1.956,-6.038 0.99,0 1.134,3.9 z"
         id="path81"
         inkscape:connector-curvature="0"
         style="fill:#e84b37" />
      <path
         d="m 138.085,114.597 -2.006,0 0,5.253 -0.869,0 0,-6.038 2.875,0 0,0.785 z"
         id="path83"
         inkscape:connector-curvature="0"
         style="fill:#e84b37" />
      <path
         d="m 142.033,116.372 0.072,-0.918 -0.048,0 -0.423,1.014 -2.041,3.382 -0.567,0 0,-6.038 0.869,0 0,3.586 -0.072,0.883 0.049,0 0.398,-0.991 2.064,-3.478 0.568,0 0,6.038 -0.87,0 0,-3.478 z"
         id="path85"
         inkscape:connector-curvature="0"
         style="fill:#e84b37" />
    </g>
    <g
       id="g87">
      <path
         d="m 71.385,103.181 -2.005,0 0,5.254 -0.87,0 0,-6.039 2.875,0 0,0.785 z"
         id="path89"
         inkscape:connector-curvature="0"
         style="fill:#e84b37" />
      <path
         d="m 71.916,105.415 c 0,-1.087 0.188,-1.887 0.562,-2.397 0.375,-0.511 0.908,-0.767 1.6,-0.767 0.741,0 1.287,0.262 1.637,0.785 0.35,0.523 0.525,1.316 0.525,2.379 0,1.095 -0.189,1.896 -0.568,2.403 -0.379,0.507 -0.91,0.761 -1.594,0.761 -0.741,0 -1.286,-0.262 -1.636,-0.785 -0.35,-0.523 -0.526,-1.316 -0.526,-2.379 z m 0.906,0 c 0,0.354 0.022,0.676 0.066,0.966 0.044,0.29 0.117,0.54 0.217,0.749 0.1,0.209 0.231,0.373 0.393,0.488 0.161,0.117 0.354,0.176 0.58,0.176 0.419,0 0.733,-0.188 0.942,-0.562 0.209,-0.374 0.314,-0.979 0.314,-1.817 0,-0.346 -0.022,-0.666 -0.066,-0.961 -0.044,-0.293 -0.117,-0.545 -0.218,-0.754 -0.101,-0.209 -0.231,-0.373 -0.392,-0.489 -0.161,-0.116 -0.354,-0.175 -0.58,-0.175 -0.411,0 -0.723,0.189 -0.936,0.567 -0.214,0.378 -0.32,0.982 -0.32,1.812 z"
         id="path91"
         inkscape:connector-curvature="0"
         style="fill:#e84b37" />
      <path
         d="m 80.973,108.132 c -0.202,0.153 -0.431,0.266 -0.688,0.338 -0.258,0.073 -0.527,0.109 -0.809,0.109 -0.387,0 -0.713,-0.074 -0.979,-0.224 -0.266,-0.15 -0.481,-0.362 -0.646,-0.64 -0.165,-0.278 -0.286,-0.612 -0.362,-1.003 -0.077,-0.39 -0.115,-0.823 -0.115,-1.298 0,-1.031 0.183,-1.816 0.55,-2.355 0.366,-0.539 0.892,-0.809 1.576,-0.809 0.314,0 0.584,0.027 0.809,0.084 0.226,0.057 0.419,0.129 0.58,0.218 l -0.242,0.761 c -0.322,-0.186 -0.672,-0.277 -1.051,-0.277 -0.435,0 -0.763,0.191 -0.984,0.573 -0.221,0.382 -0.332,0.984 -0.332,1.806 0,0.33 0.024,0.64 0.073,0.93 0.048,0.29 0.128,0.541 0.241,0.755 0.113,0.214 0.258,0.382 0.435,0.507 0.177,0.125 0.398,0.188 0.664,0.188 0.209,0 0.405,-0.036 0.586,-0.108 0.181,-0.073 0.328,-0.157 0.44,-0.254 l 0.254,0.699 z"
         id="path93"
         inkscape:connector-curvature="0"
         style="fill:#e84b37" />
      <path
         d="m 83.534,106.296 0.254,1.172 0.06,0 0.181,-1.172 0.918,-3.9 0.883,0 -1.438,5.423 c -0.113,0.435 -0.227,0.841 -0.338,1.22 -0.113,0.379 -0.236,0.707 -0.369,0.984 -0.133,0.277 -0.281,0.495 -0.447,0.652 -0.164,0.156 -0.359,0.234 -0.585,0.234 -0.226,0 -0.423,-0.035 -0.592,-0.107 l 0.146,-0.822 c 0.111,0.041 0.225,0.049 0.338,0.024 0.112,-0.024 0.219,-0.093 0.32,-0.205 0.1,-0.112 0.192,-0.28 0.277,-0.501 0.084,-0.222 0.158,-0.51 0.223,-0.863 l -1.956,-6.039 0.99,0 1.135,3.9 z"
         id="path95"
         inkscape:connector-curvature="0"
         style="fill:#e84b37" />
      <path
         d="m 91.057,109.968 -0.604,0 -0.145,-1.533 -3.575,0 -0.157,1.533 -0.592,0 0,-2.318 0.568,0 c 0.048,-0.089 0.114,-0.252 0.199,-0.489 0.084,-0.237 0.166,-0.567 0.247,-0.991 0.08,-0.422 0.151,-0.943 0.212,-1.563 0.06,-0.62 0.094,-1.356 0.102,-2.21 l 3.031,0 0,5.254 0.713,0 0,2.317 z m -1.582,-2.319 0,-4.469 -1.365,0 c -0.016,0.346 -0.037,0.725 -0.066,1.135 -0.027,0.411 -0.07,0.82 -0.126,1.227 -0.057,0.406 -0.125,0.795 -0.206,1.165 -0.08,0.37 -0.173,0.685 -0.277,0.942 l 2.04,0 z"
         id="path97"
         inkscape:connector-curvature="0"
         style="fill:#e84b37" />
      <path
         d="m 92.144,102.758 c 0.233,-0.146 0.517,-0.257 0.851,-0.338 0.334,-0.081 0.688,-0.121 1.057,-0.121 0.339,0 0.611,0.05 0.816,0.151 0.205,0.101 0.365,0.237 0.482,0.41 0.117,0.174 0.193,0.371 0.229,0.592 0.036,0.222 0.055,0.453 0.055,0.695 0,0.482 -0.011,0.953 -0.031,1.412 -0.02,0.459 -0.031,0.895 -0.031,1.305 0,0.306 0.011,0.59 0.031,0.852 0.02,0.262 0.06,0.509 0.116,0.742 l -0.682,0 -0.211,-0.713 -0.048,0 c -0.12,0.21 -0.296,0.391 -0.527,0.544 -0.231,0.153 -0.544,0.229 -0.935,0.229 -0.432,0 -0.785,-0.15 -1.062,-0.453 -0.276,-0.302 -0.413,-0.719 -0.413,-1.25 0,-0.346 0.058,-0.636 0.174,-0.869 0.115,-0.233 0.279,-0.423 0.49,-0.568 0.212,-0.145 0.463,-0.247 0.755,-0.307 0.292,-0.061 0.617,-0.092 0.976,-0.092 0.08,0 0.16,0 0.24,0 0.08,0 0.164,0.005 0.252,0.013 0.023,-0.249 0.035,-0.472 0.035,-0.664 0,-0.459 -0.067,-0.781 -0.203,-0.966 -0.136,-0.186 -0.383,-0.278 -0.742,-0.278 -0.223,0 -0.467,0.034 -0.729,0.103 -0.264,0.068 -0.483,0.155 -0.658,0.26 l -0.287,-0.689 z m 2.597,2.923 c -0.08,-0.008 -0.16,-0.014 -0.239,-0.018 -0.079,-0.004 -0.159,-0.007 -0.238,-0.007 -0.19,0 -0.378,0.017 -0.562,0.048 -0.183,0.033 -0.346,0.09 -0.488,0.17 -0.144,0.08 -0.257,0.189 -0.34,0.326 -0.084,0.137 -0.126,0.31 -0.126,0.52 0,0.322 0.077,0.571 0.233,0.748 0.154,0.178 0.355,0.266 0.602,0.266 0.334,0 0.593,-0.08 0.775,-0.241 0.184,-0.161 0.311,-0.339 0.383,-0.532 l 0,-1.28 z"
         id="path99"
         inkscape:connector-curvature="0"
         style="fill:#e84b37" />
      <path
         d="m 97.276,102.396 0.617,0 0.133,0.652 0.048,0 c 0.298,-0.531 0.765,-0.797 1.401,-0.797 0.635,0 1.112,0.237 1.431,0.713 0.317,0.475 0.478,1.252 0.478,2.33 0,0.508 -0.053,0.965 -0.158,1.371 -0.104,0.406 -0.253,0.753 -0.446,1.039 -0.193,0.285 -0.429,0.502 -0.706,0.651 -0.278,0.149 -0.586,0.224 -0.924,0.224 -0.234,0 -0.42,-0.014 -0.557,-0.043 -0.137,-0.027 -0.285,-0.086 -0.446,-0.174 l 0,2.487 -0.87,0 0,-8.453 z m 0.87,5.084 c 0.112,0.098 0.239,0.174 0.38,0.23 0.141,0.056 0.328,0.084 0.563,0.084 0.426,0 0.765,-0.217 1.014,-0.652 0.25,-0.435 0.375,-1.055 0.375,-1.859 0,-0.338 -0.022,-0.645 -0.066,-0.918 -0.045,-0.273 -0.115,-0.51 -0.211,-0.707 -0.098,-0.197 -0.221,-0.35 -0.369,-0.459 -0.148,-0.108 -0.332,-0.162 -0.549,-0.162 -0.588,0 -0.967,0.357 -1.136,1.074 l 0,3.369 z"
         id="path101"
         inkscape:connector-curvature="0"
         style="fill:#e84b37" />
      <path
         d="m 106.105,108.132 c -0.202,0.153 -0.431,0.266 -0.688,0.338 -0.258,0.073 -0.527,0.109 -0.809,0.109 -0.387,0 -0.713,-0.074 -0.979,-0.224 -0.266,-0.15 -0.481,-0.362 -0.646,-0.64 -0.165,-0.278 -0.285,-0.612 -0.362,-1.003 -0.077,-0.39 -0.114,-0.823 -0.114,-1.298 0,-1.031 0.183,-1.816 0.549,-2.355 0.367,-0.539 0.893,-0.809 1.576,-0.809 0.314,0 0.584,0.027 0.809,0.084 0.227,0.057 0.42,0.129 0.58,0.218 l -0.241,0.761 c -0.322,-0.186 -0.673,-0.277 -1.051,-0.277 -0.435,0 -0.763,0.191 -0.984,0.573 -0.221,0.382 -0.332,0.984 -0.332,1.806 0,0.33 0.024,0.64 0.073,0.93 0.047,0.29 0.128,0.541 0.24,0.755 0.113,0.214 0.258,0.382 0.436,0.507 0.177,0.125 0.398,0.188 0.664,0.188 0.209,0 0.404,-0.036 0.586,-0.108 0.182,-0.073 0.328,-0.157 0.44,-0.254 l 0.253,0.699 z"
         id="path103"
         inkscape:connector-curvature="0"
         style="fill:#e84b37" />
      <path
         d="m 110.332,103.181 -1.485,0 0,5.254 -0.869,0 0,-5.254 -1.486,0 0,-0.785 3.841,0 0,0.785 z"
         id="path105"
         inkscape:connector-curvature="0"
         style="fill:#e84b37" />
      <path
         d="m 111.298,102.407 c 0.226,-0.016 0.471,-0.035 0.736,-0.061 0.266,-0.023 0.584,-0.035 0.955,-0.035 0.652,0 1.119,0.123 1.4,0.367 0.281,0.246 0.423,0.619 0.423,1.117 0,0.283 -0.066,0.557 -0.199,0.822 -0.133,0.265 -0.356,0.467 -0.671,0.604 l 0,0.049 c 0.387,0.088 0.66,0.251 0.822,0.488 0.16,0.238 0.24,0.563 0.24,0.973 0,0.628 -0.185,1.082 -0.555,1.364 -0.371,0.282 -0.922,0.423 -1.654,0.423 -0.274,0 -0.536,-0.01 -0.785,-0.03 -0.25,-0.021 -0.487,-0.042 -0.713,-0.066 l 0,-6.015 z m 1.763,2.561 c 0.112,0 0.221,-0.025 0.326,-0.078 0.104,-0.053 0.199,-0.123 0.283,-0.211 0.085,-0.089 0.151,-0.191 0.199,-0.309 0.049,-0.117 0.072,-0.239 0.072,-0.368 0,-0.313 -0.074,-0.544 -0.223,-0.688 -0.149,-0.145 -0.404,-0.217 -0.768,-0.217 -0.193,0 -0.346,0.004 -0.459,0.012 -0.112,0.008 -0.221,0.016 -0.326,0.023 l 0,1.836 0.896,0 z m -0.894,2.718 c 0.121,0.017 0.236,0.028 0.345,0.036 0.109,0.008 0.243,0.012 0.405,0.012 0.41,0 0.71,-0.084 0.898,-0.254 0.189,-0.168 0.284,-0.442 0.284,-0.82 0,-0.29 -0.081,-0.529 -0.241,-0.719 -0.161,-0.189 -0.455,-0.284 -0.882,-0.284 l -0.81,0 0,2.029 z"
         id="path107"
         inkscape:connector-curvature="0"
         style="fill:#e84b37" />
      <path
         d="m 120.017,108.023 c -0.193,0.177 -0.438,0.313 -0.737,0.411 -0.297,0.096 -0.611,0.145 -0.941,0.145 -0.379,0 -0.707,-0.074 -0.984,-0.224 -0.277,-0.15 -0.508,-0.362 -0.688,-0.64 -0.181,-0.278 -0.313,-0.61 -0.398,-0.996 -0.085,-0.387 -0.127,-0.822 -0.127,-1.305 0,-1.031 0.188,-1.816 0.567,-2.355 0.379,-0.539 0.914,-0.809 1.606,-0.809 0.226,0 0.448,0.027 0.671,0.084 0.221,0.057 0.42,0.17 0.598,0.338 0.177,0.17 0.32,0.407 0.428,0.713 0.109,0.307 0.164,0.705 0.164,1.195 0,0.138 -0.006,0.284 -0.019,0.441 -0.013,0.156 -0.026,0.32 -0.042,0.488 l -3.068,0 c 0,0.348 0.029,0.661 0.085,0.943 0.056,0.281 0.146,0.521 0.266,0.718 0.121,0.198 0.276,0.351 0.466,0.459 0.188,0.108 0.424,0.163 0.706,0.163 0.218,0 0.433,-0.04 0.646,-0.121 0.213,-0.08 0.377,-0.177 0.489,-0.289 l 0.312,0.641 z m -0.676,-3.237 c 0.016,-0.604 -0.068,-1.046 -0.254,-1.328 -0.185,-0.281 -0.438,-0.422 -0.76,-0.422 -0.371,0 -0.664,0.141 -0.883,0.422 -0.217,0.282 -0.346,0.725 -0.386,1.328 l 2.283,0 z"
         id="path109"
         inkscape:connector-curvature="0"
         style="fill:#e84b37" />
      <path
         d="m 124.594,105.741 -2.09,0 0,2.693 -0.869,0 0,-6.039 0.869,0 0,2.561 2.09,0 0,-2.561 0.869,0 0,6.039 -0.869,0 0,-2.693 z"
         id="path111"
         inkscape:connector-curvature="0"
         style="fill:#e84b37" />
      <path
         d="m 130.077,105.741 -2.089,0 0,2.693 -0.87,0 0,-6.039 0.87,0 0,2.561 2.089,0 0,-2.561 0.87,0 0,6.039 -0.87,0 0,-2.693 z"
         id="path113"
         inkscape:connector-curvature="0"
         style="fill:#e84b37" />
      <path
         d="m 133.47,104.702 c 0.161,-0.031 0.313,-0.055 0.459,-0.066 0.146,-0.011 0.282,-0.018 0.411,-0.018 0.33,0 0.607,0.046 0.832,0.139 0.227,0.092 0.405,0.219 0.538,0.381 0.133,0.16 0.228,0.352 0.284,0.573 0.056,0.221 0.084,0.457 0.084,0.706 0,0.732 -0.162,1.264 -0.488,1.594 -0.326,0.331 -0.868,0.496 -1.625,0.496 -0.467,0 -0.922,-0.024 -1.365,-0.072 l 0,-6.039 0.87,0 0,2.306 z m 0,2.947 c 0.241,0.048 0.463,0.072 0.664,0.072 0.387,0 0.656,-0.104 0.81,-0.309 0.152,-0.205 0.229,-0.5 0.229,-0.887 0,-0.363 -0.074,-0.646 -0.223,-0.852 -0.149,-0.206 -0.412,-0.309 -0.791,-0.309 -0.105,0 -0.217,0.006 -0.338,0.019 -0.121,0.012 -0.238,0.034 -0.351,0.066 l 0,2.2 z m 3.333,-5.253 0.869,0 0,6.039 -0.869,0 0,-6.039 z"
         id="path115"
         inkscape:connector-curvature="0"
         style="fill:#e84b37" />
      <path
         d="m 142.951,108.023 c -0.193,0.177 -0.438,0.313 -0.737,0.411 -0.297,0.096 -0.611,0.145 -0.941,0.145 -0.379,0 -0.707,-0.074 -0.984,-0.224 -0.277,-0.15 -0.508,-0.362 -0.688,-0.64 -0.181,-0.278 -0.313,-0.61 -0.398,-0.996 -0.085,-0.387 -0.127,-0.822 -0.127,-1.305 0,-1.031 0.188,-1.816 0.567,-2.355 0.379,-0.539 0.914,-0.809 1.606,-0.809 0.226,0 0.448,0.027 0.671,0.084 0.221,0.057 0.42,0.17 0.598,0.338 0.177,0.17 0.32,0.407 0.428,0.713 0.109,0.307 0.164,0.705 0.164,1.195 0,0.138 -0.006,0.284 -0.019,0.441 -0.013,0.156 -0.026,0.32 -0.042,0.488 l -3.068,0 c 0,0.348 0.029,0.661 0.085,0.943 0.056,0.281 0.146,0.521 0.266,0.718 0.121,0.198 0.276,0.351 0.466,0.459 0.188,0.108 0.424,0.163 0.706,0.163 0.218,0 0.433,-0.04 0.646,-0.121 0.213,-0.08 0.377,-0.177 0.489,-0.289 l 0.312,0.641 z m -0.677,-3.237 c 0.016,-0.604 -0.068,-1.046 -0.254,-1.328 -0.185,-0.281 -0.438,-0.422 -0.76,-0.422 -0.371,0 -0.664,0.141 -0.883,0.422 -0.217,0.282 -0.346,0.725 -0.386,1.328 l 2.283,0 z"
         id="path117"
         inkscape:connector-curvature="0"
         style="fill:#e84b37" />
    </g>
  </g>
</svg>
