<svg version="1.1" xmlns="http://www.w3.org/2000/svg" x="0px" y="0px" viewBox="0 0 162.893 122.809">
	<g>
		<path fill="#663A2A" d="M128.235,77.042l0.002-14.268h4.787c0,0,0,6.156,0,6.645c0,0.485-0.104,1.037-0.104,1.037h0.207
		l5.213-7.681l4.58,0.001v14.268h-4.787c0,0,0-6.059,0-6.705c0-0.479,0.104-0.935,0.104-0.935h-0.209l-5.211,7.64L128.235,77.042z"
		/>
		<path fill="#663A2A" d="M118.307,62.395c4.553,0,7.949,3.22,7.949,7.536c0,4.272-3.396,7.494-7.949,7.494
		c-4.508,0-7.904-3.222-7.904-7.494C110.403,65.614,113.8,62.395,118.307,62.395z M118.307,72.979c1.74,0,2.898-1.353,2.898-3.049
		c0-1.738-1.158-3.092-2.898-3.092c-1.695,0-2.898,1.354-2.898,3.092C115.409,71.627,116.612,72.979,118.307,72.979z"/>
		<path fill="#663A2A" d="M23.43,79.514c4.473,0,7.637,3.218,7.637,7.556c0,4.281-3.164,7.473-7.637,7.473
		c-4.42,0-7.613-3.191-7.613-7.473C15.817,82.731,19.011,79.514,23.43,79.514z M23.43,91.925c2.879,0,4.842-2.1,4.842-4.855
		c0-2.809-1.963-4.938-4.842-4.938c-2.826,0-4.791,2.129-4.791,4.938C18.639,89.825,20.604,91.925,23.43,91.925z"/>
		<path fill="#663A2A" d="M94.538,87.959c0.029-0.292,0.047-0.587,0.047-0.89c0-4.338-2.242-7.556-6.941-7.556
		c-4.018,0-6.92,3.218-6.92,7.556c0,0.303,0.02,0.598,0.047,0.89h-0.004c0.324,3.725,2.707,6.589,7.693,6.589
		c2.408,0,4.457-0.738,5.934-1.941l-1.121-2.05c-1.096,0.82-2.762,1.585-4.729,1.585c-3.117,0-4.621-1.693-4.895-4.183h0.01H94.538z
		 M87.784,81.885c2.568,0,3.91,1.671,4.137,3.86h-8.229C84.102,83.481,85.665,81.885,87.784,81.885z"/>
		<polygon fill="#663A2A" points="107.026,79.896 107.026,85.744 99.389,85.744 99.389,79.896 96.548,79.896 96.548,94.165 
		99.389,94.165 99.389,87.954 107.026,87.954 107.026,94.165 109.866,94.165 109.866,79.896 	"/>
		<polygon fill="#663A2A" points="124.831,79.896 111.829,79.896 111.829,82.427 116.909,82.427 116.909,94.165 119.751,94.165 
		119.751,82.427 124.831,82.427 	"/>
		<rect x="140.081" y="79.896" fill="#663A2A" width="2.84" height="14.269"/>
		<path fill="#663A2A" d="M39.259,86.659v-0.126c0,0,0.262-0.086,0.5-0.357c0.238-0.269,5.441-6.279,5.441-6.279h-3.188l-5.01,5.848
		H35.87v-5.848h-2.84v14.269h2.84v-6.211h1.287l5.408,6.211h3.537c0,0-6.064-6.84-6.322-7.135
		C39.53,86.747,39.259,86.659,39.259,86.659z"/>
		<path fill="#663A2A" d="M131.829,84.259c-1.33,0-2.195,0.168-2.195,0.168v-4.53h-2.84v14.272c0,0,2.334,0.229,4.748,0.229
		c4.463,0,5.93-2.721,5.93-5.224C137.471,86.636,136.161,84.259,131.829,84.259z M131.321,92.019c-0.883,0-1.688-0.068-1.688-0.068
		v-5.146c0,0,0.621-0.168,1.719-0.168c2.379,0,3.426,0.92,3.426,2.632C134.778,90.948,133.833,92.019,131.321,92.019z"/>
		<path fill="#663A2A" d="M11.132,79.896l-0.074,1.8h-0.184c-0.904-1.344-2.715-2.183-4.133-2.183c-4.16,0-6.637,3.218-6.738,7.556
		c-0.096,4.281,2.408,7.473,6.568,7.473c1.908,0,3.098-0.539,4.262-1.922h0.182v1.277c0,2.763-1.914,3.857-4.074,3.857
		c-1.988,0-3.535-0.751-4.482-1.318L1.53,98.792c0.9,0.465,2.596,1.477,5.41,1.477c3.992,0,6.916-2.378,6.916-6.944V79.896H11.132z
		 M7.077,91.925c-2.865,0-4.381-2.1-4.318-4.855c0.065-2.809,1.678-4.938,4.543-4.938c1.58,0,3.713,1.447,3.713,4.063v3.937
		C10.126,91.234,8.747,91.925,7.077,91.925z"/>
		<path fill="#663A2A" d="M57.362,79.896v10.342c-0.832,1.041-2.109,1.687-3.725,1.687c-2.609,0-3.803-2.1-3.74-4.855v-7.177h-2.754
		v7.177c-0.098,4.281,1.615,7.473,5.777,7.473c1.904,0,3.197-0.564,4.262-1.922h0.18v1.277c0,2.763-1.914,3.857-4.074,3.857
		c-1.988,0-3.535-0.751-4.482-1.318l-0.926,2.355c0.898,0.465,2.594,1.477,5.408,1.477c3.992,0,6.916-2.378,6.916-6.944V79.896
		H57.362z"/>
		<path fill="#663A2A" d="M76.071,79.896c0,0-4.697,6.605-4.834,6.8c-0.137,0.195-0.184,0.383-0.184,0.383h-0.102
		c0,0-0.059-0.186-0.209-0.383c-0.15-0.197-5.193-6.8-5.193-6.8h-2.68v14.269h2.84c0,0,0-8.467,0-9.1s-0.133-0.99-0.133-0.99h0.133
		l5.227,7.021h0.121l4.848-7.021h0.133c0,0-0.133,0.372-0.133,0.982c0,0.61,0,9.107,0,9.107h2.84V79.896H76.071z"/>
		<path fill="#663A2A" d="M104.663,62.774c0,0-4,5.197-4.16,5.395c-0.197,0.244-0.215,0.375-0.215,0.375h-0.207
		c0,0-0.039-0.142-0.227-0.375c-0.281-0.35-4.426-5.395-4.426-5.395h-3.775v14.268h4.615c0,0,0-5.345,0-5.99
		c0-0.644-0.104-1.037-0.104-1.037h0.207l3.709,4.261h0.199l3.439-4.261h0.209c0,0-0.105,0.387-0.105,1.037c0,0.652,0,5.99,0,5.99
		h4.617V62.774H104.663z"/>
		<linearGradient id="SVGID_1_" gradientUnits="userSpaceOnUse" x1="122.946" y1="37.0937" x2="142.9207" y2="37.0937">
			<stop  offset="0" style="stop-color:#D4A16F"/>
			<stop  offset="0.4997" style="stop-color:#D09A63"/>
			<stop  offset="1" style="stop-color:#CF975F"/>
		</linearGradient>
		<path fill="url(#SVGID_1_)" d="M134.36,34.452V19.974h-11.414v14.471c0,5.098,2.721,9.809,7.135,12.357l12.84,7.412V41.042
		l-7.133-4.119C134.903,36.413,134.36,35.472,134.36,34.452z"/>
		<path fill="#E84B37" d="M142.921,48.509l12.84-7.413c4.414-2.549,7.133-7.26,7.133-12.358V0h-19.973v11.413h8.561v17.332
		c0,1.02-0.545,1.961-1.428,2.471l-7.133,4.119V48.509z"/>
		<polygon fill="#663A2A" points="142.921,0 122.946,19.974 142.921,19.974 	"/>
		<g>
			<path fill="#E84B37" d="M36.616,116.372l0.072-0.918H36.64l-0.422,1.014l-2.041,3.382h-0.568v-6.038h0.87v3.586l-0.072,0.883
			h0.048l0.398-0.991l2.065-3.478h0.568v6.038h-0.87V116.372z"/>
			<path fill="#E84B37" d="M45.963,116.263l0.084-1.147h-0.048l-0.362,1.026l-1.123,2.319H44.2l-1.171-2.319l-0.326-1.026h-0.061
			l0.097,1.136v3.599h-0.785v-6.038h0.87l1.316,2.62l0.266,0.785h0.024l0.29-0.81l1.22-2.596h0.894v6.038h-0.87V116.263z"/>
			<path fill="#E84B37" d="M49.997,117.712l0.254,1.172h0.06l0.181-1.172l0.918-3.9h0.882l-1.438,5.422
			c-0.113,0.436-0.226,0.842-0.338,1.221c-0.113,0.378-0.236,0.706-0.369,0.983c-0.133,0.278-0.282,0.495-0.447,0.652
			s-0.36,0.235-0.585,0.235c-0.226,0-0.423-0.036-0.592-0.108l0.145-0.821c0.112,0.04,0.225,0.049,0.338,0.023
			c0.113-0.023,0.219-0.092,0.32-0.205c0.1-0.112,0.193-0.279,0.277-0.501c0.085-0.222,0.159-0.509,0.224-0.863l-1.957-6.038h0.99
			L49.997,117.712z"/>
			<path fill="#E84B37" d="M56.24,117.156h-2.089v2.693h-0.87v-6.038h0.87v2.561h2.089v-2.561h0.87v6.038h-0.87V117.156z"/>
			<path fill="#E84B37" d="M61.771,116.372l0.072-0.918h-0.048l-0.422,1.014l-2.041,3.382h-0.568v-6.038h0.87v3.586l-0.072,0.883
			h0.048l0.398-0.991l2.065-3.478h0.568v6.038h-0.87V116.372z"/>
			<path fill="#E84B37" d="M68.74,121.384h-0.604l-0.145-1.534h-3.684v-6.038h0.87v5.253h1.993v-5.253h0.87v5.253h0.7V121.384z"/>
			<path fill="#E84B37" d="M72.894,116.372l0.072-0.918h-0.048l-0.422,1.014l-2.041,3.382h-0.568v-6.038h0.87v3.586l-0.072,0.883
			h0.048l0.398-0.991l2.065-3.478h0.568v6.038h-0.87V116.372z"/>
			<path fill="#E84B37" d="M78.328,114.597H76.3v5.253h-0.87v-6.038h3.768v6.038h-0.87V114.597z"/>
			<path fill="#E84B37" d="M80.804,114.173c0.233-0.145,0.517-0.257,0.851-0.338c0.333-0.08,0.687-0.121,1.056-0.121
			c0.339,0,0.611,0.051,0.816,0.151s0.365,0.237,0.482,0.411c0.117,0.173,0.193,0.37,0.229,0.592
			c0.036,0.221,0.055,0.453,0.055,0.694c0,0.483-0.011,0.954-0.031,1.413s-0.031,0.894-0.031,1.305c0,0.305,0.011,0.59,0.031,0.851
			c0.021,0.262,0.06,0.509,0.116,0.743h-0.682l-0.211-0.713h-0.048c-0.12,0.209-0.296,0.391-0.527,0.543
			c-0.231,0.153-0.544,0.23-0.935,0.23c-0.432,0-0.786-0.151-1.062-0.453c-0.276-0.303-0.414-0.719-0.414-1.25
			c0-0.346,0.058-0.637,0.174-0.869c0.116-0.234,0.279-0.424,0.491-0.568c0.211-0.145,0.463-0.248,0.754-0.308
			c0.292-0.061,0.617-0.091,0.976-0.091c0.08,0,0.16,0,0.24,0s0.164,0.004,0.252,0.012c0.023-0.249,0.035-0.471,0.035-0.664
			c0-0.459-0.067-0.781-0.203-0.966s-0.383-0.278-0.742-0.278c-0.223,0-0.467,0.035-0.729,0.104
			c-0.264,0.068-0.483,0.154-0.658,0.26L80.804,114.173z M83.401,117.097c-0.08-0.009-0.16-0.015-0.239-0.019
			s-0.159-0.007-0.238-0.007c-0.19,0-0.378,0.017-0.562,0.049c-0.183,0.032-0.346,0.089-0.489,0.169
			c-0.143,0.081-0.256,0.189-0.34,0.326c-0.083,0.138-0.125,0.31-0.125,0.52c0,0.322,0.078,0.571,0.233,0.749
			c0.155,0.177,0.356,0.266,0.602,0.266c0.334,0,0.593-0.08,0.775-0.242c0.184-0.16,0.311-0.338,0.383-0.531V117.097z"/>
			<path fill="#E84B37" d="M88.557,114.597h-1.316c-0.023,0.684-0.057,1.346-0.096,1.986c-0.041,0.64-0.111,1.205-0.212,1.697
			c-0.101,0.49-0.243,0.883-0.429,1.177s-0.432,0.44-0.736,0.44c-0.138,0-0.254-0.008-0.351-0.023s-0.186-0.043-0.266-0.083
			l0.133-0.751c0.169,0.049,0.319,0.039,0.452-0.029c0.133-0.069,0.248-0.279,0.345-0.63s0.175-0.888,0.235-1.61
			s0.104-1.709,0.127-2.959h2.982v6.038h-0.869V114.597z"/>
			<path fill="#E84B37" d="M91.964,116.118c0.16-0.032,0.313-0.055,0.459-0.066c0.145-0.012,0.281-0.019,0.41-0.019
			c0.338,0,0.624,0.046,0.857,0.14c0.233,0.092,0.423,0.219,0.567,0.38c0.146,0.161,0.249,0.353,0.313,0.573
			c0.064,0.222,0.098,0.457,0.098,0.707c0,0.732-0.178,1.264-0.531,1.594c-0.355,0.33-0.91,0.495-1.667,0.495
			c-0.476,0-0.935-0.024-1.377-0.072v-6.038h0.87V116.118z M91.964,119.064c0.241,0.048,0.463,0.073,0.664,0.073
			c0.756,0,1.135-0.398,1.135-1.196c0-0.362-0.088-0.646-0.266-0.852c-0.178-0.205-0.459-0.308-0.846-0.308
			c-0.104,0-0.217,0.006-0.338,0.018s-0.237,0.035-0.35,0.066V119.064z"/>
			<path fill="#E84B37" d="M98.846,117.156h-2.089v2.693h-0.87v-6.038h0.87v2.561h2.089v-2.561h0.87v6.038h-0.87V117.156z"/>
			<path fill="#E84B37" d="M102.24,116.118c0.161-0.032,0.313-0.055,0.459-0.066s0.282-0.019,0.411-0.019
			c0.33,0,0.607,0.046,0.832,0.14c0.227,0.092,0.405,0.219,0.538,0.38s0.228,0.353,0.284,0.573c0.057,0.222,0.084,0.457,0.084,0.707
			c0,0.732-0.162,1.264-0.488,1.594s-0.868,0.495-1.625,0.495c-0.467,0-0.922-0.024-1.365-0.072v-6.038h0.87V116.118z
			 M102.24,119.064c0.241,0.048,0.463,0.073,0.664,0.073c0.387,0,0.656-0.104,0.81-0.309c0.152-0.205,0.229-0.501,0.229-0.888
			c0-0.362-0.074-0.646-0.223-0.852c-0.148-0.205-0.412-0.308-0.791-0.308c-0.105,0-0.217,0.006-0.338,0.018
			s-0.238,0.035-0.351,0.066V119.064z M105.573,113.812h0.869v6.038h-0.869V113.812z"/>
			<path fill="#E84B37" d="M111.72,119.438c-0.193,0.178-0.438,0.314-0.737,0.411c-0.297,0.097-0.611,0.146-0.941,0.146
			c-0.379,0-0.707-0.075-0.984-0.225c-0.277-0.148-0.508-0.361-0.688-0.64s-0.313-0.61-0.398-0.996
			c-0.085-0.387-0.127-0.821-0.127-1.304c0-1.031,0.188-1.816,0.567-2.355s0.914-0.81,1.606-0.81c0.226,0,0.448,0.028,0.671,0.085
			c0.221,0.057,0.42,0.169,0.598,0.338c0.177,0.169,0.32,0.406,0.428,0.713c0.109,0.306,0.164,0.704,0.164,1.195
			c0,0.137-0.006,0.283-0.019,0.441c-0.013,0.156-0.026,0.319-0.042,0.488h-3.068c0,0.347,0.029,0.66,0.085,0.942
			s0.146,0.521,0.266,0.718c0.121,0.198,0.276,0.352,0.466,0.459c0.188,0.109,0.424,0.164,0.706,0.164
			c0.218,0,0.433-0.041,0.646-0.121s0.377-0.178,0.489-0.29L111.72,119.438z M111.044,116.202c0.016-0.604-0.068-1.047-0.254-1.328
			c-0.185-0.281-0.438-0.423-0.76-0.423c-0.371,0-0.664,0.142-0.883,0.423c-0.217,0.281-0.346,0.725-0.386,1.328H111.044z"/>
			<path fill="#E84B37" d="M117.577,117.712l0.254,1.172h0.061l0.182-1.172l0.918-3.9h0.881l-1.438,5.422
			c-0.112,0.436-0.225,0.842-0.338,1.221c-0.112,0.378-0.235,0.706-0.368,0.983c-0.133,0.278-0.282,0.495-0.446,0.652
			c-0.166,0.157-0.361,0.235-0.586,0.235c-0.226,0-0.423-0.036-0.592-0.108l0.145-0.821c0.113,0.04,0.226,0.049,0.338,0.023
			c0.113-0.023,0.22-0.092,0.32-0.205c0.101-0.112,0.193-0.279,0.277-0.501c0.086-0.222,0.16-0.509,0.225-0.863l-1.957-6.038h0.99
			L117.577,117.712z"/>
			<path fill="#E84B37" d="M124.136,119.548c-0.201,0.152-0.432,0.266-0.688,0.338c-0.258,0.072-0.527,0.109-0.81,0.109
			c-0.387,0-0.713-0.075-0.979-0.225c-0.266-0.148-0.48-0.361-0.646-0.64s-0.286-0.612-0.362-1.003
			c-0.076-0.39-0.115-0.822-0.115-1.297c0-1.031,0.184-1.816,0.551-2.355c0.365-0.539,0.891-0.81,1.575-0.81
			c0.313,0,0.584,0.028,0.81,0.085c0.225,0.057,0.418,0.129,0.58,0.217l-0.242,0.762c-0.322-0.186-0.672-0.278-1.051-0.278
			c-0.435,0-0.763,0.191-0.984,0.573c-0.221,0.383-0.332,0.984-0.332,1.807c0,0.33,0.024,0.639,0.072,0.93
			c0.049,0.289,0.129,0.541,0.242,0.754c0.112,0.214,0.258,0.383,0.435,0.508s0.398,0.188,0.664,0.188
			c0.21,0,0.405-0.037,0.586-0.109s0.327-0.156,0.44-0.254L124.136,119.548z"/>
			<path fill="#E84B37" d="M127.891,114.597h-1.316c-0.024,0.684-0.057,1.346-0.097,1.986c-0.04,0.64-0.11,1.205-0.212,1.697
			c-0.101,0.49-0.243,0.883-0.428,1.177c-0.186,0.294-0.432,0.44-0.737,0.44c-0.138,0-0.253-0.008-0.351-0.023
			c-0.096-0.016-0.186-0.043-0.266-0.083l0.133-0.751c0.17,0.049,0.32,0.039,0.453-0.029c0.133-0.069,0.248-0.279,0.344-0.63
			c0.098-0.351,0.176-0.888,0.236-1.61s0.103-1.709,0.127-2.959h2.982v6.038h-0.869V114.597z"/>
			<path fill="#E84B37" d="M131.925,117.712l0.254,1.172h0.061l0.181-1.172l0.918-3.9h0.882l-1.438,5.422
			c-0.113,0.436-0.226,0.842-0.338,1.221c-0.113,0.378-0.236,0.706-0.369,0.983c-0.133,0.278-0.281,0.495-0.446,0.652
			s-0.36,0.235-0.585,0.235c-0.227,0-0.424-0.036-0.592-0.108l0.145-0.821c0.112,0.04,0.225,0.049,0.338,0.023
			c0.113-0.023,0.219-0.092,0.32-0.205c0.1-0.112,0.193-0.279,0.277-0.501c0.085-0.222,0.159-0.509,0.224-0.863l-1.956-6.038h0.99
			L131.925,117.712z"/>
			<path fill="#E84B37" d="M138.085,114.597h-2.006v5.253h-0.869v-6.038h2.875V114.597z"/>
			<path fill="#E84B37" d="M142.033,116.372l0.072-0.918h-0.048l-0.423,1.014l-2.041,3.382h-0.567v-6.038h0.869v3.586l-0.072,0.883
			h0.049l0.398-0.991l2.064-3.478h0.568v6.038h-0.87V116.372z"/>
		</g>
		<g>
			<path fill="#E84B37" d="M71.385,103.181H69.38v5.254h-0.87v-6.039h2.875V103.181z"/>
			<path fill="#E84B37" d="M71.916,105.415c0-1.087,0.188-1.887,0.562-2.397c0.375-0.511,0.908-0.767,1.6-0.767
			c0.741,0,1.287,0.262,1.637,0.785s0.525,1.316,0.525,2.379c0,1.095-0.189,1.896-0.568,2.403s-0.91,0.761-1.594,0.761
			c-0.741,0-1.286-0.262-1.636-0.785S71.916,106.478,71.916,105.415z M72.822,105.415c0,0.354,0.022,0.676,0.066,0.966
			s0.117,0.54,0.217,0.749s0.231,0.373,0.393,0.488c0.161,0.117,0.354,0.176,0.58,0.176c0.419,0,0.733-0.188,0.942-0.562
			c0.209-0.374,0.314-0.979,0.314-1.817c0-0.346-0.022-0.666-0.066-0.961c-0.044-0.293-0.117-0.545-0.218-0.754
			s-0.231-0.373-0.392-0.489c-0.161-0.116-0.354-0.175-0.58-0.175c-0.411,0-0.723,0.189-0.936,0.567
			C72.928,103.981,72.822,104.585,72.822,105.415z"/>
			<path fill="#E84B37" d="M80.973,108.132c-0.202,0.153-0.431,0.266-0.688,0.338c-0.258,0.073-0.527,0.109-0.809,0.109
			c-0.387,0-0.713-0.074-0.979-0.224s-0.481-0.362-0.646-0.64c-0.165-0.278-0.286-0.612-0.362-1.003
			c-0.077-0.39-0.115-0.823-0.115-1.298c0-1.031,0.183-1.816,0.55-2.355c0.366-0.539,0.892-0.809,1.576-0.809
			c0.314,0,0.584,0.027,0.809,0.084c0.226,0.057,0.419,0.129,0.58,0.218l-0.242,0.761c-0.322-0.186-0.672-0.277-1.051-0.277
			c-0.435,0-0.763,0.191-0.984,0.573c-0.221,0.382-0.332,0.984-0.332,1.806c0,0.33,0.024,0.64,0.073,0.93
			c0.048,0.29,0.128,0.541,0.241,0.755s0.258,0.382,0.435,0.507c0.177,0.125,0.398,0.188,0.664,0.188
			c0.209,0,0.405-0.036,0.586-0.108c0.181-0.073,0.328-0.157,0.44-0.254L80.973,108.132z"/>
			<path fill="#E84B37" d="M83.534,106.296l0.254,1.172h0.06l0.181-1.172l0.918-3.9h0.883l-1.438,5.423
			c-0.113,0.435-0.227,0.841-0.338,1.22c-0.113,0.379-0.236,0.707-0.369,0.984s-0.281,0.495-0.447,0.652
			c-0.164,0.156-0.359,0.234-0.585,0.234s-0.423-0.035-0.592-0.107l0.146-0.822c0.111,0.041,0.225,0.049,0.338,0.024
			c0.112-0.024,0.219-0.093,0.32-0.205c0.1-0.112,0.192-0.28,0.277-0.501c0.084-0.222,0.158-0.51,0.223-0.863l-1.956-6.039h0.99
			L83.534,106.296z"/>
			<path fill="#E84B37" d="M91.057,109.968h-0.604l-0.145-1.533h-3.575l-0.157,1.533h-0.592v-2.318h0.568
			c0.048-0.089,0.114-0.252,0.199-0.489c0.084-0.237,0.166-0.567,0.247-0.991c0.08-0.422,0.151-0.943,0.212-1.563
			c0.06-0.62,0.094-1.356,0.102-2.21h3.031v5.254h0.713V109.968z M89.475,107.649v-4.469H88.11
			c-0.016,0.346-0.037,0.725-0.066,1.135c-0.027,0.411-0.07,0.82-0.126,1.227c-0.057,0.406-0.125,0.795-0.206,1.165
			c-0.08,0.37-0.173,0.685-0.277,0.942H89.475z"/>
			<path fill="#E84B37" d="M92.144,102.758c0.233-0.146,0.517-0.257,0.851-0.338s0.688-0.121,1.057-0.121
			c0.339,0,0.611,0.05,0.816,0.151c0.205,0.101,0.365,0.237,0.482,0.41c0.117,0.174,0.193,0.371,0.229,0.592
			c0.036,0.222,0.055,0.453,0.055,0.695c0,0.482-0.011,0.953-0.031,1.412s-0.031,0.895-0.031,1.305c0,0.306,0.011,0.59,0.031,0.852
			s0.06,0.509,0.116,0.742h-0.682l-0.211-0.713h-0.048c-0.12,0.21-0.296,0.391-0.527,0.544s-0.544,0.229-0.935,0.229
			c-0.432,0-0.785-0.15-1.062-0.453c-0.276-0.302-0.413-0.719-0.413-1.25c0-0.346,0.058-0.636,0.174-0.869
			c0.115-0.233,0.279-0.423,0.49-0.568c0.212-0.145,0.463-0.247,0.755-0.307c0.292-0.061,0.617-0.092,0.976-0.092
			c0.08,0,0.16,0,0.24,0s0.164,0.005,0.252,0.013c0.023-0.249,0.035-0.472,0.035-0.664c0-0.459-0.067-0.781-0.203-0.966
			c-0.136-0.186-0.383-0.278-0.742-0.278c-0.223,0-0.467,0.034-0.729,0.103c-0.264,0.068-0.483,0.155-0.658,0.26L92.144,102.758z
			 M94.741,105.681c-0.08-0.008-0.16-0.014-0.239-0.018s-0.159-0.007-0.238-0.007c-0.19,0-0.378,0.017-0.562,0.048
			c-0.183,0.033-0.346,0.09-0.488,0.17c-0.144,0.08-0.257,0.189-0.34,0.326c-0.084,0.137-0.126,0.31-0.126,0.52
			c0,0.322,0.077,0.571,0.233,0.748c0.154,0.178,0.355,0.266,0.602,0.266c0.334,0,0.593-0.08,0.775-0.241
			c0.184-0.161,0.311-0.339,0.383-0.532V105.681z"/>
			<path fill="#E84B37" d="M97.276,102.396h0.617l0.133,0.652h0.048c0.298-0.531,0.765-0.797,1.401-0.797
			c0.635,0,1.112,0.237,1.431,0.713c0.317,0.475,0.478,1.252,0.478,2.33c0,0.508-0.053,0.965-0.158,1.371
			c-0.104,0.406-0.253,0.753-0.446,1.039c-0.193,0.285-0.429,0.502-0.706,0.651c-0.278,0.149-0.586,0.224-0.924,0.224
			c-0.234,0-0.42-0.014-0.557-0.043c-0.137-0.027-0.285-0.086-0.446-0.174v2.487h-0.87V102.396z M98.146,107.48
			c0.112,0.098,0.239,0.174,0.38,0.23s0.328,0.084,0.563,0.084c0.426,0,0.765-0.217,1.014-0.652c0.25-0.435,0.375-1.055,0.375-1.859
			c0-0.338-0.022-0.645-0.066-0.918c-0.045-0.273-0.115-0.51-0.211-0.707c-0.098-0.197-0.221-0.35-0.369-0.459
			c-0.148-0.108-0.332-0.162-0.549-0.162c-0.588,0-0.967,0.357-1.136,1.074V107.48z"/>
			<path fill="#E84B37" d="M106.105,108.132c-0.202,0.153-0.431,0.266-0.688,0.338c-0.258,0.073-0.527,0.109-0.809,0.109
			c-0.387,0-0.713-0.074-0.979-0.224s-0.481-0.362-0.646-0.64c-0.165-0.278-0.285-0.612-0.362-1.003
			c-0.077-0.39-0.114-0.823-0.114-1.298c0-1.031,0.183-1.816,0.549-2.355c0.367-0.539,0.893-0.809,1.576-0.809
			c0.314,0,0.584,0.027,0.809,0.084c0.227,0.057,0.42,0.129,0.58,0.218l-0.241,0.761c-0.322-0.186-0.673-0.277-1.051-0.277
			c-0.435,0-0.763,0.191-0.984,0.573s-0.332,0.984-0.332,1.806c0,0.33,0.024,0.64,0.073,0.93c0.047,0.29,0.128,0.541,0.24,0.755
			c0.113,0.214,0.258,0.382,0.436,0.507c0.177,0.125,0.398,0.188,0.664,0.188c0.209,0,0.404-0.036,0.586-0.108
			c0.182-0.073,0.328-0.157,0.44-0.254L106.105,108.132z"/>
			<path fill="#E84B37" d="M110.332,103.181h-1.485v5.254h-0.869v-5.254h-1.486v-0.785h3.841V103.181z"/>
			<path fill="#E84B37" d="M111.298,102.407c0.226-0.016,0.471-0.035,0.736-0.061c0.266-0.023,0.584-0.035,0.955-0.035
			c0.652,0,1.119,0.123,1.4,0.367c0.281,0.246,0.423,0.619,0.423,1.117c0,0.283-0.066,0.557-0.199,0.822s-0.356,0.467-0.671,0.604
			v0.049c0.387,0.088,0.66,0.251,0.822,0.488c0.16,0.238,0.24,0.563,0.24,0.973c0,0.628-0.185,1.082-0.555,1.364
			c-0.371,0.282-0.922,0.423-1.654,0.423c-0.274,0-0.536-0.01-0.785-0.03c-0.25-0.021-0.487-0.042-0.713-0.066V102.407z
			 M113.061,104.968c0.112,0,0.221-0.025,0.326-0.078c0.104-0.053,0.199-0.123,0.283-0.211c0.085-0.089,0.151-0.191,0.199-0.309
			c0.049-0.117,0.072-0.239,0.072-0.368c0-0.313-0.074-0.544-0.223-0.688c-0.149-0.145-0.404-0.217-0.768-0.217
			c-0.193,0-0.346,0.004-0.459,0.012c-0.112,0.008-0.221,0.016-0.326,0.023v1.836H113.061z M112.167,107.686
			c0.121,0.017,0.236,0.028,0.345,0.036s0.243,0.012,0.405,0.012c0.41,0,0.71-0.084,0.898-0.254c0.189-0.168,0.284-0.442,0.284-0.82
			c0-0.29-0.081-0.529-0.241-0.719c-0.161-0.189-0.455-0.284-0.882-0.284h-0.81V107.686z"/>
			<path fill="#E84B37" d="M120.017,108.023c-0.193,0.177-0.438,0.313-0.737,0.411c-0.297,0.096-0.611,0.145-0.941,0.145
			c-0.379,0-0.707-0.074-0.984-0.224s-0.508-0.362-0.688-0.64c-0.181-0.278-0.313-0.61-0.398-0.996
			c-0.085-0.387-0.127-0.822-0.127-1.305c0-1.031,0.188-1.816,0.567-2.355s0.914-0.809,1.606-0.809c0.226,0,0.448,0.027,0.671,0.084
			c0.221,0.057,0.42,0.17,0.598,0.338c0.177,0.17,0.32,0.407,0.428,0.713c0.109,0.307,0.164,0.705,0.164,1.195
			c0,0.138-0.006,0.284-0.019,0.441c-0.013,0.156-0.026,0.32-0.042,0.488h-3.068c0,0.348,0.029,0.661,0.085,0.943
			c0.056,0.281,0.146,0.521,0.266,0.718c0.121,0.198,0.276,0.351,0.466,0.459c0.188,0.108,0.424,0.163,0.706,0.163
			c0.218,0,0.433-0.04,0.646-0.121c0.213-0.08,0.377-0.177,0.489-0.289L120.017,108.023z M119.341,104.786
			c0.016-0.604-0.068-1.046-0.254-1.328c-0.185-0.281-0.438-0.422-0.76-0.422c-0.371,0-0.664,0.141-0.883,0.422
			c-0.217,0.282-0.346,0.725-0.386,1.328H119.341z"/>
			<path fill="#E84B37" d="M124.594,105.741h-2.09v2.693h-0.869v-6.039h0.869v2.561h2.09v-2.561h0.869v6.039h-0.869V105.741z"/>
			<path fill="#E84B37" d="M130.077,105.741h-2.089v2.693h-0.87v-6.039h0.87v2.561h2.089v-2.561h0.87v6.039h-0.87V105.741z"/>
			<path fill="#E84B37" d="M133.47,104.702c0.161-0.031,0.313-0.055,0.459-0.066s0.282-0.018,0.411-0.018
			c0.33,0,0.607,0.046,0.832,0.139c0.227,0.092,0.405,0.219,0.538,0.381c0.133,0.16,0.228,0.352,0.284,0.573
			s0.084,0.457,0.084,0.706c0,0.732-0.162,1.264-0.488,1.594c-0.326,0.331-0.868,0.496-1.625,0.496
			c-0.467,0-0.922-0.024-1.365-0.072v-6.039h0.87V104.702z M133.47,107.649c0.241,0.048,0.463,0.072,0.664,0.072
			c0.387,0,0.656-0.104,0.81-0.309c0.152-0.205,0.229-0.5,0.229-0.887c0-0.363-0.074-0.646-0.223-0.852s-0.412-0.309-0.791-0.309
			c-0.105,0-0.217,0.006-0.338,0.019c-0.121,0.012-0.238,0.034-0.351,0.066V107.649z M136.803,102.396h0.869v6.039h-0.869V102.396z"
			/>
			<path fill="#E84B37" d="M142.951,108.023c-0.193,0.177-0.438,0.313-0.737,0.411c-0.297,0.096-0.611,0.145-0.941,0.145
			c-0.379,0-0.707-0.074-0.984-0.224s-0.508-0.362-0.688-0.64c-0.181-0.278-0.313-0.61-0.398-0.996
			c-0.085-0.387-0.127-0.822-0.127-1.305c0-1.031,0.188-1.816,0.567-2.355s0.914-0.809,1.606-0.809c0.226,0,0.448,0.027,0.671,0.084
			c0.221,0.057,0.42,0.17,0.598,0.338c0.177,0.17,0.32,0.407,0.428,0.713c0.109,0.307,0.164,0.705,0.164,1.195
			c0,0.138-0.006,0.284-0.019,0.441c-0.013,0.156-0.026,0.32-0.042,0.488h-3.068c0,0.348,0.029,0.661,0.085,0.943
			c0.056,0.281,0.146,0.521,0.266,0.718c0.121,0.198,0.276,0.351,0.466,0.459c0.188,0.108,0.424,0.163,0.706,0.163
			c0.218,0,0.433-0.04,0.646-0.121c0.213-0.08,0.377-0.177,0.489-0.289L142.951,108.023z M142.274,104.786
			c0.016-0.604-0.068-1.046-0.254-1.328c-0.185-0.281-0.438-0.422-0.76-0.422c-0.371,0-0.664,0.141-0.883,0.422
			c-0.217,0.282-0.346,0.725-0.386,1.328H142.274z"/>
		</g>
	</g>
</svg>
